<?xml version="1.0" encoding="UTF-8" standalone="no"?>
<!-- Created with Inkscape (http://www.inkscape.org/) -->

<svg
   xmlns:dc="http://purl.org/dc/elements/1.1/"
   xmlns:cc="http://creativecommons.org/ns#"
   xmlns:rdf="http://www.w3.org/1999/02/22-rdf-syntax-ns#"
   xmlns:svg="http://www.w3.org/2000/svg"
   xmlns="http://www.w3.org/2000/svg"
   xmlns:sodipodi="http://sodipodi.sourceforge.net/DTD/sodipodi-0.dtd"
   xmlns:inkscape="http://www.inkscape.org/namespaces/inkscape"
   width="210mm"
   height="297mm"
   viewBox="0 0 210 297"
   version="1.1"
   id="svg5226"
   inkscape:version="0.92.1 r15371"
   sodipodi:docname="icon-stormtrooper.svg">
  <defs
     id="defs5220" />
  <sodipodi:namedview
     id="base"
     pagecolor="#ffffff"
     bordercolor="#666666"
     borderopacity="1.0"
     inkscape:pageopacity="0.0"
     inkscape:pageshadow="2"
     inkscape:zoom="3.959798"
     inkscape:cx="588.90544"
     inkscape:cy="775.20443"
     inkscape:document-units="mm"
     inkscape:current-layer="layer1"
     showgrid="false"
     inkscape:window-width="1680"
     inkscape:window-height="997"
     inkscape:window-x="1912"
     inkscape:window-y="-8"
     inkscape:window-maximized="1" />
  <metadata
     id="metadata5223">
    <rdf:RDF>
      <cc:Work
         rdf:about="">
        <dc:format>image/svg+xml</dc:format>
        <dc:type
           rdf:resource="http://purl.org/dc/dcmitype/StillImage" />
        <dc:title></dc:title>
      </cc:Work>
    </rdf:RDF>
  </metadata>
  <g
     inkscape:label="Layer 1"
     inkscape:groupmode="layer"
     id="layer1">
    <g
       transform="matrix(2.9128255,0,0,2.9128255,-2081.8162,-1605.1171)"
       id="g4876">
      <path
         style="fill:none;stroke:#000000;stroke-width:1px;stroke-linecap:round;stroke-linejoin:miter;stroke-opacity:1"
         d="m 734.41161,572.08218 h 1.13258"
         id="path4816"
         inkscape:connector-curvature="0"
         sodipodi:nodetypes="cc" />
      <path
         style="fill:none;stroke:#000000;stroke-width:1px;stroke-linecap:butt;stroke-linejoin:miter;stroke-opacity:1"
         d="m 738.3125,576.83218 -0.3125,2.0625 2.25,7 3.375,-0.8125"
         id="path4818"
         inkscape:connector-curvature="0"
         sodipodi:nodetypes="cccc" />
      <path
         style="fill:none;stroke:#000000;stroke-width:1px;stroke-linecap:butt;stroke-linejoin:miter;stroke-opacity:1"
         d="m 740.25,585.89468 -0.75,1.0625 1.5,2.25 2.8125,-1"
         id="path4820"
         inkscape:connector-curvature="0" />
      <path
         style="fill:none;stroke:#000000;stroke-width:1px;stroke-linecap:butt;stroke-linejoin:miter;stroke-opacity:1"
         d="m 741,589.20718 c -0.0628,2.58333 0.40169,5.16667 1,7.75 l 2.5625,-0.25"
         id="path4822"
         inkscape:connector-curvature="0"
         sodipodi:nodetypes="ccc" />
      <path
         style="fill:none;stroke:#000000;stroke-width:1px;stroke-linecap:butt;stroke-linejoin:miter;stroke-opacity:1"
         d="m 738.125,595.20718 -2.375,1.8125 -0.6875,2.125 -0.625,0.0625 0.4375,10.8125 5.1875,-0.5625 c 0.48595,-1.62353 0.76106,-4.37155 1,-7.3125 l -0.3125,-5.4375 -1.375,-3.125 -0.1875,-10.375 -4.5,0.0625 -1.16509,-1.08081 -1.16509,1.08081 -4.5,-0.0625 -0.1875,10.375 -1.375,3.125 -0.3125,5.4375 c 0.23894,2.94095 0.51405,5.68897 1,7.3125 l 5.1875,0.5625 0.4375,-10.8125 -0.625,-0.0625 -0.6875,-2.125 -2.375,-1.8125"
         id="path4824"
         inkscape:connector-curvature="0"
         sodipodi:nodetypes="ccccccccccccccccccccccc" />
      <path
         style="fill:none;stroke:#000000;stroke-width:1px;stroke-linecap:butt;stroke-linejoin:miter;stroke-opacity:1"
         d="m 737.75,593.51968 1.375,4 1.75,0.5625"
         id="path4826"
         inkscape:connector-curvature="0" />
      <path
         style="fill:none;stroke:#000000;stroke-width:1px;stroke-linecap:butt;stroke-linejoin:miter;stroke-opacity:1"
         d="m 733.5,593.64468 5.875,-0.0625"
         id="path4828"
         inkscape:connector-curvature="0" />
      <path
         style="fill:none;stroke:#000000;stroke-width:1px;stroke-linecap:butt;stroke-linejoin:miter;stroke-opacity:1"
         d="m 734.875,610.01968 0.0625,2.375 4.375,-0.8125 0.0625,-2.0625"
         id="path4830"
         inkscape:connector-curvature="0"
         sodipodi:nodetypes="cccc" />
      <path
         style="fill:none;stroke:#000000;stroke-width:1px;stroke-linecap:round;stroke-linejoin:miter;stroke-opacity:1"
         d="m 734.9375,612.39468 c -1.27653,6.01057 0.75845,4.62592 0.5,11.9375"
         id="path4832"
         inkscape:connector-curvature="0"
         sodipodi:nodetypes="cc" />
      <path
         style="fill:none;stroke:#000000;stroke-width:1px;stroke-linecap:round;stroke-linejoin:round;stroke-opacity:1"
         d="m 737.1875,623.39468 -1.75,0.9375 -0.125,2.75 h 5.61428 l 0.0312,-1.8125 c -0.32732,-0.82964 -1.18899,-1.21765 -1.58303,-1.875 -0.15674,-6.72503 2.04756,-7.94519 -0.0625,-11.8125"
         id="path4834"
         inkscape:connector-curvature="0"
         sodipodi:nodetypes="ccccccc" />
      <path
         style="fill:none;stroke:#000000;stroke-width:1px;stroke-linecap:butt;stroke-linejoin:miter;stroke-opacity:1"
         d="m 742,596.95718 c -0.0651,0.96083 -0.0455,2.17605 -0.34375,2.4375 -0.72278,0.75921 -0.69006,1.74507 -0.59375,2.75"
         id="path4836"
         inkscape:connector-curvature="0"
         sodipodi:nodetypes="ccc" />
      <circle
         style="opacity:1;fill:#000000;fill-opacity:1;stroke:none;stroke-width:0.46399999;stroke-linecap:round;stroke-linejoin:round;stroke-miterlimit:4;stroke-dasharray:none;stroke-opacity:1;paint-order:normal"
         id="circle4838"
         cx="734.98444"
         cy="576.37903"
         r="0.45312503" />
      <path
         sodipodi:nodetypes="ccccccccccccccccccccc"
         inkscape:connector-curvature="0"
         id="path4840"
         d="m 725.98232,602.14468 -2.0625,-0.0625 c -1.73284,-1.20483 -1.79873,-2.87994 -1.4375,-5.375 -0.29578,-2.52088 -0.91611,-5.63588 0.75,-8.5 l 0.1875,-3.125 -0.5,-0.5 c 0.53477,-2.22887 0.53887,-8.28602 5.8125,-7.75 l 0.1875,-1.375 c -0.34219,-0.70503 -0.90917,-1.38509 0.1875,-2.25 0.42537,-0.38194 0.8175,-0.84257 0.625,-2.6875 0.53654,-1.73709 0.74682,-3.7134 3.79009,-3.6875 3.04327,-0.0259 3.25355,1.95041 3.79009,3.6875 -0.1925,1.84493 0.19963,2.30556 0.625,2.6875 1.09667,0.86491 0.52969,1.54497 0.1875,2.25 l 0.1875,1.375 c 5.27363,-0.53602 5.27773,5.52113 5.8125,7.75 l -0.5,0.5 0.1875,3.125 c 1.66611,2.86412 1.04578,5.97912 0.75,8.5 0.36123,2.49506 0.29534,4.17017 -1.4375,5.375 l -2.0625,0.0625"
         style="opacity:1;fill:none;stroke:#000000;stroke-width:1px;stroke-linecap:butt;stroke-linejoin:round;stroke-opacity:1" />
      <path
         inkscape:connector-curvature="0"
         id="path4842"
         d="m 729.85732,570.26968 h 7.33018"
         style="fill:none;stroke:#000000;stroke-width:1px;stroke-linecap:butt;stroke-linejoin:miter;stroke-opacity:1"
         sodipodi:nodetypes="cc" />
      <path
         sodipodi:nodetypes="cc"
         inkscape:connector-curvature="0"
         id="path4844"
         d="m 732.63321,572.08218 h -1.13258"
         style="fill:none;stroke:#000000;stroke-width:1px;stroke-linecap:round;stroke-linejoin:miter;stroke-opacity:1" />
      <path
         inkscape:connector-curvature="0"
         id="path4846"
         d="m 729.20107,576.30093 1.40625,-1.40625 h 0.6875 l 0.875,-0.875 h 2.70518 l 0.875,0.875 h 0.6875 l 1.40625,1.40625"
         style="fill:none;stroke:#000000;stroke-width:1px;stroke-linecap:butt;stroke-linejoin:round;stroke-opacity:1"
         sodipodi:nodetypes="cccccccc" />
      <path
         sodipodi:nodetypes="cccccccc"
         inkscape:connector-curvature="0"
         id="path4848"
         d="m 729.20107,576.30093 2.15625,1.71875 h 0.9375 l 0.5625,-0.5625 h 1.33018 l 0.5625,0.5625 h 0.9375 l 2.15625,-1.71875"
         style="fill:none;stroke:#000000;stroke-width:1px;stroke-linecap:butt;stroke-linejoin:miter;stroke-opacity:1" />
      <path
         sodipodi:nodetypes="cccc"
         inkscape:connector-curvature="0"
         id="path4850"
         d="m 728.73232,576.83218 0.3125,2.0625 -2.25,7 -3.375,-0.8125"
         style="fill:none;stroke:#000000;stroke-width:1px;stroke-linecap:butt;stroke-linejoin:miter;stroke-opacity:1" />
      <path
         inkscape:connector-curvature="0"
         id="path4852"
         d="m 726.79482,585.89468 0.75,1.0625 -1.5,2.25 -2.8125,-1"
         style="fill:none;stroke:#000000;stroke-width:1px;stroke-linecap:butt;stroke-linejoin:miter;stroke-opacity:1" />
      <path
         sodipodi:nodetypes="ccc"
         inkscape:connector-curvature="0"
         id="path4854"
         d="m 726.04482,589.20718 c 0.0628,2.58333 -0.40169,5.16667 -1,7.75 l -2.5625,-0.25"
         style="fill:none;stroke:#000000;stroke-width:1px;stroke-linecap:butt;stroke-linejoin:miter;stroke-opacity:1" />
      <path
         inkscape:connector-curvature="0"
         id="path4856"
         d="m 729.29482,593.51968 -1.375,4 -1.75,0.5625"
         style="fill:none;stroke:#000000;stroke-width:1px;stroke-linecap:butt;stroke-linejoin:miter;stroke-opacity:1" />
      <path
         sodipodi:nodetypes="ccc"
         inkscape:connector-curvature="0"
         id="path4858"
         d="m 727.85732,588.39468 c 1.44749,-1.3402 3.35068,-1.375 5.66509,-1.375 2.31441,0 4.2176,0.0348 5.66509,1.375"
         style="fill:none;stroke:#000000;stroke-width:1px;stroke-linecap:butt;stroke-linejoin:miter;stroke-opacity:1" />
      <path
         inkscape:connector-curvature="0"
         id="path4860"
         d="M 727.85732,590.70718 H 739.1875"
         style="fill:none;stroke:#000000;stroke-width:1px;stroke-linecap:butt;stroke-linejoin:miter;stroke-opacity:1"
         sodipodi:nodetypes="cc" />
      <path
         inkscape:connector-curvature="0"
         id="path4862"
         d="m 733.54482,593.64468 -5.875,-0.0625"
         style="fill:none;stroke:#000000;stroke-width:1px;stroke-linecap:butt;stroke-linejoin:miter;stroke-opacity:1" />
      <path
         sodipodi:nodetypes="cccc"
         inkscape:connector-curvature="0"
         id="path4864"
         d="m 732.16982,610.01968 -0.0625,2.375 -4.375,-0.8125 -0.0625,-2.0625"
         style="fill:none;stroke:#000000;stroke-width:1px;stroke-linecap:butt;stroke-linejoin:miter;stroke-opacity:1" />
      <path
         sodipodi:nodetypes="cc"
         inkscape:connector-curvature="0"
         id="path4866"
         d="m 732.10732,612.39468 c 1.27653,6.01057 -0.75845,4.62592 -0.5,11.9375"
         style="fill:none;stroke:#000000;stroke-width:1px;stroke-linecap:round;stroke-linejoin:miter;stroke-opacity:1" />
      <path
         sodipodi:nodetypes="ccccccc"
         inkscape:connector-curvature="0"
         id="path4868"
         d="m 729.85732,623.39468 1.75,0.9375 0.125,2.75 h -5.61428 l -0.0312,-1.8125 c 0.32732,-0.82964 1.18899,-1.21765 1.58303,-1.875 0.15674,-6.72503 -2.04756,-7.94519 0.0625,-11.8125"
         style="fill:none;stroke:#000000;stroke-width:1px;stroke-linecap:round;stroke-linejoin:round;stroke-opacity:1" />
      <path
         sodipodi:nodetypes="ccc"
         inkscape:connector-curvature="0"
         id="path4870"
         d="m 725.04482,596.95718 c 0.0651,0.96083 0.0455,2.17605 0.34375,2.4375 0.72278,0.75921 0.69006,1.74507 0.59375,2.75"
         style="fill:none;stroke:#000000;stroke-width:1px;stroke-linecap:butt;stroke-linejoin:miter;stroke-opacity:1" />
      <path
         sodipodi:nodetypes="cc"
         inkscape:connector-curvature="0"
         id="path4872"
         d="m 734.4375,599.20718 h -1.83018"
         style="fill:none;stroke:#000000;stroke-width:1px;stroke-linecap:round;stroke-linejoin:miter;stroke-opacity:1" />
      <circle
         r="0.45312503"
         cy="576.37903"
         cx="-732.06049"
         id="circle4874"
         style="opacity:1;fill:#000000;fill-opacity:1;stroke:none;stroke-width:0.46399999;stroke-linecap:round;stroke-linejoin:round;stroke-miterlimit:4;stroke-dasharray:none;stroke-opacity:1;paint-order:normal"
         transform="scale(-1,1)" />
    </g>
    <path
       style="fill:none;fill-opacity:1;stroke:#000000;stroke-width:2.91282535px;stroke-linecap:round;stroke-linejoin:miter;stroke-opacity:1"
       d="M 57.396594,61.258448 H 60.69557"
       id="path4807"
       inkscape:connector-curvature="0"
       sodipodi:nodetypes="cc" />
    <path
       style="fill:none;fill-opacity:1;stroke:#000000;stroke-width:2.91282535px;stroke-linecap:butt;stroke-linejoin:miter;stroke-opacity:1"
       d="m 68.759216,75.094282 -0.910215,6.007787 6.553831,20.389611 9.830789,-2.366588"
       id="path4813"
       inkscape:connector-curvature="0"
       sodipodi:nodetypes="cccc" />
    <path
       style="fill:none;fill-opacity:1;stroke:#000000;stroke-width:2.91282535px;stroke-linecap:butt;stroke-linejoin:miter;stroke-opacity:1"
       d="m 74.402782,101.49168 -2.184616,3.09487 4.369266,6.55395 8.192284,-2.91293"
       id="path4815"
       inkscape:connector-curvature="0" />
    <path
       style="fill:none;fill-opacity:1;stroke:#000000;stroke-width:2.91282535px;stroke-linecap:butt;stroke-linejoin:miter;stroke-opacity:1"
       d="m 76.587432,111.1405 c -0.182785,7.52481 1.169987,15.04962 2.912804,22.57443 l 7.46413,-0.72777"
       id="path4817"
       inkscape:connector-curvature="0"
       sodipodi:nodetypes="ccc" />
    <path
       style="fill:none;fill-opacity:1;stroke:#000000;stroke-width:2.91282535px;stroke-linecap:butt;stroke-linejoin:miter;stroke-opacity:1"
       d="m 68.213019,128.61753 -6.917934,5.27934 -2.002573,6.1899 -1.820496,0.18194 1.274267,31.49497 15.110269,-1.63916 c 1.41544,-4.72897 2.216843,-12.73357 2.912855,-21.3 l -0.910214,-15.83854 -4.005147,-9.10248 -0.546162,-30.220708 -13.107697,0.18194 -3.393686,-3.1481 -3.393704,3.1481 -13.107747,-0.18194 -0.546163,30.220708 -4.005095,9.10248 -0.910215,15.83854 c 0.695928,8.56643 1.497314,16.57103 2.912805,21.3 l 15.11032,1.63916 1.274266,-31.49497 -1.820496,-0.18194 -2.002573,-6.1899 -6.917985,-5.27934"
       id="path4819"
       inkscape:connector-curvature="0"
       sodipodi:nodetypes="ccccccccccccccccccccccc" />
    <path
       style="fill:none;fill-opacity:1;stroke:#000000;stroke-width:2.91282535px;stroke-linecap:butt;stroke-linejoin:miter;stroke-opacity:1"
       d="m 67.120711,123.70206 4.005147,11.65136 5.097454,1.63916"
       id="path4821"
       inkscape:connector-curvature="0" />
    <path
       style="fill:none;fill-opacity:1;stroke:#000000;stroke-width:2.91282535px;stroke-linecap:butt;stroke-linejoin:miter;stroke-opacity:1"
       d="m 54.741204,124.06612 17.112842,-0.18195"
       id="path4827"
       inkscape:connector-curvature="0" />
    <path
       style="fill:none;fill-opacity:1;stroke:#000000;stroke-width:2.91282535px;stroke-linecap:butt;stroke-linejoin:miter;stroke-opacity:1"
       d="m 58.74635,171.76368 0.181942,6.91801 12.743593,-2.36676 0.181942,-6.00762"
       id="path4829"
       inkscape:connector-curvature="0"
       sodipodi:nodetypes="cccc" />
    <path
       style="fill:none;fill-opacity:1;stroke:#000000;stroke-width:2.91282535px;stroke-linecap:round;stroke-linejoin:miter;stroke-opacity:1"
       d="m 58.928443,178.68169 c -3.718318,17.50769 2.209212,13.47447 1.456377,34.77178"
       id="path4831"
       inkscape:connector-curvature="0"
       sodipodi:nodetypes="cc" />
    <path
       style="fill:none;fill-opacity:1;stroke:#000000;stroke-width:2.91282535px;stroke-linecap:round;stroke-linejoin:round;stroke-opacity:1"
       d="m 65.482258,210.72265 -5.097438,2.73082 -0.36422,8.01032 h 16.353404 l 0.09097,-5.27951 c -0.95351,-2.41663 -3.463347,-3.54686 -4.611148,-5.46163 -0.456539,-19.58873 5.964222,-23.14283 -0.181942,-34.40772"
       id="path4833"
       inkscape:connector-curvature="0"
       sodipodi:nodetypes="ccccccc" />
    <path
       style="fill:none;fill-opacity:1;stroke:#000000;stroke-width:2.91282535px;stroke-linecap:butt;stroke-linejoin:miter;stroke-opacity:1"
       d="m 79.500236,133.71493 c -0.189354,2.7987 -0.133087,6.33848 -1.001354,7.09994 -2.10532,2.21144 -2.010019,5.08309 -1.729475,8.01033"
       id="path4835"
       inkscape:connector-curvature="0"
       sodipodi:nodetypes="ccc" />
    <circle
       style="opacity:1;fill:none;fill-opacity:1;stroke:none;stroke-width:1.35155106;stroke-linecap:round;stroke-linejoin:round;stroke-miterlimit:4;stroke-dasharray:none;stroke-opacity:1;paint-order:normal"
       id="path4743"
       cx="59.06517"
       cy="73.774437"
       r="1.319874" />
    <path
       sodipodi:nodetypes="ccccccccccccccccccccc"
       inkscape:connector-curvature="0"
       id="path4745"
       d="m 32.843543,148.8252 -6.007719,-0.18194 c -5.047437,-3.50946 -5.239369,-8.38887 -4.187172,-15.65644 -0.861529,-7.34286 -2.668447,-16.41637 2.184599,-24.75908 l 0.546162,-9.102478 -1.456377,-1.45722 c 1.557625,-6.49229 1.569586,-24.135596 16.930766,-22.574265 l 0.546163,-4.005248 c -0.996806,-2.053584 -2.648248,-4.03456 0.546162,-6.55378 1.239058,-1.111867 2.381265,-2.454362 1.820547,-7.828216 1.562847,-5.059837 2.175334,-10.816443 11.039877,-10.741139 8.864476,-0.06739 9.476997,5.681302 11.03986,10.741139 -0.56065,5.373854 0.58154,6.715675 1.820497,7.828216 3.19441,2.51922 1.542967,4.500196 0.546162,6.55378 l 0.546162,4.005248 c 15.361131,-1.561668 15.373075,16.081975 16.930766,22.574265 l -1.456377,1.45722 0.546163,9.102478 c 4.853113,8.34271 3.046211,17.41622 2.184649,24.75908 1.052231,7.26757 0.860349,12.14698 -4.187172,15.65644 l -6.007719,0.18194"
       style="opacity:1;fill:none;fill-opacity:1;stroke:#000000;stroke-width:2.91282535px;stroke-linecap:butt;stroke-linejoin:round;stroke-opacity:1" />
    <path
       inkscape:connector-curvature="0"
       id="path4747"
       d="M 44.13076,55.978934 H 65.482258"
       style="fill:none;fill-opacity:1;stroke:#000000;stroke-width:2.91282535px;stroke-linecap:butt;stroke-linejoin:miter;stroke-opacity:1"
       sodipodi:nodetypes="cc" />
    <path
       sodipodi:nodetypes="cc"
       inkscape:connector-curvature="0"
       id="path4749"
       d="M 52.216424,61.258448 H 48.917397"
       style="fill:none;fill-opacity:1;stroke:#000000;stroke-width:2.91282535px;stroke-linecap:round;stroke-linejoin:miter;stroke-opacity:1" />
    <path
       inkscape:connector-curvature="0"
       id="path4751"
       d="m 42.219192,73.546766 4.096167,-4.09605 h 2.002573 l 2.548736,-2.548702 h 7.879682 l 2.548735,2.548702 h 2.002574 l 4.096151,4.09605"
       style="fill:none;fill-opacity:1;stroke:#000000;stroke-width:2.91282535px;stroke-linecap:butt;stroke-linejoin:round;stroke-opacity:1"
       sodipodi:nodetypes="cccccccc" />
    <path
       sodipodi:nodetypes="cccccccc"
       inkscape:connector-curvature="0"
       id="path4753"
       d="m 42.219192,73.546766 6.280783,5.006433 h 2.730762 l 1.638487,-1.639162 h 3.874553 l 1.638487,1.639162 h 2.730795 l 6.280767,-5.006433"
       style="fill:none;fill-opacity:1;stroke:#000000;stroke-width:2.91282535px;stroke-linecap:butt;stroke-linejoin:miter;stroke-opacity:1" />
    <path
       sodipodi:nodetypes="cccc"
       inkscape:connector-curvature="0"
       id="path4755"
       d="m 40.853802,75.094282 0.910215,6.007787 -6.553865,20.389611 -9.830789,-2.366588"
       style="fill:none;fill-opacity:1;stroke:#000000;stroke-width:2.91282535px;stroke-linecap:butt;stroke-linejoin:miter;stroke-opacity:1" />
    <path
       inkscape:connector-curvature="0"
       id="path4757"
       d="m 35.210202,101.49168 2.18465,3.09487 -4.369266,6.55395 -8.192335,-2.91293"
       style="fill:none;fill-opacity:1;stroke:#000000;stroke-width:2.91282535px;stroke-linecap:butt;stroke-linejoin:miter;stroke-opacity:1" />
    <path
       sodipodi:nodetypes="ccc"
       inkscape:connector-curvature="0"
       id="path4759"
       d="m 33.025586,111.1405 c 0.182784,7.52481 -1.169987,15.04962 -2.912838,22.57443 l -7.464096,-0.72777"
       style="fill:none;fill-opacity:1;stroke:#000000;stroke-width:2.91282535px;stroke-linecap:butt;stroke-linejoin:miter;stroke-opacity:1" />
    <path
       inkscape:connector-curvature="0"
       id="path4763"
       d="m 42.492256,123.70206 -4.005113,11.65136 -5.097437,1.63916"
       style="fill:none;fill-opacity:1;stroke:#000000;stroke-width:2.91282535px;stroke-linecap:butt;stroke-linejoin:miter;stroke-opacity:1" />
    <path
       sodipodi:nodetypes="ccc"
       inkscape:connector-curvature="0"
       id="path4765"
       d="m 38.305067,108.77374 c 4.2163,-3.90367 9.759966,-4.00508 16.50145,-4.00508 6.741468,0 12.285134,0.10108 16.501384,4.00508"
       style="fill:none;fill-opacity:1;stroke:#000000;stroke-width:2.91282535px;stroke-linecap:butt;stroke-linejoin:miter;stroke-opacity:1" />
    <path
       inkscape:connector-curvature="0"
       id="path4767"
       d="M 38.305067,115.5098 H 71.307901"
       style="fill:none;fill-opacity:1;stroke:#000000;stroke-width:2.91282535px;stroke-linecap:butt;stroke-linejoin:miter;stroke-opacity:1"
       sodipodi:nodetypes="cc" />
    <path
       inkscape:connector-curvature="0"
       id="path4769"
       d="M 54.871764,124.06612 37.758921,123.88417"
       style="fill:none;fill-opacity:1;stroke:#000000;stroke-width:2.91282535px;stroke-linecap:butt;stroke-linejoin:miter;stroke-opacity:1" />
    <path
       sodipodi:nodetypes="cccc"
       inkscape:connector-curvature="0"
       id="path4771"
       d="m 50.866668,171.76368 -0.181773,6.91801 -12.743594,-2.36676 -0.181942,-6.00762"
       style="fill:none;fill-opacity:1;stroke:#000000;stroke-width:2.91282535px;stroke-linecap:butt;stroke-linejoin:miter;stroke-opacity:1" />
    <path
       sodipodi:nodetypes="cc"
       inkscape:connector-curvature="0"
       id="path4773"
       d="m 50.684575,178.68169 c 3.718318,17.50769 -2.209212,13.47447 -1.456377,34.77178"
       style="fill:none;fill-opacity:1;stroke:#000000;stroke-width:2.91282535px;stroke-linecap:round;stroke-linejoin:miter;stroke-opacity:1" />
    <path
       sodipodi:nodetypes="ccccccc"
       inkscape:connector-curvature="0"
       id="path4775"
       d="m 44.13076,210.72265 5.097404,2.73082 0.36422,8.01032 H 33.23898 l -0.09097,-5.27951 c 0.95351,-2.41663 3.46333,-3.54686 4.611113,-5.46163 0.456539,-19.58873 -5.964205,-23.14283 0.181942,-34.40772"
       style="fill:none;fill-opacity:1;stroke:#000000;stroke-width:2.91282535px;stroke-linecap:round;stroke-linejoin:round;stroke-opacity:1" />
    <path
       sodipodi:nodetypes="ccc"
       inkscape:connector-curvature="0"
       id="path4777"
       d="m 30.112748,133.71493 c 0.18986,2.7987 0.133087,6.33848 1.001354,7.09994 2.105353,2.21144 2.010053,5.08309 1.729509,8.01033"
       style="fill:none;fill-opacity:1;stroke:#000000;stroke-width:2.91282535px;stroke-linecap:butt;stroke-linejoin:miter;stroke-opacity:1" />
    <path
       sodipodi:nodetypes="cc"
       inkscape:connector-curvature="0"
       id="path4779"
       d="M 57.472016,140.26871 H 52.141002"
       style="fill:none;fill-opacity:1;stroke:#000000;stroke-width:2.91282535px;stroke-linecap:round;stroke-linejoin:miter;stroke-opacity:1" />
    <circle
       r="1.319874"
       cy="73.774437"
       cx="-50.548016"
       id="circle4781"
       style="opacity:1;fill:none;fill-opacity:1;stroke:none;stroke-width:1.35155106;stroke-linecap:round;stroke-linejoin:round;stroke-miterlimit:4;stroke-dasharray:none;stroke-opacity:1;paint-order:normal"
       transform="scale(-1,1)" />
    <path
       sodipodi:nodetypes="cccc"
       inkscape:connector-curvature="0"
       id="path5961"
       d="m 169.30093,75.094282 -0.91022,6.007787 6.55384,20.389611 9.83079,-2.366588"
       style="fill:none;fill-opacity:1;stroke:#000000;stroke-width:2.91282535px;stroke-linecap:butt;stroke-linejoin:miter;stroke-opacity:1" />
    <path
       inkscape:connector-curvature="0"
       id="path5963"
       d="m 174.9445,101.49168 -2.18462,3.09487 4.36927,6.55395 8.19229,-2.91293"
       style="fill:none;fill-opacity:1;stroke:#000000;stroke-width:2.91282535px;stroke-linecap:butt;stroke-linejoin:miter;stroke-opacity:1" />
    <path
       sodipodi:nodetypes="ccc"
       inkscape:connector-curvature="0"
       id="path5965"
       d="m 177.12915,111.1405 c -0.18279,7.52481 1.16998,15.04962 2.9128,22.57443 l 7.46414,-0.72777"
       style="fill:none;fill-opacity:1;stroke:#000000;stroke-width:2.91282535px;stroke-linecap:butt;stroke-linejoin:miter;stroke-opacity:1" />
    <path
       sodipodi:nodetypes="ccc"
       inkscape:connector-curvature="0"
       id="path5979"
       d="m 180.04195,133.71493 c -0.18935,2.7987 -0.13308,6.33848 -1.00135,7.09994 -2.10532,2.21144 -2.01002,5.08309 -1.72948,8.01033"
       style="fill:none;fill-opacity:1;stroke:#000000;stroke-width:2.91282535px;stroke-linecap:butt;stroke-linejoin:miter;stroke-opacity:1" />
    <circle
       r="1.319874"
       cy="73.774437"
       cx="159.60684"
       id="circle5981"
       style="opacity:1;fill:none;fill-opacity:1;stroke:none;stroke-width:1.35155106;stroke-linecap:round;stroke-linejoin:round;stroke-miterlimit:4;stroke-dasharray:none;stroke-opacity:1;paint-order:normal" />
    <path
       style="opacity:1;fill:none;fill-opacity:1;stroke:#000000;stroke-width:2.91282535px;stroke-linecap:butt;stroke-linejoin:round;stroke-opacity:1"
       d="m 133.38523,148.8252 -6.00772,-0.18194 c -5.04744,-3.50946 -5.23937,-8.38887 -4.18717,-15.65644 -0.86153,-7.34286 -2.66845,-16.41637 2.1846,-24.75908 l 0.54616,-9.102478 -1.45638,-1.45722 c 1.55763,-6.49229 1.56959,-24.135596 16.93078,-22.574265 l 0.54616,-4.005248 c -0.99681,-2.053584 -2.64825,-4.03456 0.54616,-6.55378 1.23906,-1.111867 2.38127,-2.454362 1.82055,-7.828216 1.56285,-5.059837 2.17533,-10.816443 11.03988,-10.741139 8.86449,-0.06739 9.47701,5.681302 11.03987,10.741139 -0.56065,5.373854 0.58154,6.715675 1.8205,7.828216 3.19441,2.51922 1.54297,4.500196 0.54616,6.55378 l 0.54616,4.005248 c 15.36114,-1.561668 15.37309,16.081975 16.93078,22.574265 l -1.45638,1.45722 0.54616,9.102478 c 4.85312,8.34271 3.04622,17.41622 2.18465,24.75908 1.05223,7.26757 0.86035,12.14698 -4.18717,15.65644 l -6.00772,0.18194"
       id="path5983"
       inkscape:connector-curvature="0"
       sodipodi:nodetypes="ccccccccccccccccccccc" />
    <path
       style="fill:none;fill-opacity:1;stroke:#000000;stroke-width:2.91282535px;stroke-linecap:butt;stroke-linejoin:miter;stroke-opacity:1"
       d="m 135.75184,101.49168 -9.83079,-2.366588"
       id="path5993"
       inkscape:connector-curvature="0"
       sodipodi:nodetypes="cc" />
    <path
       style="fill:none;fill-opacity:1;stroke:#000000;stroke-width:2.91282535px;stroke-linecap:butt;stroke-linejoin:miter;stroke-opacity:1"
       d="m 125.37494,108.22757 8.19234,2.91293 3.36701,-5.08397 -1.1824,-4.56485 3.09485,-7.828888 -0.54616,30.220708 -4.0051,9.10248 -0.91021,15.83854 c 0.69593,8.56643 1.49731,16.57103 2.9128,21.3 l 2.00298,0.18279 0.18168,6.00762 c -6.14615,11.26489 0.2746,14.81899 -0.18194,34.40772 -1.14779,1.91477 -3.65761,3.045 -4.61112,5.46163 l 0.091,5.27951 h 16.35341 l -0.36418,-8.01032 c -0.75284,-21.29731 5.1747,-17.26409 1.45637,-34.77178 l 3.2e-4,-3.175 1.45608,-35.23798 h 5.33105 l 1.27427,31.49497 0.18216,6.91801 c -3.71832,17.50769 2.20921,13.47447 1.45638,34.77178 l -0.36422,8.01032 h 16.35341 l 0.091,-5.27951 c -0.95351,-2.41663 -3.46335,-3.54686 -4.61115,-5.46163 -0.45654,-19.58873 5.96422,-23.14283 -0.18194,-34.40772 l 0.18191,-6.00762 2.00273,-0.18279 c 1.41544,-4.72897 2.21684,-12.73357 2.91285,-21.3 l -0.91021,-15.83854 -4.00515,-9.10248 -0.54616,-30.220708"
       id="path5995"
       inkscape:connector-curvature="0"
       sodipodi:nodetypes="cccccccccccccccccccccccccccccccccc" />
    <path
       style="fill:none;fill-opacity:1;stroke:#000000;stroke-width:2.91282535px;stroke-linecap:butt;stroke-linejoin:miter;stroke-opacity:1"
       d="m 133.56728,111.1405 c 0.18278,7.52481 -1.16999,15.04962 -2.91284,22.57443 l -7.4641,-0.72777"
       id="path5997"
       inkscape:connector-curvature="0"
       sodipodi:nodetypes="ccc" />
    <path
       style="fill:none;fill-opacity:1;stroke:#000000;stroke-width:2.91282535px;stroke-linecap:butt;stroke-linejoin:miter;stroke-opacity:1"
       d="m 130.65444,133.71493 c 0.18986,2.7987 0.13308,6.33848 1.00135,7.09994 2.10536,2.21144 2.01006,5.08309 1.72951,8.01033"
       id="path6013"
       inkscape:connector-curvature="0"
       sodipodi:nodetypes="ccc" />
    <circle
       transform="scale(-1,1)"
       style="opacity:1;fill:none;fill-opacity:1;stroke:none;stroke-width:1.35155106;stroke-linecap:round;stroke-linejoin:round;stroke-miterlimit:4;stroke-dasharray:none;stroke-opacity:1;paint-order:normal"
       id="circle6017"
       cx="-151.08968"
       cy="73.774437"
       r="1.319874" />
  </g>
</svg>
