<?xml version="1.0" encoding="UTF-8" standalone="no"?>
<!-- Created with Inkscape (http://www.inkscape.org/) -->

<svg
   xmlns:dc="http://purl.org/dc/elements/1.1/"
   xmlns:cc="http://creativecommons.org/ns#"
   xmlns:rdf="http://www.w3.org/1999/02/22-rdf-syntax-ns#"
   xmlns:svg="http://www.w3.org/2000/svg"
   xmlns="http://www.w3.org/2000/svg"
   xmlns:sodipodi="http://sodipodi.sourceforge.net/DTD/sodipodi-0.dtd"
   xmlns:inkscape="http://www.inkscape.org/namespaces/inkscape"
   width="25.57012mm"
   height="28.41663mm"
   viewBox="0 0 25.57012 28.41663"
   version="1.1"
   id="svg5739"
   inkscape:version="0.92.1 r15371"
   sodipodi:docname="stormtrooper-helmet.svg">
  <defs
     id="defs5733" />
  <sodipodi:namedview
     id="base"
     pagecolor="#ffffff"
     bordercolor="#666666"
     borderopacity="1.0"
     inkscape:pageopacity="0.0"
     inkscape:pageshadow="2"
     inkscape:zoom="1.4"
     inkscape:cx="-121.78362"
     inkscape:cy="179.67329"
     inkscape:document-units="mm"
     inkscape:current-layer="layer1"
     showgrid="false"
     inkscape:object-paths="true"
     inkscape:object-nodes="true"
     fit-margin-top="5"
     fit-margin-left="5"
     fit-margin-right="5"
     fit-margin-bottom="5"
     inkscape:window-width="1680"
     inkscape:window-height="997"
     inkscape:window-x="1912"
     inkscape:window-y="-8"
     inkscape:window-maximized="1" />
  <metadata
     id="metadata5736">
    <rdf:RDF>
      <cc:Work
         rdf:about="">
        <dc:format>image/svg+xml</dc:format>
        <dc:type
           rdf:resource="http://purl.org/dc/dcmitype/StillImage" />
        <dc:title></dc:title>
      </cc:Work>
    </rdf:RDF>
  </metadata>
  <g
     inkscape:label="Layer 1"
     inkscape:groupmode="layer"
     id="layer1"
     transform="translate(-79.956279,-148.15179)">
    <g
       id="g5810"
       transform="matrix(0.95453851,0,0,0.95465407,4.2161591,7.3623779)"
       style="stroke-width:1.04756331">
      <path
         sodipodi:nodetypes="ccccccc"
         inkscape:connector-curvature="0"
         id="path5752"
         d="m 89.000753,166.43882 c -0.990925,-1.0076 -2.778145,-1.76373 -2.706105,-3.107 l -0.03341,-5.17835 c 0.01605,-3.69662 3.218364,-5.3005 6.48002,-5.3005 3.261656,0 6.463957,1.60384 6.480004,5.30046 l -0.0334,5.17835 c 0.072,1.34327 -1.715171,2.0994 -2.706091,3.107"
         style="fill:none;stroke:#000000;stroke-width:0.27716774px;stroke-linecap:butt;stroke-linejoin:miter;stroke-opacity:1" />
      <rect
         y="158.1436"
         x="86.261292"
         height="0.9061166"
         width="12.954189"
         id="rect5754"
         style="opacity:1;fill:none;fill-opacity:1;stroke:#000000;stroke-width:0.27760428;stroke-linecap:square;stroke-linejoin:miter;stroke-miterlimit:4;stroke-dasharray:none;stroke-dashoffset:0;stroke-opacity:1;paint-order:normal" />
      <path
         sodipodi:nodetypes="cccc"
         inkscape:connector-curvature="0"
         id="path5756"
         d="m 91.372768,159.92413 -3.841998,-0.0668 c 0.04878,0.91345 0.461919,1.73604 0.982689,1.94176 z"
         style="fill:#000006;fill-opacity:1;stroke:#000000;stroke-width:0.27716774px;stroke-linecap:butt;stroke-linejoin:miter;stroke-opacity:1" />
      <path
         sodipodi:nodetypes="csc"
         inkscape:connector-curvature="0"
         id="path5758"
         d="m 92.007533,160.89298 c -0.777054,0.61186 -2.762711,2.06806 -3.340868,2.07134 -0.633277,0.004 -1.260464,-0.46799 -1.499684,-0.78426"
         style="fill:none;stroke:#000000;stroke-width:0.27716774px;stroke-linecap:butt;stroke-linejoin:miter;stroke-opacity:1" />
      <path
         sodipodi:nodetypes="cszsczcszscc"
         inkscape:connector-curvature="0"
         id="path5760"
         d="m 91.640037,171.14945 c 0,0 -0.653741,0.7018 -1.374226,0.7171 -1.061392,0.0226 -1.89807,-0.53216 -2.634815,-1.05119 -0.736745,-0.51903 -1.720455,-1.00331 -1.703845,-2.7061 0.01213,-1.24293 1.372095,-1.80513 3.073601,-1.67044 0.912136,-1.75676 3.243309,-1.61044 3.740506,-1.61046 0.497198,-2e-5 2.794963,-0.14634 3.740507,1.61042 1.701493,-0.13469 3.061457,0.42751 3.073587,1.67044 0.0166,1.70279 -0.967094,2.18707 -1.703841,2.7061 -0.736737,0.51903 -1.573413,1.07381 -2.634805,1.05119 -0.720485,-0.0153 -1.374226,-0.7171 -1.374226,-0.7171 z"
         style="fill:none;stroke:#000000;stroke-width:0.27716774px;stroke-linecap:butt;stroke-linejoin:miter;stroke-opacity:1" />
      <path
         sodipodi:nodetypes="csc"
         inkscape:connector-curvature="0"
         id="path5766"
         d="m 85.927151,168.10926 c -0.671812,-0.30399 -1.183754,-1.22886 -1.202711,-2.3052 -0.01991,-1.13033 0.807605,-1.86078 1.570207,-2.47224"
         style="fill:none;stroke:#000000;stroke-width:0.27716774px;stroke-linecap:butt;stroke-linejoin:miter;stroke-opacity:1" />
      <path
         id="path5768"
         transform="scale(0.26458333)"
         d="m 350.51758,619.08398 c -4.4971,0.0447 -8.52579,1.699 -10.58789,6.03907 h 0.16797 c 3.97822,-2.43119 9.04684,-2.15034 10.41992,-2.15039 1.37313,-6e-5 6.37594,-0.28108 10.36719,2.15039 h 0.2207 c -2.0621,-4.34007 -6.09079,-5.99447 -10.58789,-6.03907 z"
         style="fill:#000000;fill-opacity:1;stroke:#000000;stroke-width:1.0475632px;stroke-linecap:butt;stroke-linejoin:miter;stroke-opacity:1"
         inkscape:connector-curvature="0" />
      <rect
         ry="0.71828592"
         y="159.70831"
         x="84.952812"
         height="3.6236489"
         width="1.3184586"
         id="rect5770"
         style="opacity:1;fill:none;fill-opacity:1;stroke:#000000;stroke-width:0.27760428;stroke-linecap:square;stroke-linejoin:miter;stroke-miterlimit:4;stroke-dasharray:none;stroke-dashoffset:0;stroke-opacity:1;paint-order:normal" />
      <path
         style="fill:#000000;fill-opacity:1;stroke:#000000;stroke-width:0.27716774px;stroke-linecap:butt;stroke-linejoin:miter;stroke-opacity:1"
         d="m 94.109749,159.92409 3.841992,-0.0668 c -0.0488,0.91345 -0.461917,1.73604 -0.982684,1.94176 z"
         id="path5774"
         inkscape:connector-curvature="0"
         sodipodi:nodetypes="cccc" />
      <path
         style="fill:none;stroke:#000000;stroke-width:0.27716774px;stroke-linecap:butt;stroke-linejoin:miter;stroke-opacity:1"
         d="m 93.474984,160.89294 c 0.777054,0.61186 2.762711,2.06806 3.340863,2.07134 0.633277,0.004 1.260464,-0.46799 1.499681,-0.78426"
         id="path5776"
         inkscape:connector-curvature="0"
         sodipodi:nodetypes="csc" />
      <path
         style="fill:none;stroke:#000000;stroke-width:0.27716774px;stroke-linecap:butt;stroke-linejoin:miter;stroke-opacity:1"
         d="m 93.842524,171.1495 -0.0041,-1.63111 -0.463667,-0.006 v -1.33635 l -1.266997,4e-5 v 1.33635 l -0.463667,0.006 -0.0041,1.63111"
         id="path5780"
         inkscape:connector-curvature="0"
         sodipodi:nodetypes="cccccccc" />
      <path
         id="path5782"
         transform="scale(0.26458333)"
         d="m 350.51758,630.32227 c -1.17245,3e-5 -2.21874,0.35986 -3.4043,0.88476 -3.66345,1.62236 -3.91406,6.3125 -3.91406,6.3125 -1.89764,-0.71187 -3.16043,-0.85041 -4.92383,-0.75781 -1.99025,0.10431 -5.34653,1.71928 -5.30469,3.91601 0.0456,2.39275 4.50881,4.06174 5.93555,4.03907 1.42674,-0.0227 5.78178,-0.36289 7.46484,-4.01758 l 1.75196,-0.0215 v -5.05078 h 4.78906 v 5.04883 l 1.75195,0.0234 c 1.68306,3.65465 6.04006,3.99494 7.4668,4.01758 1.42674,0.0227 5.88805,-1.64828 5.93359,-4.04102 0.042,-2.19674 -3.31248,-3.80967 -5.30273,-3.91406 -1.7634,-0.0926 -3.02619,0.0459 -4.92383,0.75781 0,0 -0.25256,-4.69014 -3.91601,-6.3125 -1.18556,-0.52501 -2.23185,-0.8848 -3.4043,-0.88476 z"
         style="fill:#000000;fill-opacity:1;stroke:#000000;stroke-width:1.0475632px;stroke-linecap:butt;stroke-linejoin:miter;stroke-opacity:1"
         inkscape:connector-curvature="0" />
      <path
         style="fill:none;stroke:#000000;stroke-width:0.27716774px;stroke-linecap:butt;stroke-linejoin:miter;stroke-opacity:1"
         d="m 99.555352,168.10922 c 0.671958,-0.30399 1.183928,-1.22886 1.202888,-2.3052 0.0199,-1.13033 -0.807791,-1.86078 -1.570385,-2.47224"
         id="path5784"
         inkscape:connector-curvature="0"
         sodipodi:nodetypes="csc" />
      <rect
         transform="scale(-1,1)"
         style="opacity:1;fill:none;fill-opacity:1;stroke:#000000;stroke-width:0.27760428;stroke-linecap:square;stroke-linejoin:miter;stroke-miterlimit:4;stroke-dasharray:none;stroke-dashoffset:0;stroke-opacity:1;paint-order:normal"
         id="rect5788"
         width="1.3184586"
         height="3.6236489"
         x="-100.52969"
         y="159.70822"
         ry="0.71828592" />
    </g>
  </g>
</svg>
