<?xml version="1.0" encoding="UTF-8" standalone="no"?>
<svg
   xmlns:dc="http://purl.org/dc/elements/1.1/"
   xmlns:cc="http://creativecommons.org/ns#"
   xmlns:rdf="http://www.w3.org/1999/02/22-rdf-syntax-ns#"
   xmlns:svg="http://www.w3.org/2000/svg"
   xmlns="http://www.w3.org/2000/svg"
   xmlns:sodipodi="http://sodipodi.sourceforge.net/DTD/sodipodi-0.dtd"
   xmlns:inkscape="http://www.inkscape.org/namespaces/inkscape"
   version="1.1"
   width="722.7mm"
   height="392.7mm"
   viewBox=" 0 0 2560.750137 1391.457837"
   id="svg4509"
   sodipodi:docname="caseplans.svg"
   inkscape:version="0.92.1 r15371">
  <metadata
     id="metadata4515">
    <rdf:RDF>
      <cc:Work
         rdf:about="">
        <dc:format>image/svg+xml</dc:format>
        <dc:type
           rdf:resource="http://purl.org/dc/dcmitype/StillImage" />
        <dc:title />
      </cc:Work>
    </rdf:RDF>
  </metadata>
  <defs
     id="defs4513" />
  <sodipodi:namedview
     pagecolor="#ffffff"
     bordercolor="#666666"
     borderopacity="1"
     objecttolerance="10"
     gridtolerance="10"
     guidetolerance="10"
     inkscape:pageopacity="0"
     inkscape:pageshadow="2"
     inkscape:window-width="1680"
     inkscape:window-height="997"
     id="namedview4511"
     showgrid="false"
     inkscape:zoom="0.47080968"
     inkscape:cx="1312.8144"
     inkscape:cy="784.55252"
     inkscape:window-x="1912"
     inkscape:window-y="-8"
     inkscape:window-maximized="1"
     inkscape:current-layer="svg4509"
     inkscape:object-paths="false"
     inkscape:snap-intersection-paths="true"
     inkscape:document-units="mm" />
  <!-- Front-->
  <g
     transform="translate(22.500018499999996, 22.500018499999996) "
     id="g4487"
     style="stroke-width:1.771655;stroke-miterlimit:4;stroke-dasharray:none;stroke:#0000f2;stroke-opacity:1">
    <polygon
       style="stroke:#0000f2;fill:none;stroke-width:1.771655;stroke-miterlimit:4;stroke-dasharray:none;stroke-opacity:1"
       points="0, 0 53.14965, 0 53.14965, 10.62993 106.2993, 10.62993 106.2993, 0 141.73239999999998, 0 141.73239999999998, 10.62993 177.1655, 10.62993 177.1655, 0 212.59859999999998, 0 212.59859999999998, 10.62993 248.0317, 10.62993 248.0317, 0 283.46479999999997, 0 283.46479999999997, 10.62993 318.8979, 10.62993 318.8979, 0 354.33099999999996, 0 354.33099999999996, 10.62993 389.7641, 10.62993 389.7641, 0 425.19719999999995, 0 425.19719999999995, 10.62993 460.6303, 10.62993 460.6303, 0 496.0634, 0 496.0634, 10.62993 531.4965, 10.62993 531.4965, 0 566.9295999999999, 0 566.9295999999999, 10.62993 602.3626999999999, 10.62993 602.3626999999999, 0 637.7958, 0 637.7958, 10.62993 690.9454499999999, 10.62993 690.9454499999999, 0 744.0951, 0 744.0951, 53.14965 733.4651700000001, 53.14965 733.4651700000001, 106.2993 744.0951, 106.2993 744.0951, 141.73239999999998 733.4651700000001, 141.73239999999998 733.4651700000001, 177.1655 744.0951, 177.1655 744.0951, 212.59859999999998 733.4651700000001, 212.59859999999998 733.4651700000001, 265.74825 744.0951, 265.74825 744.0951, 318.8979 690.9454499999999, 318.8979 690.9454499999999, 308.26797 637.7958, 308.26797 637.7958, 318.8979 602.3626999999999, 318.8979 602.3626999999999, 308.26797 566.9295999999999, 308.26797 566.9295999999999, 318.8979 531.4965, 318.8979 531.4965, 308.26797 496.0634, 308.26797 496.0634, 318.8979 460.6303, 318.8979 460.6303, 308.26797 425.19719999999995, 308.26797 425.19719999999995, 318.8979 389.7641, 318.8979 389.7641, 308.26797 354.33099999999996, 308.26797 354.33099999999996, 318.8979 318.8979, 318.8979 318.8979, 308.26797 283.46479999999997, 308.26797 283.46479999999997, 318.8979 248.0317, 318.8979 248.0317, 308.26797 212.59859999999998, 308.26797 212.59859999999998, 318.8979 177.1655, 318.8979 177.1655, 308.26797 141.73239999999998, 308.26797 141.73239999999998, 318.8979 106.2993, 318.8979 106.2993, 308.26797 53.14965, 308.26797 53.14965, 318.8979 0, 318.8979 0, 265.74825 10.62993, 265.74825 10.62993, 212.59859999999998 0, 212.59859999999998 0, 177.1655 10.62993, 177.1655 10.62993, 141.73239999999998 0, 141.73239999999998 0, 106.2993 10.62993, 106.2993 10.62993, 53.14965 0, 53.14965 "
       id="polygon4485" />
  </g>
  <!-- Back-->
  <g
     transform="translate(766.5951185, 22.500018499999996) "
     id="g4491"
     style="stroke-width:1.771655;stroke-miterlimit:4;stroke-dasharray:none;stroke:#0000f2;stroke-opacity:1">
    <polygon
       style="stroke:#0000f2;fill:none;stroke-width:1.771655;stroke-miterlimit:4;stroke-dasharray:none;stroke-opacity:1"
       points="0, 0 53.14965, 0 53.14965, 10.62993 106.2993, 10.62993 106.2993, 0 141.73239999999998, 0 141.73239999999998, 10.62993 177.1655, 10.62993 177.1655, 0 212.59859999999998, 0 212.59859999999998, 10.62993 248.0317, 10.62993 248.0317, 0 283.46479999999997, 0 283.46479999999997, 10.62993 318.8979, 10.62993 318.8979, 0 354.33099999999996, 0 354.33099999999996, 10.62993 389.7641, 10.62993 389.7641, 0 425.19719999999995, 0 425.19719999999995, 10.62993 460.6303, 10.62993 460.6303, 0 496.0634, 0 496.0634, 10.62993 531.4965, 10.62993 531.4965, 0 566.9295999999999, 0 566.9295999999999, 10.62993 602.3626999999999, 10.62993 602.3626999999999, 0 637.7958, 0 637.7958, 10.62993 690.9454499999999, 10.62993 690.9454499999999, 0 744.0951, 0 744.0951, 53.14965 733.4651700000001, 53.14965 733.4651700000001, 106.2993 744.0951, 106.2993 744.0951, 141.73239999999998 733.4651700000001, 141.73239999999998 733.4651700000001, 177.1655 744.0951, 177.1655 744.0951, 212.59859999999998 733.4651700000001, 212.59859999999998 733.4651700000001, 265.74825 744.0951, 265.74825 744.0951, 318.8979 690.9454499999999, 318.8979 690.9454499999999, 308.26797 637.7958, 308.26797 637.7958, 318.8979 602.3626999999999, 318.8979 602.3626999999999, 308.26797 566.9295999999999, 308.26797 566.9295999999999, 318.8979 531.4965, 318.8979 531.4965, 308.26797 496.0634, 308.26797 496.0634, 318.8979 460.6303, 318.8979 460.6303, 308.26797 425.19719999999995, 308.26797 425.19719999999995, 318.8979 389.7641, 318.8979 389.7641, 308.26797 354.33099999999996, 308.26797 354.33099999999996, 318.8979 318.8979, 318.8979 318.8979, 308.26797 283.46479999999997, 308.26797 283.46479999999997, 318.8979 248.0317, 318.8979 248.0317, 308.26797 212.59859999999998, 308.26797 212.59859999999998, 318.8979 177.1655, 318.8979 177.1655, 308.26797 141.73239999999998, 308.26797 141.73239999999998, 318.8979 106.2993, 318.8979 106.2993, 308.26797 53.14965, 308.26797 53.14965, 318.8979 0, 318.8979 0, 265.74825 10.62993, 265.74825 10.62993, 212.59859999999998 0, 212.59859999999998 0, 177.1655 10.62993, 177.1655 10.62993, 141.73239999999998 0, 141.73239999999998 0, 106.2993 10.62993, 106.2993 10.62993, 53.14965 0, 53.14965 "
       id="polygon4489" />
  </g>
  <!-- Left-->
  <g
     transform="translate(1510.6902,22.500019)"
     id="g4495"
     style="stroke:#0000f2;stroke-width:1.77165496;stroke-miterlimit:4;stroke-dasharray:none;stroke-opacity:1">
    <polygon
       style="fill:none;stroke:#0000f2;stroke-width:1.77165496;stroke-miterlimit:4;stroke-dasharray:none;stroke-opacity:1"
       points="177.1655,0 212.5986,0 212.5986,10.62993 248.0317,10.62993 248.0317,0 283.4648,0 283.4648,10.62993 318.8979,10.62993 318.8979,0 354.331,0 354.331,10.62993 389.7641,10.62993 389.7641,0 425.1972,0 425.1972,10.62993 460.6303,10.62993 460.6303,0 496.0634,0 496.0634,10.62993 531.4965,10.62993 531.4965,0 566.9296,0 566.9296,10.62993 602.3627,10.62993 602.3627,0 637.7958,0 637.7958,10.62993 673.2289,10.62993 673.2289,0 708.662,0 708.662,10.62993 744.0951,10.62993 744.0951,0 779.5282,0 779.5282,10.62993 814.9613,10.62993 814.9613,0 850.3944,0 850.3944,10.62993 885.8275,10.62993 885.8275,0 921.2606,0 921.2606,10.62993 974.41025,10.62993 974.41025,0 1016.93,0 1016.93,53.14965 1027.5599,53.14965 1027.5599,106.2993 1016.93,106.2993 1016.93,141.7324 1027.5599,141.7324 1027.5599,177.1655 1016.93,177.1655 1016.93,212.5986 1027.5599,212.5986 1027.5599,265.74825 1016.93,265.74825 1016.93,318.8979 974.41025,318.8979 974.41025,308.26797 921.2606,308.26797 921.2606,318.8979 885.8275,318.8979 885.8275,308.26797 850.3944,308.26797 850.3944,318.8979 814.9613,318.8979 814.9613,308.26797 779.5282,308.26797 779.5282,318.8979 744.0951,318.8979 744.0951,308.26797 708.662,308.26797 708.662,318.8979 673.2289,318.8979 673.2289,308.26797 637.7958,308.26797 637.7958,318.8979 602.3627,318.8979 602.3627,308.26797 566.9296,308.26797 566.9296,318.8979 531.4965,318.8979 531.4965,308.26797 496.0634,308.26797 496.0634,318.8979 460.6303,318.8979 460.6303,308.26797 425.1972,308.26797 425.1972,318.8979 389.7641,318.8979 389.7641,308.26797 354.331,308.26797 354.331,318.8979 318.8979,318.8979 318.8979,308.26797 283.4648,308.26797 283.4648,318.8979 248.0317,318.8979 248.0317,308.26797 212.5986,308.26797 212.5986,318.8979 177.1655,318.8979 177.1655,308.26797 141.7324,308.26797 141.7324,318.8979 106.2993,318.8979 106.2993,308.26797 53.14965,308.26797 53.14965,318.8979 10.62993,318.8979 10.62993,265.74825 0,265.74825 0,212.5986 10.62993,212.5986 10.62993,177.1655 0,177.1655 0,141.7324 10.62993,141.7324 10.62993,106.2993 0,106.2993 0,53.14965 10.62993,53.14965 10.62993,0 53.14965,0 53.14965,10.62993 106.2993,10.62993 106.2993,0 141.7324,0 141.7324,10.62993 177.1655,10.62993 "
       id="polygon4493" />
  </g>
  <!-- Right-->
  <g
     transform="translate(1510.6902,341.39792)"
     id="g4499"
     style="stroke:#0000f2;stroke-width:1.77165496;stroke-miterlimit:4;stroke-dasharray:none;stroke-opacity:1">
    <polygon
       style="fill:none;stroke:#0000f2;stroke-width:1.77165496;stroke-miterlimit:4;stroke-dasharray:none;stroke-opacity:1"
       points="141.7324,10.62993 177.1655,10.62993 177.1655,0 212.5986,0 212.5986,10.62993 248.0317,10.62993 248.0317,0 283.4648,0 283.4648,10.62993 318.8979,10.62993 318.8979,0 354.331,0 354.331,10.62993 389.7641,10.62993 389.7641,0 425.1972,0 425.1972,10.62993 460.6303,10.62993 460.6303,0 496.0634,0 496.0634,10.62993 531.4965,10.62993 531.4965,0 566.9296,0 566.9296,10.62993 602.3627,10.62993 602.3627,0 637.7958,0 637.7958,10.62993 673.2289,10.62993 673.2289,0 708.662,0 708.662,10.62993 744.0951,10.62993 744.0951,0 779.5282,0 779.5282,10.62993 814.9613,10.62993 814.9613,0 850.3944,0 850.3944,10.62993 885.8275,10.62993 885.8275,0 921.2606,0 921.2606,10.62993 974.41025,10.62993 974.41025,0 1016.93,0 1016.93,53.14965 1027.5599,53.14965 1027.5599,106.2993 1016.93,106.2993 1016.93,141.7324 1027.5599,141.7324 1027.5599,177.1655 1016.93,177.1655 1016.93,212.5986 1027.5599,212.5986 1027.5599,265.74825 1016.93,265.74825 1016.93,318.8979 974.41025,318.8979 974.41025,308.26797 921.2606,308.26797 921.2606,318.8979 885.8275,318.8979 885.8275,308.26797 850.3944,308.26797 850.3944,318.8979 814.9613,318.8979 814.9613,308.26797 779.5282,308.26797 779.5282,318.8979 744.0951,318.8979 744.0951,308.26797 708.662,308.26797 708.662,318.8979 673.2289,318.8979 673.2289,308.26797 637.7958,308.26797 637.7958,318.8979 602.3627,318.8979 602.3627,308.26797 566.9296,308.26797 566.9296,318.8979 531.4965,318.8979 531.4965,308.26797 496.0634,308.26797 496.0634,318.8979 460.6303,318.8979 460.6303,308.26797 425.1972,308.26797 425.1972,318.8979 389.7641,318.8979 389.7641,308.26797 354.331,308.26797 354.331,318.8979 318.8979,318.8979 318.8979,308.26797 283.4648,308.26797 283.4648,318.8979 248.0317,318.8979 248.0317,308.26797 212.5986,308.26797 212.5986,318.8979 177.1655,318.8979 177.1655,308.26797 141.7324,308.26797 141.7324,318.8979 106.2993,318.8979 106.2993,308.26797 53.14965,308.26797 53.14965,318.8979 10.62993,318.8979 10.62993,265.74825 0,265.74825 0,212.5986 10.62993,212.5986 10.62993,177.1655 0,177.1655 0,141.7324 10.62993,141.7324 10.62993,106.2993 0,106.2993 0,53.14965 10.62993,53.14965 10.62993,0 53.14965,0 53.14965,10.62993 106.2993,10.62993 106.2993,0 141.7324,0 "
       id="polygon4497" />
  </g>
  <!-- Top-->
  <g
     transform="translate(22.500018499999996, 341.3979185) "
     id="g4503"
     style="stroke-width:1.771655;stroke-miterlimit:4;stroke-dasharray:none;stroke:#0000f2;stroke-opacity:1">
    <polygon
       style="stroke:#0000f2;fill:none;stroke-width:1.771655;stroke-miterlimit:4;stroke-dasharray:none;stroke-opacity:1"
       points="10.62993, 10.62993 53.14965, 10.62993 53.14965, 0 106.2993, 0 106.2993, 10.62993 141.73239999999998, 10.62993 141.73239999999998, 0 177.1655, 0 177.1655, 10.62993 212.59859999999998, 10.62993 212.59859999999998, 0 248.0317, 0 248.0317, 10.62993 283.46479999999997, 10.62993 283.46479999999997, 0 318.8979, 0 318.8979, 10.62993 354.33099999999996, 10.62993 354.33099999999996, 0 389.7641, 0 389.7641, 10.62993 425.19719999999995, 10.62993 425.19719999999995, 0 460.6303, 0 460.6303, 10.62993 496.0634, 10.62993 496.0634, 0 531.4965, 0 531.4965, 10.62993 566.9295999999999, 10.62993 566.9295999999999, 0 602.3626999999999, 0 602.3626999999999, 10.62993 637.7958, 10.62993 637.7958, 0 690.9454499999999, 0 690.9454499999999, 10.62993 733.4651700000001, 10.62993 733.4651700000001, 53.14965 744.0951, 53.14965 744.0951, 106.2993 733.4651700000001, 106.2993 733.4651700000001, 141.73239999999998 744.0951, 141.73239999999998 744.0951, 177.1655 733.4651700000001, 177.1655 733.4651700000001, 212.59859999999998 744.0951, 212.59859999999998 744.0951, 248.0317 733.4651700000001, 248.0317 733.4651700000001, 283.46479999999997 744.0951, 283.46479999999997 744.0951, 318.8979 733.4651700000001, 318.8979 733.4651700000001, 354.33099999999996 744.0951, 354.33099999999996 744.0951, 389.7641 733.4651700000001, 389.7641 733.4651700000001, 425.19719999999995 744.0951, 425.19719999999995 744.0951, 460.6303 733.4651700000001, 460.6303 733.4651700000001, 496.0634 744.0951, 496.0634 744.0951, 531.4965 733.4651700000001, 531.4965 733.4651700000001, 566.9295999999999 744.0951, 566.9295999999999 744.0951, 602.3626999999999 733.4651700000001, 602.3626999999999 733.4651700000001, 637.7958 744.0951, 637.7958 744.0951, 673.2289 733.4651700000001, 673.2289 733.4651700000001, 708.6619999999999 744.0951, 708.6619999999999 744.0951, 744.0950999999999 733.4651700000001, 744.0950999999999 733.4651700000001, 779.5282 744.0951, 779.5282 744.0951, 814.9612999999999 733.4651700000001, 814.9612999999999 733.4651700000001, 850.3943999999999 744.0951, 850.3943999999999 744.0951, 885.8275 733.4651700000001, 885.8275 733.4651700000001, 921.2606 744.0951, 921.2606 744.0951, 974.4102499999999 733.4651700000001, 974.4102499999999 733.4651700000001, 1016.92997 690.9454499999999, 1016.92997 690.9454499999999, 1027.5599 637.7958, 1027.5599 637.7958, 1016.92997 602.3626999999999, 1016.92997 602.3626999999999, 1027.5599 566.9295999999999, 1027.5599 566.9295999999999, 1016.92997 531.4965, 1016.92997 531.4965, 1027.5599 496.0634, 1027.5599 496.0634, 1016.92997 460.6303, 1016.92997 460.6303, 1027.5599 425.19719999999995, 1027.5599 425.19719999999995, 1016.92997 389.7641, 1016.92997 389.7641, 1027.5599 354.33099999999996, 1027.5599 354.33099999999996, 1016.92997 318.8979, 1016.92997 318.8979, 1027.5599 283.46479999999997, 1027.5599 283.46479999999997, 1016.92997 248.0317, 1016.92997 248.0317, 1027.5599 212.59859999999998, 1027.5599 212.59859999999998, 1016.92997 177.1655, 1016.92997 177.1655, 1027.5599 141.73239999999998, 1027.5599 141.73239999999998, 1016.92997 106.2993, 1016.92997 106.2993, 1027.5599 53.14965, 1027.5599 53.14965, 1016.92997 10.62993, 1016.92997 10.62993, 974.4102499999999 0, 974.4102499999999 0, 921.2606 10.62993, 921.2606 10.62993, 885.8275 0, 885.8275 0, 850.3943999999999 10.62993, 850.3943999999999 10.62993, 814.9612999999999 0, 814.9612999999999 0, 779.5282 10.62993, 779.5282 10.62993, 744.0950999999999 0, 744.0950999999999 0, 708.6619999999999 10.62993, 708.6619999999999 10.62993, 673.2289 0, 673.2289 0, 637.7958 10.62993, 637.7958 10.62993, 602.3626999999999 0, 602.3626999999999 0, 566.9295999999999 10.62993, 566.9295999999999 10.62993, 531.4965 0, 531.4965 0, 496.0634 10.62993, 496.0634 10.62993, 460.6303 0, 460.6303 0, 425.19719999999995 10.62993, 425.19719999999995 10.62993, 389.7641 0, 389.7641 0, 354.33099999999996 10.62993, 354.33099999999996 10.62993, 318.8979 0, 318.8979 0, 283.46479999999997 10.62993, 283.46479999999997 10.62993, 248.0317 0, 248.0317 0, 212.59859999999998 10.62993, 212.59859999999998 10.62993, 177.1655 0, 177.1655 0, 141.73239999999998 10.62993, 141.73239999999998 10.62993, 106.2993 0, 106.2993 0, 53.14965 10.62993, 53.14965 "
       id="polygon4501" />
  </g>
  <!-- Bottom-->
  <g
     transform="translate(766.5951185, 341.3979185) "
     id="g4507"
     style="stroke-width:1.771655;stroke-miterlimit:4;stroke-dasharray:none;stroke:#0000f2;stroke-opacity:1">
    <polygon
       style="stroke:#0000f2;fill:none;stroke-width:1.771655;stroke-miterlimit:4;stroke-dasharray:none;stroke-opacity:1"
       points="10.62993, 10.62993 53.14965, 10.62993 53.14965, 0 106.2993, 0 106.2993, 10.62993 141.73239999999998, 10.62993 141.73239999999998, 0 177.1655, 0 177.1655, 10.62993 212.59859999999998, 10.62993 212.59859999999998, 0 248.0317, 0 248.0317, 10.62993 283.46479999999997, 10.62993 283.46479999999997, 0 318.8979, 0 318.8979, 10.62993 354.33099999999996, 10.62993 354.33099999999996, 0 389.7641, 0 389.7641, 10.62993 425.19719999999995, 10.62993 425.19719999999995, 0 460.6303, 0 460.6303, 10.62993 496.0634, 10.62993 496.0634, 0 531.4965, 0 531.4965, 10.62993 566.9295999999999, 10.62993 566.9295999999999, 0 602.3626999999999, 0 602.3626999999999, 10.62993 637.7958, 10.62993 637.7958, 0 690.9454499999999, 0 690.9454499999999, 10.62993 733.4651700000001, 10.62993 733.4651700000001, 53.14965 744.0951, 53.14965 744.0951, 106.2993 733.4651700000001, 106.2993 733.4651700000001, 141.73239999999998 744.0951, 141.73239999999998 744.0951, 177.1655 733.4651700000001, 177.1655 733.4651700000001, 212.59859999999998 744.0951, 212.59859999999998 744.0951, 248.0317 733.4651700000001, 248.0317 733.4651700000001, 283.46479999999997 744.0951, 283.46479999999997 744.0951, 318.8979 733.4651700000001, 318.8979 733.4651700000001, 354.33099999999996 744.0951, 354.33099999999996 744.0951, 389.7641 733.4651700000001, 389.7641 733.4651700000001, 425.19719999999995 744.0951, 425.19719999999995 744.0951, 460.6303 733.4651700000001, 460.6303 733.4651700000001, 496.0634 744.0951, 496.0634 744.0951, 531.4965 733.4651700000001, 531.4965 733.4651700000001, 566.9295999999999 744.0951, 566.9295999999999 744.0951, 602.3626999999999 733.4651700000001, 602.3626999999999 733.4651700000001, 637.7958 744.0951, 637.7958 744.0951, 673.2289 733.4651700000001, 673.2289 733.4651700000001, 708.6619999999999 744.0951, 708.6619999999999 744.0951, 744.0950999999999 733.4651700000001, 744.0950999999999 733.4651700000001, 779.5282 744.0951, 779.5282 744.0951, 814.9612999999999 733.4651700000001, 814.9612999999999 733.4651700000001, 850.3943999999999 744.0951, 850.3943999999999 744.0951, 885.8275 733.4651700000001, 885.8275 733.4651700000001, 921.2606 744.0951, 921.2606 744.0951, 974.4102499999999 733.4651700000001, 974.4102499999999 733.4651700000001, 1016.92997 690.9454499999999, 1016.92997 690.9454499999999, 1027.5599 637.7958, 1027.5599 637.7958, 1016.92997 602.3626999999999, 1016.92997 602.3626999999999, 1027.5599 566.9295999999999, 1027.5599 566.9295999999999, 1016.92997 531.4965, 1016.92997 531.4965, 1027.5599 496.0634, 1027.5599 496.0634, 1016.92997 460.6303, 1016.92997 460.6303, 1027.5599 425.19719999999995, 1027.5599 425.19719999999995, 1016.92997 389.7641, 1016.92997 389.7641, 1027.5599 354.33099999999996, 1027.5599 354.33099999999996, 1016.92997 318.8979, 1016.92997 318.8979, 1027.5599 283.46479999999997, 1027.5599 283.46479999999997, 1016.92997 248.0317, 1016.92997 248.0317, 1027.5599 212.59859999999998, 1027.5599 212.59859999999998, 1016.92997 177.1655, 1016.92997 177.1655, 1027.5599 141.73239999999998, 1027.5599 141.73239999999998, 1016.92997 106.2993, 1016.92997 106.2993, 1027.5599 53.14965, 1027.5599 53.14965, 1016.92997 10.62993, 1016.92997 10.62993, 974.4102499999999 0, 974.4102499999999 0, 921.2606 10.62993, 921.2606 10.62993, 885.8275 0, 885.8275 0, 850.3943999999999 10.62993, 850.3943999999999 10.62993, 814.9612999999999 0, 814.9612999999999 0, 779.5282 10.62993, 779.5282 10.62993, 744.0950999999999 0, 744.0950999999999 0, 708.6619999999999 10.62993, 708.6619999999999 10.62993, 673.2289 0, 673.2289 0, 637.7958 10.62993, 637.7958 10.62993, 602.3626999999999 0, 602.3626999999999 0, 566.9295999999999 10.62993, 566.9295999999999 10.62993, 531.4965 0, 531.4965 0, 496.0634 10.62993, 496.0634 10.62993, 460.6303 0, 460.6303 0, 425.19719999999995 10.62993, 425.19719999999995 10.62993, 389.7641 0, 389.7641 0, 354.33099999999996 10.62993, 354.33099999999996 10.62993, 318.8979 0, 318.8979 0, 283.46479999999997 10.62993, 283.46479999999997 10.62993, 248.0317 0, 248.0317 0, 212.59859999999998 10.62993, 212.59859999999998 10.62993, 177.1655 0, 177.1655 0, 141.73239999999998 10.62993, 141.73239999999998 10.62993, 106.2993 0, 106.2993 0, 53.14965 10.62993, 53.14965 "
       id="polygon4505" />
  </g>
  <path
     sodipodi:nodetypes="ccccccccccccccccccccccccccccccccccccccccccccccccccccccccccccccccc"
     inkscape:connector-curvature="0"
     id="polygon4517"
     d="M 22.500018,22.500018 H 766.59512 v 53.14965 h -10.62993 v 53.149652 h 10.62993 v 35.4331 h -10.62993 v 35.4331 h 10.62993 v 35.4331 h -10.62993 v 53.14965 h 10.62993 v 53.14965 h -53.14965 v -10.62993 h -53.14965 v 10.62993 h -35.4331 v -10.62993 h -35.4331 v 10.62993 h -35.4331 v -10.62993 h -35.4331 v 10.62993 h -35.4331 v -10.62993 h -35.4331 v 10.62993 h -35.4331 v -10.62993 h -35.4331 v 10.62993 h -35.4331 v -10.62993 h -35.4331 v 10.62993 h -35.4331 v -10.62993 h -35.4331 v 10.62993 h -35.4331 v -10.62993 h -35.4331 v 10.62993 h -35.4331 V 330.76799 H 75.649668 v 10.62993 h -53.14965 v -53.14965 h 10.62993 v -53.14965 h -10.62993 v -35.4331 h 10.62993 v -35.4331 h -10.62993 v -35.4331 h 10.62993 V 75.649668 h -10.62993 z"
     style="fill:none;stroke:#000000;stroke-width:1.77165496;stroke-miterlimit:4;stroke-dasharray:none;stroke-opacity:1" />
  <g
     style="fill:none;stroke:#000000;stroke-width:1.77165496;stroke-miterlimit:4;stroke-dasharray:none;stroke-opacity:1"
     id="g4523"
     transform="translate(766.54686,22.500018)">
    <path
       style="fill:none;stroke:#000000;stroke-width:1.77165496;stroke-miterlimit:4;stroke-dasharray:none;stroke-opacity:1"
       d="M 0.04826058,0 H 744.14336 v 53.14965 h -10.62993 v 53.14965 h 10.62993 v 35.4331 h -10.62993 v 35.4331 h 10.62993 v 35.4331 h -10.62993 v 53.14965 h 10.62993 v 53.14965 h -53.14965 v -10.62993 h -53.14965 v 10.62993 h -35.4331 v -10.62993 h -35.4331 v 10.62993 h -35.4331 v -10.62993 h -35.4331 v 10.62993 h -35.4331 v -10.62993 h -35.4331 v 10.62993 h -35.4331 v -10.62993 h -35.4331 v 10.62993 h -35.4331 v -10.62993 h -35.4331 v 10.62993 h -35.4331 v -10.62993 h -35.4331 v 10.62993 h -35.4331 v -10.62993 h -35.4331 v 10.62993 h -35.4331 V 308.26797 H 53.197911 V 318.8979 H 0.04826058 V 265.74825 H 10.678191 V 212.5986 H 0.04826058 V 177.1655 H 10.678191 V 141.7324 H 0.04826058 V 106.2993 H 10.678191 V 53.14965 H 0.04826058 Z"
       id="polygon4521"
       inkscape:connector-curvature="0"
       sodipodi:nodetypes="ccccccccccccccccccccccccccccccccccccccccccccccccccccccccccccccccc" />
  </g>
  <g
     style="stroke-width:1.771655;stroke-miterlimit:4;stroke-dasharray:none;stroke:#000000;stroke-opacity:1"
     id="g4527"
     transform="translate(1510.6902185000001, 22.500018499999996) ">
    <path
       style="fill:none;stroke:#000000;stroke-width:1.77165496;stroke-miterlimit:4;stroke-dasharray:none;stroke-opacity:1"
       d="M 10.62993,0 H 1016.93 v 53.14965 h 10.6299 V 106.2993 H 1016.93 v 35.4331 h 10.6299 v 35.4331 H 1016.93 v 35.4331 h 10.6299 v 53.14965 H 1016.93 V 318.8979 H 974.41025 V 308.26797 H 921.2606 V 318.8979 H 885.8275 V 308.26797 H 850.3944 V 318.8979 H 814.9613 V 308.26797 H 779.5282 V 318.8979 H 744.0951 V 308.26797 H 708.662 V 318.8979 H 673.2289 V 308.26797 H 637.7958 V 318.8979 H 602.3627 V 308.26797 H 566.9296 V 318.8979 H 531.4965 V 308.26797 H 496.0634 V 318.8979 H 460.6303 V 308.26797 H 425.1972 V 318.8979 H 389.7641 V 308.26797 H 354.331 V 318.8979 H 318.8979 V 308.26797 H 283.4648 V 318.8979 H 248.0317 V 308.26797 H 212.5986 V 318.8979 H 177.1655 V 308.26797 H 141.7324 V 318.8979 H 106.2993 V 308.26797 H 53.14965 V 318.8979 H 10.62993 V 265.74825 H 0 V 212.5986 H 10.62993 V 177.1655 H 0 V 141.7324 H 10.62993 V 106.2993 H 0 V 53.14965 h 10.62993 z"
       id="polygon4525"
       inkscape:connector-curvature="0"
       sodipodi:nodetypes="ccccccccccccccccccccccccccccccccccccccccccccccccccccccccccccccccccccccccccccccccc" />
  </g>
  <g
     style="stroke-width:1.771655;stroke-miterlimit:4;stroke-dasharray:none;stroke:#000000;stroke-opacity:1"
     id="g4539"
     transform="translate(766.5951185, 341.3979185) ">
    <polygon
       id="polygon4537"
       points="10.62993, 10.62993 53.14965, 10.62993 53.14965, 0 106.2993, 0 106.2993, 10.62993 141.73239999999998, 10.62993 141.73239999999998, 0 177.1655, 0 177.1655, 10.62993 212.59859999999998, 10.62993 212.59859999999998, 0 248.0317, 0 248.0317, 10.62993 283.46479999999997, 10.62993 283.46479999999997, 0 318.8979, 0 318.8979, 10.62993 354.33099999999996, 10.62993 354.33099999999996, 0 389.7641, 0 389.7641, 10.62993 425.19719999999995, 10.62993 425.19719999999995, 0 460.6303, 0 460.6303, 10.62993 496.0634, 10.62993 496.0634, 0 531.4965, 0 531.4965, 10.62993 566.9295999999999, 10.62993 566.9295999999999, 0 602.3626999999999, 0 602.3626999999999, 10.62993 637.7958, 10.62993 637.7958, 0 690.9454499999999, 0 690.9454499999999, 10.62993 733.4651700000001, 10.62993 733.4651700000001, 53.14965 744.0951, 53.14965 744.0951, 106.2993 733.4651700000001, 106.2993 733.4651700000001, 141.73239999999998 744.0951, 141.73239999999998 744.0951, 177.1655 733.4651700000001, 177.1655 733.4651700000001, 212.59859999999998 744.0951, 212.59859999999998 744.0951, 248.0317 733.4651700000001, 248.0317 733.4651700000001, 283.46479999999997 744.0951, 283.46479999999997 744.0951, 318.8979 733.4651700000001, 318.8979 733.4651700000001, 354.33099999999996 744.0951, 354.33099999999996 744.0951, 389.7641 733.4651700000001, 389.7641 733.4651700000001, 425.19719999999995 744.0951, 425.19719999999995 744.0951, 460.6303 733.4651700000001, 460.6303 733.4651700000001, 496.0634 744.0951, 496.0634 744.0951, 531.4965 733.4651700000001, 531.4965 733.4651700000001, 566.9295999999999 744.0951, 566.9295999999999 744.0951, 602.3626999999999 733.4651700000001, 602.3626999999999 733.4651700000001, 637.7958 744.0951, 637.7958 744.0951, 673.2289 733.4651700000001, 673.2289 733.4651700000001, 708.6619999999999 744.0951, 708.6619999999999 744.0951, 744.0950999999999 733.4651700000001, 744.0950999999999 733.4651700000001, 779.5282 744.0951, 779.5282 744.0951, 814.9612999999999 733.4651700000001, 814.9612999999999 733.4651700000001, 850.3943999999999 744.0951, 850.3943999999999 744.0951, 885.8275 733.4651700000001, 885.8275 733.4651700000001, 921.2606 744.0951, 921.2606 744.0951, 974.4102499999999 733.4651700000001, 974.4102499999999 733.4651700000001, 1016.92997 690.9454499999999, 1016.92997 690.9454499999999, 1027.5599 637.7958, 1027.5599 637.7958, 1016.92997 602.3626999999999, 1016.92997 602.3626999999999, 1027.5599 566.9295999999999, 1027.5599 566.9295999999999, 1016.92997 531.4965, 1016.92997 531.4965, 1027.5599 496.0634, 1027.5599 496.0634, 1016.92997 460.6303, 1016.92997 460.6303, 1027.5599 425.19719999999995, 1027.5599 425.19719999999995, 1016.92997 389.7641, 1016.92997 389.7641, 1027.5599 354.33099999999996, 1027.5599 354.33099999999996, 1016.92997 318.8979, 1016.92997 318.8979, 1027.5599 283.46479999999997, 1027.5599 283.46479999999997, 1016.92997 248.0317, 1016.92997 248.0317, 1027.5599 212.59859999999998, 1027.5599 212.59859999999998, 1016.92997 177.1655, 1016.92997 177.1655, 1027.5599 141.73239999999998, 1027.5599 141.73239999999998, 1016.92997 106.2993, 1016.92997 106.2993, 1027.5599 53.14965, 1027.5599 53.14965, 1016.92997 10.62993, 1016.92997 10.62993, 974.4102499999999 0, 974.4102499999999 0, 921.2606 10.62993, 921.2606 10.62993, 885.8275 0, 885.8275 0, 850.3943999999999 10.62993, 850.3943999999999 10.62993, 814.9612999999999 0, 814.9612999999999 0, 779.5282 10.62993, 779.5282 10.62993, 744.0950999999999 0, 744.0950999999999 0, 708.6619999999999 10.62993, 708.6619999999999 10.62993, 673.2289 0, 673.2289 0, 637.7958 10.62993, 637.7958 10.62993, 602.3626999999999 0, 602.3626999999999 0, 566.9295999999999 10.62993, 566.9295999999999 10.62993, 531.4965 0, 531.4965 0, 496.0634 10.62993, 496.0634 10.62993, 460.6303 0, 460.6303 0, 425.19719999999995 10.62993, 425.19719999999995 10.62993, 389.7641 0, 389.7641 0, 354.33099999999996 10.62993, 354.33099999999996 10.62993, 318.8979 0, 318.8979 0, 283.46479999999997 10.62993, 283.46479999999997 10.62993, 248.0317 0, 248.0317 0, 212.59859999999998 10.62993, 212.59859999999998 10.62993, 177.1655 0, 177.1655 0, 141.73239999999998 10.62993, 141.73239999999998 10.62993, 106.2993 0, 106.2993 0, 53.14965 10.62993, 53.14965 "
       style="stroke:#000000;fill:none;stroke-width:1.771655;stroke-miterlimit:4;stroke-dasharray:none;stroke-opacity:1" />
  </g>
  <rect
     style="fill:none;fill-opacity:1;stroke:#ff0000;stroke-width:1.77165493;stroke-miterlimit:4;stroke-dasharray:none;stroke-opacity:1"
     id="rect4545"
     width="347.24438"
     height="1027.5599"
     x="766.59509"
     y="341.39792" />
  <rect
     y="341.30264"
     x="1124.5659"
     height="1027.5587"
     width="386.12424"
     id="rect5102"
     style="fill:none;fill-opacity:1;stroke:#ff0000;stroke-width:1.771655;stroke-miterlimit:4;stroke-dasharray:none;stroke-opacity:1" />
  <g
     transform="matrix(0,1,-1.0066458,0,1434.8567,341.39792)"
     id="g4549"
     style="fill:none;fill-opacity:1;stroke:#00ff00;stroke-width:1.76601779;stroke-miterlimit:4;stroke-dasharray:none;stroke-opacity:1">
    <path
       sodipodi:nodetypes="ccccccccccccccccccccccccccccccccccccccccccccccccccccccccccccccccc"
       inkscape:connector-curvature="0"
       id="path4547"
       d="M 974.41025,318.8979 V 308.26797 H 921.2606 v 10.62993 z m -88.58275,0 v -10.62993 h -35.4331 v 10.62993 z m -70.8662,0 v -10.62993 h -35.4331 v 10.62993 z m -70.8662,0 V 308.26797 H 708.662 v 10.62993 z m -70.8662,0 v -10.62993 h -35.4331 v 10.62993 z m -70.8662,0 v -10.62993 h -35.4331 v 10.62993 z m -70.8662,0 v -10.62993 h -35.4331 v 10.62993 z m -70.8662,0 v -10.62993 h -35.4331 v 10.62993 z m -70.8662,0 V 308.26797 H 354.331 v 10.62993 z m -70.8662,0 v -10.62993 h -35.4331 v 10.62993 z m -70.8662,0 v -10.62993 h -35.4331 v 10.62993 z m -70.8662,0 v -10.62993 h -35.4331 v 10.62993 z m -70.8662,0 V 308.26797 H 53.14965 v 10.62993 z"
       style="fill:none;fill-opacity:1;stroke:#000000;stroke-width:1.76601779;stroke-miterlimit:4;stroke-dasharray:none;stroke-opacity:1" />
  </g>
  <rect
     style="fill:none;fill-opacity:1;stroke:#ff0000;stroke-width:1.86811996;stroke-miterlimit:4;stroke-dasharray:none;stroke-opacity:1"
     id="rect11171"
     width="386.12433"
     height="318.80142"
     x="1124.5659"
     y="22.548252" />
  <rect
     y="22.500019"
     x="766.59509"
     height="318.89792"
     width="347.24438"
     id="rect11197"
     style="fill:none;fill-opacity:1;stroke:#ff0000;stroke-width:1.77165496;stroke-miterlimit:4;stroke-dasharray:none;stroke-opacity:1" />
  <path
     style="fill:none;fill-opacity:0.34741785;stroke:#000000;stroke-width:1.77165484;stroke-miterlimit:4;stroke-dasharray:none;stroke-opacity:1"
     d="m 1113.8395,75.699529 v 53.150081 h 10.7008 V 75.699529 Z m 0,88.582841 v 35.43278 h 10.7008 v -35.43278 z m 0,70.86553 v 53.15009 h 10.7008 V 235.1479 Z"
     id="path11173"
     inkscape:connector-curvature="0"
     sodipodi:nodetypes="ccccccccccccccc" />
  <rect
     y="22.548252"
     x="-408.67258"
     height="318.80142"
     width="386.12433"
     id="rect11199"
     style="fill:none;fill-opacity:1;stroke:#ff0000;stroke-width:1.86811996;stroke-miterlimit:4;stroke-dasharray:none;stroke-opacity:1"
     transform="scale(-1,1)" />
  <rect
     style="fill:none;fill-opacity:1;stroke:#ff0000;stroke-width:1.77165496;stroke-miterlimit:4;stroke-dasharray:none;stroke-opacity:1"
     id="rect11201"
     width="347.24438"
     height="318.89792"
     x="-766.59509"
     y="22.500019"
     transform="scale(-1,1)" />
  <path
     sodipodi:nodetypes="ccccccccccccccc"
     inkscape:connector-curvature="0"
     id="path11203"
     d="m 419.39898,75.699529 v 53.150081 h -10.7008 V 75.699529 Z m 0,88.582841 v 35.43278 h -10.7008 v -35.43278 z m 0,70.86553 v 53.15009 h -10.7008 V 235.1479 Z"
     style="fill:none;fill-opacity:0.34741785;stroke:#000000;stroke-width:1.77165484;stroke-miterlimit:4;stroke-dasharray:none;stroke-opacity:1" />
  <text
     id="text11224"
     y="810.2074"
     x="1290.0011"
     style="font-style:normal;font-variant:normal;font-weight:normal;font-stretch:semi-expanded;font-size:30.0000248px;line-height:1.25;font-family:'BankGothic Md BT';-inkscape-font-specification:'BankGothic Md BT, Semi-Expanded';font-variant-ligatures:normal;font-variant-caps:normal;font-variant-numeric:normal;font-feature-settings:normal;text-align:start;letter-spacing:0px;word-spacing:0px;writing-mode:lr-tb;text-anchor:start;fill:#000000;fill-opacity:1;stroke:none;stroke-width:1.66092789;stroke-miterlimit:4;stroke-dasharray:none;stroke-opacity:1"
     xml:space="preserve"><tspan
       style="stroke-width:1.66092789"
       y="810.2074"
       x="1290.0011"
       id="tspan11222"
       sodipodi:role="line">BOTTOM</tspan></text>
  <text
     id="text11228"
     y="150.20686"
     x="566.25043"
     style="font-style:normal;font-variant:normal;font-weight:normal;font-stretch:semi-expanded;font-size:30.0000248px;line-height:1.25;font-family:'BankGothic Md BT';-inkscape-font-specification:'BankGothic Md BT, Semi-Expanded';font-variant-ligatures:normal;font-variant-caps:normal;font-variant-numeric:normal;font-feature-settings:normal;text-align:start;letter-spacing:0px;word-spacing:0px;writing-mode:lr-tb;text-anchor:start;fill:#000000;fill-opacity:1;stroke:none;stroke-width:1.66092789;stroke-miterlimit:4;stroke-dasharray:none;stroke-opacity:1"
     xml:space="preserve"><tspan
       style="stroke-width:1.66092789"
       y="150.20686"
       x="566.25043"
       id="tspan11226"
       sodipodi:role="line">FRONT</tspan></text>
  <text
     id="text11232"
     y="172.70689"
     x="1241.251"
     style="font-style:normal;font-variant:normal;font-weight:normal;font-stretch:semi-expanded;font-size:30.0000248px;line-height:1.25;font-family:'BankGothic Md BT';-inkscape-font-specification:'BankGothic Md BT, Semi-Expanded';font-variant-ligatures:normal;font-variant-caps:normal;font-variant-numeric:normal;font-feature-settings:normal;text-align:start;letter-spacing:0px;word-spacing:0px;writing-mode:lr-tb;text-anchor:start;fill:#000000;fill-opacity:1;stroke:none;stroke-width:1.66092789;stroke-miterlimit:4;stroke-dasharray:none;stroke-opacity:1"
     xml:space="preserve"><tspan
       style="stroke-width:1.66092789"
       y="172.70689"
       x="1241.251"
       id="tspan11230"
       sodipodi:role="line">BACK</tspan></text>
  <text
     id="text11236"
     y="172.70689"
     x="1762.5015"
     style="font-style:normal;font-variant:normal;font-weight:normal;font-stretch:semi-expanded;font-size:30.0000248px;line-height:1.25;font-family:'BankGothic Md BT';-inkscape-font-specification:'BankGothic Md BT, Semi-Expanded';font-variant-ligatures:normal;font-variant-caps:normal;font-variant-numeric:normal;font-feature-settings:normal;text-align:start;letter-spacing:0px;word-spacing:0px;writing-mode:lr-tb;text-anchor:start;fill:#000000;fill-opacity:1;stroke:none;stroke-width:1.66092789;stroke-miterlimit:4;stroke-dasharray:none;stroke-opacity:1"
     xml:space="preserve"><tspan
       style="stroke-width:1.66092789"
       y="172.70689"
       x="1762.5015"
       id="tspan11234"
       sodipodi:role="line">LEFT</tspan></text>
  <text
     id="text11240"
     y="487.70715"
     x="1965.0016"
     style="font-style:normal;font-variant:normal;font-weight:normal;font-stretch:semi-expanded;font-size:30.0000248px;line-height:1.25;font-family:'BankGothic Md BT';-inkscape-font-specification:'BankGothic Md BT, Semi-Expanded';font-variant-ligatures:normal;font-variant-caps:normal;font-variant-numeric:normal;font-feature-settings:normal;text-align:start;letter-spacing:0px;word-spacing:0px;writing-mode:lr-tb;text-anchor:start;fill:#000000;fill-opacity:1;stroke:none;stroke-width:1.66092789;stroke-miterlimit:4;stroke-dasharray:none;stroke-opacity:1"
     xml:space="preserve"><tspan
       style="stroke-width:1.66092789"
       y="487.70715"
       x="1965.0016"
       id="tspan11238"
       sodipodi:role="line">RIGHT</tspan></text>
  <text
     id="text11244"
     y="801.3136"
     x="1783.5365"
     style="font-style:normal;font-variant:normal;font-weight:normal;font-stretch:semi-expanded;font-size:30.0000248px;line-height:1.25;font-family:'BankGothic Md BT';-inkscape-font-specification:'BankGothic Md BT, Semi-Expanded';font-variant-ligatures:normal;font-variant-caps:normal;font-variant-numeric:normal;font-feature-settings:normal;text-align:start;letter-spacing:0px;word-spacing:0px;writing-mode:lr-tb;text-anchor:start;fill:#000000;fill-opacity:1;stroke:none;stroke-width:1.66092789;stroke-miterlimit:4;stroke-dasharray:none;stroke-opacity:1"
     xml:space="preserve"><tspan
       style="stroke-width:1.66092789"
       y="801.3136"
       x="1783.5365"
       id="tspan11242"
       sodipodi:role="line">MIDDLE</tspan></text>
  <path
     style="fill:none;stroke:#050000;stroke-width:1.77187645;stroke-linecap:butt;stroke-linejoin:miter;stroke-miterlimit:4;stroke-dasharray:none;stroke-opacity:1"
     d="m 1151.044,649.56955 v 10.62928 h 37.2052 v -10.62928 z m 72.6381,0 v 10.62928 h 35.4327 v -10.62928 z m 70.8655,0 v 10.62928 h 35.4327 v -10.62928 z m 70.8673,0 v 10.62928 h 35.4328 v -10.62928 z m 70.8655,0 v 10.62928 h 37.2053 v -10.589 z"
     id="path13285"
     inkscape:connector-curvature="0"
     sodipodi:nodetypes="ccccccccccccccccccccccccc" />
  <path
     style="fill:none;stroke:#000000;stroke-width:1.77165496;stroke-linecap:butt;stroke-linejoin:miter;stroke-miterlimit:4;stroke-dasharray:none;stroke-opacity:1"
     d="m 180.28629,443.65302 8e-4,56.69292 h -10.6293 v 60.2363 h 10.6293 l -8e-4,46.0642 h 26.576 v 10.6293 h 37.2034 v -10.6293 h 35.4328 v 10.6293 h 35.4327 v -10.6293 h 35.4328 v 10.6293 h 35.4328 v -10.6293 h 35.4345 v 10.6293 h 35.4329 v -10.6293 h 35.4345 v 10.6293 h 37.2034 v -10.5891 l 26.576,0.039 -7e-4,-46.1434 h 10.6311 v -60.2363 h -10.6311 l 7e-4,-56.69242 z"
     id="path13333"
     inkscape:connector-curvature="0"
     sodipodi:nodetypes="ccccccccccccccccccccccccccccccccc" />
  <path
     sodipodi:nodetypes="csscccccccccccccccccccccccccccccccccccccccccccccccc"
     inkscape:connector-curvature="0"
     id="path13345"
     d="m 546.91102,1057.9881 c -45.4432,10e-5 -65.0993,6.4923 -88.5828,17.7153 -23.4834,11.223 -42.9848,17.7172 -88.5829,17.7172 h -198.4253 v 35.4332 h -10.6295 v 35.4338 h 10.6295 v 35.4336 h -10.6295 v 35.4316 h 10.6295 v 35.4315 h -10.6295 v 35.4337 h 10.6295 v 24.8056 l 26.5748,10e-5 v 10.6292 h 37.2048 v -10.6292 h 35.4328 v 10.6292 h 35.4327 v -10.6292 h 35.4328 v 10.6292 h 35.4328 v -10.6292 h 35.4345 v 10.6292 h 35.4329 v -10.6292 h 35.4332 v 10.6292 h 37.2048 v -10.5889 l 26.5749,0.039 v -33.7437 h 10.6311 v -44.2914 h -10.6311 v -35.433 h 10.6311 v -35.433 h -10.6311 v -35.4329 h 10.6311 v -44.2915 h -10.6311 z"
     style="fill:none;stroke:#000000;stroke-width:1.77165496;stroke-linecap:butt;stroke-linejoin:miter;stroke-miterlimit:4;stroke-dasharray:none;stroke-opacity:1" />
  <path
     sodipodi:nodetypes="ccccccccccccccccccccccccc"
     inkscape:connector-curvature="0"
     id="path13350"
     d="m 1151.044,826.76562 v 10.62928 h 37.2052 v -10.62928 z m 72.6381,0 v 10.62928 h 35.4327 v -10.62928 z m 70.8655,0 v 10.62928 h 35.4327 v -10.62928 z m 70.8673,0 v 10.62928 h 35.4328 v -10.62928 z m 70.8655,0 v 10.62928 h 37.2053 v -10.589 z"
     style="fill:none;stroke:#000000;stroke-width:1.77165496;stroke-linecap:butt;stroke-linejoin:miter;stroke-miterlimit:4;stroke-dasharray:none;stroke-opacity:1" />
  <path
     style="fill:none;stroke:#000000;stroke-width:1.77165496;stroke-linecap:butt;stroke-linejoin:miter;stroke-miterlimit:4;stroke-dasharray:none;stroke-opacity:1"
     d="m 1151.044,1003.8999 v 10.6293 h 37.2052 v -10.6293 z m 72.6381,0 v 10.6293 h 35.4327 v -10.6293 z m 70.8655,0 v 10.6293 h 35.4327 v -10.6293 z m 70.8673,0 v 10.6293 h 35.4328 v -10.6293 z m 70.8655,0 v 10.6293 h 37.2053 v -10.589 z"
     id="path13352"
     inkscape:connector-curvature="0"
     sodipodi:nodetypes="ccccccccccccccccccccccccc" />
  <path
     sodipodi:nodetypes="ccccccccccccccccccccccccc"
     inkscape:connector-curvature="0"
     id="path13354"
     d="m 1151.044,1181.0962 v 10.6293 h 37.2052 v -10.6293 z m 72.6381,0 v 10.6293 h 35.4327 v -10.6293 z m 70.8655,0 v 10.6293 h 35.4327 v -10.6293 z m 70.8673,0 v 10.6293 h 35.4328 v -10.6293 z m 70.8655,0 v 10.6293 h 37.2053 v -10.589 z"
     style="fill:none;stroke:#200000;stroke-width:1.77165496;stroke-linecap:butt;stroke-linejoin:miter;stroke-miterlimit:4;stroke-dasharray:none;stroke-opacity:1" />
  <rect
     style="fill:none;fill-opacity:1;stroke:#ff0000;stroke-width:1.77173686;stroke-miterlimit:4;stroke-dasharray:none;stroke-opacity:1"
     id="rect4633"
     width="386.22079"
     height="308.26797"
     x="1124.4694"
     y="341.30157" />
  <rect
     y="660.22864"
     x="1124.2347"
     height="166.53802"
     width="386.69016"
     id="rect4635"
     style="fill:none;fill-opacity:1;stroke:#ff0000;stroke-width:1.7691958;stroke-miterlimit:4;stroke-dasharray:none;stroke-opacity:1" />
  <rect
     style="fill:none;fill-opacity:1;stroke:#ff0000;stroke-width:1.76813543;stroke-miterlimit:4;stroke-dasharray:none;stroke-opacity:1"
     id="rect4637"
     width="386.22433"
     height="166.53909"
     x="1124.2343"
     y="837.36169" />
  <rect
     y="1014.5582"
     x="1124.2343"
     height="166.53908"
     width="386.2243"
     id="rect4639"
     style="fill:none;fill-opacity:1;stroke:#ff0000;stroke-width:1.76813543;stroke-miterlimit:4;stroke-dasharray:none;stroke-opacity:1" />
  <rect
     style="fill:none;fill-opacity:1;stroke:#ff0000;stroke-width:1.7691958;stroke-miterlimit:4;stroke-dasharray:none;stroke-opacity:1"
     id="rect4641"
     width="386.69016"
     height="166.53802"
     x="1124.2347"
     y="1191.7754" />
  <path
     sodipodi:nodetypes="ccccccccccccccccccccccccccccccccc"
     inkscape:connector-curvature="0"
     id="path4645"
     d="m 177.47023,649.22509 8e-4,56.69292 h -10.6293 v 60.2363 h 10.6293 l -8e-4,46.0642 h 26.576 v 10.6293 h 37.2034 v -10.6293 h 35.4328 v 10.6293 h 35.4327 v -10.6293 h 35.4328 v 10.6293 h 35.4328 v -10.6293 h 35.4345 v 10.6293 h 35.4329 v -10.6293 h 35.4345 v 10.6293 h 37.2034 v -10.5891 l 26.576,0.039 -7e-4,-46.1434 h 10.6311 v -60.2363 h -10.6311 l 7e-4,-56.69242 z"
     style="fill:none;stroke:#000000;stroke-width:1.77165496;stroke-linecap:butt;stroke-linejoin:miter;stroke-miterlimit:4;stroke-dasharray:none;stroke-opacity:1" />
  <path
     style="fill:none;stroke:#000000;stroke-width:1.77165496;stroke-linecap:butt;stroke-linejoin:miter;stroke-miterlimit:4;stroke-dasharray:none;stroke-opacity:1"
     d="m 169.02206,857.61321 8e-4,56.69292 h -10.6293 v 60.2363 h 10.6293 l -8e-4,46.06417 h 26.576 v 10.6293 h 37.2034 v -10.6293 h 35.4328 v 10.6293 h 35.4327 v -10.6293 h 35.4328 v 10.6293 h 35.4328 v -10.6293 h 35.4345 v 10.6293 h 35.4329 v -10.6293 h 35.4345 v 10.6293 h 37.2034 v -10.5891 l 26.576,0.039 -7e-4,-46.14337 h 10.6311 v -60.2363 h -10.6311 l 7e-4,-56.69242 z"
     id="path4647"
     inkscape:connector-curvature="0"
     sodipodi:nodetypes="ccccccccccccccccccccccccccccccccc" />
  <g
     id="g7723"
     transform="rotate(-90,1812.7569,643.46582)">
    <path
       sodipodi:nodetypes="czcccccccccccccccccccccccccccccccccccccccccccccccccccccccccccccccccccccccccccccccczcc"
       inkscape:connector-curvature="0"
       id="path13270"
       d="m 1758.7221,1181.1644 c 0,45.598 6.4935,65.0993 17.7166,88.5827 11.2231,23.4835 17.7165,43.1395 17.7165,88.5828 h -17.7165 v 10.6299 h -53.1497 v -10.6299 h -35.4331 v 10.6299 h -35.4331 v -10.6299 h -35.4331 v 10.6303 h -53.1496 v -10.6299 H 1521.24 l 0.04,-42.5221 h -10.5898 v -53.1497 h 10.63 v -35.4331 h -10.63 v -35.4331 h 10.63 v -35.4331 h -10.63 v -35.4331 h 10.63 v -35.4331 h -10.63 v -35.4331 h 10.63 v -35.4331 h -10.63 v -35.43308 h 10.63 v -35.4331 h -10.63 v -35.4331 h 10.63 v -35.4331 h -10.63 v -35.4331 h 10.63 v -35.4331 h -10.63 v -35.4331 h 10.63 v -35.4331 h -10.63 v -35.4331 h 10.63 v -35.4331 h -10.63 v -35.4331 h 10.63 v -35.4331 h -10.63 v -35.4331 h 10.63 v -35.4331 h -10.63 v -35.4331 h 10.63 v -35.4331 h -10.63 v -53.1496 h 10.63 l -1e-4,-42.5198 h 42.5198 v -10.6299 h 53.1496 v 10.6299 h 35.4331 v -10.6299 h 35.4331 v 10.6299 h 35.4331 v -10.6299 h 53.1497 v 10.6299 h 17.7165 c 0,45.4434 -6.4934,65.0993 -17.7165,88.5828 -11.2231,23.4834 -17.7166,42.9847 -17.7166,88.5828 z"
       style="fill:none;stroke:#000000;stroke-width:1.77165496;stroke-linecap:butt;stroke-linejoin:miter;stroke-miterlimit:4;stroke-dasharray:none;stroke-opacity:1" />
    <path
       style="fill:none;stroke:#000000;stroke-width:1.77165496;stroke-linecap:butt;stroke-linejoin:miter;stroke-miterlimit:4;stroke-dasharray:none;stroke-opacity:1"
       d="m 1567.152,1181.0973 v 10.6311 h 60.2363 v -10.6311 z"
       id="path7698"
       inkscape:connector-curvature="0"
       sodipodi:nodetypes="ccccc" />
    <path
       sodipodi:nodetypes="ccccc"
       inkscape:connector-curvature="0"
       id="path7702"
       d="m 1567.152,1003.9008 v 10.6311 h 60.2363 v -10.6311 z"
       style="fill:none;stroke:#000000;stroke-width:1.77165496;stroke-linecap:butt;stroke-linejoin:miter;stroke-miterlimit:4;stroke-dasharray:none;stroke-opacity:1" />
    <path
       style="fill:none;stroke:#000000;stroke-width:1.77165496;stroke-linecap:butt;stroke-linejoin:miter;stroke-miterlimit:4;stroke-dasharray:none;stroke-opacity:1"
       d="m 1567.152,826.76666 v 10.6311 h 60.2363 v -10.6311 z"
       id="path7704"
       inkscape:connector-curvature="0"
       sodipodi:nodetypes="ccccc" />
    <path
       style="fill:none;stroke:#000000;stroke-width:1.77165496;stroke-linecap:butt;stroke-linejoin:miter;stroke-miterlimit:4;stroke-dasharray:none;stroke-opacity:1"
       d="m 1723.2893,660.29582 v -10.6295 h -35.4338 v 10.6295 z m -70.8674,0 v -10.6295 h -35.4316 v 10.6295 z m -70.8631,0 v -10.6295 h -35.4337 v 10.6295 z"
       id="path7708"
       inkscape:connector-curvature="0"
       sodipodi:nodetypes="ccccccccccccccc" />
  </g>
  <g
     id="g7731"
     transform="rotate(-90,1670.1392,500.84695)">
    <g
       transform="rotate(90,772.22011,1113.6181)"
       id="g4531"
       style="stroke:#000000;stroke-width:1.77165496;stroke-miterlimit:4;stroke-dasharray:none;stroke-opacity:1">
      <path
         sodipodi:nodetypes="ccccccccccccccccccccccccccccccccccccccccccccccccccccccccccccccccccccccccccccccccc"
         inkscape:connector-curvature="0"
         id="polygon4529"
         d="M 10.62993,56.250045 H 1016.93 V 109.3997 h 10.6299 v 53.14966 H 1016.93 v 35.4331 h 10.6299 v 35.4331 H 1016.93 v 35.4331 h 10.6299 v 53.14965 H 1016.93 v 53.14965 H 974.41025 V 364.51803 H 921.2606 v 10.62993 h -35.4331 v -10.62993 h -35.4331 v 10.62993 h -35.4331 v -10.62993 h -35.4331 v 10.62993 H 744.0951 V 364.51803 H 708.662 v 10.62993 h -35.4331 v -10.62993 h -35.4331 v 10.62993 h -35.4331 v -10.62993 h -35.4331 v 10.62993 h -35.4331 v -10.62993 h -35.4331 v 10.62993 h -35.4331 v -10.62993 h -35.4331 v 10.62993 H 389.7641 V 364.51803 H 354.331 v 10.62993 h -35.4331 v -10.62993 h -35.4331 v 10.62993 h -35.4331 v -10.62993 h -35.4331 v 10.62993 h -35.4331 v -10.62993 h -35.4331 v 10.62993 H 106.2993 V 364.51803 H 53.14965 v 10.62993 H 10.62993 V 321.99831 H 0 v -53.14965 h 10.62993 v -35.4331 H 0 v -35.4331 h 10.62993 v -35.4331 H 0 V 109.3997 h 10.62993 z"
         style="fill:none;stroke:#000000;stroke-width:1.77165496;stroke-miterlimit:4;stroke-dasharray:none;stroke-opacity:1" />
    </g>
    <path
       sodipodi:nodetypes="ccccccccccccccc"
       inkscape:connector-curvature="0"
       id="path7706"
       d="m 1554.9838,649.56955 v 10.6311 h 44.2914 v -10.6311 z m 79.7244,0 v 10.6311 h 35.433 v -10.6311 z m 70.8659,0 v 10.6311 h 44.2915 v -10.6311 z"
       style="fill:none;stroke:#000000;stroke-width:1.77165496;stroke-linecap:butt;stroke-linejoin:miter;stroke-miterlimit:4;stroke-dasharray:none;stroke-opacity:1" />
    <path
       sodipodi:nodetypes="ccccc"
       inkscape:connector-curvature="0"
       id="path7710"
       d="m 1567.152,1181.0973 v 10.6311 h 60.2363 v -10.6311 z"
       style="fill:none;stroke:#000000;stroke-width:1.77165496;stroke-linecap:butt;stroke-linejoin:miter;stroke-miterlimit:4;stroke-dasharray:none;stroke-opacity:1" />
    <path
       style="fill:none;stroke:#000000;stroke-width:1.77165496;stroke-linecap:butt;stroke-linejoin:miter;stroke-miterlimit:4;stroke-dasharray:none;stroke-opacity:1"
       d="m 1567.152,1003.9008 v 10.6311 h 60.2363 v -10.6311 z"
       id="path7712"
       inkscape:connector-curvature="0"
       sodipodi:nodetypes="ccccc" />
    <path
       sodipodi:nodetypes="ccccc"
       inkscape:connector-curvature="0"
       id="path7714"
       d="m 1567.152,826.76666 v 10.6311 h 60.2363 v -10.6311 z"
       style="fill:none;stroke:#000000;stroke-width:1.77165496;stroke-linecap:butt;stroke-linejoin:miter;stroke-miterlimit:4;stroke-dasharray:none;stroke-opacity:1" />
  </g>
  <path
     id="path7744"
     d="m 1621.2079,979.76705 v 10.62929 24.80346 h 10.6293 v -24.80346 h 24.8035 v -10.62929 h -24.8035 z"
     style="opacity:1;fill:none;fill-opacity:1;stroke:#000000;stroke-width:1.77165508;stroke-linecap:square;stroke-linejoin:miter;stroke-miterlimit:4;stroke-dasharray:none;stroke-dashoffset:0;stroke-opacity:1;paint-order:normal"
     inkscape:connector-curvature="0" />
  <path
     inkscape:connector-curvature="0"
     style="opacity:1;fill:none;fill-opacity:1;stroke:#000000;stroke-width:1.77165508;stroke-linecap:square;stroke-linejoin:miter;stroke-miterlimit:4;stroke-dasharray:none;stroke-dashoffset:0;stroke-opacity:1;paint-order:normal"
     d="m 1634.3329,992.89208 v 10.62932 24.8034 h 10.6293 v -24.8034 h 24.8035 v -10.62932 h -24.8035 z"
     id="path7746" />
  <path
     inkscape:connector-curvature="0"
     style="opacity:1;fill:none;fill-opacity:1;stroke:#000000;stroke-width:1.77165508;stroke-linecap:square;stroke-linejoin:miter;stroke-miterlimit:4;stroke-dasharray:none;stroke-dashoffset:0;stroke-opacity:1;paint-order:normal"
     d="m 1647.4579,1006.0171 v 10.6293 24.8034 h 10.6293 v -24.8034 h 24.8035 v -10.6293 h -24.8035 z"
     id="path7748" />
  <path
     id="path7750"
     d="m 1660.3915,1019.1563 v 10.6293 24.8034 h 10.6293 v -24.8034 h 24.8035 v -10.6293 h -24.8035 z"
     style="opacity:1;fill:none;fill-opacity:1;stroke:#000000;stroke-width:1.77165508;stroke-linecap:square;stroke-linejoin:miter;stroke-miterlimit:4;stroke-dasharray:none;stroke-dashoffset:0;stroke-opacity:1;paint-order:normal"
     inkscape:connector-curvature="0" />
</svg>
