<?xml version="1.0" encoding="UTF-8" standalone="no"?>
<svg
   xmlns:dc="http://purl.org/dc/elements/1.1/"
   xmlns:cc="http://creativecommons.org/ns#"
   xmlns:rdf="http://www.w3.org/1999/02/22-rdf-syntax-ns#"
   xmlns:svg="http://www.w3.org/2000/svg"
   xmlns="http://www.w3.org/2000/svg"
   xmlns:sodipodi="http://sodipodi.sourceforge.net/DTD/sodipodi-0.dtd"
   xmlns:inkscape="http://www.inkscape.org/namespaces/inkscape"
   version="1.1"
   width="185.7mm"
   height="129.7mm"
   viewBox=" 0 0 657.992667 459.56730699999997"
   id="svg6026"
   inkscape:version="0.92.1 r15371"
   sodipodi:docname="damagecase.svg">
  <metadata
     id="metadata6056">
    <rdf:RDF>
      <cc:Work
         rdf:about="">
        <dc:format>image/svg+xml</dc:format>
        <dc:type
           rdf:resource="http://purl.org/dc/dcmitype/StillImage" />
      </cc:Work>
    </rdf:RDF>
  </metadata>
  <defs
     id="defs6054" />
  <sodipodi:namedview
     pagecolor="#ffffff"
     bordercolor="#666666"
     borderopacity="1"
     objecttolerance="10"
     gridtolerance="10"
     guidetolerance="10"
     inkscape:pageopacity="0"
     inkscape:pageshadow="2"
     inkscape:window-width="1680"
     inkscape:window-height="997"
     id="namedview6052"
     showgrid="false"
     inkscape:zoom="0.70710678"
     inkscape:cx="621.29679"
     inkscape:cy="-6.9957879"
     inkscape:window-x="1912"
     inkscape:window-y="-8"
     inkscape:window-maximized="1"
     inkscape:current-layer="svg6026" />
  <!-- Front-->
  <g
     transform="translate(22.500018,22.500019)"
     id="g6028"
     style="stroke:#0000ff;stroke-opacity:1">
    <polygon
       style="fill:none;stroke:#0000ff;stroke-width:0.90000075000000002;stroke-opacity:1"
       points="76.181165,0 104.52764,0 104.52764,10.62993 142.61823,10.62993 142.61823,0 180.70881,0 180.70881,32.598452 170.07888,32.598452 170.07888,65.196904 180.70881,65.196904 180.70881,97.795356 170.07888,97.795356 170.07888,130.39381 180.70881,130.39381 180.70881,162.99226 142.61823,162.99226 142.61823,152.36233 104.52764,152.36233 104.52764,162.99226 76.181165,162.99226 76.181165,152.36233 38.090582,152.36233 38.090582,162.99226 0,162.99226 0,130.39381 10.62993,130.39381 10.62993,97.795356 0,97.795356 0,65.196904 10.62993,65.196904 10.62993,32.598452 0,32.598452 0,0 38.090582,0 38.090582,10.62993 76.181165,10.62993 "
       id="polygon6030" />
    <polygon
       id="polygon6632"
       points="76.181165,0 104.52764,0 104.52764,10.62993 142.61823,10.62993 142.61823,0 180.70881,0 180.70881,32.598452 170.07888,32.598452 170.07888,65.196904 180.70881,65.196904 180.70881,97.795356 170.07888,97.795356 170.07888,130.39381 180.70881,130.39381 180.70881,162.99226 142.61823,162.99226 142.61823,152.36233 104.52764,152.36233 104.52764,162.99226 76.181165,162.99226 76.181165,152.36233 38.090582,152.36233 38.090582,162.99226 0,162.99226 0,130.39381 10.62993,130.39381 10.62993,97.795356 0,97.795356 0,65.196904 10.62993,65.196904 10.62993,32.598452 0,32.598452 0,0 38.090582,0 38.090582,10.62993 76.181165,10.62993 "
       style="fill:none;stroke:#0000ff;stroke-width:0.90000075000000002;stroke-opacity:1" />
  </g>
  <!-- Back-->
  <g
     transform="translate(203.2088285, 22.5000185) "
     id="g6032"
     style="stroke:#ff0000;stroke-opacity:1">
    <path
       style="fill:none;stroke:#ff0000;stroke-width:0.90000075000000002;stroke-opacity:1"
       d="m 0,10.629926 180.70881,0 0,21.968526 -10.62993,0 0,32.598452 10.62993,0 0,32.598452 -10.62993,0 -159.44895,0 -10.62993,0 0,-32.598452 10.62993,0 0,-32.598452 -10.62993,0 z"
       id="polygon6034"
       inkscape:connector-curvature="0"
       sodipodi:nodetypes="ccccccccccccccc" />
  </g>
  <!-- Left-->
  <path
     transform="translate(383.91764,22.500019)"
     style="fill:none;stroke:#ff0000;stroke-width:0.90000075000000002;stroke-opacity:1"
     d="m 240.94508,10.629926 0,21.968526 10.62993,0 0,32.598452 -10.62993,0 0,32.598452 10.62993,0 0,32.598454 -10.62993,0 0,32.59845 -31.00396,0 0,-10.62993 -41.63389,0 0,10.62993 -28.34648,0 0,-10.62993 -28.34648,0 0,10.62993 -28.346485,0 0,-10.62993 -41.633892,0 0,10.62993 -41.6338942521079,0 L 0,130.39381 0,97.795356 l 10.62993,0 0,-32.598452 -10.62993,0 0,-32.598452 10.62993,0 0,-21.968526 z"
     id="polygon6038"
     inkscape:connector-curvature="0"
     sodipodi:nodetypes="cccccccccccccccccccccccccccccccc" />
  <!-- Right-->
  <g
     transform="translate(383.91763849999995, 185.4922785) "
     id="g6040"
     style="stroke:#0000ff;stroke-opacity:1">
    <polygon
       style="stroke:#0000ff;fill:none;stroke-width:0.90000073999999997;stroke-opacity:1"
       points="10.62993, 0 41.6338925, 0 41.6338925, 10.62993 83.267785, 10.62993 83.267785, 0 111.614265, 0 111.614265, 10.62993 139.960745, 10.62993 139.960745, 0 168.30722500000002, 0 168.30722500000002, 10.62993 209.94111750000002, 10.62993 209.94111750000002, 0 240.94508, 0 240.94508, 32.598451999999995 251.57501, 32.598451999999995 251.57501, 65.19690399999999 240.94508, 65.19690399999999 240.94508, 97.79535599999998 251.57501, 97.79535599999998 251.57501, 130.39380799999998 240.94508, 130.39380799999998 240.94508000000002, 162.99226 209.94111750000002, 162.99226 209.94111750000002, 152.36233 168.30722500000002, 152.36233 168.30722500000002, 162.99226 139.960745, 162.99226 139.960745, 152.36233 111.614265, 152.36233 111.614265, 162.99226 83.267785, 162.99226 83.267785, 152.36233 41.6338925, 152.36233 41.6338925, 162.99226 10.62993, 162.99226 10.62993, 130.39380799999998 0, 130.39380799999998 0, 97.79535599999998 10.62993, 97.79535599999998 10.62993, 65.19690399999999 0, 65.19690399999999 0, 32.598451999999995 10.62993, 32.598451999999995 "
       id="polygon6042" />
  </g>
  <!-- Top-->
  <g
     transform="translate(22.5000185, 185.4922785) "
     id="g6044"
     style="stroke:#0000ff;stroke-opacity:1">
    <polygon
       style="stroke:#0000ff;fill:none;stroke-width:0.90000073999999997;stroke-opacity:1"
       points="10.62993, 10.62993 38.0905825, 10.62993 38.0905825, 0 76.181165, 0 76.181165, 10.62993 104.52764499999999, 10.62993 104.52764499999999, 0 142.6182275, 0 142.6182275, 10.62993 170.07888, 10.62993 170.07888, 41.6338925 180.70881, 41.6338925 180.70881, 83.267785 170.07888, 83.267785 170.07888, 111.614265 180.70881, 111.614265 180.70881, 139.960745 170.07888, 139.960745 170.07888, 168.30722500000002 180.70881, 168.30722500000002 180.70881, 209.94111750000002 170.07888, 209.94111750000002 170.07887999999997, 240.94508 142.6182275, 240.94508 142.6182275, 251.57501 104.52764499999999, 251.57501 104.52764499999999, 240.94508 76.181165, 240.94508 76.181165, 251.57501 38.0905825, 251.57501 38.0905825, 240.94508 10.62993, 240.94508000000002 10.62993, 209.94111750000002 0, 209.94111750000002 0, 168.30722500000002 10.62993, 168.30722500000002 10.62993, 139.960745 0, 139.960745 0, 111.614265 10.62993, 111.614265 10.62993, 83.267785 0, 83.267785 0, 41.6338925 10.62993, 41.6338925 "
       id="polygon6046" />
  </g>
  <!-- Bottom-->
  <g
     transform="translate(203.2088285, 185.4922785) "
     id="g6048"
     style="stroke:#0000ff;stroke-opacity:1">
    <polygon
       style="stroke:#0000ff;fill:none;stroke-width:0.90000073999999997;stroke-opacity:1"
       points="10.62993, 10.62993 38.0905825, 10.62993 38.0905825, 0 76.181165, 0 76.181165, 10.62993 104.52764499999999, 10.62993 104.52764499999999, 0 142.6182275, 0 142.6182275, 10.62993 170.07888, 10.62993 170.07888, 41.6338925 180.70881, 41.6338925 180.70881, 83.267785 170.07888, 83.267785 170.07888, 111.614265 180.70881, 111.614265 180.70881, 139.960745 170.07888, 139.960745 170.07888, 168.30722500000002 180.70881, 168.30722500000002 180.70881, 209.94111750000002 170.07888, 209.94111750000002 170.07887999999997, 240.94508 142.6182275, 240.94508 142.6182275, 251.57501 104.52764499999999, 251.57501 104.52764499999999, 240.94508 76.181165, 240.94508 76.181165, 251.57501 38.0905825, 251.57501 38.0905825, 240.94508 10.62993, 240.94508000000002 10.62993, 209.94111750000002 0, 209.94111750000002 0, 168.30722500000002 10.62993, 168.30722500000002 10.62993, 139.960745 0, 139.960745 0, 111.614265 10.62993, 111.614265 10.62993, 83.267785 0, 83.267785 0, 41.6338925 10.62993, 41.6338925 "
       id="polygon6050" />
  </g>
  <text
     xml:space="preserve"
     style="font-style:normal;font-variant:normal;font-weight:normal;font-stretch:normal;line-height:0%;font-family:Arial;-inkscape-font-specification:Arial;text-align:start;letter-spacing:0px;word-spacing:0px;writing-mode:lr-tb;text-anchor:start;fill:#0000ff;fill-opacity:1;stroke:none"
     x="48.634747"
     y="94.167259"
     id="text6058"><tspan
       sodipodi:role="line"
       id="tspan6060"
       x="48.634747"
       y="94.167259"
       style="font-size:12px;line-height:1.25">FRONT</tspan></text>
  <text
     xml:space="preserve"
     style="font-style:normal;font-variant:normal;font-weight:normal;font-stretch:normal;line-height:0%;font-family:Arial;-inkscape-font-specification:Arial;text-align:start;letter-spacing:0px;word-spacing:0px;writing-mode:lr-tb;text-anchor:start;fill:#000000;fill-opacity:1;stroke:none"
     x="277.49274"
     y="81.787331"
     id="text6062"
     transform="translate(-3.1647014e-6)"><tspan
       sodipodi:role="line"
       id="tspan6064"
       x="277.49274"
       y="81.787331"
       style="font-size:12px;line-height:1.25"> </tspan></text>
  <text
     xml:space="preserve"
     style="font-style:normal;font-variant:normal;font-weight:normal;font-stretch:normal;line-height:0%;font-family:Arial;-inkscape-font-specification:Arial;text-align:start;letter-spacing:0px;word-spacing:0px;writing-mode:lr-tb;text-anchor:start;fill:#0000ff;fill-opacity:1;stroke:none"
     x="228.44878"
     y="57.780865"
     id="text6066"><tspan
       sodipodi:role="line"
       id="tspan6068"
       x="228.44878"
       y="57.780865"
       style="font-size:11.99999046px;line-height:1.25">BACK</tspan></text>
  <text
     xml:space="preserve"
     style="font-style:normal;font-variant:normal;font-weight:normal;font-stretch:normal;line-height:0%;font-family:Arial;-inkscape-font-specification:Arial;text-align:start;letter-spacing:0px;word-spacing:0px;writing-mode:lr-tb;text-anchor:start;fill:#0000ff;fill-opacity:1;stroke:none"
     x="480.01376"
     y="84.708313"
     id="text6070"
     transform="translate(-3.1647014e-6)"><tspan
       sodipodi:role="line"
       id="tspan6072"
       x="480.01376"
       y="84.708313"
       style="font-size:11.99999046px;line-height:1.25">LEFT</tspan></text>
  <text
     xml:space="preserve"
     style="font-style:normal;font-variant:normal;font-weight:normal;font-stretch:normal;line-height:0%;font-family:Arial;-inkscape-font-specification:Arial;text-align:start;letter-spacing:0px;word-spacing:0px;writing-mode:lr-tb;text-anchor:start;fill:#0000ff;fill-opacity:1;stroke:none"
     x="504.35522"
     y="239.52005"
     id="text6074"
     transform="translate(-3.1647014e-6)"><tspan
       sodipodi:role="line"
       id="tspan6076"
       x="504.35522"
       y="239.52005"
       style="font-size:11.99999046px;line-height:1.25">RIGHT</tspan></text>
  <text
     xml:space="preserve"
     style="font-style:normal;font-variant:normal;font-weight:normal;font-stretch:normal;line-height:0%;font-family:Arial;-inkscape-font-specification:Arial;text-align:start;letter-spacing:0px;word-spacing:0px;writing-mode:lr-tb;text-anchor:start;fill:#0000ff;fill-opacity:1;stroke:none"
     x="69.6166"
     y="275.05859"
     id="text6078"
     transform="translate(-3.1647014e-6)"><tspan
       sodipodi:role="line"
       id="tspan6080"
       x="69.6166"
       y="275.05859"
       style="font-size:11.99999046px;line-height:1.25">TOP</tspan></text>
  <text
     xml:space="preserve"
     style="font-style:normal;font-variant:normal;font-weight:normal;font-stretch:normal;line-height:0%;font-family:Arial;-inkscape-font-specification:Arial;text-align:start;letter-spacing:0px;word-spacing:0px;writing-mode:lr-tb;text-anchor:start;fill:#0000ff;fill-opacity:1;stroke:none"
     x="255.52806"
     y="236.50461"
     id="text6082"><tspan
       sodipodi:role="line"
       id="tspan6084"
       x="255.52806"
       y="236.50461"
       style="font-size:11.99999046px;line-height:1.25">BOTTOM</tspan></text>
  <rect
     style="color:#000000;fill:none;stroke:#0000ff;stroke-width:1.00000083000000010;stroke-opacity:1;marker:none;visibility:visible;display:inline;overflow:visible;enable-background:accumulate"
     id="rect6086"
     width="230.31496"
     height="10.629921"
     x="383.48615"
     y="142.63516"
     transform="matrix(0.9961947,-0.08715574,0.08715574,0.9961947,0,0)" />
  <rect
     style="color:#000000;fill:none;stroke:#0000ff;stroke-width:1.00000083000000010;stroke-miterlimit:4;stroke-opacity:1;stroke-dasharray:none;marker:none;visibility:visible;display:inline;overflow:visible;enable-background:accumulate"
     id="rect6596"
     width="34.75494"
     height="56.692913"
     x="394.47113"
     y="118.21844" />
  <path
     sodipodi:nodetypes="cccccccccccccccccccccccccccccccc"
     inkscape:connector-curvature="0"
     id="path6618"
     d="m 624.86272,196.12239 0,21.96853 10.62993,0 0,32.59846 -10.62993,0 0,32.59845 10.62993,0 0,32.59846 -10.62993,0 0,32.59845 -31.00396,0 0,-10.62993 -41.63389,0 0,10.62993 -28.34648,0 0,-10.62993 -28.34648,0 0,10.62993 -28.34649,0 0,-10.62993 -41.63389,0 0,10.62993 -41.63389,0 0,-32.59845 0,-32.59846 10.62993,0 0,-32.59845 -10.62993,0 0,-32.59846 10.62993,0 0,-21.96853 z"
     style="fill:none;stroke:#ff0000;stroke-width:0.90000075000000002;stroke-opacity:1" />
  <g
     id="g6622"
     transform="translate(203.2088285, 185.4922785) "
     style="stroke:#ff0000;stroke-opacity:1">
    <path
       style="fill:none;stroke:#ff0000;stroke-width:0.90000075000000002;stroke-opacity:1"
       d="m 10.629929,-2.436217e-6 159.448951,0 0,41.633895436217 10.62993,0 0,41.633892 -10.62993,0 0,28.346485 10.62993,0 0,28.34647 -10.62993,0 0,28.34649 10.62993,0 0,41.63389 -10.62993,0 0,31.00396 -27.46065,0 0,10.62993 -38.09059,0 0,-10.62993 -28.346475,0 0,10.62993 -38.090583,0 0,-10.62993 -27.460652,0 0,-31.00396 -10.62993,0 0,-41.63389 10.62993,0 0,-28.34649 -10.62993,0 0,-28.34647 10.62993,0 0,-28.346485 -10.62993,0 0,-41.633892 10.62993,0 z"
       id="polygon6624"
       inkscape:connector-curvature="0"
       sodipodi:nodetypes="ccccccccccccccccccccccccccccccccccccc" />
  </g>
  <g
     id="g6627"
     transform="translate(22.5000185, 185.4922785) "
     style="stroke:#ff0000;stroke-opacity:1">
    <path
       style="fill:none;stroke:#ff0000;stroke-width:0.90000075000000002;stroke-opacity:1"
       d="m 10.62993,10.62993 159.44895,0 0,31.003963 10.62993,0 0,41.633892 -10.62993,0 0,28.346485 10.62993,0 0,28.34647 -10.62993,0 0,28.34649 10.62993,0 0,41.63389 -10.62993,0 0,31.00396 -159.44895,0 0,-31.00396 -10.62993,0 0,-41.63389 10.62993,0 0,-28.34649 -10.62993,0 0,-28.34647 10.62993,0 0,-28.346485 -10.62993,0 0,-41.633892 10.62993,0 z"
       id="polygon6629"
       inkscape:connector-curvature="0"
       sodipodi:nodetypes="ccccccccccccccccccccccccccccc" />
  </g>
  <path
     style="fill:none;stroke:#ff0000;stroke-width:0.89999998;stroke-opacity:1"
     d="m 22.499997,33.115472 0,21.96875 10.625,0 0,32.59375 -10.625,0 0,32.593738 10.625,0 0,32.625 -10.625,0 0,32.59375 38.09375,0 0,-10.625 38.09375,0 0,10.625 28.343753,0 0,-10.625 38.09375,0 0,10.625 38.09375,0 0,-32.59375 -10.625,0 0,-32.625 10.625,0 0,-32.593738 -10.625,0 0,-32.59375 10.625,0 0,-21.96875 -37.71875,0 c 0.001,0.156263 0,0.312165 0,0.46875 0,29.077574 -23.57868,52.625 -52.65625,52.625 -29.077577,0 -52.625003,-23.547426 -52.625003,-52.625 0,-0.156585 -0.0014,-0.312487 0,-0.46875 l -37.71875,0 z"
     id="polygon6636"
     inkscape:connector-curvature="0" />
  <path
     style="fill:none;stroke:#00ff00;stroke-width:1.00000083000000010px;stroke-linecap:butt;stroke-linejoin:miter;stroke-opacity:1"
     d="m 268.33854,46.150405 20.38805,17.329369 5.90319,-26.267147 4.61333,26.813332 21.57861,-16.634194 -13.93937,23.536164 21.62827,2.780638 -20.09047,7.597117 20.09047,17.428589 -25.44775,-8.788735 1.28963,19.712822 -11.21094,-16.385979 -17.16356,22.940309 7.49041,-26.763697 -24.85257,7.746073 20.13998,-16.98177 -16.41958,-8.093668 18.45354,-1.83721 z"
     id="path4027"
     inkscape:connector-curvature="0" />
  <path
     inkscape:connector-curvature="0"
     id="path6947"
     d="m 87.634682,98.150448 20.388048,17.329362 5.90319,-26.267137 4.61333,26.813317 21.57861,-16.634182 -13.93937,23.536152 21.62827,2.78064 -20.09047,7.59712 20.09047,17.42859 -25.44775,-8.78874 1.28963,19.71283 -11.21094,-16.38598 -17.163558,22.94031 7.490408,-26.7637 -24.852565,7.74607 20.139977,-16.98177 -16.41958,-8.09367 18.453538,-1.83721 z"
     style="fill:none;stroke:#00ff00;stroke-width:1.00000083000000010px;stroke-linecap:butt;stroke-linejoin:miter;stroke-opacity:1" />
  <path
     style="fill:none;stroke:#ff0000;stroke-width:0.89999998000000003;stroke-opacity:1"
     d="m 593.0625,91.34375 -41.46875,3.625 L 552.5,105.5 594,101.875 593.0625,91.34375 z m -69.71875,6.09375 -28.21875,2.46875 0.90625,10.53125 28.25,-2.46875 -0.9375,-10.53125 z M 466.875,102.375 425.40625,106 l 0.90625,10.53125 41.5,-3.625 -0.9375,-10.53125 z"
     id="polygon6600"
     inkscape:connector-curvature="0" />
  <path
     inkscape:connector-curvature="0"
     id="path6620"
     d="m 593.0625,279.52371 -41.46875,-3.625 0.90625,-10.53125 41.5,3.625 -0.9375,10.53125 z m -69.71875,-6.09375 -28.21875,-2.46875 0.90625,-10.53125 28.25,2.46875 -0.9375,10.53125 z m -56.46875,-4.9375 -41.46875,-3.625 0.90625,-10.53125 41.5,3.625 -0.9375,10.53125 z"
     style="fill:none;stroke:#ff0000;stroke-width:0.89999998000000003;stroke-opacity:1" />
  <path
     inkscape:connector-curvature="0"
     style="opacity:0.98999999;color:#000000;fill:none;stroke:#00ff00;stroke-width:1.05800092;stroke-miterlimit:4;stroke-opacity:1;stroke-dasharray:none;marker:none;visibility:visible;display:inline;overflow:visible;enable-background:accumulate"
     d="m 293.56323,363.75786 c 28.98268,0 52.47808,-23.49539 52.47808,-52.47807 0,-1.68588 -0.0937,-3.35342 -0.2492,-4.99861 l -104.34048,11.2432 c 3.0875,26.03897 25.24203,46.23348 52.1116,46.23348 z M 273.46618,350.4771 c -8.98854,0 -17.57515,-7.21228 -19.17355,-16.10989 -1.5984,-8.89762 4.39484,-16.10989 13.38337,-16.10989 8.98854,0 17.57516,7.21227 19.17356,16.10989 1.5984,8.89761 -4.39484,16.10989 -13.38338,16.10989 z m -0.36647,-2.08154 c 7.8293,0 13.04592,-6.27869 11.65365,-14.02835 -1.39226,-7.74967 -8.86693,-14.02836 -16.69623,-14.02836 -7.8293,0 -13.06057,6.27869 -11.66831,14.02836 1.39226,7.74966 8.8816,14.02835 16.71089,14.02835 z m -1.7737,-11.37513 c -0.0889,0.009 -0.18558,0 -0.27851,0 -1.48689,0 -2.90186,-1.18424 -3.16628,-2.65322 -0.26441,-1.46899 0.72658,-2.65323 2.21347,-2.65323 1.48689,0 2.90186,1.18424 3.16627,2.65323 0.24788,1.37718 -0.60188,2.51701 -1.93495,2.65322 z m -29.977,-20.40488 103.84209,-14.81993 c -4.46181,-24.45812 -25.88157,-42.99391 -51.62787,-42.99391 -28.98268,0 -52.47807,23.4954 -52.47807,52.47808 0,1.80154 0.0866,3.58094 0.26385,5.33576 z"
     id="path2998" />
  <path
     inkscape:connector-curvature="0"
     style="opacity:0.98999999;color:#000000;fill:none;stroke:#00ff00;stroke-width:1.06299996;stroke-opacity:1;marker:none;visibility:visible;display:inline;overflow:visible;enable-background:accumulate"
     d="m 311.09695,288.01868 4.31851,-20.06264 -1.34707,-0.28995 -2.02661,9.4151 -3.51854,-1.41712 c -0.24229,-1.20424 -1.17016,-2.21615 -2.44767,-2.49113 -1.28893,-0.27744 -2.56356,0.27385 -3.27635,1.28902 l -0.003,0.0143 -3.51971,-0.15784 2.02353,-9.40078 -1.36139,-0.29304 -4.31851,20.06264 1.3614,0.29304 2.02352,-9.40078 3.27294,1.30428 c 0.23199,1.21854 1.1669,2.24544 2.45583,2.52288 1.27289,0.27399 2.53512,-0.25817 3.25277,-1.24911 l 3.78998,0.15604 -2.02661,9.41511 1.34706,0.28996 z m -6.05166,-10.05937 c -0.9217,-0.1984 -1.51724,-1.10153 -1.31884,-2.02324 0.1984,-0.9217 1.11587,-1.51415 2.03757,-1.31576 0.9217,0.1984 1.49983,1.11278 1.30143,2.03449 -0.1984,0.9217 -1.09846,1.50291 -2.02016,1.30451 z m 0.19485,-0.34792 c 0.26852,0.0337 0.54202,-0.0203 0.7813,-0.1467 l -0.31071,-0.57669 c -0.11947,0.0631 -0.25503,0.083 -0.38911,0.0662 l -0.0815,0.6572 z m -0.22929,-0.0494 0.19613,-0.63253 c -0.12912,-0.0398 -0.2445,-0.11373 -0.32741,-0.22042 l -0.52047,0.39778 c 0.16607,0.21369 0.39316,0.37537 0.65175,0.45517 z m 1.20216,-0.22106 c 0.21368,-0.16606 0.36104,-0.39623 0.44084,-0.65482 l -0.61821,-0.19305 c -0.0398,0.12912 -0.12805,0.24141 -0.23475,0.32433 l 0.41212,0.52354 z m -1.97761,-0.42568 0.57669,-0.3107 c -0.0631,-0.11947 -0.083,-0.25503 -0.0662,-0.38912 l -0.65721,-0.0815 c -0.0337,0.26853 0.0203,0.54202 0.1467,0.7813 z m 1.82492,-0.53684 0.64288,0.0784 c 0.0337,-0.26853 -0.006,-0.53895 -0.13237,-0.77822 l -0.59103,0.30762 c 0.0631,0.11947 0.0973,0.25811 0.0805,0.39219 z m -1.28974,-0.27762 c 0.0398,-0.12912 0.11373,-0.2445 0.22042,-0.32741 l -0.39778,-0.52046 c -0.21369,0.16606 -0.37538,0.39314 -0.45517,0.65174 l 0.63253,0.19613 z m 1.15608,-0.21598 0.52046,-0.39778 c -0.16606,-0.21369 -0.39315,-0.37538 -0.65175,-0.45517 l -0.19613,0.63253 c 0.12913,0.0398 0.2445,0.11373 0.32742,0.22042 z m -0.83117,-0.17891 c 0.11947,-0.0631 0.25503,-0.083 0.38911,-0.0662 l 0.0815,-0.65721 c -0.26853,-0.0337 -0.54203,0.0203 -0.7813,0.14671 l 0.3107,0.57668 z"
     id="rect3803" />
  <path
     id="path3808"
     d="m 301.70713,303.19082 4.64273,-12.72343 -0.85429,-0.31173 -2.17876,5.97093 -2.17157,-1.24552 c -0.0492,-0.8092 -0.56394,-1.55484 -1.37412,-1.85048 -0.81742,-0.29827 -1.70066,-0.0535 -2.25869,0.54548 l -0.003,0.009 -2.28654,-0.42242 2.17544,-5.96184 -0.86337,-0.31503 -4.64272,12.72342 0.86337,0.31505 2.17545,-5.96184 2.02125,1.14947 c 0.0411,0.81762 0.55915,1.57371 1.37657,1.87197 0.80725,0.29457 1.68064,0.0612 2.23966,-0.52152 l 2.46339,0.44575 -2.17876,5.97093 0.85429,0.31172 z m -3.04363,-7.12478 c -0.58453,-0.2133 -0.89193,-0.85769 -0.67864,-1.44223 0.2133,-0.58453 0.86679,-0.8886 1.45132,-0.67532 0.58453,0.21329 0.87952,0.86348 0.66623,1.448 -0.21329,0.58454 -0.85438,0.88284 -1.43891,0.66955 z m 0.15893,-0.20977 c 0.17247,0.0464 0.35616,0.0359 0.52405,-0.0251 l -0.15081,-0.40517 c -0.0838,0.0305 -0.17425,0.0312 -0.26037,0.008 l -0.11287,0.42222 z m -0.14542,-0.053 0.18558,-0.39571 c -0.0808,-0.0377 -0.14951,-0.0965 -0.19403,-0.17379 l -0.37631,0.21283 c 0.0892,0.15475 0.22296,0.28105 0.38476,0.35667 z m 0.80591,-0.0355 c 0.15476,-0.0892 0.27196,-0.22627 0.34758,-0.38808 l -0.38662,-0.18227 c -0.0378,0.0808 -0.10561,0.1462 -0.18287,0.19073 l 0.22191,0.37962 z m -1.25416,-0.45764 0.40517,-0.1508 c -0.0305,-0.0838 -0.0311,-0.17425 -0.008,-0.26037 l -0.42223,-0.11287 c -0.0464,0.17247 -0.0359,0.35616 0.025,0.52404 z m 1.24165,-0.18541 0.41314,0.10955 c 0.0464,-0.17247 0.0451,-0.35282 -0.016,-0.52072 l -0.41425,0.14748 c 0.0304,0.0838 0.0402,0.17756 0.0171,0.26369 z m -0.81794,-0.29847 c 0.0377,-0.0808 0.0965,-0.14951 0.1738,-0.19404 l -0.21283,-0.3763 c -0.15475,0.0892 -0.28105,0.22295 -0.35666,0.38477 l 0.39569,0.18557 z m 0.77534,-0.0364 0.3763,-0.21283 c -0.0892,-0.15475 -0.22295,-0.28104 -0.38477,-0.35666 l -0.18558,0.3957 c 0.0808,0.0377 0.14952,0.0965 0.19405,0.17379 z m -0.52712,-0.19234 c 0.0838,-0.0305 0.17424,-0.0311 0.26037,-0.008 l 0.11288,-0.42223 c -0.17249,-0.0464 -0.35617,-0.0359 -0.52405,0.025 l 0.1508,0.40517 z"
     style="opacity:0.98999999;color:#000000;fill:none;stroke:#00ff00;stroke-width:1.06299996;stroke-opacity:1;marker:none;visibility:visible;display:inline;overflow:visible;enable-background:accumulate"
     inkscape:connector-curvature="0" />
  <path
     inkscape:connector-curvature="0"
     style="opacity:0.98999999;color:#000000;fill:none;stroke:#00ff00;stroke-width:1.06299996;stroke-opacity:1;marker:none;visibility:visible;display:inline;overflow:visible;enable-background:accumulate"
     d="m 322.3592,297.15768 -3.49211,-16.40948 -1.10178,0.23447 1.6388,7.70074 -3.09862,0.12034 c -0.58368,-0.81716 -1.61436,-1.26145 -2.65926,-1.03908 -1.05423,0.22435 -1.82048,1.06206 -2.01246,2.05777 l 0.002,0.0118 -2.67811,1.06001 -1.63632,-7.68901 -1.11349,0.23696 3.49211,16.40949 1.11351,-0.23697 -1.63631,-7.68902 2.87767,-0.12232 c 0.58077,0.83126 1.62173,1.28438 2.67596,1.06002 1.04111,-0.22156 1.80452,-1.04084 2.00822,-2.02011 l 2.87912,-1.15179 1.6388,7.70073 1.10178,-0.23447 z m -7.87984,-5.47818 c -0.75388,0.16043 -1.50029,-0.31393 -1.66072,-1.0678 -0.16043,-0.75387 0.32566,-1.50278 1.07952,-1.66321 0.75388,-0.16043 1.49106,0.32815 1.65148,1.08202 0.16044,0.75387 -0.31642,1.48856 -1.07028,1.64899 z m 0.0289,-0.32471 c 0.21156,-0.0647 0.3975,-0.19648 0.53367,-0.37086 l -0.42472,-0.32618 c -0.068,0.0871 -0.16245,0.14726 -0.26808,0.17957 l 0.15913,0.51747 z m -0.18754,0.0399 -0.0654,-0.53743 c -0.10964,0.0135 -0.22043,-0.003 -0.31797,-0.0548 l -0.2551,0.47086 c 0.19537,0.10381 0.41885,0.14843 0.63843,0.12142 z m 0.8227,-0.56714 c 0.10382,-0.19537 0.13671,-0.41636 0.1097,-0.63594 l -0.5257,0.0629 c 0.0135,0.10963 -0.0147,0.22291 -0.0666,0.32046 l 0.48257,0.25261 z m -1.6175,0.34422 0.32618,-0.42472 c -0.0871,-0.068 -0.14725,-0.16245 -0.17958,-0.26808 l -0.51746,0.15913 c 0.0647,0.21156 0.19648,0.39751 0.37086,0.53367 z m 1.18154,-1.01106 0.50575,-0.15664 c -0.0647,-0.21156 -0.18478,-0.39999 -0.35914,-0.53616 l -0.33789,0.42721 c 0.0871,0.068 0.15896,0.15996 0.19128,0.26559 z m -1.05489,0.22449 c -0.0135,-0.10963 0.003,-0.22042 0.0549,-0.31797 l -0.47085,-0.2551 c -0.10382,0.19537 -0.14844,0.41885 -0.12142,0.63843 l 0.53742,-0.0654 z m 0.79003,-0.54794 0.25511,-0.47085 c -0.19537,-0.10382 -0.41886,-0.14844 -0.63844,-0.12142 l 0.0654,0.53743 c 0.10963,-0.0135 0.22042,0.003 0.31796,0.0548 z m -0.67982,0.14468 c 0.068,-0.0871 0.16245,-0.14724 0.26809,-0.17957 l -0.15913,-0.51747 c -0.21157,0.0647 -0.39751,0.19649 -0.53367,0.37086 l 0.42471,0.32618 z"
     id="path3810" />
  <g
     transform="matrix(0.16789062,0,0,0.16789062,52.131281,209.27285)"
     id="g3786">
    <path
       sodipodi:nodetypes="ccczcccccccccccccc"
       inkscape:connector-curvature="0"
       id="path8745"
       d="m 43.436559,521.27448 v 23.48605 h 63.134531 c 8.16616,-0.85446 13.26201,-6.74154 14.76977,-12.45917 1.50776,-5.71762 1.34741,-11.00141 -1.3865,-14.65565 l -14.01745,-16.95093 c -0.58043,-0.81799 -0.0139,-1.86414 1.36023,-1.86414 h 27.81076 l -0.25253,45.80362 h 24.36993 v -45.83567 h 24.62246 V 477.08031 H 90.913729 c -14.397036,0.69356 -19.971763,16.15095 -14.567724,25.08432 l 13.7331,16.56338 c 1.108903,1.16024 1.327033,2.5108 -0.01747,2.49567 z"
       style="fill:#000000;fill-opacity:1;stroke:none;stroke-width:1px;stroke-linecap:butt;stroke-linejoin:miter;stroke-opacity:1" />
    <path
       sodipodi:nodetypes="ccccccccc"
       inkscape:connector-curvature="0"
       id="path9255"
       d="m 200.13647,544.63425 4.00483,-8.53432 h 23.17366 l 4.38469,8.34382 25.10494,0.17857 -21.45313,-67.62189 -37.91128,0.0446 -21.48106,67.56752 z"
       style="fill:#000000;fill-opacity:1;stroke:none;stroke-width:1px;stroke-linecap:butt;stroke-linejoin:miter;stroke-opacity:1" />
    <path
       style="fill:#ffffff;fill-opacity:1;stroke:none;stroke-width:0.99999994px;stroke-linecap:butt;stroke-linejoin:miter;stroke-opacity:1"
       d="m 197.33973,541.5521 4.61857,-9.67753 28.08104,-0.11861 5.60539,9.75567 16.58989,0.0296 -18.92949,-61.32468 -33.59776,-0.004 -19.7293,61.36419 z"
       id="path9309"
       inkscape:connector-curvature="0"
       sodipodi:nodetypes="ccccccccc" />
    <path
       style="fill:#000000;fill-opacity:1;stroke:none;stroke-width:1.06120837px;stroke-linecap:butt;stroke-linejoin:miter;stroke-opacity:1"
       d="m 204.92223,521.26039 21.47544,-0.075 -10.18727,-33.26642 z"
       id="path9307"
       inkscape:connector-curvature="0"
       sodipodi:nodetypes="cccc" />
    <path
       sodipodi:nodetypes="cccc"
       inkscape:connector-curvature="0"
       id="path9257"
       d="m 209.17423,517.48641 12.97004,-0.0446 -6.15258,-19.75709 z"
       style="fill:#ffffff;fill-opacity:1;stroke:none;stroke-width:1px;stroke-linecap:butt;stroke-linejoin:miter;stroke-opacity:1" />
    <path
       sodipodi:nodetypes="ccccccccczcc"
       inkscape:connector-curvature="0"
       id="path9259"
       d="m 261.4063,477.08031 -0.3125,67.50165 25.92345,0.0446 v -20.48491 l 15.89398,16.42945 c 4.03167,4.71496 7.58511,3.97821 11.21472,4.10976 l 38.99239,-0.0377 v -23.38911 l -38.19864,-0.0501 c 0,0 14.17987,-10.1723 14.17987,-21.47049 0,-11.29819 -11.919,-21.9603 -20.77073,-22.77967 z"
       style="fill:#000000;fill-opacity:1;stroke:none;stroke-width:1px;stroke-linecap:butt;stroke-linejoin:miter;stroke-opacity:1" />
    <path
       style="fill:#ffffff;fill-opacity:1;stroke:none;stroke-width:0.99999988px;stroke-linecap:butt;stroke-linejoin:miter;stroke-opacity:1"
       d="m 263.89248,479.87919 -0.11014,61.80613 19.65634,0.0412 0.12627,-21.82324 c -0.39669,-4.98738 1.35994,-3.6686 3.2785,-1.87561 l 18.47629,19.95338 c 2.21127,2.58523 4.10334,3.67413 7.45657,3.79562 l 37.53851,-0.0349 -0.12627,-17.43437 -36.67894,-0.425 c -2.7826,0.0342 -3.26239,-2.2507 0.62329,-5.4587 4.91667,-3.45809 11.97177,-10.43173 11.97177,-19.80017 0,-9.36843 -11.45336,-17.92587 -19.63106,-18.68261 z"
       id="path9311"
       inkscape:connector-curvature="0"
       sodipodi:nodetypes="ccccccccccczcc" />
    <path
       style="fill:#000000;fill-opacity:1;stroke:none;stroke-width:1px;stroke-linecap:butt;stroke-linejoin:miter;stroke-opacity:1"
       d="m 283.22151,493.94901 v 16.23712 h 18.94946 c 7.81595,-2.11598 6.72847,-14.31171 -0.22474,-16.19413 z"
       id="path9313"
       inkscape:connector-curvature="0"
       sodipodi:nodetypes="ccccc" />
    <path
       sodipodi:nodetypes="ccccc"
       inkscape:connector-curvature="0"
       id="path9261"
       d="m 287.3884,496.77828 v 10.57859 h 12.47372 c 5.14495,-1.37858 4.4291,-9.32417 -0.14794,-10.55058 z"
       style="fill:#ffffff;fill-opacity:1;stroke:none;stroke-width:1px;stroke-linecap:butt;stroke-linejoin:miter;stroke-opacity:1" />
    <path
       sodipodi:nodetypes="cccccccccccccc"
       inkscape:connector-curvature="0"
       id="path9263"
       d="m 373.06196,476.95403 19.94874,67.72604 23.48782,0.0173 7.95496,-24.18052 7.89181,24.24366 h 22.72843 l 22.20587,-67.7215 -23.9105,0.0413 -7.38674,21.71829 -6.37659,-21.78142 -25.19068,0.0631 -7.57614,23.73858 -7.63929,-23.80172 z"
       style="fill:#000000;fill-opacity:1;stroke:none;stroke-width:1px;stroke-linecap:butt;stroke-linejoin:miter;stroke-opacity:1" />
    <path
       sodipodi:nodetypes="ccccccccccccccccccccccccsccccccccccccccccccccccc"
       inkscape:connector-curvature="0"
       id="path9273"
       d="m 40.65864,577.02228 58.336309,79.3601 -59.093923,81.31728 h 82.327434 l 23.08392,-34.93541 22.18467,34.9414 84.85169,-0.006 -42.42642,-56.12659 50.69704,0.12627 v -20.26619 l 17.67767,59.09392 h 106.06601 l 15.15229,-59.599 v 59.585 l 104.04571,0.0446 v -17.20323 l 14.87043,17.15859 h 49.80735 l -0.44643,-29.7855 c 11.63453,18.56141 27.72,28.26295 54.59069,29.78886 h 61.56285 v -71.81491 l -53.13628,-0.0458 -0.10656,17.40449 c -8.09792,-0.12072 -13.78608,0.8942 -13.71823,-9.4811 0.0494,-7.55813 2.75152,-9.60546 13.36426,-9.7526 l 53.59681,0.0893 v -51.17321 l -70.6494,0.0893 c -17.4796,-0.042 -37.54943,13.79615 -45.71642,26.76349 V 595.7732 h -56.41939 l -0.0447,15.53571 -12.90178,-15.53571 H 359.28567 l -2.54465,16.5625 -4.50893,-16.5625 h -46.47321 l -4.28571,18.16964 -5.49108,-18.16964 h -56.07091 l 10.14685,37.86858 h -41.52472 l 41.22686,-56.61954 h -82.4537 l -21.78142,33.0825 -22.28649,-33.08249 z"
       style="fill:none;stroke:#000000;stroke-width:1px;stroke-linecap:butt;stroke-linejoin:miter;stroke-opacity:1" />
    <path
       sodipodi:nodetypes="ccccccccccccc"
       inkscape:connector-curvature="0"
       id="path9275"
       d="m 65.045429,590.39859 48.436451,-0.0531 30.35721,46.12429 29.82169,-46.19584 49.81227,-0.0539 -50.53827,68.38925 50.09184,67.23116 H 174.375 L 143.92857,680.5726 114.01786,725.84045 H 64.599 l 49.55087,-67.49639 z"
       style="fill:#000000;fill-opacity:1;stroke:none;stroke-width:1px;stroke-linecap:butt;stroke-linejoin:miter;stroke-opacity:1" />
    <path
       sodipodi:nodetypes="ccccc"
       inkscape:connector-curvature="0"
       id="path9277"
       d="m 209.54351,648.30116 0.0631,21.40261 36.5549,-0.0631 0.12627,-21.27633 z"
       style="fill:#000000;fill-opacity:1;stroke:none;stroke-width:1px;stroke-linecap:butt;stroke-linejoin:miter;stroke-opacity:1" />
    <path
       sodipodi:nodetypes="ccccccccccccccccc"
       inkscape:connector-curvature="0"
       id="path9279"
       d="m 255.95638,609.4742 30.3903,98.23656 30.08189,-0.007 9.95535,-40.06304 c 1.01926,-3.90398 1.41649,-3.93124 2.8725,-0.0318 l 13.86862,40.08849 29.82783,-0.007 24.27919,-98.58918 -28.66079,0.0756 -9.73284,41.5195 c -1.12568,2.87488 -2.28477,2.98408 -3.64562,0.0296 l -13.67539,-41.4778 -27.67885,0.073 -11.33877,40.28527 c -1.17017,3.53823 -3.12101,4.44219 -4.37513,-0.049 l -13.30399,-40.15974 z"
       style="fill:#000000;fill-opacity:1;stroke:none;stroke-width:1px;stroke-linecap:butt;stroke-linejoin:miter;stroke-opacity:1" />
    <path
       sodipodi:nodetypes="ccccc"
       inkscape:connector-curvature="0"
       id="path9281"
       d="m 410.83621,609.02777 -0.0893,98.21413 28.89876,0.0893 v -98.36207 z"
       style="fill:#000000;fill-opacity:1;stroke:none;stroke-width:1px;stroke-linecap:butt;stroke-linejoin:miter;stroke-opacity:1" />
    <path
       sodipodi:nodetypes="ccccccccccccc"
       inkscape:connector-curvature="0"
       id="path9283"
       d="m 459.61941,707.38984 -0.0893,-98.45399 h 29.1306 l 30.26785,36.42858 c 2.65682,3.18673 5.08365,2.25538 5.08929,0 l 0.0893,-36.42858 h 28.14255 l 0.17858,98.51525 -28.76754,-0.019 -31.18097,-38.8906 c -1.60612,-2.05235 -4.56225,-3.25551 -4.71205,-0.147 l -0.17851,39.01379 z"
       style="fill:#000000;fill-opacity:1;stroke:none;stroke-width:1px;stroke-linecap:butt;stroke-linejoin:miter;stroke-opacity:1" />
    <path
       sodipodi:nodetypes="cccscccccczczczcc"
       inkscape:connector-curvature="0"
       id="path9285"
       d="m 669.39938,609.17307 v 25.99611 l -48.10852,0.63135 c -14.50676,0.22579 -19.7236,11.0812 -20.0119,23.73855 -0.25356,11.13205 8.3089,21.79581 20.16009,21.99625 l 20.2017,0.16984 -0.0206,-21.91352 h 27.7792 v 47.30231 l -56.09673,-0.0893 c -13.29197,-0.004 -26.99796,-12.53697 -30.90195,-16.42506 -3.90399,-3.8881 -11.26364,-13.40313 -12.38821,-24.2754 0,0 -0.84101,-5.7208 -0.8218,-8.78473 0.0192,-3.06394 0.94807,-9.59713 0.94807,-9.59713 1.21964,-9.05402 8.01425,-19.75807 14.10387,-25.4998 6.08962,-5.74174 19.6084,-12.64794 29.51433,-13.10418 z"
       style="fill:#000000;fill-opacity:1;stroke:none;stroke-width:1px;stroke-linecap:butt;stroke-linejoin:miter;stroke-opacity:1" />
    <path
       style="fill:#000000;fill-opacity:1;stroke:none;stroke-width:1px;stroke-linecap:butt;stroke-linejoin:miter;stroke-opacity:1"
       d="m 489.77925,544.63425 4.00483,-8.53432 h 23.17366 l 4.38469,8.34382 25.10494,0.17857 -21.45313,-67.62189 -37.91128,0.0446 -21.48106,67.56752 z"
       id="path9295"
       inkscape:connector-curvature="0"
       sodipodi:nodetypes="ccccccccc" />
    <path
       style="fill:#000000;fill-opacity:1;stroke:none;stroke-width:1px;stroke-linecap:butt;stroke-linejoin:miter;stroke-opacity:1"
       d="m 657.28537,544.76053 c 8.16616,-0.85446 13.26201,-6.74154 14.76977,-12.45917 1.50776,-5.71762 0.67777,-10.42105 -2.05614,-14.07529 l -13.34781,-17.53129 c -0.58043,-0.81799 -0.0139,-1.86414 1.36023,-1.86414 h 26.00644 l -0.0446,-21.75033 h -42.34521 c -14.39704,0.69356 -19.97176,16.15095 -14.56773,25.08432 l 13.73311,16.56338 c 1.1089,1.16024 1.32703,2.54237 -0.0175,2.52724 l -35.68261,0.0276 c 0,0 13.82268,-8.16616 13.98188,-21.02313 0.0373,-3.01364 -0.6759,-6.54447 -1.87628,-9.09679 -3.60819,-7.67192 -12.14498,-13.59847 -18.87008,-14.20915 l -46.92254,0.12652 -0.3125,67.50165 25.92345,0.0446 v -20.48491 l 15.89398,16.42945 c 4.03167,4.71496 7.58511,3.97821 11.21472,4.10976 z"
       id="path9303"
       inkscape:connector-curvature="0"
       sodipodi:nodetypes="czccccccccccsscccccccc" />
    <path
       sodipodi:nodetypes="ccccccczccccccccczccccc"
       inkscape:connector-curvature="0"
       id="path3717"
       d="m 680.44173,480.55044 -38.54725,0.0567 c -12.32671,-0.0207 -16.52591,14.49916 -12.15701,19.81646 l 13.7331,16.51874 c 3.20712,3.83881 2.7556,7.01973 -0.95497,7.36174 l -39.05063,-0.19847 c -2.7826,0.0342 -3.21775,-2.47392 0.66793,-5.68192 4.91667,-3.45809 11.97177,-10.43173 11.97177,-19.80017 0,-9.36843 -11.45336,-17.92587 -19.63106,-18.68261 l -42.58113,-0.0617 -0.11014,61.80613 19.65634,0.0412 0.12627,-21.82324 c -0.39669,-4.98738 1.35994,-3.6686 3.2785,-1.87561 l 18.47629,19.95338 c 2.21127,2.58523 4.41584,3.58484 7.76907,3.70633 l 54.2845,0.0374 c 7.74732,-2.11096 10.53387,-6.1642 11.91263,-10.58417 1.37876,-4.41997 0.56744,-9.69823 -2.19007,-12.64671 L 654.1052,502.65907 c -3.09409,-3.88086 -3.05758,-8.2254 3.63702,-7.93557 l 22.68571,3e-5 z"
       style="fill:#ffffff;fill-opacity:1;stroke:none;stroke-width:1px;stroke-linecap:butt;stroke-linejoin:miter;stroke-opacity:1" />
    <path
       style="fill:#ffffff;fill-opacity:1;stroke:none;stroke-width:1px;stroke-linecap:butt;stroke-linejoin:miter;stroke-opacity:1"
       d="m 46.963345,524.39948 0.04464,16.70034 59.563105,0.13392 c 7.74732,-2.11096 9.68565,-3.84277 11.64477,-10.27167 1.95912,-6.4289 0.87994,-9.51966 -1.87757,-12.46814 l -12.99067,-15.83486 c -3.09409,-3.88086 -3.05758,-8.2254 3.63702,-7.93557 l 31.9179,4e-5 -0.074,46.47327 h 17.40565 l -0.35715,-46.86246 h 25.24746 v -13.86113 l -89.9876,0.13393 c -12.326706,-0.0207 -16.525913,14.49916 -12.157009,19.81646 l 13.7331,16.51874 c 3.207117,3.83881 2.755604,7.06437 -0.95497,7.40638 z"
       id="path3707"
       inkscape:connector-curvature="0"
       sodipodi:nodetypes="ccczcccccccccccccc" />
    <path
       sodipodi:nodetypes="ccccccccc"
       inkscape:connector-curvature="0"
       id="path3711"
       d="m 487.08721,541.5521 4.61857,-9.67753 28.08104,-0.11861 5.60539,9.75567 16.58989,0.0296 -18.92949,-61.32468 -33.59776,-0.004 -19.7293,61.36419 z"
       style="fill:#ffffff;fill-opacity:1;stroke:none;stroke-width:0.99999994px;stroke-linecap:butt;stroke-linejoin:miter;stroke-opacity:1" />
    <path
       sodipodi:nodetypes="cccccccccccccc"
       inkscape:connector-curvature="0"
       id="path3719"
       d="m 377.5,480.01969 18.21428,60.89286 h 17.67857 l 11.07143,-31.60714 10.89286,31.60714 h 17.32143 l 20.08929,-60.89286 H 456.33928 L 445.625,508.85897 436.51785,480.01969 H 416.875 l -10.17857,29.82143 -10.89286,-29.82143 z"
       style="fill:#ffffff;fill-opacity:1;stroke:none;stroke-width:1px;stroke-linecap:butt;stroke-linejoin:miter;stroke-opacity:1" />
    <path
       sodipodi:nodetypes="ccccc"
       inkscape:connector-curvature="0"
       id="path3715"
       d="m 573.22151,493.94901 v 16.23712 h 18.94946 c 7.81595,-2.11598 6.72847,-14.31171 -0.22474,-16.19413 z"
       style="fill:#000000;fill-opacity:1;stroke:none;stroke-width:1px;stroke-linecap:butt;stroke-linejoin:miter;stroke-opacity:1" />
    <path
       style="fill:#ffffff;fill-opacity:1;stroke:none;stroke-width:1px;stroke-linecap:butt;stroke-linejoin:miter;stroke-opacity:1"
       d="m 577.3884,496.77828 v 10.57859 h 12.47372 c 5.14495,-1.37858 4.4291,-9.32417 -0.14794,-10.55058 z"
       id="path9301"
       inkscape:connector-curvature="0"
       sodipodi:nodetypes="ccccc" />
    <path
       sodipodi:nodetypes="cccc"
       inkscape:connector-curvature="0"
       id="path3709"
       d="m 494.66971,521.26039 21.47544,-0.075 -10.18727,-33.26642 z"
       style="fill:#000000;fill-opacity:1;stroke:none;stroke-width:1.06120837px;stroke-linecap:butt;stroke-linejoin:miter;stroke-opacity:1" />
    <path
       style="fill:#ffffff;fill-opacity:1;stroke:none;stroke-width:1px;stroke-linecap:butt;stroke-linejoin:miter;stroke-opacity:1"
       d="m 498.81701,517.48641 12.97004,-0.0446 -6.15258,-19.75709 z"
       id="path9297"
       inkscape:connector-curvature="0"
       sodipodi:nodetypes="cccc" />
  </g>
</svg>
