<?xml version="1.0" encoding="UTF-8" standalone="no"?>
<svg
   xmlns:dc="http://purl.org/dc/elements/1.1/"
   xmlns:cc="http://creativecommons.org/ns#"
   xmlns:rdf="http://www.w3.org/1999/02/22-rdf-syntax-ns#"
   xmlns:svg="http://www.w3.org/2000/svg"
   xmlns="http://www.w3.org/2000/svg"
   xmlns:sodipodi="http://sodipodi.sourceforge.net/DTD/sodipodi-0.dtd"
   xmlns:inkscape="http://www.inkscape.org/namespaces/inkscape"
   version="1.1"
   width="282.7mm"
   height="154.7mm"
   viewBox=" 0 0 1001.6937369999999 548.150057"
   id="svg10091"
   sodipodi:docname="pilotbox-inside.svg"
   inkscape:version="0.92.1 r15371">
  <metadata
     id="metadata10097">
    <rdf:RDF>
      <cc:Work
         rdf:about="">
        <dc:format>image/svg+xml</dc:format>
        <dc:type
           rdf:resource="http://purl.org/dc/dcmitype/StillImage" />
      </cc:Work>
    </rdf:RDF>
  </metadata>
  <defs
     id="defs10095" />
  <sodipodi:namedview
     pagecolor="#ffffff"
     bordercolor="#666666"
     borderopacity="1"
     objecttolerance="10"
     gridtolerance="10"
     guidetolerance="10"
     inkscape:pageopacity="0"
     inkscape:pageshadow="2"
     inkscape:window-width="1920"
     inkscape:window-height="1027"
     id="namedview10093"
     showgrid="false"
     inkscape:zoom="1.5194749"
     inkscape:cx="-37.770222"
     inkscape:cy="250.75682"
     inkscape:window-x="-8"
     inkscape:window-y="-8"
     inkscape:window-maximized="1"
     inkscape:current-layer="svg10091" />
  <!-- Front-->
  <!-- Back-->
  <g
     transform="translate(316.5947485, 22.5000185) "
     id="g10073"
     style="stroke-width:1.77165489;stroke-miterlimit:4;stroke-dasharray:none;stroke:#0000ff;stroke-opacity:1">
    <polygon
       style="stroke:#0000ff;fill:none;stroke-width:1.77165489;stroke-miterlimit:4;stroke-dasharray:none;stroke-opacity:1"
       points="0, 0 36.3189275, 0 36.3189275, 10.62993 72.637855, 10.62993 72.637855, 0 93.897715, 0 93.897715, 10.62993 115.15757500000001, 10.62993 115.15757500000001, 0 136.417435, 0 136.417435, 10.62993 157.67729500000002, 10.62993 157.67729500000002, 0 178.93715500000002, 0 178.93715500000002, 10.62993 200.197015, 10.62993 200.197015, 0 221.456875, 0 221.456875, 10.62993 257.7758025, 10.62993 257.7758025, 0 294.09472999999997, 0 294.09472999999997, 28.34648 283.46479999999997, 28.34648 283.46479999999997, 56.69296 294.09472999999997, 56.69296 294.09472999999997, 77.95282 283.46479999999997, 77.95282 283.46479999999997, 106.2993 294.09472999999997, 106.2993 294.09473, 134.64578 257.7758025, 134.64578 257.7758025, 124.01585 221.456875, 124.01585 221.456875, 134.64578 200.197015, 134.64578 200.197015, 124.01585 178.93715500000002, 124.01585 178.93715500000002, 134.64578 157.67729500000002, 134.64578 157.67729500000002, 124.01585 136.417435, 124.01585 136.417435, 134.64578 115.15757500000001, 134.64578 115.15757500000001, 124.01585 93.897715, 124.01585 93.897715, 134.64578 72.637855, 134.64578 72.637855, 124.01585 36.3189275, 124.01585 36.3189275, 134.64578 0, 134.64578 0, 106.2993 10.62993, 106.2993 10.62993, 77.95282 0, 77.95282 0, 56.69296 10.62993, 56.69296 10.62993, 28.34648 0, 28.34648 "
       id="polygon10071" />
  </g>
  <!-- Left-->
  <g
     transform="translate(610.6894785, 22.5000185) "
     id="g10077"
     style="stroke-width:1.77165489;stroke-miterlimit:4;stroke-dasharray:none;stroke:#0000ff;stroke-opacity:1">
    <polygon
       style="stroke:#0000ff;fill:none;stroke-width:1.77165489;stroke-miterlimit:4;stroke-dasharray:none;stroke-opacity:1"
       points="10.62993, 0 33.661445, 0 33.661445, 10.62993 67.32289, 10.62993 67.32289, 0 88.58275, 0 88.58275, 10.62993 109.84261000000001, 10.62993 109.84261000000001, 0 131.10246999999998, 0 131.10246999999998, 10.62993 152.36233, 10.62993 152.36233, 0 173.62219, 0 173.62219, 10.62993 194.88205, 10.62993 194.88205, 0 216.14191, 0 216.14191, 10.62993 237.40177, 10.62993 237.40177, 0 258.66163, 0 258.66163, 10.62993 279.92149, 10.62993 279.92149, 0 301.18135, 0 301.18135, 10.62993 334.842795, 10.62993 334.842795, 0 357.87431, 0 357.87431, 28.34648 368.50424, 28.34648 368.50424, 56.69296 357.87431, 56.69296 357.87431, 77.95282 368.50424, 77.95282 368.50424, 106.2993 357.87431, 106.2993 357.87431, 134.64578 334.842795, 134.64578 334.842795, 124.01585 301.18135, 124.01585 301.18135, 134.64578 279.92149, 134.64578 279.92149, 124.01585 258.66163, 124.01585 258.66163, 134.64578 237.40177, 134.64578 237.40177, 124.01585 216.14191, 124.01585 216.14191, 134.64578 194.88205, 134.64578 194.88205, 124.01585 173.62219, 124.01585 173.62219, 134.64578 152.36233, 134.64578 152.36233, 124.01585 131.10246999999998, 124.01585 131.10246999999998, 134.64578 109.84261000000001, 134.64578 109.84261000000001, 124.01585 88.58275, 124.01585 88.58275, 134.64578 67.32289, 134.64578 67.32289, 124.01585 33.661445, 124.01585 33.661445, 134.64578 10.62993, 134.64578 10.62993, 106.2993 0, 106.2993 0, 77.95282 10.62993, 77.95282 10.62993, 56.69296 0, 56.69296 0, 28.34648 10.62993, 28.34648 "
       id="polygon10075" />
  </g>
  <!-- Right-->
  <!-- Top-->
  <!-- Bottom-->
  <g
     transform="translate(316.59475,157.1458)"
     id="g10089"
     style="stroke-width:1.77165484;stroke-miterlimit:4;stroke-dasharray:none">
    <path
       style="fill:none;stroke:#000000;stroke-width:1.77165484;stroke-miterlimit:4;stroke-dasharray:none"
       d="M 10.62993,10.62993 H 36.318927 V 0 h 36.318928 v 10.62993 h 21.25986 V 0 h 21.259865 v 10.62993 h 21.25985 V 0 h 21.25987 v 10.62993 h 21.25986 V 0 h 21.25985 v 10.62993 h 21.25986 V 0 h 36.31893 v 10.62993 h 25.689 v 23.031515 h 10.62993 V 67.32289 H 283.4648 v 21.25986 h 10.62993 v 21.25986 H 283.4648 v 21.25986 h 10.62993 v 21.25986 H 283.4648 v 21.25986 h 10.62993 v 21.25986 H 283.4648 v 21.25986 h 10.62993 v 21.25986 H 283.4648 v 21.25986 h 10.62993 v 21.25986 H 283.4648 v 21.25986 h 10.62993 V 334.8428 H 283.4648 v 23.03151 h -25.689 v 10.62993 h -36.31893 v -10.62993 h -21.25986 v 10.62993 H 178.93716 V 357.87431 H 157.6773 v 10.62993 h -21.25987 v -10.62993 h -21.25985 v 10.62993 H 93.897715 v -10.62993 h -21.25986 v 10.62993 H 36.318927 V 357.87431 H 10.62993 V 334.8428 H 0 V 301.18135 H 10.62993 V 279.92149 H 0 V 258.66163 H 10.62993 V 237.40177 H 0 V 216.14191 H 10.62993 V 194.88205 H 0 V 173.62219 H 10.62993 V 152.36233 H 0 V 131.10247 H 10.62993 V 109.84261 H 0 V 88.58275 H 10.62993 V 67.32289 H 0 V 33.661445 h 10.62993 z"
       id="polygon10087"
       inkscape:connector-curvature="0" />
  </g>
  <path
     sodipodi:nodetypes="ccccccccccccccccccccccccccccccccccccccccc"
     inkscape:connector-curvature="0"
     id="polygon10646"
     d="M 22.500018,22.500019 H 316.59475 v 28.34648 h -10.62993 v 28.34648 h 10.62993 v 21.259861 h -10.62993 v 28.34648 h 10.62993 V 157.1458 H 280.27582 V 146.51587 H 243.95689 V 157.1458 H 222.69703 V 146.51587 H 201.43718 V 157.1458 H 180.17732 V 146.51587 H 158.91745 V 157.1458 H 137.6576 V 146.51587 H 116.39773 V 157.1458 H 95.137873 V 146.51587 H 58.818945 V 157.1458 H 22.500018 v -28.34648 h 10.62993 V 100.45284 H 22.500018 V 79.192979 h 10.62993 v -28.34648 h -10.62993 z"
     style="fill:none;stroke:#000000;stroke-width:1.77165484;stroke-miterlimit:4;stroke-dasharray:none;stroke-opacity:1" />
  <g
     style="stroke-width:1.77165489;stroke-miterlimit:4;stroke-dasharray:none;stroke:#000000;stroke-opacity:1"
     id="g10652"
     transform="translate(316.5947485, 22.5000185) ">
    <path
       style="fill:none;stroke:#000000;stroke-width:1.77165484;stroke-miterlimit:4;stroke-dasharray:none;stroke-opacity:1"
       d="M 0,0 H 294.09473 V 28.34648 H 283.4648 v 28.34648 h 10.62993 V 77.95282 H 283.4648 v 28.34648 h 10.62993 v 28.34648 H 257.7758 v -10.62993 h -36.31893 v 10.62993 h -21.25986 v -10.62993 h -21.25985 v 10.62993 H 157.6773 v -10.62993 h -21.25987 v 10.62993 H 115.15758 V 124.01585 H 93.897715 v 10.62993 H 72.637855 V 124.01585 H 36.318927 v 10.62993 H 0 V 106.2993 H 10.62993 V 77.95282 H 0 V 56.69296 H 10.62993 V 28.34648 H 0 Z"
       id="polygon10650"
       inkscape:connector-curvature="0"
       sodipodi:nodetypes="ccccccccccccccccccccccccccccccccccccccccc" />
  </g>
  <g
     style="stroke-width:1.77165489;stroke-miterlimit:4;stroke-dasharray:none;stroke:#000000;stroke-opacity:1"
     id="g10656"
     transform="translate(610.6894785, 22.5000185) ">
    <path
       style="fill:none;stroke:#000000;stroke-width:1.77165484;stroke-miterlimit:4;stroke-dasharray:none;stroke-opacity:1"
       d="m 10.62993,0 h 347.24438 v 28.34648 h 10.62993 v 28.34648 h -10.62993 v 21.25986 h 10.62993 v 28.34648 h -10.62993 v 28.34648 H 334.8428 v -10.62993 h -33.66145 v 10.62993 h -21.25986 v -10.62993 h -21.25986 v 10.62993 h -21.25986 v -10.62993 h -21.25986 v 10.62993 h -21.25986 v -10.62993 h -21.25986 v 10.62993 h -21.25986 v -10.62993 h -21.25986 v 10.62993 H 109.84261 V 124.01585 H 88.58275 v 10.62993 H 67.32289 V 124.01585 H 33.661445 v 10.62993 H 10.62993 V 106.2993 H 0 V 77.95282 H 10.62993 V 56.69296 H 0 V 28.34648 h 10.62993 z"
       id="polygon10654"
       inkscape:connector-curvature="0"
       sodipodi:nodetypes="ccccccccccccccccccccccccccccccccccccccccccccccccc" />
  </g>
  <g
     style="stroke-width:1.77165489;stroke-miterlimit:4;stroke-dasharray:none;stroke:#000000;stroke-opacity:1"
     id="g10660"
     transform="translate(610.6894785, 157.1457985) ">
    <path
       style="fill:none;stroke:#000000;stroke-width:1.77165484;stroke-miterlimit:4;stroke-dasharray:none;stroke-opacity:1"
       d="m 10.62993,0 h 347.24438 v 28.34648 h 10.62993 v 28.34648 h -10.62993 v 21.25986 h 10.62993 v 28.34648 h -10.62993 v 28.34648 H 334.8428 v -10.62993 h -33.66145 v 10.62993 h -21.25986 v -10.62993 h -21.25986 v 10.62993 h -21.25986 v -10.62993 h -21.25986 v 10.62993 h -21.25986 v -10.62993 h -21.25986 v 10.62993 h -21.25986 v -10.62993 h -21.25986 v 10.62993 H 109.84261 V 124.01585 H 88.58275 v 10.62993 H 67.32289 V 124.01585 H 33.661445 v 10.62993 H 10.62993 V 106.2993 H 0 V 77.95282 H 10.62993 V 56.69296 H 0 V 28.34648 h 10.62993 z"
       id="polygon10658"
       inkscape:connector-curvature="0"
       sodipodi:nodetypes="ccccccccccccccccccccccccccccccccccccccccccccccccc" />
  </g>
  <path
     style="fill:none;stroke:#000000;stroke-width:1.77165484;stroke-linecap:butt;stroke-linejoin:miter;stroke-miterlimit:4;stroke-dasharray:none;stroke-opacity:1"
     d="m 352.91368,276.43721 v 10.62994 h 31.8012 v -10.62994 z m 63.60241,0 v 10.62993 h 31.8012 v -10.62993 z m 63.60241,0 v 10.62993 h 31.8012 v -10.62993 z m 63.60241,0 v 10.62994 h 31.80121 v -10.62994 z"
     id="path10692"
     inkscape:connector-curvature="0"
     sodipodi:nodetypes="cccccccccccccccccccc" />
  <path
     sodipodi:nodetypes="cccccccccccccccccccc"
     inkscape:connector-curvature="0"
     id="path10694"
     d="m 352.91368,395.72867 v 10.62994 h 31.8012 v -10.62994 z m 63.60241,0 v 10.62993 h 31.8012 v -10.62993 z m 63.60241,0 v 10.62993 h 31.8012 v -10.62993 z m 63.60241,0 v 10.62994 h 31.80121 v -10.62994 z"
     style="fill:none;stroke:#000000;stroke-width:1.77165484;stroke-linecap:butt;stroke-linejoin:miter;stroke-miterlimit:4;stroke-dasharray:none;stroke-opacity:1" />
  <path
     style="fill:none;stroke:#000000;stroke-width:1.77165484;stroke-linecap:butt;stroke-linejoin:miter;stroke-miterlimit:4;stroke-dasharray:none;stroke-opacity:1"
     d="m 740.61086,157.1458 h -10.62994 v 28.34648 h 10.62994 z m 0,56.69295 h -10.62994 l -10e-6,27.66745 h 10.62994 z"
     id="path10700"
     inkscape:connector-curvature="0"
     sodipodi:nodetypes="cccccccccc" />
  <path
     sodipodi:nodetypes="cccccccccc"
     inkscape:connector-curvature="0"
     id="path10702"
     d="m 859.90233,157.1458 h -10.62994 v 28.34648 h 10.62994 z m 0,56.69295 h -10.62994 l -10e-6,27.66745 h 10.62994 z"
     style="fill:none;stroke:#000000;stroke-width:1.77165484;stroke-linecap:butt;stroke-linejoin:miter;stroke-miterlimit:4;stroke-dasharray:none;stroke-opacity:1" />
  <path
     sodipodi:nodetypes="cccccccccc"
     inkscape:connector-curvature="0"
     id="path10708"
     d="m 740.61086,22.500018 h -10.62994 v 28.346484 h 10.62994 z m 0,56.692962 h -10.62994 l -10e-6,27.66745 h 10.62994 z"
     style="fill:none;stroke:#000000;stroke-width:1.77165484;stroke-linecap:butt;stroke-linejoin:miter;stroke-miterlimit:4;stroke-dasharray:none;stroke-opacity:1" />
  <path
     style="fill:none;stroke:#000000;stroke-width:1.77165484;stroke-linecap:butt;stroke-linejoin:miter;stroke-miterlimit:4;stroke-dasharray:none;stroke-opacity:1"
     d="m 859.90233,22.500018 h -10.62994 v 28.346484 h 10.62994 z m 0,56.692962 h -10.62994 l -10e-6,27.66745 h 10.62994 z"
     id="path10710"
     inkscape:connector-curvature="0"
     sodipodi:nodetypes="cccccccccc" />
  <path
     style="fill:none;stroke:#000000;stroke-width:1.77165496;stroke-linecap:butt;stroke-linejoin:miter;stroke-miterlimit:4;stroke-dasharray:none;stroke-opacity:1"
     d="m 22.499979,401.63419 h 10.62994 v 28.34647 h -10.62994 l -10e-6,27.66745 h 10.62994 l 1e-5,39.65543 h 25.1132 v 10.62994 h 31.801216 v -10.62994 h 31.801215 v 10.62993 h 31.8012 v -10.62993 h 31.80122 v 10.62993 h 31.8012 v -10.62993 h 31.80121 v 10.62995 h 31.80121 v -10.62995 h 25.11323 l -10e-6,-39.65543 h 10.62993 l 10e-6,-27.66745 h -10.62993 v -28.34647 h 10.62993 v -28.34648 c -22.72165,2e-5 -32.54965,3.08441 -44.29137,8.41535 -11.74173,5.33098 -21.49236,8.41538 -44.29139,8.41538 H 111.08275 c -22.799026,0 -32.549661,-3.0844 -44.291391,-8.41538 -11.74172,-5.33094 -21.56972,-8.41533 -44.29138,-8.41535 z"
     id="path10674-6"
     inkscape:connector-curvature="0"
     sodipodi:nodetypes="ccccccccccccccccccccccccccccccczcczcc" />
  <path
     sodipodi:nodetypes="ccccccccccccccccccccccccccccccczcczcc"
     inkscape:connector-curvature="0"
     id="path11999"
     d="M 316.59474,266.98843 H 305.9648 v 28.34647 h 10.62994 l 10e-6,27.66745 h -10.62994 l -10e-6,39.65543 h -25.1132 v 10.62993 h -31.80122 v -10.62993 h -31.80121 v 10.62993 h -31.8012 v -10.62993 h -31.80122 v 10.62993 h -31.8012 V 362.65778 H 90.044339 v 10.62993 h -31.80121 v -10.62993 h -25.11323 l 10e-6,-39.65543 h -10.62993 l -10e-6,-27.66745 h 10.62993 v -28.34647 h -10.62993 v -28.34649 c 22.72165,2e-5 32.54965,3.08442 44.29137,8.41536 11.74173,5.33097 21.49236,8.41537 44.291391,8.41537 h 116.92924 c 22.79902,0 32.54966,-3.0844 44.29139,-8.41537 11.74172,-5.33094 21.56972,-8.41534 44.29138,-8.41536 z"
     style="fill:none;stroke:#000000;stroke-width:1.77165496;stroke-linecap:butt;stroke-linejoin:miter;stroke-miterlimit:4;stroke-dasharray:none;stroke-opacity:1" />
</svg>
