<?xml version="1.0" encoding="UTF-8" standalone="no"?>
<svg
   xmlns:dc="http://purl.org/dc/elements/1.1/"
   xmlns:cc="http://creativecommons.org/ns#"
   xmlns:rdf="http://www.w3.org/1999/02/22-rdf-syntax-ns#"
   xmlns:svg="http://www.w3.org/2000/svg"
   xmlns="http://www.w3.org/2000/svg"
   xmlns:sodipodi="http://sodipodi.sourceforge.net/DTD/sodipodi-0.dtd"
   xmlns:inkscape="http://www.inkscape.org/namespaces/inkscape"
   version="1.1"
   width="282.7mm"
   height="154.7mm"
   viewBox=" 0 0 1001.6937369999999 548.150057"
   id="svg10091"
   sodipodi:docname="pilotbox-inside-imperials.svg"
   inkscape:version="0.92.1 r15371">
  <metadata
     id="metadata10097">
    <rdf:RDF>
      <cc:Work
         rdf:about="">
        <dc:format>image/svg+xml</dc:format>
        <dc:type
           rdf:resource="http://purl.org/dc/dcmitype/StillImage" />
        <dc:title></dc:title>
      </cc:Work>
    </rdf:RDF>
  </metadata>
  <defs
     id="defs10095" />
  <sodipodi:namedview
     pagecolor="#ffffff"
     bordercolor="#666666"
     borderopacity="1"
     objecttolerance="10"
     gridtolerance="10"
     guidetolerance="10"
     inkscape:pageopacity="0"
     inkscape:pageshadow="2"
     inkscape:window-width="1680"
     inkscape:window-height="997"
     id="namedview10093"
     showgrid="false"
     inkscape:zoom="0.53721552"
     inkscape:cx="587.95315"
     inkscape:cy="-153.61415"
     inkscape:window-x="1912"
     inkscape:window-y="-8"
     inkscape:window-maximized="1"
     inkscape:current-layer="svg10091" />
  <!-- Front-->
  <!-- Back-->
  <!-- Left-->
  <!-- Right-->
  <!-- Top-->
  <!-- Bottom-->
  <path
     sodipodi:nodetypes="ccccccccccccccccccccccccccccccccccccccccc"
     inkscape:connector-curvature="0"
     id="polygon10646"
     d="m 316.59475,22.500019 h 294.09473 v 28.34648 h -10.62993 v 28.34648 h 10.62993 v 21.259861 h -10.62993 v 28.34648 h 10.62993 V 157.1458 H 574.37055 V 146.51587 H 538.05162 V 157.1458 H 516.79176 V 146.51587 H 495.53191 V 157.1458 H 474.27205 V 146.51587 H 453.01218 V 157.1458 H 431.75233 V 146.51587 H 410.49246 V 157.1458 H 389.2326 v -10.62993 h -36.31893 v 10.62993 h -36.31892 v -28.34648 h 10.62993 V 100.45284 H 316.59475 V 79.192979 h 10.62993 v -28.34648 h -10.62993 z"
     style="fill:none;stroke:#000000;stroke-width:1.77165484;stroke-miterlimit:4;stroke-dasharray:none;stroke-opacity:1" />
  <g
     style="stroke:#000000;stroke-width:1.77165484;stroke-miterlimit:4;stroke-dasharray:none;stroke-opacity:1"
     id="g10652"
     transform="translate(610.68948,22.500018)">
    <path
       style="fill:none;stroke:#000000;stroke-width:1.77165484;stroke-miterlimit:4;stroke-dasharray:none;stroke-opacity:1"
       d="M 0,0 H 294.09473 V 28.34648 H 283.4648 v 28.34648 h 10.62993 V 77.95282 H 283.4648 v 28.34648 h 10.62993 v 28.34648 H 257.7758 v -10.62993 h -36.31893 v 10.62993 h -21.25986 v -10.62993 h -21.25985 v 10.62993 H 157.6773 v -10.62993 h -21.25987 v 10.62993 H 115.15758 V 124.01585 H 93.897715 v 10.62993 H 72.637855 V 124.01585 H 36.318927 v 10.62993 H 0 V 106.2993 H 10.62993 V 77.95282 H 0 V 56.69296 H 10.62993 V 28.34648 H 0 Z"
       id="polygon10650"
       inkscape:connector-curvature="0"
       sodipodi:nodetypes="ccccccccccccccccccccccccccccccccccccccccc" />
  </g>
  <path
     style="fill:none;stroke:#000000;stroke-width:1.77165484;stroke-linecap:butt;stroke-linejoin:miter;stroke-miterlimit:4;stroke-dasharray:none;stroke-opacity:1"
     d="m 153.6025,233.637 v 10.62994 H 125.25603 V 233.637 l -27.66745,-1e-5 v 10.62994 l -39.65543,1e-5 v 25.11319 H 47.30321 v 31.80121 h 10.62994 v 31.80121 H 47.30322 v 31.8012 h 10.62993 v 31.80121 H 47.30322 v 31.8012 h 10.62993 v 31.80121 H 47.30321 v 31.80121 h 10.62994 v 25.11323 l 39.65543,-10e-6 v 10.62993 l 27.66745,10e-6 v -10.62993 h 28.34647 v 10.62993 h 28.34648 c -2e-5,-22.72165 -3.08441,-32.54965 -8.41536,-44.29137 -5.33097,-11.74173 -8.41537,-21.49236 -8.41537,-44.29138 V 322.21975 c 0,-22.79902 3.0844,-32.54965 8.41537,-44.29138 5.33095,-11.74172 8.41534,-21.56972 8.41536,-44.29137 z"
     id="path10674"
     inkscape:connector-curvature="0"
     sodipodi:nodetypes="ccccccccccccccccccccccccccccccczcczcc" />
  <g
     id="g10730">
    <g
       style="stroke-width:1.77165484;stroke-miterlimit:4;stroke-dasharray:none"
       id="g10089"
       transform="translate(316.59475,157.1458)">
      <path
         inkscape:connector-curvature="0"
         id="polygon10087"
         d="M 10.62993,10.62993 H 36.318927 V 0 h 36.318928 v 10.62993 h 21.25986 V 0 h 21.259865 v 10.62993 h 21.25985 V 0 h 21.25987 v 10.62993 h 21.25986 V 0 h 21.25985 v 10.62993 h 21.25986 V 0 h 36.31893 v 10.62993 h 25.689 v 23.031515 h 10.62993 V 67.32289 H 283.4648 v 21.25986 h 10.62993 v 21.25986 H 283.4648 v 21.25986 h 10.62993 v 21.25986 H 283.4648 v 21.25986 h 10.62993 v 21.25986 H 283.4648 v 21.25986 h 10.62993 v 21.25986 H 283.4648 v 21.25986 h 10.62993 v 21.25986 H 283.4648 v 21.25986 h 10.62993 V 334.8428 H 283.4648 v 23.03151 h -25.689 v 10.62993 h -36.31893 v -10.62993 h -21.25986 v 10.62993 H 178.93716 V 357.87431 H 157.6773 v 10.62993 h -21.25987 v -10.62993 h -21.25985 v 10.62993 H 93.897715 v -10.62993 h -21.25986 v 10.62993 H 36.318927 V 357.87431 H 10.62993 V 334.8428 H 0 V 301.18135 H 10.62993 V 279.92149 H 0 V 258.66163 H 10.62993 V 237.40177 H 0 V 216.14191 H 10.62993 V 194.88205 H 0 V 173.62219 H 10.62993 V 152.36233 H 0 V 131.10247 H 10.62993 V 109.84261 H 0 V 88.58275 H 10.62993 V 67.32289 H 0 V 33.661445 h 10.62993 z"
         style="fill:none;stroke:#000000;stroke-width:1.77165484;stroke-miterlimit:4;stroke-dasharray:none" />
    </g>
    <path
       sodipodi:nodetypes="cccccccccccccccccccc"
       inkscape:connector-curvature="0"
       id="path10692"
       d="m 352.91368,276.43721 v 10.62994 h 31.8012 v -10.62994 z m 63.60241,0 v 10.62993 h 31.8012 v -10.62993 z m 63.60241,0 v 10.62993 h 31.8012 v -10.62993 z m 63.60241,0 v 10.62994 h 31.80121 v -10.62994 z"
       style="fill:none;stroke:#000000;stroke-width:1.77165484;stroke-linecap:butt;stroke-linejoin:miter;stroke-miterlimit:4;stroke-dasharray:none;stroke-opacity:1" />
    <path
       style="fill:none;stroke:#000000;stroke-width:1.77165484;stroke-linecap:butt;stroke-linejoin:miter;stroke-miterlimit:4;stroke-dasharray:none;stroke-opacity:1"
       d="m 352.91368,395.72867 v 10.62994 h 31.8012 v -10.62994 z m 63.60241,0 v 10.62993 h 31.8012 v -10.62993 z m 63.60241,0 v 10.62993 h 31.8012 v -10.62993 z m 63.60241,0 v 10.62994 h 31.80121 v -10.62994 z"
       id="path10694"
       inkscape:connector-curvature="0"
       sodipodi:nodetypes="cccccccccccccccccccc" />
  </g>
  <g
     id="g10742"
     transform="rotate(90,678.01237,224.46869)">
    <g
       transform="translate(610.68948,22.500018)"
       id="g10656"
       style="stroke:#000000;stroke-width:1.77165484;stroke-miterlimit:4;stroke-dasharray:none;stroke-opacity:1">
      <path
         sodipodi:nodetypes="ccccccccccccccccccccccccccccccccccccccccccccccccccccccccc"
         inkscape:connector-curvature="0"
         id="polygon10654"
         d="m 357.87431,0 v 28.34648 h 10.62993 v 28.34648 h -10.62993 v 21.25986 h 10.62993 v 28.34648 h -10.62993 v 28.34648 H 334.8428 v -10.62993 h -33.66145 v 10.62993 h -21.25986 v -10.62993 h -21.25986 v 10.62993 h -21.25986 v -10.62993 h -21.25986 v 10.62993 h -21.25986 v -10.62993 h -21.25986 v 10.62993 h -21.25986 v -10.62993 h -21.25986 v 10.62993 H 109.84261 V 124.01585 H 88.58275 v 10.62993 H 67.32289 V 124.01585 H 33.661445 v 10.62993 H 10.62993 V 106.2993 H 0 V 77.95282 H 10.62993 V 56.69296 H 0 V 28.34648 H 10.62993 V 0 h 108.66151 v 28.346484 h 10.62994 V 0 h 108.66153 v 28.346484 h 10.62994 V 0 Z"
         style="fill:none;stroke:#000000;stroke-width:1.77165484;stroke-miterlimit:4;stroke-dasharray:none;stroke-opacity:1" />
    </g>
    <path
       style="fill:none;stroke:#000000;stroke-width:1.77165484;stroke-linecap:butt;stroke-linejoin:miter;stroke-miterlimit:4;stroke-dasharray:none;stroke-opacity:1"
       d="m 740.61086,79.19298 h -10.62994 l -10e-6,27.66745 h 10.62994 z"
       id="path10708"
       inkscape:connector-curvature="0"
       sodipodi:nodetypes="ccccc" />
    <path
       sodipodi:nodetypes="ccccc"
       inkscape:connector-curvature="0"
       id="path10710"
       d="m 859.90233,79.19298 h -10.62994 l -10e-6,27.66745 h 10.62994 z"
       style="fill:none;stroke:#000000;stroke-width:1.77165484;stroke-linecap:butt;stroke-linejoin:miter;stroke-miterlimit:4;stroke-dasharray:none;stroke-opacity:1" />
  </g>
  <g
     transform="rotate(90,610.68948,157.1458)"
     id="g10752">
    <g
       style="stroke:#000000;stroke-width:1.77165484;stroke-miterlimit:4;stroke-dasharray:none;stroke-opacity:1"
       id="g10746"
       transform="translate(610.68948,22.500018)">
      <path
         style="fill:none;stroke:#000000;stroke-width:1.77165484;stroke-miterlimit:4;stroke-dasharray:none;stroke-opacity:1"
         d="m 357.87431,0 v 28.34648 h 10.62993 v 28.34648 h -10.62993 v 21.25986 h 10.62993 v 28.34648 h -10.62993 v 28.34648 H 334.8428 v -10.62993 h -33.66145 v 10.62993 h -21.25986 v -10.62993 h -21.25986 v 10.62993 h -21.25986 v -10.62993 h -21.25986 v 10.62993 h -21.25986 v -10.62993 h -21.25986 v 10.62993 h -21.25986 v -10.62993 h -21.25986 v 10.62993 H 109.84261 V 124.01585 H 88.58275 v 10.62993 H 67.32289 V 124.01585 H 33.661445 v 10.62993 H 10.62993 V 106.2993 H 0 V 77.95282 H 10.62993 V 56.69296 H 0 V 28.34648 H 10.62993 V 0 h 108.66151 v 28.346484 h 10.62994 V 0 h 108.66153 v 28.346484 h 10.62994 V 0 Z"
         id="path10744"
         inkscape:connector-curvature="0"
         sodipodi:nodetypes="ccccccccccccccccccccccccccccccccccccccccccccccccccccccccc" />
    </g>
    <path
       sodipodi:nodetypes="ccccc"
       inkscape:connector-curvature="0"
       id="path10748"
       d="m 740.61086,79.19298 h -10.62994 l -10e-6,27.66745 h 10.62994 z"
       style="fill:none;stroke:#000000;stroke-width:1.77165484;stroke-linecap:butt;stroke-linejoin:miter;stroke-miterlimit:4;stroke-dasharray:none;stroke-opacity:1" />
    <path
       style="fill:none;stroke:#000000;stroke-width:1.77165484;stroke-linecap:butt;stroke-linejoin:miter;stroke-miterlimit:4;stroke-dasharray:none;stroke-opacity:1"
       d="m 859.90233,79.19298 h -10.62994 l -10e-6,27.66745 h 10.62994 z"
       id="path10750"
       inkscape:connector-curvature="0"
       sodipodi:nodetypes="ccccc" />
  </g>
  <path
     style="fill:#000000;fill-opacity:1;stroke:none;stroke-width:1.00000083"
     d="m 463.65205,40.216571 c -24.46418,0 -44.30766,19.810848 -44.30766,44.275052 0,24.464207 19.84348,44.307687 44.30766,44.307687 24.46421,0 44.30769,-19.84348 44.30769,-44.307687 0,-24.464204 -19.84348,-44.275052 -44.30769,-44.275052 z m -2.0555,4.502548 c 0.0431,-0.002 0.0874,0.002 0.13051,0 v 2.283898 c -2.62375,0.133364 -5.24025,0.521885 -7.79789,1.207202 l 1.14196,4.143655 c -5.71546,1.520677 -10.81007,4.530259 -14.87798,8.580936 l -3.03433,-3.034325 c -1.88294,1.882946 -3.52652,3.979469 -4.95933,6.199166 l -2.05551,-1.174577 c 6.74557,-10.4552 18.24896,-17.536867 31.45257,-18.205955 z m 3.98051,0 c 13.26789,0.629632 24.81379,7.736719 31.5831,18.238579 l -2.0229,1.174577 c -1.43824,-2.23389 -3.09838,-4.338213 -4.99194,-6.23179 l -3.03433,3.001701 c -4.06546,-4.043082 -9.1696,-7.029514 -14.87799,-8.548312 l 1.14195,-4.143655 c -2.55765,-0.685317 -5.17416,-1.073838 -7.79789,-1.207202 z m -1.92501,13.279247 c 1.5897,0 3.15303,0.123429 4.6657,0.391526 l -2.38179,12.952988 c 3.08744,0.544398 5.8806,2.133572 7.89577,4.535172 l 10.08179,-8.450431 c 1.98048,2.349655 3.55973,5.051389 4.63307,7.993648 l -12.3657,4.502548 c 1.07226,2.946008 1.07226,6.189614 0,9.135611 l 12.3657,4.535171 c -1.07552,2.94823 -2.64694,5.640646 -4.63307,7.993651 l -10.08179,-8.483058 c -2.01518,2.401601 -4.80834,4.023408 -7.89577,4.567805 l 2.4144,12.920343 c -1.52346,0.2721 -3.09655,0.42416 -4.69831,0.42416 -1.60175,0 -3.17482,-0.15206 -4.69829,-0.42416 l 2.31652,-12.920343 C 458.18284,97.1286 455.38969,95.506793 453.3745,93.105192 L 443.32535,101.523 c -1.97513,-2.355528 -3.56721,-5.04676 -4.63306,-7.993658 l 12.33307,-4.469914 c -1.07226,-2.945997 -1.07226,-6.189603 0,-9.135611 l -12.33307,-4.469915 c 1.06323,-2.928819 2.6708,-5.617094 4.63306,-7.961033 l 10.04915,8.385183 c 2.0152,-2.4016 4.80834,-3.990774 7.89578,-4.535172 l -2.31652,-12.952988 c 1.5226,-0.271768 3.09752,-0.391526 4.69829,-0.391526 z m -35.43308,8.254678 2.05551,1.174577 c -1.18808,2.328601 -2.15661,4.76349 -2.83857,7.308477 l 4.07842,1.076696 c -0.74518,2.765652 -1.14196,5.677743 -1.14196,8.678829 0,2.953788 0.38671,5.821843 1.10932,8.548312 l -4.04578,1.076696 c 0.6922,2.583219 1.69063,5.04669 2.90383,7.406369 l -2.12077,1.2072 c -2.81798,-5.464918 -4.40466,-11.66519 -4.40466,-18.238577 0,-6.577949 1.583,-12.77089 4.40466,-18.238579 z m 70.86618,0 c 2.82335,5.467689 4.40467,11.66063 4.40467,18.238579 0,6.573387 -1.58499,12.773659 -4.40467,18.238577 l -2.12075,-1.2072 c 1.21319,-2.359688 2.21163,-4.82315 2.9038,-7.406369 l -4.07839,-1.076696 c 0.72263,-2.726469 1.10933,-5.594524 1.10933,-8.548312 0,-3.001086 -0.39678,-5.913177 -1.14196,-8.678829 l 4.11102,-1.076696 c -0.6794,-2.53558 -1.65663,-4.954927 -2.83856,-7.275853 z m -66.85303,38.565296 c 1.42397,2.19679 3.06095,4.26815 4.9267,6.1339 l 2.96907,-2.93644 c 4.05951,4.0595 9.1672,7.08073 14.87798,8.61356 l -1.0767,4.01314 c 2.55764,0.68533 5.17414,1.07385 7.79789,1.20721 v 2.44704 c -13.26209,-0.62935 -24.81639,-7.7437 -31.58308,-18.23858 z m 62.83989,0.0326 2.08815,1.2072 c -6.77048,10.49488 -18.32056,17.60921 -31.5831,18.23857 v -2.44704 c 2.62373,-0.13336 5.24024,-0.52188 7.79789,-1.2072 l -1.07669,-4.0131 c 5.71079,-1.53283 10.81848,-4.55406 14.87798,-8.61357 l 2.96908,2.93645 c 1.85922,-1.85922 3.50612,-3.91321 4.92669,-6.10128 z"
     id="path20898"
     inkscape:connector-curvature="0" />
  <path
     inkscape:connector-curvature="0"
     id="path11396"
     d="m 757.74675,40.21657 c -24.46418,0 -44.30766,19.810848 -44.30766,44.275052 0,24.464208 19.84348,44.307688 44.30766,44.307688 24.46421,0 44.30769,-19.84348 44.30769,-44.307688 0,-24.464204 -19.84348,-44.275052 -44.30769,-44.275052 z m -2.0555,4.502548 c 0.0431,-0.002 0.0874,0.002 0.13051,0 v 2.283898 c -2.62375,0.133364 -5.24025,0.521885 -7.79789,1.207202 l 1.14196,4.143655 c -5.71546,1.520677 -10.81007,4.530259 -14.87798,8.580936 l -3.03433,-3.034325 c -1.88294,1.882946 -3.52652,3.979469 -4.95933,6.199166 l -2.05551,-1.174577 c 6.74557,-10.4552 18.24896,-17.536867 31.45257,-18.205955 z m 3.98051,0 c 13.26789,0.629632 24.81379,7.736719 31.5831,18.238579 l -2.0229,1.174577 c -1.43824,-2.23389 -3.09838,-4.338213 -4.99194,-6.23179 l -3.03433,3.001701 c -4.06546,-4.043082 -9.1696,-7.029514 -14.87799,-8.548312 l 1.14195,-4.143655 c -2.55765,-0.685317 -5.17416,-1.073838 -7.79789,-1.207202 z m -1.92501,13.279247 c 1.5897,0 3.15303,0.123429 4.6657,0.391526 l -2.38179,12.952988 c 3.08744,0.544398 5.8806,2.133572 7.89577,4.535172 l 10.08179,-8.450431 c 1.98048,2.349655 3.55973,5.051389 4.63307,7.993648 l -12.3657,4.502548 c 1.07226,2.946008 1.07226,6.189614 0,9.135611 l 12.3657,4.535171 c -1.07552,2.94823 -2.64694,5.640646 -4.63307,7.993652 l -10.08179,-8.483059 c -2.01518,2.401601 -4.80834,4.023408 -7.89577,4.567805 l 2.4144,12.920344 c -1.52346,0.2721 -3.09655,0.42416 -4.69831,0.42416 -1.60175,0 -3.17482,-0.15206 -4.69829,-0.42416 l 2.31652,-12.920344 c -3.08744,-0.544397 -5.88059,-2.166204 -7.89578,-4.567805 L 737.42005,101.523 c -1.97513,-2.355529 -3.56721,-5.046761 -4.63306,-7.993659 l 12.33307,-4.469914 c -1.07226,-2.945997 -1.07226,-6.189603 0,-9.135611 l -12.33307,-4.469915 c 1.06323,-2.928819 2.6708,-5.617094 4.63306,-7.961033 l 10.04915,8.385183 c 2.0152,-2.4016 4.80834,-3.990774 7.89578,-4.535172 l -2.31652,-12.952988 c 1.5226,-0.271768 3.09752,-0.391526 4.69829,-0.391526 z m -35.43308,8.254678 2.05551,1.174577 c -1.18808,2.328601 -2.15661,4.76349 -2.83857,7.308477 l 4.07842,1.076696 c -0.74518,2.765652 -1.14196,5.677743 -1.14196,8.678829 0,2.953788 0.38671,5.821843 1.10932,8.548312 l -4.04578,1.076696 c 0.6922,2.583219 1.69063,5.04669 2.90383,7.40637 l -2.12077,1.2072 c -2.81798,-5.464919 -4.40466,-11.665191 -4.40466,-18.238578 0,-6.577949 1.583,-12.77089 4.40466,-18.238579 z m 70.86618,0 c 2.82335,5.467689 4.40467,11.66063 4.40467,18.238579 0,6.573387 -1.58499,12.773659 -4.40467,18.238578 l -2.12075,-1.2072 c 1.21319,-2.359689 2.21163,-4.823151 2.9038,-7.40637 l -4.07839,-1.076696 c 0.72263,-2.726469 1.10933,-5.594524 1.10933,-8.548312 0,-3.001086 -0.39678,-5.913177 -1.14196,-8.678829 l 4.11102,-1.076696 c -0.6794,-2.53558 -1.65663,-4.954927 -2.83856,-7.275853 z m -66.85303,38.565297 c 1.42397,2.19679 3.06095,4.26815 4.9267,6.1339 l 2.96907,-2.93644 c 4.05951,4.0595 9.1672,7.08073 14.87798,8.61356 l -1.0767,4.01314 c 2.55764,0.68533 5.17414,1.07385 7.79789,1.20721 v 2.44704 c -13.26209,-0.62935 -24.81639,-7.7437 -31.58308,-18.23858 z m 62.83989,0.0326 2.08815,1.2072 c -6.77048,10.49488 -18.32056,17.60921 -31.5831,18.23857 v -2.44704 c 2.62373,-0.13336 5.24024,-0.52188 7.79789,-1.2072 l -1.07669,-4.0131 c 5.71079,-1.53283 10.81848,-4.55406 14.87798,-8.61357 l 2.96908,2.93645 c 1.85922,-1.85922 3.50612,-3.91321 4.92669,-6.10128 z"
     style="fill:#000000;fill-opacity:1;stroke:none;stroke-width:1.00000083" />
  <path
     sodipodi:nodetypes="ccccccccccccccccccccccccccccccczcczcc"
     inkscape:connector-curvature="0"
     id="path11999"
     d="m 210.29546,233.637 v 10.62994 h 28.34647 V 233.637 l 27.66745,-1e-5 v 10.62994 l 39.65543,1e-5 v 25.11319 h 10.62994 v 31.80121 h -10.62994 v 31.80121 h 10.62993 v 31.8012 h -10.62993 v 31.80121 h 10.62993 v 31.8012 h -10.62993 v 31.80121 h 10.62994 v 31.80121 h -10.62994 v 25.11323 l -39.65543,-10e-6 v 10.62993 l -27.66745,10e-6 v -10.62993 h -28.34647 v 10.62993 h -28.34648 c 2e-5,-22.72165 3.08441,-32.54965 8.41536,-44.29137 5.33097,-11.74173 8.41537,-21.49236 8.41537,-44.29138 V 322.21975 c 0,-22.79902 -3.0844,-32.54965 -8.41537,-44.29138 -5.33095,-11.74172 -8.41534,-21.56972 -8.41536,-44.29137 z"
     style="fill:none;stroke:#000000;stroke-width:1.77165484;stroke-linecap:butt;stroke-linejoin:miter;stroke-miterlimit:4;stroke-dasharray:none;stroke-opacity:1" />
</svg>
