<?xml version="1.0" encoding="UTF-8" standalone="no"?>
<svg
   xmlns:dc="http://purl.org/dc/elements/1.1/"
   xmlns:cc="http://creativecommons.org/ns#"
   xmlns:rdf="http://www.w3.org/1999/02/22-rdf-syntax-ns#"
   xmlns:svg="http://www.w3.org/2000/svg"
   xmlns="http://www.w3.org/2000/svg"
   xmlns:sodipodi="http://sodipodi.sourceforge.net/DTD/sodipodi-0.dtd"
   xmlns:inkscape="http://www.inkscape.org/namespaces/inkscape"
   version="1.1"
   width="282.7mm"
   height="154.7mm"
   viewBox=" 0 0 1001.6937369999999 548.150057"
   id="svg10091"
   sodipodi:docname="pilotbox-inside-rebels.svg"
   inkscape:version="0.92.1 r15371">
  <metadata
     id="metadata10097">
    <rdf:RDF>
      <cc:Work
         rdf:about="">
        <dc:format>image/svg+xml</dc:format>
        <dc:type
           rdf:resource="http://purl.org/dc/dcmitype/StillImage" />
        <dc:title />
      </cc:Work>
    </rdf:RDF>
  </metadata>
  <defs
     id="defs10095" />
  <sodipodi:namedview
     pagecolor="#ffffff"
     bordercolor="#666666"
     borderopacity="1"
     objecttolerance="10"
     gridtolerance="10"
     guidetolerance="10"
     inkscape:pageopacity="0"
     inkscape:pageshadow="2"
     inkscape:window-width="1920"
     inkscape:window-height="1027"
     id="namedview10093"
     showgrid="false"
     inkscape:zoom="1.074431"
     inkscape:cx="395.66708"
     inkscape:cy="309.35705"
     inkscape:window-x="-8"
     inkscape:window-y="-8"
     inkscape:window-maximized="1"
     inkscape:current-layer="svg10091" />
  <!-- Front-->
  <!-- Back-->
  <!-- Left-->
  <!-- Right-->
  <!-- Top-->
  <!-- Bottom-->
  <path
     sodipodi:nodetypes="ccccccccccccccccccccccccccccccccccccccccc"
     inkscape:connector-curvature="0"
     id="polygon10646"
     d="m 316.59475,22.500019 h 294.09473 v 28.34648 h -10.62993 v 28.34648 h 10.62993 v 21.259861 h -10.62993 v 28.34648 h 10.62993 V 157.1458 H 574.37055 V 146.51587 H 538.05162 V 157.1458 H 516.79176 V 146.51587 H 495.53191 V 157.1458 H 474.27205 V 146.51587 H 453.01218 V 157.1458 H 431.75233 V 146.51587 H 410.49246 V 157.1458 H 389.2326 v -10.62993 h -36.31893 v 10.62993 h -36.31892 v -28.34648 h 10.62993 V 100.45284 H 316.59475 V 79.192979 h 10.62993 v -28.34648 h -10.62993 z"
     style="fill:none;stroke:#000000;stroke-width:1.77165484;stroke-miterlimit:4;stroke-dasharray:none;stroke-opacity:1" />
  <g
     style="stroke:#000000;stroke-width:1.77165484;stroke-miterlimit:4;stroke-dasharray:none;stroke-opacity:1"
     id="g10652"
     transform="translate(610.68948,22.500018)">
    <path
       style="fill:none;stroke:#000000;stroke-width:1.77165484;stroke-miterlimit:4;stroke-dasharray:none;stroke-opacity:1"
       d="M 0,0 H 294.09473 V 28.34648 H 283.4648 v 28.34648 h 10.62993 V 77.95282 H 283.4648 v 28.34648 h 10.62993 v 28.34648 H 257.7758 v -10.62993 h -36.31893 v 10.62993 h -21.25986 v -10.62993 h -21.25985 v 10.62993 H 157.6773 v -10.62993 h -21.25987 v 10.62993 H 115.15758 V 124.01585 H 93.897715 v 10.62993 H 72.637855 V 124.01585 H 36.318927 v 10.62993 H 0 V 106.2993 H 10.62993 V 77.95282 H 0 V 56.69296 H 10.62993 V 28.34648 H 0 Z"
       id="polygon10650"
       inkscape:connector-curvature="0"
       sodipodi:nodetypes="ccccccccccccccccccccccccccccccccccccccccc" />
  </g>
  <g
     id="g10730">
    <g
       style="stroke-width:1.77165484;stroke-miterlimit:4;stroke-dasharray:none"
       id="g10089"
       transform="translate(316.59475,157.1458)">
      <path
         inkscape:connector-curvature="0"
         id="polygon10087"
         d="M 10.62993,10.62993 H 36.318927 V 0 h 36.318928 v 10.62993 h 21.25986 V 0 h 21.259865 v 10.62993 h 21.25985 V 0 h 21.25987 v 10.62993 h 21.25986 V 0 h 21.25985 v 10.62993 h 21.25986 V 0 h 36.31893 v 10.62993 h 25.689 v 23.031515 h 10.62993 V 67.32289 H 283.4648 v 21.25986 h 10.62993 v 21.25986 H 283.4648 v 21.25986 h 10.62993 v 21.25986 H 283.4648 v 21.25986 h 10.62993 v 21.25986 H 283.4648 v 21.25986 h 10.62993 v 21.25986 H 283.4648 v 21.25986 h 10.62993 v 21.25986 H 283.4648 v 21.25986 h 10.62993 V 334.8428 H 283.4648 v 23.03151 h -25.689 v 10.62993 h -36.31893 v -10.62993 h -21.25986 v 10.62993 H 178.93716 V 357.87431 H 157.6773 v 10.62993 h -21.25987 v -10.62993 h -21.25985 v 10.62993 H 93.897715 v -10.62993 h -21.25986 v 10.62993 H 36.318927 V 357.87431 H 10.62993 V 334.8428 H 0 V 301.18135 H 10.62993 V 279.92149 H 0 V 258.66163 H 10.62993 V 237.40177 H 0 V 216.14191 H 10.62993 V 194.88205 H 0 V 173.62219 H 10.62993 V 152.36233 H 0 V 131.10247 H 10.62993 V 109.84261 H 0 V 88.58275 H 10.62993 V 67.32289 H 0 V 33.661445 h 10.62993 z"
         style="fill:none;stroke:#000000;stroke-width:1.77165484;stroke-miterlimit:4;stroke-dasharray:none" />
    </g>
    <path
       sodipodi:nodetypes="cccccccccccccccccccc"
       inkscape:connector-curvature="0"
       id="path10692"
       d="m 352.91368,276.43721 v 10.62994 h 31.8012 v -10.62994 z m 63.60241,0 v 10.62993 h 31.8012 v -10.62993 z m 63.60241,0 v 10.62993 h 31.8012 v -10.62993 z m 63.60241,0 v 10.62994 h 31.80121 v -10.62994 z"
       style="fill:none;stroke:#000000;stroke-width:1.77165484;stroke-linecap:butt;stroke-linejoin:miter;stroke-miterlimit:4;stroke-dasharray:none;stroke-opacity:1" />
    <path
       style="fill:none;stroke:#000000;stroke-width:1.77165484;stroke-linecap:butt;stroke-linejoin:miter;stroke-miterlimit:4;stroke-dasharray:none;stroke-opacity:1"
       d="m 352.91368,395.72867 v 10.62994 h 31.8012 v -10.62994 z m 63.60241,0 v 10.62993 h 31.8012 v -10.62993 z m 63.60241,0 v 10.62993 h 31.8012 v -10.62993 z m 63.60241,0 v 10.62994 h 31.80121 v -10.62994 z"
       id="path10694"
       inkscape:connector-curvature="0"
       sodipodi:nodetypes="cccccccccccccccccccc" />
  </g>
  <g
     id="g10742"
     transform="rotate(90,678.01237,224.46869)">
    <g
       transform="translate(610.68948,22.500018)"
       id="g10656"
       style="stroke:#000000;stroke-width:1.77165484;stroke-miterlimit:4;stroke-dasharray:none;stroke-opacity:1">
      <path
         sodipodi:nodetypes="ccccccccccccccccccccccccccccccccccccccccccccccccccccccccc"
         inkscape:connector-curvature="0"
         id="polygon10654"
         d="m 357.87431,0 v 28.34648 h 10.62993 v 28.34648 h -10.62993 v 21.25986 h 10.62993 v 28.34648 h -10.62993 v 28.34648 H 334.8428 v -10.62993 h -33.66145 v 10.62993 h -21.25986 v -10.62993 h -21.25986 v 10.62993 h -21.25986 v -10.62993 h -21.25986 v 10.62993 h -21.25986 v -10.62993 h -21.25986 v 10.62993 h -21.25986 v -10.62993 h -21.25986 v 10.62993 H 109.84261 V 124.01585 H 88.58275 v 10.62993 H 67.32289 V 124.01585 H 33.661445 v 10.62993 H 10.62993 V 106.2993 H 0 V 77.95282 H 10.62993 V 56.69296 H 0 V 28.34648 H 10.62993 V 0 h 108.66151 v 28.346484 h 10.62994 V 0 h 108.66153 v 28.346484 h 10.62994 V 0 Z"
         style="fill:none;stroke:#000000;stroke-width:1.77165484;stroke-miterlimit:4;stroke-dasharray:none;stroke-opacity:1" />
    </g>
    <path
       style="fill:none;stroke:#000000;stroke-width:1.77165484;stroke-linecap:butt;stroke-linejoin:miter;stroke-miterlimit:4;stroke-dasharray:none;stroke-opacity:1"
       d="m 740.61086,79.19298 h -10.62994 l -10e-6,27.66745 h 10.62994 z"
       id="path10708"
       inkscape:connector-curvature="0"
       sodipodi:nodetypes="ccccc" />
    <path
       sodipodi:nodetypes="ccccc"
       inkscape:connector-curvature="0"
       id="path10710"
       d="m 859.90233,79.19298 h -10.62994 l -10e-6,27.66745 h 10.62994 z"
       style="fill:none;stroke:#000000;stroke-width:1.77165484;stroke-linecap:butt;stroke-linejoin:miter;stroke-miterlimit:4;stroke-dasharray:none;stroke-opacity:1" />
  </g>
  <g
     transform="rotate(90,610.68948,157.1458)"
     id="g10752">
    <g
       style="stroke:#000000;stroke-width:1.77165484;stroke-miterlimit:4;stroke-dasharray:none;stroke-opacity:1"
       id="g10746"
       transform="translate(610.68948,22.500018)">
      <path
         style="fill:none;stroke:#000000;stroke-width:1.77165484;stroke-miterlimit:4;stroke-dasharray:none;stroke-opacity:1"
         d="m 357.87431,0 v 28.34648 h 10.62993 v 28.34648 h -10.62993 v 21.25986 h 10.62993 v 28.34648 h -10.62993 v 28.34648 H 334.8428 v -10.62993 h -33.66145 v 10.62993 h -21.25986 v -10.62993 h -21.25986 v 10.62993 h -21.25986 v -10.62993 h -21.25986 v 10.62993 h -21.25986 v -10.62993 h -21.25986 v 10.62993 h -21.25986 v -10.62993 h -21.25986 v 10.62993 H 109.84261 V 124.01585 H 88.58275 v 10.62993 H 67.32289 V 124.01585 H 33.661445 v 10.62993 H 10.62993 V 106.2993 H 0 V 77.95282 H 10.62993 V 56.69296 H 0 V 28.34648 H 10.62993 V 0 h 108.66151 v 28.346484 h 10.62994 V 0 h 108.66153 v 28.346484 h 10.62994 V 0 Z"
         id="path10744"
         inkscape:connector-curvature="0"
         sodipodi:nodetypes="ccccccccccccccccccccccccccccccccccccccccccccccccccccccccc" />
    </g>
    <path
       sodipodi:nodetypes="ccccc"
       inkscape:connector-curvature="0"
       id="path10748"
       d="m 740.61086,79.19298 h -10.62994 l -10e-6,27.66745 h 10.62994 z"
       style="fill:none;stroke:#000000;stroke-width:1.77165484;stroke-linecap:butt;stroke-linejoin:miter;stroke-miterlimit:4;stroke-dasharray:none;stroke-opacity:1" />
    <path
       style="fill:none;stroke:#000000;stroke-width:1.77165484;stroke-linecap:butt;stroke-linejoin:miter;stroke-miterlimit:4;stroke-dasharray:none;stroke-opacity:1"
       d="m 859.90233,79.19298 h -10.62994 l -10e-6,27.66745 h 10.62994 z"
       id="path10750"
       inkscape:connector-curvature="0"
       sodipodi:nodetypes="ccccc" />
  </g>
  <g
     id="g10099"
     transform="matrix(0.28349647,0,0,0.28349647,418.04076,39.299402)"
     style="stroke-width:0.9508152">
    <path
       id="path10097"
       d="M 7.9146667,155.7184 C 9.7973333,105.80587 35.092267,59.770667 81.333333,29.3504 c 0.136534,0.0512 1.3344,-0.385067 0.7872,0.650667 -3.662933,3.396266 -69.5168,81.188263 -8.900266,142.592003 0,0 31.848533,30.6176 56.545063,1.56586 0,0 24.37014,-31.5488 -0.30826,-79.373863 0,0 -6.2464,-15.616 -28.752,-25.3024 L 118.82987,49.4848 c 0,0 15.31626,6.571733 27.17653,24.395733 0,0 0.63253,-18.765866 -13.74293,-38.762666 L 160.3648,3.2352 188.18347,34.818133 c 0,0 -12.79254,18.123734 -13.7344,39.362134 0,0 8.73706,-14.375467 27.4944,-24.6944 l 17.7984,19.997866 c 0,0 -17.11467,5.639467 -28.58027,25.0976 -9.85813,18.028797 -17.44747,56.586667 0.44373,80.237867 0,0 20.02347,28.39253 55.2448,-1.67573 0,0 64.75947,-58.0256 -6.64106,-141.91787 0,0 -3.90187,-3.448533 0.47893,-1.5744 31.5584,22.976 69.34613,53.275733 73.248,128.8928 -1.54027,91.69707 -62.94613,157.15627 -152.61227,157.15627 C 73.5296,315.6992 5.28,242.4352 7.9146667,155.7184"
       inkscape:connector-curvature="0"
       style="stroke-width:1.01420295" />
  </g>
  <g
     style="stroke-width:0.9508152"
     transform="matrix(0.28349647,0,0,0.28349647,712.13546,39.299402)"
     id="g11394">
    <path
       style="stroke-width:1.01420295"
       inkscape:connector-curvature="0"
       d="M 7.9146667,155.7184 C 9.7973333,105.80587 35.092267,59.770667 81.333333,29.3504 c 0.136534,0.0512 1.3344,-0.385067 0.7872,0.650667 -3.662933,3.396266 -69.5168,81.188263 -8.900266,142.592003 0,0 31.848533,30.6176 56.545063,1.56586 0,0 24.37014,-31.5488 -0.30826,-79.373863 0,0 -6.2464,-15.616 -28.752,-25.3024 L 118.82987,49.4848 c 0,0 15.31626,6.571733 27.17653,24.395733 0,0 0.63253,-18.765866 -13.74293,-38.762666 L 160.3648,3.2352 188.18347,34.818133 c 0,0 -12.79254,18.123734 -13.7344,39.362134 0,0 8.73706,-14.375467 27.4944,-24.6944 l 17.7984,19.997866 c 0,0 -17.11467,5.639467 -28.58027,25.0976 -9.85813,18.028797 -17.44747,56.586667 0.44373,80.237867 0,0 20.02347,28.39253 55.2448,-1.67573 0,0 64.75947,-58.0256 -6.64106,-141.91787 0,0 -3.90187,-3.448533 0.47893,-1.5744 31.5584,22.976 69.34613,53.275733 73.248,128.8928 -1.54027,91.69707 -62.94613,157.15627 -152.61227,157.15627 C 73.5296,315.6992 5.28,242.4352 7.9146667,155.7184"
       id="path11392" />
  </g>
  <path
     style="fill:none;stroke:#000000;stroke-width:1.77165496;stroke-linecap:butt;stroke-linejoin:miter;stroke-miterlimit:4;stroke-dasharray:none;stroke-opacity:1"
     d="m 153.6025,233.637 v 10.62994 H 125.25603 V 233.637 l -27.667448,-1e-5 v 10.62994 l -39.655431,1e-5 v 25.1132 H 47.30321 v 31.80121 h 10.629941 v 31.80121 H 47.30322 v 31.8012 h 10.629931 v 31.80122 H 47.30322 v 31.8012 h 10.629931 v 31.80121 H 47.30321 v 31.80121 h 10.629941 v 25.11323 l 39.655431,-10e-6 v 10.62993 l 27.667448,10e-6 v -10.62993 h 28.34647 v 10.62993 h 28.34648 c -2e-5,-22.72165 -3.08441,-32.54965 -8.41535,-44.29137 -5.33098,-11.74173 -8.41538,-21.49236 -8.41538,-44.29139 V 322.21976 c 0,-22.79902 3.0844,-32.54965 8.41538,-44.29138 5.33094,-11.74172 8.41533,-21.56972 8.41535,-44.29138 z"
     id="path10674-1"
     inkscape:connector-curvature="0"
     sodipodi:nodetypes="ccccccccccccccccccccccccccccccczcczcc" />
  <path
     sodipodi:nodetypes="ccccccccccccccccccccccccccccccczcczcc"
     inkscape:connector-curvature="0"
     id="path11999"
     d="m 210.29547,233.637 v 10.62994 h 28.34647 V 233.637 l 27.66745,-1e-5 v 10.62994 l 39.65543,1e-5 v 25.1132 h 10.62993 v 31.80121 h -10.62993 v 31.80121 h 10.62993 v 31.8012 h -10.62993 v 31.80122 h 10.62993 v 31.8012 h -10.62993 v 31.80121 h 10.62993 v 31.80121 h -10.62993 v 25.11323 l -39.65543,-10e-6 v 10.62993 l -27.66745,10e-6 v -10.62993 h -28.34647 v 10.62993 h -28.34649 c 2e-5,-22.72165 3.08442,-32.54965 8.41536,-44.29137 5.33097,-11.74173 8.41537,-21.49236 8.41537,-44.29139 V 322.21976 c 0,-22.79902 -3.0844,-32.54965 -8.41537,-44.29138 -5.33094,-11.74172 -8.41534,-21.56972 -8.41536,-44.29138 z"
     style="fill:none;stroke:#000000;stroke-width:1.77165496;stroke-linecap:butt;stroke-linejoin:miter;stroke-miterlimit:4;stroke-dasharray:none;stroke-opacity:1" />
</svg>
