<?xml version="1.0" encoding="UTF-8" standalone="no"?>
<svg
   xmlns:dc="http://purl.org/dc/elements/1.1/"
   xmlns:cc="http://creativecommons.org/ns#"
   xmlns:rdf="http://www.w3.org/1999/02/22-rdf-syntax-ns#"
   xmlns:svg="http://www.w3.org/2000/svg"
   xmlns="http://www.w3.org/2000/svg"
   xmlns:sodipodi="http://sodipodi.sourceforge.net/DTD/sodipodi-0.dtd"
   xmlns:inkscape="http://www.inkscape.org/namespaces/inkscape"
   version="1.1"
   width="512.7mm"
   height="392.7mm"
   viewBox=" 0 0 1816.6550370000002 1391.457837"
   id="svg3017"
   inkscape:version="0.92.1 r15371"
   sodipodi:docname="pilotscase-rebels.svg">
  <path
     style="fill:none;stroke:#000000;stroke-width:1.00000012px;stroke-linecap:square;stroke-linejoin:miter;stroke-opacity:1"
     d="m 742.29738,76.6001 c 10.63206,0 11.41393,8.02121 11.41393,11.41394 0,3.39273 -0.0581,11.41394 11.41394,11.41394 l 995.07725,0 c 11.472,0 11.414,-8.02121 11.414,-11.41394 0,-3.39273 0.7818,-11.41394 11.4139,-11.41394"
     id="path7056"
     inkscape:connector-curvature="0"
     sodipodi:nodetypes="czcczc" />
  <path
     style="fill:none;stroke:#000000;stroke-width:1.00000012px;stroke-linecap:square;stroke-linejoin:miter;stroke-opacity:1"
     d="m 731.10941,76.599664 -11.07733,0 c -10.63206,0 -11.41393,8.02121 -11.41393,11.41394 0,3.39273 0.0582,11.41394 -11.41394,11.41394 l -286.41539,0 c -11.47214,0 -11.41394,-8.02121 -11.41394,-11.41394 0,-3.39273 -0.78187,-11.41394 -11.41393,-11.41394 l -11.08081,0"
     id="path7006"
     inkscape:connector-curvature="0"
     sodipodi:nodetypes="czcczcsc" />
  <path
     sodipodi:nodetypes="czcczcsc"
     inkscape:connector-curvature="0"
     id="path7028"
     d="m 376.87453,360.06461 11.08642,0 c 10.63206,0 11.41393,8.02121 11.41393,11.41394 0,3.39273 -0.0582,11.41394 11.41394,11.41394 l 286.41539,0 c 11.47214,0 11.41394,-8.02121 11.41394,-11.41394 0,-3.39273 0.78187,-11.41394 11.41393,-11.41394 l 11.07711,0"
     style="fill:none;stroke:#000000;stroke-width:1.00000012px;stroke-linecap:square;stroke-linejoin:miter;stroke-opacity:1" />
  <path
     sodipodi:nodetypes="czcczc"
     inkscape:connector-curvature="0"
     id="path7088"
     d="m 742.29738,360.0649 c 10.63206,0 11.41393,8.02121 11.41393,11.41394 0,3.39273 -0.0581,11.41394 11.41394,11.41394 l 995.07725,0 c 11.472,0 11.414,-8.02121 11.414,-11.41394 0,-3.39273 0.7818,-11.41394 11.4139,-11.41394"
     style="fill:none;stroke:#000000;stroke-width:1.00000012px;stroke-linecap:square;stroke-linejoin:miter;stroke-opacity:1" />
  <metadata
     id="metadata3047">
    <rdf:RDF>
      <cc:Work
         rdf:about="">
        <dc:format>image/svg+xml</dc:format>
        <dc:type
           rdf:resource="http://purl.org/dc/dcmitype/StillImage" />
        <dc:title />
      </cc:Work>
    </rdf:RDF>
  </metadata>
  <defs
     id="defs3045" />
  <sodipodi:namedview
     pagecolor="#ffffff"
     bordercolor="#666666"
     borderopacity="1"
     objecttolerance="10"
     gridtolerance="10"
     guidetolerance="10"
     inkscape:pageopacity="0"
     inkscape:pageshadow="2"
     inkscape:window-width="1920"
     inkscape:window-height="1027"
     id="namedview3043"
     showgrid="false"
     inkscape:zoom="0.70710678"
     inkscape:cx="1462.0851"
     inkscape:cy="1059.0582"
     inkscape:window-x="-8"
     inkscape:window-y="-8"
     inkscape:window-maximized="1"
     inkscape:current-layer="svg3017" />
  <!-- Front-->
  <g
     transform="translate(376.82844,305.96496)"
     id="g3019">
    <polygon
       style="fill:none;stroke:#000000;stroke-width:0.90000075"
       points="343.70107,222.3427 354.331,222.3427 354.331,283.4648 294.98056,283.4648 294.98056,272.83487 235.63011,272.83487 235.63011,283.4648 196.65371,283.4648 196.65371,272.83487 157.6773,272.83487 157.6773,283.4648 118.70088,283.4648 118.70088,272.83487 59.350442,272.83487 59.350442,283.4648 0,283.4648 0,222.3427 10.62993,222.3427 10.62993,161.22061 0,161.22061 0,122.2442 10.62993,122.2442 10.62993,61.122098 0,61.122098 0,0 59.350442,0 59.350442,10.62993 118.70088,10.62993 118.70088,0 157.6773,0 157.6773,10.62993 196.65371,10.62993 196.65371,0 235.63011,0 235.63011,10.62993 294.98056,10.62993 294.98056,0 354.331,0 354.331,61.122098 343.70107,61.122098 343.70107,122.2442 354.331,122.2442 354.331,161.22061 343.70107,161.22061 "
       id="polygon3021" />
  </g>
  <!-- Back-->
  <g
     transform="translate(376.83101849999997, 22.5000185) "
     id="g3023">
    <polygon
       style="stroke:#000000; fill:none; stroke-width:0.90000074"
       points="0, 0 59.3504425, 0 59.3504425, 10.62993 118.700885, 10.62993 118.700885, 0 157.67729500000002, 0 157.67729500000002, 10.62993 196.653705, 10.62993 196.653705, 0 235.630115, 0 235.630115, 10.62993 294.98055750000003, 10.62993 294.98055750000003, 0 354.331, 0 354.331, 61.1220975 343.70107, 61.1220975 343.70107, 122.244195 354.331, 122.244195 354.331, 161.220605 343.70107, 161.220605 343.70107, 222.34270250000003 354.331, 222.34270250000003 354.331, 283.46479999999997 294.98055750000003, 283.46479999999997 294.98055750000003, 272.83486999999997 235.630115, 272.83486999999997 235.630115, 283.46479999999997 196.653705, 283.46479999999997 196.653705, 272.83486999999997 157.67729500000002, 272.83486999999997 157.67729500000002, 283.46479999999997 118.700885, 283.46479999999997 118.700885, 272.83486999999997 59.3504425, 272.83486999999997 59.3504425, 283.46479999999997 0, 283.4648 0, 222.34270250000003 10.62993, 222.34270250000003 10.62993, 161.220605 0, 161.220605 0, 122.244195 10.62993, 122.244195 10.62993, 61.1220975 0, 61.1220975 "
       id="polygon3025" />
  </g>
  <!-- Left-->
  <g
     transform="translate(731.16741,22.500018)"
     id="g3027">
    <polygon
       style="fill:none;stroke:#000000;stroke-width:0.90000075"
       points="512.00829,10.62993 512.00829,0 550.98471,0 550.98471,10.62993 589.96112,10.62993 589.96112,0 628.93753,0 628.93753,10.62993 667.91394,10.62993 667.91394,0 706.89035,0 706.89035,10.62993 745.86676,10.62993 745.86676,0 784.84316,0 784.84316,10.62993 823.81957,10.62993 823.81957,0 862.79598,0 862.79598,10.62993 901.77239,10.62993 901.77239,0 940.74881,0 940.74881,10.62993 1001.8709,10.62993 1001.8709,0 1052.3631,0 1052.3631,61.122098 1062.993,61.122098 1062.993,122.2442 1052.3631,122.2442 1052.3631,161.22061 1062.993,161.22061 1062.993,222.3427 1052.3631,222.3427 1052.3631,283.4648 1001.8709,283.4648 1001.8709,272.83487 940.74881,272.83487 940.74881,283.4648 901.77239,283.4648 901.77239,272.83487 862.79598,272.83487 862.79598,283.4648 823.81957,283.4648 823.81957,272.83487 784.84316,272.83487 784.84316,283.4648 745.86676,283.4648 745.86676,272.83487 706.89035,272.83487 706.89035,283.4648 667.91394,283.4648 667.91394,272.83487 628.93753,272.83487 628.93753,283.4648 589.96112,283.4648 589.96112,272.83487 550.98471,272.83487 550.98471,283.4648 512.00829,283.4648 512.00829,272.83487 473.03188,272.83487 473.03188,283.4648 434.05548,283.4648 434.05548,272.83487 395.07907,272.83487 395.07907,283.4648 356.10266,283.4648 356.10266,272.83487 317.12624,272.83487 317.12624,283.4648 278.14983,283.4648 278.14983,272.83487 239.17343,272.83487 239.17343,283.4648 200.19702,283.4648 200.19702,272.83487 161.22061,272.83487 161.22061,283.4648 122.2442,283.4648 122.2442,272.83487 61.122098,272.83487 61.122098,283.4648 10.62993,283.4648 10.62993,222.3427 0,222.3427 0,161.22061 10.62993,161.22061 10.62993,122.2442 0,122.2442 0,61.122098 10.62993,61.122098 10.62993,0 61.122098,0 61.122098,10.62993 122.2442,10.62993 122.2442,0 161.22061,0 161.22061,10.62993 200.19702,10.62993 200.19702,0 239.17343,0 239.17343,10.62993 278.14983,10.62993 278.14983,0 317.12624,0 317.12624,10.62993 356.10266,10.62993 356.10266,0 395.07907,0 395.07907,10.62993 434.05548,10.62993 434.05548,0 473.03188,0 473.03188,10.62993 "
       id="polygon3029" />
  </g>
  <!-- Right-->
  <g
     transform="translate(731.16741,305.96482)"
     id="g3031">
    <polygon
       style="fill:none;stroke:#000000;stroke-width:0.90000075"
       points="512.00829,10.62993 512.00829,0 550.98471,0 550.98471,10.62993 589.96112,10.62993 589.96112,0 628.93753,0 628.93753,10.62993 667.91394,10.62993 667.91394,0 706.89035,0 706.89035,10.62993 745.86676,10.62993 745.86676,0 784.84316,0 784.84316,10.62993 823.81957,10.62993 823.81957,0 862.79598,0 862.79598,10.62993 901.77239,10.62993 901.77239,0 940.74881,0 940.74881,10.62993 1001.8709,10.62993 1001.8709,0 1052.3631,0 1052.3631,61.122098 1062.993,61.122098 1062.993,122.2442 1052.3631,122.2442 1052.3631,161.22061 1062.993,161.22061 1062.993,222.3427 1052.3631,222.3427 1052.3631,283.4648 1001.8709,283.4648 1001.8709,272.83487 940.74881,272.83487 940.74881,283.4648 901.77239,283.4648 901.77239,272.83487 862.79598,272.83487 862.79598,283.4648 823.81957,283.4648 823.81957,272.83487 784.84316,272.83487 784.84316,283.4648 745.86676,283.4648 745.86676,272.83487 706.89035,272.83487 706.89035,283.4648 667.91394,283.4648 667.91394,272.83487 628.93753,272.83487 628.93753,283.4648 589.96112,283.4648 589.96112,272.83487 550.98471,272.83487 550.98471,283.4648 512.00829,283.4648 512.00829,272.83487 473.03188,272.83487 473.03188,283.4648 434.05548,283.4648 434.05548,272.83487 395.07907,272.83487 395.07907,283.4648 356.10266,283.4648 356.10266,272.83487 317.12624,272.83487 317.12624,283.4648 278.14983,283.4648 278.14983,272.83487 239.17343,272.83487 239.17343,283.4648 200.19702,283.4648 200.19702,272.83487 161.22061,272.83487 161.22061,283.4648 122.2442,283.4648 122.2442,272.83487 61.122098,272.83487 61.122098,283.4648 10.62993,283.4648 10.62993,222.3427 0,222.3427 0,161.22061 10.62993,161.22061 10.62993,122.2442 0,122.2442 0,61.122098 10.62993,61.122098 10.62993,0 61.122098,0 61.122098,10.62993 122.2442,10.62993 122.2442,0 161.22061,0 161.22061,10.62993 200.19702,10.62993 200.19702,0 239.17343,0 239.17343,10.62993 278.14983,10.62993 278.14983,0 317.12624,0 317.12624,10.62993 356.10266,10.62993 356.10266,0 395.07907,0 395.07907,10.62993 434.05548,10.62993 434.05548,0 473.03188,0 473.03188,10.62993 "
       id="polygon3033" />
  </g>
  <!-- Top-->
  <g
     transform="matrix(0,1,-1,0,1794.1601,943.75662)"
     id="g3035">
    <polygon
       style="fill:none;stroke:#000000;stroke-width:0.90000075"
       points="0,589.96112 0,550.98471 10.62993,550.98471 10.62993,512.00829 0,512.00829 0,473.03188 10.62993,473.03188 10.62993,434.05548 0,434.05548 0,395.07907 10.62993,395.07907 10.62993,356.10266 0,356.10266 0,317.12624 10.62993,317.12624 10.62993,278.14983 0,278.14983 0,239.17343 10.62993,239.17343 10.62993,200.19702 0,200.19702 0,161.22061 10.62993,161.22061 10.62993,122.2442 0,122.2442 0,61.122098 10.62993,61.122098 10.62993,10.62993 59.350442,10.62993 59.350442,0 118.70088,0 118.70088,10.62993 157.6773,10.62993 157.6773,0 196.65371,0 196.65371,10.62993 235.63011,10.62993 235.63011,0 294.98056,0 294.98056,10.62993 343.70107,10.62993 343.70107,61.122098 354.331,61.122098 354.331,122.2442 343.70107,122.2442 343.70107,161.22061 354.331,161.22061 354.331,200.19702 343.70107,200.19702 343.70107,239.17343 354.331,239.17343 354.331,278.14983 343.70107,278.14983 343.70107,317.12624 354.331,317.12624 354.331,356.10266 343.70107,356.10266 343.70107,395.07907 354.331,395.07907 354.331,434.05548 343.70107,434.05548 343.70107,473.03188 354.331,473.03188 354.331,512.00829 343.70107,512.00829 343.70107,550.98471 354.331,550.98471 354.331,589.96112 343.70107,589.96112 343.70107,628.93753 354.331,628.93753 354.331,667.91394 343.70107,667.91394 343.70107,706.89035 354.331,706.89035 354.331,745.86676 343.70107,745.86676 343.70107,784.84316 354.331,784.84316 354.331,823.81957 343.70107,823.81957 343.70107,862.79598 354.331,862.79598 354.331,901.77239 343.70107,901.77239 343.70107,940.74881 354.331,940.74881 354.331,1001.8709 343.70107,1001.8709 343.70107,1052.3631 294.98056,1052.3631 294.98056,1062.993 235.63011,1062.993 235.63011,1052.3631 196.65371,1052.3631 196.65371,1062.993 157.6773,1062.993 157.6773,1052.3631 118.70088,1052.3631 118.70088,1062.993 59.350442,1062.993 59.350442,1052.3631 10.62993,1052.3631 10.62993,1001.8709 0,1001.8709 0,940.74881 10.62993,940.74881 10.62993,901.77239 0,901.77239 0,862.79598 10.62993,862.79598 10.62993,823.81957 0,823.81957 0,784.84316 10.62993,784.84316 10.62993,745.86676 0,745.86676 0,706.89035 10.62993,706.89035 10.62993,667.91394 0,667.91394 0,628.93753 10.62993,628.93753 10.62993,589.96112 "
       id="polygon3037" />
  </g>
  <!-- Bottom-->
  <g
     transform="matrix(0,-1,1,0,731.16741,943.75803)"
     id="g3039">
    <polygon
       style="fill:none;stroke:#000000;stroke-width:0.90000075"
       points="354.331,784.84316 354.331,823.81957 343.70107,823.81957 343.70107,862.79598 354.331,862.79598 354.331,901.77239 343.70107,901.77239 343.70107,940.74881 354.331,940.74881 354.331,1001.8709 343.70107,1001.8709 343.70107,1052.3631 294.98056,1052.3631 294.98056,1062.993 235.63011,1062.993 235.63011,1052.3631 196.65371,1052.3631 196.65371,1062.993 157.6773,1062.993 157.6773,1052.3631 118.70088,1052.3631 118.70088,1062.993 59.350442,1062.993 59.350442,1052.3631 10.62993,1052.3631 10.62993,1001.8709 0,1001.8709 0,940.74881 10.62993,940.74881 10.62993,901.77239 0,901.77239 0,862.79598 10.62993,862.79598 10.62993,823.81957 0,823.81957 0,784.84316 10.62993,784.84316 10.62993,745.86676 0,745.86676 0,706.89035 10.62993,706.89035 10.62993,667.91394 0,667.91394 0,628.93753 10.62993,628.93753 10.62993,589.96112 0,589.96112 0,550.98471 10.62993,550.98471 10.62993,512.00829 0,512.00829 0,473.03188 10.62993,473.03188 10.62993,434.05548 0,434.05548 0,395.07907 10.62993,395.07907 10.62993,356.10266 0,356.10266 0,317.12624 10.62993,317.12624 10.62993,278.14983 0,278.14983 0,239.17343 10.62993,239.17343 10.62993,200.19702 0,200.19702 0,161.22061 10.62993,161.22061 10.62993,122.2442 0,122.2442 0,61.122098 10.62993,61.122098 10.62993,10.62993 59.350442,10.62993 59.350442,0 118.70088,0 118.70088,10.62993 157.6773,10.62993 157.6773,0 196.65371,0 196.65371,10.62993 235.63011,10.62993 235.63011,0 294.98056,0 294.98056,10.62993 343.70107,10.62993 343.70107,61.122098 354.331,61.122098 354.331,122.2442 343.70107,122.2442 343.70107,161.22061 354.331,161.22061 354.331,200.19702 343.70107,200.19702 343.70107,239.17343 354.331,239.17343 354.331,278.14983 343.70107,278.14983 343.70107,317.12624 354.331,317.12624 354.331,356.10266 343.70107,356.10266 343.70107,395.07907 354.331,395.07907 354.331,434.05548 343.70107,434.05548 343.70107,473.03188 354.331,473.03188 354.331,512.00829 343.70107,512.00829 343.70107,550.98471 354.331,550.98471 354.331,589.96112 343.70107,589.96112 343.70107,628.93753 354.331,628.93753 354.331,667.91394 343.70107,667.91394 343.70107,706.89035 354.331,706.89035 354.331,745.86676 343.70107,745.86676 343.70107,784.84316 "
       id="polygon3041" />
  </g>
  <text
     xml:space="preserve"
     style="font-style:normal;font-variant:normal;font-weight:bold;font-stretch:normal;line-height:0%;font-family:'BankGothic Md BT';-inkscape-font-specification:'BankGothic Md BT Bold';text-align:start;letter-spacing:0px;word-spacing:0px;writing-mode:lr-tb;text-anchor:start;fill:#000000;fill-opacity:1;stroke:none"
     x="528.91589"
     y="195.73926"
     id="text3049"><tspan
       sodipodi:role="line"
       id="tspan3051"
       x="528.91589"
       y="195.73926"
       style="font-size:12px;line-height:1.25">FRONT</tspan></text>
  <text
     xml:space="preserve"
     style="font-style:normal;font-variant:normal;font-weight:bold;font-stretch:normal;line-height:0%;font-family:'BankGothic Md BT';-inkscape-font-specification:'BankGothic Md BT Bold';text-align:start;letter-spacing:0px;word-spacing:0px;writing-mode:lr-tb;text-anchor:start;fill:#000000;fill-opacity:1;stroke:none"
     x="530.68365"
     y="413.88165"
     id="text3053"><tspan
       sodipodi:role="line"
       id="tspan3055"
       x="530.68365"
       y="413.88165"
       style="font-size:12px;line-height:1.25">BACK</tspan></text>
  <text
     xml:space="preserve"
     style="font-style:normal;font-variant:normal;font-weight:bold;font-stretch:normal;line-height:0%;font-family:'BankGothic Md BT';-inkscape-font-specification:'BankGothic Md BT Bold';text-align:start;letter-spacing:0px;word-spacing:0px;writing-mode:lr-tb;text-anchor:start;fill:#000000;fill-opacity:1;stroke:none"
     x="941.15887"
     y="184.16039"
     id="text3057"><tspan
       sodipodi:role="line"
       id="tspan3059"
       x="941.15887"
       y="184.16039"
       style="font-size:12px;line-height:1.25">LEFT</tspan></text>
  <text
     xml:space="preserve"
     style="font-style:normal;font-variant:normal;font-weight:bold;font-stretch:normal;line-height:0%;font-family:'BankGothic Md BT';-inkscape-font-specification:'BankGothic Md BT Bold';text-align:start;letter-spacing:0px;word-spacing:0px;writing-mode:lr-tb;text-anchor:start;fill:#000000;fill-opacity:1;stroke:none"
     x="907.70203"
     y="452.7178"
     id="text3061"><tspan
       sodipodi:role="line"
       id="tspan3063"
       x="907.70203"
       y="452.7178"
       style="font-size:12px;line-height:1.25">RIGHT</tspan></text>
  <text
     xml:space="preserve"
     style="font-style:normal;font-variant:normal;font-weight:bold;font-stretch:normal;line-height:0%;font-family:'BankGothic Md BT';-inkscape-font-specification:'BankGothic Md BT Bold';text-align:start;letter-spacing:0px;word-spacing:0px;writing-mode:lr-tb;text-anchor:start;fill:#000000;fill-opacity:1;stroke:none"
     x="1015.4053"
     y="1093.0577"
     id="text3069"
     transform="translate(0,-3.8999675e-5)"><tspan
       sodipodi:role="line"
       id="tspan3071"
       x="1015.4053"
       y="1093.0577"
       style="font-size:12px;line-height:1.25">BOTTOM</tspan></text>
  <g
     id="g7098"
     transform="translate(376.83102,22.500018)">
    <polygon
       id="polygon7100"
       points="118.70088,0 157.6773,0 157.6773,10.62993 196.65371,10.62993 196.65371,0 235.63011,0 235.63011,10.62993 294.98056,10.62993 294.98056,0 354.331,0 354.331,61.122098 343.70107,61.122098 343.70107,122.2442 354.331,122.2442 354.331,161.22061 343.70107,161.22061 343.70107,222.3427 354.331,222.3427 354.331,283.4648 294.98056,283.4648 294.98056,272.83487 235.63011,272.83487 235.63011,283.4648 196.65371,283.4648 196.65371,272.83487 157.6773,272.83487 157.6773,283.4648 118.70088,283.4648 118.70088,272.83487 59.350442,272.83487 59.350442,283.4648 0,283.4648 0,222.3427 10.62993,222.3427 10.62993,161.22061 0,161.22061 0,122.2442 10.62993,122.2442 10.62993,61.122098 0,61.122098 0,0 59.350442,0 59.350442,10.62993 118.70088,10.62993 "
       style="fill:none;stroke:#000000;stroke-width:0.90000075" />
  </g>
  <g
     aria-label="Pilotes Rebelles"
     style="font-style:normal;font-variant:normal;font-weight:bold;font-stretch:normal;line-height:0%;font-family:'BankGothic Md BT';-inkscape-font-specification:'BankGothic Md BT Bold';text-align:center;letter-spacing:0px;word-spacing:0px;writing-mode:lr-tb;text-anchor:middle;fill:#000000;fill-opacity:1;stroke:none"
     id="text3065">
    <path
       d="m 1399.4149,728.7225 h -12.9609 v 6.56251 h 12.9609 q 1.5,0 2.0391,-0.42187 0.5625,-0.44532 0.5625,-1.54688 v -2.64844 q 0,-1.07813 -0.5625,-1.50001 -0.5391,-0.44531 -2.0391,-0.44531 z m -18.6328,20.48441 v -24.77348 h 21.1875 q 2.9531,0 4.2656,1.14844 1.336,1.125 1.336,3.65626 v 5.53126 q 0,2.50781 -1.336,3.65625 -1.3125,1.125 -4.2656,1.125 h -15.5156 v 9.65627 z"
       style="font-size:48.00007629px;line-height:1.25"
       id="path5283" />
    <path
       d="M 1414.6962,749.20691 V 728.91 h 4.9219 v 20.29691 z"
       style="font-size:48.00007629px;line-height:1.25"
       id="path5285" />
    <path
       d="M 1428.665,749.20691 V 728.91 h 4.9922 v 16.50003 h 15.9141 v 3.79688 z"
       style="font-size:48.00007629px;line-height:1.25"
       id="path5287" />
    <path
       d="m 1459.6494,745.31628 h 16.3594 v -12.67971 h -16.3594 z m -4.9453,-11.62502 q 0,-2.76563 1.0781,-3.77344 1.0781,-1.00782 4.1953,-1.00782 h 15.7032 q 3.1406,0 4.1953,1.00782 1.0781,1.00781 1.0781,3.77344 v 10.71095 q 0,2.78907 -1.1016,3.79689 -1.0781,1.00781 -4.1718,1.00781 h -15.7032 q -3.1172,0 -4.1953,-1.00781 -1.0781,-1.00782 -1.0781,-3.79689 z"
       style="font-size:48.00007629px;line-height:1.25"
       id="path5289" />
    <path
       d="m 1501.6026,732.54282 v 16.66409 h -4.9453 v -16.66409 h -9.7969 V 728.91 h 24.5625 v 3.63282 z"
       style="font-size:48.00007629px;line-height:1.25"
       id="path5291" />
    <path
       d="M 1517.8214,749.20691 V 728.91 h 21.7734 v 3.58595 h -16.7813 v 4.42969 h 9.7735 v 3.49219 h -9.7735 v 4.9922 h 17.0391 v 3.79688 z"
       style="font-size:48.00007629px;line-height:1.25"
       id="path5293" />
    <path
       d="m 1565.7277,732.54282 h -13.9688 v 4.28907 h 13.2188 q 3.1172,0 4.1953,1.00781 1.0781,0.98438 1.0781,3.77345 v 2.78906 q 0,2.78907 -1.1015,3.79689 -1.1016,1.00781 -4.1719,1.00781 h -13.1719 q -3.1407,0 -4.2657,-1.00781 -1.1015,-1.00782 -1.1015,-3.79689 v -0.5625 l 4.4062,-0.82031 v 2.39063 h 14.9298 v -4.64063 h -13.1485 q -3.1172,0 -4.2188,-1.00782 -1.1015,-1.03125 -1.1015,-3.79688 v -2.27344 q 0,-2.74219 1.1015,-3.75001 1.1016,-1.03125 4.2188,-1.03125 h 12.0469 q 3.0703,0 4.1953,0.98438 1.1484,0.96094 1.1484,3.42188 v 0.49219 l -4.289,0.91406 z"
       style="font-size:48.00007629px;line-height:1.25"
       id="path5295" />
    <path
       d="m 1378.5086,788.7226 h -12.9609 v 6.89063 h 12.9609 q 1.5,0 2.0391,-0.42187 0.5625,-0.44532 0.5625,-1.54688 v -2.97657 q 0,-1.07812 -0.5625,-1.5 -0.5391,-0.44531 -2.0391,-0.44531 z m -18.6328,20.4844 v -24.77347 h 21.1875 q 2.9532,0 4.2657,1.14844 1.3359,1.125 1.3359,3.65625 v 5.81251 q 0,2.50782 -1.3359,3.65626 -1.3125,1.14844 -4.2657,1.14844 h -3.2344 l 11.4376,9.35157 h -8.2735 l -9.9844,-9.35157 h -5.4609 v 9.35157 z"
       style="font-size:48.00007629px;line-height:1.25"
       id="path5297" />
    <path
       d="m 1395.7587,809.207 v -20.2969 h 21.7734 v 3.58594 h -16.7812 v 4.4297 h 9.7734 v 3.49219 h -9.7734 v 4.99219 h 17.0391 v 3.79688 z"
       style="font-size:48.00007629px;line-height:1.25"
       id="path5299" />
    <path
       d="m 1424.915,809.207 v -20.2969 h 18.2344 q 2.5547,0 3.6797,0.9375 1.125,0.91406 1.125,3 v 2.43751 q 0,1.38281 -0.8907,2.27344 -0.8906,0.89062 -2.5781,1.19531 1.7109,0.28125 2.6484,1.31251 0.961,1.00781 0.961,2.55469 v 2.60156 q 0,1.99219 -1.5703,3.00001 -1.5703,0.98437 -4.7344,0.98437 z m 15.9609,-16.99221 H 1429.79 v 4.8047 h 11.0859 q 1.2891,0 1.7578,-0.32813 0.4688,-0.32813 0.4688,-1.125 v -1.92188 q 0,-0.79688 -0.4688,-1.10156 -0.4453,-0.32813 -1.7578,-0.32813 z m 0,8.15626 H 1429.79 v 5.1797 h 11.0859 q 1.4063,0 1.8985,-0.39844 0.5156,-0.39844 0.5156,-1.40625 v -1.54688 q 0,-1.00781 -0.5156,-1.40625 -0.4922,-0.42188 -1.8985,-0.42188 z"
       style="font-size:48.00007629px;line-height:1.25"
       id="path5301" />
    <path
       d="m 1456.5088,809.207 v -20.2969 h 21.7734 v 3.58594 h -16.7812 v 4.4297 h 9.7734 v 3.49219 h -9.7734 v 4.99219 h 17.039 v 3.79688 z"
       style="font-size:48.00007629px;line-height:1.25"
       id="path5303" />
    <path
       d="m 1485.6651,809.207 v -20.2969 h 4.9921 v 16.50002 h 15.9141 v 3.79688 z"
       style="font-size:48.00007629px;line-height:1.25"
       id="path5305" />
    <path
       d="m 1512.1963,809.207 v -20.2969 h 4.9922 v 16.50002 h 15.9141 v 3.79688 z"
       style="font-size:48.00007629px;line-height:1.25"
       id="path5307" />
    <path
       d="m 1538.7276,809.207 v -20.2969 h 21.7735 v 3.58594 h -16.7813 v 4.4297 h 9.7735 v 3.49219 h -9.7735 v 4.99219 h 17.0391 v 3.79688 z"
       style="font-size:48.00007629px;line-height:1.25"
       id="path5309" />
    <path
       d="m 1586.634,792.54292 h -13.9688 v 4.28906 h 13.2188 q 3.1172,0 4.1953,1.00782 1.0781,0.98438 1.0781,3.77344 v 2.78907 q 0,2.78907 -1.1015,3.79688 -1.1016,1.00781 -4.1719,1.00781 h -13.1719 q -3.1407,0 -4.2657,-1.00781 -1.1015,-1.00781 -1.1015,-3.79688 v -0.5625 l 4.4062,-0.82032 v 2.39063 h 14.9297 v -4.64063 h -13.1484 q -3.1172,0 -4.2188,-1.00781 -1.1015,-1.03125 -1.1015,-3.79688 v -2.27345 q 0,-2.74219 1.1015,-3.75 1.1016,-1.03125 4.2188,-1.03125 h 12.0469 q 3.0703,0 4.1953,0.98437 1.1484,0.96094 1.1484,3.42188 v 0.49219 l -4.289,0.91407 z"
       style="font-size:48.00007629px;line-height:1.25"
       id="path5311" />
  </g>
  <g
     id="g10099"
     transform="matrix(0.86705867,0,0,0.86705867,918.28224,634.37797)">
    <path
       id="path10097"
       d="M 7.42,145.986 C 9.185,99.193 32.899,56.035 76.25,27.516 c 0.128,0.048 1.251,-0.361 0.738,0.61 -3.434,3.184 -65.172,76.114 -8.344,133.68 0,0 29.858,28.704 53.011,1.468 0,0 22.847,-29.577 -0.289,-74.413 0,0 -5.856,-14.64 -26.955,-23.721 l 16.992,-18.748 c 0,0 14.359,6.161 25.478,22.871 0,0 0.593,-17.593 -12.884,-36.34 l 26.345,-29.89 26.08,29.609 c 0,0 -11.993,16.991 -12.876,36.902 0,0 8.191,-13.477 25.776,-23.151 l 16.686,18.748 c 0,0 -16.045,5.287 -26.794,23.529 -9.242,16.902 -16.357,53.05 0.416,75.223 0,0 18.772,26.618 51.792,-1.571 0,0 60.712,-54.399 -6.226,-133.048 0,0 -3.658,-3.233 0.449,-1.476 29.586,21.54 65.012,49.946 68.67,120.837 -1.444,85.966 -59.012,147.334 -143.074,147.334 C 68.934,295.968 4.95,227.283 7.42,145.986"
       inkscape:connector-curvature="0" />
  </g>
  <path
     style="fill:#000000;fill-opacity:1;stroke:none;stroke-width:0.59214848px;stroke-linecap:butt;stroke-linejoin:miter;stroke-opacity:1"
     d="m 1056.9575,428.99638 v 12.73924 h 40.8127 c 5.2788,-0.46347 8.573,-3.65673 9.5476,-6.75806 0.9748,-3.10135 0.8711,-5.96736 -0.8962,-7.94949 l -9.0615,-9.19448 c -0.3752,-0.44368 -0.01,-1.01114 0.8794,-1.01114 h 17.9779 l -0.1632,24.84468 h 15.7536 v -24.86206 h 15.9169 v -11.78036 h -60.0762 c -9.3067,0.37619 -12.9105,8.76055 -9.417,13.60616 l 8.8775,8.98426 c 0.7169,0.62933 0.8579,1.36191 -0.011,1.3537 z"
     id="path8745"
     inkscape:connector-curvature="0"
     sodipodi:nodetypes="ccczcccccccccccccc" />
  <path
     style="fill:#000000;fill-opacity:1;stroke:none;stroke-width:0.59214848px;stroke-linecap:butt;stroke-linejoin:miter;stroke-opacity:1"
     d="m 1158.2544,441.66713 2.589,-4.62917 h 14.9803 l 2.8345,4.52584 16.2287,0.0969 -13.868,-36.67927 -24.5074,0.0242 -13.8863,36.64979 z"
     id="path9255"
     inkscape:connector-curvature="0"
     sodipodi:nodetypes="ccccccccc" />
  <path
     sodipodi:nodetypes="ccccccccc"
     inkscape:connector-curvature="0"
     id="path9309"
     d="m 1156.4465,439.99531 2.9857,-5.24926 18.1526,-0.0643 3.6236,5.29164 10.7243,0.016 -12.2367,-33.26357 -21.7189,-0.002 -12.7539,33.28499 z"
     style="fill:#ffffff;fill-opacity:1;stroke:none;stroke-width:0.59214842px;stroke-linecap:butt;stroke-linejoin:miter;stroke-opacity:1" />
  <path
     sodipodi:nodetypes="cccc"
     inkscape:connector-curvature="0"
     id="path9307"
     d="m 1161.3481,428.98874 13.8827,-0.0407 -6.5855,-18.04428 z"
     style="fill:#000000;fill-opacity:1;stroke:none;stroke-width:0.62839288px;stroke-linecap:butt;stroke-linejoin:miter;stroke-opacity:1" />
  <path
     style="fill:#ffffff;fill-opacity:1;stroke:none;stroke-width:0.59214848px;stroke-linecap:butt;stroke-linejoin:miter;stroke-opacity:1"
     d="m 1164.0968,426.94166 8.3844,-0.0242 -3.9773,-10.71659 z"
     id="path9257"
     inkscape:connector-curvature="0"
     sodipodi:nodetypes="cccc" />
  <path
     style="fill:#000000;fill-opacity:1;stroke:none;stroke-width:0.59214848px;stroke-linecap:butt;stroke-linejoin:miter;stroke-opacity:1"
     d="m 1197.8617,405.02471 -0.2021,36.61406 16.758,0.0242 V 430.5516 l 10.2745,8.91161 c 2.6062,2.55747 4.9033,2.15786 7.2497,2.22922 l 25.2061,-0.0204 v -12.68668 l -24.6931,-0.0272 c 0,0 9.1665,-5.51763 9.1665,-11.64597 0,-6.12832 -7.705,-11.91164 -13.4271,-12.35608 z"
     id="path9259"
     inkscape:connector-curvature="0"
     sodipodi:nodetypes="ccccccccczcc" />
  <path
     sodipodi:nodetypes="ccccccccccczcc"
     inkscape:connector-curvature="0"
     id="path9311"
     d="m 1199.4688,406.54286 -0.071,33.52472 12.7067,0.0224 0.082,-11.83731 c -0.2565,-2.70524 0.8791,-1.9899 2.1193,-1.01737 l 11.9439,10.82306 c 1.4294,1.40228 2.6525,1.99291 4.8202,2.05881 l 24.2663,-0.0189 -0.082,-9.45671 -23.7106,-0.23052 c -1.7989,0.0186 -2.109,-1.22082 0.4028,-2.9609 3.1783,-1.87572 7.739,-5.65835 7.739,-10.73995 0,-5.0816 -7.4038,-9.72331 -12.6902,-10.13377 z"
     style="fill:#ffffff;fill-opacity:1;stroke:none;stroke-width:0.59214842px;stroke-linecap:butt;stroke-linejoin:miter;stroke-opacity:1" />
  <path
     sodipodi:nodetypes="ccccc"
     inkscape:connector-curvature="0"
     id="path9313"
     d="m 1211.9639,414.17458 v 8.80728 h 12.2496 c 5.0527,-1.14774 4.3496,-7.76291 -0.1452,-8.78397 z"
     style="fill:#000000;fill-opacity:1;stroke:none;stroke-width:0.59214848px;stroke-linecap:butt;stroke-linejoin:miter;stroke-opacity:1" />
  <path
     style="fill:#ffffff;fill-opacity:1;stroke:none;stroke-width:0.59214848px;stroke-linecap:butt;stroke-linejoin:miter;stroke-opacity:1"
     d="m 1214.6575,415.70922 v 5.73801 h 8.0635 c 3.3259,-0.74776 2.8631,-5.0576 -0.096,-5.72282 z"
     id="path9261"
     inkscape:connector-curvature="0"
     sodipodi:nodetypes="ccccc" />
  <path
     style="fill:#000000;fill-opacity:1;stroke:none;stroke-width:0.59214848px;stroke-linecap:butt;stroke-linejoin:miter;stroke-opacity:1"
     d="m 1270.0403,404.95621 12.8956,36.73577 15.1835,0.009 5.1424,-13.11595 5.1015,13.15018 h 14.6926 l 14.3547,-36.7333 -15.4566,0.0223 -4.7751,11.78037 -4.1221,-11.81461 -16.2843,0.0343 -4.8975,12.87621 -4.9384,-12.91047 z"
     id="path9263"
     inkscape:connector-curvature="0"
     sodipodi:nodetypes="cccccccccccccc" />
  <path
     style="fill:none;stroke:#000000;stroke-width:0.59214848px;stroke-linecap:butt;stroke-linejoin:miter;stroke-opacity:1"
     d="m 1055.1617,459.23495 37.7109,43.0463 -38.2006,44.10787 h 53.2197 l 14.9224,-18.94952 14.3409,18.95276 54.8515,-0.006 -27.4261,-30.44399 32.7725,0.0685 v -10.99274 l 11.4276,32.05355 h 68.5652 l 9.795,-32.32751 v 32.31993 l 67.2593,0.0243 v -9.3313 l 9.6128,9.30712 h 32.1974 l -0.2886,-16.15619 c 7.5211,10.06804 17.9193,15.33033 35.2896,16.15798 h 39.7967 v -38.95365 l -34.3494,-0.0249 -0.069,9.44051 c -5.2349,-0.0655 -8.9119,0.48504 -8.868,-5.14271 0.032,-4.09967 1.7786,-5.21017 8.6391,-5.28998 l 34.6471,0.0485 v -27.75724 l -45.6705,0.0484 c -11.2996,-0.0228 -24.2736,7.48326 -29.553,14.51697 v -14.54845 h -36.4716 l -0.029,8.42684 -8.3403,-8.42684 h -89.8088 l -1.645,8.98378 -2.9147,-8.98378 h -30.042 l -2.7706,9.85553 -3.5496,-9.85553 h -36.2465 l 6.5593,20.54057 h -26.8431 l 26.6506,-30.70923 h -53.3013 l -14.0804,17.94454 -14.4069,-17.94453 z"
     id="path9273"
     inkscape:connector-curvature="0"
     sodipodi:nodetypes="ccccccccccccccccccccccccsccccccccccccccccccccccc" />
  <path
     style="fill:#000000;fill-opacity:1;stroke:none;stroke-width:0.59214848px;stroke-linecap:butt;stroke-linejoin:miter;stroke-opacity:1"
     d="m 1070.9264,466.4905 31.3111,-0.0288 19.6241,25.01861 19.2779,-25.05742 32.2006,-0.0292 -32.6699,37.09551 32.3814,36.46733 h -31.4504 l -19.6817,-24.55405 -19.3355,24.55405 h -31.9463 l 32.0317,-36.6112 z"
     id="path9275"
     inkscape:connector-curvature="0"
     sodipodi:nodetypes="ccccccccccccc" />
  <path
     style="fill:#000000;fill-opacity:1;stroke:none;stroke-width:0.59214848px;stroke-linecap:butt;stroke-linejoin:miter;stroke-opacity:1"
     d="m 1164.3356,497.89785 0.041,11.60914 23.6304,-0.0342 0.082,-11.54064 z"
     id="path9277"
     inkscape:connector-curvature="0"
     sodipodi:nodetypes="ccccc" />
  <path
     style="fill:#000000;fill-opacity:1;stroke:none;stroke-width:0.59214848px;stroke-linecap:butt;stroke-linejoin:miter;stroke-opacity:1"
     d="m 1194.3386,476.83744 19.6455,53.2852 19.446,-0.006 6.4356,-21.73088 c 0.6589,-2.11758 0.9157,-2.13236 1.8569,-0.0173 l 8.9653,21.7447 19.2819,-0.006 15.695,-53.47648 -18.5275,0.0411 -6.2917,22.52088 c -0.7276,1.5594 -1.4769,1.61863 -2.3567,0.016 l -8.8403,-22.49826 -17.8926,0.0395 -7.3298,21.85142 c -0.7565,1.91921 -2.0176,2.40953 -2.8283,-0.0265 l -8.6003,-21.78333 z"
     id="path9279"
     inkscape:connector-curvature="0"
     sodipodi:nodetypes="ccccccccccccccccc" />
  <path
     style="fill:#000000;fill-opacity:1;stroke:none;stroke-width:0.59214848px;stroke-linecap:butt;stroke-linejoin:miter;stroke-opacity:1"
     d="m 1294.459,476.59529 -0.058,53.27306 18.6813,0.0486 v -53.35331 z"
     id="path9281"
     inkscape:connector-curvature="0"
     sodipodi:nodetypes="ccccc" />
  <path
     style="fill:#000000;fill-opacity:1;stroke:none;stroke-width:0.59214848px;stroke-linecap:butt;stroke-linejoin:miter;stroke-opacity:1"
     d="m 1325.9944,529.94854 -0.058,-53.40311 h 18.8311 l 19.5664,19.75949 c 1.7175,1.72854 3.2863,1.22335 3.2899,0 l 0.058,-19.75949 h 18.1925 l 0.1154,53.43638 -18.5965,-0.0104 -20.1565,-21.09493 c -1.0384,-1.11323 -2.9493,-1.76585 -3.0462,-0.0798 l -0.1154,21.16178 z"
     id="path9283"
     inkscape:connector-curvature="0"
     sodipodi:nodetypes="ccccccccccccc" />
  <path
     style="fill:#000000;fill-opacity:1;stroke:none;stroke-width:0.59214848px;stroke-linecap:butt;stroke-linejoin:miter;stroke-opacity:1"
     d="m 1461.6043,476.67411 v 14.10073 l -31.0992,0.34245 c -9.3777,0.12248 -12.75,6.01064 -12.9364,12.8762 -0.1639,6.03822 5.3712,11.82242 13.0323,11.93114 l 13.0591,0.0921 -0.013,-11.88627 h 17.9576 v 25.65761 l -36.2631,-0.0486 c -8.5924,0 -17.4525,-6.80028 -19.9762,-8.90926 -2.5238,-2.10898 -7.2814,-7.27009 -8.0083,-13.1674 0,0 -0.5436,-3.10306 -0.5312,-4.76499 0.012,-1.66193 0.6128,-5.20564 0.6128,-5.20564 0.7885,-4.91105 5.1808,-10.71712 9.1173,-13.83154 3.9366,-3.11441 12.6757,-6.86046 19.0793,-7.10793 z"
     id="path9285"
     inkscape:connector-curvature="0"
     sodipodi:nodetypes="cccscccccczczczcc" />
  <path
     sodipodi:nodetypes="ccccccccc"
     inkscape:connector-curvature="0"
     id="path9295"
     d="m 1345.4909,441.66713 2.5888,-4.62917 h 14.9805 l 2.8344,4.52584 16.2288,0.0969 -13.8681,-36.67927 -24.5074,0.0242 -13.8862,36.64979 z"
     style="fill:#000000;fill-opacity:1;stroke:none;stroke-width:0.59214848px;stroke-linecap:butt;stroke-linejoin:miter;stroke-opacity:1" />
  <path
     sodipodi:nodetypes="czccccccccccsscccccccc"
     inkscape:connector-curvature="0"
     id="path9303"
     d="m 1453.7734,441.73562 c 5.279,-0.46347 8.5731,-3.65673 9.5478,-6.75806 0.9747,-3.10135 0.4381,-5.65256 -1.3291,-7.63469 l -8.6286,-9.50928 c -0.3753,-0.44368 -0.01,-1.01114 0.8792,-1.01114 h 16.8117 l -0.029,-11.79774 h -27.3736 c -9.3067,0.37619 -12.9105,8.76055 -9.4171,13.60616 l 8.8775,8.98426 c 0.7169,0.62933 0.8579,1.37903 -0.011,1.37083 l -23.0664,0.015 c 0,0 8.9354,-4.42946 9.0384,-11.40331 0.024,-1.63464 -0.437,-3.54984 -1.2129,-4.93426 -2.3325,-4.16138 -7.8511,-7.37603 -12.1984,-7.70727 l -30.3326,0.0686 -0.202,36.61407 16.7579,0.0242 v -11.11138 l 10.2745,8.91162 c 2.6062,2.55748 4.9033,2.15786 7.2497,2.22921 z"
     style="fill:#000000;fill-opacity:1;stroke:none;stroke-width:0.59214848px;stroke-linecap:butt;stroke-linejoin:miter;stroke-opacity:1" />
  <path
     style="fill:#ffffff;fill-opacity:1;stroke:none;stroke-width:0.59214848px;stroke-linecap:butt;stroke-linejoin:miter;stroke-opacity:1"
     d="m 1468.7426,406.90696 -24.9185,0.0307 c -7.9683,-0.0113 -10.6829,7.8646 -7.8587,10.74879 l 8.8775,8.96005 c 2.0733,2.08224 1.7814,3.80762 -0.6173,3.99314 l -25.2438,-0.10766 c -1.7987,0.0186 -2.0801,-1.3419 0.4317,-3.08197 3.1784,-1.87573 7.7391,-5.65836 7.7391,-10.73996 0,-5.0816 -7.4038,-9.72329 -12.6903,-10.13377 l -27.5261,-0.0334 -0.071,33.52472 12.7066,0.0224 0.082,-11.8373 c -0.2564,-2.70524 0.8791,-1.98991 2.1194,-1.01737 l 11.9437,10.82306 c 1.4295,1.40228 2.8547,1.94448 5.0223,2.01038 l 35.0917,0.0203 c 5.0081,-1.14503 6.8094,-3.34357 7.7007,-5.74104 0.8913,-2.39747 0.3668,-5.26048 -1.4157,-6.85979 l -8.3977,-8.5891 c -2.0002,-2.10504 -1.9766,-4.46159 2.3511,-4.30439 l 14.6649,2e-5 z"
     id="path3717"
     inkscape:connector-curvature="0"
     sodipodi:nodetypes="ccccccczccccccccczccccc" />
  <path
     sodipodi:nodetypes="ccczcccccccccccccc"
     inkscape:connector-curvature="0"
     id="path3707"
     d="m 1059.2373,430.69144 0.029,9.05855 38.5039,0.0727 c 5.0082,-1.14502 6.2611,-2.08438 7.5276,-5.57152 1.2665,-3.48715 0.5688,-5.16363 -1.2137,-6.76294 l -8.3976,-8.5891 c -2.0003,-2.10505 -1.9766,-4.4616 2.3511,-4.30439 l 20.6329,2e-5 -0.048,25.20791 h 11.2517 l -0.2309,-25.41902 h 16.3208 v -7.51852 l -58.1715,0.0727 c -7.9684,-0.0113 -10.6829,7.8646 -7.8587,10.74879 l 8.8776,8.96005 c 2.0733,2.08224 1.7814,3.83184 -0.6174,4.01736 z"
     style="fill:#ffffff;fill-opacity:1;stroke:none;stroke-width:0.59214848px;stroke-linecap:butt;stroke-linejoin:miter;stroke-opacity:1" />
  <path
     style="fill:#ffffff;fill-opacity:1;stroke:none;stroke-width:0.59214842px;stroke-linecap:butt;stroke-linejoin:miter;stroke-opacity:1"
     d="m 1343.7506,439.99531 2.9856,-5.24926 18.1528,-0.0643 3.6235,5.29164 10.7244,0.016 -12.2368,-33.26357 -21.719,-0.002 -12.7536,33.28499 z"
     id="path3711"
     inkscape:connector-curvature="0"
     sodipodi:nodetypes="ccccccccc" />
  <path
     style="fill:#ffffff;fill-opacity:1;stroke:none;stroke-width:0.59214848px;stroke-linecap:butt;stroke-linejoin:miter;stroke-opacity:1"
     d="m 1272.9092,406.61907 11.7744,33.02934 h 11.4281 l 7.1571,-17.14426 7.0415,17.14426 h 11.1973 l 12.9865,-33.02934 h -10.6201 l -6.9261,15.64293 -5.8873,-15.64293 h -12.6979 l -6.5798,16.17566 -7.0416,-16.17566 z"
     id="path3719"
     inkscape:connector-curvature="0"
     sodipodi:nodetypes="cccccccccccccc" />
  <path
     style="fill:#000000;fill-opacity:1;stroke:none;stroke-width:0.59214848px;stroke-linecap:butt;stroke-linejoin:miter;stroke-opacity:1"
     d="m 1399.4312,414.17458 v 8.80728 h 12.2497 c 5.0526,-1.14774 4.3496,-7.76291 -0.1453,-8.78397 z"
     id="path3715"
     inkscape:connector-curvature="0"
     sodipodi:nodetypes="ccccc" />
  <path
     sodipodi:nodetypes="ccccc"
     inkscape:connector-curvature="0"
     id="path9301"
     d="m 1402.1249,415.70922 v 5.73801 h 8.0635 c 3.3259,-0.74776 2.8631,-5.0576 -0.096,-5.72282 z"
     style="fill:#ffffff;fill-opacity:1;stroke:none;stroke-width:0.59214848px;stroke-linecap:butt;stroke-linejoin:miter;stroke-opacity:1" />
  <path
     style="fill:#000000;fill-opacity:1;stroke:none;stroke-width:0.62839288px;stroke-linecap:butt;stroke-linejoin:miter;stroke-opacity:1"
     d="m 1348.6523,428.98874 13.8826,-0.0407 -6.5855,-18.04428 z"
     id="path3709"
     inkscape:connector-curvature="0"
     sodipodi:nodetypes="cccc" />
  <path
     sodipodi:nodetypes="cccc"
     inkscape:connector-curvature="0"
     id="path9297"
     d="m 1351.3332,426.94166 8.3843,-0.0242 -3.9771,-10.71659 z"
     style="fill:#ffffff;fill-opacity:1;stroke:none;stroke-width:0.59214848px;stroke-linecap:butt;stroke-linejoin:miter;stroke-opacity:1" />
  <path
     sodipodi:nodetypes="ccczcccccccccccccc"
     inkscape:connector-curvature="0"
     id="path4704"
     d="m 1056.9575,145.53158 v 12.73924 h 40.8127 c 5.2788,-0.46347 8.573,-3.65673 9.5476,-6.75806 0.9748,-3.10135 0.8711,-5.96736 -0.8962,-7.94949 l -9.0615,-9.19448 c -0.3752,-0.44368 -0.01,-1.01114 0.8794,-1.01114 h 17.9779 l -0.1632,24.84468 h 15.7536 v -24.86206 h 15.9169 v -11.78036 h -60.0762 c -9.3067,0.37619 -12.9105,8.76055 -9.417,13.60616 l 8.8775,8.98426 c 0.7169,0.62933 0.8579,1.36191 -0.011,1.3537 z"
     style="fill:#000000;fill-opacity:1;stroke:none;stroke-width:0.59214848px;stroke-linecap:butt;stroke-linejoin:miter;stroke-opacity:1" />
  <path
     sodipodi:nodetypes="ccccccccc"
     inkscape:connector-curvature="0"
     id="path4706"
     d="m 1158.2544,158.20233 2.589,-4.62917 h 14.9803 l 2.8345,4.52584 16.2287,0.0969 -13.868,-36.67927 -24.5074,0.0242 -13.8863,36.64979 z"
     style="fill:#000000;fill-opacity:1;stroke:none;stroke-width:0.59214848px;stroke-linecap:butt;stroke-linejoin:miter;stroke-opacity:1" />
  <path
     style="fill:#ffffff;fill-opacity:1;stroke:none;stroke-width:0.59214842px;stroke-linecap:butt;stroke-linejoin:miter;stroke-opacity:1"
     d="m 1156.4465,156.53051 2.9857,-5.24926 18.1526,-0.0643 3.6236,5.29164 10.7243,0.016 -12.2367,-33.26357 -21.7189,-0.002 -12.7539,33.28499 z"
     id="path4708"
     inkscape:connector-curvature="0"
     sodipodi:nodetypes="ccccccccc" />
  <path
     style="fill:#000000;fill-opacity:1;stroke:none;stroke-width:0.62839288px;stroke-linecap:butt;stroke-linejoin:miter;stroke-opacity:1"
     d="m 1161.3481,145.52394 13.8827,-0.0407 -6.5855,-18.04428 z"
     id="path4710"
     inkscape:connector-curvature="0"
     sodipodi:nodetypes="cccc" />
  <path
     sodipodi:nodetypes="cccc"
     inkscape:connector-curvature="0"
     id="path4712"
     d="m 1164.0968,143.47686 8.3844,-0.0242 -3.9773,-10.71659 z"
     style="fill:#ffffff;fill-opacity:1;stroke:none;stroke-width:0.59214848px;stroke-linecap:butt;stroke-linejoin:miter;stroke-opacity:1" />
  <path
     sodipodi:nodetypes="ccccccccczcc"
     inkscape:connector-curvature="0"
     id="path4714"
     d="m 1197.8617,121.55991 -0.2021,36.61406 16.758,0.0242 V 147.0868 l 10.2745,8.91161 c 2.6062,2.55747 4.9033,2.15786 7.2497,2.22922 l 25.2061,-0.0204 v -12.68668 l -24.6931,-0.0272 c 0,0 9.1665,-5.51763 9.1665,-11.64597 0,-6.12832 -7.705,-11.91164 -13.4271,-12.35608 z"
     style="fill:#000000;fill-opacity:1;stroke:none;stroke-width:0.59214848px;stroke-linecap:butt;stroke-linejoin:miter;stroke-opacity:1" />
  <path
     style="fill:#ffffff;fill-opacity:1;stroke:none;stroke-width:0.59214842px;stroke-linecap:butt;stroke-linejoin:miter;stroke-opacity:1"
     d="m 1199.4688,123.07806 -0.071,33.52472 12.7067,0.0224 0.082,-11.83731 c -0.2565,-2.70524 0.8791,-1.9899 2.1193,-1.01737 l 11.9439,10.82306 c 1.4294,1.40228 2.6525,1.99291 4.8202,2.05881 l 24.2663,-0.0189 -0.082,-9.45671 -23.7106,-0.23052 c -1.7989,0.0186 -2.109,-1.22082 0.4028,-2.9609 3.1783,-1.87572 7.739,-5.65835 7.739,-10.73995 0,-5.0816 -7.4038,-9.72331 -12.6902,-10.13377 z"
     id="path4716"
     inkscape:connector-curvature="0"
     sodipodi:nodetypes="ccccccccccczcc" />
  <path
     style="fill:#000000;fill-opacity:1;stroke:none;stroke-width:0.59214848px;stroke-linecap:butt;stroke-linejoin:miter;stroke-opacity:1"
     d="m 1211.9639,130.70978 v 8.80728 h 12.2496 c 5.0527,-1.14774 4.3496,-7.76291 -0.1452,-8.78397 z"
     id="path4718"
     inkscape:connector-curvature="0"
     sodipodi:nodetypes="ccccc" />
  <path
     sodipodi:nodetypes="ccccc"
     inkscape:connector-curvature="0"
     id="path4720"
     d="m 1214.6575,132.24442 v 5.73801 h 8.0635 c 3.3259,-0.74776 2.8631,-5.0576 -0.096,-5.72282 z"
     style="fill:#ffffff;fill-opacity:1;stroke:none;stroke-width:0.59214848px;stroke-linecap:butt;stroke-linejoin:miter;stroke-opacity:1" />
  <path
     sodipodi:nodetypes="cccccccccccccc"
     inkscape:connector-curvature="0"
     id="path4722"
     d="m 1270.0403,121.49141 12.8956,36.73577 15.1835,0.009 5.1424,-13.11595 5.1015,13.15018 h 14.6926 l 14.3547,-36.7333 -15.4566,0.0223 -4.7751,11.78037 -4.1221,-11.81461 -16.2843,0.0343 -4.8975,12.87621 -4.9384,-12.91047 z"
     style="fill:#000000;fill-opacity:1;stroke:none;stroke-width:0.59214848px;stroke-linecap:butt;stroke-linejoin:miter;stroke-opacity:1" />
  <path
     sodipodi:nodetypes="ccccccccccccccccccccccccsccccccccccccccccccccccc"
     inkscape:connector-curvature="0"
     id="path4724"
     d="m 1055.1617,175.77015 37.7109,43.0463 -38.2006,44.10787 h 53.2197 l 14.9224,-18.94952 14.3409,18.95276 54.8515,-0.006 -27.4261,-30.44399 32.7725,0.0685 v -10.99274 l 11.4276,32.05355 h 68.5652 l 9.795,-32.32751 v 32.31993 l 67.2593,0.0243 v -9.3313 l 9.6128,9.30712 h 32.1974 l -0.2886,-16.15619 c 7.5211,10.06804 17.9193,15.33033 35.2896,16.15798 h 39.7967 v -38.95365 l -34.3494,-0.0249 -0.069,9.44051 c -5.2349,-0.0655 -8.9119,0.48504 -8.868,-5.14271 0.032,-4.09967 1.7786,-5.21017 8.6391,-5.28998 l 34.6471,0.0485 v -27.75724 l -45.6705,0.0484 c -11.2996,-0.0228 -24.2736,7.48326 -29.553,14.51697 v -14.54845 h -36.4716 l -0.029,8.42684 -8.3403,-8.42684 h -89.8088 l -1.645,8.98378 -2.9147,-8.98378 h -30.042 l -2.7706,9.85553 -3.5496,-9.85553 h -36.2465 l 6.5593,20.54057 h -26.8431 L 1190.3329,175.77 h -53.3013 l -14.0804,17.94454 -14.4069,-17.94453 z"
     style="fill:none;stroke:#000000;stroke-width:0.59214848px;stroke-linecap:butt;stroke-linejoin:miter;stroke-opacity:1" />
  <path
     sodipodi:nodetypes="ccccccccccccc"
     inkscape:connector-curvature="0"
     id="path4726"
     d="m 1070.9264,183.0257 31.3111,-0.0288 19.6241,25.01861 19.2779,-25.05742 32.2006,-0.0292 -32.6699,37.09551 32.3814,36.46733 h -31.4504 l -19.6817,-24.55405 -19.3355,24.55405 h -31.9463 l 32.0317,-36.6112 z"
     style="fill:#000000;fill-opacity:1;stroke:none;stroke-width:0.59214848px;stroke-linecap:butt;stroke-linejoin:miter;stroke-opacity:1" />
  <path
     sodipodi:nodetypes="ccccc"
     inkscape:connector-curvature="0"
     id="path4728"
     d="m 1164.3356,214.43305 0.041,11.60914 23.6304,-0.0342 0.082,-11.54064 z"
     style="fill:#000000;fill-opacity:1;stroke:none;stroke-width:0.59214848px;stroke-linecap:butt;stroke-linejoin:miter;stroke-opacity:1" />
  <path
     sodipodi:nodetypes="ccccccccccccccccc"
     inkscape:connector-curvature="0"
     id="path4730"
     d="m 1194.3386,193.37264 19.6455,53.2852 19.446,-0.006 6.4356,-21.73088 c 0.6589,-2.11758 0.9157,-2.13236 1.8569,-0.0173 l 8.9653,21.7447 19.2819,-0.006 15.695,-53.47648 -18.5275,0.0411 -6.2917,22.52088 c -0.7276,1.5594 -1.4769,1.61863 -2.3567,0.016 l -8.8403,-22.49826 -17.8926,0.0395 -7.3298,21.85142 c -0.7565,1.91921 -2.0176,2.40953 -2.8283,-0.0265 l -8.6003,-21.78333 z"
     style="fill:#000000;fill-opacity:1;stroke:none;stroke-width:0.59214848px;stroke-linecap:butt;stroke-linejoin:miter;stroke-opacity:1" />
  <path
     sodipodi:nodetypes="ccccc"
     inkscape:connector-curvature="0"
     id="path4732"
     d="m 1294.459,193.13049 -0.058,53.27306 18.6813,0.0486 v -53.35331 z"
     style="fill:#000000;fill-opacity:1;stroke:none;stroke-width:0.59214848px;stroke-linecap:butt;stroke-linejoin:miter;stroke-opacity:1" />
  <path
     sodipodi:nodetypes="ccccccccccccc"
     inkscape:connector-curvature="0"
     id="path4734"
     d="m 1325.9944,246.48374 -0.058,-53.40311 h 18.8311 l 19.5664,19.75949 c 1.7175,1.72854 3.2863,1.22335 3.2899,0 l 0.058,-19.75949 h 18.1925 l 0.1154,53.43638 -18.5965,-0.0104 -20.1565,-21.09493 c -1.0384,-1.11323 -2.9493,-1.76585 -3.0462,-0.0798 l -0.1154,21.16178 z"
     style="fill:#000000;fill-opacity:1;stroke:none;stroke-width:0.59214848px;stroke-linecap:butt;stroke-linejoin:miter;stroke-opacity:1" />
  <path
     sodipodi:nodetypes="cccscccccczczczcc"
     inkscape:connector-curvature="0"
     id="path4736"
     d="m 1461.6043,193.20931 v 14.10073 l -31.0992,0.34245 c -9.3777,0.12248 -12.75,6.01064 -12.9364,12.8762 -0.1639,6.03822 5.3712,11.82242 13.0323,11.93114 l 13.0591,0.0921 -0.013,-11.88627 h 17.9576 v 25.65761 l -36.2631,-0.0486 c -8.5924,0 -17.4525,-6.80028 -19.9762,-8.90926 -2.5238,-2.10898 -7.2814,-7.27009 -8.0083,-13.1674 0,0 -0.5436,-3.10306 -0.5312,-4.76499 0.012,-1.66193 0.6128,-5.20564 0.6128,-5.20564 0.7885,-4.91105 5.1808,-10.71712 9.1173,-13.83154 3.9366,-3.11441 12.6757,-6.86046 19.0793,-7.10793 z"
     style="fill:#000000;fill-opacity:1;stroke:none;stroke-width:0.59214848px;stroke-linecap:butt;stroke-linejoin:miter;stroke-opacity:1" />
  <path
     style="fill:#000000;fill-opacity:1;stroke:none;stroke-width:0.59214848px;stroke-linecap:butt;stroke-linejoin:miter;stroke-opacity:1"
     d="m 1345.4909,158.20233 2.5888,-4.62917 h 14.9805 l 2.8344,4.52584 16.2288,0.0969 -13.8681,-36.67927 -24.5074,0.0242 -13.8862,36.64979 z"
     id="path4738"
     inkscape:connector-curvature="0"
     sodipodi:nodetypes="ccccccccc" />
  <path
     style="fill:#000000;fill-opacity:1;stroke:none;stroke-width:0.59214848px;stroke-linecap:butt;stroke-linejoin:miter;stroke-opacity:1"
     d="m 1453.7734,158.27082 c 5.279,-0.46347 8.5731,-3.65673 9.5478,-6.75806 0.9747,-3.10135 0.4381,-5.65256 -1.3291,-7.63469 l -8.6286,-9.50928 c -0.3753,-0.44368 -0.01,-1.01114 0.8792,-1.01114 h 16.8117 l -0.029,-11.79774 h -27.3736 c -9.3067,0.37619 -12.9105,8.76055 -9.4171,13.60616 l 8.8775,8.98426 c 0.7169,0.62933 0.8579,1.37903 -0.011,1.37083 l -23.0664,0.015 c 0,0 8.9354,-4.42946 9.0384,-11.40331 0.024,-1.63464 -0.437,-3.54984 -1.2129,-4.93426 -2.3325,-4.16138 -7.8511,-7.37603 -12.1984,-7.70727 l -30.3326,0.0686 -0.202,36.61407 16.7579,0.0242 v -11.11138 l 10.2745,8.91162 c 2.6062,2.55748 4.9033,2.15786 7.2497,2.22921 z"
     id="path4740"
     inkscape:connector-curvature="0"
     sodipodi:nodetypes="czccccccccccsscccccccc" />
  <path
     sodipodi:nodetypes="ccccccczccccccccczccccc"
     inkscape:connector-curvature="0"
     id="path4742"
     d="m 1468.7426,123.44216 -24.9185,0.0307 c -7.9683,-0.0113 -10.6829,7.8646 -7.8587,10.74879 l 8.8775,8.96005 c 2.0733,2.08224 1.7814,3.80762 -0.6173,3.99314 l -25.2438,-0.10766 c -1.7987,0.0186 -2.0801,-1.3419 0.4317,-3.08197 3.1784,-1.87573 7.7391,-5.65836 7.7391,-10.73996 0,-5.0816 -7.4038,-9.72329 -12.6903,-10.13377 l -27.5261,-0.0334 -0.071,33.52472 12.7066,0.0224 0.082,-11.8373 c -0.2564,-2.70524 0.8791,-1.98991 2.1194,-1.01737 l 11.9437,10.82306 c 1.4295,1.40228 2.8547,1.94448 5.0223,2.01038 l 35.0917,0.0203 c 5.0081,-1.14503 6.8094,-3.34357 7.7007,-5.74104 0.8913,-2.39747 0.3668,-5.26048 -1.4157,-6.85979 l -8.3977,-8.5891 c -2.0002,-2.10504 -1.9766,-4.46159 2.3511,-4.30439 l 14.6649,2e-5 z"
     style="fill:#ffffff;fill-opacity:1;stroke:none;stroke-width:0.59214848px;stroke-linecap:butt;stroke-linejoin:miter;stroke-opacity:1" />
  <path
     style="fill:#ffffff;fill-opacity:1;stroke:none;stroke-width:0.59214848px;stroke-linecap:butt;stroke-linejoin:miter;stroke-opacity:1"
     d="m 1059.2373,147.22664 0.029,9.05855 38.5039,0.0727 c 5.0082,-1.14502 6.2611,-2.08438 7.5276,-5.57152 1.2665,-3.48715 0.5688,-5.16363 -1.2137,-6.76294 l -8.3976,-8.5891 c -2.0003,-2.10505 -1.9766,-4.4616 2.3511,-4.30439 l 20.6329,2e-5 -0.048,25.20791 h 11.2517 l -0.2309,-25.41902 h 16.3208 v -7.51852 l -58.1715,0.0727 c -7.9684,-0.0113 -10.6829,7.8646 -7.8587,10.74879 l 8.8776,8.96005 c 2.0733,2.08224 1.7814,3.83184 -0.6174,4.01736 z"
     id="path4744"
     inkscape:connector-curvature="0"
     sodipodi:nodetypes="ccczcccccccccccccc" />
  <path
     sodipodi:nodetypes="ccccccccc"
     inkscape:connector-curvature="0"
     id="path4746"
     d="m 1343.7506,156.53051 2.9856,-5.24926 18.1528,-0.0643 3.6235,5.29164 10.7244,0.016 -12.2368,-33.26357 -21.719,-0.002 -12.7536,33.28499 z"
     style="fill:#ffffff;fill-opacity:1;stroke:none;stroke-width:0.59214842px;stroke-linecap:butt;stroke-linejoin:miter;stroke-opacity:1" />
  <path
     sodipodi:nodetypes="cccccccccccccc"
     inkscape:connector-curvature="0"
     id="path4748"
     d="m 1272.9092,123.15427 11.7744,33.02934 h 11.4281 l 7.1571,-17.14426 7.0415,17.14426 h 11.1973 l 12.9865,-33.02934 h -10.6201 l -6.9261,15.64293 -5.8873,-15.64293 h -12.6979 l -6.5798,16.17566 -7.0416,-16.17566 z"
     style="fill:#ffffff;fill-opacity:1;stroke:none;stroke-width:0.59214848px;stroke-linecap:butt;stroke-linejoin:miter;stroke-opacity:1" />
  <path
     sodipodi:nodetypes="ccccc"
     inkscape:connector-curvature="0"
     id="path4750"
     d="m 1399.4312,130.70978 v 8.80728 h 12.2497 c 5.0526,-1.14774 4.3496,-7.76291 -0.1453,-8.78397 z"
     style="fill:#000000;fill-opacity:1;stroke:none;stroke-width:0.59214848px;stroke-linecap:butt;stroke-linejoin:miter;stroke-opacity:1" />
  <path
     style="fill:#ffffff;fill-opacity:1;stroke:none;stroke-width:0.59214848px;stroke-linecap:butt;stroke-linejoin:miter;stroke-opacity:1"
     d="m 1402.1249,132.24442 v 5.73801 h 8.0635 c 3.3259,-0.74776 2.8631,-5.0576 -0.096,-5.72282 z"
     id="path4752"
     inkscape:connector-curvature="0"
     sodipodi:nodetypes="ccccc" />
  <path
     sodipodi:nodetypes="cccc"
     inkscape:connector-curvature="0"
     id="path4754"
     d="m 1348.6523,145.52394 13.8826,-0.0407 -6.5855,-18.04428 z"
     style="fill:#000000;fill-opacity:1;stroke:none;stroke-width:0.62839288px;stroke-linecap:butt;stroke-linejoin:miter;stroke-opacity:1" />
  <path
     style="fill:#ffffff;fill-opacity:1;stroke:none;stroke-width:0.59214848px;stroke-linecap:butt;stroke-linejoin:miter;stroke-opacity:1"
     d="m 1351.3332,143.47686 8.3843,-0.0242 -3.9771,-10.71659 z"
     id="path4756"
     inkscape:connector-curvature="0"
     sodipodi:nodetypes="cccc" />
</svg>
