<?xml version="1.0" encoding="UTF-8" standalone="no"?>
<!-- Created with Inkscape (http://www.inkscape.org/) -->

<svg
   xmlns:dc="http://purl.org/dc/elements/1.1/"
   xmlns:cc="http://creativecommons.org/ns#"
   xmlns:rdf="http://www.w3.org/1999/02/22-rdf-syntax-ns#"
   xmlns:svg="http://www.w3.org/2000/svg"
   xmlns="http://www.w3.org/2000/svg"
   xmlns:sodipodi="http://sodipodi.sourceforge.net/DTD/sodipodi-0.dtd"
   xmlns:inkscape="http://www.inkscape.org/namespaces/inkscape"
   width="2267.7163"
   height="1133.8582"
   id="svg2"
   version="1.1"
   inkscape:version="0.92.1 r15371"
   sodipodi:docname="tabs-pilots-rebels.svg">
  <defs
     id="defs4" />
  <sodipodi:namedview
     id="base"
     pagecolor="#ffffff"
     bordercolor="#666666"
     borderopacity="1.0"
     inkscape:pageopacity="0.0"
     inkscape:pageshadow="2"
     inkscape:zoom="2.8284272"
     inkscape:cx="1935.3461"
     inkscape:cy="955.12552"
     inkscape:document-units="px"
     inkscape:current-layer="layer1"
     showgrid="false"
     units="mm"
     inkscape:window-width="1680"
     inkscape:window-height="997"
     inkscape:window-x="1912"
     inkscape:window-y="-8"
     inkscape:window-maximized="1" />
  <metadata
     id="metadata7">
    <rdf:RDF>
      <cc:Work
         rdf:about="">
        <dc:format>image/svg+xml</dc:format>
        <dc:type
           rdf:resource="http://purl.org/dc/dcmitype/StillImage" />
        <dc:title />
      </cc:Work>
    </rdf:RDF>
  </metadata>
  <g
     inkscape:label="Calque 1"
     inkscape:groupmode="layer"
     id="layer1"
     transform="translate(0,11.338576)">
    <path
       style="color:#000000;display:inline;overflow:visible;visibility:visible;fill:none;stroke:#ff0000;stroke-width:0.50000002;stroke-opacity:1;marker:none;enable-background:accumulate;stroke-miterlimit:4;stroke-dasharray:none"
       d="m 548.5,838.56142 c -10.46929,0 -18.9,8.43071 -18.9,18.9 H 370.83333 V 1103.1281 H 718.56667 V 857.46142 c 0,-10.46929 -8.39734,-18.9 -18.86667,-18.9 z"
       id="rect3760"
       inkscape:connector-curvature="0" />
    <path
       style="color:#000000;display:inline;overflow:visible;visibility:visible;fill:none;stroke:#ff0000;stroke-width:0.50000002;stroke-opacity:1;marker:none;enable-background:accumulate;stroke-miterlimit:4;stroke-dasharray:none"
       d="m 38.266667,838.56142 c -10.469291,0 -18.9,8.43071 -18.9,18.9 V 1103.1281 H 367.1 V 857.46142 H 208.33333 c 0,-10.46929 -8.39737,-18.9 -18.86666,-18.9 z"
       id="rect2985"
       inkscape:connector-curvature="0" />
    <path
       style="color:#000000;display:inline;overflow:visible;visibility:visible;fill:none;stroke:#ff0000;stroke-width:0.50000002;stroke-opacity:1;marker:none;enable-background:accumulate;stroke-miterlimit:4;stroke-dasharray:none"
       d="m 548.5,569.76142 c -10.46929,0 -18.9,8.43071 -18.9,18.9 H 370.83333 V 834.32809 H 718.56667 V 588.66142 c 0,-10.46929 -8.39734,-18.9 -18.86667,-18.9 z"
       id="rect3787"
       inkscape:connector-curvature="0" />
    <path
       style="color:#000000;display:inline;overflow:visible;visibility:visible;fill:none;stroke:#ff0000;stroke-width:0.50000002;stroke-opacity:1;marker:none;enable-background:accumulate;stroke-miterlimit:4;stroke-dasharray:none"
       d="m 548.5,300.96142 c -10.46929,0 -18.9,8.43071 -18.9,18.9 H 370.83333 V 565.52809 H 718.56667 V 319.86142 c 0,-10.46929 -8.39734,-18.9 -18.86667,-18.9 z"
       id="rect3801"
       inkscape:connector-curvature="0" />
    <path
       style="color:#000000;display:inline;overflow:visible;visibility:visible;fill:none;stroke:#ff0000;stroke-width:0.50000002;stroke-opacity:1;marker:none;enable-background:accumulate;stroke-miterlimit:4;stroke-dasharray:none"
       d="m 548.5,32.161424 c -10.46929,0 -18.9,8.430709 -18.9,18.9 H 370.83333 V 296.72809 H 718.56667 V 51.061424 c 0,-10.469291 -8.39734,-18.9 -18.86667,-18.9 z"
       id="rect3815"
       inkscape:connector-curvature="0" />
    <path
       style="color:#000000;display:inline;overflow:visible;visibility:visible;fill:none;stroke:#ff0000;stroke-width:0.50000002;stroke-opacity:1;marker:none;enable-background:accumulate;stroke-miterlimit:4;stroke-dasharray:none"
       d="m 38.266667,32.161424 c -10.469291,0 -18.9,8.430709 -18.9,18.9 V 296.72809 H 367.1 V 51.061424 H 208.33333 c 0,-10.469291 -8.39737,-18.9 -18.86666,-18.9 z"
       id="rect3821"
       inkscape:connector-curvature="0" />
    <rect
       style="color:#000000;display:inline;overflow:visible;visibility:visible;fill:none;stroke:#0000ff;stroke-width:0.50000002;stroke-opacity:1;marker:none;enable-background:accumulate;stroke-miterlimit:4;stroke-dasharray:none"
       id="rect3829"
       width="347.71652"
       height="245.66928"
       x="1074.8444"
       y="857.47272" />
    <path
       style="color:#000000;display:inline;overflow:visible;visibility:visible;fill:none;stroke:#0000ff;stroke-width:0.50000002;stroke-opacity:1;marker:none;enable-background:accumulate;stroke-miterlimit:4;stroke-dasharray:none"
       d="m 1252.4942,838.57686 c -10.4693,0 -18.9001,8.43071 -18.9001,18.9 h 188.9668 c 0,-10.46929 -8.3974,-18.9 -18.8667,-18.9 z"
       id="path3831"
       inkscape:connector-curvature="0" />
    <rect
       y="857.47272"
       x="723.37769"
       height="245.66928"
       width="347.71652"
       id="rect3835"
       style="color:#000000;display:inline;overflow:visible;visibility:visible;fill:none;stroke:#0000ff;stroke-width:0.50000002;stroke-opacity:1;marker:none;enable-background:accumulate;stroke-miterlimit:4;stroke-dasharray:none" />
    <path
       inkscape:connector-curvature="0"
       id="path3837"
       d="m 742.27764,838.57686 c -10.46929,0 -18.9,8.43071 -18.9,18.9 h 188.96667 c 0,-10.46929 -8.39738,-18.9 -18.86667,-18.9 z"
       style="color:#000000;display:inline;overflow:visible;visibility:visible;fill:none;stroke:#0000ff;stroke-width:0.50000002;stroke-opacity:1;marker:none;enable-background:accumulate;stroke-miterlimit:4;stroke-dasharray:none" />
    <path
       style="color:#000000;display:inline;overflow:visible;visibility:visible;fill:none;stroke:#ff0000;stroke-width:0.50000002;stroke-opacity:1;marker:none;enable-background:accumulate;stroke-miterlimit:4;stroke-dasharray:none"
       d="m 1252.5001,569.76142 c -10.4695,0 -18.9001,8.43071 -18.9001,18.9 h -158.7667 v 245.66667 h 347.7333 V 588.66142 c 0,-10.46929 -8.3972,-18.9 -18.8665,-18.9 z"
       id="rect3843"
       inkscape:connector-curvature="0" />
    <path
       style="color:#000000;display:inline;overflow:visible;visibility:visible;fill:none;stroke:#ff0000;stroke-width:0.50000002;stroke-opacity:1;marker:none;enable-background:accumulate;stroke-miterlimit:4;stroke-dasharray:none"
       d="m 742.26667,569.76142 c -10.46929,0 -18.9,8.43071 -18.9,18.9 V 834.32809 H 1071.0999 V 588.66142 H 912.33333 c 0,-10.46929 -8.39737,-18.9 -18.86666,-18.9 z"
       id="rect3849"
       inkscape:connector-curvature="0" />
    <path
       style="color:#000000;display:inline;overflow:visible;visibility:visible;fill:none;stroke:#ff0000;stroke-width:0.50000002;stroke-opacity:1;marker:none;enable-background:accumulate;stroke-miterlimit:4;stroke-dasharray:none"
       d="m 1252.5001,300.96142 c -10.4695,0 -18.9001,8.43071 -18.9001,18.9 h -158.7667 v 245.66667 h 347.7333 V 319.86142 c 0,-10.46929 -8.3972,-18.9 -18.8665,-18.9 z"
       id="rect3857"
       inkscape:connector-curvature="0" />
    <path
       style="color:#000000;display:inline;overflow:visible;visibility:visible;fill:none;stroke:#ff0000;stroke-width:0.50000002;stroke-opacity:1;marker:none;enable-background:accumulate;stroke-miterlimit:4;stroke-dasharray:none"
       d="m 742.26667,300.96142 c -10.46929,0 -18.9,8.43071 -18.9,18.9 V 565.52809 H 1071.0999 V 319.86142 H 912.33333 c 0,-10.46929 -8.39737,-18.9 -18.86666,-18.9 z"
       id="rect3863"
       inkscape:connector-curvature="0" />
    <path
       style="color:#000000;display:inline;overflow:visible;visibility:visible;fill:none;stroke:#ff0000;stroke-width:0.50000002;stroke-opacity:1;marker:none;enable-background:accumulate;stroke-miterlimit:4;stroke-dasharray:none"
       d="m 1252.5001,32.161424 c -10.4695,0 -18.9001,8.430709 -18.9001,18.9 H 1074.8333 V 296.72809 h 347.7333 V 51.061424 c 0,-10.469291 -8.3972,-18.9 -18.8665,-18.9 z"
       id="rect3871"
       inkscape:connector-curvature="0" />
    <path
       style="color:#000000;display:inline;overflow:visible;visibility:visible;fill:none;stroke:#ff0000;stroke-width:0.50000002;stroke-opacity:1;marker:none;enable-background:accumulate;stroke-miterlimit:4;stroke-dasharray:none"
       d="m 742.26667,32.161424 c -10.46929,0 -18.9,8.430709 -18.9,18.9 V 296.72809 H 1071.0999 V 51.061424 H 912.33333 c 0,-10.469291 -8.39737,-18.9 -18.86666,-18.9 z"
       id="rect3877"
       inkscape:connector-curvature="0" />
    <rect
       y="857.47272"
       x="1778.8442"
       height="245.66928"
       width="347.71652"
       id="rect3885"
       style="color:#000000;display:inline;overflow:visible;visibility:visible;fill:none;stroke:#0000ff;stroke-width:0.50000002;stroke-opacity:1;marker:none;enable-background:accumulate;stroke-miterlimit:4;stroke-dasharray:none" />
    <path
       inkscape:connector-curvature="0"
       id="path3887"
       d="m 1956.4942,838.57686 c -10.4693,0 -18.9001,8.43071 -18.9001,18.9 h 188.9668 c 0,-10.46929 -8.3974,-18.9 -18.8667,-18.9 z"
       style="color:#000000;display:inline;overflow:visible;visibility:visible;fill:none;stroke:#0000ff;stroke-width:0.50000002;stroke-opacity:1;marker:none;enable-background:accumulate;stroke-miterlimit:4;stroke-dasharray:none" />
    <rect
       style="color:#000000;display:inline;overflow:visible;visibility:visible;fill:none;stroke:#0000ff;stroke-width:0.50000002;stroke-opacity:1;marker:none;enable-background:accumulate;stroke-miterlimit:4;stroke-dasharray:none"
       id="rect3891"
       width="347.71652"
       height="245.66928"
       x="1427.3776"
       y="857.47272" />
    <path
       style="color:#000000;display:inline;overflow:visible;visibility:visible;fill:none;stroke:#0000ff;stroke-width:0.50000002;stroke-opacity:1;marker:none;enable-background:accumulate;stroke-miterlimit:4;stroke-dasharray:none"
       d="m 1446.2777,838.57686 c -10.4694,0 -18.9,8.43071 -18.9,18.9 h 188.9666 c 0,-10.46929 -8.3973,-18.9 -18.8666,-18.9 z"
       id="path3893"
       inkscape:connector-curvature="0" />
    <path
       style="color:#000000;display:inline;overflow:visible;visibility:visible;fill:none;stroke:#ff0000;stroke-width:0.50000002;stroke-opacity:1;marker:none;enable-background:accumulate;stroke-miterlimit:4;stroke-dasharray:none"
       d="m 1956.5001,569.76142 c -10.4695,0 -18.9001,8.43071 -18.9001,18.9 h -158.7667 v 245.66667 h 347.7333 V 588.66142 c 0,-10.46929 -8.3972,-18.9 -18.8665,-18.9 z"
       id="rect3899"
       inkscape:connector-curvature="0" />
    <path
       style="color:#000000;display:inline;overflow:visible;visibility:visible;fill:none;stroke:#ff0000;stroke-width:0.50000002;stroke-opacity:1;marker:none;enable-background:accumulate;stroke-miterlimit:4;stroke-dasharray:none"
       d="m 1446.2667,569.76142 c -10.4694,0 -18.9001,8.43071 -18.9001,18.9 v 245.66667 h 347.7333 V 588.66142 h -158.7666 c 0,-10.46929 -8.3973,-18.9 -18.8666,-18.9 z"
       id="rect3905"
       inkscape:connector-curvature="0" />
    <path
       style="color:#000000;display:inline;overflow:visible;visibility:visible;fill:none;stroke:#ff0000;stroke-width:0.50000002;stroke-opacity:1;marker:none;enable-background:accumulate;stroke-miterlimit:4;stroke-dasharray:none"
       d="m 1956.5001,300.96142 c -10.4695,0 -18.9001,8.43071 -18.9001,18.9 h -158.7667 v 245.66667 h 347.7333 V 319.86142 c 0,-10.46929 -8.3972,-18.9 -18.8665,-18.9 z"
       id="rect3913"
       inkscape:connector-curvature="0" />
    <path
       style="color:#000000;display:inline;overflow:visible;visibility:visible;fill:none;stroke:#ff0000;stroke-width:0.50000002;stroke-opacity:1;marker:none;enable-background:accumulate;stroke-miterlimit:4;stroke-dasharray:none"
       d="m 1446.2667,300.96142 c -10.4694,0 -18.9001,8.43071 -18.9001,18.9 v 245.66667 h 347.7333 V 319.86142 h -158.7666 c 0,-10.46929 -8.3973,-18.9 -18.8666,-18.9 z"
       id="rect3919"
       inkscape:connector-curvature="0" />
    <path
       style="color:#000000;display:inline;overflow:visible;visibility:visible;fill:none;stroke:#ff0000;stroke-width:0.50000002;stroke-opacity:1;marker:none;enable-background:accumulate;stroke-miterlimit:4;stroke-dasharray:none"
       d="m 1956.5001,32.161424 c -10.4695,0 -18.9001,8.430709 -18.9001,18.9 H 1778.8333 V 296.72809 h 347.7333 V 51.061424 c 0,-10.469291 -8.3972,-18.9 -18.8665,-18.9 z"
       id="rect3927"
       inkscape:connector-curvature="0" />
    <path
       style="color:#000000;display:inline;overflow:visible;visibility:visible;fill:none;stroke:#ff0000;stroke-width:0.50000002;stroke-opacity:1;marker:none;enable-background:accumulate;stroke-miterlimit:4;stroke-dasharray:none"
       d="m 1446.2667,32.161424 c -10.4694,0 -18.9001,8.430709 -18.9001,18.9 V 296.72809 h 347.7333 V 51.061424 h -158.7666 c 0,-10.469291 -8.3973,-18.9 -18.8666,-18.9 z"
       id="rect3933"
       inkscape:connector-curvature="0" />
    <text
       xml:space="preserve"
       style="font-style:normal;font-variant:normal;font-weight:bold;font-stretch:normal;font-size:12.80000019px;line-height:0%;font-family:'BankGothic Md BT';-inkscape-font-specification:'BankGothic Md BT Bold';text-align:start;letter-spacing:0px;word-spacing:0px;writing-mode:lr-tb;text-anchor:start;fill:#000000;fill-opacity:1;stroke:none;stroke-width:0.50000002;stroke-miterlimit:4;stroke-dasharray:none"
       x="72.281288"
       y="44.990341"
       id="text3943"><tspan
         sodipodi:role="line"
         id="tspan3945"
         x="72.281288"
         y="44.990341"
         style="font-size:12.80000019px;line-height:1.25;stroke-width:0.50000002;stroke-miterlimit:4;stroke-dasharray:none">X-Wing T/65</tspan></text>
    <text
       xml:space="preserve"
       style="font-style:normal;font-variant:normal;font-weight:bold;font-stretch:normal;font-size:12.80000019px;line-height:0%;font-family:'BankGothic Md BT';-inkscape-font-specification:'BankGothic Md BT Bold';text-align:start;letter-spacing:0px;word-spacing:0px;writing-mode:lr-tb;text-anchor:start;fill:#000000;fill-opacity:1;stroke:none;stroke-width:0.50000002;stroke-miterlimit:4;stroke-dasharray:none"
       x="1480.3427"
       y="313.79034"
       id="text3947"><tspan
         sodipodi:role="line"
         id="tspan3949"
         x="1480.3427"
         y="313.79034"
         style="font-size:12.80000019px;line-height:1.25;stroke-width:0.50000002;stroke-miterlimit:4;stroke-dasharray:none">X-Wing T/70</tspan></text>
    <text
       xml:space="preserve"
       style="font-style:normal;font-variant:normal;font-weight:bold;font-stretch:normal;font-size:12.80000019px;line-height:0%;font-family:'BankGothic Md BT';-inkscape-font-specification:'BankGothic Md BT Bold';text-align:start;letter-spacing:0px;word-spacing:0px;writing-mode:lr-tb;text-anchor:start;fill:#000000;fill-opacity:1;stroke:none;stroke-width:0.50000002;stroke-miterlimit:4;stroke-dasharray:none"
       x="601.23907"
       y="44.990536"
       id="text3951"><tspan
         sodipodi:role="line"
         id="tspan3953"
         x="601.23907"
         y="44.990536"
         style="font-size:12.80000019px;line-height:1.25;stroke-width:0.50000002;stroke-miterlimit:4;stroke-dasharray:none">Y-Wing</tspan></text>
    <text
       xml:space="preserve"
       style="font-style:normal;font-variant:normal;font-weight:bold;font-stretch:normal;font-size:12.80000019px;line-height:0%;font-family:'BankGothic Md BT';-inkscape-font-specification:'BankGothic Md BT Bold';text-align:start;letter-spacing:0px;word-spacing:0px;writing-mode:lr-tb;text-anchor:start;fill:#000000;fill-opacity:1;stroke:none;stroke-width:0.50000002;stroke-miterlimit:4;stroke-dasharray:none"
       x="794.22565"
       y="44.990536"
       id="text3955"><tspan
         sodipodi:role="line"
         id="tspan3957"
         x="794.22565"
         y="44.990536"
         style="font-size:12.80000019px;line-height:1.25;stroke-width:0.50000002;stroke-miterlimit:4;stroke-dasharray:none">A-Wing</tspan></text>
    <text
       xml:space="preserve"
       style="font-style:normal;font-variant:normal;font-weight:bold;font-stretch:normal;font-size:12.80000019px;line-height:0%;font-family:'BankGothic Md BT';-inkscape-font-specification:'BankGothic Md BT Bold';text-align:start;letter-spacing:0px;word-spacing:0px;writing-mode:lr-tb;text-anchor:start;fill:#000000;fill-opacity:1;stroke:none;stroke-width:0.50000002;stroke-miterlimit:4;stroke-dasharray:none"
       x="2221.3916"
       y="41.343712"
       id="text3959"
       transform="scale(0.90379076,1.1064508)"><tspan
         sodipodi:role="line"
         id="tspan3961"
         x="2221.3916"
         y="41.343712"
         style="font-size:14.16257px;line-height:1.25;stroke-width:0.50000002;stroke-miterlimit:4;stroke-dasharray:none">B-Wing</tspan></text>
    <text
       xml:space="preserve"
       style="font-style:normal;font-variant:normal;font-weight:bold;font-stretch:normal;font-size:12.80000019px;line-height:0%;font-family:'BankGothic Md BT';-inkscape-font-specification:'BankGothic Md BT Bold';text-align:start;letter-spacing:0px;word-spacing:0px;writing-mode:lr-tb;text-anchor:start;fill:#000000;fill-opacity:1;stroke:none;stroke-width:0.50000002;stroke-miterlimit:4;stroke-dasharray:none"
       x="599.92322"
       y="313.79053"
       id="text3963"><tspan
         sodipodi:role="line"
         id="tspan3965"
         x="599.92322"
         y="313.79053"
         style="font-size:12.80000019px;line-height:1.25;stroke-width:0.50000002;stroke-miterlimit:4;stroke-dasharray:none">E-Wing</tspan></text>
    <text
       xml:space="preserve"
       style="font-style:normal;font-variant:normal;font-weight:bold;font-stretch:normal;font-size:12.80000019px;line-height:0%;font-family:'BankGothic Md BT';-inkscape-font-specification:'BankGothic Md BT Bold';text-align:start;letter-spacing:0px;word-spacing:0px;writing-mode:lr-tb;text-anchor:start;fill:#000000;fill-opacity:1;stroke:none;stroke-width:0.50000002;stroke-miterlimit:4;stroke-dasharray:none"
       x="1303.6732"
       y="313.79053"
       id="text3967"><tspan
         sodipodi:role="line"
         id="tspan3969"
         x="1303.6732"
         y="313.79053"
         style="font-size:12.80000019px;line-height:1.25;stroke-width:0.50000002;stroke-miterlimit:4;stroke-dasharray:none">K-Wing</tspan></text>
    <text
       xml:space="preserve"
       style="font-style:normal;font-variant:normal;font-weight:bold;font-stretch:normal;font-size:12.80000019px;line-height:0%;font-family:'BankGothic Md BT';-inkscape-font-specification:'BankGothic Md BT Bold';text-align:start;letter-spacing:0px;word-spacing:0px;writing-mode:lr-tb;text-anchor:start;fill:#000000;fill-opacity:1;stroke:none;stroke-width:0.50000002;stroke-miterlimit:4;stroke-dasharray:none"
       x="1303.3481"
       y="582.59058"
       id="text3971"><tspan
         sodipodi:role="line"
         id="tspan3973"
         x="1303.3481"
         y="582.59058"
         style="font-size:12.80000019px;line-height:1.25;stroke-width:0.50000002;stroke-miterlimit:4;stroke-dasharray:none">U-Wing</tspan></text>
    <text
       xml:space="preserve"
       style="font-style:normal;font-variant:normal;font-weight:bold;font-stretch:normal;font-size:12.80000019px;line-height:0%;font-family:'BankGothic Md BT';-inkscape-font-specification:'BankGothic Md BT Bold';text-align:start;letter-spacing:0px;word-spacing:0px;writing-mode:lr-tb;text-anchor:start;fill:#000000;fill-opacity:1;stroke:none;stroke-width:0.50000002;stroke-miterlimit:4;stroke-dasharray:none"
       x="97.554726"
       y="313.71396"
       id="text3975"><tspan
         sodipodi:role="line"
         id="tspan3977"
         x="97.554726"
         y="313.71396"
         style="font-size:12.80000019px;line-height:1.25;stroke-width:0.50000002;stroke-miterlimit:4;stroke-dasharray:none">Z-95</tspan></text>
    <text
       xml:space="preserve"
       style="font-style:normal;font-variant:normal;font-weight:bold;font-stretch:normal;font-size:12.80000019px;line-height:0%;font-family:'BankGothic Md BT';-inkscape-font-specification:'BankGothic Md BT Bold';text-align:start;letter-spacing:0px;word-spacing:0px;writing-mode:lr-tb;text-anchor:start;fill:#000000;fill-opacity:1;stroke:none;stroke-width:0.50000002;stroke-miterlimit:4;stroke-dasharray:none"
       x="51.330311"
       y="851.33551"
       id="text3979"><tspan
         sodipodi:role="line"
         id="tspan3981"
         x="51.330311"
         y="851.33551"
         style="font-size:12.80000019px;line-height:1.25;stroke-width:0.50000002;stroke-miterlimit:4;stroke-dasharray:none">Transport GR-75</tspan></text>
    <text
       xml:space="preserve"
       style="font-style:normal;font-variant:normal;font-weight:bold;font-stretch:normal;font-size:12.80000019px;line-height:0%;font-family:'BankGothic Md BT';-inkscape-font-specification:'BankGothic Md BT Bold';text-align:start;letter-spacing:0px;word-spacing:0px;writing-mode:lr-tb;text-anchor:start;fill:#000000;fill-opacity:1;stroke:none;stroke-width:0.50000002;stroke-miterlimit:4;stroke-dasharray:none"
       x="565.71814"
       y="851.31403"
       id="text3983"><tspan
         sodipodi:role="line"
         id="tspan3985"
         x="565.71814"
         y="851.31403"
         style="font-size:12.80000019px;line-height:1.25;stroke-width:0.50000002;stroke-miterlimit:4;stroke-dasharray:none">Corvette CR-90</tspan></text>
    <text
       xml:space="preserve"
       style="font-style:normal;font-variant:normal;font-weight:bold;font-stretch:normal;font-size:12.80000019px;line-height:0%;font-family:'BankGothic Md BT';-inkscape-font-specification:'BankGothic Md BT Bold';text-align:start;letter-spacing:0px;word-spacing:0px;writing-mode:lr-tb;text-anchor:start;fill:#000000;fill-opacity:1;stroke:none;stroke-width:0.50000002;stroke-miterlimit:4;stroke-dasharray:none"
       x="2001.454"
       y="313.81494"
       id="text3987"><tspan
         sodipodi:role="line"
         id="tspan3989"
         x="2001.454"
         y="313.81494"
         style="font-size:12.80000019px;line-height:1.25;stroke-width:0.50000002;stroke-miterlimit:4;stroke-dasharray:none">VCX-100</tspan></text>
    <text
       xml:space="preserve"
       style="font-style:normal;font-variant:normal;font-weight:bold;font-stretch:normal;font-size:12.80000019px;line-height:0%;font-family:'BankGothic Md BT';-inkscape-font-specification:'BankGothic Md BT Bold';text-align:start;letter-spacing:0px;word-spacing:0px;writing-mode:lr-tb;text-anchor:start;fill:#000000;fill-opacity:1;stroke:none;stroke-width:0.50000002;stroke-miterlimit:4;stroke-dasharray:none"
       x="1445.5294"
       y="583.41168"
       id="text3991"><tspan
         sodipodi:role="line"
         id="tspan3993"
         x="1445.5294"
         y="583.41168"
         style="font-size:12.80000019px;line-height:1.25;stroke-width:0.50000002;stroke-miterlimit:4;stroke-dasharray:none">Canonnière Auzituck</tspan></text>
    <text
       xml:space="preserve"
       style="font-style:normal;font-variant:normal;font-weight:bold;font-stretch:normal;font-size:12.80000019px;line-height:0%;font-family:'BankGothic Md BT';-inkscape-font-specification:'BankGothic Md BT Bold';text-align:start;letter-spacing:0px;word-spacing:0px;writing-mode:lr-tb;text-anchor:start;fill:#000000;fill-opacity:1;stroke:none;stroke-width:0.50000002;stroke-miterlimit:4;stroke-dasharray:none"
       x="592.18225"
       y="582.55988"
       id="text3995"><tspan
         sodipodi:role="line"
         id="tspan3997"
         x="592.18225"
         y="582.55988"
         style="font-size:12.80000019px;line-height:1.25;stroke-width:0.50000002;stroke-miterlimit:4;stroke-dasharray:none">ARC-170</tspan></text>
    <text
       xml:space="preserve"
       style="font-style:normal;font-variant:normal;font-weight:bold;font-stretch:normal;font-size:12.80000019px;line-height:0%;font-family:'BankGothic Md BT';-inkscape-font-specification:'BankGothic Md BT Bold';text-align:start;letter-spacing:0px;word-spacing:0px;writing-mode:lr-tb;text-anchor:start;fill:#000000;fill-opacity:1;stroke:none;stroke-width:0.50000002;stroke-miterlimit:4;stroke-dasharray:none"
       x="779.12366"
       y="583.4054"
       id="text3999"><tspan
         sodipodi:role="line"
         id="tspan4001"
         x="779.12366"
         y="583.4054"
         style="font-size:12.80000019px;line-height:1.25;stroke-width:0.50000002;stroke-miterlimit:4;stroke-dasharray:none">Chasseur TIE</tspan></text>
    <text
       xml:space="preserve"
       style="font-style:normal;font-variant:normal;font-weight:bold;font-stretch:normal;font-size:12.80000019px;line-height:0%;font-family:'BankGothic Md BT';-inkscape-font-specification:'BankGothic Md BT Bold';text-align:start;letter-spacing:0px;word-spacing:0px;writing-mode:lr-tb;text-anchor:start;fill:#000000;fill-opacity:1;stroke:none;stroke-width:0.50000002;stroke-miterlimit:4;stroke-dasharray:none"
       x="1298.2915"
       y="45.01495"
       id="text4003"><tspan
         sodipodi:role="line"
         id="tspan4005"
         x="1298.2915"
         y="45.01495"
         style="font-size:12.80000019px;line-height:1.25;stroke-width:0.50000002;stroke-miterlimit:4;stroke-dasharray:none">YT-1300</tspan></text>
    <text
       xml:space="preserve"
       style="font-style:normal;font-variant:normal;font-weight:bold;font-stretch:normal;font-size:12.80000019px;line-height:0%;font-family:'BankGothic Md BT';-inkscape-font-specification:'BankGothic Md BT Bold';text-align:start;letter-spacing:0px;word-spacing:0px;writing-mode:lr-tb;text-anchor:start;fill:#000000;fill-opacity:1;stroke:none;stroke-width:0.50000002;stroke-miterlimit:4;stroke-dasharray:none"
       x="788.07507"
       y="313.79053"
       id="text4007"><tspan
         sodipodi:role="line"
         id="tspan4009"
         x="788.07507"
         y="313.79053"
         style="font-size:12.80000019px;line-height:1.25;stroke-width:0.50000002;stroke-miterlimit:4;stroke-dasharray:none">YT-2400</tspan></text>
    <text
       xml:space="preserve"
       style="font-style:normal;font-variant:normal;font-weight:bold;font-stretch:normal;font-size:12.80000019px;line-height:0%;font-family:'BankGothic Md BT';-inkscape-font-specification:'BankGothic Md BT Bold';text-align:start;letter-spacing:0px;word-spacing:0px;writing-mode:lr-tb;text-anchor:start;fill:#000000;fill-opacity:1;stroke:none;stroke-width:0.50000002;stroke-miterlimit:4;stroke-dasharray:none"
       x="51.09613"
       y="583.75171"
       id="text4011"><tspan
         sodipodi:role="line"
         id="tspan4013"
         x="51.09613"
         y="583.75171"
         style="font-size:12.80000019px;line-height:1.25;stroke-width:0.50000002;stroke-miterlimit:4;stroke-dasharray:none">Navette d'assaut</tspan></text>
    <text
       xml:space="preserve"
       style="font-style:normal;font-variant:normal;font-weight:bold;font-stretch:normal;font-size:12.80000019px;line-height:0%;font-family:'BankGothic Md BT';-inkscape-font-specification:'BankGothic Md BT Bold';text-align:start;letter-spacing:0px;word-spacing:0px;writing-mode:lr-tb;text-anchor:start;fill:#000000;fill-opacity:1;stroke:none;stroke-width:0.50000002;stroke-miterlimit:4;stroke-dasharray:none"
       x="1487.8967"
       y="44.913975"
       id="text4015"><tspan
         sodipodi:role="line"
         id="tspan4017"
         x="1487.8967"
         y="44.913975"
         style="font-size:12.80000019px;line-height:1.25;stroke-width:0.50000002;stroke-miterlimit:4;stroke-dasharray:none">HWK-290</tspan></text>
    <text
       xml:space="preserve"
       style="font-style:normal;font-variant:normal;font-weight:bold;font-stretch:normal;font-size:12.80000019px;line-height:0%;font-family:'BankGothic Md BT';-inkscape-font-specification:'BankGothic Md BT Bold';text-align:start;letter-spacing:0px;word-spacing:0px;writing-mode:lr-tb;text-anchor:start;fill:#000000;fill-opacity:1;stroke:none;stroke-width:0.50000002;stroke-miterlimit:4;stroke-dasharray:none"
       x="1946.022"
       y="582.67023"
       id="text4019"><tspan
         sodipodi:role="line"
         id="tspan4021"
         x="1946.022"
         y="582.67023"
         style="font-size:12.80000019px;line-height:1.25;stroke-width:0.50000002;stroke-miterlimit:4;stroke-dasharray:none">Bombardier Scurrg H-6</tspan></text>
    <path
       inkscape:connector-curvature="0"
       id="path3047"
       d="m 38.266667,569.76142 c -10.46929,0 -18.9,8.43071 -18.9,18.9 V 834.32809 H 367.0999 V 588.66142 H 208.33333 c 0,-10.46929 -8.39737,-18.9 -18.86666,-18.9 z"
       style="color:#000000;display:inline;overflow:visible;visibility:visible;fill:none;stroke:#ff0000;stroke-width:0.50000002;stroke-opacity:1;marker:none;enable-background:accumulate;stroke-miterlimit:4;stroke-dasharray:none" />
    <path
       inkscape:connector-curvature="0"
       id="path3049"
       d="m 38.266667,300.96142 c -10.46929,0 -18.9,8.43071 -18.9,18.9 V 565.52809 H 367.0999 V 319.86142 H 208.33333 c 0,-10.46929 -8.39737,-18.9 -18.86666,-18.9 z"
       style="color:#000000;display:inline;overflow:visible;visibility:visible;fill:none;stroke:#ff0000;stroke-width:0.50000002;stroke-opacity:1;marker:none;enable-background:accumulate;stroke-miterlimit:4;stroke-dasharray:none" />
    <g
       transform="matrix(0.77150697,0,0,0.77150697,111.78065,336.88147)"
       id="g879">
      <g
         id="g180">
        <circle
           style="fill:#000000;fill-opacity:1;stroke:none;stroke-width:0.26458332;stroke-opacity:1"
           id="path42"
           cx="84.427177"
           cy="140.82549"
           r="1.2514023" />
        <circle
           style="fill:#000000;fill-opacity:1;stroke:none;stroke-width:0.26458332;stroke-opacity:1"
           id="path48"
           cx="121.59852"
           cy="104.88294"
           r="1.503391" />
        <circle
           style="fill:#000000;fill-opacity:1;stroke:none;stroke-width:0.26458332;stroke-opacity:1"
           id="path50"
           cx="101.96738"
           cy="113.38178"
           r="2.271791" />
        <circle
           style="fill:#000000;fill-opacity:1;stroke:none;stroke-width:0.26458332;stroke-opacity:1"
           id="path52"
           cx="92.675705"
           cy="122.67345"
           r="2.4054255" />
        <circle
           style="fill:#000000;fill-opacity:1;stroke:none;stroke-width:0.26458332;stroke-opacity:1"
           id="path54"
           cx="99.248184"
           cy="128.99277"
           r="2.5724692" />
        <circle
           style="fill:#000000;fill-opacity:1;stroke:none;stroke-width:0.26458332;stroke-opacity:1"
           id="path58"
           cx="111.10706"
           cy="119.36598"
           r="2.1715648" />
        <circle
           style="fill:#000000;fill-opacity:1;stroke:none;stroke-width:0.26458332;stroke-opacity:1"
           id="path60"
           cx="98.58905"
           cy="118.29691"
           r="3.4410951" />
        <path
           style="fill:#000000;fill-opacity:1;stroke:none;stroke-width:0.26458332px;stroke-linecap:butt;stroke-linejoin:miter;stroke-opacity:1"
           d="m 90.525274,123.83425 1.700554,3.63221 -9.562952,9.18796 -0.712686,-0.82297 -0.868627,0.53454 0.569276,1.3782 0.347467,1.24666 1.377635,1.0517 2.642444,4.47544 -0.24954,0.36793 0.233297,0.35761 0.208892,-0.33089 1.140629,1.98025 0.40041,-0.2155 -0.842192,-2.12945 0.34518,-0.069 -0.187848,-0.41612 -0.359089,0.009 -1.913833,-4.44327 1.350016,-1.23308 2.589172,0.16705 5.061417,-4.74404 0.250566,-2.23838 1.503392,-1.45328 2.214821,0.9973 4.068295,-2.0355 0.8191,-1.6939 11.8071,5.93933 1.80407,2.20498 7.69775,1.84927 2.92622,-2.85153 -5.38273,-5.53012 -1.18222,-0.7608 -1.08958,0.0258 -8.26897,-6.3958 1.72481,-1.00325 0.0757,-2.78766 -1.7289,-1.38368 1.08528,-2.67744 2.7159,0.33409 4.87361,-4.97622 -0.29495,-2.35413 1.52534,-1.48955 6.97329,0.71784 0.64054,1.01908 0.69429,0.0536 -0.3574,-0.97204 1.13644,0.11699 0.0438,-0.54067 -1.08704,-0.23384 0.38447,-0.9828 -0.64883,-0.0154 -0.73847,0.84371 -6.79173,-1.05294 -0.73012,-0.95355 -1.98858,-0.62553 -1.62963,0.31241 0.084,1.53402 -9.54889,7.92881 -2.13815,-0.66817 -2.33861,-0.53454 -3.875413,5.81311 -2.931283,2.93116 -1.841346,0.98039 z"
           id="path62"
           inkscape:connector-curvature="0"
           sodipodi:nodetypes="ccccccccccccccccccccccccccccccccccccccccccccccccccccccccccccccccc" />
      </g>
    </g>
    <path
       style="fill:#000000;fill-opacity:1;stroke:none;stroke-width:0.13912013px;stroke-linecap:butt;stroke-linejoin:miter;stroke-opacity:1"
       d="m 525.80236,157.71075 0.82356,2.21175 0.35632,-0.0933 2.02859,5.06191 -0.23882,0.69127 c 0,0 1.63676,3.88003 2.50129,4.51971 0.86453,0.63969 1.8053,0.8305 2.83864,0.79197 1.03334,-0.0386 1.88405,-0.74319 2.25738,-1.4409 0.37333,-0.6977 0.0786,-2.14003 -0.15405,-2.87274 -0.23263,-0.73269 -0.77372,-1.61227 -0.77372,-1.61227 l -0.36905,0.072 -0.29811,-0.74529 4.42203,-1.7887 1.93775,1.68933 1.54025,-0.0994 1.68932,1.58993 -1.29183,2.63335 c 4.70262,4.78396 8.28097,6.75729 12.42143,10.13589 l 1.52403,0.34428 0.59542,-0.24491 1.39734,0.98347 0.48833,-0.27754 -0.83675,-1.26401 2.64488,-1.52269 1.48267,1.02109 0.51443,-0.34478 -0.85433,-1.32825 1.14828,-0.70713 -0.0467,-0.90943 c -2.24013,-3.91092 -4.641,-7.68423 -7.46138,-11.20236 0,0 -2.83858,-0.8443 -3.67676,-0.89435 -0.71521,0.19589 -1.54026,0.59623 -1.54026,0.59623 l -1.14278,-0.89434 v -1.19247 l -1.54025,-1.39119 2.43459,-1.04341 c 0,0 1.65608,1.20909 2.5661,1.62509 0.91004,0.41599 2.08918,0.77982 2.83209,0.89434 0.74293,0.11453 1.45793,0.0687 2.08483,-0.17566 0.62691,-0.24431 1.04203,-0.60512 1.29381,-1.51366 0.25178,-0.90855 -0.60498,-2.14521 -1.2281,-3.08354 -0.62313,-0.93833 -2.21663,-1.71793 -2.21663,-1.71793 l -0.74945,-0.13253 -7.41473,-3.79618 -0.78042,-0.63688 -1.13622,-0.29511 -2.41454,1.34151 -0.21932,1.59848 0.95858,1.73297 2.25041,1.57539 -2.03711,0.94404 -1.39121,-0.89435 -1.06695,0.30597 -1.86451,-0.25624 -0.59623,1.09309 -2.18617,1.14277 0.14905,1.49057 -4.58069,1.72505 -1.82877,-2.6691 0.14604,-0.44115 -1.22157,-2.06321 -1.60751,0.0201 -1.98743,0.74528 z"
       id="path902"
       inkscape:connector-curvature="0"
       sodipodi:nodetypes="ccccczzzzccccccccccccccccccccccccccczzzzzccccccccccccccccccccccc" />
    <path
       style="fill:#000000;fill-opacity:1;stroke:none;stroke-width:0.13195351px;stroke-linecap:butt;stroke-linejoin:miter;stroke-opacity:1"
       d="m 1589.3103,164.5508 1.3667,1.43736 -5.7494,2.07355 -2.592,-2.68619 0.2592,-0.41236 4.5006,-1.8497 1.2841,0.61264 1.0722,-0.6362 0.1885,-0.73046 -1.9322,-2.4977 -0.7069,-4.61836 3.6287,0.14138 1.3196,3.91147 1.4373,-0.4477 v -3.69941 l 4.0293,0.63621 0.165,3.79367 3.5109,1.4609 1.9321,0.0471 c 4.6358,1.8252 9.3592,3.38717 13.7609,5.91435 1.5687,2.1001 2.5239,4.30246 3.346,6.52697 l -0.9661,0.21207 c -5.9812,-1.17387 -11.986,-3.08357 -17.6017,-5.63157 l -0.5795,0.51316 2.2287,1.27763 -0.1071,0.15653 -2.371,-1.20188 -0.5786,0.48842 -3.305,-1.79938 1.3917,-1.45652 -4.8438,-2.38427 -1.402,1.20173 -1.9321,-0.89541 z"
       id="path1062"
       inkscape:connector-curvature="0"
       sodipodi:nodetypes="cccccccccccccccccccccccccccccccccc" />
    <circle
       style="fill:none;fill-opacity:1;stroke:#00ff00;stroke-width:0.87536091;stroke-miterlimit:4;stroke-dasharray:none;stroke-opacity:1"
       id="circle5568"
       cx="544.70001"
       cy="970.84479"
       r="46.806416" />
    <circle
       r="28.232683"
       style="fill:none;fill-opacity:1;stroke:#00ff00;stroke-width:0.528;stroke-miterlimit:4;stroke-dasharray:none;stroke-opacity:1"
       id="circle5580"
       cx="544.70001"
       cy="702.04474" />
    <circle
       style="fill:none;fill-opacity:1;stroke:#00ff00;stroke-width:0.70028871;stroke-miterlimit:4;stroke-dasharray:none;stroke-opacity:1"
       id="circle5590"
       cx="897.23328"
       cy="433.24475"
       r="37.445129" />
    <path
       style="fill:#000000;fill-opacity:1;stroke:none;stroke-width:0.13898362px;stroke-linecap:butt;stroke-linejoin:miter;stroke-opacity:1"
       d="m 175.93373,162.15502 0.56552,0.0533 0.59138,0.83903 -0.0433,0.25305 0.24032,-0.0242 0.36679,0.42606 0.3723,-0.11867 -0.37575,-0.48171 0.01,-0.22661 -0.23609,-0.0469 -0.36367,-0.64234 8.22979,-0.0684 -9.40813,5.98699 2.21089,3.4443 0.62829,0.14926 2.53688,3.72601 -0.0476,0.19902 0.3075,0.32073 0.0622,-0.1579 0.63053,0.92889 0.42832,-0.22337 -0.57583,-1.05079 0.19448,0.0166 -0.23727,-0.39663 -0.22061,-0.05 -2.33956,-3.54575 0.32504,-0.55937 -0.42874,-0.82318 6.94919,-4.32988 c 0.96925,0.38487 2.6236,0.59261 2.6236,0.59261 1.84957,0.23626 2.5333,-0.25459 1.97354,-1.71517 l 12.82926,4.0626 3.1004,0.58801 c 2.96504,0.57548 3.69382,-0.8634 3.68841,-1.49675 -0.005,-0.63335 -2.56585,-2.29857 -2.56585,-2.29857 l -3.1004,-1.01565 -4.86443,-2.83313 0.31712,-0.0185 2.37575,1.34414 2.63712,-0.68667 5.79352,1.48445 0.0191,0.24663 0.24634,0.0563 0.0325,-0.22143 0.51549,0.13101 0.20292,-0.36115 -0.50595,-0.21124 0.12157,-0.17103 -0.24281,-0.13113 -0.20299,0.1573 -6.17789,-1.67216 -0.0556,-0.65375 -3.64642,-1.44282 c 0,0 -2.40096,-0.0917 -3.35418,0.386 l -1.28292,-0.64146 7.28826,-5.35581 5.58458,0.23908 0.1026,0.41019 0.23661,0.0397 0.12082,-0.45386 1.1176,0.0729 0.1026,-0.42625 -1.17791,-0.0764 -0.0639,-0.40977 -0.3232,0.009 -0.11384,0.353 -5.59946,-0.33034 -1.2879,-0.9675 -3.68842,-0.16036 c -1.20299,0.13922 -0.73866,0.69035 -0.40092,1.38984 l -4.00914,2.21839 -2.8064,-0.24055 c -2.89431,-1.19047 -2.93227,1.03012 -1.49675,1.76403 l -2.77967,0.48109 c -2.4,-1.14655 -5.01696,-1.10791 -4.08932,0.82856 l -1.47002,1.22947 -5.6277,0.41267 -0.35153,-0.34956 c -1.52209,-0.45616 -1.93994,-0.38601 -1.60897,0.44072 z"
       id="path1880"
       inkscape:connector-curvature="0"
       sodipodi:nodetypes="cccccccccccccccccccccccccccccsccczcccccccccccccccccccccccccccccccccccccccccccccc"
       inkscape:transform-center-x="7.2377005"
       inkscape:transform-center-y="4.3248324" />
    <path
       style="fill:#000000;fill-opacity:1;stroke:none;stroke-width:0.16647571px;stroke-linecap:butt;stroke-linejoin:miter;stroke-opacity:1"
       d="m 887.4586,154.37582 c 0.26009,-1.1454 0.47341,-2.30481 2.48045,-2.22819 l 1.09308,-0.67267 0.0841,-4.12006 3.48944,2.01799 1.89187,4.87681 1.80778,1.2192 c 1.84932,-0.11517 3.67729,-0.35838 5.63356,0.16817 l 2.85618,2.09419 1.50399,1.61397 0.75353,0.47616 0.0974,0.56059 0.36873,0.29132 0.49429,0.19223 0.59472,0.40509 -0.32583,0.48347 -0.64881,-0.42384 -0.29784,-0.46188 -0.43381,-0.31163 -0.84761,-0.28698 -1.5504,-0.0922 6.97888,12.19202 2.64863,2.69065 -4.38704,3.14956 -0.87127,-0.51755 0.34006,0.92962 -4.457,2.91276 -2.81678,-1.9339 -21.56727,-11.89774 -0.29429,0.42041 0.79878,1.34533 -0.42085,0.4255 0.60569,0.99429 0.24964,-0.12083 0.69367,1.28752 -0.64639,0.29955 -0.7337,-1.27647 0.2169,-0.10596 -0.64145,-0.94827 -1.53917,-0.60727 -1.82032,-2.84884 0.35735,-2.50148 -0.86185,-1.24021 0.4099,-0.24174 0.7988,1.31378 0.89338,0.86186 0.7147,1.34534 0.75675,-0.25225 -1.30329,-2.81679 1.84983,-1.72369 -3.02699,-3.82577 c -0.78717,-2.66899 0.5949,-3.38566 2.14412,-3.9519 0,0 -0.25225,-4.96089 -0.0841,-4.66661 0.16816,0.2943 3.23719,3.02699 3.23719,3.02699 l 0.5045,3.23719 1.09308,0.042 c 0.23917,-1.10148 1.13512,-0.79877 1.13512,-0.79877 z"
       id="path5735"
       inkscape:connector-curvature="0"
       sodipodi:nodetypes="cccccccccccccccccccccccccccccccccccccccccccccccccccccccccc" />
    <path
       style="fill:#000000;fill-opacity:1;stroke:none;stroke-width:0.17429021px;stroke-linecap:butt;stroke-linejoin:miter;stroke-opacity:1"
       d="m 190.97325,706.04504 1.54053,0.83628 c 0.80483,1.43366 1.55931,3.20732 2.81694,1.58454 l 2.949,2.42083 0.57219,-0.17606 2.24477,2.20074 0.83628,-0.61621 2.29227,1.49116 1.2239,1.42638 3.15421,1.51607 -2.1395,-2.8975 -1.23848,-0.85734 -1.96201,-2.23894 c 0.70092,0.87267 1.40185,1.38395 2.10279,0.85593 l 1.5577,0.71885 1.91755,1.82651 3.28953,1.62969 -2.41175,-2.85036 -1.87377,-1.2371 -1.14227,-1.17218 c 0,0 -0.50901,-1.0738 -1.29298,-1.86441 l 0.22006,-0.35211 0.88031,0.39613 0.39613,-0.48416 0.83628,-0.52818 2.42083,1.54052 c 1.54451,0.5397 1.40098,-0.51101 1.4525,-1.14439 l -6.03005,-5.01769 c 3.25518,-1.50432 3.72921,-6.30434 -4.97369,-6.86634 l -2.949,-2.50884 c 0.2115,-1.63197 -0.63946,-0.96198 -1.05636,-1.23243 0.23707,-1.24192 -0.1254,-1.9218 -1.7606,-1.40847 l -3.16907,-2.6409 -0.92432,-0.0881 c -0.66373,-0.71477 -2.0804,-1.79571 -1.84863,0.17606 l -1.40847,0.17606 -0.13201,0.92431 c -2.61566,-0.22317 -3.52793,1.16186 -3.23949,2.42963 l -0.63382,0.47536 -1.36446,0.26409 -0.92432,-0.52818 -1.80461,2.0687 v 1.67257 c 1.20046,0.67751 2.56636,1.18957 3.87332,1.7606 l -7.70261,7.21844 -1.23243,5.0177 6.11808,6.07406 z"
       id="path874"
       inkscape:connector-curvature="0"
       sodipodi:nodetypes="cccccccccccccccccccccccccccccccccccccccccccccccc" />
    <path
       style="fill:#000000;fill-opacity:1;stroke:none;stroke-width:0.09925318px;stroke-linecap:butt;stroke-linejoin:miter;stroke-opacity:1"
       d="m 155.9781,963.19261 c -0.65275,0.48354 -0.78436,0.96709 0,1.45064 l 2.80636,0.66052 -0.28687,2.85151 c -0.26078,1.63505 1.08438,1.63716 2.68146,1.41433 l 4.63574,0.25223 c 0.27586,0.86699 1.445,1.27838 2.76084,0.62387 l 2.55032,0.39566 c 0.6612,1.27946 1.84395,2.07166 3.40485,2.50556 0.54975,0.8687 1.81859,1.1386 3.05544,1.255 l 2.3268,1.4998 c 0.28294,1.7012 2.18969,2.5532 3.24516,1.2917 l 14.50621,4.6982 3.66473,1.8678 2.38228,-0.7673 c 5.7054,1.7854 14.08476,2.4789 17.92643,-0.072 l -1.88963,-0.5726 0.2863,-0.878 1.52697,0.4581 0.70622,-0.5344 1.0498,0.3054 5.99603,-2.7617 1.71507,-0.1396 c -1.84745,-8.75662 -22.79145,-15.32643 -41.68156,-16.13287 l -13.98268,-2.41045 -0.0223,-1.04023 -0.50579,-0.0383 0.0119,0.96388 -2.98386,-0.56635 0.11763,-0.9259 c 1.4397,0.0697 2.0657,-1.30465 0.41256,-1.75604 l -0.99216,-0.17042 c -2.24556,-0.22303 -2.30374,1.34227 -0.53444,1.79232 l -0.14311,0.85342 -11.35464,-1.69548 -1.86319,4.63489 z"
       id="path1824"
       inkscape:connector-curvature="0"
       sodipodi:nodetypes="ccccccccccccccccccccccccccccccccccccc" />
    <path
       style="fill:#000000;fill-opacity:1;stroke:none;stroke-width:0.10521819px;stroke-linecap:butt;stroke-linejoin:miter;stroke-opacity:1"
       d="m 507.47878,963.27219 c -2.13556,-2.7324 2.11258,-6.6903 5.74654,-3.80404 l 1.39616,1.39616 0.66773,0.0202 v -0.8296 l -0.82961,-0.7689 0.38446,-1.11289 -1.86156,-1.29499 -2.34717,-2.8328 -0.52609,-1.23429 -2.44835,-2.46858 c -1.85618,-2.3376 2.2796,-6.14698 5.48349,-3.6624 l 1.94249,1.55803 1.01171,-0.44515 -0.52609,-0.62726 c -0.86702,-1.05163 3.24178,-4.62988 5.90841,-1.61874 l 2.22577,1.94248 0.95101,-0.32374 c -1.71317,-2.93398 2.91562,-5.84524 5.64536,-3.03515 l 1.5378,1.49733 h 0.6475 c -1.85611,-2.63213 2.95873,-5.56136 6.07028,-1.94248 l 1.61874,1.61874 1.5378,-0.0809 4.04686,3.39935 c 0,0 4.5999,7.0077 5.05856,7.99254 0.45867,0.98483 0.43432,1.89991 0.0607,2.54951 -0.37362,0.64961 -1.20305,2.10397 -2.42811,2.38765 l 0.26305,1.90202 2.46858,0.22258 c 3.30461,1.35442 3.61893,3.34207 2.34718,5.66559 l 1.69967,3.15655 3.80404,2.91374 1.69968,0.24281 1.69969,-0.56657 1.29499,0.16189 0.8903,2.26624 2.54446,0.41475 0.0252,1.0573 1.8312,0.4401 -0.0252,0.3136 -1.79579,-0.3794 0.01,1.1483 1.86156,0.8094 c 1.93776,1.0102 1.58928,2.4238 0.97124,3.885 l 3.52897,4.2038 6.96915,0.2763 c 1.38774,0.635 1.90821,2.3669 1.94739,3.3377 0.0393,0.9707 -0.0711,2.2332 -0.8715,3.1087 l -4.7753,2.2662 -0.42348,0.5661 -3.05681,0.7289 -1.78062,-0.2428 -6.15122,0.081 c -1.08837,-0.807 -1.42603,-1.8018 -1.29499,-2.9137 l -1.94249,-1.295 0.89032,-0.8094 v -1.214 l -1.295,-0.2428 -1.05218,-1.6188 -0.80937,-0.1619 -4.85623,-3.1565 -2.38603,0.066 -0.52769,-0.3899 -0.0193,-0.9668 -1.19483,-0.085 -0.6475,-0.4856 -0.0287,-0.8 -0.8617,-0.01 -0.72843,-0.6475 -0.009,-0.876 -1.04278,-0.015 -0.89031,-0.6475 -3.9e-4,-0.8903 -1.29458,-1.3759 -0.0192,-1.1188 -11.23107,-5.67993 -3.31842,0.56656 -2.75187,-2.26624 -5.82746,0.24282 -5.58466,-0.80938 -6.39403,-5.01809 0.20234,-0.62726 z"
       id="path1796"
       inkscape:connector-curvature="0"
       sodipodi:nodetypes="ccccccccccccccccccccccccczzcccccccccccccccccccczcccccccccccccccccccccccccccccccccccc" />
    <path
       style="fill:#000000;fill-opacity:1;stroke:none;stroke-width:0.13630348px;stroke-linecap:butt;stroke-linejoin:miter;stroke-opacity:1"
       d="m 563.86353,701.25629 0.53375,1.59581 2.58062,4.04906 c 0.50038,0.43727 0.47298,0.23606 0.2334,-0.38248 l -2.449,-3.87497 0.0388,-2.4639 -11.21352,-1.77941 6.1165,-2.07592 c 0.23013,-0.3283 -0.004,-0.34796 -0.20392,-0.38913 l -10.87995,2.39091 -2.14997,-1.77921 c -0.52685,-0.32757 -1.02929,-0.21451 -1.50674,0.34753 l -0.42102,0.0969 c -0.38126,-0.87753 -1.21209,-1.5851 -2.37971,-1.73882 0,0 0.0239,-0.15115 -0.21794,-0.45004 l -1.66054,0.15131 0.0143,0.46021 c -1.36319,0.57603 -1.58207,1.18337 -1.09433,2.61531 l -0.24884,0.0451 c -0.6671,-1.64059 -3.09561,-0.97373 -2.86506,0.84522 l -8.74839,-1.13058 c -0.36339,-0.008 -0.51739,0.40002 -0.27809,0.50044 l 5.76444,1.59393 -10.80587,3.07679 0.64289,2.62288 2.24078,3.54971 c 0.42265,0.27401 0.3811,0.19561 0.14881,-0.344 l -1.81688,-3.19977 -0.20981,-1.61235 7.60883,-1.12184 -3.59468,1.7156 c -0.26201,0.21765 -0.0955,0.60244 0.29653,0.48178 l 9.71522,-2.42564 c 1.02337,1.33342 2.19139,1.94363 3.70707,0.81562 l 2.96628,1.13333 c 0,0 0.63758,1.94723 1.25068,2.88358 0.61308,0.93636 1.72453,0.54987 1.93651,-0.0132 0.21212,-0.56351 -0.0602,-3.25374 -0.51891,-5.33806 1.74487,1.55678 3.17091,0.70498 3.75726,-0.93437 l 9.09455,2.0506 c 0.29498,0.0126 0.39544,-0.0921 0.19672,-0.37491 l -4.07765,-2.00175 z"
       id="path1852"
       inkscape:connector-curvature="0"
       sodipodi:nodetypes="cccccccccccccsccccccccccccccccccccczzcccccc" />
    <path
       style="fill:#000000;fill-opacity:1;stroke:none;stroke-width:0.16304168px;stroke-linecap:butt;stroke-linejoin:miter;stroke-opacity:1"
       d="m 527.55993,425.81279 2.96454,-3.33511 4.57033,1.23523 4.98208,-2.55279 0.4941,-0.82349 4.65269,-0.28822 6.25848,2.59397 -0.20586,0.41174 6.05261,2.26459 -0.20587,0.37057 -6.09379,-2.26459 -0.20587,0.53527 3.82921,1.31759 c 1.28775,0.8387 0.70901,2.73372 -0.94701,2.55279 l -4.03507,-1.31756 -1.19406,2.30575 2.34693,0.61761 0.98818,1.11171 c 0,0 6.33297,2.96996 8.35836,4.03507 2.02541,1.06512 3.56889,2.77963 3.41748,3.9939 -0.15142,1.21429 -3.12373,0.29728 -4.3233,-0.0823 -1.19959,-0.37964 -2.38812,-0.86467 -2.38812,-0.86467 l -10.49941,-2.84101 -2.05873,-0.0824 -7.6584,6.34082 3.12925,1.07054 c 1.00821,1.53124 -0.1367,2.63189 -1.11172,2.18225 l -3.95272,-1.15289 -0.69997,0.90584 6.05261,1.97636 -0.20586,0.41174 -6.17283,-1.97305 -0.41174,0.86135 -5.47949,-1.6058 -0.65879,-1.2764 0.24705,-1.4411 c -2.39656,-0.45188 -1.86822,-3.33728 0.12352,-2.75868 l 2.05872,-8.23485 -0.65878,-2.63515 z"
       id="path938"
       inkscape:connector-curvature="0"
       sodipodi:nodetypes="cccccccccccccccccczzzccccccccccccccccccc" />
    <path
       style="fill:#000000;fill-opacity:1;stroke:none;stroke-width:0.20102625px;stroke-linecap:butt;stroke-linejoin:miter;stroke-opacity:1"
       d="m 1610.1361,700.57964 0.4766,1.02633 c 3.2835,3.33326 7.24,6.62027 8.6802,11.27021 l 0.7116,0.86305 0.051,1.92 -0.6082,0.6691 -0.5086,1.97997 c -2.2295,1.36424 -4.8272,2.05374 -7.8689,1.92913 l -4.3659,-2.13218 -8.0211,-8.3765 c -0.7481,0.26545 -0.8492,0.94259 -0.8631,1.6753 0,0 1.2436,1.30275 1.4215,1.82759 0.1779,0.52484 0.1617,1.51612 -0.7107,1.3707 -1.1884,-0.19809 -3.1113,-1.50472 -4.6198,-3.50289 v -1.06612 l -1.1677,-2.38603 c -0.2056,-1.24289 0.2656,-1.2449 0.8631,-1.01532 l 1.726,2.13219 c 0.8424,-0.38151 0.9515,-1.08886 1.2184,-1.72608 l -2.9444,-4.31516 -0.1016,-2.69065 -1.8276,1.67531 -2.1322,-0.0508 c -3.6008,-2.86926 -5.3039,-5.88449 -7.2089,-8.88419 -0.01,-1.24764 0.3076,-1.37713 0.5584,-1.72607 l -0.2538,-1.31994 0.8123,-0.50767 0.5076,0.25384 c 1.2703,-0.81565 1.9972,-9.7e-4 2.8938,0.3046 l 0.9851,-0.0411 3.4627,2.60969 c 0.5947,0.26973 1.1586,-0.18251 1.0096,-0.79168 l -0.076,-0.86304 -2.9445,-2.33527 c -0.5746,-0.67937 1.7089,-2.75558 2.386,-2.23375 l 0.9138,0.60921 1.5738,-0.25383 1.1169,-2.48758 1.2184,-0.1523 c 0.7603,1.5371 1.5101,2.90739 2.3352,5.48281 l 6.0413,1.42147 1.6245,-0.3046 v -0.40623 l -0.9645,-1.01534 -0.051,-1.31993 -0.5589,-0.51819 c -0.4765,-0.5573 0.269,-1.5761 0.9645,-1.16764 l 0.4066,0.16283 2.4369,-0.91381 1.3396,0.43725 c 3.5853,0.64458 5.4511,1.55452 8.0522,3.45029 l 0.2031,0.93531 1.3199,0.96457 c 1.7165,1.70559 -1.5837,6.19023 -3.1983,5.17821 l -4.5182,-2.08144 c -1.3417,1.2834 -2.6434,2.30691 -4.1121,4.41671 z"
       id="path5564"
       inkscape:connector-curvature="0"
       sodipodi:nodetypes="ccccccccccczscccccccccccccccccccccccccccccccccccccccccccc" />
    <path
       style="fill:#000000;fill-opacity:1;stroke:none;stroke-width:0.14048205px;stroke-linecap:butt;stroke-linejoin:miter;stroke-opacity:1"
       d="m 1597.1776,430.1467 -2.3415,-0.85145 -0.071,-1.34813 -6.0311,-2.12862 -1.7739,0.14191 -2.6676,1.85771 -0.6558,1.45204 -1.0503,0.1627 0.6515,-1.15286 -0.8683,0.65224 -0.034,-0.30423 0.922,-0.66478 -0.7468,-0.80484 1.0557,-0.21717 0.4132,0.43827 2.6253,-1.84481 0.1419,-0.85145 2.5931,-1.59972 c 0.5167,-0.32455 1.2239,0.2145 0.85,0.80631 l 5.2843,1.64486 3.051,0.0709 1.4191,-1.63194 c 0.725,-0.59259 2.2367,0.22184 1.9867,0.7805 l -1.3481,1.41908 c -0.1328,0.78418 0.4852,0.99334 1.1147,0.6115 0.2033,-0.93687 4.237,-0.48373 4.2172,0.14706 0.355,0.42473 1.0422,0.39434 1.2313,-0.15545 l 0.4258,-1.38361 c 0.2628,-1.774 2.5507,-1.05701 2.5189,-0.21286 l -0.3548,1.49004 1.7029,-0.21287 0.5676,0.21287 5.5344,-0.14191 0.1065,-0.45418 c 0.1525,-0.97908 2.4172,-1.08464 2.4834,0.28382 l -0.1774,1.16371 -1.2594,0.72728 -0.2484,1.73838 0.4612,0.0532 -0.3086,1.32343 0.01,1.28414 -1.49,-0.17738 0.2458,-1.33805 0.02,-1.21631 0.4435,0.0532 0.2128,-1.66743 -7.4501,1.13527 -0.7096,0.9224 0.4257,1.13527 1.8448,0.56764 0.2129,0.42572 5.2506,2.12863 c 0.1752,-0.79596 1.6914,-0.71873 1.632,0.35476 l -0.2484,1.73838 -0.8869,1.45456 -0.745,3.38806 0.5321,0.0887 -0.4612,0.74502 -0.1419,1.11752 -1.2949,-0.21287 0.4612,-1.08204 -0.071,-0.85145 0.4612,0.10643 0.6386,-3.35258 -0.6918,-0.44347 0.3193,-1.41908 -5.7473,-1.7029 -1.7738,0.28382 c -2.6605,1.61408 -4.4349,0.96374 -5.3925,-1.77386 l -4.8959,5.39252 -0.7198,1.13526 c -0.5801,0.76171 -1.0553,1.62338 -1.9055,2.12863 -2.1431,0.11735 -2.0069,-0.24018 -2.6962,-0.42572 0.1597,-1.29491 0.7756,-2.33557 1.3971,-3.56451 l 0.5186,-0.33797 1.632,-2.69626 c -1.4077,0.0563 -2.3819,-0.6243 -3.122,-1.7029 l -3.8115,0.23795 -2.0577,2.17449 -0.7295,0.0709 -2.9307,3.23094 -0.2834,1.47712 -1.327,-0.096 0.1168,-0.46728 -0.2454,0.20462 -0.075,-0.29993 0.4086,-0.42215 0.075,-0.47319 -0.634,-1.23832 1.3521,0.0251 0.4053,0.72675 2.7127,-3.09332 1.2487,-2.4834 z"
       id="path4984"
       inkscape:connector-curvature="0"
       sodipodi:nodetypes="cccccccccccccccccccccccccccccccccccccccccccccccccccccccccccccccccccccccccccccccccccccccccccccc" />
    <path
       style="fill:#000000;fill-opacity:1;stroke:none;stroke-width:0.11811785px;stroke-linecap:butt;stroke-linejoin:miter;stroke-opacity:1"
       d="m 905.25179,413.09192 -13.04639,4.91578 -0.0248,0.62395 -0.4591,0.20259 0.36731,1.85115 -0.50598,0.25309 0.84356,4.04967 -2.45372,1.24342 c -1.23199,1.69994 -1.77867,0.93143 -2.65347,1.34474 -0.40993,1.2286 -1.31484,1.25435 -2.2729,1.15181 l -5.10672,2.58788 -0.59041,-0.9281 -2.27819,0.9281 -1.09694,-1.43425 c -0.42141,-0.88337 -1.90689,-0.88191 -3.0489,-0.58614 l -1.29968,-0.54983 -0.0622,1.15596 c -1.01635,0.0869 -2.33112,1.86313 -2.67643,3.27022 l 2.6157,4.38747 0.42183,-0.0845 1.09668,1.77177 h 0.50622 c 0.55761,1.07958 0.75328,1.75385 1.77189,2.02486 -0.15606,1.46516 0.20226,1.94896 1.2654,3.54352 l -0.67498,0.33754 1.4343,3.88102 2.95307,3.96525 1.09671,-0.16873 c 0.77347,1.16028 4.66659,0.86209 6.24341,-3.96549 l -1.34987,-2.10929 28.09519,-5.82144 c 10.65535,-3.50374 14.33806,-14.7927 8.35257,-20.58621 l 0.42207,-3.45911 c -1.90718,-1.83912 -4.20162,-2.90291 -6.58103,-3.79684 l -1.68743,2.02507 c -2.26187,-0.98334 -4.74612,-1.68862 -8.26814,-1.09695 z m -10.37762,15.43978 h 0.59071 l 1.85608,2.19371 c -3.91238,1.22878 -6.39552,3.33722 -9.36489,5.14644 l -0.40745,-0.50615 -1.41458,-0.0844 -0.78846,0.58555 0.33262,0.76451 c -1.16684,-0.53924 -0.54024,0.26241 -5.82184,2.36235 l -0.33736,-0.42195 0.50621,-0.25308 -0.84355,-1.94041 0.084,-0.33749 c 5.42485,-2.25326 10.8083,-4.55283 15.60826,-7.50903 z"
       id="path5676"
       inkscape:connector-curvature="0"
       sodipodi:nodetypes="ccccccccccccccccccccccccccccccccccccccccccccccccccc" />
    <path
       style="fill:#000000;fill-opacity:1;stroke:none;stroke-width:0.1443021px;stroke-linecap:butt;stroke-linejoin:miter;stroke-opacity:1"
       d="m 1223.7686,156.95872 -0.2186,-3.20669 c 1.9709,-1.50348 3.8727,-3.02828 7.0696,-4.15449 l 0.7289,-1.09323 c 0,0 5.301,-1.41438 7.8714,-1.8221 2.5704,-0.40774 4.6587,-0.59697 7.507,-0.65592 2.8483,-0.059 8.6394,0.30234 9.5477,0.43728 0.9084,0.13461 3.6085,0.43999 5.6121,1.45764 l 6.5595,-0.29155 2.0407,1.82213 c 1.0544,0.19439 2.1358,0.2536 2.6238,3.27984 1.987,-0.0147 2.9428,2.47671 2.4052,4.9563 0.9054,0.85471 1.8089,1.71003 0.4373,3.1335 l 1.0932,16.10737 -0.4372,0.65596 v 1.53086 l -5.3934,0.58289 -2.1136,-3.49835 -1.0204,-0.14537 -3.2069,-4.80975 v -1.45823 l -1.3848,-2.11324 -1.0204,0.14537 1.2391,2.47849 c -0.9971,2.23386 -4.0476,1.72918 -6.7053,1.74892 l 2.1865,3.57142 0.3644,1.31193 0.8746,2.18683 -0.1457,3.13354 -5.7942,0.6196 -15.2691,-11.04205 -2.1865,-1.74917 c -2.0115,-0.55748 -1.8601,-1.28057 -2.1865,-1.96788 -1.5525,-0.47878 -3.5931,-0.64412 -4.6281,-2.22313 0,0 -1.3346,1.57556 -2.2959,2.80641 -1.4059,1.19656 -4.6392,0.8596 -6.0104,-1.28452 -0.1925,-0.30131 -0.2401,0.0895 -0.4468,-0.2469 -1.5813,-2.54945 -1.1084,-3.69918 -0.7884,-5.10084 0.3201,-1.40259 0.5845,-2.26295 0.8747,-2.98815 0.29,-0.72544 1.446,-1.80545 2.2166,-2.11417 z"
       id="path5620"
       inkscape:connector-curvature="0"
       sodipodi:nodetypes="cccczzzccccccccccccccccccccccccccccsszzc" />
    <path
       style="fill:#000000;fill-opacity:1;stroke:none;stroke-width:0.13664463px;stroke-linecap:butt;stroke-linejoin:miter;stroke-opacity:1"
       d="m 1226.5596,433.61159 v 1.31764 l -0.4879,0.24401 -0.049,0.92724 1.6593,3.75773 c 1.109,0.92649 1.8708,0.91179 1.952,-0.87843 l -0.5856,-1.31765 4.0017,-1.41525 c 1.0352,1.15897 2.1904,1.06848 1.9257,-0.60404 l 2.8081,-0.86001 -1.212,1.64082 0.3823,0.84804 -0.049,0.48801 h -0.732 c 0.5944,2.08509 1.6593,3.22092 1.6593,3.22092 0.7525,0.82022 2.9324,0.48054 2.3424,-0.82964 l -1.1225,-1.80566 c 0.017,-0.33898 -0.012,-0.72063 0.6344,-0.39041 0.8603,0.825 1.6843,0.26149 1.2689,-0.58562 0.319,0.52937 1.5843,0.24425 0.9273,-0.78083 0.032,-0.19022 -0.086,-0.56104 0.4208,-0.19013 0.4827,0.50437 1.4656,0.11184 1.092,-0.78591 l 0.2841,-0.29757 c 0.6912,0.5054 1.3091,-0.0852 0.7408,-0.77606 -0.05,-0.52219 0.2814,-0.44552 0.5367,-0.48802 1.3077,0.33291 2.3714,-1.05333 2.2449,-2.29368 0,0 0.8064,0.75849 1.22,0.97604 0.4137,0.21754 0.9629,0.92338 0.9629,0.92338 l 0.1411,0.75029 -1.7127,0.34449 c 0,0.70173 0.5684,1.0018 0.9992,1.39799 1.6018,3.97276 3.9506,5.7558 6.4722,5.26736 l -0.2744,0.97925 1.9521,1.80567 0.6343,-0.0854 0.4101,0.38309 0.1268,-0.11472 -0.305,-0.41482 c 0.5562,-1.1424 1.632,-1.83502 2.7403,-1.84681 l 0.4575,0.35382 0.122,-0.1342 c -0.1506,-0.15869 -0.1578,-0.19737 -0.3965,-0.41482 l 0.1812,-0.5213 -0.945,-1.30421 c 5.2635,-2.23111 0.6975,-7.60884 -2.9473,-8.56747 -0.8444,-0.21912 -1.3607,-0.37659 -2.3233,0.31999 l -1.7569,-2.04967 1.2201,-0.34162 1.1224,1.12243 6.2785,1.64166 1.8714,1.28649 c 1.0058,0.20215 1.109,-0.20926 0.5856,-1.02485 l -1.952,-2.83049 -2.0498,-0.78083 -1.0248,-0.53681 1.3665,-0.34161 c 1.3654,1.01244 2.6138,0.58778 2.0741,-0.51243 l 1.6836,-0.4148 c 0.3791,0.59687 2.8593,1.12281 2.1107,-0.43922 l 1.5982,-0.34161 1.6592,0.97603 c 1.9106,1.24912 2.3145,-0.27175 1.4153,-0.97603 l -0.6344,-1.17125 -1.8057,-1.07362 -0.8295,0.1464 -1.6105,-1.22004 -12.6884,1.36644 c -0.303,-1.06438 -3.1197,-1.54913 -3.3185,0.29281 l -1.6593,-1.80567 c -0.5143,-0.77444 -4.3203,-1.626 -3.6113,0.53683 l 1.1712,1.95206 -3.709,1.65926 c -0.9068,-1.01214 -2.91,-0.23479 -2.6841,1.12244 z"
       id="path5707"
       inkscape:connector-curvature="0"
       sodipodi:nodetypes="cccccccccccccccccccccccccczccccccccccccccccccccccccccccccccccccccccccccccc" />
    <path
       style="fill:#000000;fill-opacity:1;stroke:none;stroke-width:0.11899577px;stroke-linecap:butt;stroke-linejoin:miter;stroke-opacity:1"
       d="m 1950.7226,177.09286 -1.105,-14.10949 -5.2698,1.44494 -0.2338,0.50998 3.2299,1.91243 -0.1912,0.2125 -3.2512,-1.93368 c 0,0 -0.8666,0.14454 -1.4024,-0.0212 -0.5358,-0.16578 -1.3582,-0.64791 -1.6362,-1.08371 -0.278,-0.4358 -0.4416,-0.8105 -0.17,-1.1262 0.2716,-0.31572 1.3599,0 1.3599,0 l 6.407,-2.97749 -0.085,-0.89247 -0.7121,-0.80488 0.043,-2.71991 1.6999,-0.97746 0.043,-0.38249 -0.2602,-0.46748 0.3053,-3.41277 c -1.6772,-0.73922 -3.3147,-3.70454 -0.083,-4.49971 2.3546,-0.57943 4.2776,0.1039 5.6313,0.86757 1.3537,0.76367 3.0162,2.30635 2.9174,3.26767 -0.1325,1.28845 -3.7932,1.2273 -3.7932,1.2273 l 0.2031,1.89011 c 1.2797,0.88351 2.3393,1.57673 2.2618,3.50721 l -0.4674,1.23249 2.9749,-0.50998 c 0,0 -0.1555,-0.26238 -0.085,-0.38249 0.07,-0.12009 0.1024,-0.1837 0.4249,-0.12751 0.3226,0.0562 2.2182,0.72659 2.465,1.01998 0.2467,0.29337 0.1779,0.36843 0.1779,0.36843 l 2.7246,0.96244 -0.1172,0.22964 -2.7392,-0.97443 c -0.2526,0.24988 -0.5944,0.25382 -0.9609,0.20681 l -4.44,1.88452 -0.765,1.27495 c 1.7892,1.77371 0.5504,2.32272 -0.935,2.50742 l -1.9974,13.47202 c 0,0 1.1944,1.16111 1.6787,1.61494 0.4843,0.45383 1.2186,1.53688 1.0624,1.61494 l 2.8201,2.2546 -0.1487,0.16999 -2.6501,-2.12709 c -0.023,0.50522 -0.1917,0.6222 -0.3825,0.67997 l 1.1475,0.89247 -0.1275,0.17 -1.1687,-0.91372 c -0.9392,0.52178 -3.7911,-1.79444 -4.6961,-3.16614 -0.9051,-1.37171 -0.1991,-1.60948 0.2975,-1.78493 z"
       id="path902-3"
       inkscape:connector-curvature="0"
       sodipodi:nodetypes="ccccccczzzcccccccccszsccccczzzccccccccczcccccccczcc" />
    <path
       style="fill:#000000;fill-opacity:1;stroke:none;stroke-width:0.10196669px;stroke-linecap:butt;stroke-linejoin:miter;stroke-opacity:1"
       d="m 1929.2836,432.87825 -2.5028,0.206 -0.5908,1.40517 -0.6555,0.58267 -0.874,0.50984 c -0.6709,1.74967 -0.088,3.78101 0.2913,4.73415 l 2.1122,0.80118 0.8012,1.23816 4.37,-0.58267 15.8776,7.57467 h 0.5827 l 1.5854,1.69651 c 0.361,0.69004 1.3192,0.45923 1.2382,-0.2185 0.4127,0.49267 1.2374,0.0829 1.1094,-0.45834 l 1.311,-0.14562 0.3642,0.874 -0.1456,1.311 c 0,0 1.7324,3.30959 1.8936,3.56884 0.3802,0.61128 1.6835,0.74594 2.4035,0.6555 0.7201,-0.0905 3.7344,-0.69626 4.4429,-0.80116 0.7084,-0.10488 1.2074,-0.42333 1.3838,-1.38384 0.051,-0.27851 0.6555,-6.26367 0.6555,-6.26367 l 0.4451,0.52232 c 0.282,0.71655 1.4327,0.35653 1.3154,-0.19274 0.2287,0.58202 1.0829,0.59882 1.1057,-0.35534 l 1.1955,-0.0471 c 0.4383,0.65029 0.9904,0.79485 1.3581,-0.21409 0.7016,0.81157 1.5922,0.70689 1.7179,-0.22291 l 0.1456,-1.38385 5.3168,-10.56082 1.2382,-0.14562 0.874,-1.60234 1.0925,-0.874 c 0.474,-0.96455 0.4745,-3.75027 -0.5826,-4.51567 l -1.8937,-0.80117 -0.8012,-1.09249 -4.2244,0.58266 -14.3481,-4.87984 -2.9133,-2.185 -0.5099,-1.52949 -2.8405,-4.1515 -0.3642,-1.74801 -1.3838,-2.185 c -0.7172,-1.17205 -4.0579,-1.07314 -4.2972,0.80117 -0.6535,-0.10364 -1.3332,-0.24191 -1.5874,0.18707 -1.0014,-0.913 -0.7653,-0.03 -1.0557,0.0773 -0.4442,0.0199 -1.1951,-0.81033 -0.6438,0.61802 l -1.2103,0.59226 c -1.9823,-3.70355 -6.2491,-1.61113 -5.356,1.75103 l 1.442,2.75531 0.6695,0.23174 0.6438,1.00428 -0.052,0.33476 0.515,0.77251 -2.7039,3.39906 v 0.69527 z"
       id="path5592"
       inkscape:connector-curvature="0"
       sodipodi:nodetypes="cccccccccccccccccszzscccccccccccccccccccccccccccccccccccc" />
    <path
       style="fill:#000000;fill-opacity:1;stroke:none;stroke-width:0.1252929px;stroke-linecap:butt;stroke-linejoin:miter;stroke-opacity:1"
       d="m 1220.3535,691.03706 c 0.1603,-0.93575 0.804,-1.10178 1.8205,-1.16529 6.7526,3.31053 13.5508,6.14401 20.2504,9.93151 -0.053,-1.02986 -0.048,-2.07947 0.2531,-3.2274 0.3728,-0.36426 0.7575,-0.71551 1.7719,-0.3797 1.1713,1.70864 1.9423,3.41726 2.2782,5.12587 0.7258,0.40465 1.4673,0.77808 1.9618,1.64536 l 2.7211,-0.63283 0.2532,-0.25312 c 0.8409,-0.16424 1.2586,-0.43418 2.9742,-0.3797 l 0.5063,0.31641 2.4047,-0.31641 c 0.2326,-0.67314 0.5521,-1.34772 1.3289,-1.64534 -0.2019,-1.75381 -0.5661,-3.48268 -0.2531,-5.31573 0.4499,-0.35445 0.7108,-0.82231 1.9618,-0.69611 0.6354,0.90705 1.2377,1.8141 1.582,2.72114 0.3997,-1.27018 8.5776,-9.45536 13.1628,-13.47916 1.0858,-0.50393 1.7906,0.13297 1.7086,0.63282 l -13.226,16.32689 c 0.9487,0.88015 1.1024,3.05388 -0.1266,4.05007 2.1142,1.96914 0.896,5.44587 -2.468,4.80947 l 1.5663,8.65389 -0.8702,0.20565 v 0.69612 l -1.9617,0.44296 0.2056,1.04416 -0.5221,0.12653 -0.3005,-1.04416 -4.1925,0.63283 0.174,1.01253 -0.5221,0.11081 -0.2689,-1.05998 -1.9776,0.14245 -0.2532,-0.96507 -1.4871,0.18985 -2.9426,-9.49237 c -0.2328,1.7829 -4.1847,3.05251 -4.9361,-0.56953 -0.1969,-1.67631 -0.4997,-3.37379 -0.1265,-4.93604 z"
       id="path5648"
       inkscape:connector-curvature="0"
       sodipodi:nodetypes="ccccccccccccccccccccccccccccccccccccccc" />
    <path
       style="opacity:0.97000002;fill:#000000;fill-opacity:1;stroke:none;stroke-width:0.13967782px;stroke-linecap:butt;stroke-linejoin:miter;stroke-opacity:1"
       d="m 1948.053,710.54577 1.8342,1.26985 0.8466,-1.55205 7.337,-2.85719 1.9754,0.35274 0.4938,-2.36336 8.0504,-6.33326 1.5873,2.27716 0.362,-0.24422 -1.4737,-2.31049 0.2215,-0.16351 1.9907,2.93169 0.3194,-0.25468 -1.8394,-3.00838 0.7996,-0.58402 -4.7973,-7.79556 -1.2352,-0.40261 -1.1281,1.03755 -10.2648,0.74075 -2.4603,-2.7161 -0.8025,0.42329 1.0053,2.08997 -0.9677,-0.14832 -1.1526,0.37004 -0.4603,0.60616 -0.9957,-0.0903 -1.1329,0.56845 -0.3703,0.87216 -0.776,-2.46917 -0.9876,0.35274 v 3.98595 l -7.1607,5.67912 -2.4339,0.42328 -0.6349,1.37569 1.7746,8.37719 0.5295,-0.0366 1.1528,4.56971 0.6492,-0.15058 -1.1501,-4.45659 0.4055,-0.0156 0.7628,2.87556 0.673,-0.19281 -0.7055,-2.75138 z"
       id="path5259"
       inkscape:connector-curvature="0"
       sodipodi:nodetypes="cccccccccccccccccccccccccccccccccccccccccccc" />
    <path
       style="fill:#020000;fill-opacity:1;stroke:none;stroke-width:0.1592451px;stroke-linecap:butt;stroke-linejoin:miter;stroke-opacity:1"
       d="m 881.55098,685.28302 6.26823,-2.13585 0.48647,0.35223 2.06727,15.20233 1.07919,0.0192 c 0.89031,-1.77606 2.03955,-2.79404 3.80739,-3.00447 1.76786,-0.21042 2.84247,0.39028 3.51754,1.0351 l 0.48754,-0.0233 -0.11603,-1.18403 1.3001,-10.35424 9.51845,-1.85726 0.54736,0.3502 2.81894,16.59732 -2.71626,15.22954 -0.69647,0.0928 -7.9398,-3.34307 -0.8822,-0.92863 -1.16076,-7.89335 h -0.5572 c 0,0 -1.3427,1.56565 -3.38718,1.72757 -2.04446,0.16195 -4.10752,-1.92291 -4.10752,-1.92291 l -0.77012,0.0561 -1.06792,17.59754 -0.51075,0.0465 -6.36112,-5.80394 -2.04299,-14.25447 z"
       id="path1062-3"
       inkscape:connector-curvature="0"
       sodipodi:nodetypes="ccccczccccccccccccczccccccc" />
    <circle
       cy="702.04474"
       cx="193.23328"
       id="circle8851"
       style="fill:none;fill-opacity:1;stroke:#00ff00;stroke-width:0.528;stroke-miterlimit:4;stroke-dasharray:none;stroke-opacity:1"
       r="28.232683" />
    <circle
       r="28.232683"
       style="fill:none;fill-opacity:1;stroke:#00ff00;stroke-width:0.528;stroke-miterlimit:4;stroke-dasharray:none;stroke-opacity:1"
       id="circle8853"
       cx="193.23328"
       cy="433.24475" />
    <circle
       cy="433.24475"
       cx="544.70001"
       id="circle8855"
       style="fill:none;fill-opacity:1;stroke:#00ff00;stroke-width:0.528;stroke-miterlimit:4;stroke-dasharray:none;stroke-opacity:1"
       r="28.232683" />
    <circle
       r="28.232683"
       style="fill:none;fill-opacity:1;stroke:#00ff00;stroke-width:0.528;stroke-miterlimit:4;stroke-dasharray:none;stroke-opacity:1"
       id="circle8857"
       cx="544.70001"
       cy="164.44476" />
    <circle
       cy="164.44476"
       cx="193.23334"
       id="circle8859"
       style="fill:none;fill-opacity:1;stroke:#00ff00;stroke-width:0.528;stroke-miterlimit:4;stroke-dasharray:none;stroke-opacity:1"
       r="28.232683" />
    <circle
       r="28.232683"
       style="fill:none;fill-opacity:1;stroke:#00ff00;stroke-width:0.528;stroke-miterlimit:4;stroke-dasharray:none;stroke-opacity:1"
       id="circle8861"
       cx="897.23328"
       cy="164.44476" />
    <circle
       cy="164.44476"
       cx="1601.2333"
       id="circle8863"
       style="fill:none;fill-opacity:1;stroke:#00ff00;stroke-width:0.528;stroke-miterlimit:4;stroke-dasharray:none;stroke-opacity:1"
       r="28.232683" />
    <circle
       r="28.232683"
       style="fill:none;fill-opacity:1;stroke:#00ff00;stroke-width:0.528;stroke-miterlimit:4;stroke-dasharray:none;stroke-opacity:1"
       id="circle8865"
       cx="1952.7"
       cy="164.44476" />
    <circle
       cy="433.24475"
       cx="1601.2333"
       id="circle8867"
       style="fill:none;fill-opacity:1;stroke:#00ff00;stroke-width:0.528;stroke-miterlimit:4;stroke-dasharray:none;stroke-opacity:1"
       r="28.232683" />
    <circle
       r="28.232683"
       style="fill:none;fill-opacity:1;stroke:#00ff00;stroke-width:0.528;stroke-miterlimit:4;stroke-dasharray:none;stroke-opacity:1"
       id="circle8869"
       cx="1248.7"
       cy="433.24475" />
    <circle
       cy="702.04474"
       cx="897.23328"
       id="circle8871"
       style="fill:none;fill-opacity:1;stroke:#00ff00;stroke-width:0.528;stroke-miterlimit:4;stroke-dasharray:none;stroke-opacity:1"
       r="28.232683" />
    <circle
       r="28.232683"
       style="fill:none;fill-opacity:1;stroke:#00ff00;stroke-width:0.528;stroke-miterlimit:4;stroke-dasharray:none;stroke-opacity:1"
       id="circle8873"
       cx="1601.2333"
       cy="702.04474" />
    <circle
       cy="702.04474"
       cx="1952.7"
       id="circle8875"
       style="fill:none;fill-opacity:1;stroke:#00ff00;stroke-width:0.528;stroke-miterlimit:4;stroke-dasharray:none;stroke-opacity:1"
       r="28.232683" />
    <circle
       r="46.806416"
       cy="970.84479"
       cx="193.23334"
       id="circle8877"
       style="fill:none;fill-opacity:1;stroke:#00ff00;stroke-width:0.87536091;stroke-miterlimit:4;stroke-dasharray:none;stroke-opacity:1" />
    <circle
       r="37.445129"
       cy="164.44476"
       cx="1248.7"
       id="circle8879"
       style="fill:none;fill-opacity:1;stroke:#00ff00;stroke-width:0.70028871;stroke-miterlimit:4;stroke-dasharray:none;stroke-opacity:1" />
    <circle
       style="fill:none;fill-opacity:1;stroke:#00ff00;stroke-width:0.70028871;stroke-miterlimit:4;stroke-dasharray:none;stroke-opacity:1"
       id="circle8881"
       cx="1952.7"
       cy="433.24475"
       r="37.445129" />
    <circle
       r="37.445129"
       cy="702.04474"
       cx="1248.7"
       id="circle8883"
       style="fill:none;fill-opacity:1;stroke:#00ff00;stroke-width:0.70028871;stroke-miterlimit:4;stroke-dasharray:none;stroke-opacity:1" />
  </g>
</svg>
