<?xml version="1.0" encoding="UTF-8" standalone="no"?>
<!-- Created with Inkscape (http://www.inkscape.org/) -->

<svg
   xmlns:dc="http://purl.org/dc/elements/1.1/"
   xmlns:cc="http://creativecommons.org/ns#"
   xmlns:rdf="http://www.w3.org/1999/02/22-rdf-syntax-ns#"
   xmlns:svg="http://www.w3.org/2000/svg"
   xmlns="http://www.w3.org/2000/svg"
   xmlns:sodipodi="http://sodipodi.sourceforge.net/DTD/sodipodi-0.dtd"
   xmlns:inkscape="http://www.inkscape.org/namespaces/inkscape"
   width="2125.9841"
   height="1062.9921"
   id="svg2"
   version="1.1"
   inkscape:version="0.48.4 r9939"
   sodipodi:docname="tabs-pilots-rebels.svg">
  <defs
     id="defs4" />
  <sodipodi:namedview
     id="base"
     pagecolor="#ffffff"
     bordercolor="#666666"
     borderopacity="1.0"
     inkscape:pageopacity="0.0"
     inkscape:pageshadow="2"
     inkscape:zoom="1.4142136"
     inkscape:cx="346.03458"
     inkscape:cy="393.29934"
     inkscape:document-units="px"
     inkscape:current-layer="layer1"
     showgrid="false"
     units="mm"
     inkscape:window-width="1680"
     inkscape:window-height="997"
     inkscape:window-x="1912"
     inkscape:window-y="-8"
     inkscape:window-maximized="1" />
  <metadata
     id="metadata7">
    <rdf:RDF>
      <cc:Work
         rdf:about="">
        <dc:format>image/svg+xml</dc:format>
        <dc:type
           rdf:resource="http://purl.org/dc/dcmitype/StillImage" />
        <dc:title />
      </cc:Work>
    </rdf:RDF>
  </metadata>
  <g
     inkscape:label="Calque 1"
     inkscape:groupmode="layer"
     id="layer1"
     transform="translate(0,10.629915)">
    <path
       style="color:#000000;fill:none;stroke:#000000;stroke-width:0.89999998;stroke-opacity:1;marker:none;visibility:visible;display:inline;overflow:visible;enable-background:accumulate"
       d="M 514.21875 796.78125 C 504.40379 796.78125 496.5 804.68504 496.5 814.5 L 347.65625 814.5 L 347.65625 1044.8125 L 673.65625 1044.8125 L 673.65625 814.5 C 673.65625 804.68504 665.78375 796.78125 655.96875 796.78125 L 514.21875 796.78125 z "
       transform="translate(0,-10.629915)"
       id="rect3760" />
    <path
       style="color:#000000;fill:none;stroke:#000000;stroke-width:0.89999998;stroke-opacity:1;marker:none;visibility:visible;display:inline;overflow:visible;enable-background:accumulate"
       d="M 35.875 796.78125 C 26.06004 796.78125 18.15625 804.68504 18.15625 814.5 L 18.15625 1044.8125 L 344.15625 1044.8125 L 344.15625 814.5 L 195.3125 814.5 C 195.3125 804.68504 187.43996 796.78125 177.625 796.78125 L 35.875 796.78125 z "
       transform="translate(0,-10.629915)"
       id="rect2985" />
    <path
       style="color:#000000;fill:none;stroke:#000000;stroke-width:0.89999998;stroke-opacity:1;marker:none;visibility:visible;display:inline;overflow:visible;enable-background:accumulate"
       d="M 514.21875 544.78125 C 504.40379 544.78125 496.5 552.68504 496.5 562.5 L 347.65625 562.5 L 347.65625 792.8125 L 673.65625 792.8125 L 673.65625 562.5 C 673.65625 552.68504 665.78375 544.78125 655.96875 544.78125 L 514.21875 544.78125 z "
       transform="translate(0,-10.629915)"
       id="rect3787" />
    <path
       style="color:#000000;fill:none;stroke:#000000;stroke-width:0.89999998;stroke-opacity:1;marker:none;visibility:visible;display:inline;overflow:visible;enable-background:accumulate"
       d="M 35.875 292.78125 C 26.06004 292.78125 18.15625 300.68504 18.15625 310.5 L 18.15625 540.8125 L 344.15625 540.8125 L 344.15625 310.5 L 195.3125 310.5 C 195.3125 300.68504 187.43996 292.78125 177.625 292.78125 L 35.875 292.78125 z M 35.875 544.78125 C 26.06004 544.78125 18.15625 552.68504 18.15625 562.5 L 18.15625 792.8125 L 344.15625 792.8125 L 344.15625 562.5 L 195.3125 562.5 C 195.3125 552.68504 187.43996 544.78125 177.625 544.78125 L 35.875 544.78125 z "
       transform="translate(0,-10.629915)"
       id="rect3793" />
    <path
       style="color:#000000;fill:none;stroke:#000000;stroke-width:0.89999998;stroke-opacity:1;marker:none;visibility:visible;display:inline;overflow:visible;enable-background:accumulate"
       d="M 514.21875 292.78125 C 504.40379 292.78125 496.5 300.68504 496.5 310.5 L 347.65625 310.5 L 347.65625 540.8125 L 673.65625 540.8125 L 673.65625 310.5 C 673.65625 300.68504 665.78375 292.78125 655.96875 292.78125 L 514.21875 292.78125 z "
       transform="translate(0,-10.629915)"
       id="rect3801" />
    <path
       style="color:#000000;fill:none;stroke:#000000;stroke-width:0.89999998;stroke-opacity:1;marker:none;visibility:visible;display:inline;overflow:visible;enable-background:accumulate"
       d="M 514.21875 40.78125 C 504.40379 40.78125 496.5 48.68504 496.5 58.5 L 347.65625 58.5 L 347.65625 288.8125 L 673.65625 288.8125 L 673.65625 58.5 C 673.65625 48.68504 665.78375 40.78125 655.96875 40.78125 L 514.21875 40.78125 z "
       transform="translate(0,-10.629915)"
       id="rect3815" />
    <path
       style="color:#000000;fill:none;stroke:#000000;stroke-width:0.89999998;stroke-opacity:1;marker:none;visibility:visible;display:inline;overflow:visible;enable-background:accumulate"
       d="M 35.875 40.78125 C 26.06004 40.78125 18.15625 48.68504 18.15625 58.5 L 18.15625 288.8125 L 344.15625 288.8125 L 344.15625 58.5 L 195.3125 58.5 C 195.3125 48.68504 187.43996 40.78125 177.625 40.78125 L 35.875 40.78125 z "
       transform="translate(0,-10.629915)"
       id="rect3821" />
    <rect
       style="color:#000000;fill:none;stroke:#000000;stroke-width:0.89999998;stroke-opacity:1;marker:none;visibility:visible;display:inline;overflow:visible;enable-background:accumulate"
       id="rect3829"
       width="325.98425"
       height="230.31496"
       x="1007.6666"
       y="803.88068" />
    <path
       style="color:#000000;fill:none;stroke:#000000;stroke-width:0.89999998;stroke-opacity:1;marker:none;visibility:visible;display:inline;overflow:visible;enable-background:accumulate"
       d="m 1174.2133,786.16581 c -9.815,0 -17.7188,7.90379 -17.7188,17.71875 l 177.1563,0 c 0,-9.81496 -7.8725,-17.71875 -17.6875,-17.71875 l -141.75,0 z"
       id="path3831"
       inkscape:connector-curvature="0" />
    <rect
       y="803.88068"
       x="678.16656"
       height="230.31496"
       width="325.98425"
       id="rect3835"
       style="color:#000000;fill:none;stroke:#000000;stroke-width:0.89999998;stroke-opacity:1;marker:none;visibility:visible;display:inline;overflow:visible;enable-background:accumulate" />
    <path
       inkscape:connector-curvature="0"
       id="path3837"
       d="m 695.88529,786.16581 c -9.81496,0 -17.71875,7.90379 -17.71875,17.71875 l 177.15625,0 c 0,-9.81496 -7.87254,-17.71875 -17.6875,-17.71875 l -141.75,0 z"
       style="color:#000000;fill:none;stroke:#000000;stroke-width:0.89999998;stroke-opacity:1;marker:none;visibility:visible;display:inline;overflow:visible;enable-background:accumulate" />
    <path
       style="color:#000000;fill:none;stroke:#000000;stroke-width:0.89999998;stroke-opacity:1;marker:none;visibility:visible;display:inline;overflow:visible;enable-background:accumulate"
       d="M 1174.2188 544.78125 C 1164.4037 544.78125 1156.5 552.68504 1156.5 562.5 L 1007.6562 562.5 L 1007.6562 792.8125 L 1333.6562 792.8125 L 1333.6562 562.5 C 1333.6562 552.68504 1325.7838 544.78125 1315.9688 544.78125 L 1174.2188 544.78125 z "
       transform="translate(0,-10.629915)"
       id="rect3843" />
    <path
       style="color:#000000;fill:none;stroke:#000000;stroke-width:0.89999998;stroke-opacity:1;marker:none;visibility:visible;display:inline;overflow:visible;enable-background:accumulate"
       d="M 695.875 544.78125 C 686.06004 544.78125 678.15625 552.68504 678.15625 562.5 L 678.15625 792.8125 L 1004.1562 792.8125 L 1004.1562 562.5 L 855.3125 562.5 C 855.3125 552.68504 847.43996 544.78125 837.625 544.78125 L 695.875 544.78125 z "
       transform="translate(0,-10.629915)"
       id="rect3849" />
    <path
       style="color:#000000;fill:none;stroke:#000000;stroke-width:0.89999998;stroke-opacity:1;marker:none;visibility:visible;display:inline;overflow:visible;enable-background:accumulate"
       d="M 1174.2188 292.78125 C 1164.4037 292.78125 1156.5 300.68504 1156.5 310.5 L 1007.6562 310.5 L 1007.6562 540.8125 L 1333.6562 540.8125 L 1333.6562 310.5 C 1333.6562 300.68504 1325.7838 292.78125 1315.9688 292.78125 L 1174.2188 292.78125 z "
       transform="translate(0,-10.629915)"
       id="rect3857" />
    <path
       style="color:#000000;fill:none;stroke:#000000;stroke-width:0.89999998;stroke-opacity:1;marker:none;visibility:visible;display:inline;overflow:visible;enable-background:accumulate"
       d="M 695.875 292.78125 C 686.06004 292.78125 678.15625 300.68504 678.15625 310.5 L 678.15625 540.8125 L 1004.1562 540.8125 L 1004.1562 310.5 L 855.3125 310.5 C 855.3125 300.68504 847.43996 292.78125 837.625 292.78125 L 695.875 292.78125 z "
       transform="translate(0,-10.629915)"
       id="rect3863" />
    <path
       style="color:#000000;fill:none;stroke:#000000;stroke-width:0.89999998;stroke-opacity:1;marker:none;visibility:visible;display:inline;overflow:visible;enable-background:accumulate"
       d="M 1174.2188 40.78125 C 1164.4037 40.78125 1156.5 48.68504 1156.5 58.5 L 1007.6562 58.5 L 1007.6562 288.8125 L 1333.6562 288.8125 L 1333.6562 58.5 C 1333.6562 48.68504 1325.7838 40.78125 1315.9688 40.78125 L 1174.2188 40.78125 z "
       transform="translate(0,-10.629915)"
       id="rect3871" />
    <path
       style="color:#000000;fill:none;stroke:#000000;stroke-width:0.89999998;stroke-opacity:1;marker:none;visibility:visible;display:inline;overflow:visible;enable-background:accumulate"
       d="M 695.875 40.78125 C 686.06004 40.78125 678.15625 48.68504 678.15625 58.5 L 678.15625 288.8125 L 1004.1562 288.8125 L 1004.1562 58.5 L 855.3125 58.5 C 855.3125 48.68504 847.43996 40.78125 837.625 40.78125 L 695.875 40.78125 z "
       transform="translate(0,-10.629915)"
       id="rect3877" />
    <rect
       y="803.88068"
       x="1667.6665"
       height="230.31496"
       width="325.98425"
       id="rect3885"
       style="color:#000000;fill:none;stroke:#000000;stroke-width:0.89999998;stroke-opacity:1;marker:none;visibility:visible;display:inline;overflow:visible;enable-background:accumulate" />
    <path
       inkscape:connector-curvature="0"
       id="path3887"
       d="m 1834.2133,786.16581 c -9.815,0 -17.7188,7.90379 -17.7188,17.71875 l 177.1563,0 c 0,-9.81496 -7.8725,-17.71875 -17.6875,-17.71875 l -141.75,0 z"
       style="color:#000000;fill:none;stroke:#000000;stroke-width:0.89999998;stroke-opacity:1;marker:none;visibility:visible;display:inline;overflow:visible;enable-background:accumulate" />
    <rect
       style="color:#000000;fill:none;stroke:#000000;stroke-width:0.89999998;stroke-opacity:1;marker:none;visibility:visible;display:inline;overflow:visible;enable-background:accumulate"
       id="rect3891"
       width="325.98425"
       height="230.31496"
       x="1338.1665"
       y="803.88068" />
    <path
       style="color:#000000;fill:none;stroke:#000000;stroke-width:0.89999998;stroke-opacity:1;marker:none;visibility:visible;display:inline;overflow:visible;enable-background:accumulate"
       d="m 1355.8853,786.16581 c -9.815,0 -17.7187,7.90379 -17.7187,17.71875 l 177.1562,0 c 0,-9.81496 -7.8725,-17.71875 -17.6875,-17.71875 l -141.75,0 z"
       id="path3893"
       inkscape:connector-curvature="0" />
    <path
       style="color:#000000;fill:none;stroke:#000000;stroke-width:0.89999998;stroke-opacity:1;marker:none;visibility:visible;display:inline;overflow:visible;enable-background:accumulate"
       d="M 1834.2188 544.78125 C 1824.4037 544.78125 1816.5 552.68504 1816.5 562.5 L 1667.6562 562.5 L 1667.6562 792.8125 L 1993.6562 792.8125 L 1993.6562 562.5 C 1993.6562 552.68504 1985.7838 544.78125 1975.9688 544.78125 L 1834.2188 544.78125 z "
       transform="translate(0,-10.629915)"
       id="rect3899" />
    <path
       style="color:#000000;fill:none;stroke:#000000;stroke-width:0.89999998;stroke-opacity:1;marker:none;visibility:visible;display:inline;overflow:visible;enable-background:accumulate"
       d="M 1355.875 544.78125 C 1346.06 544.78125 1338.1562 552.68504 1338.1562 562.5 L 1338.1562 792.8125 L 1664.1562 792.8125 L 1664.1562 562.5 L 1515.3125 562.5 C 1515.3125 552.68504 1507.44 544.78125 1497.625 544.78125 L 1355.875 544.78125 z "
       transform="translate(0,-10.629915)"
       id="rect3905" />
    <path
       style="color:#000000;fill:none;stroke:#000000;stroke-width:0.89999998;stroke-opacity:1;marker:none;visibility:visible;display:inline;overflow:visible;enable-background:accumulate"
       d="M 1834.2188 292.78125 C 1824.4037 292.78125 1816.5 300.68504 1816.5 310.5 L 1667.6562 310.5 L 1667.6562 540.8125 L 1993.6562 540.8125 L 1993.6562 310.5 C 1993.6562 300.68504 1985.7838 292.78125 1975.9688 292.78125 L 1834.2188 292.78125 z "
       transform="translate(0,-10.629915)"
       id="rect3913" />
    <path
       style="color:#000000;fill:none;stroke:#000000;stroke-width:0.89999998;stroke-opacity:1;marker:none;visibility:visible;display:inline;overflow:visible;enable-background:accumulate"
       d="M 1355.875 292.78125 C 1346.06 292.78125 1338.1562 300.68504 1338.1562 310.5 L 1338.1562 540.8125 L 1664.1562 540.8125 L 1664.1562 310.5 L 1515.3125 310.5 C 1515.3125 300.68504 1507.44 292.78125 1497.625 292.78125 L 1355.875 292.78125 z "
       transform="translate(0,-10.629915)"
       id="rect3919" />
    <path
       style="color:#000000;fill:none;stroke:#000000;stroke-width:0.89999998;stroke-opacity:1;marker:none;visibility:visible;display:inline;overflow:visible;enable-background:accumulate"
       d="M 1834.2188 40.78125 C 1824.4037 40.78125 1816.5 48.68504 1816.5 58.5 L 1667.6562 58.5 L 1667.6562 288.8125 L 1993.6562 288.8125 L 1993.6562 58.5 C 1993.6562 48.68504 1985.7838 40.78125 1975.9688 40.78125 L 1834.2188 40.78125 z "
       transform="translate(0,-10.629915)"
       id="rect3927" />
    <path
       style="color:#000000;fill:none;stroke:#000000;stroke-width:0.89999998;stroke-opacity:1;marker:none;visibility:visible;display:inline;overflow:visible;enable-background:accumulate"
       d="M 1355.875 40.78125 C 1346.06 40.78125 1338.1562 48.68504 1338.1562 58.5 L 1338.1562 288.8125 L 1664.1562 288.8125 L 1664.1562 58.5 L 1515.3125 58.5 C 1515.3125 48.68504 1507.44 40.78125 1497.625 40.78125 L 1355.875 40.78125 z "
       transform="translate(0,-10.629915)"
       id="rect3933" />
    <text
       xml:space="preserve"
       style="font-size:18px;font-style:normal;font-variant:normal;font-weight:normal;font-stretch:normal;text-align:start;line-height:125%;letter-spacing:0px;word-spacing:0px;writing-mode:lr-tb;text-anchor:start;fill:#000000;fill-opacity:1;stroke:none;font-family:Arial;-inkscape-font-specification:Arial"
       x="42.426407"
       y="87.538261"
       id="text3939"
       sodipodi:linespacing="125%"
       transform="translate(0,-10.629915)"><tspan
         sodipodi:role="line"
         id="tspan3941"
         x="42.426407"
         y="87.538261" /></text>
    <text
       xml:space="preserve"
       style="font-size:12px;font-style:normal;font-variant:normal;font-weight:bold;font-stretch:normal;text-align:start;line-height:125%;letter-spacing:0px;word-spacing:0px;writing-mode:lr-tb;text-anchor:start;fill:#000000;fill-opacity:1;stroke:none;font-family:BankGothic Md BT;-inkscape-font-specification:BankGothic Md BT Bold"
       x="67.76371"
       y="42.178444"
       id="text3943"
       sodipodi:linespacing="125%"><tspan
         sodipodi:role="line"
         id="tspan3945"
         x="67.76371"
         y="42.178444">X-Wing T/65</tspan></text>
    <text
       xml:space="preserve"
       style="font-size:12px;font-style:normal;font-variant:normal;font-weight:bold;font-stretch:normal;text-align:start;line-height:125%;letter-spacing:0px;word-spacing:0px;writing-mode:lr-tb;text-anchor:start;fill:#000000;fill-opacity:1;stroke:none;font-family:BankGothic Md BT;-inkscape-font-specification:BankGothic Md BT Bold"
       x="1387.8213"
       y="294.17844"
       id="text3947"
       sodipodi:linespacing="125%"><tspan
         sodipodi:role="line"
         id="tspan3949"
         x="1387.8213"
         y="294.17844">X-Wing T/70</tspan></text>
    <text
       xml:space="preserve"
       style="font-size:12px;font-style:normal;font-variant:normal;font-weight:bold;font-stretch:normal;text-align:start;line-height:125%;letter-spacing:0px;word-spacing:0px;writing-mode:lr-tb;text-anchor:start;fill:#000000;fill-opacity:1;stroke:none;font-family:BankGothic Md BT;-inkscape-font-specification:BankGothic Md BT Bold"
       x="563.66162"
       y="42.178627"
       id="text3951"
       sodipodi:linespacing="125%"><tspan
         sodipodi:role="line"
         id="tspan3953"
         x="563.66162"
         y="42.178627">Y-Wing</tspan></text>
    <text
       xml:space="preserve"
       style="font-size:12px;font-style:normal;font-variant:normal;font-weight:bold;font-stretch:normal;text-align:start;line-height:125%;letter-spacing:0px;word-spacing:0px;writing-mode:lr-tb;text-anchor:start;fill:#000000;fill-opacity:1;stroke:none;font-family:BankGothic Md BT;-inkscape-font-specification:BankGothic Md BT Bold"
       x="744.58655"
       y="42.178627"
       id="text3955"
       sodipodi:linespacing="125%"><tspan
         sodipodi:role="line"
         id="tspan3957"
         x="744.58655"
         y="42.178627">A-Wing</tspan></text>
    <text
       xml:space="preserve"
       style="font-size:13.27740955px;font-style:normal;font-variant:normal;font-weight:bold;font-stretch:normal;text-align:start;line-height:125%;letter-spacing:0px;word-spacing:0px;writing-mode:lr-tb;text-anchor:start;fill:#000000;fill-opacity:1;stroke:none;font-family:BankGothic Md BT;-inkscape-font-specification:BankGothic Md BT Bold"
       x="2082.5547"
       y="38.759731"
       id="text3959"
       sodipodi:linespacing="125%"
       transform="scale(0.90379076,1.1064508)"><tspan
         sodipodi:role="line"
         id="tspan3961"
         x="2082.5547"
         y="38.759731">B-Wing</tspan></text>
    <text
       xml:space="preserve"
       style="font-size:12px;font-style:normal;font-variant:normal;font-weight:bold;font-stretch:normal;text-align:start;line-height:125%;letter-spacing:0px;word-spacing:0px;writing-mode:lr-tb;text-anchor:start;fill:#000000;fill-opacity:1;stroke:none;font-family:BankGothic Md BT;-inkscape-font-specification:BankGothic Md BT Bold"
       x="562.42804"
       y="294.17862"
       id="text3963"
       sodipodi:linespacing="125%"><tspan
         sodipodi:role="line"
         id="tspan3965"
         x="562.42804"
         y="294.17862">E-Wing</tspan></text>
    <text
       xml:space="preserve"
       style="font-size:12px;font-style:normal;font-variant:normal;font-weight:bold;font-stretch:normal;text-align:start;line-height:125%;letter-spacing:0px;word-spacing:0px;writing-mode:lr-tb;text-anchor:start;fill:#000000;fill-opacity:1;stroke:none;font-family:BankGothic Md BT;-inkscape-font-specification:BankGothic Md BT Bold"
       x="1222.1936"
       y="294.17862"
       id="text3967"
       sodipodi:linespacing="125%"><tspan
         sodipodi:role="line"
         id="tspan3969"
         x="1222.1936"
         y="294.17862">K-Wing</tspan></text>
    <text
       xml:space="preserve"
       style="font-size:12px;font-style:normal;font-variant:normal;font-weight:bold;font-stretch:normal;text-align:start;line-height:125%;letter-spacing:0px;word-spacing:0px;writing-mode:lr-tb;text-anchor:start;fill:#000000;fill-opacity:1;stroke:none;font-family:BankGothic Md BT;-inkscape-font-specification:BankGothic Md BT Bold"
       x="1221.8889"
       y="546.17865"
       id="text3971"
       sodipodi:linespacing="125%"><tspan
         sodipodi:role="line"
         id="tspan3973"
         x="1221.8889"
         y="546.17865">U-Wing</tspan></text>
    <text
       xml:space="preserve"
       style="font-size:12px;font-style:normal;font-variant:normal;font-weight:bold;font-stretch:normal;text-align:start;line-height:125%;letter-spacing:0px;word-spacing:0px;writing-mode:lr-tb;text-anchor:start;fill:#000000;fill-opacity:1;stroke:none;font-family:BankGothic Md BT;-inkscape-font-specification:BankGothic Md BT Bold"
       x="91.457558"
       y="294.10684"
       id="text3975"
       sodipodi:linespacing="125%"><tspan
         sodipodi:role="line"
         id="tspan3977"
         x="91.457558"
         y="294.10684">Z-95</tspan></text>
    <text
       xml:space="preserve"
       style="font-size:12px;font-style:normal;font-variant:normal;font-weight:bold;font-stretch:normal;text-align:start;line-height:125%;letter-spacing:0px;word-spacing:0px;writing-mode:lr-tb;text-anchor:start;fill:#000000;fill-opacity:1;stroke:none;font-family:BankGothic Md BT;-inkscape-font-specification:BankGothic Md BT Bold"
       x="48.122166"
       y="798.12701"
       id="text3979"
       sodipodi:linespacing="125%"><tspan
         sodipodi:role="line"
         id="tspan3981"
         x="48.122166"
         y="798.12701">Transport GR-75</tspan></text>
    <text
       xml:space="preserve"
       style="font-size:12px;font-style:normal;font-variant:normal;font-weight:bold;font-stretch:normal;text-align:start;line-height:125%;letter-spacing:0px;word-spacing:0px;writing-mode:lr-tb;text-anchor:start;fill:#000000;fill-opacity:1;stroke:none;font-family:BankGothic Md BT;-inkscape-font-specification:BankGothic Md BT Bold"
       x="530.36078"
       y="798.10687"
       id="text3983"
       sodipodi:linespacing="125%"><tspan
         sodipodi:role="line"
         id="tspan3985"
         x="530.36078"
         y="798.10687">Corvette CR-90</tspan></text>
    <text
       xml:space="preserve"
       style="font-size:12px;font-style:normal;font-variant:normal;font-weight:bold;font-stretch:normal;text-align:start;line-height:125%;letter-spacing:0px;word-spacing:0px;writing-mode:lr-tb;text-anchor:start;fill:#000000;fill-opacity:1;stroke:none;font-family:BankGothic Md BT;-inkscape-font-specification:BankGothic Md BT Bold"
       x="1876.3632"
       y="294.20151"
       id="text3987"
       sodipodi:linespacing="125%"><tspan
         sodipodi:role="line"
         id="tspan3989"
         x="1876.3632"
         y="294.20151">VCX-100</tspan></text>
    <text
       xml:space="preserve"
       style="font-size:12px;font-style:normal;font-variant:normal;font-weight:bold;font-stretch:normal;text-align:start;line-height:125%;letter-spacing:0px;word-spacing:0px;writing-mode:lr-tb;text-anchor:start;fill:#000000;fill-opacity:1;stroke:none;font-family:BankGothic Md BT;-inkscape-font-specification:BankGothic Md BT Bold"
       x="1355.1838"
       y="546.94843"
       id="text3991"
       sodipodi:linespacing="125%"><tspan
         sodipodi:role="line"
         id="tspan3993"
         x="1355.1838"
         y="546.94843">Canonnière Auzituck</tspan></text>
    <text
       xml:space="preserve"
       style="font-size:12px;font-style:normal;font-variant:normal;font-weight:bold;font-stretch:normal;text-align:start;line-height:125%;letter-spacing:0px;word-spacing:0px;writing-mode:lr-tb;text-anchor:start;fill:#000000;fill-opacity:1;stroke:none;font-family:BankGothic Md BT;-inkscape-font-specification:BankGothic Md BT Bold"
       x="555.17084"
       y="546.1499"
       id="text3995"
       sodipodi:linespacing="125%"><tspan
         sodipodi:role="line"
         id="tspan3997"
         x="555.17084"
         y="546.1499">ARC-170</tspan></text>
    <text
       xml:space="preserve"
       style="font-size:12px;font-style:normal;font-variant:normal;font-weight:bold;font-stretch:normal;text-align:start;line-height:125%;letter-spacing:0px;word-spacing:0px;writing-mode:lr-tb;text-anchor:start;fill:#000000;fill-opacity:1;stroke:none;font-family:BankGothic Md BT;-inkscape-font-specification:BankGothic Md BT Bold"
       x="730.42841"
       y="546.94257"
       id="text3999"
       sodipodi:linespacing="125%"><tspan
         sodipodi:role="line"
         id="tspan4001"
         x="730.42841"
         y="546.94257">Chasseur TIE</tspan></text>
    <text
       xml:space="preserve"
       style="font-size:12px;font-style:normal;font-variant:normal;font-weight:bold;font-stretch:normal;text-align:start;line-height:125%;letter-spacing:0px;word-spacing:0px;writing-mode:lr-tb;text-anchor:start;fill:#000000;fill-opacity:1;stroke:none;font-family:BankGothic Md BT;-inkscape-font-specification:BankGothic Md BT Bold"
       x="1217.1483"
       y="42.201515"
       id="text4003"
       sodipodi:linespacing="125%"><tspan
         sodipodi:role="line"
         id="tspan4005"
         x="1217.1483"
         y="42.201515">YT-1300</tspan></text>
    <text
       xml:space="preserve"
       style="font-size:12px;font-style:normal;font-variant:normal;font-weight:bold;font-stretch:normal;text-align:start;line-height:125%;letter-spacing:0px;word-spacing:0px;writing-mode:lr-tb;text-anchor:start;fill:#000000;fill-opacity:1;stroke:none;font-family:BankGothic Md BT;-inkscape-font-specification:BankGothic Md BT Bold"
       x="738.82037"
       y="294.17862"
       id="text4007"
       sodipodi:linespacing="125%"><tspan
         sodipodi:role="line"
         id="tspan4009"
         x="738.82037"
         y="294.17862">YT-2400</tspan></text>
    <text
       xml:space="preserve"
       style="font-size:12px;font-style:normal;font-variant:normal;font-weight:bold;font-stretch:normal;text-align:start;line-height:125%;letter-spacing:0px;word-spacing:0px;writing-mode:lr-tb;text-anchor:start;fill:#000000;fill-opacity:1;stroke:none;font-family:BankGothic Md BT;-inkscape-font-specification:BankGothic Md BT Bold"
       x="47.902622"
       y="547.26721"
       id="text4011"
       sodipodi:linespacing="125%"><tspan
         sodipodi:role="line"
         id="tspan4013"
         x="47.902622"
         y="547.26721">Navette d'assaut</tspan></text>
    <text
       xml:space="preserve"
       style="font-size:12px;font-style:normal;font-variant:normal;font-weight:bold;font-stretch:normal;text-align:start;line-height:125%;letter-spacing:0px;word-spacing:0px;writing-mode:lr-tb;text-anchor:start;fill:#000000;fill-opacity:1;stroke:none;font-family:BankGothic Md BT;-inkscape-font-specification:BankGothic Md BT Bold"
       x="1394.9032"
       y="42.10685"
       id="text4015"
       sodipodi:linespacing="125%"><tspan
         sodipodi:role="line"
         id="tspan4017"
         x="1394.9032"
         y="42.10685">HWK-290</tspan></text>
    <text
       xml:space="preserve"
       style="font-size:12px;font-style:normal;font-variant:normal;font-weight:bold;font-stretch:normal;text-align:start;line-height:125%;letter-spacing:0px;word-spacing:0px;writing-mode:lr-tb;text-anchor:start;fill:#000000;fill-opacity:1;stroke:none;font-family:BankGothic Md BT;-inkscape-font-specification:BankGothic Md BT Bold"
       x="1824.3956"
       y="546.25336"
       id="text4019"
       sodipodi:linespacing="125%"><tspan
         sodipodi:role="line"
         id="tspan4021"
         x="1824.3956"
         y="546.25336">Bombardier Scurrg H-6</tspan></text>
  </g>
</svg>
