<svg xmlns="http://www.w3.org/2000/svg" version="1.1" width="416.7mm" height="392.7mm" viewBox = " 0 0 1476.497277 1391.457837" >
<!-- Front--> 
<g transform="translate(22.5000185, 22.5000185) " > 
<polygon style="stroke:#000000; fill:none; stroke-width:0.90000074" points="0, 0 36.850424000000004, 0 36.850424000000004, 10.62993 73.70084800000001, 10.62993 73.70084800000001, 0 110.55127200000001, 0 110.55127200000001, 10.62993 147.40169600000002, 10.62993 147.40169600000002, 0 184.25212, 0 184.25212, 44.291375 173.62219, 44.291375 173.62219, 88.58275 184.25212, 88.58275 184.25212, 124.01585 173.62219, 124.01585 173.62219, 159.44895 184.25212, 159.44895 184.25212, 194.88205 173.62219, 194.88205 173.62219, 239.17342499999998 184.25212, 239.17342499999998 184.25212000000002, 283.46479999999997 147.40169600000002, 283.46479999999997 147.40169600000002, 272.83486999999997 110.55127200000001, 272.83486999999997 110.55127200000001, 283.46479999999997 73.70084800000001, 283.46479999999997 73.70084800000001, 272.83486999999997 36.850424000000004, 272.83486999999997 36.850424000000004, 283.46479999999997 0, 283.46479999999997 0, 239.17342499999998 10.62993, 239.17342499999998 10.62993, 194.88205 0, 194.88205 0, 159.44895 10.62993, 159.44895 10.62993, 124.01585 0, 124.01585 0, 88.58275 10.62993, 88.58275 10.62993, 44.291375 0, 44.291375 "/> 
</g>
<!-- Back--> 
<g transform="translate(206.7521385, 22.5000185) " > 
<polygon style="stroke:#000000; fill:none; stroke-width:0.90000074" points="0, 0 36.850424000000004, 0 36.850424000000004, 10.62993 73.70084800000001, 10.62993 73.70084800000001, 0 110.55127200000001, 0 110.55127200000001, 10.62993 147.40169600000002, 10.62993 147.40169600000002, 0 184.25212, 0 184.25212, 44.291375 173.62219, 44.291375 173.62219, 88.58275 184.25212, 88.58275 184.25212, 124.01585 173.62219, 124.01585 173.62219, 159.44895 184.25212, 159.44895 184.25212, 194.88205 173.62219, 194.88205 173.62219, 239.17342499999998 184.25212, 239.17342499999998 184.25212000000002, 283.46479999999997 147.40169600000002, 283.46479999999997 147.40169600000002, 272.83486999999997 110.55127200000001, 272.83486999999997 110.55127200000001, 283.46479999999997 73.70084800000001, 283.46479999999997 73.70084800000001, 272.83486999999997 36.850424000000004, 272.83486999999997 36.850424000000004, 283.46479999999997 0, 283.46479999999997 0, 239.17342499999998 10.62993, 239.17342499999998 10.62993, 194.88205 0, 194.88205 0, 159.44895 10.62993, 159.44895 10.62993, 124.01585 0, 124.01585 0, 88.58275 10.62993, 88.58275 10.62993, 44.291375 0, 44.291375 "/> 
</g>
<!-- Left--> 
<g transform="translate(391.0042585, 22.5000185) " > 
<polygon style="stroke:#000000; fill:none; stroke-width:0.90000074" points="10.62993, 0 44.291375, 0 44.291375, 10.62993 88.58275, 10.62993 88.58275, 0 124.01585, 0 124.01585, 10.62993 159.44895, 10.62993 159.44895, 0 194.88205, 0 194.88205, 10.62993 230.31515, 10.62993 230.31515, 0 265.74825, 0 265.74825, 10.62993 301.18134999999995, 10.62993 301.18134999999995, 0 336.61445, 0 336.61445, 10.62993 372.04755, 10.62993 372.04755, 0 407.48064999999997, 0 407.48064999999997, 10.62993 442.91374999999994, 10.62993 442.91374999999994, 0 478.34685, 0 478.34685, 10.62993 513.77995, 10.62993 513.77995, 0 549.21305, 0 549.21305, 10.62993 584.6461499999999, 10.62993 584.6461499999999, 0 620.07925, 0 620.07925, 10.62993 655.51235, 10.62993 655.51235, 0 690.9454499999999, 0 690.9454499999999, 10.62993 726.3785499999999, 10.62993 726.3785499999999, 0 761.81165, 0 761.81165, 10.62993 797.24475, 10.62993 797.24475, 0 832.6778499999999, 0 832.6778499999999, 10.62993 868.11095, 10.62993 868.11095, 0 903.54405, 0 903.54405, 10.62993 938.9771499999999, 10.62993 938.9771499999999, 0 974.4102499999999, 0 974.4102499999999, 10.62993 1018.7016249999999, 10.62993 1018.7016249999999, 0 1052.3630699999999, 0 1052.3630699999999, 44.291375 1062.993, 44.291375 1062.993, 88.58275 1052.3630699999999, 88.58275 1052.3630699999999, 124.01585 1062.993, 124.01585 1062.993, 159.44895 1052.3630699999999, 159.44895 1052.3630699999999, 194.88205 1062.993, 194.88205 1062.993, 239.17342499999998 1052.3630699999999, 239.17342499999998 1052.3630699999999, 283.46479999999997 1018.7016249999999, 283.46479999999997 1018.7016249999999, 272.83486999999997 974.4102499999999, 272.83486999999997 974.4102499999999, 283.46479999999997 938.9771499999999, 283.46479999999997 938.9771499999999, 272.83486999999997 903.54405, 272.83486999999997 903.54405, 283.46479999999997 868.11095, 283.46479999999997 868.11095, 272.83486999999997 832.6778499999999, 272.83486999999997 832.6778499999999, 283.46479999999997 797.24475, 283.46479999999997 797.24475, 272.83486999999997 761.81165, 272.83486999999997 761.81165, 283.46479999999997 726.3785499999999, 283.46479999999997 726.3785499999999, 272.83486999999997 690.9454499999999, 272.83486999999997 690.9454499999999, 283.46479999999997 655.51235, 283.46479999999997 655.51235, 272.83486999999997 620.07925, 272.83486999999997 620.07925, 283.46479999999997 584.6461499999999, 283.46479999999997 584.6461499999999, 272.83486999999997 549.21305, 272.83486999999997 549.21305, 283.46479999999997 513.77995, 283.46479999999997 513.77995, 272.83486999999997 478.34685, 272.83486999999997 478.34685, 283.46479999999997 442.91374999999994, 283.46479999999997 442.91374999999994, 272.83486999999997 407.48064999999997, 272.83486999999997 407.48064999999997, 283.46479999999997 372.04755, 283.46479999999997 372.04755, 272.83486999999997 336.61445, 272.83486999999997 336.61445, 283.46479999999997 301.18134999999995, 283.46479999999997 301.18134999999995, 272.83486999999997 265.74825, 272.83486999999997 265.74825, 283.46479999999997 230.31515, 283.46479999999997 230.31515, 272.83486999999997 194.88205, 272.83486999999997 194.88205, 283.46479999999997 159.44895, 283.46479999999997 159.44895, 272.83486999999997 124.01585, 272.83486999999997 124.01585, 283.46479999999997 88.58275, 283.46479999999997 88.58275, 272.83486999999997 44.291375, 272.83486999999997 44.291375, 283.46479999999997 10.62993, 283.46479999999997 10.62993, 239.17342499999998 0, 239.17342499999998 0, 194.88205 10.62993, 194.88205 10.62993, 159.44895 0, 159.44895 0, 124.01585 10.62993, 124.01585 10.62993, 88.58275 0, 88.58275 0, 44.291375 10.62993, 44.291375 "/> 
</g>
<!-- Right--> 
<g transform="translate(391.0042585, 305.9648185) " > 
<polygon style="stroke:#000000; fill:none; stroke-width:0.90000074" points="10.62993, 0 44.291375, 0 44.291375, 10.62993 88.58275, 10.62993 88.58275, 0 124.01585, 0 124.01585, 10.62993 159.44895, 10.62993 159.44895, 0 194.88205, 0 194.88205, 10.62993 230.31515, 10.62993 230.31515, 0 265.74825, 0 265.74825, 10.62993 301.18134999999995, 10.62993 301.18134999999995, 0 336.61445, 0 336.61445, 10.62993 372.04755, 10.62993 372.04755, 0 407.48064999999997, 0 407.48064999999997, 10.62993 442.91374999999994, 10.62993 442.91374999999994, 0 478.34685, 0 478.34685, 10.62993 513.77995, 10.62993 513.77995, 0 549.21305, 0 549.21305, 10.62993 584.6461499999999, 10.62993 584.6461499999999, 0 620.07925, 0 620.07925, 10.62993 655.51235, 10.62993 655.51235, 0 690.9454499999999, 0 690.9454499999999, 10.62993 726.3785499999999, 10.62993 726.3785499999999, 0 761.81165, 0 761.81165, 10.62993 797.24475, 10.62993 797.24475, 0 832.6778499999999, 0 832.6778499999999, 10.62993 868.11095, 10.62993 868.11095, 0 903.54405, 0 903.54405, 10.62993 938.9771499999999, 10.62993 938.9771499999999, 0 974.4102499999999, 0 974.4102499999999, 10.62993 1018.7016249999999, 10.62993 1018.7016249999999, 0 1052.3630699999999, 0 1052.3630699999999, 44.291375 1062.993, 44.291375 1062.993, 88.58275 1052.3630699999999, 88.58275 1052.3630699999999, 124.01585 1062.993, 124.01585 1062.993, 159.44895 1052.3630699999999, 159.44895 1052.3630699999999, 194.88205 1062.993, 194.88205 1062.993, 239.17342499999998 1052.3630699999999, 239.17342499999998 1052.3630699999999, 283.46479999999997 1018.7016249999999, 283.46479999999997 1018.7016249999999, 272.83486999999997 974.4102499999999, 272.83486999999997 974.4102499999999, 283.46479999999997 938.9771499999999, 283.46479999999997 938.9771499999999, 272.83486999999997 903.54405, 272.83486999999997 903.54405, 283.46479999999997 868.11095, 283.46479999999997 868.11095, 272.83486999999997 832.6778499999999, 272.83486999999997 832.6778499999999, 283.46479999999997 797.24475, 283.46479999999997 797.24475, 272.83486999999997 761.81165, 272.83486999999997 761.81165, 283.46479999999997 726.3785499999999, 283.46479999999997 726.3785499999999, 272.83486999999997 690.9454499999999, 272.83486999999997 690.9454499999999, 283.46479999999997 655.51235, 283.46479999999997 655.51235, 272.83486999999997 620.07925, 272.83486999999997 620.07925, 283.46479999999997 584.6461499999999, 283.46479999999997 584.6461499999999, 272.83486999999997 549.21305, 272.83486999999997 549.21305, 283.46479999999997 513.77995, 283.46479999999997 513.77995, 272.83486999999997 478.34685, 272.83486999999997 478.34685, 283.46479999999997 442.91374999999994, 283.46479999999997 442.91374999999994, 272.83486999999997 407.48064999999997, 272.83486999999997 407.48064999999997, 283.46479999999997 372.04755, 283.46479999999997 372.04755, 272.83486999999997 336.61445, 272.83486999999997 336.61445, 283.46479999999997 301.18134999999995, 283.46479999999997 301.18134999999995, 272.83486999999997 265.74825, 272.83486999999997 265.74825, 283.46479999999997 230.31515, 283.46479999999997 230.31515, 272.83486999999997 194.88205, 272.83486999999997 194.88205, 283.46479999999997 159.44895, 283.46479999999997 159.44895, 272.83486999999997 124.01585, 272.83486999999997 124.01585, 283.46479999999997 88.58275, 283.46479999999997 88.58275, 272.83486999999997 44.291375, 272.83486999999997 44.291375, 283.46479999999997 10.62993, 283.46479999999997 10.62993, 239.17342499999998 0, 239.17342499999998 0, 194.88205 10.62993, 194.88205 10.62993, 159.44895 0, 159.44895 0, 124.01585 10.62993, 124.01585 10.62993, 88.58275 0, 88.58275 0, 44.291375 10.62993, 44.291375 "/> 
</g>
<!-- Top--> 
<g transform="translate(22.5000185, 305.9648185) " > 
<polygon style="stroke:#000000; fill:none; stroke-width:0.90000074" points="10.62993, 10.62993 36.850424000000004, 10.62993 36.850424000000004, 0 73.70084800000001, 0 73.70084800000001, 10.62993 110.55127200000001, 10.62993 110.55127200000001, 0 147.40169600000002, 0 147.40169600000002, 10.62993 173.62219, 10.62993 173.62219, 44.291375 184.25212, 44.291375 184.25212, 88.58275 173.62219, 88.58275 173.62219, 124.01585 184.25212, 124.01585 184.25212, 159.44895 173.62219, 159.44895 173.62219, 194.88205 184.25212, 194.88205 184.25212, 230.31515 173.62219, 230.31515 173.62219, 265.74825 184.25212, 265.74825 184.25212, 301.18134999999995 173.62219, 301.18134999999995 173.62219, 336.61445 184.25212, 336.61445 184.25212, 372.04755 173.62219, 372.04755 173.62219, 407.48064999999997 184.25212, 407.48064999999997 184.25212, 442.91374999999994 173.62219, 442.91374999999994 173.62219, 478.34685 184.25212, 478.34685 184.25212, 513.77995 173.62219, 513.77995 173.62219, 549.21305 184.25212, 549.21305 184.25212, 584.6461499999999 173.62219, 584.6461499999999 173.62219, 620.07925 184.25212, 620.07925 184.25212, 655.51235 173.62219, 655.51235 173.62219, 690.9454499999999 184.25212, 690.9454499999999 184.25212, 726.3785499999999 173.62219, 726.3785499999999 173.62219, 761.81165 184.25212, 761.81165 184.25212, 797.24475 173.62219, 797.24475 173.62219, 832.6778499999999 184.25212, 832.6778499999999 184.25212, 868.11095 173.62219, 868.11095 173.62219, 903.54405 184.25212, 903.54405 184.25212, 938.9771499999999 173.62219, 938.9771499999999 173.62219, 974.4102499999999 184.25212, 974.4102499999999 184.25212, 1018.7016249999999 173.62219, 1018.7016249999999 173.62219000000002, 1052.3630699999999 147.40169600000002, 1052.3630699999999 147.40169600000002, 1062.993 110.55127200000001, 1062.993 110.55127200000001, 1052.3630699999999 73.70084800000001, 1052.3630699999999 73.70084800000001, 1062.993 36.850424000000004, 1062.993 36.850424000000004, 1052.3630699999999 10.62993, 1052.3630699999999 10.62993, 1018.7016249999999 0, 1018.7016249999999 0, 974.4102499999999 10.62993, 974.4102499999999 10.62993, 938.9771499999999 0, 938.9771499999999 0, 903.54405 10.62993, 903.54405 10.62993, 868.11095 0, 868.11095 0, 832.6778499999999 10.62993, 832.6778499999999 10.62993, 797.24475 0, 797.24475 0, 761.81165 10.62993, 761.81165 10.62993, 726.3785499999999 0, 726.3785499999999 0, 690.9454499999999 10.62993, 690.9454499999999 10.62993, 655.51235 0, 655.51235 0, 620.07925 10.62993, 620.07925 10.62993, 584.6461499999999 0, 584.6461499999999 0, 549.21305 10.62993, 549.21305 10.62993, 513.77995 0, 513.77995 0, 478.34685 10.62993, 478.34685 10.62993, 442.91374999999994 0, 442.91374999999994 0, 407.48064999999997 10.62993, 407.48064999999997 10.62993, 372.04755 0, 372.04755 0, 336.61445 10.62993, 336.61445 10.62993, 301.18134999999995 0, 301.18134999999995 0, 265.74825 10.62993, 265.74825 10.62993, 230.31515 0, 230.31515 0, 194.88205 10.62993, 194.88205 10.62993, 159.44895 0, 159.44895 0, 124.01585 10.62993, 124.01585 10.62993, 88.58275 0, 88.58275 0, 44.291375 10.62993, 44.291375 "/> 
</g>
<!-- Bottom--> 
<g transform="translate(206.7521385, 305.9648185) " > 
<polygon style="stroke:#000000; fill:none; stroke-width:0.90000074" points="10.62993, 10.62993 36.850424000000004, 10.62993 36.850424000000004, 0 73.70084800000001, 0 73.70084800000001, 10.62993 110.55127200000001, 10.62993 110.55127200000001, 0 147.40169600000002, 0 147.40169600000002, 10.62993 173.62219, 10.62993 173.62219, 44.291375 184.25212, 44.291375 184.25212, 88.58275 173.62219, 88.58275 173.62219, 124.01585 184.25212, 124.01585 184.25212, 159.44895 173.62219, 159.44895 173.62219, 194.88205 184.25212, 194.88205 184.25212, 230.31515 173.62219, 230.31515 173.62219, 265.74825 184.25212, 265.74825 184.25212, 301.18134999999995 173.62219, 301.18134999999995 173.62219, 336.61445 184.25212, 336.61445 184.25212, 372.04755 173.62219, 372.04755 173.62219, 407.48064999999997 184.25212, 407.48064999999997 184.25212, 442.91374999999994 173.62219, 442.91374999999994 173.62219, 478.34685 184.25212, 478.34685 184.25212, 513.77995 173.62219, 513.77995 173.62219, 549.21305 184.25212, 549.21305 184.25212, 584.6461499999999 173.62219, 584.6461499999999 173.62219, 620.07925 184.25212, 620.07925 184.25212, 655.51235 173.62219, 655.51235 173.62219, 690.9454499999999 184.25212, 690.9454499999999 184.25212, 726.3785499999999 173.62219, 726.3785499999999 173.62219, 761.81165 184.25212, 761.81165 184.25212, 797.24475 173.62219, 797.24475 173.62219, 832.6778499999999 184.25212, 832.6778499999999 184.25212, 868.11095 173.62219, 868.11095 173.62219, 903.54405 184.25212, 903.54405 184.25212, 938.9771499999999 173.62219, 938.9771499999999 173.62219, 974.4102499999999 184.25212, 974.4102499999999 184.25212, 1018.7016249999999 173.62219, 1018.7016249999999 173.62219000000002, 1052.3630699999999 147.40169600000002, 1052.3630699999999 147.40169600000002, 1062.993 110.55127200000001, 1062.993 110.55127200000001, 1052.3630699999999 73.70084800000001, 1052.3630699999999 73.70084800000001, 1062.993 36.850424000000004, 1062.993 36.850424000000004, 1052.3630699999999 10.62993, 1052.3630699999999 10.62993, 1018.7016249999999 0, 1018.7016249999999 0, 974.4102499999999 10.62993, 974.4102499999999 10.62993, 938.9771499999999 0, 938.9771499999999 0, 903.54405 10.62993, 903.54405 10.62993, 868.11095 0, 868.11095 0, 832.6778499999999 10.62993, 832.6778499999999 10.62993, 797.24475 0, 797.24475 0, 761.81165 10.62993, 761.81165 10.62993, 726.3785499999999 0, 726.3785499999999 0, 690.9454499999999 10.62993, 690.9454499999999 10.62993, 655.51235 0, 655.51235 0, 620.07925 10.62993, 620.07925 10.62993, 584.6461499999999 0, 584.6461499999999 0, 549.21305 10.62993, 549.21305 10.62993, 513.77995 0, 513.77995 0, 478.34685 10.62993, 478.34685 10.62993, 442.91374999999994 0, 442.91374999999994 0, 407.48064999999997 10.62993, 407.48064999999997 10.62993, 372.04755 0, 372.04755 0, 336.61445 10.62993, 336.61445 10.62993, 301.18134999999995 0, 301.18134999999995 0, 265.74825 10.62993, 265.74825 10.62993, 230.31515 0, 230.31515 0, 194.88205 10.62993, 194.88205 10.62993, 159.44895 0, 159.44895 0, 124.01585 10.62993, 124.01585 10.62993, 88.58275 0, 88.58275 0, 44.291375 10.62993, 44.291375 "/> 
</g></svg>