<?xml version="1.0" encoding="UTF-8" standalone="no"?>
<!-- Created with Inkscape (http://www.inkscape.org/) -->

<svg
   xmlns:dc="http://purl.org/dc/elements/1.1/"
   xmlns:cc="http://creativecommons.org/ns#"
   xmlns:rdf="http://www.w3.org/1999/02/22-rdf-syntax-ns#"
   xmlns:svg="http://www.w3.org/2000/svg"
   xmlns="http://www.w3.org/2000/svg"
   xmlns:sodipodi="http://sodipodi.sourceforge.net/DTD/sodipodi-0.dtd"
   xmlns:inkscape="http://www.inkscape.org/namespaces/inkscape"
   width="210mm"
   height="297mm"
   id="svg5001"
   version="1.1"
   inkscape:version="0.92.1 r15371"
   sodipodi:docname="misc.svg">
  <defs
     id="defs5003" />
  <sodipodi:namedview
     id="base"
     pagecolor="#ffffff"
     bordercolor="#666666"
     borderopacity="1.0"
     inkscape:pageopacity="0.0"
     inkscape:pageshadow="2"
     inkscape:zoom="1"
     inkscape:cx="-96.483186"
     inkscape:cy="676.84544"
     inkscape:document-units="px"
     inkscape:current-layer="layer1"
     showgrid="false"
     inkscape:window-width="1920"
     inkscape:window-height="1027"
     inkscape:window-x="-8"
     inkscape:window-y="-8"
     inkscape:window-maximized="1" />
  <metadata
     id="metadata5006">
    <rdf:RDF>
      <cc:Work
         rdf:about="">
        <dc:format>image/svg+xml</dc:format>
        <dc:type
           rdf:resource="http://purl.org/dc/dcmitype/StillImage" />
        <dc:title />
      </cc:Work>
    </rdf:RDF>
  </metadata>
  <g
     inkscape:label="Calque 1"
     inkscape:groupmode="layer"
     id="layer1">
    <path
       inkscape:connector-curvature="0"
       id="path3900"
       d="m 369.35539,640.46865 h 119.69422 v -54.23357 h -0.11679 c -0.50157,-5.17793 -3.94878,-9.6829 -8.1218,-10.34402 -4.51815,-0.71586 -8.18024,3.32349 -8.18024,9.02917 0,0.4382 0.0469,0.88439 0.0868,1.31485 h -87.00256 c 0.0438,-0.43046 0.057,-0.87665 0.057,-1.31485 0,-5.70568 -3.66218,-9.74503 -8.18027,-9.02917 -4.17273,0.66107 -7.59077,5.16641 -8.09257,10.34402 h -0.14606 v 54.23357 z"
       style="fill:none;stroke:#000000;stroke-width:1.13777781;stroke-opacity:1" />
    <path
       style="fill:none;stroke:#000000;stroke-width:2.01574802;stroke-linecap:butt;stroke-linejoin:round;stroke-miterlimit:4;stroke-dasharray:none;stroke-opacity:1"
       d="m 316.14257,608.44332 6.85764,6.14179 0.72601,-7.69603 1.54445,7.6717 6.83146,-5.46191 -4.4906,7.20639 5.89843,0.70834 -5.87426,1.81325 5.59061,3.01537 -6.45738,-1.15352 1.66319,4.59593 -3.79289,-3.86538 -4.17107,5.74735 1.7819,-6.61955 -6.88183,3.11048 5.52228,-5.46613 -4.77834,-1.20211 4.77834,-1.60278 z"
       id="path5533"
       inkscape:connector-curvature="0"
       sodipodi:nodetypes="ccccccccccccccccccc" />
    <rect
       style="fill:none;stroke:#000000;stroke-width:1.13688195;stroke-linecap:butt;stroke-linejoin:round;stroke-miterlimit:4;stroke-dasharray:none;stroke-opacity:1"
       id="rect5551"
       width="36.301102"
       height="52.873337"
       x="306.15869"
       y="524.89893"
       ry="8.4488449" />
    <g
       id="g6233"
       transform="matrix(0.9020323,0,0,0.9020323,-192.66145,215.48305)">
      <path
         style="fill:#000000;fill-opacity:0.98809521;stroke:none;stroke-width:1.13777781"
         d="m 540.99129,434.76586 a 10.413244,10.413244 0 0 0 -6.02585,1.93722 h -2.30423 v 2.25042 a 10.413244,10.413244 0 0 0 -2.08254,6.22605 10.413244,10.413244 0 0 0 2.08254,6.23035 v 1.95445 h 1.91248 a 10.413244,10.413244 0 0 0 6.4176,2.22781 10.413244,10.413244 0 0 0 6.43484,-2.22781 h 1.89632 v -1.95876 a 10.413244,10.413244 0 0 0 2.08253,-6.22604 10.413244,10.413244 0 0 0 -2.08253,-6.23036 v -2.24611 h -2.29455 a 10.413244,10.413244 0 0 0 -6.03661,-1.93722 z m 0,2.0879 a 8.3258875,8.3258875 0 0 1 8.32578,8.32579 8.3258875,8.3258875 0 0 1 -8.32578,8.32578 8.3258875,8.3258875 0 0 1 -8.32579,-8.32578 8.3258875,8.3258875 0 0 1 8.32579,-8.32579 z"
         id="path4714-2"
         inkscape:connector-curvature="0" />
      <circle
         style="fill:#000000;fill-opacity:1;stroke:none;stroke-width:1.86347067"
         id="path4761-5"
         cx="540.9917"
         cy="445.19415"
         r="2.7952063" />
      <path
         inkscape:connector-curvature="0"
         id="path4767-0"
         d="m 539.02751,452.07331 2.13287,0.47319 -1.59112,4.9142 4.69581,-6.26333 -2.62544,-0.58237 0.40806,-1.26005 h -2.13982 z"
         style="fill:#000000;fill-opacity:1;stroke:none;stroke-width:1.13777781" />
      <path
         style="fill:#000000;fill-opacity:1;stroke:none;stroke-width:1.13777781"
         d="m 542.90334,438.16672 -2.13288,-0.47317 1.59113,-4.91422 -4.69579,6.26335 2.62542,0.58235 -0.40804,1.26005 h 2.13982 z"
         id="path4205"
         inkscape:connector-curvature="0" />
      <path
         inkscape:connector-curvature="0"
         id="path4207"
         d="m 547.96571,446.72925 0.47316,-2.13288 4.91422,1.59112 -6.26333,-4.69581 -0.58238,2.62544 -1.26003,-0.40805 v 2.13982 z"
         style="fill:#000000;fill-opacity:1;stroke:none;stroke-width:1.13777781" />
      <path
         style="fill:#000000;fill-opacity:1;stroke:none;stroke-width:1.13777781"
         d="m 534.04969,442.80647 -0.47318,2.13287 -4.91418,-1.59111 6.26332,4.6958 0.58235,-2.62544 1.26006,0.40807 v -2.13984 z"
         id="path4209"
         inkscape:connector-curvature="0" />
    </g>
    <g
       id="layer1-5"
       inkscape:label="Calque 1"
       transform="matrix(0.3248797,0,0,0.3248797,305.67088,216.07897)">
      <g
         transform="matrix(2.429154,0,0,2.429154,-388.74207,-655.73868)"
         id="g20872">
        <path
           style="fill:#000000;fill-opacity:1;stroke:#000000;stroke-width:0.43911034px;stroke-linecap:butt;stroke-linejoin:miter;stroke-opacity:1"
           d="m 271.14286,444.6149 c 4.3492,4.15682 8.88888,4.65372 13.33333,9.04762 -27.82773,14.25617 -34.99746,44.63055 -4.47619,43.33333 -35.05072,16.82857 -38.24127,-33.93791 -8.85714,-52.38095 z"
           id="path20354"
           inkscape:connector-curvature="0"
           sodipodi:nodetypes="cccc" />
        <path
           style="fill:#000000;fill-opacity:1;stroke:#000000;stroke-width:0.43911034px;stroke-linecap:butt;stroke-linejoin:miter;stroke-opacity:1"
           d="m 323.23809,450.47204 c 0.93108,-6.2856 0.35525,-8.85735 7.04763,-13.85714 30.17859,17.32042 35.48941,68.20469 -1.38095,55.95239 30.76789,-5.52912 9.08438,-26.97538 -5.66668,-42.09525 z"
           id="path20356"
           inkscape:connector-curvature="0"
           sodipodi:nodetypes="cccc" />
        <path
           style="fill:#000000;fill-opacity:1;stroke:#000000;stroke-width:0.43911034px;stroke-linecap:butt;stroke-linejoin:miter;stroke-opacity:1"
           d="m 290.95237,490.13871 c 1.61375,1.31035 2.89488,1.17935 4.85716,4 -0.74204,9.67549 -1.432,7.30558 -1.61906,21.90476 -0.4642,-12.8138 -4.70201,-16.42134 -3.2381,-25.90476 z"
           id="path20358"
           inkscape:connector-curvature="0"
           sodipodi:nodetypes="cccc" />
        <path
           style="fill:#000000;fill-opacity:1;stroke:#000000;stroke-width:0.43911034px;stroke-linecap:butt;stroke-linejoin:miter;stroke-opacity:1"
           d="m 310.47618,494.23395 c 2.44184,5.05891 2.21437,21.86366 3.38096,30.09523 -0.34786,-11.5511 3.23471,-23.93403 -0.0476,-32.23809 -1.58983,0.0603 -1.56788,0.1008 -3.33335,2.14286 z"
           id="path20360"
           inkscape:connector-curvature="0"
           sodipodi:nodetypes="ccccc" />
        <path
           style="fill:#000000;fill-opacity:1;stroke:#000000;stroke-width:0.43911034px;stroke-linecap:butt;stroke-linejoin:miter;stroke-opacity:1"
           d="m 288.54711,411.02826 3.44122,1.23286 c 0.32425,3.34911 -0.12364,4.46563 1.64342,7.51565 1.90466,-3.96328 3.37782,-5.02504 3.55271,-10.57222 -1.60369,-0.0519 -3.15491,-0.30942 -3.15491,-0.30942 -0.23083,-2.88552 1.05252,-3.87832 1.5895,-5.80407 4.07195,0.0311 5.85904,-1.60224 8.32731,-1.82722 1.53224,-0.10261 3.581,2.32447 5.10126,2.5415 3.87948,-2.67452 7.8502,-1.95505 12.28571,-2.61905 3.10005,9.83929 -0.0319,9.06112 -1.94655,14.31583 -2.05686,4.00663 -5.12025,2.8718 -7.92245,3.95821 -13.79341,6.78816 -7.52357,15.09189 -9.05346,23.60118 3.65687,0.46712 2.00929,-1.96513 3.25579,-4.20855 4.30888,-4.27878 9.18943,-5.52707 13.38096,-9.28572 1.80209,-2.26126 2.08444,-5.40413 2.85714,-8.19047 1.45403,-4.45166 1.58375,-6.08483 3.80952,-7.23809 0.48747,2.96757 -1.03827,6.88874 -0.57142,9.47619 2.59388,2.69423 3.40457,3.88826 1.33333,8.66666 -9.31919,8.14781 -6.49169,14.18112 -14.4521,20.74385 -0.28759,2.6477 2.9344,6.91625 1.79748,10.55899 -1.71988,5.51065 -3.98281,15.48732 -2.393,25.36382 -1.65352,2.13784 -3.81254,2.45855 -4.19048,6.7143 3.86569,5.20268 1.5104,21.22153 2.85715,37.90475 -0.52391,2.09804 -4.19048,4.95239 -4.19048,4.95239 0.54631,-12.40207 1.35126,-26.15452 1.57143,-36.14286 -2.59068,-12.65372 -5.37437,-13.71229 -3.52381,-21.47619 3.08524,-6.67373 5.32792,-13.75395 5.7619,-21.04762 -3.72842,0.14485 -4.19582,4.50675 -6.85714,5.52381 3.05983,5.84714 1.22209,6.20721 -0.21879,12.16216 -2.89947,-7.54583 -3.66242,-7.51065 -1.14286,-12.08108 -0.84111,-2.08899 -3.97224,-5.45526 -6.22035,-5.32376 -2.22328,10.66507 -2.62394,11.74277 3.96295,16.09982 0.34358,4.2069 -1.92511,10.70498 1.33334,14.4762 2.60288,2.08432 1.29335,13.81159 -1.2381,43.14285 -1.01045,-1.29924 -0.83023,-1.19623 -2.66666,-3.76191 -0.2202,-6.33692 3.08223,-31.60021 2.71429,-36.42856 -0.13924,-1.82734 -6.18583,-6.99909 -7.38096,-9.19048 -1.80281,-3.30562 2.18605,-20.74718 -3.33333,-25.71428 -0.98728,-3.15116 -0.36312,-10.11294 -0.36312,-10.11294 -5.29793,-0.80597 -9.75388,-4.21966 -12.11913,-8.03576 -0.98685,-1.63042 0.49953,-3.71516 -0.10123,-5.5238 -3.34749,-2.67956 -1.64886,-4.21854 -1.41658,-6.0418 1.384,-4.34224 1.4716,-9.64469 4.97647,-9.1963 1.08493,3.89893 0.26314,8.10036 0.73782,12.00583 11.15821,6.22857 8.13703,7.98357 14.5238,8.90477 0.52746,3.02658 -0.0615,6.44781 3.23811,5.52381 0,0 -0.60407,-9.52196 -1.95239,-13.28572 -1.76608,-3.0212 -1.53087,-4.41801 -1.52381,-7.95237 -6.31262,-3.02008 -16.53893,-7.53196 -14.90476,-17.38096 2.77545,-4.67709 6.40407,-5.23403 11.47619,-4.57143 0.1754,4.70325 -3.23807,2.9897 -2.69089,7.9372 z"
           id="path20362"
           inkscape:connector-curvature="0"
           sodipodi:nodetypes="cccccccccccccccccccscccccccccccccccsscccccccccccccc" />
      </g>
    </g>
    <g
       id="g10099"
       transform="matrix(0.28752273,0,0,0.28752273,258.69141,322.03978)">
      <path
         id="path10097"
         d="M 7.9146667,155.7184 C 9.7973333,105.80587 35.092267,59.770667 81.333333,29.3504 c 0.136534,0.0512 1.3344,-0.385067 0.7872,0.650667 -3.662933,3.396266 -69.5168,81.188263 -8.900266,142.592003 0,0 31.848533,30.6176 56.545063,1.56586 0,0 24.37014,-31.5488 -0.30826,-79.373863 0,0 -6.2464,-15.616 -28.752,-25.3024 L 118.82987,49.4848 c 0,0 15.31626,6.571733 27.17653,24.395733 0,0 0.63253,-18.765866 -13.74293,-38.762666 L 160.3648,3.2352 188.18347,34.818133 c 0,0 -12.79254,18.123734 -13.7344,39.362134 0,0 8.73706,-14.375467 27.4944,-24.6944 l 17.7984,19.997866 c 0,0 -17.11467,5.639467 -28.58027,25.0976 -9.85813,18.028797 -17.44747,56.586667 0.44373,80.237867 0,0 20.02347,28.39253 55.2448,-1.67573 0,0 64.75947,-58.0256 -6.64106,-141.91787 0,0 -3.90187,-3.448533 0.47893,-1.5744 31.5584,22.976 69.34613,53.275733 73.248,128.8928 -1.54027,91.69707 -62.94613,157.15627 -152.61227,157.15627 C 73.5296,315.6992 5.28,242.4352 7.9146667,155.7184"
         inkscape:connector-curvature="0"
         style="stroke-width:1.06666672" />
    </g>
    <path
       style="fill:#000000;fill-opacity:1;stroke:none;stroke-width:1.06666672"
       d="m 190.63333,326.76667 c -24.9937,0 -45.26666,20.23963 -45.26666,45.23333 0,24.99371 20.27296,45.26667 45.26666,45.26667 24.9937,0 45.26667,-20.27296 45.26667,-45.26667 0,-24.9937 -20.27297,-45.23333 -45.26667,-45.23333 z m -2.1,4.6 c 0.0441,-0.002 0.0893,0.002 0.13334,0 V 333.7 c -2.68053,0.13625 -5.35367,0.53318 -7.96667,1.23333 l 1.16667,4.23334 c -5.83916,1.55359 -11.04404,4.62831 -15.2,8.76666 l -3.1,-3.1 c -1.9237,1.9237 -3.60285,4.0656 -5.06667,6.33334 l -2.1,-1.2 c 6.89157,-10.68149 18.64394,-17.91643 32.13333,-18.6 z m 4.06667,0 c 13.55505,0.64326 25.35085,7.90417 32.26667,18.63333 L 222.8,351.2 c -1.46937,-2.28224 -3.16544,-4.43211 -5.1,-6.36667 L 214.6,347.9 c -4.15345,-4.13059 -9.36806,-7.18166 -15.2,-8.73333 l 1.16667,-4.23334 C 197.95366,334.23318 195.28052,333.83625 192.6,333.7 Z m -1.96667,13.56666 c 1.6241,0 3.22127,0.1261 4.76667,0.4 l -2.43333,13.23334 c 3.15426,0.55618 6.00787,2.17975 8.06666,4.63333 l 10.3,-8.63333 c 2.02334,2.40051 3.63677,5.16072 4.73334,8.16666 l -12.63334,4.6 c 1.09547,3.00977 1.09547,6.32358 0,9.33334 L 216.06667,381.3 c -1.0988,3.01204 -2.70422,5.76273 -4.73334,8.16667 l -10.3,-8.66667 c -2.0588,2.45358 -4.91241,4.11049 -8.06666,4.66667 l 2.46666,13.2 c -1.55644,0.27798 -3.16357,0.43333 -4.8,0.43333 -1.63642,0 -3.24355,-0.15535 -4.8,-0.43333 l 2.36667,-13.2 c -3.15426,-0.55618 -6.00787,-2.21309 -8.06667,-4.66667 l -10.26666,8.6 c -2.01789,-2.40651 -3.64442,-5.15599 -4.73334,-8.16667 l 12.6,-4.56666 c -1.09546,-3.00976 -1.09546,-6.32357 0,-9.33334 l -12.6,-4.56666 c 1.08624,-2.99221 2.72861,-5.73867 4.73334,-8.13334 L 180.13333,363.2 c 2.05881,-2.45358 4.91241,-4.07715 8.06667,-4.63333 l -2.36667,-13.23334 c 1.55557,-0.27765 3.16457,-0.4 4.8,-0.4 z m -36.2,8.43334 2.1,1.2 c -1.2138,2.379 -2.2033,4.86659 -2.9,7.46666 l 4.16667,1.1 c -0.7613,2.82551 -1.16667,5.80063 -1.16667,8.86667 0,3.01772 0.39508,5.94785 1.13334,8.73333 l -4.13334,1.1 c 0.70716,2.63913 1.72721,5.15592 2.96667,7.56667 l -2.16667,1.23333 c -2.87898,-5.5832 -4.5,-11.91767 -4.5,-18.63333 0,-6.72032 1.61727,-13.0473 4.5,-18.63333 z m 72.4,0 c 2.88445,5.58603 4.5,11.91301 4.5,18.63333 0,6.71566 -1.61929,13.05013 -4.5,18.63333 L 224.66667,389.4 c 1.23946,-2.41076 2.25951,-4.92754 2.96666,-7.56667 l -4.16666,-1.1 C 224.20493,377.94785 224.6,375.01772 224.6,372 c 0,-3.06604 -0.40537,-6.04116 -1.16667,-8.86667 l 4.2,-1.1 c -0.69411,-2.59046 -1.69248,-5.06217 -2.9,-7.43333 z m -68.3,39.4 c 1.4548,2.24434 3.1272,4.36053 5.03334,6.26666 l 3.03333,-3 c 4.14737,4.14737 9.36561,7.23399 15.2,8.8 l -1.1,4.1 c 2.613,0.70015 5.28614,1.09709 7.96667,1.23334 v 2.5 C 175.11754,412.02369 163.31315,404.75537 156.4,394.03333 Z m 64.2,0.0333 2.13334,1.23333 C 217.94965,404.75532 206.1496,412.02364 192.6,412.66661 v -2.5 c 2.68052,-0.13624 5.35366,-0.53318 7.96667,-1.23333 l -1.1,-4.09995 c 5.83439,-1.56601 11.05263,-4.65263 15.2,-8.8 l 3.03333,3 c 1.89946,-1.89945 3.58201,-3.9979 5.03333,-6.23333 z"
       id="path20898"
       inkscape:connector-curvature="0" />
    <path
       style="fill:none;stroke:#000000;stroke-width:1.06666672px;stroke-linecap:butt;stroke-linejoin:miter;stroke-opacity:1"
       d="m 275.8205,642.45774 22.52704,19.14638 6.52242,-29.02129 5.09736,29.62474 23.84248,-18.37831 -15.40169,26.00396 23.89729,3.07219 -22.19817,8.39368 22.19817,19.25609 -28.11769,-9.71034 1.42508,21.77968 -12.38714,-18.10401 -18.96436,25.34562 8.27635,-29.5699 -27.45995,8.55827 22.25298,-18.76234 -18.14221,-8.94229 20.38943,-2.02985 z"
       id="path4027"
       inkscape:connector-curvature="0" />
    <path
       sodipodi:nodetypes="czc"
       inkscape:connector-curvature="0"
       id="path6991"
       d="m 344.48821,466.62204 c 11.34087,0 12.17486,8.55596 12.17486,12.17487 0,3.61891 -0.062,12.17487 12.17487,12.17487"
       style="fill:none;stroke:#000000;stroke-width:1.06666684px;stroke-linecap:square;stroke-linejoin:miter;stroke-opacity:1" />
    <g
       transform="matrix(0.18281292,0,0,0.18281292,311.66008,254.6677)"
       id="layer1-54"
       inkscape:label="Layer 1">
      <path
         d="M 1361.2233,765.99396 1140.6126,894.49282 919.02393,767.68776 918.04601,512.38385 1138.6567,383.88499 1360.2454,510.69005 Z"
         inkscape:randomized="0"
         inkscape:rounded="0"
         inkscape:flatsided="true"
         sodipodi:arg2="1.0433671"
         sodipodi:arg1="0.5197684"
         sodipodi:r2="199.38942"
         sodipodi:r1="255.30579"
         sodipodi:cy="639.1889"
         sodipodi:cx="1139.6346"
         sodipodi:sides="6"
         id="path3347"
         style="color:#000000;clip-rule:nonzero;display:inline;overflow:visible;visibility:visible;opacity:1;isolation:auto;mix-blend-mode:normal;color-interpolation:sRGB;color-interpolation-filters:linearRGB;solid-color:#000000;solid-opacity:1;fill:#ffffff;fill-opacity:1;fill-rule:evenodd;stroke:#000000;stroke-width:13.92446327;stroke-linecap:butt;stroke-linejoin:miter;stroke-miterlimit:4;stroke-dasharray:none;stroke-dashoffset:0;stroke-opacity:1;color-rendering:auto;image-rendering:auto;shape-rendering:auto;text-rendering:auto;enable-background:accumulate"
         sodipodi:type="star" />
      <circle
         style="color:#000000;clip-rule:nonzero;display:inline;overflow:visible;visibility:visible;opacity:1;isolation:auto;mix-blend-mode:normal;color-interpolation:sRGB;color-interpolation-filters:linearRGB;solid-color:#000000;solid-opacity:1;fill:#000000;fill-opacity:1;fill-rule:evenodd;stroke:#000000;stroke-width:13.7798481;stroke-linecap:butt;stroke-linejoin:miter;stroke-miterlimit:4;stroke-dasharray:none;stroke-dashoffset:0;stroke-opacity:1;color-rendering:auto;image-rendering:auto;shape-rendering:auto;text-rendering:auto;enable-background:accumulate"
         id="circle4164"
         cx="1139.6348"
         cy="639.1889"
         r="182.79391" />
      <path
         sodipodi:nodetypes="cccccccccccccccccccccccccccccccccccccccccccccccccccc"
         inkscape:connector-curvature="0"
         id="path4155"
         d="m 1123.1601,456.53558 -2.8984,78.30859 -29.7227,-72.19336 -32.2559,12.19922 25.586,74.06641 -53.7949,-56.58008 -25.6719,23.02734 50.6133,59.82031 -70.5996,-33.32422 -15.61914,30.7461 68.80664,37.5 -77.87305,-5.57227 -3.45703,34.31055 77.70508,10.11133 -74.62696,22.93555 9.17188,33.24414 76.11128,-18.64258 -61.30269,48.3457 20.56049,27.68555 64.2364,-44.87891 -39.6973,67.22656 29.1738,18.38868 43.6875,-65.05469 -12.7324,77.02734 33.8457,6.60938 17.2383,-76.43946 15.9511,76.42188 33.9473,-6.06445 -11.539,-77.50586 42.4824,65.5 29.4648,-17.91797 -38.7597,-68.10352 63.2753,45.73242 21.002,-27.35351 -60.7422,-49.50196 75.5215,19.78516 9.7031,-33.09375 -74.5234,-24.2168 77.5683,-8.83203 -2.9062,-34.36328 -78.2402,4.33985 69.1425,-36.25782 -15.125,-30.99218 -71.3867,32.31054 51.3731,-58.78515 -25.2989,-23.4375 -54.8965,55.91601 26.67,-73.37305 -32.0567,-12.71484 -30.9883,71.9707 -1.6386,-78.05273 z"
         style="color:#000000;font-style:normal;font-variant:normal;font-weight:normal;font-stretch:normal;font-size:medium;line-height:normal;font-family:sans-serif;text-indent:0;text-align:start;text-decoration:none;text-decoration-line:none;text-decoration-style:solid;text-decoration-color:#000000;letter-spacing:normal;word-spacing:normal;text-transform:none;writing-mode:lr-tb;direction:ltr;baseline-shift:baseline;text-anchor:start;white-space:normal;clip-rule:nonzero;display:inline;overflow:visible;visibility:visible;opacity:1;isolation:auto;mix-blend-mode:normal;color-interpolation:sRGB;color-interpolation-filters:linearRGB;solid-color:#000000;solid-opacity:1;fill:#ffffff;fill-opacity:1;fill-rule:evenodd;stroke:none;stroke-width:34.5;stroke-linecap:butt;stroke-linejoin:miter;stroke-miterlimit:4;stroke-dasharray:none;stroke-dashoffset:0;stroke-opacity:1;color-rendering:auto;image-rendering:auto;shape-rendering:auto;text-rendering:auto;enable-background:accumulate" />
      <circle
         r="182.79391"
         cy="639.1889"
         cx="1139.6348"
         id="path4153"
         style="color:#000000;clip-rule:nonzero;display:inline;overflow:visible;visibility:visible;opacity:1;isolation:auto;mix-blend-mode:normal;color-interpolation:sRGB;color-interpolation-filters:linearRGB;solid-color:#000000;solid-opacity:1;fill:none;fill-opacity:1;fill-rule:evenodd;stroke:#000000;stroke-width:13.7798481;stroke-linecap:butt;stroke-linejoin:miter;stroke-miterlimit:4;stroke-dasharray:none;stroke-dashoffset:0;stroke-opacity:1;color-rendering:auto;image-rendering:auto;shape-rendering:auto;text-rendering:auto;enable-background:accumulate" />
    </g>
    <rect
       style="opacity:1;fill:none;fill-opacity:0.21596243;stroke:#000000;stroke-width:1.88999999;stroke-linecap:square;stroke-linejoin:miter;stroke-miterlimit:4;stroke-dasharray:none;stroke-dashoffset:0;stroke-opacity:1;paint-order:normal"
       id="rect12654"
       width="188.97641"
       height="37.795269"
       x="116.5118"
       y="463.62204" />
    <path
       style="fill:none;stroke:#000000;stroke-width:1.88976371;stroke-linecap:butt;stroke-linejoin:miter;stroke-miterlimit:4;stroke-dasharray:none;stroke-opacity:1"
       d="m 116.51177,463.62202 c 48.47283,4e-5 69.43921,6.92639 94.4882,18.89765 25.049,11.97127 45.85033,18.89765 94.4882,18.89765"
       id="path12656"
       inkscape:connector-curvature="0"
       sodipodi:nodetypes="czc" />
    <rect
       style="opacity:1;fill:none;fill-opacity:1;stroke:#000000;stroke-width:1.88976383;stroke-linecap:square;stroke-linejoin:miter;stroke-miterlimit:4;stroke-dasharray:none;stroke-dashoffset:0;stroke-opacity:1;paint-order:normal"
       id="rect13266"
       width="24.34973"
       height="24.349739"
       x="344.48822"
       y="466.62204" />
  </g>
</svg>
