<?xml version="1.0" encoding="UTF-8" standalone="no"?>
<!-- Created with Inkscape (http://www.inkscape.org/) -->

<svg
   xmlns:dc="http://purl.org/dc/elements/1.1/"
   xmlns:cc="http://creativecommons.org/ns#"
   xmlns:rdf="http://www.w3.org/1999/02/22-rdf-syntax-ns#"
   xmlns:svg="http://www.w3.org/2000/svg"
   xmlns="http://www.w3.org/2000/svg"
   xmlns:sodipodi="http://sodipodi.sourceforge.net/DTD/sodipodi-0.dtd"
   xmlns:inkscape="http://www.inkscape.org/namespaces/inkscape"
   width="210mm"
   height="297mm"
   viewBox="0 0 210 297"
   version="1.1"
   id="svg8"
   inkscape:version="0.92.1 r15371"
   sodipodi:docname="ships-shadows.svg">
  <defs
     id="defs2" />
  <sodipodi:namedview
     id="base"
     pagecolor="#ffffff"
     bordercolor="#666666"
     borderopacity="1.0"
     inkscape:pageopacity="0.0"
     inkscape:pageshadow="2"
     inkscape:zoom="0.9899495"
     inkscape:cx="497.1649"
     inkscape:cy="805.81975"
     inkscape:document-units="mm"
     inkscape:current-layer="layer1"
     showgrid="false"
     inkscape:window-width="1680"
     inkscape:window-height="997"
     inkscape:window-x="1912"
     inkscape:window-y="-8"
     inkscape:window-maximized="1" />
  <metadata
     id="metadata5">
    <rdf:RDF>
      <cc:Work
         rdf:about="">
        <dc:format>image/svg+xml</dc:format>
        <dc:type
           rdf:resource="http://purl.org/dc/dcmitype/StillImage" />
        <dc:title></dc:title>
      </cc:Work>
    </rdf:RDF>
  </metadata>
  <g
     inkscape:label="Layer 1"
     inkscape:groupmode="layer"
     id="layer1">
    <path
       sodipodi:nodetypes="ccccccccccccccccccccccccccccccccccc"
       inkscape:connector-curvature="0"
       id="path3704"
       d="m 22.231038,37.240727 -5.909816,-4.44266 0.03688,0.70734 5.579411,4.44238 -0.389549,0.71103 0.29583,0.43687 -0.149391,0.30707 2.957171,3.2146 -1.536598,0.53201 -9.067313,-7.17819 c -0.753326,0.35252 -1.905254,0.51493 -3.278827,0.84494 l -1.8366298,-1.70748 c 0.260561,-0.707 0.624993,-1.16508 1.9210308,-2.59957 -0.446627,-0.50828 -0.547118,-0.98012 -0.72639,-1.57582 0.177963,-0.71081 0.794465,-1.42746 1.342482,-1.85682 0.567416,-0.0171 0.9739,0.17219 1.438092,0.33706 l -0.8121,-1.06005 c 0.483259,-1.52172 1.636917,-2.44608 3.048739,-2.89466 l 1.13879,1.06115 c -0.147932,-0.46987 -0.253775,-0.88295 -0.216069,-1.44937 0.485554,-0.50921 1.173994,-0.95469 1.872492,-1.13879 0.588806,0.20076 1.112907,0.5705 1.604658,1.03526 1.418527,-1.30035 2.084214,-1.64158 2.813512,-1.73851 l 1.563347,1.71577 c -0.379596,1.3607 -0.658537,2.41436 -1.038133,3.15441 l 6.493857,9.01739 -0.587382,1.51629 -3.105253,-3.07179 -0.312283,0.13815 -0.425857,-0.31147 -0.724687,0.36351 -4.200532,-5.46232 -0.682343,-0.0371 4.165639,5.76715 c -0.310024,0.6631 -0.524304,0.86265 -1.272773,1.22226 z"
       style="fill:#000000;fill-opacity:1;stroke:none;stroke-width:0.07246847px;stroke-linecap:butt;stroke-linejoin:miter;stroke-opacity:1" />
    <path
       style="fill:#000000;fill-opacity:1;stroke:none;stroke-width:0.07659361px;stroke-linecap:butt;stroke-linejoin:miter;stroke-opacity:1"
       d="m 157.86171,53.66041 1.25833,0.38297 c 0.0615,0.23856 0.56419,-0.53947 1.09419,-0.38297 -0.40006,0.64256 0.0372,1.07575 0.16413,1.58657 -0.38837,-0.0935 -0.79666,-0.13394 -1.08052,-0.50606 -0.75191,-0.0416 -1.28551,0.0189 -1.49084,0.23253 l -0.80696,-0.76594 -5.51201,0.32825 -0.0199,1.48837 c 0.49551,1.33704 2.89305,1.34902 4.33591,1.49109 1.06093,0.10455 1.21076,-0.4843 1.75676,0.16635 0.29695,3.59699 2.13369,8.560398 3.5151,9.902449 1.38141,1.342064 2.55768,1.094194 2.55768,1.094194 0.35328,1.472784 0.6589,3.048745 0.50607,4.431475 0.8265,0.97188 2.066,2.43674 2.74916,2.70813 0.68316,0.27138 1.34039,-0.71124 1.34039,-0.71124 l 0.16736,-1.8669 0.50087,-0.19126 0.0334,-0.9808 1.20653,0.75552 0.15046,-0.30099 -1.80167,-1.335167 0.61343,-9.463271 0.36431,-0.92137 0.0647,-1.42491 c 0,0 0.8606,-0.33759 1.34039,-1.13522 0.47978,-0.79763 0.28722,-1.76439 0.28722,-1.76439 l 0.50607,-0.25986 0.90271,0.67019 c 0.41765,0.0348 0.794,0.0219 1.62761,0.10935 l 2.05162,-0.36928 c 0.0325,-0.80566 -0.27097,-1.81598 -1.14891,-2.69446 l -4.15794,0.16413 c -0.16797,-0.40744 -0.40201,-0.76533 -0.82064,-0.98478 -0.143,-1.75806 -1.09616,-3.84588 -2.13368,-5.03329 -1.03751,-1.18741 -2.20941,-2.21454 -3.88439,-2.13367 -1.67498,0.0808 -4.14826,2.25682 -4.81446,3.21419 -0.6662,0.95737 -1.31162,2.46586 -1.42245,4.49988 z"
       id="path4530"
       inkscape:connector-curvature="0"
       sodipodi:nodetypes="cccccccccsczcczcccccccccczcccccccczzzcc" />
    <path
       style="fill:#000000;fill-opacity:1;stroke:none;stroke-width:0.10256403px;stroke-linecap:butt;stroke-linejoin:miter;stroke-opacity:1"
       d="m 137.54607,31.611047 -0.0392,-0.91315 0.5807,-0.28584 6.73292,0.10453 3.60806,2.68315 0.21063,-2.27106 c 0,0 3.92898,1.49675 5.11903,2.66484 1.19006,1.16808 2.95573,3.18817 3.09026,4.98168 0.13453,1.79352 0.004,3.27045 -0.97384,4.79593 -0.9781,1.52547 -3.06182,2.74986 -4.84849,3.65487 -1.78667,0.90502 -6.05913,1.87886 -6.05913,1.87886 -0.61376,0.55188 -0.94355,0.418879 -1.69023,0.571999 l -0.83908,-0.222719 c 0,0 -4.35615,0.0273 -6.54604,-0.4092 -2.1899,-0.4365 -4.39574,-1.12532 -6.70145,-2.20226 -2.30572,-1.07693 -4.68577,-2.93859 -5.68798,-4.66547 0.36717,-0.0768 0.54308,-0.0274 0.92908,0.0961 -0.52975,-0.39069 -0.65837,-0.59799 -0.81501,-1.0348 l 0.86749,0.1048 -0.26231,-0.82693 c -0.12326,-0.11967 -1.67201,-1.59471 -1.67201,-1.59471 0.19202,-0.94943 1.43041,-2.84013 1.43041,-2.84013 l 1.35347,-0.16353 1.35791,1.28833 0.25381,-0.2627 -1.75824,-1.68497 -0.0855,-0.758679 0.61471,-0.05372 1.30231,-1.055742 -0.14652,-2.74724 1.90477,-0.46531 1.31868,0.75837 0.0366,1.13554 c 0,0 1.40503,-0.64375 2.1978,-0.36626 0.79278,0.27748 1.90477,2.38095 1.90477,2.38095 l 4.0293,3.663 -0.0733,0.54945 2.53189,2.201347 4.74984,-1.707895 z"
       id="path4558"
       inkscape:connector-curvature="0"
       sodipodi:nodetypes="cccccczzzzccczzcccccccccccccccccczcccccc" />
    <path
       style="fill:#000000;fill-opacity:1;stroke:none;stroke-width:0.08258181px;stroke-linecap:butt;stroke-linejoin:miter;stroke-opacity:1"
       d="m 44.183911,17.365251 0.834204,-0.166841 -0.250261,0.583939 0.04171,0.750784 0.834203,0.959336 0.392299,0.800691 0.316772,0.11693 c 0,0 1.87749,2.847959 2.13835,3.140294 0.0647,0.07245 0.17083,0.258177 0.38511,0.332071 0.0781,0.02694 0.88404,0.11046 1.31387,-0.01042 0.42983,-0.120885 0.80374,-0.322592 1.18874,-0.844629 0.0305,-0.636738 -1.39725,-4.410846 -1.39725,-4.410846 l -1.71011,-2.711157 -0.4497,-1.48334 0.494531,-0.241214 1.012305,1.747526 0.650759,-0.274711 0.330727,0.492773 0.70907,-0.417102 -0.31301,-0.486128 0.474588,-0.245001 -0.35835,-0.620162 0.34252,-0.152089 0.993827,1.296308 0.437862,-0.247957 -0.850315,-1.201618 0.370453,-0.149417 0.387181,-0.255514 0.022,-0.337955 -7.579026,-5.0022668 -0.541076,0.382766 -0.305344,-0.479561 -1.209594,-0.406674 -0.385818,0.291973 -0.980186,-0.302397 -1.459855,1.345147 -0.656935,-0.239833 -2.627737,2.6277368 -0.583942,-0.271114 -0.355789,0.252434 -0.04046,1.582812 -2.844489,2.913633 c 0.08881,0.374688 0.115419,0.380125 0.258463,0.53788 l 1.293015,-0.656935 0.383791,0.73843 0.475619,-0.05426 c 0,0 0.32797,1.119803 0.475616,1.325812 l 0.591838,-0.133229 c -0.07686,-0.40589 -0.351659,-0.985545 -0.39402,-1.303237 l 0.784395,-0.203995 0.435019,1.298074 0.64853,-0.157831 0.260689,0.621605 0.627776,-0.195794 -0.166941,-0.613403 0.613705,-0.210272 -0.62332,-2.016665 2.490059,-0.400901 0.621702,1.047005 0.627475,0.0084 0.573512,1.167882 z"
       id="path5138"
       inkscape:connector-curvature="0"
       sodipodi:nodetypes="cccccccsszcccccccccccccccccccccccccccccccccccccccccccccccccccc" />
    <path
       style="fill:#000000;fill-opacity:1;stroke:none;stroke-width:0.0791963px;stroke-linecap:butt;stroke-linejoin:miter;stroke-opacity:1"
       d="m 65.701191,14.115978 -1.040004,0.04 -3.600015,-8.1600396 -0.488183,0.19425 -0.15182,1.64576 1.103436,3.6400196 -0.748287,2.55515 0.833141,2.0877 4.115164,-0.12484 -0.863435,0.80201 0.320001,2.64001 0.880004,0.56 0.08,2.16001 1.060004,0.19001 0.140001,0.52999 0.920005,0.2 v 0.32001 l -0.460002,0.44 -0.06,0.76 -2.720011,0.88001 -0.03,1.78 -0.260001,0.20001 -2.990014,-0.82001 -0.680002,1.24 0.490001,0.77001 0.110001,0.75 -0.550002,0.51 0.11,0.89001 1.470006,-0.17 1.770008,-1.84001 1.160005,0.1 -0.09,1.10001 c 0.803047,0.25779 4.251955,-0.73232 4.250019,-4.87003 l 0.960002,0.16 c 0.02761,2.925563 0.104703,3.871793 2.110008,3.90002 l 0.610006,-1.58 0.33,0.04 0.110001,1.52 h 0.520002 l 0.43,-0.44 0.370005,-1.16 1.080005,-1.14001 0.186182,-0.6648 -0.386185,-0.63521 -1.200007,0.65001 -0.329997,-0.05 0.4,-0.79 -0.430001,-0.63001 -1.450009,-0.1 -0.590002,-0.98 -0.09,-1.65001 0.520002,-0.05 0.23312,0.16712 0.376882,0.42289 0.800005,0.17 0.2,-0.24001 -0.119999,-0.48 -0.400002,-0.32 0.08,-0.2 -0.730002,-0.88 0.179999,-0.45001 1.300005,-0.52993 0.370002,-0.42 0.08,-1.20001 -0.230004,-1.44001 -0.810002,-0.68 0.370001,-0.32 2.350009,-0.2 0.188284,-1.64001 -0.762012,-2.42344 -0.21657,-3.3482896 -0.534706,-1.6733002 -0.581424,-0.035 -0.538436,7.8868898 -0.550297,0.11315 -0.39515,-3.04286 c -2.102792,1.06538 -2.807626,4.86149 -3.009718,8.88288 l -0.520002,0.04 c -0.355559,-4.39942 -2.127213,-6.90214 -4.360019,-8.44004 z"
       id="path5175"
       inkscape:connector-curvature="0"
       sodipodi:nodetypes="cccccccccccccccccccccccccccccccccccccccccccccccccccccccccccccccccccccccccccccccc" />
    <path
       style="fill:#000000;fill-opacity:1;stroke:none;stroke-width:0.07411765px;stroke-linecap:butt;stroke-linejoin:miter;stroke-opacity:1"
       d="m 12.831028,13.107576 0.952942,-2.75295 2.187676,2.87238 0.520977,0.45114 1.473701,2.20884 0.29118,-0.18529 -0.29118,-0.39706 0.0529,-0.29118 -0.87353,-1.24412 c -0.428961,-1.05839 1.27961,-1.75188 1.77353,-1.08529 l 0.91324,1.21765 0.77426,0.21176 0.90662,1.03235 0.37059,-0.34412 -1.40294,-1.77353 -0.0529,-0.68823 -1.85294,-2.7264699 3.81176,1.3764699 2.72647,3.52059 c 0,0 3.541931,0.52717 4.447061,0.9265 l 1.27059,2.01177 -1.48235,0.31764 -0.1853,0.84706 -3.25588,0.95294 c 0,0 -0.0911,0.34328 -0.239561,0.42486 -0.1485,0.0816 -0.52809,-0.0278 -0.52809,-0.0278 0,0 -0.0868,0.53205 -0.43449,0.85215 -0.499,0.45935 -1.31247,0.57507 -1.85515,0.61524 -0.27141,0.0201 -1.051799,-0.214465 -1.051799,-0.214465 l -0.588501,-0.445965 c 0,0 -0.10197,0.26235 -0.27888,0.3048 -0.17692,0.0425 -0.6353,-0.23823 -0.6353,-0.23823 l -3.864701,0.37058 -0.423532,-0.52941 -1.429413,0.15883 -1.508825,-2.03824 c 0.949913,-1.241946 1.397099,-1.576566 2.17059,-1.98529 z"
       id="path5203"
       inkscape:connector-curvature="0"
       sodipodi:nodetypes="cccccccccccccccccccccccczcsscczccccccc" />
    <path
       style="fill:#000000;fill-opacity:1;stroke:none;stroke-width:0.09961755px;stroke-linecap:butt;stroke-linejoin:miter;stroke-opacity:1"
       d="m 129.0766,26.038741 c 0,0 0.73893,1.74512 2.2805,1.64906 1.54157,-0.0961 1.89595,-1.04681 2.0717,-1.2717 l 1.0566,0.45283 -0.15094,-0.60377 -0.69183,-0.36479 c 0.18775,-0.79643 -0.10737,-1.49926 -0.64151,-2.25157 l 0.20126,-0.30188 c 0.83113,0.26837 2.30626,-0.57516 2.30956,-2.17428 0.003,-1.59914 -1.22779,-2.12761 -1.22779,-2.12761 l -1.15724,-1.48428 -1.15723,-1.66038 -2.86792,-2.01257 3.19496,-2.26415 -1.20754,-1.03145 -0.22642,0.42767 -3.37107,1.81132 -1.03145,-0.5283 c -0.46438,-0.22492 -0.70708,0.12832 -0.47798,0.37736 l 0.72956,0.65409 -0.3522,0.27673 c -0.42446,-0.4676 -0.8856,-0.41072 -1.3801,-0.13762 -0.4945,0.27309 -1.1557,1.01305 -0.94066,1.34829 v 0 c 0,0 -0.40162,-0.43119 -1.52559,-0.12016 -1.12397,0.31102 -1.26057,0.92204 -1.26057,0.92204 l -0.93082,-0.67924 -1.30818,-0.04083 -0.96149,-0.733337 c -0.72085,0.19212 -1.37903,0.424817 -1.78064,0.799357 l -0.27673,0.65408 -5.03145,-0.65408 0.85535,1.20754 4.02515,0.80503 1.15724,2.03774 0.90566,1.43396 -2.08805,1.86164 -0.75472,1.25786 0.75472,0.90566 3.01886,-2.54088 0.57862,1.20754 2.06289,1.45913 1.63522,1.63522 0.93082,1.08176 -1.83648,2.4654 0.60378,0.80504 2.2893,-2.11321 c -0.0232,0.0148 1.59538,1.30282 3.02581,0.3405 1.43043,-0.96233 0.64715,-2.70528 0.64715,-2.70528 z"
       id="path5231"
       inkscape:connector-curvature="0"
       sodipodi:nodetypes="czcccccczcccccccccccczcczcccccccccccccccccccccczcc" />
    <path
       style="opacity:0.97000002;fill:#000000;fill-opacity:1;stroke:none;stroke-width:0.10153326px;stroke-linecap:butt;stroke-linejoin:miter;stroke-opacity:1"
       d="m 92.979906,26.338015 1.33333,0.92307 0.61539,-1.1282 5.333324,-2.07692 1.4359,0.25641 0.35897,-1.71795 5.85191,-4.603722 1.15385,1.655299 0.26316,-0.177528 -1.07124,-1.679518 0.16098,-0.118864 1.44703,2.131072 0.23218,-0.185132 -1.33707,-2.186818 0.58124,-0.424529 -3.48718,-5.666671 -0.89789,-0.29266 -0.82006,0.7542 -7.461534,0.53846 -1.78846,-1.97436 -0.58334,0.30769 0.73077,1.51923 -0.70341,-0.107813 -0.83788,0.268974 -0.33459,0.440624 -0.72379,-0.06563 -0.8235,0.413215 -0.26913,0.633981 -0.56411,-1.79487 -0.71794,0.25641 v 2.89743 l -5.20513,4.12821 -1.76923,0.30769 -0.46154,1 1.28997,6.08947 0.38491,-0.02663 0.83794,3.321772 0.47192,-0.109457 -0.83599,-3.239544 0.29476,-0.01136 0.55447,2.090269 0.4892,-0.140155 -0.51282,-2 z"
       id="path5259"
       inkscape:connector-curvature="0"
       sodipodi:nodetypes="cccccccccccccccccccccccccccccccccccccccccccc" />
    <g
       transform="matrix(0.45360834,0,0,0.45360834,70.586904,2.5409496)"
       id="g879">
      <g
         id="g180">
        <circle
           style="fill:#000000;fill-opacity:1;stroke:none;stroke-width:0.26458332;stroke-opacity:1"
           id="path42"
           cx="84.427177"
           cy="140.82549"
           r="1.2514023" />
        <circle
           style="fill:#000000;fill-opacity:1;stroke:none;stroke-width:0.26458332;stroke-opacity:1"
           id="path48"
           cx="121.59852"
           cy="104.88294"
           r="1.503391" />
        <circle
           style="fill:#000000;fill-opacity:1;stroke:none;stroke-width:0.26458332;stroke-opacity:1"
           id="path50"
           cx="101.96738"
           cy="113.38178"
           r="2.271791" />
        <circle
           style="fill:#000000;fill-opacity:1;stroke:none;stroke-width:0.26458332;stroke-opacity:1"
           id="path52"
           cx="92.675705"
           cy="122.67345"
           r="2.4054255" />
        <circle
           style="fill:#000000;fill-opacity:1;stroke:none;stroke-width:0.26458332;stroke-opacity:1"
           id="path54"
           cx="99.248184"
           cy="128.99277"
           r="2.5724692" />
        <circle
           style="fill:#000000;fill-opacity:1;stroke:none;stroke-width:0.26458332;stroke-opacity:1"
           id="path58"
           cx="111.10706"
           cy="119.36598"
           r="2.1715648" />
        <circle
           style="fill:#000000;fill-opacity:1;stroke:none;stroke-width:0.26458332;stroke-opacity:1"
           id="path60"
           cx="98.58905"
           cy="118.29691"
           r="3.4410951" />
        <path
           style="fill:#000000;fill-opacity:1;stroke:none;stroke-width:0.26458332px;stroke-linecap:butt;stroke-linejoin:miter;stroke-opacity:1"
           d="m 90.525274,123.83425 1.700554,3.63221 -9.562952,9.18796 -0.712686,-0.82297 -0.868627,0.53454 0.569276,1.3782 0.347467,1.24666 1.377635,1.0517 2.642444,4.47544 -0.24954,0.36793 0.233297,0.35761 0.208892,-0.33089 1.140629,1.98025 0.40041,-0.2155 -0.842192,-2.12945 0.34518,-0.069 -0.187848,-0.41612 -0.359089,0.009 -1.913833,-4.44327 1.350016,-1.23308 2.589172,0.16705 5.061417,-4.74404 0.250566,-2.23838 1.503392,-1.45328 2.214821,0.9973 4.068295,-2.0355 0.8191,-1.6939 11.8071,5.93933 1.80407,2.20498 7.69775,1.84927 2.92622,-2.85153 -5.38273,-5.53012 -1.18222,-0.7608 -1.08958,0.0258 -8.26897,-6.3958 1.72481,-1.00325 0.0757,-2.78766 -1.7289,-1.38368 1.08528,-2.67744 2.7159,0.33409 4.87361,-4.97622 -0.29495,-2.35413 1.52534,-1.48955 6.97329,0.71784 0.64054,1.01908 0.69429,0.0536 -0.3574,-0.97204 1.13644,0.11699 0.0438,-0.54067 -1.08704,-0.23384 0.38447,-0.9828 -0.64883,-0.0154 -0.73847,0.84371 -6.79173,-1.05294 -0.73012,-0.95355 -1.98858,-0.62553 -1.62963,0.31241 0.084,1.53402 -9.54889,7.92881 -2.13815,-0.66817 -2.33861,-0.53454 -3.875413,5.81311 -2.931283,2.93116 -1.841346,0.98039 z"
           id="path62"
           inkscape:connector-curvature="0"
           sodipodi:nodetypes="ccccccccccccccccccccccccccccccccccccccccccccccccccccccccccccccccc" />
      </g>
    </g>
    <path
       style="fill:#000000;fill-opacity:1;stroke:none;stroke-width:0.06803776px;stroke-linecap:butt;stroke-linejoin:miter;stroke-opacity:1"
       d="m 8.1713625,48.149429 -0.6185564,0.54983 -1.2027491,4.70791 9.621992,5.80755 c 0.128866,1.17698 1.214291,1.30071 1.924398,1.16839 0.710107,-0.13232 1.563574,-0.79038 1.271478,-1.64949 l 0.23332,-0.18504 c 0.721649,0.0344 0.754596,-0.43155 0.763243,-0.60533 0.0063,-0.12711 -0.064,-0.55675 -0.633527,-0.60831 -0.05887,-0.005 -0.01939,-0.14771 -0.01939,-0.14771 l 0.859107,-0.10309 5.532646,4.50172 1.477662,0.13746 c 1.468819,1.07617 2.968109,1.8781 4.501719,2.37113 l 0.309277,-0.68729 c -0.792146,-1.62516 -2.146239,-2.80076 -3.23024,-4.19244 l -0.412369,-0.34364 -0.618557,0.27492 0.06873,-1.03093 -1.065293,-0.72165 2.474229,-1.03093 4.364261,2.50859 0.652918,-0.34364 -0.06873,0.65292 c 1.615119,0.78685 3.230243,1.35437 4.845363,1.75258 l 0.34364,-0.13746 0.103092,-0.82474 c -0.801829,-1.00133 -1.603666,-1.79631 -2.405495,-2.47423 l -0.721652,-0.34364 -0.618555,-0.75601 -0.412369,-0.24055 0.03436,-0.51547 -2.92096,-2.19931 0.79038,-0.30928 c 0.94767,0.77758 2.344625,0.62588 2.749138,-0.17182 0.404513,-0.7977 0.146216,-2.05352 -1.40893,-2.19931 l -6.632304,-5.49829 -0.206186,0.0687 -0.446734,-0.378 0.06873,-0.34365 -7.182129,-0.51546 -0.06873,1.27148 7.491409,2.13058 0.996564,3.50516 -0.996564,-0.20619 -4.329898,-2.50859 0.06873,-0.13746 -5.498281,-2.71477 -0.756013,0.0344 -0.24055,0.0687 -0.412371,0.41237 0.137457,0.10309 -0.652921,0.20619 -0.515464,-0.0687 -1.134021,0.34364 -0.309278,0.30928 0.137458,3.53952 2.302405,3.09278 0.584193,0.0687 0.962198,1.06529 -0.206186,1.03093 c -0.242166,-0.21024 -0.707822,0.19721 -0.515464,0.51547 l 0.790378,1.16838 -1.340206,0.0344 0.06873,-2.06185 -4.398625,-3.3677 -4.0206188,-0.20618 z"
       id="path937"
       inkscape:connector-curvature="0"
       sodipodi:nodetypes="cccczccssccccccccccccccccccccccccczccccccccccccccccccccccccccccccccc" />
    <path
       style="fill:#000000;fill-opacity:1;stroke:none;stroke-width:0.07902144px;stroke-linecap:butt;stroke-linejoin:miter;stroke-opacity:1"
       d="m 40.434418,33.30348 -5.627572,2.474536 c -0.413255,-0.235185 -0.780289,-0.339405 -0.878061,0.319291 l -3.552155,1.476736 1.676298,1.636396 9.858229,-1.436836 c 0.93756,0.516705 1.569917,0.168675 2.195151,-0.19956 l 1.396915,-0.1197 1.157444,0.91797 -0.558767,0.478951 13.051179,10.137593 -0.279386,0.91797 8.630644,5.25468 1.86617,-1.82226 -0.27938,-0.15964 2.63419,-2.59428 0.27938,0.59868 3.07321,-2.55435 0.19956,-2.03552 -6.98457,-4.78941 -0.511523,0.153925 -4.941736,-3.39983 -0.413788,-0.984749 -6.681566,-4.43754 -0.263096,-0.591349 -3.214092,2.098188 -0.856907,2.25222 -1.596475,-1.357006 0.558767,-0.478935 0.758324,0.51885 c 0.582854,-1.593076 0.200919,-4.980333 0.11973,-7.7429 l -0.6785,-1.396921 -1.696255,-1.277176 -0.159647,0.818191 -0.393832,0.60316 c -0.495096,-0.27503 -0.768323,0.120929 -0.424361,0.534335 l -2.474535,4.230648 0.43903,0.279391 -0.718413,1.077615 -0.399119,-0.0798 -0.09978,-1.676296 -3.572112,-2.713997 c -0.796961,-0.613965 -2.113271,-0.878235 -2.953476,-0.19956 -0.840205,0.678675 -0.931511,1.725811 -0.239472,2.514437 z"
       id="path965"
       inkscape:connector-curvature="0"
       sodipodi:nodetypes="cccccccccccccccccccccccccccccccccccccccccczcc" />
    <path
       inkscape:connector-curvature="0"
       style="fill:#000000;fill-opacity:1;stroke:#000000;stroke-width:0.08014449px;stroke-linecap:butt;stroke-linejoin:miter;stroke-opacity:1"
       d="m 194.20315,18.782815 -0.45801,0.0286 -0.0209,0.65838 -12.287,1.11623 -0.88722,-0.57244 -0.37208,-0.0287 -1.17352,3.03407 4.59391,4.20758 h 0.58683 l 0.31479,-1.17352 0.40072,-0.11446 3.29172,2.80505 0.80144,3.06256 -0.57243,0.42936 0.17171,1.48847 -1.55123,0.0858 c -0.003,0.2652 -0.0425,0.52228 0.63521,0.94467 l 2.03225,-0.0286 1.25946,0.4865 c 0.3679,0.80719 1.03373,0.86958 1.8319,0.60108 l 2.97677,1.48847 c -0.2241,0.58342 0.31037,0.826179 1.32637,1.140019 l 1.18182,0.0216 c 1.88394,-0.01032 1.43282,-2.260859 1.52272,-2.983649 0.0899,-0.72279 -0.68086,-2.82915 -1.62653,-4.21745 -0.3999,-0.845955 -0.62775,-1.080178 -1.31675,-1.51695 -0.33338,-0.739981 -0.73961,-1.27491 -1.60289,-1.71747 l 0.42937,-3.11985 1.23081,-0.14322 c 0.61266,0.570697 1.52423,0.315141 1.00181,-0.14307 l 0.5153,-0.17172 1.37389,1.03045 0.51514,-0.14307 -0.80144,-3.00542 z m -0.19638,1.88918 0.31081,1.00181 1.74595,1.14488 -0.14307,0.34343 c -0.32656,-0.193196 -0.40861,-0.199899 -0.80912,-0.05212 l -2.99774,0.309754 c -1.12837,-0.341499 -2.57501,-0.435561 -3.26688,-0.356787 0,0 -0.41965,0.411189 -0.41361,0.843447 -0.56763,-0.306164 -2.23891,-0.566495 -3.05337,-0.598448 -0.32056,0.401544 -0.34509,0.361624 -0.28715,0.568587 l -2.39597,-2.088329 z"
       id="path1001"
       inkscape:transform-center-x="9.0722419"
       inkscape:transform-center-y="-5.2912549"
       sodipodi:nodetypes="cccccccccccccccccccccccsccccccccccccccccccccccc" />
    <path
       style="fill:#000000;fill-opacity:1;stroke:none;stroke-width:0.09195556px;stroke-linecap:butt;stroke-linejoin:miter;stroke-opacity:1"
       d="m 127.18097,56.145674 0.54436,1.46192 0.23552,-0.0617 1.34086,3.34582 -0.15786,0.45691 c 0,0 1.08187,2.56462 1.6533,2.98744 0.57144,0.42282 1.19327,0.54894 1.87628,0.52347 0.68302,-0.0255 1.24532,-0.49123 1.49209,-0.9524 0.24676,-0.46117 0.0519,-1.41452 -0.10183,-1.89882 -0.15376,-0.4843 -0.51141,-1.06568 -0.51141,-1.06568 l -0.24394,0.0476 -0.19704,-0.49262 2.92287,-1.18229 1.28081,1.11661 1.01808,-0.0657 1.1166,1.05091 -0.85387,1.74059 c 3.10833,3.162095 5.47354,4.466419 8.21031,6.699594 l 1.00735,0.22756 0.39356,-0.16188 0.92361,0.650047 0.32278,-0.18345 -0.55308,-0.835474 1.74821,-1.006464 0.98002,0.674917 0.34003,-0.22789 -0.5647,-0.877944 0.75899,-0.467397 -0.0309,-0.601107 c -1.48068,-2.585032 -3.06761,-5.079112 -4.93182,-7.404522 0,0 -1.87625,-0.55807 -2.43027,-0.59115 -0.47274,0.12948 -1.01808,0.3941 -1.01808,0.3941 l -0.75535,-0.59114 v -0.7882 l -1.01807,-0.91955 1.60921,-0.68967 c 0,0 1.09463,0.79918 1.69614,1.07415 0.60152,0.27496 1.38091,0.51544 1.87196,0.59114 0.49106,0.0757 0.96366,0.0454 1.37803,-0.11611 0.41437,-0.16148 0.68876,-0.39997 0.85518,-1.0005 0.16642,-0.60053 -0.39988,-1.41794 -0.81175,-2.03815 -0.41188,-0.62022 -1.46515,-1.13552 -1.46515,-1.13552 l -0.49537,-0.0876 -4.90098,-2.5092 -0.51584,-0.42096 -0.75102,-0.19506 -1.59595,0.88671 -0.14498,1.05656 0.6336,1.14546 1.48748,1.0413 -1.34649,0.62399 -0.91956,-0.59115 -0.70523,0.20224 -1.2324,-0.16937 -0.3941,0.72251 -1.44501,0.75535 0.0985,0.98524 -3.02774,1.14022 -1.20879,-1.76422 0.0965,-0.29159 -0.80742,-1.36374 -1.06254,0.0133 -1.31365,0.49262 z"
       id="path902"
       inkscape:connector-curvature="0"
       sodipodi:nodetypes="ccccczzzzccccccccccccccccccccccccccczzzzzccccccccccccccccccccccc" />
    <path
       style="fill:#000000;fill-opacity:1;stroke:none;stroke-width:0.10646388px;stroke-linecap:butt;stroke-linejoin:miter;stroke-opacity:1"
       d="m 177.024,67.851187 1.10266,1.1597 -4.63878,1.672998 -2.09126,-2.167298 0.20913,-0.3327 3.63118,-1.49239 1.03612,0.49429 0.86502,-0.5133 0.15209,-0.58936 -1.55894,-2.01521 -0.57034,-3.72623 2.92776,0.11407 1.06464,3.15589 1.15969,-0.36122 v -2.98479 l 3.25095,0.51331 0.13308,3.06084 2.8327,1.1787 1.55894,0.038 c 3.74022,1.47263 7.55124,2.73287 11.10266,4.77187 1.26567,1.694415 2.03631,3.471336 2.69962,5.266124 l -0.77947,0.1711 c -4.8258,-0.947104 -9.67064,-2.487895 -14.20152,-4.543686 l -0.46761,0.41403 1.79821,1.030824 -0.0864,0.126287 -1.91302,-0.969704 -0.46682,0.39407 -2.6666,-1.451784 1.12294,-1.175161 -3.90812,-1.9237 -1.13117,0.96959 -1.55894,-0.72244 z"
       id="path1062"
       inkscape:connector-curvature="0"
       sodipodi:nodetypes="cccccccccccccccccccccccccccccccccc" />
    <path
       inkscape:connector-curvature="0"
       style="fill:#000000;fill-opacity:1;stroke:none;stroke-width:0.09271447px;stroke-linecap:butt;stroke-linejoin:miter;stroke-opacity:1"
       d="m 106.60481,27.079946 c -0.7733,0.0734 -1.32833,0.4262 -1.60077,1.01932 l 0.75457,1.11547 c 0,0 -0.0887,0.64577 0.0116,1.08287 0.10033,0.4371 0.33944,0.86702 0.68558,1.45428 0.34614,0.58726 1.45156,2.01364 1.45156,2.01364 l -2.71588,0.98328 -4.77643,-3.09054 -1.685877,-0.14052 -3.88676,-2.66916 -1.638977,0.70242 0.0936,0.74932 -5.104187,2.01346 c 0,0 -0.65559,-0.46821 -0.70242,-0.65552 -0.0468,-0.18731 -1.59208,0.74932 -1.59208,0.74932 l 0.79604,3.93348 -1.26432,1.17071 0.53854,4.51892 -2.485547,0.89401 -2.70972,-3.38426 c -0.45183,-0.47473 -0.98755,-0.79691 -1.59371,-0.69844 l -0.812339,-0.99396 c -0.81054,-0.0673 -1.19485,0.39824 -1.51222,0.94742 l 0.57023,1.06604 c 0,0 0.0164,0.77545 0.13762,1.20909 0.12118,0.43364 0.17224,0.67238 0.5619,1.35812 0.38966,0.68574 3.701089,5.196589 3.701089,5.196589 l 1.90868,1.345002 0.852537,2.168299 2.85658,4.16763 0.43315,0.0587 c 0,0 0.98827,1.3797 1.674107,1.58031 0.68585,0.20061 1.07493,0.0991 1.40484,-0.43315 0.32992,-0.53228 0.0889,-1.21492 -0.11716,-1.76774 -0.20608,-0.55281 -0.67906,-1.1238 -0.67906,-1.1238 l -0.28086,-0.98346 -0.702417,-0.88966 1.963477,-0.51283 c 3.38926,1.93453 7.141757,2.64457 10.656544,2.42108 0.49106,0.407173 0.86672,0.671457 1.45754,0.39805 l 1.09465,1.45754 0.21657,-0.14631 -1.00682,-1.46333 0.88387,-0.42157 0.80201,0.71999 -0.19321,1.05951 0.46828,0.74914 0.47987,0.0176 0.43297,0.42591 0.18054,-0.0172 0.46955,0.64502 0.18144,-0.11716 -0.39802,-0.55592 c 0.72526,-0.12516 1.41448,-0.37062 1.90825,-1.26741 l 0.71691,0.77848 0.19322,-0.16968 -0.77848,-0.85453 0.079,-0.23413 -0.32776,-0.33664 0.0936,-1.26432 -0.42138,-0.93656 0.17565,-0.85471 -0.33953,-0.71401 0.38625,-0.28104 2.06054,2.61067 0.32777,-0.24591 -1.39326,-1.82622 c 2.16435,-1.81388 3.68824,-4.45756 3.09073,-8.28853 l 1.6857,-1.1707 1.54536,2.3414 0.70242,0.23414 c 0,0 1.36461,1.4462 1.94338,1.54536 0.57877,0.0992 0.77876,-0.10359 0.98346,-0.33953 0.20471,-0.23593 0.18828,-0.52772 0.17728,-0.89744 -0.011,-0.36973 -0.85634,-1.94737 -0.85634,-1.94737 l -0.26927,-0.85471 -2.55218,-3.1608 -1.27678,-1.138549 -0.53942,-1.690764 -1.30947,-1.958887 c 0,0 -2.94408,-4.13131 -4.01914,-4.86153 -1.07506,-0.73022 -1.41734,-0.45923 -1.41734,-0.45923 z m 2.99874,3.17692 1.13484,1.52399 -0.2383,0.18398 -1.15839,-1.52616 z m -2.06761,1.4789 1.08469,1.56003 -0.2441,0.1762 -1.10805,-1.56293 z m -26.164118,9.48983 1.12507,1.63374 -0.22346,0.14903 -1.14245,-1.62251 z m -2.14837,1.31865 1.12507,1.63391 -0.22346,0.14904 -1.14245,-1.62251 z"
       id="path1090"
       sodipodi:nodetypes="ccccsccccccccccccccccccccscccccccccccccccccccccccccccccccccccccccccccccccsccccccscccccccccccccccccccccc" />
    <path
       style="fill:#000000;fill-opacity:1;stroke:none;stroke-width:0.06318383px;stroke-linecap:butt;stroke-linejoin:miter;stroke-opacity:1"
       d="m 162.63099,36.28692 0.0319,-0.66602 c 0,0 -1.21593,-1.16668 -1.3512,-1.90145 -0.13527,-0.73478 0.1391,-1.61922 0.67424,-1.99353 0.53513,-0.3743 1.777,-0.129647 2.1476,0.0187 0.18693,0.07482 0.60243,0.347886 0.93526,0.69952 0.32704,0.345524 0.5731,0.770367 0.5731,0.770367 0,0 0.44605,0.06137 0.89568,0.282193 0.54556,0.267934 1.12794,0.723281 1.32911,0.98271 0.36698,0.473245 0.49872,1.45421 0.49872,1.45421 l 1.53172,0.0374 -1.08315,-1.66986 0.0342,-1.14745 -0.70567,-1.09637 0.11396,-0.57575 1.2532,-0.65828 0.99562,-0.18874 0.002,-0.98741 -1.09637,-1.09637 c -0.43958,-0.43959 -0.63933,-1.53579 -0.37153,-2.14761 0.26781,-0.61182 0.67108,-0.96707 1.31108,-1.10458 0.63999,-0.13751 1.83169,-0.0506 2.29943,0.42761 0.46773,0.47822 1.23253,1.18983 1.33024,1.85586 0.0977,0.66603 -0.35645,1.36241 -0.69841,1.70951 -0.34195,0.34711 -0.80462,0.49371 -0.80462,0.49371 l 0.006,0.90537 0.72754,0.460416 0.56805,0.216804 0.90263,1.17341 1.39907,0.45132 c 0,0 -0.23507,-0.24407 -0.45131,-0.90263 -0.21624,-0.65856 -0.23708,-1.37582 0.31592,-1.89551 0.55299,-0.5197 1.93445,-0.4935 2.61762,-0.27079 0.68318,0.2227 1.10337,0.633595 1.10337,0.633595 l 0.50078,0.558772 0.69734,0.07131 c 0,0 1.38679,0.83002 1.76285,1.41502 0.37607,0.58501 0.68112,1.18642 0.6241,1.68808 -0.057,0.50167 -0.32995,0.97722 -0.6241,1.1552 -0.29414,0.17797 -1.04075,-0.016 -1.04075,-0.016 l -0.0451,0.7221 2.92305,2.21644 1.78155,0.16229 -0.005,0.6478 0.39961,0.17361 1.19868,0.0174 0.0369,0.73258 0.49419,0.29603 1.18341,0.0199 0.0187,0.5092 0.59304,0.3986 0.94143,-0.0138 0.59992,1.84264 -0.14587,0.85022 -0.49871,0.093 c 0,0 4.89533,6.024658 5.74075,7.136618 0.84541,1.11196 1.23822,2.448015 1.13148,2.874335 -0.10673,0.42632 -0.52659,0.77961 -1.05123,0.95597 -0.52464,0.17636 -1.71172,0.21763 -2.87472,0.13266 -1.163,-0.085 -3.22432,-0.69379 -5.55115,-1.85039 -2.32683,-1.156605 -7.95359,-5.50603 -7.95359,-5.50603 l -6.09274,0.45131 -0.7068,-0.611107 0.10031,-0.0098 -1.82034,-1.590029 -0.10676,-7.91e-4 -0.50939,-0.456864 0.0886,-0.0059 -1.53705,-1.326401 -0.10935,-0.01138 -0.49679,-0.395168 0.0825,-2.90389 2.40064,-0.57122 0.20375,-1.08495 -0.92906,-1.14197 -3.41582,0.11991 0.016,0.74901 c 0,0 0.78082,1.08388 0.80094,1.64796 0.0201,0.56407 -0.30796,1.33555 -0.74079,1.68034 -0.43284,0.34477 -1.51568,0.36653 -2.07604,0.18052 -0.20824,-0.06912 -2.01814,-1.392021 -2.14099,-1.680722 l -0.21595,-0.50752 -0.49875,-0.214007 c -0.33444,-0.143441 -0.94165,-0.95648 -1.07075,-1.163061 -0.38583,-0.617436 -0.55529,-1.07327 -0.49644,-1.53447 0.0588,-0.4612 0.36483,-0.80323 0.63184,-0.99289 0.26701,-0.18965 0.76722,-0.18053 0.76722,-0.18053 z"
       id="path1147"
       inkscape:connector-curvature="0"
       sodipodi:nodetypes="cczzsscsscccccccccszzzzzcccccczzzccczzzcccccccccccccccczzzzzccccccccccccccccczzsscsszzcc" />
    <path
       style="fill:#000000;fill-opacity:1;stroke:none;stroke-width:0.06382586px;stroke-linecap:butt;stroke-linejoin:miter;stroke-opacity:1"
       d="M 9.1236086,76.072456 C 7.8281647,74.414969 10.405107,72.014089 12.609481,73.764909 l 0.84692,0.84692 0.40505,0.0123 v -0.50325 l -0.503243,-0.46641 0.23321,-0.67509 -1.129227,-0.78554 -1.423808,-1.71839 -0.319129,-0.748727 -1.4851784,-1.49745 c -1.125971,-1.418 1.3828134,-3.728787 3.3263084,-2.22163 l 1.178325,0.94511 0.61371,-0.27003 -0.319129,-0.3805 c -0.525942,-0.63793 1.966481,-2.808507 3.584067,-0.98194 l 1.350164,1.17832 0.576887,-0.19638 c -1.039218,-1.779767 1.768629,-3.545747 3.424503,-1.841137 l 0.932838,0.908287 h 0.392777 c -1.125923,-1.596667 1.794777,-3.373547 3.68226,-1.178317 l 0.981935,0.981927 0.932842,-0.0491 2.454839,2.06207 c 0,0 2.79032,4.250897 3.068551,4.848307 0.278228,0.59741 0.263458,1.1525 0.0368,1.54655 -0.226634,0.39406 -0.729772,1.27627 -1.472902,1.44836 l 0.159566,1.153777 1.497457,0.13501 c 2.004588,0.8216 2.195257,2.02732 1.423809,3.43678 l 1.031028,1.914767 2.307552,1.76749 1.03103,0.14729 1.031039,-0.34368 0.78555,0.0982 0.54006,1.37471 1.543481,0.25162 0.01529,0.64133 1.11082,0.266957 -0.01529,0.19025 -1.089341,-0.23014 0.006,0.69656 1.129232,0.49097 c 1.175458,0.61277 0.964067,1.47028 0.589157,2.35665 l 2.140691,2.550057 4.22752,0.16762 c 0.841809,0.38518 1.157529,1.43576 1.181299,2.02463 0.02381,0.58887 -0.0431,1.35468 -0.528659,1.88576 l -2.896718,1.374707 -0.256881,0.34342 -1.854281,0.44213 -1.080129,-0.14729 -3.731361,0.0491 c -0.660209,-0.48957 -0.865039,-1.09299 -0.78555,-1.76749 l -1.17832,-0.785547 0.540071,-0.49097 v -0.73645 l -0.785551,-0.14729 -0.63826,-0.98194 -0.49097,-0.0982 -2.945811,-1.91478 -1.447379,0.0402 -0.320101,-0.236547 -0.0117,-0.58645 -0.724788,-0.0518 -0.392773,-0.29457 -0.01737,-0.48527 -0.522709,-0.006 -0.441871,-0.39278 -0.0057,-0.53138 -0.632558,-0.009 -0.540064,-0.39277 -2.41e-4,-0.54007 -0.785308,-0.83464 -0.01165,-0.67868 -6.812809,-3.445457 -2.01297,0.34368 -1.669292,-1.37471 -3.534972,0.14729 -3.387679,-0.49097 -3.87865,-3.043997 0.122742,-0.3805 z"
       id="path1796"
       inkscape:connector-curvature="0"
       sodipodi:nodetypes="ccccccccccccccccccccccccczzcccccccccccccccccccczcccccccccccccccccccccccccccccccccccc" />
    <path
       style="fill:#000000;fill-opacity:1;stroke:none;stroke-width:0.07023842px;stroke-linecap:butt;stroke-linejoin:miter;stroke-opacity:1"
       d="m 39.688345,55.935245 c -0.461933,0.3422 -0.555064,0.68439 0,1.02658 l 1.98598,0.46743 -0.203013,2.01792 c -0.184544,1.157077 0.767378,1.158577 1.897586,1.000877 l 3.280569,0.1785 c 0.195217,0.61354 1.02258,0.90467 1.95376,0.44149 l 1.804789,0.28 c 0.467905,0.90541 1.304898,1.46607 2.409499,1.77314 0.389046,0.61469 1.286969,0.80571 2.162245,0.88807 l 1.6466,1.0614 c 0.200234,1.203877 1.549583,1.806817 2.296507,0.914077 l 10.265598,3.32474 2.593415,1.321797 1.685869,-0.542997 c 4.037534,1.263517 9.967349,1.754257 12.685977,-0.0512 l -1.337231,-0.40521 0.202608,-0.62135 1.08059,0.32417 0.499769,-0.3782 0.742913,0.21612 4.243188,-1.95433 1.21371,-0.0988 C 91.491883,60.922692 76.670472,56.273435 63.302523,55.702745 l -9.89511,-1.705797 -0.01577,-0.73614 -0.357932,-0.0271 0.0084,0.68211 -2.111584,-0.40079 0.08324,-0.65523 c 1.018831,0.0493 1.461833,-0.92326 0.291962,-1.2427 l -0.702139,-0.1206 c -1.589114,-0.15783 -1.630288,0.94989 -0.378208,1.26837 l -0.10127,0.60394 -8.035329,-1.19983 -1.318524,3.279957 z"
       id="path1824"
       inkscape:connector-curvature="0"
       sodipodi:nodetypes="ccccccccccccccccccccccccccccccccccccc" />
    <path
       style="fill:#000000;fill-opacity:1;stroke:none;stroke-width:0.12791915px;stroke-linecap:butt;stroke-linejoin:miter;stroke-opacity:1"
       d="m 85.356419,78.431287 0.50087,1.49761 2.42201,3.800037 c 0.46959,0.41035 0.44392,0.22148 0.21893,-0.35892 l -2.29833,-3.636607 0.037,-2.31239 -10.523794,-1.669917 5.740267,-1.9482 c 0.21592,-0.30824 -0.004,-0.32655 -0.19136,-0.36526 l -10.210674,2.24389 -2.01779,-1.66987 c -0.49445,-0.30742 -0.965917,-0.20126 -1.413967,0.32629 l -0.39509,0.0911 c -0.35797,-0.82361 -1.13754,-1.48758 -2.23334,-1.63187 0,0 0.0224,-0.14184 -0.20468,-0.42236 l -1.55834,0.14202 0.0138,0.43179 c -1.279327,0.5406 -1.484817,1.11061 -1.026987,2.45453 l -0.23362,0.0418 c -0.62604,-1.53962 -2.90511,-0.91385 -2.68872,0.793157 L 51.08223,75.17707 c -0.34099,-0.009 -0.4856,0.3755 -0.26092,0.46966 l 5.409787,1.495947 -10.141144,2.88753 0.60329,2.461467 2.103007,3.33138 c 0.3967,0.25723 0.35756,0.18357 0.13966,-0.32277 l -1.70513,-3.00305 -0.196867,-1.513077 7.140704,-1.0528 -3.373457,1.609987 c -0.24597,0.20434 -0.0895,0.56539 0.27831,0.45226 l 9.117614,-2.276517 c 0.96037,1.25144 2.05652,1.823997 3.478927,0.76538 l 2.78388,1.063717 c 0,0 0.59826,1.82737 1.17366,2.70619 0.5754,0.87882 1.618437,0.51609 1.817487,-0.0126 0.19906,-0.52875 -0.0565,-3.053547 -0.48705,-5.009707 1.63756,1.46101 2.97591,0.66165 3.52616,-0.87688 l 8.535094,1.92442 c 0.27685,0.0119 0.37117,-0.0857 0.18462,-0.35172 l -3.826817,-1.87864 z"
       id="path1852"
       inkscape:connector-curvature="0"
       sodipodi:nodetypes="cccccccccccccsccccccccccccccccccccczzcccccc" />
    <path
       style="fill:#000000;fill-opacity:1;stroke:none;stroke-width:0.11134873px;stroke-linecap:butt;stroke-linejoin:miter;stroke-opacity:1"
       d="m 88.465096,77.398526 0.45308,0.0427 0.47379,0.67221 -0.0347,0.20273 0.19254,-0.0194 0.29386,0.34134 0.29827,-0.0951 -0.30104,-0.38593 0.008,-0.18155 -0.18915,-0.0376 -0.29136,-0.51462 6.593427,-0.0548 -7.537467,4.79656 1.77129,2.75945 0.50337,0.11958 2.03246,2.98515 -0.0381,0.15945 0.24636,0.25696 0.0498,-0.12651 0.50516,0.74419 0.34315,-0.17895 -0.46133,-0.84186 0.15581,0.0133 -0.19009,-0.31776 -0.17675,-0.0401 -1.87437,-2.84073 0.26041,-0.44815 -0.34349,-0.6595 5.567437,-3.46895 c 0.77653,0.30835 2.10194,0.47478 2.10194,0.47478 1.481807,0.18928 2.029587,-0.20396 1.581127,-1.37413 l 10.27834,3.25481 2.48394,0.47109 c 2.37549,0.46105 2.95935,-0.69172 2.95502,-1.19914 -0.004,-0.50742 -2.05567,-1.84154 -2.05567,-1.84154 l -2.48393,-0.8137 -3.89721,-2.2698 0.25406,-0.0148 1.90337,1.07688 2.11278,-0.55014 4.64155,1.18929 0.0153,0.19759 0.19736,0.0451 0.026,-0.1774 0.41299,0.10496 0.16257,-0.28934 -0.40534,-0.16924 0.0974,-0.13702 -0.19453,-0.10505 -0.16262,0.12601 -4.94951,-1.33967 -0.0445,-0.52376 -2.92138,-1.15593 c 0,0 -1.92357,-0.0735 -2.68725,0.30925 l -1.02783,-0.51392 5.83909,-4.29088 4.47417,0.19154 0.0822,0.32863 0.18956,0.0318 0.0968,-0.36362 0.89537,0.0584 0.0822,-0.34149 -0.9437,-0.0612 -0.0512,-0.32829 -0.25894,0.007 -0.0912,0.28281 -4.48609,-0.26466 -1.03182,-0.77512 -2.95503,-0.12848 c -0.96379,0.11154 -0.59179,0.55308 -0.3212,1.11349 l -3.212,1.77729 -2.24839,-0.19271 c -2.318817,-0.95377 -2.349227,0.82529 -1.19914,1.41327 l -2.226967,0.38543 c -1.9228,-0.91857 -4.019407,-0.88762 -3.276217,0.66381 l -1.17773,0.98501 -4.50872,0.33062 -0.28163,-0.28006 c -1.21945,-0.36546 -1.55421,-0.30926 -1.28905,0.3531 z"
       id="path1880"
       inkscape:connector-curvature="0"
       sodipodi:nodetypes="cccccccccccccccccccccccccccccsccczcccccccccccccccccccccccccccccccccccccccccccccc"
       inkscape:transform-center-x="21.916101"
       inkscape:transform-center-y="13.096207" />
    <path
       style="fill:#000000;fill-opacity:1;stroke:none;stroke-width:0.13540912px;stroke-linecap:butt;stroke-linejoin:miter;stroke-opacity:1"
       d="m 167.20765,104.62002 -2.25693,-0.8207 -0.0684,-1.29945 -5.81331,-2.05175 -1.7098,0.13678 -2.57128,1.79064 -0.63212,1.3996 -1.01236,0.15682 0.62797,-1.11123 -0.83694,0.62869 -0.0325,-0.29325 0.88874,-0.64077 -0.71984,-0.77577 1.01759,-0.20934 0.39826,0.42245 2.5305,-1.77819 0.13678,-0.820704 2.49944,-1.541941 c 0.49804,-0.31283 1.17964,0.206757 0.81929,0.777194 l 5.09348,1.585451 2.94085,0.0684 1.36784,-1.573011 c 0.69878,-0.571177 2.15594,0.21383 1.91497,0.752317 l -1.29944,1.367834 c -0.12802,0.75586 0.46771,0.95746 1.07445,0.58942 0.19595,-0.90304 4.08398,-0.46626 4.06486,0.14174 0.34227,0.4094 1.0046,0.38011 1.18694,-0.14983 l 0.41035,-1.33364 c 0.25337,-1.709938 2.45859,-1.018844 2.42792,-0.205177 l -0.34196,1.436227 1.6414,-0.20518 0.54714,0.20518 5.33457,-0.13678 0.10259,-0.43778 c 0.14701,-0.943717 2.32992,-1.045467 2.39372,0.27357 l -0.17099,1.12169 -1.21395,0.70101 -0.23937,1.67561 0.44455,0.0513 -0.29746,1.27564 0.007,1.23777 -1.43623,-0.17098 0.23694,-1.28973 0.0196,-1.17238 0.42745,0.0513 0.20518,-1.60722 -7.18115,1.09428 -0.68392,0.88909 0.41035,1.09427 1.77819,0.54714 0.20518,0.41035 5.061,2.05176 c 0.16885,-0.76721 1.63037,-0.69277 1.57302,0.34196 l -0.23938,1.6756 -0.8549,1.40204 -0.71811,3.26571 0.51294,0.0855 -0.44455,0.71812 -0.13678,1.07717 -1.24816,-0.20518 0.44455,-1.04298 -0.0684,-0.82069 0.44454,0.10258 0.61554,-3.23152 -0.66683,-0.42745 0.30777,-1.36784 -5.53975,-1.6414 -1.7098,0.27356 c -2.5644,1.5558 -4.27472,0.92895 -5.19778,-1.70979 l -4.71905,5.19779 -0.69383,1.09426 c -0.55913,0.73421 -1.0172,1.56476 -1.83667,2.05176 -2.06575,0.11311 -1.93447,-0.23151 -2.59889,-0.41035 0.15395,-1.24814 0.74767,-2.25122 1.34669,-3.43579 l 0.49989,-0.32576 1.57301,-2.5989 c -1.35683,0.0542 -2.29588,-0.60175 -3.00925,-1.6414 l -3.67384,0.22935 -1.98336,2.09597 -0.70324,0.0684 -2.82482,3.11426 -0.27321,1.42379 -1.27905,-0.0926 0.1126,-0.45041 -0.23659,0.19723 -0.0725,-0.2891 0.39376,-0.4069 0.072,-0.45611 -0.61116,-1.1936 1.30324,0.0242 0.39068,0.70051 2.61477,-2.98163 1.20364,-2.39372 z"
       id="path4984"
       inkscape:connector-curvature="0"
       sodipodi:nodetypes="cccccccccccccccccccccccccccccccccccccccccccccccccccccccccccccccccccccccccccccccccccccccccccccc" />
    <path
       style="fill:#000000;fill-opacity:1;stroke:none;stroke-width:0.11041108px;stroke-linecap:butt;stroke-linejoin:miter;stroke-opacity:1"
       d="m 138.5281,105.35475 0.26177,0.5637 c 1.80343,1.83075 3.97651,3.6361 4.76749,6.19002 l 0.39087,0.47402 0.0279,1.05453 -0.33409,0.3675 -0.2793,1.08747 c -1.22456,0.74929 -2.65127,1.12799 -4.32187,1.05955 l -2.39795,-1.17107 -4.40551,-4.60069 c -0.41086,0.1458 -0.46642,0.51771 -0.47401,0.92014 0,0 0.68299,0.71552 0.78072,1.00378 0.0977,0.28826 0.0888,0.83271 -0.39036,0.75284 -0.65271,-0.1088 -1.70881,-0.82645 -2.53735,-1.92392 v -0.58555 l -0.64131,-1.3105 c -0.11296,-0.68264 0.14584,-0.68374 0.47401,-0.55765 l 0.94802,1.17108 c 0.46262,-0.20954 0.52258,-0.59804 0.66919,-0.94803 l -1.61721,-2.37004 -0.0558,-1.47781 -1.00379,0.92014 -1.17108,-0.0279 c -1.97768,-1.5759 -2.91312,-3.23198 -3.95939,-4.87952 -0.003,-0.68525 0.16894,-0.75637 0.30671,-0.94803 l -0.13941,-0.724944 0.44612,-0.27883 0.27883,0.13941 c 0.6977,-0.447977 1.09693,-5.3e-4 1.58934,0.1673 l 0.54107,-0.0226 1.90183,1.433334 c 0.32662,0.14815 0.63637,-0.10024 0.55452,-0.43482 l -0.0418,-0.474007 -1.61721,-1.282614 c -0.3156,-0.373137 0.93857,-1.513461 1.3105,-1.226844 l 0.50189,0.33459 0.86438,-0.13941 0.61343,-1.366261 0.66919,-0.0837 c 0.41756,0.844224 0.8294,1.596841 1.28261,3.011342 l 3.31808,0.780727 0.89226,-0.1673 v -0.22311 l -0.52978,-0.557667 -0.0279,-0.724944 -0.30697,-0.28461 c -0.2617,-0.306087 0.14776,-0.865654 0.52977,-0.641304 l 0.22332,0.0894 1.33839,-0.501897 0.73575,0.24015 c 1.96923,0.354027 2.99397,0.853801 4.42262,1.895025 l 0.11153,0.513707 0.72496,0.529777 c 0.94277,0.93677 -0.86985,3.3999 -1.75663,2.84406 l -2.48159,-1.1432 c -0.73689,0.70489 -1.45182,1.26704 -2.25853,2.42582 z"
       id="path5564"
       inkscape:connector-curvature="0"
       sodipodi:nodetypes="ccccccccccczscccccccccccccccccccccccccccccccccccccccccccc" />
    <path
       style="fill:#000000;fill-opacity:1;stroke:none;stroke-width:0.06533099px;stroke-linecap:butt;stroke-linejoin:miter;stroke-opacity:1"
       d="m 121.41113,80.780013 -1.6036,0.13199 -0.3785,0.9003 -0.41998,0.37332 -0.55998,0.32666 c -0.42987,1.12103 -0.0567,2.42253 0.18666,3.03322 l 1.35328,0.513317 0.51332,0.7933 2.7999,-0.37332 10.17297,4.853157 h 0.37332 l 1.01579,1.08697 c 0.23129,0.44211 0.84517,0.29423 0.79331,-0.14 0.26443,0.31566 0.79284,0.0531 0.71081,-0.29366 l 0.83997,-0.0933 0.23332,0.55998 -0.0933,0.83997 c 0,0 1.10999,2.12048 1.21329,2.28659 0.24358,0.39165 1.07858,0.47793 1.53995,0.41998 0.46137,-0.058 2.39266,-0.4461 2.84656,-0.51331 0.45391,-0.0672 0.77362,-0.27123 0.88664,-0.88664 0.0328,-0.17844 0.41998,-4.013187 0.41998,-4.013187 l 0.28517,0.33466 c 0.18071,0.459097 0.91796,0.228427 0.8428,-0.12349 0.14657,0.372897 0.69384,0.383667 0.70848,-0.22767 l 0.76596,-0.0302 c 0.28078,0.41665 0.63453,0.509267 0.87014,-0.13717 0.44948,0.51998 1.0201,0.45291 1.10063,-0.14282 l 0.0933,-0.88664 3.40655,-6.766417 0.7933,-0.0933 0.55998,-1.02663 0.69998,-0.55998 c 0.3037,-0.617997 0.304,-2.402827 -0.37332,-2.893227 l -1.21329,-0.51332 -0.51332,-0.69997 -2.70657,0.37332 -9.19301,-3.126557 -1.8666,-1.39995 -0.32666,-0.97996 -1.81993,-2.659897 -0.23332,-1.11997 -0.88664,-1.39995 c -0.45951,-0.75094 -2.59992,-0.68757 -2.75324,0.51332 -0.41876,-0.0664 -0.85421,-0.15499 -1.01705,0.11986 -0.64162,-0.58496 -0.49035,-0.0192 -0.67644,0.0495 -0.28461,0.0128 -0.76567,-0.51918 -0.41247,0.39597 l -0.77543,0.37947 c -1.27011,-2.3729 -4.00387,-1.03227 -3.43171,1.1219 l 0.92393,1.765347 0.42895,0.14848 0.41247,0.64345 -0.033,0.21448 0.32997,0.49496 -1.73235,2.17781 v 0.44546 z"
       id="path5592"
       inkscape:connector-curvature="0"
       sodipodi:nodetypes="cccccccccccccccccszzscccccccccccccccccccccccccccccccccccc" />
    <path
       style="fill:#000000;fill-opacity:1;stroke:none;stroke-width:0.07831957px;stroke-linecap:butt;stroke-linejoin:miter;stroke-opacity:1"
       d="m 155.38582,83.136176 -0.11864,-1.74042 c 1.06974,-0.81601 2.10193,-1.643587 3.83704,-2.254837 l 0.39558,-0.59335 c 0,0 2.87712,-0.76765 4.2722,-0.98894 1.39507,-0.22129 2.5285,-0.324 4.0744,-0.356 1.5459,-0.032 4.68902,0.1641 5.18201,0.23734 0.493,0.0731 1.95846,0.2388 3.04592,0.79113 l 3.56016,-0.15824 1.10761,0.98896 c 0.57225,0.1055 1.15918,0.13764 1.42406,1.780117 1.07846,-0.008 1.5972,1.34423 1.3054,2.69002 0.49141,0.46389 0.9818,0.92811 0.23734,1.700697 l 0.59336,8.742227 -0.23735,0.35602 v 0.83087 l -2.92724,0.31636 -1.14716,-1.89872 -0.55381,-0.0789 -1.74052,-2.61048 v -0.791447 l -0.75159,-1.14695 -0.5538,0.0789 0.67247,1.34519 c -0.54118,1.212417 -2.19682,0.938507 -3.63927,0.949217 l 1.18672,1.93838 0.19779,0.71205 0.47468,1.18689 -0.0791,1.700717 -3.14481,0.33629 -8.28726,-5.993037 -1.18672,-0.949357 c -1.09177,-0.30257 -1.00958,-0.69503 -1.18672,-1.06806 -0.84259,-0.25986 -1.95018,-0.3496 -2.51189,-1.2066 0,0 -0.72433,0.85513 -1.24607,1.52317 -0.76305,0.64943 -2.51793,0.46655 -3.26217,-0.69717 -0.10447,-0.16353 -0.13029,0.0486 -0.24247,-0.134 -0.85828,-1.38371 -0.6016,-2.00772 -0.42792,-2.76847 0.17372,-0.761247 0.31726,-1.228207 0.47471,-1.621807 0.15741,-0.39373 0.78483,-0.9799 1.20309,-1.14746 z"
       id="path5620"
       inkscape:connector-curvature="0"
       sodipodi:nodetypes="cccczzzccccccccccccccccccccccccccccsszzc" />
    <path
       style="fill:#000000;fill-opacity:1;stroke:none;stroke-width:0.06614434px;stroke-linecap:butt;stroke-linejoin:miter;stroke-opacity:1"
       d="m 96.973357,93.062759 c 0.08464,-0.494 0.424458,-0.58165 0.961072,-0.61518 3.564821,1.747687 7.153691,3.243527 10.690531,5.243017 -0.0282,-0.54368 -0.0252,-1.09779 0.13363,-1.7038 0.19679,-0.1923 0.39987,-0.37773 0.93543,-0.20045 0.61831,0.90202 1.02532,1.80403 1.20268,2.70604 0.38318,0.21362 0.77459,0.41076 1.03565,0.86861 l 1.43654,-0.33408 0.13363,-0.13363 c 0.44394,-0.0867 0.66446,-0.22921 1.57018,-0.20045 l 0.26726,0.16704 1.2695,-0.16704 c 0.1228,-0.35536 0.29145,-0.71148 0.70157,-0.8686 -0.10663,-0.92587 -0.2989,-1.83857 -0.13363,-2.80627 0.2375,-0.18712 0.37523,-0.43411 1.03564,-0.36749 0.33547,0.47885 0.65342,0.9577 0.8352,1.43654 0.21101,-0.67055 4.52828,-4.991647 6.94885,-7.115887 0.57324,-0.266029 0.94533,0.0702 0.90202,0.33408 l -6.98226,8.619247 c 0.50082,0.46465 0.582,1.612197 -0.0668,2.138104 1.11614,1.03954 0.47304,2.87497 -1.30291,2.539 l 0.82684,4.56854 -0.45935,0.10857 v 0.36749 l -1.03565,0.23385 0.10857,0.55123 -0.27561,0.0668 -0.15869,-0.55123 -2.21327,0.33408 0.0919,0.53453 -0.27562,0.0585 -0.14198,-0.55958 -1.044,0.0752 -0.13363,-0.50948 -0.78509,0.10023 -1.55347,-5.01119 c -0.12287,0.94122 -2.20916,1.61147 -2.60582,-0.30067 -0.10399,-0.88495 -0.26384,-1.78108 -0.0668,-2.60582 z"
       id="path5648"
       inkscape:connector-curvature="0"
       sodipodi:nodetypes="ccccccccccccccccccccccccccccccccccccccc" />
    <path
       style="fill:#000000;fill-opacity:1;stroke:none;stroke-width:0.07326327px;stroke-linecap:butt;stroke-linejoin:miter;stroke-opacity:1"
       d="m 29.102854,92.63071 -8.0921,3.04903 -0.0154,0.38701 -0.28476,0.12566 0.22783,1.14819 -0.31384,0.15698 0.52322,2.51183 -1.52193,0.77123 c -0.76415,1.0544 -1.10323,0.57773 -1.64583,0.83409 -0.25426,0.76205 -0.81554,0.77802 -1.40978,0.71441 l -3.16747,1.60516 -0.36621,-0.57567 -1.41306,0.57567 -0.68038,-0.88961 c -0.26138,-0.54792 -1.1827597,-0.54701 -1.8910994,-0.36356 l -0.8061294,-0.34103 -0.0386,0.71699 c -0.6304,0.0539 -1.44589,1.15561 -1.66007,2.02838 l 1.6224,2.72134 0.2616397,-0.0524 0.6802297,1.09896 h 0.31398 c 0.3458597,0.66961 0.4672297,1.08783 1.0990294,1.25593 -0.0968,0.90877 0.12545,1.20885 0.78487,2.19789 l -0.41866,0.20936 0.88963,2.40722 1.83166,2.45947 0.68024,-0.10465 c 0.47975,0.71967 2.89448,0.53471 3.87251,-2.45962 l -0.83726,-1.3083 17.4262,-3.61079 c 6.60904,-2.17321 8.89325,-9.17525 5.18073,-12.76871 l 0.26179,-2.14553 c -1.18294,-1.14073 -2.60608,-1.80055 -4.08192,-2.35501 l -1.04664,1.25606 c -1.40294,-0.60993 -2.94381,-1.04738 -5.12836,-0.68039 z m -6.43678,9.5766 h 0.36639 l 1.15125,1.36066 c -2.42668,0.76217 -3.96686,2.06994 -5.80863,3.19212 l -0.25272,-0.31395 -0.8774,-0.0524 -0.48905,0.3632 0.20631,0.47419 c -0.72374,-0.33447 -0.33509,0.16276 -3.61103,1.46526 l -0.20925,-0.26171 0.31398,-0.15698 -0.52322,-1.20355 0.0521,-0.20933 c 3.36479,-1.3976 6.70391,-2.82392 9.68111,-4.65752 z"
       id="path5676"
       inkscape:connector-curvature="0"
       sodipodi:nodetypes="ccccccccccccccccccccccccccccccccccccccccccccccccccc" />
    <path
       style="fill:#000000;fill-opacity:1;stroke:none;stroke-width:0.12141336px;stroke-linecap:butt;stroke-linejoin:miter;stroke-opacity:1"
       d="m 54.911006,98.838883 v 1.170757 l -0.433619,0.21681 -0.04336,0.82388 1.474302,3.33887 c 0.985389,0.82323 1.662296,0.81016 1.734477,-0.78051 l -0.520343,-1.17077 3.555677,-1.2575 c 0.919837,1.02978 1.946199,0.94938 1.711021,-0.5367 l 2.495085,-0.764157 -1.076949,1.457927 0.339797,0.7535 -0.04337,0.43362 h -0.650428 c 0.528154,1.85267 1.474306,2.8619 1.474306,2.8619 0.668725,0.72879 2.605674,0.42698 2.08137,-0.73716 l -0.997323,-1.6044 c 0.01471,-0.30119 -0.006,-0.64031 0.563705,-0.3469 0.76439,0.73306 1.49649,0.23236 1.127409,-0.52034 0.283435,0.47037 1.407694,0.21704 0.823877,-0.69378 0.02928,-0.16903 -0.07721,-0.49851 0.373968,-0.16894 0.428884,0.44815 1.302238,0.0994 0.970251,-0.6983 l 0.252388,-0.26441 c 0.614162,0.44907 1.163182,-0.0757 0.658214,-0.689557 -0.04429,-0.46398 0.250038,-0.39585 0.47698,-0.43362 1.161907,0.29581 2.107018,-0.93591 1.994648,-2.038 0,0 0.71653,0.67393 1.084047,0.86723 0.367519,0.19331 0.855567,0.82046 0.855567,0.82046 l 0.125401,0.66666 -1.521902,0.30608 c 0.0027,0.623517 0.505061,0.890127 0.88783,1.242167 1.423287,3.52994 3.510186,5.11422 5.750778,4.68023 l -0.243812,0.8701 1.734476,1.60438 0.563706,-0.0759 0.364241,0.34039 0.112739,-0.1019 -0.27101,-0.36858 c 0.494196,-1.01507 1.45007,-1.63048 2.434844,-1.64095 l 0.406524,0.31438 0.108403,-0.11925 c -0.133808,-0.141 -0.1402,-0.17537 -0.352322,-0.36858 l 0.16107,-0.46319 -0.839756,-1.15884 c 4.676818,-1.98241 0.619694,-6.760697 -2.618766,-7.612477 -0.750262,-0.1947 -1.209073,-0.33461 -2.064321,0.28432 l -1.56103,-1.8212 1.084048,-0.30354 0.997325,0.99732 5.578719,1.45868 1.662722,1.14307 c 0.893612,0.17963 0.985356,-0.18593 0.520346,-0.9106 l -1.734475,-2.51499 -1.821205,-0.693791 -0.910601,-0.47698 1.214134,-0.30353 c 1.213147,0.899591 2.322523,0.52226 1.842884,-0.45531 l 1.495988,-0.36857 c 0.33683,0.53034 2.540497,0.99766 1.875398,-0.39026 l 1.420105,-0.30353 1.474305,0.86724 c 1.697524,1.10988 2.056414,-0.24147 1.257496,-0.86724 l -0.563703,-1.04069 -1.60439,-0.95396 -0.737153,0.13008 -1.430947,-1.08404 -11.274099,1.21413 c -0.269211,-0.94573 -2.771854,-1.37646 -2.94861,0.26017 l -1.474306,-1.60439 c -0.456925,-0.68812 -3.838671,-1.44477 -3.208781,0.47698 l 1.040685,1.73448 -3.295506,1.4743 c -0.805862,-0.89932 -2.585689,-0.20861 -2.384904,0.99733 z"
       id="path5707"
       inkscape:connector-curvature="0"
       sodipodi:nodetypes="cccccccccccccccccccccccccczccccccccccccccccccccccccccccccccccccccccccccccc" />
    <path
       style="fill:#000000;fill-opacity:1;stroke:none;stroke-width:0.09741199px;stroke-linecap:butt;stroke-linejoin:miter;stroke-opacity:1"
       d="m 47.562208,106.59682 c 0.152191,-0.67022 0.277008,-1.34864 1.451414,-1.30381 l 0.639606,-0.3936 0.0492,-2.41083 2.041822,1.18081 1.107011,2.85363 1.05781,0.71341 c 1.082114,-0.0674 2.151737,-0.2097 3.296433,0.0984 l 1.671275,1.2254 0.880044,0.9444 0.44092,0.27862 0.05699,0.32803 0.215757,0.17046 0.289232,0.11248 0.347993,0.23704 -0.19065,0.2829 -0.379648,-0.24801 -0.174279,-0.27026 -0.253849,-0.18235 -0.495967,-0.16793 -0.907203,-0.054 4.083637,7.13407 1.549811,1.57441 -2.567036,1.84295 -0.509812,-0.30285 0.198982,0.54397 -2.607979,1.70437 -1.648219,-1.1316 -12.619924,-6.96188 -0.172202,0.246 0.467405,0.78721 -0.246258,0.24898 0.35442,0.5818 0.146063,-0.0707 0.405906,0.75338 -0.37823,0.17529 -0.429321,-0.74692 0.126913,-0.062 -0.375336,-0.55487 -0.900636,-0.35535 -1.065144,-1.66698 0.209103,-1.46372 -0.504306,-0.7257 0.239852,-0.14144 0.467405,0.76875 0.522754,0.5043 0.418205,0.78721 0.442804,-0.14759 -0.762608,-1.64823 1.08241,-1.0086 -1.771216,-2.23862 c -0.46061,-1.56174 0.348102,-1.98109 1.254612,-2.31242 0,0 -0.147601,-2.90284 -0.0492,-2.73063 0.0984,0.1722 1.894218,1.77121 1.894218,1.77121 l 0.295203,1.89422 0.639607,0.0246 c 0.139946,-0.64452 0.664207,-0.46739 0.664207,-0.46739 z"
       id="path5735"
       inkscape:connector-curvature="0"
       sodipodi:nodetypes="cccccccccccccccccccccccccccccccccccccccccccccccccccccccccc" />
    <path
       style="fill:#000000;fill-opacity:1;stroke:none;stroke-width:0.11869412px;stroke-linecap:butt;stroke-linejoin:miter;stroke-opacity:1"
       d="m 74.922045,122.24587 1.04912,0.56952 c 0.5481,0.97634 1.06191,2.18423 1.91838,1.07909 l 2.008307,1.64862 0.38967,-0.1199 1.52872,1.49874 0.56952,-0.41965 1.56108,1.0155 0.833487,0.97139 2.14806,1.03246 -1.45703,-1.97324 -0.84342,-0.58386 -1.336157,-1.52475 c 0.47734,0.5943 0.954677,0.94249 1.432027,0.5829 l 1.06082,0.48955 1.30588,1.24388 2.24021,1.10984 -1.64243,-1.94114 -1.27607,-0.84248 -0.7779,-0.79827 c 0,0 -0.34664,-0.73127 -0.88054,-1.26969 l 0.14987,-0.23979 0.5995,0.26977 0.26977,-0.32972 0.56952,-0.3597 1.64862,1.04912 c 1.05183,0.36754 0.95409,-0.34801 0.98917,-0.77935 l -4.10655,-3.41712 c 2.21683,-1.02446 2.53965,-4.29334 -3.387157,-4.67607 l -2.00831,-1.70856 c 0.14403,-1.11139 -0.43548,-0.65512 -0.719397,-0.8393 0.161447,-0.84577 -0.0854,-1.30877 -1.19899,-0.95919 l -2.15818,-1.79849 -0.62948,-0.06 c -0.45201,-0.48677 -1.416777,-1.2229 -1.258937,0.1199 l -0.95919,0.1199 -0.0899,0.62947 c -1.7813,-0.15198 -2.40257,0.79124 -2.20614,1.65461 l -0.43164,0.32373 -0.92922,0.17985 -0.62947,-0.3597 -1.228967,1.40881 v 1.13905 c 0.81753,0.46139 1.747727,0.81011 2.637787,1.19899 l -5.245597,4.91586 -0.8393,3.41713 4.16651,4.13652 z"
       id="path874"
       inkscape:connector-curvature="0"
       sodipodi:nodetypes="cccccccccccccccccccccccccccccccccccccccccccccccc" />
    <path
       style="fill:#000000;fill-opacity:1;stroke:none;stroke-width:0.09542418px;stroke-linecap:butt;stroke-linejoin:miter;stroke-opacity:1"
       d="m 194.19223,102.31111 -0.88608,-11.314556 -4.22592,1.15872 -0.18745,0.40896 2.59009,1.5336 -0.15336,0.17041 -2.60713,-1.55065 c 0,0 -0.69498,0.11591 -1.12464,-0.017 -0.42966,-0.13294 -1.08916,-0.51957 -1.31208,-0.86904 -0.22292,-0.34948 -0.35415,-0.64995 -0.13632,-0.90312 0.21783,-0.25318 1.09056,0 1.09056,0 l 5.13782,-2.38768 -0.0682,-0.71568 -0.57109,-0.64545 0.0341,-2.18113 1.3632,-0.78384 0.0341,-0.30672 -0.20861,-0.37488 0.24476,-2.73674 c -1.34492,-0.59279 -2.65811,-2.97072 -0.0668,-3.60838 1.88823,-0.46464 3.43026,0.0833 4.51582,0.69572 1.08555,0.6124 2.41871,1.84949 2.33947,2.62039 -0.10621,1.03322 -3.04175,0.98418 -3.04175,0.98418 l 0.16284,1.51571 c 1.02625,0.70849 1.87589,1.2644 1.8138,2.81247 l -0.37488,0.98835 2.38561,-0.40896 c 0,0 -0.12464,-0.2104 -0.0682,-0.30672 0.0565,-0.0963 0.0821,-0.14731 0.3408,-0.10225 0.25866,0.0451 1.77877,0.58266 1.97665,0.81793 0.19787,0.23526 0.14269,0.29545 0.14269,0.29545 l 2.1849,0.77179 -0.094,0.18416 -2.19659,-0.78142 c -0.20258,0.20038 -0.4767,0.20355 -0.77061,0.16585 l -3.56051,1.51122 -0.61344,1.0224 c 1.43482,1.42236 0.4414,1.86262 -0.74976,2.01073 l -1.60176,10.803356 c 0,0 0.9578,0.93111 1.34616,1.29504 0.38835,0.36393 0.9772,1.23244 0.852,1.29504 l 2.26148,1.80799 -0.11928,0.13632 -2.12516,-1.70574 c -0.0185,0.40514 -0.15369,0.49895 -0.30672,0.54528 l 0.92016,0.71568 -0.10224,0.13632 -0.9372,-0.73272 c -0.75317,0.41842 -3.04006,-1.43898 -3.76585,-2.53897 -0.72578,-1.09999 -0.15966,-1.29066 0.23857,-1.43136 z"
       id="path902-8"
       inkscape:connector-curvature="0"
       sodipodi:nodetypes="ccccccczzzcccccccccszsccccczzzccccccccczcccccccczcc" />
    <path
       style="fill:#000000;fill-opacity:1;stroke:none;stroke-width:0.12355064px;stroke-linecap:butt;stroke-linejoin:miter;stroke-opacity:1"
       d="m 88.115522,105.51162 2.246487,-2.5273 3.46333,0.93604 3.775347,-1.93448 0.37443,-0.62402 3.525734,-0.21841 4.74259,1.96568 -0.156,0.31201 4.58658,1.71607 -0.15601,0.28082 -4.61778,-1.71608 -0.15601,0.40562 2.90172,0.99845 c 0.97584,0.63555 0.53728,2.07157 -0.71763,1.93446 l -3.05772,-0.99843 -0.90484,1.74727 1.77847,0.46801 0.74883,0.84244 c 0,0 4.79903,2.25059 6.33385,3.05772 1.53483,0.80713 2.70446,2.10636 2.58972,3.02652 -0.11474,0.92017 -2.36712,0.22527 -3.27614,-0.0624 -0.90903,-0.28768 -1.80968,-0.65523 -1.80968,-0.65523 l -7.95631,-2.15288 -1.56007,-0.0624 -5.803434,4.80498 2.3713,0.81124 c 0.76402,1.16036 -0.10359,1.99441 -0.84244,1.65368 l -2.995317,-0.87365 -0.53042,0.68644 4.586577,1.49766 -0.156,0.31201 -4.677677,-1.49515 -0.31201,0.65272 -4.152277,-1.21685 -0.49922,-0.96725 0.18721,-1.09204 c -1.81608,-0.34243 -1.41571,-2.52894 0.0936,-2.09049 l 1.560067,-6.24025 -0.49922,-1.99688 z"
       id="path938"
       inkscape:connector-curvature="0"
       sodipodi:nodetypes="cccccccccccccccccczzzccccccccccccccccccc" />
    <path
       style="fill:#000000;fill-opacity:1;stroke:none;stroke-width:0.1012736px;stroke-linecap:butt;stroke-linejoin:miter;stroke-opacity:1"
       d="m 11.461214,116.52843 2.097187,2.91561 -3.37596,4.91048 -0.05115,1.17647 3.222505,-0.28133 -0.03836,-0.78005 c -0.802542,-0.70454 -0.660535,-2.33821 0.08951,-3.09463 0.75005,-0.75642 1.891543,-1.13764 3.017904,-0.70332 1.126361,0.43431 2.325032,1.92857 2.378516,2.78772 0.05348,0.85915 -0.498721,1.73913 -0.498721,1.73913 l 1.687981,0.2046 c 0.38721,-0.98618 0.79865,-1.34858 1.457799,-1.68798 0.659148,-0.33939 1.78531,-0.39324 2.391304,-0.0511 0.605995,0.3421 1.378396,0.98781 1.521741,1.76471 l 1.956521,0.15345 0.166239,-0.97186 c -0.617287,-0.57546 -0.822293,-1.68338 -0.524298,-2.54476 0.297995,-0.86138 1.178572,-1.57877 2.314577,-1.61125 1.13601,-0.0325 2.516739,1.28822 2.96675,1.77749 0.450014,0.48927 0.878215,1.54595 0.895148,2.13555 0.01693,0.5896 -0.242967,1.06138 -0.242967,1.06138 l 2.557546,0.25575 0.102298,-3.17135 -1.414479,-2.20478 -0.529251,-1.37578 -1.329926,-1.68798 0.511509,-0.71612 5.473146,7.10998 0.153453,7.51918 -4.245522,5.37084 -1.943736,-2.76214 3.785168,-5.5243 -3.235296,0.61381 c 0,0 0.117164,1.32753 -0.127876,2.14834 -0.245039,0.82081 -0.666078,1.35611 -1.304352,1.77749 -0.63827,0.42138 -1.468859,0.64769 -2.327362,0.26855 l -0.984655,1.17647 -1.02302,0.0511 -0.716114,-1.17648 1.329926,-1.31713 c -0.600182,-0.63995 -0.902579,-1.5594 -0.895141,-2.1867 l -2.16481,-0.23018 c -0.672102,0.37796 -0.963281,0.57277 -1.881869,0.56393 -0.918588,-0.009 -1.478148,-0.31921 -2.126914,-0.89146 l -1.230499,0.059 -0.690539,1.01023 c 0,0 0.292353,0.38245 0.217393,0.97187 -0.07496,0.58942 -0.690538,1.15089 -0.690538,1.15089 l 0.920717,0.66496 -1.176471,1.89259 -1.329923,-1.02302 0.306904,-0.51151 -0.511509,-0.46036 c 0,0 -0.470106,0.16623 -1.074169,0.0512 -0.604061,-0.11507 -1.065292,-0.43877 -1.457799,-0.95907 -0.392509,-0.52031 -0.780725,-1.31468 -0.946292,-1.84144 -0.165567,-0.52676 0.07672,-1.53453 0.07672,-1.53453 l -2.787723,-0.31969 -0.3069057,1.43223 0.2046037,1.48337 2.063778,2.80708 0.289164,0.77349 1.12532,1.32992 -0.818415,0.40921 -5.0639383,-5.7289 0.05115,-1.68798 -1.074168,-0.56266 0.511508,-6.95653 z"
       id="path1745"
       inkscape:connector-curvature="0"
       sodipodi:nodetypes="cccccczzzcczzccczzzzccccccccccccczzccccccczccczcccccczzzccccccccccccc" />
    <path
       style="fill:#000000;fill-opacity:1;stroke:none;stroke-width:0.10035841px;stroke-linecap:butt;stroke-linejoin:miter;stroke-opacity:1"
       d="m 59.128662,123.37852 c -0.103228,1.99618 -0.175459,4.55129 -0.860216,5.19714 l 0.03584,1.6129 -1.720434,0.0717 c 0,0 -0.931897,-1.17384 -2.616484,-1.07527 -1.684587,0.0986 -2.508963,1.25448 -2.508963,1.25448 h -0.743729 l -0.815411,0.85125 -0.01789,0.68997 c -0.310843,0.21442 -0.694825,0.20944 -1.075272,0.21505 -0.655079,-0.16828 -1.123191,-0.43004 -1.541219,-0.71685 0.290433,-1.33073 0.47943,-2.82325 0.896056,-3.94265 l -2.867379,-1.6129 c -1.47486,1.38273 -2.795893,2.90007 -3.512543,4.94624 l -0.01791,4.13978 c 0.142803,1.44962 2.262028,5.99889 5.716848,8.36917 l 0.394264,-0.16129 0.07168,-0.5914 c -0.555363,-1.58546 -0.818022,-3.22946 -0.896056,-4.91039 l 0.107526,-1.57706 0.64516,-0.14337 3.584232,-0.0717 c 0,0 1.010722,1.26844 2.428313,1.37993 1.417593,0.1115 2.410397,-0.81541 2.410397,-0.81541 l 0.394263,0.2957 0.143367,-0.0358 0.05376,-0.86022 c 0.42023,-0.38286 0.699763,-0.90163 0.761654,-1.40681 l 1.155914,-0.17025 c 0.220163,1.26757 0.08468,2.59441 0.03584,3.90681 l 2.903225,1.89964 c 0.981269,-1.39851 2.023299,-2.63906 2.5448,-5.23297 0.08214,-1.87544 0.06595,-3.75088 0.05377,-5.62724 -0.387591,-1.78418 -1.268796,-3.01123 -2.060935,-4.37276 z"
       id="path1773"
       inkscape:connector-curvature="0"
       sodipodi:nodetypes="cccczccccccccccccccccczcccccccccccc" />
    <path
       inkscape:connector-curvature="0"
       style="fill:#000000;fill-opacity:1;stroke:none;stroke-width:0.07843135px;stroke-linecap:butt;stroke-linejoin:miter;stroke-opacity:1"
       d="m 110.03148,120.88161 -1.84865,1.6806 -0.11213,6.02252 -0.72181,0.12699 -0.0228,0.87638 -0.4542,0.012 c -0.25886,-0.21981 -0.95664,-0.63072 -1.35845,-0.72059 l -0.5239,-0.15472 c 0,0 -0.54852,-0.65065 -1.86213,-0.64414 -1.31362,0.006 -1.89139,0.81219 -1.89139,0.81219 l -0.28018,-0.0561 -0.0314,-2.305 -0.29152,0.007 0.0149,2.29841 c -0.12995,0.0472 -0.21615,0.12342 -0.30806,0.19593 l -0.028,-1.98851 -0.28018,0.0162 0.0627,2.1852 c -0.183842,0.14568 -0.243895,0.23835 -0.342677,0.34758 l -0.672333,0.11197 -0.133426,-0.75811 -0.749999,-0.006 -0.293047,-5.95818 -2.133883,-1.697 -0.499235,0.18444 -0.75628,9.35569 1.008425,9.88802 0.420191,0.16805 1.988817,-2.7451 0.08394,-3.24923 0.280178,-0.70037 -0.252145,-1.31648 0.784161,-0.19593 0.168199,-0.78447 0.571844,-0.003 0.52068,0.53554 0.81557,0.023 c 0,0 0.64933,0.75577 0.94914,0.90135 0.29981,0.14558 0.81571,0.22932 0.81571,0.22932 l 0.11382,0.48422 0.94409,-0.01 0.13526,-0.48131 c 0.44702,-0.0829 1.13436,-0.64201 1.33962,-1.09038 l 0.34896,-0.0842 0.028,0.16805 1.73399,-0.92165 0.13978,0.86681 0.56311,0.195 0.70037,5.35003 2.11305,2.4424 0.41468,-0.24923 0.35738,-8.77573 -0.89629,-10.22411 z m -5.03845,8.35079 0.50414,0.63726 0.007,1.68076 -0.5743,0.69669 -0.32215,-0.28707 0.007,-0.19961 0.33609,-0.40257 0.007,-1.28156 -0.33257,-0.42723 0.0665,-0.31511 z"
       id="path1801"
       sodipodi:nodetypes="cccccccccccccccccccccccccccccccccccccsccccccccccccccccccccccccccc" />
    <path
       style="fill:#000000;fill-opacity:1;stroke:none;stroke-width:0.09548456px;stroke-linecap:butt;stroke-linejoin:miter;stroke-opacity:1"
       d="m 112.85433,122.34305 1.70508,3.88759 14.64782,8.16675 0.24607,-0.0378 -6.43669,-9.93636 -0.0362,-1.10538 0.47949,-0.02 0.35101,0.45709 0.28262,-0.0861 -0.10815,-0.47517 c 0.48297,-0.3123 1.13656,-0.91849 1.38421,-2.07831 h 0.27282 l 9.35238,11.6798 0.11936,-0.14919 -4.39059,-10.03014 -3.00094,-3.54657 -6.61573,-4.67193 0.54563,1.26176 c 0,0 -0.77528,-0.42839 -1.57695,-0.12641 -0.80168,0.30197 -1.3899,1.52458 -1.3899,1.52458 h -0.40922 l -1.19355,-2.0461 z"
       id="path930"
       inkscape:connector-curvature="0"
       sodipodi:nodetypes="cccccccccccccccccczcccc" />
    <path
       style="fill:#000000;fill-opacity:1;stroke:none;stroke-width:0.06268656px;stroke-linecap:butt;stroke-linejoin:miter;stroke-opacity:1"
       d="m 18.167188,148.98995 -0.951493,-0.27985 1.208955,-13.20896 3.626865,-0.76119 0.716418,0.44776 4.164179,12.26369 -1.559479,2.09858 -3.097237,-0.25779 1.61194,0.9403 c 0,0 1.624567,0.0222 2.059704,0.1791 0.435137,0.15694 0.582087,0.40299 0.582087,0.40299 0,0 0.690947,0.22869 0.921752,0.45319 0.230807,0.2245 0.421532,0.80054 0.421532,0.80054 l 2.897334,3.32383 -2.249205,0.62686 -1.095423,-0.25507 2.909983,4.81184 -2.32836,-0.40299 -5.597014,-5.50746 -1.119406,-0.0896 -0.31343,0.27985 -0.58209,0.0336 -0.134327,1.61194 -8.865675,8.23881 -3.0895503,-1.38806 6.8171643,-8.11567 -0.01119,-1.5112 c 0,0 -0.656544,-0.1937 -0.626865,-0.89552 0.02968,-0.70181 0.537314,-0.80597 0.537314,-0.80597 l 1.208954,-0.0896 c 0,0 -0.334782,-0.67393 -0.01119,-1.35448 0.323585,-0.68054 0.906716,-0.61567 0.906716,-0.61567 l 0.156717,-0.72761 z"
       id="path952"
       inkscape:connector-curvature="0"
       sodipodi:nodetypes="ccccccccczczccccccccccccccczcczccc" />
    <path
       style="fill:#000000;fill-opacity:1;stroke:none;stroke-width:0.0710369px;stroke-linecap:butt;stroke-linejoin:miter;stroke-opacity:1"
       d="m 29.602056,150.78927 0.0586,1.8417 0.701605,1.16933 0.350809,-0.1754 0.730824,0.0291 0.11693,0.17541 0.701598,-0.20464 -0.292333,0.93546 4.034192,5.7882 10.231655,4.47269 0.324956,-0.009 -0.01021,-0.90107 0.213196,-0.0963 -0.01021,-0.61552 -3.26572,-4.89924 2.017102,1.78324 1.841695,0.73083 3.127971,-0.26311 0.99393,-1.02316 0.02906,-1.63706 1.926812,-0.92203 0.02564,-1.48544 8.932184,7.20904 0.186362,-0.009 -0.01101,-0.76372 0.138848,-0.16444 0.005,-0.5737 -2.313092,-4.11093 -5.718532,-4.64852 -0.574485,-0.003 -0.01019,-0.40668 -0.653473,-0.70418 -7.94e-4,-0.69902 -0.964695,-0.81853 -4.209595,-1.5786 -0.637156,-0.55381 -0.007,-0.29395 -1.690049,-1.1127 -0.560917,0.002 -1.549369,-1.02317 h -1.841881 l -0.009,-0.23936 -0.610246,-0.1699 -0.610242,0.1699 v 0.23947 h -2.835702 l -0.877001,0.67257 v 0.40926 h -1.724746 l -0.386823,0.61213 0.0085,0.61568 z"
       id="path974"
       inkscape:connector-curvature="0"
       sodipodi:nodetypes="cccccccccccccccccccccccccccccccccccccccccccccccccccc" />
    <path
       style="fill:#000000;fill-opacity:1;stroke:none;stroke-width:0.10705727px;stroke-linecap:butt;stroke-linejoin:miter;stroke-opacity:1"
       d="m 138.15125,127.916 -0.0623,1.19938 3.43458,6.23832 -0.48287,0.31931 -3.45016,-1.49533 -3.95638,-5.79439 -0.12461,-4.82866 4.04984,-6.10592 3.98754,-1.7757 -3.73832,6.72897 1.27726,1.21496 3.08411,-0.90343 c 0,0 0.56243,-1.65853 3.89409,-1.72897 3.33166,-0.0704 3.52025,1.80685 3.52025,1.80685 l 1.33956,-0.0467 c 0,0 1.65075,-1.12355 3.52025,-1.40187 1.86951,-0.27831 4.14332,0.31153 4.14332,0.31153 l -1.61995,-4.29907 6.51091,-1.54205 5.14019,6.09034 v 3.36449 c 0,0 0.64626,0.23656 0.6542,0.77881 0.008,0.54225 -0.6542,0.88785 -0.6542,0.88785 v 1.4486 l -4.39253,6.23053 -1.27725,0.56075 c 0,0 -6.01247,-1.24611 -5.88786,-1.43303 0.12461,-0.18691 1.68225,-4.33021 1.68225,-4.33021 0,0 -0.24835,0.47292 -1.7134,0.5296 -1.46504,0.0567 -1.83801,-0.59191 -1.83801,-0.59191 l -1.32399,0.48287 0.0156,0.63863 0.56075,0.34268 c 0,0 0.0739,0.62183 -0.0935,1.01246 -0.16741,0.39062 -0.73852,0.78871 -1.2461,1.01246 -0.50759,0.22375 -1.00286,0.21199 -1.43303,0.0312 -0.43018,-0.18084 -0.75386,-0.66535 -0.93458,-0.99689 -0.18072,-0.33154 -0.21806,-0.87227 -0.21806,-0.87227 l 0.45171,-0.42056 -0.0156,-0.60748 -0.77881,-0.0935 -0.40499,-0.21807 h -1.02803 c -1.00052,0.50788 -1.9766,0.67899 -3.08411,0.62306 -1.10752,-0.0559 -2.33645,-0.21348 -3.17757,-0.95016 l -0.57634,-0.73209 -3.09968,-0.93458 z"
       id="path996"
       inkscape:connector-curvature="0"
       sodipodi:nodetypes="cccccccccccczcczccccczcccccczcccczzzzcccccczcccc" />
    <path
       style="fill:#000000;fill-opacity:1;stroke:none;stroke-width:0.10167752px;stroke-linecap:butt;stroke-linejoin:miter;stroke-opacity:1"
       d="m 172.65443,120.56722 0.0516,1.78064 5.67743,7.40646 0.43869,1.26452 0.98065,0.61936 2.73549,3.2 3.5871,1.16129 -0.0258,-0.54193 -2.42581,-2.81291 0.0516,-1.90968 0.20645,-0.98065 -0.24436,-0.38559 0.24436,-0.85312 1.96129,-0.23226 c 0,0 0.41743,0.35892 0.83226,0.55484 0.41484,0.19593 1.15055,0.46255 1.67742,0.47742 0.52688,0.0149 1.10323,-0.15484 1.10323,-0.15484 l 0.51613,0.0774 0.45806,-0.43871 c 0.23998,-0.0648 0.46559,-0.18064 0.69678,-0.30322 0.28457,0.14762 0.35159,0.15915 0.6,-0.006 l 0.0129,-0.54839 c 0.67456,-0.6882 1.09586,-1.67181 1.39355,-2.47096 l 2.23226,-1.05807 -2.50323,4.69678 2.89032,2.60645 h 0.72259 l 5.16129,-3.30322 0.56775,-5.70324 -5.47098,-4.98064 -2.91613,-1.70323 -0.67097,-0.0258 0.0774,0.98065 0.85162,1.36774 -4.98065,-2.24517 -0.54194,0.25807 -0.28387,1.26452 0.95484,0.92903 1.08387,0.92903 -0.59355,0.0258 -0.95484,-0.77419 -3.09678,0.0258 -0.68608,-0.70876 -0.25494,-0.0441 -0.90322,-0.72571 c -0.1561,-0.18051 -0.5286,-0.11796 -0.63917,0.0208 -0.11057,0.1388 -0.12045,0.40786 0.0834,0.58026 l 0.56018,0.37927 -1.31926,0.44211 -1.02756,-0.78018 c -0.20111,-0.19204 -0.45992,-0.17048 -0.60111,0.003 -0.14119,0.1736 -0.11488,0.44104 0.16866,0.65402 l 0.83337,0.6402 -0.65299,0.67436 -0.0774,0.85162 -0.67097,-0.0258 -0.24138,-0.40977 -0.73927,0.0743 -2.19355,1.80645 0.18065,0.8 1.03226,0.98065 0.0258,0.43871 h -0.43871 l -4.98065,-4.20637 z"
       id="path1018"
       inkscape:connector-curvature="0"
       sodipodi:nodetypes="cccccccccccccczzccccccccccccccccccccccccccccczcccczcccccccccccccc" />
    <path
       style="fill:#000000;fill-opacity:1;stroke:none;stroke-width:0.0898792px;stroke-linecap:butt;stroke-linejoin:miter;stroke-opacity:1"
       d="m 70.914606,134.19462 0.628949,-1.80824 0.70757,-0.44551 0.917221,-0.89101 0.94343,-4.61231 2.751661,0.62895 0.94343,0.52412 11.340209,8.16289 1.075041,0.53762 c 0.0937,0.22372 0.0618,0.30731 -0.15068,0.34723 l -1.048261,-0.50447 -0.64244,-0.0217 -9.892501,-4.1451 -0.157239,0.31448 0.57654,0.68136 -0.02619,0.68137 1.100661,0.47171 c 0.454949,0.21753 0.853721,0.36383 1.33653,1.17929 l 9.460481,5.14299 0.98929,0.53068 c 0.0777,0.22121 0.01,0.29 -0.15724,0.28172 l -1.022042,-0.55034 -9.060839,-4.22577 c 0,0 -0.18021,1.02997 -0.786191,1.53307 -0.60598,0.50311 -1.808239,0.0917 -1.808239,0.0917 l -2.096511,-0.68136 -0.628949,0.18344 -0.249891,0.24353 -0.772149,-0.0863 -1.07447,0.60275 7.468809,5.21506 0.524131,0.0524 2.502699,1.80169 1.067912,0.76326 c 0.0567,0.16778 -0.0021,0.26663 -0.19,0.23913 l -1.094132,-0.75343 -13.031099,-3.64923 -2.175122,-1.88686 1.834442,-3.7213 -0.02619,-0.60274 0.524118,-0.49792 z"
       id="path1040"
       inkscape:connector-curvature="0"
       sodipodi:nodetypes="ccccccccccccccccccccccczcccccccccccccccccc" />
    <path
       style="fill:#020000;fill-opacity:1;stroke:none;stroke-width:0.08426707px;stroke-linecap:butt;stroke-linejoin:miter;stroke-opacity:1"
       d="m 139.01669,10.653099 3.31694,-1.13022 0.25742,0.18639 1.09393,8.04455 0.57107,0.0102 c 0.47112,-0.93983 1.07926,-1.47851 2.01474,-1.58986 0.93549,-0.11135 1.50414,0.20652 1.86136,0.54774 l 0.25799,-0.0123 -0.0614,-0.62654 0.68797,-5.47911 5.03684,-0.98281 0.28964,0.18531 1.49169,8.78274 -1.43735,8.05895 -0.36855,0.0491 -4.20147,-1.76904 -0.46683,-0.4914 -0.61424,-4.17689 h -0.29485 c 0,0 -0.71051,0.82849 -1.79238,0.91417 -1.08186,0.0857 -2.17356,-1.01754 -2.17356,-1.01754 l -0.40752,0.0297 -0.56511,9.31202 -0.27027,0.0246 -3.36609,-3.07125 -1.08108,-7.54298 z"
       id="path1062-4"
       inkscape:connector-curvature="0"
       sodipodi:nodetypes="ccccczccccccccccccczccccccc" />
    <path
       style="fill:#000000;fill-opacity:1;stroke:none;stroke-width:0.12183265px;stroke-linecap:butt;stroke-linejoin:miter;stroke-opacity:1"
       d="m 115.80187,137.32106 4.55525,-4.42048 3.12667,0.9973 2.69542,4.01617 c 0,0 1.14041,-0.248 2.39893,0.16174 1.25851,0.40975 1.88679,1.56334 1.88679,1.56334 l 0.61994,-1.53638 -0.45822,-1.69811 2.31806,-2.83019 3.45013,1.13208 10.16171,7.2237 -0.0269,0.86254 -8.97574,-2.8841 -0.074,0.59527 0.31661,0.56376 c -0.58695,0.87647 -0.95206,1.8388 -0.75472,3.01886 l -0.35268,0.2798 -0.0247,1.12182 8.19407,3.39622 -0.18868,0.56603 -11.50943,-0.29649 -3.74027,-1.94434 0.31714,-1.53274 -0.21918,-0.20012 c 0,0 -1.47416,0.70984 -3.15009,0.25403 -1.67593,-0.45581 -2.48114,-2.29736 -2.48114,-2.29736 l -1.11678,-0.17575 c -0.24334,0.2807 -1.0921,2.93134 -1.0921,2.93134 l 8.16711,5.14824 0.45822,1.56334 -10.16172,-2.42587 -4.36657,-6.54985 z"
       id="path1084"
       inkscape:connector-curvature="0"
       sodipodi:nodetypes="cccczccccccccccccccccccczcccccccc" />
    <path
       style="fill:#000000;fill-opacity:1;stroke:none;stroke-width:0.13239834px;stroke-linecap:butt;stroke-linejoin:miter;stroke-opacity:1"
       d="m 176.12041,131.90117 -2.65101,4.14265 1.61538,0.91126 0.86992,1.8228 -0.0715,0.2692 -0.51392,-0.20881 c -0.0751,0.0226 -0.12254,0.1031 -0.0903,0.19323 l 0.53061,0.25816 -0.14772,0.64799 -1.78142,0.78717 -3.72819,-5.38517 -3.81139,-2.1543 -1.03533,4.26674 1.53265,0.99428 -1.98837,3.89383 -1.53262,-1.24252 -3.18978,4.01798 3.60418,3.60399 2.81648,0.12437 -1.28384,2.94121 3.52099,3.43822 9.01647,0.95997 0.84274,0.69682 c 0.11637,0.0572 0.24356,-0.005 0.16531,-0.15341 l -6.58645,-5.93589 2.60976,-0.74577 7.04226,5.75804 c 0.13996,0.0708 0.26423,-0.0172 0.19495,-0.18747 l -0.93038,-0.81842 -2.82694,-3.50937 -5.01252,-3.68672 c 1.62239,-0.12349 2.61513,-0.34189 3.35538,-1.78115 l 0.64424,0.43685 c 0.1759,0.0579 0.23314,-0.0505 0.21447,-0.26572 l -0.68538,-0.52427 c 0.28675,-1.19049 0.0532,-2.35762 -1.29159,-3.33384 l 0.29011,-0.95267 1.32542,-0.74577 9.274,5.11469 1.03993,0.69943 c 0.13572,0.009 0.1698,-0.0419 0.10536,-0.14862 l -1.01657,-0.69435 -2.36114,-2.44419 -5.05398,-2.7341 v -0.86989 l 7.69815,4.13242 c 0.16295,0.0553 0.30371,-0.12843 0.0807,-0.25544 l -0.97712,-0.52763 -5.47708,-9.10738 z m -7.49781,11.30895 2.02994,1.65704 0.24844,2.02995 -2.94114,-2.44421 z"
       id="path1106"
       inkscape:connector-curvature="0"
       sodipodi:nodetypes="ccccccccccccccccccccccccccccccccccccccccccccccccccccccc" />
    <path
       style="fill:#000000;fill-opacity:1;stroke:none;stroke-width:0.12253825px;stroke-linecap:butt;stroke-linejoin:miter;stroke-opacity:1"
       d="m 66.425446,154.33828 0.17506,0.74398 c 2.25843,-0.68334 4.50405,-1.39742 7.045951,-1.40044 0,0 0.233989,-1.06456 2.888399,-1.22538 2.65442,-0.16083 3.19475,0.83151 3.19475,0.83151 1.31291,-0.16255 2.62582,0.0217 3.938731,0.26258 l 0.39387,-3.45733 -1.094091,-2.62582 6.126922,2.84464 4.507651,6.21444 -0.919043,6.03939 -5.032808,3.15098 -0.919041,-0.70022 -3.63239,-5.20788 -1.531731,0.4814 c -0.30532,0.93499 -1.00106,1.46977 -1.7396,1.82713 0,0 0.0889,0.3204 -0.17661,0.43797 -0.26553,0.11756 -0.50173,-0.16444 -0.50173,-0.16444 -0.389919,0.0829 -0.871059,0.15963 -1.345729,0.186 0,0 -0.122671,0.37064 -0.423041,0.34036 -0.30036,-0.0303 -0.44482,-0.38335 -0.44482,-0.38335 -0.8977,-0.13989 -2.20935,-0.81856 -2.76452,-1.49968 l -5.25165,-0.4814 -0.52516,6.91466 -4.3326,-1.9256 -0.83151,-6.47702 0.21882,-2.71335 2.14442,-5.03282 2.582051,-2.93217 -0.17505,3.45733 z"
       id="path1616"
       inkscape:connector-curvature="0"
       sodipodi:nodetypes="ccczcccccccccccczcczccccccccccc" />
    <path
       style="fill:#000000;fill-opacity:1;stroke:none;stroke-width:0.09935677px;stroke-linecap:butt;stroke-linejoin:miter;stroke-opacity:1"
       d="m 164.33825,10.283939 -1.98222,-1.6560191 -0.32619,0.3763697 -0.90329,9.5848994 0.62729,9.81073 c 0,0 0.36382,0.20073 0.48928,0.17564 0.12546,-0.0251 1.8944,-2.68478 1.8944,-2.68478 l 0.52692,-6.62412 1.98222,0.42655 0.28031,0.36141 0.50792,0.0297 c 0,0 0.65398,1.21426 2.32641,1.24569 1.67242,0.0314 2.20473,-1.38585 2.20473,-1.38585 l 0.53731,-0.0783 0.24053,-0.32314 2.00731,-0.35128 0.55201,6.57394 1.88185,2.55932 0.33873,-0.10037 0.7402,-9.50963 -1.05384,-9.7856391 -0.37637,-0.35128 -1.95713,1.7062091 -0.10037,7.30159 -0.69768,-0.0304 -0.13128,-0.24634 -2.05654,-0.55127 c 0,0 -0.52571,-1.02734 -2.07041,-1.07741 -1.5447,-0.0501 -2.14495,0.92685 -2.14495,0.92685 l -0.43872,-0.007 -0.006,-1.21173 c -0.0358,-0.11048 -0.14979,-0.10717 -0.18272,-0.0104 l -0.0116,1.21325 -0.30567,0.0119 -0.0339,0.53123 -1.2604,0.28792 -0.11962,0.239 h -0.62728 z"
       id="path1644"
       inkscape:connector-curvature="0"
       sodipodi:nodetypes="ccccccccccczccccccccccccccczccccccccccc" />
    <path
       inkscape:connector-curvature="0"
       style="fill:#000000;fill-opacity:1;stroke:none;stroke-width:0.09711684px;stroke-linecap:butt;stroke-linejoin:miter;stroke-opacity:1"
       d="m 206.82567,150.06331 -0.89643,0.1121 -14.7917,18.67621 -0.29875,0.93381 -0.85907,-0.11211 c -0.29909,-0.0609 -0.53196,-0.008 -0.48558,0.52295 l 0.56032,1.04591 -1.12064,-0.0747 -1.08327,-0.7096 c -0.94103,-0.18935 -1.39936,-0.01 -1.49412,0.44822 l -0.52295,-0.0374 c -0.6622,-0.102 -1.01871,0.11452 -1.08327,0.63506 l 0.48559,0.89643 -0.0372,0.29875 -1.30748,-0.67223 -7.24639,-12.10224 -0.1121,-0.63506 -2.05425,-1.94233 -1.00854,0.0747 7.65725,16.47249 5.30406,5.04249 c 0,0 0.70539,0.38112 0.98877,0.41858 0.28339,0.0375 0.43451,-0.0407 0.43451,-0.0407 l 0.74753,0.58327 0.10338,-0.13259 -0.59522,-0.46434 0.0271,-0.13011 0.64188,0.50076 0.10338,-0.13259 -0.77788,-0.60698 c 0,0 0.17841,0.007 0.13316,-0.28607 -0.0453,-0.29289 -0.87281,-1.12858 -0.87281,-1.12858 l 1.60622,-0.67223 c 0.99608,0.59762 2.39332,1.80945 2.98824,1.79287 0.43042,0.009 1.56879,-0.49798 2.35319,-0.74697 0.35595,-0.159 0.49017,-0.43906 0.29875,-0.89662 l -0.29875,-0.48559 2.83877,0.26157 h 0.84901 l 0.5698,0.44462 0.10337,-0.13259 -0.51877,-0.40459 0.018,-0.38866 0.69613,0.54306 0.10337,-0.13259 -0.78982,-0.61627 0.0148,-0.32151 -0.37349,-0.59769 10.34652,-22.59825 0.52294,-0.56032 0.74716,0.0747 z"
       id="path1672"
       sodipodi:nodetypes="ccccccccccccccccccccczcccccccczccccccccccccccccccccc" />
    <path
       style="fill:#000000;fill-opacity:1;stroke:none;stroke-width:0.06851459px;stroke-linecap:butt;stroke-linejoin:miter;stroke-opacity:1"
       d="m 89.553675,148.2767 0.26348,2.26627 8.478664,5.69193 0.1252,-0.19137 -5.283517,-4.605 v -0.57993 l 4.637897,2.21353 4.321691,2.95145 -1.26488,-0.0583 0.7378,1.26488 10.11914,6.53521 1.00139,0.10502 14.91516,11.70008 c 0.86756,0.76196 3.56619,0.35822 3.1622,-1.05367 l -15.23135,-21.34497 -0.88274,-0.10502 0.14493,-0.63244 -1.3176,-3.4784 1.15951,0.47375 -1.47571,-3.42578 -4.90145,-3.79462 2.52977,3.42578 -0.7378,0.0583 -0.47433,-0.84364 -5.86329,-2.38494 -1.56794,-1.51516 -3.320341,0.10502 -0.68517,0.73745 0.21085,0.73745 -4.743317,3.05682 -1.0014,-0.78996 -1.10676,0.36873 z"
       id="path1713"
       inkscape:connector-curvature="0"
       sodipodi:nodetypes="ccccccccccccccccccccccccccccccccc" />
    <path
       style="fill:#000000;fill-opacity:1;stroke:none;stroke-width:0.07343886px;stroke-linecap:butt;stroke-linejoin:miter;stroke-opacity:1"
       d="m 136.73451,159.32249 c 0.0952,-0.54052 0.3973,-0.69322 0.73439,-0.78028 l 2.01957,-0.3213 c 0.0569,-3.08197 3.616,-3.57336 5.50792,-1.23928 l 4.08504,-0.91799 -2.61626,-4.31453 c 0,0 -0.0899,-0.37038 -0.0344,-0.55079 0.0555,-0.18042 0.35572,-0.45899 0.35572,-0.45899 l -0.68849,-0.78029 c -0.12385,-0.74721 -0.14809,-1.45458 0.1836,-2.01957 l 0.87208,-0.2295 2.98346,1.33108 0.0631,-1.42288 -0.6512,-0.69422 0.21884,-0.0749 0.71181,0.68149 0.26308,-0.0926 -0.70351,-0.6445 0.18966,-0.0473 0.71139,0.58138 c 0.3444,0.0201 0.67585,0.1445 0.78321,0.39398 l 0.0172,0.88356 1.24215,0.84913 -0.0918,1.10159 0.44752,0.0115 0.10327,-0.28687 0.67702,0.1377 0.22949,0.97536 2.90313,2.05399 c 0.52976,-1.5228 3.3958,-1.7365 4.68173,0.2754 0,0 1.80497,-0.82245 2.66216,-0.3213 0.85719,0.50116 0.91798,2.61626 0.91798,2.61626 l 0.5049,0.2754 1.05568,2.29496 -0.1836,0.59669 0.58522,0.7344 0.28223,-0.0305 3.27496,3.09425 0.53932,-0.0344 1.90482,1.57204 0.0918,0.47047 1.12454,0.44465 0.78602,0.61964 v 0.19508 l -1.01552,0.46186 0.91799,1.10158 -0.459,0.45899 c 1.91285,1.59122 2.92222,4.63014 2.97789,5.17167 0.0557,0.54152 0.0515,0.97884 0.0515,0.97884 0.67867,0.69306 0.69377,2.61717 0.82619,4.88827 l -0.78029,0.023 c 0.12133,1.48679 -0.0882,1.78037 -1.5032,2.28349 -1.415,0.50312 -3.83381,-0.54502 -6.15051,-1.95072 -2.3167,-1.40571 -8.73233,-7.53896 -8.73233,-7.53896 l -2.11137,0.3213 c -0.43044,0.38922 -0.9804,0.2764 -1.51468,0.22949 l -3.80964,1.00978 -0.68849,-0.91798 0.0459,-0.55079 -2.43266,-2.66216 -0.5049,0.0688 -0.87208,-1.07863 0.2295,-0.4131 -1.05569,-0.96388 h -0.55079 l -0.64259,-0.68849 -10.87814,-6.05871 -0.0459,-0.1836 0.45899,-0.45899 z"
       id="path1741"
       inkscape:connector-curvature="0"
       sodipodi:nodetypes="cccccczccccccccccccccccccccccczcccccccccccccccczccczzccccccccccccccccc" />
  </g>
</svg>
