<?xml version="1.0" encoding="UTF-8" standalone="no"?>
<!-- Created with Inkscape (http://www.inkscape.org/) -->

<svg
   xmlns:dc="http://purl.org/dc/elements/1.1/"
   xmlns:cc="http://creativecommons.org/ns#"
   xmlns:rdf="http://www.w3.org/1999/02/22-rdf-syntax-ns#"
   xmlns:svg="http://www.w3.org/2000/svg"
   xmlns="http://www.w3.org/2000/svg"
   xmlns:sodipodi="http://sodipodi.sourceforge.net/DTD/sodipodi-0.dtd"
   xmlns:inkscape="http://www.inkscape.org/namespaces/inkscape"
   width="193.94743mm"
   height="169.87859mm"
   id="svg8726"
   version="1.1"
   inkscape:version="0.92.1 r15371"
   sodipodi:docname="XWingLogo.svg">
  <defs
     id="defs8728" />
  <sodipodi:namedview
     id="base"
     pagecolor="#ffffff"
     bordercolor="#666666"
     borderopacity="1.0"
     inkscape:pageopacity="0.0"
     inkscape:pageshadow="2"
     inkscape:zoom="2.8"
     inkscape:cx="468.68808"
     inkscape:cy="553.52855"
     inkscape:document-units="px"
     inkscape:current-layer="layer1"
     showgrid="false"
     inkscape:window-width="1680"
     inkscape:window-height="997"
     inkscape:window-x="1912"
     inkscape:window-y="-8"
     inkscape:window-maximized="1"
     fit-margin-top="5"
     fit-margin-left="5"
     fit-margin-right="5"
     fit-margin-bottom="5" />
  <metadata
     id="metadata8731">
    <rdf:RDF>
      <cc:Work
         rdf:about="">
        <dc:format>image/svg+xml</dc:format>
        <dc:type
           rdf:resource="http://purl.org/dc/dcmitype/StillImage" />
        <dc:title />
      </cc:Work>
    </rdf:RDF>
  </metadata>
  <g
     inkscape:label="Calque 1"
     inkscape:groupmode="layer"
     id="layer1"
     transform="translate(8.040482,-458.05614)">
    <g
       id="g10065">
      <path
         sodipodi:nodetypes="ccczcccccccccccccc"
         inkscape:connector-curvature="0"
         id="path8745"
         d="m 40.228152,603.78158 v 23.48605 h 63.134528 c 8.16616,-0.85446 13.26201,-6.74154 14.76977,-12.45917 1.50776,-5.71762 1.34741,-11.00141 -1.3865,-14.65565 L 102.7285,583.20188 c -0.58043,-0.81799 -0.0139,-1.86414 1.36023,-1.86414 h 27.81076 l -0.25253,45.80362 h 24.36993 v -45.83567 h 24.62246 V 559.58741 H 87.705322 c -14.397036,0.69356 -19.971763,16.15095 -14.567724,25.08432 l 13.7331,16.56338 c 1.108903,1.16024 1.327033,2.5108 -0.01747,2.49567 z"
         style="fill:#000000;fill-opacity:1;stroke:none;stroke-width:1px;stroke-linecap:butt;stroke-linejoin:miter;stroke-opacity:1" />
      <path
         sodipodi:nodetypes="ccccccccc"
         inkscape:connector-curvature="0"
         id="path9255"
         d="m 196.92806,627.14135 4.00483,-8.53432 h 23.17366 l 4.38469,8.34382 25.10494,0.17857 -21.45313,-67.62189 -37.91128,0.0446 -21.48106,67.56752 z"
         style="fill:#000000;fill-opacity:1;stroke:none;stroke-width:1px;stroke-linecap:butt;stroke-linejoin:miter;stroke-opacity:1" />
      <path
         style="fill:#ffffff;fill-opacity:1;stroke:none;stroke-width:0.99999994px;stroke-linecap:butt;stroke-linejoin:miter;stroke-opacity:1"
         d="m 194.13132,624.0592 4.61857,-9.67753 27.32342,-0.11861 5.10032,9.75567 17.85258,0.0296 -18.92949,-61.32468 -33.59776,-0.004 -19.7293,61.36419 z"
         id="path9309"
         inkscape:connector-curvature="0"
         sodipodi:nodetypes="ccccccccc" />
      <path
         style="fill:#000000;fill-opacity:1;stroke:none;stroke-width:1.06120837px;stroke-linecap:butt;stroke-linejoin:miter;stroke-opacity:1"
         d="m 201.71382,603.76749 21.47544,-0.075 -10.18727,-33.26642 z"
         id="path9307"
         inkscape:connector-curvature="0"
         sodipodi:nodetypes="cccc" />
      <path
         sodipodi:nodetypes="cccc"
         inkscape:connector-curvature="0"
         id="path9257"
         d="m 206.32296,599.99351 12.25576,-0.0446 -5.79544,-19.39995 z"
         style="fill:#ffffff;fill-opacity:1;stroke:none;stroke-width:1px;stroke-linecap:butt;stroke-linejoin:miter;stroke-opacity:1" />
      <path
         sodipodi:nodetypes="ccccccccczcc"
         inkscape:connector-curvature="0"
         id="path9259"
         d="m 258.19789,559.58741 -0.3125,67.50165 25.92345,0.0446 v -20.48491 l 15.89398,16.42945 c 4.03167,4.71496 7.58511,3.97821 11.21472,4.10976 l 38.99239,-0.0377 v -23.38911 l -38.19864,-0.0501 c 0,0 14.17987,-10.1723 14.17987,-21.47049 0,-11.29819 -11.919,-21.9603 -20.77073,-22.77967 z"
         style="fill:#000000;fill-opacity:1;stroke:none;stroke-width:1px;stroke-linecap:butt;stroke-linejoin:miter;stroke-opacity:1" />
      <path
         style="fill:#ffffff;fill-opacity:1;stroke:none;stroke-width:0.99999988px;stroke-linecap:butt;stroke-linejoin:miter;stroke-opacity:1"
         d="m 260.68407,562.38629 -0.11014,61.80613 19.65634,0.0412 0.12627,-21.82324 c -0.39669,-4.98738 0.98113,-3.54233 2.89969,-1.74934 l 18.47629,19.95338 c 2.21127,2.58523 4.48215,3.36929 7.83538,3.49078 l 37.53851,0.14367 0.0523,-17.32342 -37.61512,-0.0678 c -2.7826,0.0342 -3.35168,-2.80809 0.534,-6.01609 4.91667,-3.45809 12.06106,-10.34244 12.06106,-19.71088 0,-9.36843 -10.5605,-18.10444 -18.1132,-18.68261 z"
         id="path9311"
         inkscape:connector-curvature="0"
         sodipodi:nodetypes="ccccccccccczcc" />
      <path
         style="fill:#000000;fill-opacity:1;stroke:none;stroke-width:1px;stroke-linecap:butt;stroke-linejoin:miter;stroke-opacity:1"
         d="m 280.0131,576.45611 v 16.23712 h 18.94946 c 7.81595,-2.11598 6.72847,-14.31171 -0.22474,-16.19413 z"
         id="path9313"
         inkscape:connector-curvature="0"
         sodipodi:nodetypes="ccccc" />
      <path
         sodipodi:nodetypes="ccccc"
         inkscape:connector-curvature="0"
         id="path9261"
         d="m 283.67491,579.38998 v 10.36939 h 13.61015 c 5.14495,-1.37858 4.4291,-9.11497 -0.14794,-10.34138 z"
         style="fill:#ffffff;fill-opacity:1;stroke:none;stroke-width:1px;stroke-linecap:butt;stroke-linejoin:miter;stroke-opacity:1" />
      <path
         sodipodi:nodetypes="cccccccccccccc"
         inkscape:connector-curvature="0"
         id="path9263"
         d="m 369.85355,559.46113 19.94874,67.72604 23.48782,0.0173 7.95496,-24.18052 7.89181,24.24366 h 22.72843 l 22.20587,-67.7215 -23.9105,0.0413 -7.38674,21.71829 -6.37659,-21.78142 -25.19068,0.0631 -7.57614,23.73858 -7.63929,-23.80172 z"
         style="fill:#000000;fill-opacity:1;stroke:none;stroke-width:1px;stroke-linecap:butt;stroke-linejoin:miter;stroke-opacity:1" />
      <path
         style="fill:#000000;fill-opacity:1;stroke:none;stroke-width:1px;stroke-linecap:butt;stroke-linejoin:miter;stroke-opacity:1"
         d="m 486.57084,627.14135 4.00483,-8.53432 h 23.17366 l 4.38469,8.34382 25.10494,0.17857 -21.45313,-67.62189 -37.91128,0.0446 -21.48106,67.56752 z"
         id="path9295"
         inkscape:connector-curvature="0"
         sodipodi:nodetypes="ccccccccc" />
      <path
         style="fill:#000000;fill-opacity:1;stroke:none;stroke-width:1px;stroke-linecap:butt;stroke-linejoin:miter;stroke-opacity:1"
         d="m 654.07696,627.26763 c 8.16616,-0.85446 13.26201,-6.74154 14.76977,-12.45917 1.50776,-5.71762 0.67777,-10.42105 -2.05614,-14.07529 l -13.34781,-17.53129 c -0.58043,-0.81799 -0.0139,-1.86414 1.36023,-1.86414 h 26.00644 l -0.0446,-21.75033 h -42.34521 c -14.39704,0.69356 -19.97176,16.15095 -14.56773,25.08432 l 13.73311,16.56338 c 1.1089,1.16024 1.32703,2.54237 -0.0175,2.52724 l -35.68261,0.0276 c 0,0 13.82268,-8.16616 13.98188,-21.02313 0.0373,-3.01364 -0.6759,-6.54447 -1.87628,-9.09679 -3.60819,-7.67192 -12.14498,-13.59847 -18.87008,-14.20915 l -46.92254,0.12652 -0.3125,67.50165 25.92345,0.0446 v -20.48491 l 15.89398,16.42945 c 4.03167,4.71496 7.58511,3.97821 11.21472,4.10976 z"
         id="path9303"
         inkscape:connector-curvature="0"
         sodipodi:nodetypes="czccccccccccsscccccccc" />
      <path
         sodipodi:nodetypes="ccccccczccccccccczccccc"
         inkscape:connector-curvature="0"
         id="path3717"
         d="m 677.7384,562.43254 -39.05233,0.0567 c -12.32671,-0.0207 -16.52591,15.12416 -12.15701,20.44146 l 13.7331,16.51874 c 3.20712,3.83881 2.7556,7.01973 -0.95497,7.36174 l -39.05063,-0.19847 c -2.7826,0.0342 -3.21775,-2.47392 0.66793,-5.68192 4.91667,-3.45809 11.97177,-10.43173 11.97177,-19.80017 0,-9.36843 -11.45336,-17.92587 -19.63106,-18.68261 l -42.40256,-0.0617 -0.11014,61.80613 19.47777,0.0412 0.12627,-21.82324 c 0.10839,-4.98738 1.35994,-3.6686 3.2785,-1.87561 l 18.47629,19.95338 c 2.21127,2.58523 4.41584,3.58484 7.76907,3.70633 l 54.2845,0.0374 c 7.74732,-2.11096 10.02879,-6.1642 11.40755,-10.58417 1.37876,-4.41997 0.56744,-9.69823 -2.19007,-12.64671 L 651.34322,585.6126 c -3.09409,-3.88086 -1.74893,-7.40914 4.94567,-7.11931 l 21.43571,3e-5 z"
         style="fill:#ffffff;fill-opacity:1;stroke:none;stroke-width:1px;stroke-linecap:butt;stroke-linejoin:miter;stroke-opacity:1" />
      <path
         style="fill:#ffffff;fill-opacity:1;stroke:none;stroke-width:1px;stroke-linecap:butt;stroke-linejoin:miter;stroke-opacity:1"
         d="m 43.754938,606.90658 0.04464,16.70034 59.563102,0.13392 c 7.74732,-2.11096 9.68565,-3.84277 11.64477,-10.27167 1.95912,-6.4289 0.87994,-9.51966 -1.87757,-12.46814 l -12.99067,-15.83486 c -3.094087,-3.88086 -3.057577,-7.86826 3.63702,-7.57843 l 31.9179,4e-5 -0.074,46.11613 h 17.40565 l -0.35715,-45.61246 h 25.24746 v -15.11113 l -89.987597,0.13393 c -12.326706,-0.0207 -16.525913,14.49916 -12.157009,19.81646 l 13.7331,16.51874 c 3.207117,3.83881 2.755604,7.06437 -0.95497,7.40638 z"
         id="path3707"
         inkscape:connector-curvature="0"
         sodipodi:nodetypes="ccczcccccccccccccc" />
      <path
         sodipodi:nodetypes="ccccccccc"
         inkscape:connector-curvature="0"
         id="path3711"
         d="m 483.8788,624.0592 4.61857,-9.67753 27.7239,-0.11861 5.60539,9.75567 16.94703,0.0296 -18.92949,-61.32468 -33.59776,-0.004 -19.7293,61.36419 z"
         style="fill:#ffffff;fill-opacity:1;stroke:none;stroke-width:0.99999994px;stroke-linecap:butt;stroke-linejoin:miter;stroke-opacity:1" />
      <path
         sodipodi:nodetypes="cccccccccccccc"
         inkscape:connector-curvature="0"
         id="path3719"
         d="m 374.29159,562.52679 18.21428,60.89286 h 17.67857 l 11.07143,-31.60714 10.89286,31.60714 h 17.32143 l 20.08929,-60.89286 h -16.42858 l -10.71428,28.83928 -9.10715,-28.83928 h -19.64285 l -10.17857,29.82143 -10.89286,-29.82143 z"
         style="fill:#ffffff;fill-opacity:1;stroke:none;stroke-width:1px;stroke-linecap:butt;stroke-linejoin:miter;stroke-opacity:1" />
      <path
         sodipodi:nodetypes="ccccc"
         inkscape:connector-curvature="0"
         id="path3715"
         d="m 570.0131,576.45611 v 16.23712 h 18.94946 c 7.81595,-2.11598 6.72847,-14.31171 -0.22474,-16.19413 z"
         style="fill:#000000;fill-opacity:1;stroke:none;stroke-width:1px;stroke-linecap:butt;stroke-linejoin:miter;stroke-opacity:1" />
      <path
         style="fill:#ffffff;fill-opacity:1;stroke:none;stroke-width:1px;stroke-linecap:butt;stroke-linejoin:miter;stroke-opacity:1"
         d="m 573.67491,579.66419 v 9.94724 h 12.9788 c 5.14495,-1.37858 4.4291,-8.69282 -0.14794,-9.91923 z"
         id="path9301"
         inkscape:connector-curvature="0"
         sodipodi:nodetypes="ccccc" />
      <path
         sodipodi:nodetypes="cccc"
         inkscape:connector-curvature="0"
         id="path3709"
         d="m 491.4613,603.76749 21.47544,-0.075 -10.18727,-33.26642 z"
         style="fill:#000000;fill-opacity:1;stroke:none;stroke-width:1.06120837px;stroke-linecap:butt;stroke-linejoin:miter;stroke-opacity:1" />
      <path
         style="fill:#ffffff;fill-opacity:1;stroke:none;stroke-width:1px;stroke-linecap:butt;stroke-linejoin:miter;stroke-opacity:1"
         d="m 496.11368,599.99351 11.95988,-0.0446 -5.6475,-19.25201 z"
         id="path9297"
         inkscape:connector-curvature="0"
         sodipodi:nodetypes="cccc" />
    </g>
    <g
       id="g10034">
      <path
         sodipodi:nodetypes="cccccccccccccccccccccccccccsccccccccccccccccccccccc"
         inkscape:connector-curvature="0"
         id="path9273"
         d="m 37.450233,659.52938 58.336309,79.3601 -59.093923,81.31728 h 82.327431 l 23.08392,-34.93541 22.18467,34.9414 84.85169,-0.006 -42.42642,-56.12659 50.69704,0.12627 v -20.26619 l 17.67767,59.09392 h 49.91701 l 2.77792,-14 2.77792,14 h 50.59316 l 15.15229,-59.599 v 59.585 l 104.04571,0.0446 v -17.20323 l 14.87043,17.15859 h 49.80735 l -0.44643,-29.7855 c 11.63453,18.56141 27.72,28.26295 54.59069,29.78886 h 61.56285 v -71.81491 l -53.13628,-0.0458 -0.10656,17.40449 c -8.09792,-0.12072 -13.78608,0.8942 -13.71823,-9.4811 0.0494,-7.55813 2.75152,-9.60546 13.36426,-9.7526 l 53.59681,0.0893 v -51.17321 l -70.6494,0.0893 c -17.4796,-0.042 -37.54943,13.79615 -45.71642,26.76349 V 678.2803 h -56.41939 l -0.0447,15.53571 -12.90178,-15.53571 H 356.07726 l -2.54465,16.5625 -4.50893,-16.5625 h -46.47321 l -4.28571,18.16964 -5.49108,-18.16964 h -56.07091 l 10.14685,37.86858 H 205.3249 l 41.22686,-56.61954 h -82.4537 l -21.78142,33.0825 -22.28649,-33.08249 z"
         style="fill:none;stroke:#000000;stroke-width:1px;stroke-linecap:butt;stroke-linejoin:miter;stroke-opacity:1" />
      <path
         sodipodi:nodetypes="ccccccccccccc"
         inkscape:connector-curvature="0"
         id="path9275"
         d="m 61.837022,672.90569 48.436448,-0.0531 30.35721,46.12429 29.82169,-46.19584 49.81227,-0.0539 -50.53827,68.38925 50.09184,67.23116 H 171.16659 L 140.72016,763.0797 110.80945,808.34755 H 61.390593 l 49.550867,-67.49639 z"
         style="fill:#000000;fill-opacity:1;stroke:none;stroke-width:1px;stroke-linecap:butt;stroke-linejoin:miter;stroke-opacity:1" />
      <path
         sodipodi:nodetypes="ccccc"
         inkscape:connector-curvature="0"
         id="path9277"
         d="m 206.3351,730.80826 0.0631,21.40261 36.5549,-0.0631 0.12627,-21.27633 z"
         style="fill:#000000;fill-opacity:1;stroke:none;stroke-width:1px;stroke-linecap:butt;stroke-linejoin:miter;stroke-opacity:1" />
      <path
         sodipodi:nodetypes="cccccccccccccc"
         inkscape:connector-curvature="0"
         id="path9279"
         d="m 252.74797,691.9813 30.3903,98.23656 30.08189,-0.007 11.27313,-45.00208 15.42334,44.99573 29.82783,-0.007 24.27919,-98.58918 -28.66079,0.0756 -11.43177,47.71993 -15.62208,-47.64863 -27.67885,0.073 -13.46786,46.24834 -15.55003,-46.17181 z"
         style="fill:#000000;fill-opacity:1;stroke:none;stroke-width:1px;stroke-linecap:butt;stroke-linejoin:miter;stroke-opacity:1" />
      <path
         sodipodi:nodetypes="ccccc"
         inkscape:connector-curvature="0"
         id="path9281"
         d="m 407.6278,691.53487 -0.0893,98.21413 28.89876,0.0893 v -98.36207 z"
         style="fill:#000000;fill-opacity:1;stroke:none;stroke-width:1px;stroke-linecap:butt;stroke-linejoin:miter;stroke-opacity:1" />
      <path
         sodipodi:nodetypes="ccccccccccc"
         inkscape:connector-curvature="0"
         id="path9283"
         d="m 456.411,789.89694 -0.0893,-98.45399 h 29.1306 l 35.35714,41.98215 0.0893,-41.98215 h 28.14255 l 0.17858,98.51525 -28.76754,-0.019 -35.89302,-44.68046 -0.17851,44.65665 z"
         style="fill:#000000;fill-opacity:1;stroke:none;stroke-width:1px;stroke-linecap:butt;stroke-linejoin:miter;stroke-opacity:1" />
      <path
         sodipodi:nodetypes="cccscccccczczczcc"
         inkscape:connector-curvature="0"
         id="path9285"
         d="m 666.19097,691.68017 v 25.99611 l -48.10852,0.63135 c -14.50676,0.22579 -19.7236,11.0812 -20.0119,23.73855 -0.25356,11.13205 8.3089,21.79581 20.16009,21.99625 l 20.2017,0.16984 -0.0206,-21.91352 h 27.7792 v 47.30231 l -56.09673,-0.0893 c -13.29197,-0.004 -26.99796,-12.53697 -30.90195,-16.42506 -3.90399,-3.8881 -11.26364,-13.40313 -12.38821,-24.2754 0,0 -0.84101,-5.7208 -0.8218,-8.78473 0.0192,-3.06394 0.94807,-9.59713 0.94807,-9.59713 1.21964,-9.05402 8.01425,-19.75807 14.10387,-25.4998 6.08962,-5.74174 19.6084,-12.64794 29.51433,-13.10418 z"
         style="fill:#000000;fill-opacity:1;stroke:none;stroke-width:1px;stroke-linecap:butt;stroke-linejoin:miter;stroke-opacity:1" />
      <path
         sodipodi:nodetypes="cccccccccccccccccccccsssccccccccsscccccccccccccccccccc"
         inkscape:connector-curvature="0"
         id="path9888"
         d="m 98.294993,738.82239 -57.677228,79.38393 h 77.326165 c 8.0645,-12.2044 16.12865,-24.40903 24.19336,-36.61328 7.74964,12.2062 15.49865,24.41279 23.24805,36.61914 l 79.73828,-0.006 c -14.14612,-18.71202 -28.28989,-37.42582 -42.4375,-56.13672 17.57487,0.0431 35.14974,0.0873 52.72461,0.13086 l 0.24496,-31.01475 20.92106,69.84869 h 46.78906 l 4.49394,-20.80448 4.342,20.80452 h 47.39843 l 18.63046,-72.44044 0.0766,72.42708 c 33.34831,0.015 66.69662,0.0299 100.04493,0.0449 v -20.5664 c 5.92963,6.83941 11.8567,13.68104 17.78515,20.52148 h 46.86133 c -0.17247,-11.58463 -0.34641,-23.16925 -0.51758,-34.7539 4.42627,8.14691 10.82587,16.62561 18.08923,22.36266 6.10509,4.82217 12.85729,7.72384 19.98834,9.86557 4.60173,1.38208 10.88539,2.51028 19.61414,2.93286 0,0 41.18392,-0.41297 58.56415,-0.26238 v -67.95926 c -16.38216,-0.0137 -32.76432,-0.0273 -49.14648,-0.041 -0.0356,5.80469 -0.073,11.60937 -0.10742,17.41407 -5.83815,-0.0628 -15.12949,1.22689 -17.09375,-6.26172 -1.77805,-6.09013 -0.52729,-15.30388 7.14843,-16.28516 9.01785,-0.87914 59.16454,-0.64952 59.16454,-0.64952 l 0.0347,-47.13204 -67.93401,-0.1861 c -4.1587,-0.0114 -9.97391,0.48672 -18.19825,4.11021 -7.39373,3.25754 -21.4345,11.94743 -30.23297,27.613 V 680.2804 h -52.42583 c -0.0183,6.35156 -0.0368,12.70312 -0.0547,19.05468 -5.27528,-6.35111 -10.54947,-12.70313 -15.82422,-19.05468 H 357.79353 l -3.86387,22.97725 -6.43496,-22.97725 h -43.35937 c -1.87759,7.95703 -3.7551,15.91408 -5.63281,23.87109 -2.40437,-7.95701 -4.80861,-15.91406 -7.21289,-23.87109 h -51.98047 c 3.38193,12.62311 6.76574,25.24571 10.14648,37.86914 H 201.3951 c 13.73998,-18.87483 27.48331,-37.74722 41.2246,-56.6211 h -77.44531 c -7.6125,11.56389 -15.22606,23.12708 -22.83789,34.69141 -7.79051,-11.5637 -15.5807,-23.12762 -23.37109,-34.69141 H 41.400958 Z"
         style="fill:none;stroke:#000000;stroke-width:1px;stroke-linecap:butt;stroke-linejoin:miter;stroke-opacity:1" />
      <path
         sodipodi:nodetypes="ccccccccccccc"
         inkscape:connector-curvature="0"
         id="path9894"
         d="m 169.3619,670.7825 -28.74609,44.5332 -29.26367,-44.46484 -53.425781,0.0586 50.541011,69.9336 -51.025386,69.5039 h 54.443356 l 28.84766,-43.66015 29.36914,43.66015 h 53.70117 C 206.60845,787.26899 189.41402,764.19069 172.21932,741.11259 189.55714,717.64964 224.233,670.72392 224.233,670.72392 Z"
         style="fill:none;fill-opacity:1;stroke:#000000;stroke-width:1px;stroke-linecap:butt;stroke-linejoin:miter;stroke-opacity:1" />
      <path
         sodipodi:nodetypes="ccccc"
         inkscape:connector-curvature="0"
         id="path9900"
         d="m 204.40486,754.21413 40.53711,-0.0703 0.14844,-25.26758 -40.76172,-0.0723 z"
         style="fill:none;fill-opacity:1;stroke:#000000;stroke-width:1px;stroke-linecap:butt;stroke-linejoin:miter;stroke-opacity:1" />
      <path
         inkscape:connector-curvature="0"
         id="path9904"
         d="m 394.01815,689.60866 c -10.07812,0.0266 -20.15625,0.0539 -30.23437,0.0801 -3.38629,14.12659 -6.76928,28.25397 -10.1543,42.38086 -4.6245,-14.10607 -9.24786,-28.21252 -13.87305,-42.31836 -10.20963,0.0269 -20.41927,0.0534 -30.6289,0.0801 -4.03342,13.85709 -8.0692,27.71349 -12.10352,41.57031 -4.65859,-13.83342 -9.31922,-27.66616 -13.97656,-41.5 -11.00325,0.0297 -22.00651,0.0573 -33.00977,0.0879 10.54483,34.0754 21.0844,68.15242 31.62696,102.22852 11.03841,-0.002 22.07682,-0.006 33.11523,-0.008 3.33664,-13.32111 6.67458,-26.6419 10.01172,-39.96289 4.56623,13.31885 9.12868,26.639 13.69727,39.95704 10.94075,-0.002 21.88151,-0.006 32.82226,-0.008 8.42356,-34.19766 16.84222,-68.39653 25.26758,-102.59375 -0.85352,0.002 -1.70703,0.004 -2.56055,0.006 z"
         style="fill:none;fill-opacity:1;stroke:#000000;stroke-width:1px;stroke-linecap:butt;stroke-linejoin:miter;stroke-opacity:1" />
      <path
         inkscape:connector-curvature="0"
         id="path9908"
         d="m 436.43417,689.47585 c -10.26823,0.0208 -20.53646,0.042 -30.80469,0.0625 -0.0316,34.06836 -0.0622,68.13672 -0.0937,102.20508 10.96745,0.0331 21.93489,0.0686 32.90234,0.10156 0,-34.12435 0,-68.2487 0,-102.37305 -0.66796,10e-4 -1.33593,0.003 -2.0039,0.004 z"
         style="fill:none;fill-opacity:1;stroke:#000000;stroke-width:1px;stroke-linecap:butt;stroke-linejoin:miter;stroke-opacity:1" />
      <path
         inkscape:connector-curvature="0"
         id="path9912"
         d="m 454.32089,691.4446 c 0.0306,33.48372 0.0609,66.96745 0.0918,100.45117 10.65365,0.009 21.3073,0.0127 31.96094,0.0215 0.0539,-13.66797 0.1081,-27.33594 0.16211,-41.00391 10.9854,13.67535 21.973,27.34894 32.95703,41.02539 10.57683,0.006 21.15365,0.0134 31.73047,0.0215 -0.0625,-34.17252 -0.12299,-68.34505 -0.18555,-102.51757 -10.71158,0 -21.42317,0 -32.13476,0 -0.0266,12.83919 -0.0548,25.67838 -0.082,38.51757 -10.81333,-12.83904 -21.62527,-25.67925 -32.43946,-38.51757 -10.6875,0 -21.375,0 -32.0625,0 6.5e-4,0.66731 0.001,1.33463 0.002,2.00195 z"
         style="fill:none;fill-opacity:1;stroke:#000000;stroke-width:1px;stroke-linecap:butt;stroke-linejoin:miter;stroke-opacity:1" />
      <path
         inkscape:connector-curvature="0"
         id="path9916"
         d="m 666.18417,689.68093 c -19.94567,0.43027 -39.99303,-0.61953 -59.88281,0.64062 -16.05793,3.26314 -31.07024,13.42457 -37.78907,28.72266 -8.09483,17.68305 -5.36908,40.50472 8.47266,54.63867 10.41354,10.64615 24.52375,19.84463 40.10546,17.83934 17.0332,0.0277 34.06641,0.0536 51.09962,0.0825 0,-17.10222 0,-34.20443 0,-51.30664 -10.5931,0 -21.1862,0 -31.7793,0 0.007,7.29882 0.013,14.59765 0.0195,21.89648 -10.69889,-0.84581 -24.3095,3.03598 -31.90625,-7.07422 -7.15967,-9.29302 -5.66486,-25.34399 4.05274,-32.34375 9.34654,-4.88022 20.50822,-1.52948 30.55678,-2.74427 9.6855,-0.12672 19.37099,-0.25487 29.0565,-0.38073 0,-9.99219 0,-19.98437 0,-29.97656 -0.66862,0.002 -1.33724,0.004 -2.00586,0.006 z"
         style="fill:none;fill-opacity:1;stroke:#000000;stroke-width:1px;stroke-linecap:butt;stroke-linejoin:miter;stroke-opacity:1" />
    </g>
    <g
       id="g10043">
      <path
         style="fill:#000000;fill-opacity:1;stroke:none;stroke-width:1px;stroke-linecap:butt;stroke-linejoin:miter;stroke-opacity:1"
         d="m 456.411,969.89694 -0.0893,-98.45399 h 29.1306 l 35.35714,41.98215 0.0893,-41.98215 h 28.14255 l 0.17858,98.51525 -28.76754,-0.019 -35.89302,-44.68046 -0.17851,44.65665 z"
         id="path9922"
         inkscape:connector-curvature="0"
         sodipodi:nodetypes="ccccccccccc" />
      <path
         style="fill:#000000;fill-opacity:1;stroke:none;stroke-width:1px;stroke-linecap:butt;stroke-linejoin:miter;stroke-opacity:1"
         d="m 61.837022,852.90569 48.436448,-0.0531 30.35721,46.12429 29.82169,-46.19584 49.81227,-0.0539 -50.53827,68.38925 50.09184,67.23116 H 171.16659 L 140.72016,943.0797 110.80945,988.34755 H 61.390593 l 49.550867,-67.49639 z"
         id="path9924"
         inkscape:connector-curvature="0"
         sodipodi:nodetypes="ccccccccccccc" />
      <path
         style="fill:#000000;fill-opacity:1;stroke:none;stroke-width:1px;stroke-linecap:butt;stroke-linejoin:miter;stroke-opacity:1"
         d="m 206.3351,910.80826 0.0631,21.40261 36.5549,-0.0631 0.12627,-21.27633 z"
         id="path9926"
         inkscape:connector-curvature="0"
         sodipodi:nodetypes="ccccc" />
      <path
         style="fill:#000000;fill-opacity:1;stroke:none;stroke-width:1px;stroke-linecap:butt;stroke-linejoin:miter;stroke-opacity:1"
         d="m 252.74797,871.9813 30.3903,98.23656 30.08189,-0.007 11.27313,-45.00208 15.42334,44.99573 29.82783,-0.007 24.27919,-98.58918 -28.66079,0.0756 -11.43177,47.71993 -15.62208,-47.64863 -27.67885,0.073 -13.46786,46.24834 -15.55003,-46.17181 z"
         id="path9928"
         inkscape:connector-curvature="0"
         sodipodi:nodetypes="cccccccccccccc" />
      <path
         style="fill:#000000;fill-opacity:1;stroke:none;stroke-width:1px;stroke-linecap:butt;stroke-linejoin:miter;stroke-opacity:1"
         d="m 407.6278,871.53487 -0.0893,98.21413 28.89876,0.0893 v -98.36207 z"
         id="path9930"
         inkscape:connector-curvature="0"
         sodipodi:nodetypes="ccccc" />
      <path
         style="fill:#000000;fill-opacity:1;stroke:none;stroke-width:1px;stroke-linecap:butt;stroke-linejoin:miter;stroke-opacity:1"
         d="m 666.19097,871.68017 v 25.99611 l -48.10852,0.63135 c -14.50676,0.22579 -19.7236,11.0812 -20.0119,23.73855 -0.25356,11.13205 8.3089,21.79581 20.16009,21.99625 l 20.2017,0.16984 -0.0206,-21.91352 h 27.7792 v 47.30231 l -56.09673,-0.0893 c -13.29197,-0.004 -26.99796,-12.53697 -30.90195,-16.42506 -3.90399,-3.8881 -11.26364,-13.40313 -12.38821,-24.2754 0,0 -0.84101,-5.7208 -0.8218,-8.78473 0.0192,-3.06394 0.94807,-9.59713 0.94807,-9.59713 1.21964,-9.05402 8.01425,-19.75807 14.10387,-25.4998 6.08962,-5.74174 19.6084,-12.64794 29.51433,-13.10418 z"
         id="path9932"
         inkscape:connector-curvature="0"
         sodipodi:nodetypes="cccscccccczczczcc" />
      <path
         style="fill:none;stroke:#000000;stroke-width:1px;stroke-linecap:butt;stroke-linejoin:miter;stroke-opacity:1"
         d="m 98.294993,918.82239 -57.677228,79.38393 h 77.326165 c 8.0645,-12.2044 16.12865,-24.40903 24.19336,-36.61328 7.74964,12.2062 15.49865,24.41279 23.24805,36.61914 l 79.73828,-0.006 c -14.14612,-18.71202 -28.28989,-37.42582 -42.4375,-56.13672 17.57487,0.0431 35.14974,0.0873 52.72461,0.13086 l 0.24496,-31.01475 20.92106,69.84869 h 46.78906 l 4.49394,-20.80448 4.342,20.80452 h 47.39843 l 18.63046,-72.44044 0.0766,72.42708 c 33.34831,0.015 66.69662,0.0299 100.04493,0.0449 v -20.5664 c 5.92963,6.83941 11.8567,13.68104 17.78515,20.52148 h 46.86133 c -0.17247,-11.58463 -0.34641,-23.16925 -0.51758,-34.7539 4.42627,8.14691 10.82587,16.62561 18.08923,22.36266 6.10509,4.82217 12.85729,7.72384 19.98834,9.86557 4.60173,1.38208 10.88539,2.51028 19.61414,2.93286 0,0 41.18392,-0.41297 58.56415,-0.26238 v -67.95926 c -16.38216,-0.0137 -32.76432,-0.0273 -49.14648,-0.041 -0.0356,5.80469 -0.073,11.60937 -0.10742,17.41407 -5.83815,-0.0628 -15.12949,1.22689 -17.09375,-6.26172 -1.77805,-6.09013 -0.52729,-15.30388 7.14843,-16.28516 9.01785,-0.87914 59.16454,-0.64952 59.16454,-0.64952 l 0.0347,-47.13204 -67.93401,-0.1861 c -4.1587,-0.0114 -9.97391,0.48672 -18.19825,4.11021 -7.39373,3.25754 -21.4345,11.94743 -30.23297,27.613 V 860.2804 h -52.42583 c -0.0183,6.35156 -0.0368,12.70312 -0.0547,19.05468 -5.27528,-6.35111 -10.54947,-12.70313 -15.82422,-19.05468 H 357.79353 l -3.86387,22.97725 -6.43496,-22.97725 h -43.35937 c -1.87759,7.95703 -3.7551,15.91408 -5.63281,23.87109 -2.40437,-7.95701 -4.80861,-15.91406 -7.21289,-23.87109 h -51.98047 c 3.38193,12.62311 6.76574,25.24571 10.14648,37.86914 H 201.3951 c 13.73998,-18.87483 27.48331,-37.74722 41.2246,-56.6211 h -77.44531 c -7.6125,11.56389 -15.22606,23.12708 -22.83789,34.69141 -7.79051,-11.5637 -15.5807,-23.12762 -23.37109,-34.69141 H 41.400958 Z"
         id="path9934"
         inkscape:connector-curvature="0"
         sodipodi:nodetypes="cccccccccccccccccccccsssccccccccsscccccccccccccccccccc" />
    </g>
  </g>
</svg>
