<?xml version="1.0" encoding="UTF-8" standalone="no"?>
<!-- Created with Inkscape (http://www.inkscape.org/) -->

<svg
   xmlns:dc="http://purl.org/dc/elements/1.1/"
   xmlns:cc="http://creativecommons.org/ns#"
   xmlns:rdf="http://www.w3.org/1999/02/22-rdf-syntax-ns#"
   xmlns:svg="http://www.w3.org/2000/svg"
   xmlns="http://www.w3.org/2000/svg"
   xmlns:sodipodi="http://sodipodi.sourceforge.net/DTD/sodipodi-0.dtd"
   xmlns:inkscape="http://www.inkscape.org/namespaces/inkscape"
   width="210mm"
   height="297mm"
   id="svg5427"
   version="1.1"
   inkscape:version="0.92.1 r15371"
   sodipodi:docname="Winnie.svg">
  <defs
     id="defs5429">
    <clipPath
       clipPathUnits="userSpaceOnUse"
       id="clipPath6231">
      <rect
         style="opacity:0.98999999;fill:none;stroke:#ff0000;stroke-width:1.78100002;stroke-linecap:square;stroke-linejoin:miter;stroke-miterlimit:4;stroke-opacity:0.43891404;stroke-dasharray:none;stroke-dashoffset:17.01120644"
         id="rect6233"
         width="85"
         height="104.64286"
         x="111.07143"
         y="497.89789" />
    </clipPath>
  </defs>
  <sodipodi:namedview
     id="base"
     pagecolor="#ffffff"
     bordercolor="#666666"
     borderopacity="1.0"
     inkscape:pageopacity="0.0"
     inkscape:pageshadow="2"
     inkscape:zoom="3.959798"
     inkscape:cx="242.53223"
     inkscape:cy="588.96889"
     inkscape:document-units="px"
     inkscape:current-layer="g6583"
     showgrid="false"
     inkscape:window-width="1920"
     inkscape:window-height="1016"
     inkscape:window-x="0"
     inkscape:window-y="27"
     inkscape:window-maximized="1" />
  <metadata
     id="metadata5432">
    <rdf:RDF>
      <cc:Work
         rdf:about="">
        <dc:format>image/svg+xml</dc:format>
        <dc:type
           rdf:resource="http://purl.org/dc/dcmitype/StillImage" />
        <dc:title />
      </cc:Work>
    </rdf:RDF>
  </metadata>
  <g
     inkscape:label="Calque 1"
     inkscape:groupmode="layer"
     id="layer1">
    <text
       xml:space="preserve"
       style="font-style:normal;font-variant:normal;font-weight:bold;font-stretch:normal;line-height:0%;font-family:Verdana;-inkscape-font-specification:'Verdana Bold';text-align:start;letter-spacing:0px;word-spacing:0px;writing-mode:lr-tb;text-anchor:start;fill:#000000;fill-opacity:1;stroke:none"
       x="168.30971"
       y="511.55176"
       id="text6297"><tspan
         sodipodi:role="line"
         id="tspan6299"
         x="168.30971"
         y="511.55176"
         style="color:#000000;font-style:normal;font-variant:normal;font-weight:normal;font-stretch:normal;font-size:medium;line-height:125%;font-family:'Vladimir Script';-inkscape-font-specification:'Vladimir Script';text-indent:0;text-align:start;text-decoration:none;text-decoration-line:none;letter-spacing:0;word-spacing:0;text-transform:none;writing-mode:lr-tb;direction:ltr;baseline-shift:baseline;text-anchor:start;display:inline;overflow:visible;visibility:visible;fill:none;stroke:#000000;stroke-width:0.35433072;stroke-linecap:butt;stroke-linejoin:miter;stroke-miterlimit:4;stroke-dasharray:none;stroke-dashoffset:0;stroke-opacity:1;marker:none;enable-background:accumulate"> </tspan></text>
    <text
       xml:space="preserve"
       style="font-style:normal;font-variant:normal;font-weight:normal;font-stretch:normal;line-height:0%;font-family:'Vladimir Script';-inkscape-font-specification:'Vladimir Script';text-align:start;letter-spacing:0px;word-spacing:0px;writing-mode:lr-tb;text-anchor:start;fill:#000000;fill-opacity:1;stroke:none"
       x="192.87807"
       y="521.52704"
       id="text6301"><tspan
         sodipodi:role="line"
         id="tspan6303"
         x="192.87807"
         y="521.52704"
         style="font-size:12px;line-height:1.25;fill:none;stroke:#000000;stroke-width:0.35433072;stroke-miterlimit:4;stroke-dasharray:none;stroke-opacity:1"> </tspan></text>
    <g
       id="g6583"
       transform="translate(2.1768929,-0.44642226)">
      <g
         id="g6559">
        <path
           style="fill:none;stroke:#000000;stroke-width:0.70866144;stroke-linecap:butt;stroke-linejoin:miter;stroke-miterlimit:4;stroke-opacity:1;stroke-dasharray:none"
           d="m 142.5,565.04075 c -1.6279,3.84432 -0.39286,6.32579 0.89286,9.28572 0.76036,1.75047 1.55618,4.2295 0.35714,5.71428 -2.32304,2.87663 -1.48015,5.21079 1.78572,6.96428 4.12065,2.21243 5.81669,0.84185 5.66963,-1.60713 -0.10609,-1.76659 -2.99106,-3.75 -2.99106,-3.75 0,0 1.35704,-3.40367 1.78571,-5.17858 0.49406,-2.04567 0.44689,-4.06204 -0.17856,-6.07143 -0.62596,-2.011 -3.57144,-5.22321 -3.57144,-5.22321"
           id="path6235"
           inkscape:connector-curvature="0"
           sodipodi:nodetypes="csssscssc" />
        <path
           style="fill:none;stroke:#000000;stroke-width:0.70866144;stroke-linecap:butt;stroke-linejoin:miter;stroke-miterlimit:4;stroke-opacity:1;stroke-dasharray:none"
           d="m 162.64475,545.03244 c 0,0 2.1056,11.93722 0.7481,17.50831 -1.16511,4.78153 -3.09206,8.63364 -7.14285,11.42857 -1.60339,1.10629 -4.0571,1.51876 -5.91359,1.34378"
           id="path6237"
           inkscape:connector-curvature="0"
           sodipodi:nodetypes="cssc" />
        <path
           style="fill:none;stroke:#000000;stroke-width:0.70866144;stroke-linecap:butt;stroke-linejoin:miter;stroke-miterlimit:4;stroke-opacity:1;stroke-dasharray:none"
           d="m 142.76786,572.9926 c 0,0 -3.71358,-4.12475 -4.59821,-6.88042 -1.1861,-3.69476 -0.71163,-7.41277 -0.13394,-11.25 0.28162,-1.87061 1.65178,-5.89285 1.65178,-5.89285"
           id="path6239"
           inkscape:connector-curvature="0"
           sodipodi:nodetypes="cssc" />
        <path
           style="fill:none;stroke:#000000;stroke-width:0.70866144;stroke-linecap:butt;stroke-linejoin:miter;stroke-miterlimit:4;stroke-opacity:1;stroke-dasharray:none"
           d="m 157.00893,573.38896 c 4.63168,3.75246 2.41677,3.67422 3.70536,6.38393 0.54228,1.14032 2.85526,1.11157 3.92857,0.44644 2.70383,-1.67558 4.87093,-2.17077 4.64285,-4.64286 -0.19995,-2.16719 -2.57916,-2.08274 -5.08928,-1.875 0.15643,-2.6188 -0.36266,-4.10357 -1.60714,-6.33928"
           id="path6241"
           inkscape:connector-curvature="0"
           sodipodi:nodetypes="cssscc" />
        <path
           style="fill:none;stroke:#000000;stroke-width:0.70866144;stroke-linecap:butt;stroke-linejoin:miter;stroke-miterlimit:4;stroke-opacity:1;stroke-dasharray:none"
           d="m 143.75,543.61218 c 2.30872,-2.16146 6.85821,-7.47345 9.82143,-6.25 1.62212,0.75843 2.51061,3.29471 1.96428,5 -0.4332,1.35216 -1.50398,0.70222 -3.57142,2.32143 -2.06744,1.61921 -5.53466,7.23078 -9.15047,7.09953 -4.62095,-0.16775 -3.71145,-6.26412 -2.18882,-9.86739 0.99245,-2.3486 2.7155,-6.14829 5.625,-6.33928 1.17897,-0.0774 2.90178,2.85714 2.90178,2.85714"
           id="path6243"
           inkscape:connector-curvature="0"
           sodipodi:nodetypes="ccszsssc" />
        <path
           style="fill:none;stroke:#000000;stroke-width:0.70866144;stroke-linecap:butt;stroke-linejoin:miter;stroke-miterlimit:4;stroke-opacity:1;stroke-dasharray:none"
           d="m 155.52489,542.42532 c 2.91999,2.76368 7.29937,3.51447 10.89602,1.46238 -0.1656,-1.69743 4.08527,-0.81495 5.18623,-3.93623 0.30241,-0.35309 0.81529,-0.19108 0.98214,-0.625 0.30211,-0.78571 0.25214,-1.18208 -0.44642,-1.65179 -1.67506,0.37344 -1.63405,1.37135 -0.52936,2.35328 -1.09933,-1.01531 -1.10104,-1.94975 -1.69644,-3.14733 -0.13555,-0.70383 -0.11965,-2.38767 -0.26337,-3.08988 -0.21603,-2.73986 -3.30249,-5.72269 -3.47766,-8.01591 0.77663,-1.39894 1.76912,-2.63449 0.78825,-3.50195 -0.42839,-0.35905 -1.79641,-0.85485 -2.54464,-0.35714 -0.91935,1.12892 -0.94362,1.21779 -0.89061,2.95541 0.97725,-0.10261 1.78585,0.10366 2.91803,1.92374"
           id="path6245"
           inkscape:connector-curvature="0"
           sodipodi:nodetypes="cccsccccccccc" />
        <path
           style="fill:none;stroke:#000000;stroke-width:0.70866144;stroke-linecap:butt;stroke-linejoin:miter;stroke-miterlimit:4;stroke-opacity:1;stroke-dasharray:none"
           d="m 153.21429,537.36218 c 0,0 0.28164,-1.49476 -0.17858,-1.96428 -1.17176,-0.60088 -1.33228,0.18305 -2.12053,0.7366 -1.33165,0.93515 -1.39552,-1.09898 -2.0759,-1.78571 -2.01646,-2.03527 -3.91206,-1.95147 -3.61607,1.31696"
           id="path6249"
           inkscape:connector-curvature="0"
           sodipodi:nodetypes="ccssc" />
        <path
           style="fill:none;stroke:#000000;stroke-width:0.70866144;stroke-linecap:butt;stroke-linejoin:miter;stroke-miterlimit:4;stroke-opacity:1;stroke-dasharray:none"
           d="m 149.46429,521.82647 c 0.5115,-0.40875 1.50129,-0.46299 1.96428,0 0.67343,0.67343 -0.43586,2.01034 0,2.85714 1.03318,2.00729 4.30014,1.6082 5.17857,3.03571 1.50088,2.43902 -0.48701,4.74114 -2.85714,3.48214 -2.81134,-1.49336 -7.51842,-6.79168 -4.28571,-9.37499 z"
           id="path6251"
           inkscape:connector-curvature="0"
           sodipodi:nodetypes="ssssss" />
        <path
           style="fill:none;stroke:#000000;stroke-width:0.70866144;stroke-linecap:butt;stroke-linejoin:miter;stroke-miterlimit:4;stroke-opacity:1;stroke-dasharray:none"
           d="m 151.42857,522.18361 c 2.56177,-2.87364 5.18926,-2.34753 6.25,1.60714 0,0 1.63572,-0.54207 2.32143,-0.17857 0.84801,0.44953 0.66352,1.92044 1.42857,2.5 2.65339,1.07739 2.37983,-1.3943 1.42857,-3.03571 -2.10949,-2.50125 -3.98447,-2.69788 -6.96428,-2.14286"
           id="path6253"
           inkscape:connector-curvature="0"
           sodipodi:nodetypes="ccsccc" />
        <path
           style="fill:none;stroke:#000000;stroke-width:0.70866144;stroke-linecap:butt;stroke-linejoin:miter;stroke-miterlimit:4;stroke-opacity:1;stroke-dasharray:none"
           d="m 149.46429,521.6479 c 0,0 -0.75459,-1.86303 -0.71429,-2.90179 0.34901,-1.70618 1.34872,-3.09112 2.14286,-4.0625 -0.0168,-1.13708 -1.96967,-1.41857 -2.32143,-2.5 -0.30457,-2.19622 0.21001,-4.04375 1.25,-5.89286 4.01902,3.92175 1.69163,4.73838 3.57143,6.60715 0.93969,0.62931 2.42191,-0.57994 3.39285,0 0.93456,1.20335 1.35937,3.34868 2.07973,4.0765 0.54205,0.478 1.8727,0.75742 2.94194,0.79816 -0.36189,1.23034 -1.04672,1.83098 -1.59631,2.93018"
           id="path6255"
           inkscape:connector-curvature="0"
           sodipodi:nodetypes="cccccccccc" />
        <path
           style="fill:none;stroke:#000000;stroke-width:0.70866144;stroke-linecap:butt;stroke-linejoin:miter;stroke-miterlimit:4;stroke-opacity:1;stroke-dasharray:none"
           d="m 154.28571,512.98718 c 0.75142,-2.63849 2.02346,-4.16668 4.46429,-4.73214 0,0 0.19219,2.67122 -0.17857,3.92857 -0.23389,0.79317 -1.02679,1.78572 -1.02679,1.78572"
           id="path6257"
           inkscape:connector-curvature="0"
           sodipodi:nodetypes="ccsc" />
        <path
           style="fill:none;stroke:#000000;stroke-width:0.70866144;stroke-linecap:butt;stroke-linejoin:miter;stroke-miterlimit:4;stroke-opacity:1;stroke-dasharray:none"
           d="m 148.57143,519.1479 c -4.26808,2.63252 -7.48219,5.40796 -7.45536,10.44643 0.1636,2.9831 1.11651,4.77955 3.02759,7.07925"
           id="path6259"
           inkscape:connector-curvature="0"
           sodipodi:nodetypes="ccc" />
        <path
           style="fill:none;stroke:#000000;stroke-width:0.70866144;stroke-linecap:butt;stroke-linejoin:miter;stroke-miterlimit:4;stroke-opacity:1;stroke-dasharray:none"
           d="m 175.71429,555.57647 c -2.56204,0.2615 -4.40733,1.99188 -4.59954,4.23341 -0.24191,2.82112 2.57578,3.85609 4.0403,1.69008 2.01037,-2.02708 3.53379,-6.22709 0.55924,-5.92349 z"
           id="path6261"
           inkscape:connector-curvature="0"
           sodipodi:nodetypes="sscs" />
        <path
           style="fill:none;stroke:#000000;stroke-width:0.70866144;stroke-linecap:butt;stroke-linejoin:miter;stroke-miterlimit:4;stroke-opacity:1;stroke-dasharray:none"
           d="m 161.93721,566.99723 c 7.28984,2.1074 7.30324,0.96444 10.62592,-4.09801"
           id="path6263"
           inkscape:connector-curvature="0"
           sodipodi:nodetypes="cc" />
        <path
           style="fill:none;stroke:#000000;stroke-width:0.70866144;stroke-linecap:butt;stroke-linejoin:miter;stroke-miterlimit:4;stroke-opacity:1;stroke-dasharray:none"
           d="m 169.45531,547.48209 c 2.36975,0.64651 5.59716,1.95113 5.12255,3.71302 -0.30061,1.11597 -2.25643,-0.0829 -2.25643,-0.0829 0.44297,2.7776 -2.0476,2.46676 -2.85714,0.71429 -1.61254,2.73681 -3.46676,-0.6223 -2.14286,-1.78572 -2.1471,1.24999 -3.62295,0.15461 -4.25508,-2.01658 1.69708,-1.57348 4.48732,-1.05342 6.38896,-0.54211 z"
           id="path6265"
           inkscape:connector-curvature="0"
           sodipodi:nodetypes="csccccc" />
        <path
           style="fill:none;stroke:#000000;stroke-width:0.70866144;stroke-linecap:butt;stroke-linejoin:miter;stroke-miterlimit:4;stroke-opacity:1;stroke-dasharray:none"
           d="m 174.11163,551.46615 0.17408,4.46746"
           id="path6267"
           inkscape:connector-curvature="0"
           sodipodi:nodetypes="cc" />
        <path
           sodipodi:type="arc"
           style="opacity:0.98999999;fill:none;stroke:#000000;stroke-width:0.70866144;stroke-linecap:square;stroke-linejoin:miter;stroke-miterlimit:4;stroke-opacity:1;stroke-dasharray:none;stroke-dashoffset:17.01120644"
           id="path6277"
           sodipodi:cx="162.1875"
           sodipodi:cy="536.58093"
           sodipodi:rx="0.35714287"
           sodipodi:ry="0.87053573"
           d="m 162.54464,536.58093 a 0.35714287,0.87053573 0 0 1 -0.35714,0.87054 0.35714287,0.87053573 0 0 1 -0.35714,-0.87054 0.35714287,0.87053573 0 0 1 0.35714,-0.87053 0.35714287,0.87053573 0 0 1 0.35714,0.87053 z" />
        <path
           d="m 162.54464,536.58093 a 0.35714287,0.87053573 0 0 1 -0.35714,0.87054 0.35714287,0.87053573 0 0 1 -0.35714,-0.87054 0.35714287,0.87053573 0 0 1 0.35714,-0.87053 0.35714287,0.87053573 0 0 1 0.35714,0.87053 z"
           sodipodi:ry="0.87053573"
           sodipodi:rx="0.35714287"
           sodipodi:cy="536.58093"
           sodipodi:cx="162.1875"
           id="path6279"
           style="opacity:0.98999999;fill:none;stroke:#000000;stroke-width:0.70866144;stroke-linecap:square;stroke-linejoin:miter;stroke-miterlimit:4;stroke-opacity:1;stroke-dasharray:none;stroke-dashoffset:17.01120644"
           sodipodi:type="arc"
           transform="translate(5.8482143,-1.0714286)" />
        <path
           style="fill:none;stroke:#000000;stroke-width:0.70866144;stroke-linecap:butt;stroke-linejoin:miter;stroke-miterlimit:4;stroke-opacity:1;stroke-dasharray:none"
           d="m 150.91518,528.94701 c -1.09655,1.85807 -1.78756,3.77493 -1.69643,5.87053"
           id="path6281"
           inkscape:connector-curvature="0"
           sodipodi:nodetypes="cc" />
        <path
           d="m 162.54464,536.58093 a 0.35714287,0.87053573 0 0 1 -0.35714,0.87054 0.35714287,0.87053573 0 0 1 -0.35714,-0.87054 0.35714287,0.87053573 0 0 1 0.35714,-0.87053 0.35714287,0.87053573 0 0 1 0.35714,0.87053 z"
           sodipodi:ry="0.87053573"
           sodipodi:rx="0.35714287"
           sodipodi:cy="536.58093"
           sodipodi:cx="162.1875"
           id="path6283"
           style="opacity:0.98999999;fill:none;stroke:#000000;stroke-width:0.70866144;stroke-linecap:square;stroke-linejoin:miter;stroke-miterlimit:4;stroke-opacity:1;stroke-dasharray:none;stroke-dashoffset:17.01120644"
           sodipodi:type="arc"
           transform="matrix(0.80670995,0,0,0.80670995,24.39318,85.26469)" />
        <path
           style="fill:none;stroke:#000000;stroke-width:0.70866144;stroke-linecap:butt;stroke-linejoin:miter;stroke-miterlimit:4;stroke-opacity:1;stroke-dasharray:none"
           d="m 128.08036,587.8979 c 0.10013,-2.03421 -2.09926,-4.18944 -4.19643,-6.33929 2.61608,1.064 5.87813,3.74295 9.19643,6.5625 -2.60501,-3.9881 -5.54037,-7.97619 -9.33036,-11.96429 4.068,3.7995 7.68401,7.68939 11.16071,11.60715 -1.81557,-3.44293 -4.33751,-7.37613 -8.03571,-11.65179 4.05778,3.63095 6.91571,7.26191 9.6875,10.89286 -1.96366,-4.39498 -4.73981,-8.60941 -7.76786,-12.76786 3.56921,3.5295 6.99738,7.23138 9.50893,12.05357 0.11634,-1.66472 0.55509,-2.97119 -1.38393,-6.91964 1.17346,1.88394 2.70666,3.26425 3.34822,5.89286 0.19751,-2.19075 0.42566,-4.40602 -0.53572,-5.66965 0.78152,1.5869 1.89649,2.04002 2.14286,5.44643"
           id="path6285"
           inkscape:connector-curvature="0"
           sodipodi:nodetypes="ccccccccccccc" />
        <path
           style="fill:none;stroke:#000000;stroke-width:0.70866144;stroke-linecap:butt;stroke-linejoin:miter;stroke-miterlimit:4;stroke-opacity:1;stroke-dasharray:none"
           d="m 151.74107,585.30861 c -0.29257,-1.39881 -0.46941,-2.79762 -1.5625,-4.19643 2.69321,1.64124 3.06494,4.11158 4.24107,6.29464 0.077,-2.52823 0.2524,-5.05568 -0.35714,-7.58928 1.04181,1.60603 2.02367,3.69159 2.94643,6.25 0.32588,-1.14018 0.26119,-2.35848 1.11607,-3.39286 -0.46367,0.0773 0.12934,2.8618 1.42857,3.79464 0.45101,-1.79037 2.85714,-3.66071 2.85714,-3.66071 -0.0373,-0.58706 -1.56397,3.80171 -1.07142,4.10714 0.0127,-1.42227 7.75081,-6.71271 7.8125,-6.25 -2.16543,2.22178 -5.45783,4.66895 -4.86608,6.33929 1.5625,-1.47716 3.125,-1.62563 4.6875,-1.83036 -0.78425,0.81261 -1.81457,1.56844 -1.11607,2.72322 0.19448,-0.21975 1.48761,-0.71417 2.58929,-1.16072 -0.11151,0.625 -1.01724,1.25 -0.17857,1.875"
           id="path6287"
           inkscape:connector-curvature="0"
           sodipodi:nodetypes="ccccccccccccccc" />
      </g>
      <text
         id="text6289"
         y="485.0408"
         x="250.63139"
         style="font-style:normal;font-variant:normal;font-weight:bold;font-stretch:normal;line-height:0%;font-family:Verdana;-inkscape-font-specification:'Verdana Bold';text-align:end;letter-spacing:0px;word-spacing:0px;writing-mode:lr-tb;text-anchor:end;fill:#000000;fill-opacity:1;stroke:none"
         xml:space="preserve"><tspan
           id="tspan6293"
           style="font-style:normal;font-variant:normal;font-weight:normal;font-stretch:normal;font-size:16px;line-height:89.99999762%;font-family:'Alex Brush';-inkscape-font-specification:'Alex Brush';text-align:end;text-anchor:end;fill:#000000;fill-opacity:1;stroke:#000000;stroke-width:0.35433072;stroke-miterlimit:4;stroke-dasharray:none;stroke-opacity:1"
           y="485.0408"
           x="250.63139"
           sodipodi:role="line">Un ami est une des plus</tspan><tspan
           id="tspan6535"
           style="font-style:normal;font-variant:normal;font-weight:normal;font-stretch:normal;font-size:16px;line-height:89.99999762%;font-family:'Alex Brush';-inkscape-font-specification:'Alex Brush';text-align:end;text-anchor:end;fill:#000000;fill-opacity:1;stroke:#000000;stroke-width:0.35433072;stroke-miterlimit:4;stroke-dasharray:none;stroke-opacity:1"
           y="499.4408"
           x="250.63139"
           sodipodi:role="line">jolies choses que tu</tspan><tspan
           id="tspan6537"
           style="font-style:normal;font-variant:normal;font-weight:normal;font-stretch:normal;font-size:16px;line-height:89.99999762%;font-family:'Alex Brush';-inkscape-font-specification:'Alex Brush';text-align:end;text-anchor:end;fill:#000000;fill-opacity:1;stroke:#000000;stroke-width:0.35433072;stroke-miterlimit:4;stroke-dasharray:none;stroke-opacity:1"
           y="513.84082"
           x="255.72514"
           sodipodi:role="line">puisses avoir... </tspan></text>
      <text
         id="text6305"
         y="573.83405"
         x="250.45422"
         style="font-style:normal;font-variant:normal;font-weight:normal;font-stretch:normal;line-height:0%;font-family:'Vladimir Script';-inkscape-font-specification:'Vladimir Script';text-align:end;letter-spacing:0px;word-spacing:0px;writing-mode:lr-tb;text-anchor:end;fill:none;stroke:#000000;stroke-width:0.35433072;stroke-miterlimit:4;stroke-dasharray:none;stroke-opacity:1"
         xml:space="preserve"><tspan
           style="font-weight:normal;font-size:16px;line-height:89.99999762%;-inkscape-font-specification:'Alex Brush';fill:#000000;fill-opacity:1;stroke:#000000;stroke-width:0.35433072;stroke-miterlimit:4;stroke-dasharray:none;stroke-opacity:1;font-family:'Alex Brush';font-style:normal;font-stretch:normal;font-variant:normal"
           y="573.83405"
           x="255.54797"
           id="tspan6307"
           sodipodi:role="line">... et une des </tspan><tspan
           style="font-weight:normal;font-size:16px;line-height:89.99999762%;-inkscape-font-specification:'Alex Brush';fill:#000000;fill-opacity:1;stroke:#000000;stroke-width:0.35433072;stroke-miterlimit:4;stroke-dasharray:none;stroke-opacity:1;font-family:'Alex Brush';font-style:normal;font-stretch:normal;font-variant:normal"
           id="tspan6309"
           y="588.23407"
           x="255.54797"
           sodipodi:role="line">meilleures </tspan><tspan
           style="font-weight:normal;font-size:16px;line-height:89.99999762%;-inkscape-font-specification:'Alex Brush';fill:#000000;fill-opacity:1;stroke:#000000;stroke-width:0.35433072;stroke-miterlimit:4;stroke-dasharray:none;stroke-opacity:1;font-family:'Alex Brush';font-style:normal;font-stretch:normal;font-variant:normal"
           id="tspan6311"
           y="602.63403"
           x="255.54797"
           sodipodi:role="line">choses que tu puisses être. </tspan></text>
    </g>
    <flowRoot
       xml:space="preserve"
       id="flowRoot6543"
       style="font-style:normal;font-variant:normal;font-weight:normal;font-stretch:normal;line-height:0.01%;font-family:'Vladimir Script';-inkscape-font-specification:'Vladimir Script';text-align:start;letter-spacing:0px;word-spacing:0px;writing-mode:lr-tb;text-anchor:start;fill:#000000;fill-opacity:1;stroke:none;stroke-width:1px;stroke-linecap:butt;stroke-linejoin:miter;stroke-opacity:1"><flowRegion
         id="flowRegion6545"><rect
           id="rect6547"
           width="23.928572"
           height="68.75"
           x="232.67857"
           y="481.82648" /></flowRegion><flowPara
         id="flowPara6549"
         style="font-size:12px;line-height:1.25"> </flowPara></flowRoot>    <rect
       style="opacity:0.98999999;color:#000000;fill:none;stroke:#000000;stroke-width:0.49653769;stroke-linecap:butt;stroke-linejoin:miter;stroke-miterlimit:4;stroke-opacity:1;stroke-dasharray:none;stroke-dashoffset:0;marker:none;visibility:visible;display:inline;overflow:visible;enable-background:accumulate"
       id="rect6553"
       width="176.66882"
       height="176.66882"
       x="97.663895"
       y="452.10611" />
  </g>
</svg>
