<?xml version="1.0" encoding="UTF-8" standalone="no"?>
<!-- Created with Inkscape (http://www.inkscape.org/) -->

<svg
   xmlns:dc="http://purl.org/dc/elements/1.1/"
   xmlns:cc="http://creativecommons.org/ns#"
   xmlns:rdf="http://www.w3.org/1999/02/22-rdf-syntax-ns#"
   xmlns:svg="http://www.w3.org/2000/svg"
   xmlns="http://www.w3.org/2000/svg"
   xmlns:sodipodi="http://sodipodi.sourceforge.net/DTD/sodipodi-0.dtd"
   xmlns:inkscape="http://www.inkscape.org/namespaces/inkscape"
   width="210mm"
   height="297mm"
   id="svg5427"
   version="1.1"
   inkscape:version="0.92.1 r15371"
   sodipodi:docname="Winnie-manual.svg">
  <defs
     id="defs5429">
    <clipPath
       clipPathUnits="userSpaceOnUse"
       id="clipPath6231">
      <rect
         style="opacity:0.98999999;fill:none;stroke:#ff0000;stroke-width:1.78100002;stroke-linecap:square;stroke-linejoin:miter;stroke-miterlimit:4;stroke-opacity:0.43891404;stroke-dasharray:none;stroke-dashoffset:17.01120644"
         id="rect6233"
         width="85"
         height="104.64286"
         x="111.07143"
         y="497.89789" />
    </clipPath>
  </defs>
  <sodipodi:namedview
     id="base"
     pagecolor="#ffffff"
     bordercolor="#666666"
     borderopacity="1.0"
     inkscape:pageopacity="0.0"
     inkscape:pageshadow="2"
     inkscape:zoom="2.8284271"
     inkscape:cx="183.2198"
     inkscape:cy="597.71401"
     inkscape:document-units="px"
     inkscape:current-layer="layer1"
     showgrid="false"
     inkscape:window-width="1920"
     inkscape:window-height="1016"
     inkscape:window-x="0"
     inkscape:window-y="27"
     inkscape:window-maximized="1" />
  <metadata
     id="metadata5432">
    <rdf:RDF>
      <cc:Work
         rdf:about="">
        <dc:format>image/svg+xml</dc:format>
        <dc:type
           rdf:resource="http://purl.org/dc/dcmitype/StillImage" />
        <dc:title />
      </cc:Work>
    </rdf:RDF>
  </metadata>
  <g
     inkscape:label="Calque 1"
     inkscape:groupmode="layer"
     id="layer1">
    <g
       id="g6559"
       transform="matrix(1.5999999,0,0,1.5999999,-58.630764,-403.3367)"
       style="stroke-width:0.35433072;stroke-miterlimit:4;stroke-dasharray:none">
      <path
         sodipodi:nodetypes="csssscssc"
         inkscape:connector-curvature="0"
         id="path6235"
         d="m 152,602.71013 c -1.73643,4.10061 -0.41905,6.74751 0.95238,9.90477 0.81105,1.86717 1.65993,4.51147 0.38095,6.09523 -2.47791,3.06841 -1.57882,5.55818 1.90477,7.42857 4.39536,2.35992 6.20447,0.89797 6.04761,-1.71427 -0.11317,-1.88437 -3.19047,-4 -3.19047,-4 0,0 1.44751,-3.63058 1.90476,-5.52382 0.527,-2.18205 0.47668,-4.33284 -0.19046,-6.47619 C 159.14185,606.27935 156,602.85299 156,602.85299"
         style="fill:none;stroke:#000000;stroke-width:0.37795275;stroke-linecap:butt;stroke-linejoin:miter;stroke-miterlimit:4;stroke-dasharray:none;stroke-opacity:1" />
      <path
         sodipodi:nodetypes="cssc"
         inkscape:connector-curvature="0"
         id="path6237"
         d="m 173.48773,581.36794 c 0,0 2.24598,12.73303 0.79798,18.67553 -1.24279,5.1003 -3.2982,9.20921 -7.61904,12.19047 -1.71029,1.18004 -4.32758,1.62001 -6.30783,1.43337"
         style="fill:none;stroke:#000000;stroke-width:0.37795275;stroke-linecap:butt;stroke-linejoin:miter;stroke-miterlimit:4;stroke-dasharray:none;stroke-opacity:1" />
      <path
         sodipodi:nodetypes="cssc"
         inkscape:connector-curvature="0"
         id="path6239"
         d="m 152.28572,611.19211 c 0,0 -3.96115,-4.39974 -4.90476,-7.33912 -1.26517,-3.94108 -0.75907,-7.90695 -0.14287,-12 0.3004,-1.99532 1.7619,-6.2857 1.7619,-6.2857"
         style="fill:none;stroke:#000000;stroke-width:0.37795275;stroke-linecap:butt;stroke-linejoin:miter;stroke-miterlimit:4;stroke-dasharray:none;stroke-opacity:1" />
      <path
         sodipodi:nodetypes="cssscc"
         inkscape:connector-curvature="0"
         id="path6241"
         d="m 167.47619,611.61489 c 4.94046,4.00262 2.57789,3.91917 3.95239,6.80953 0.57843,1.21634 3.04561,1.18567 4.19047,0.4762 2.88409,-1.78729 5.19566,-2.31549 4.95237,-4.95239 -0.21328,-2.31166 -2.7511,-2.22158 -5.42856,-2 0.16686,-2.79338 -0.38684,-4.37714 -1.71428,-6.76189"
         style="fill:none;stroke:#000000;stroke-width:0.37795275;stroke-linecap:butt;stroke-linejoin:miter;stroke-miterlimit:4;stroke-dasharray:none;stroke-opacity:1" />
      <path
         sodipodi:nodetypes="ccszsssc"
         inkscape:connector-curvature="0"
         id="path6243"
         d="m 153.33333,579.85299 c 2.46264,-2.30556 7.31543,-7.97168 10.4762,-6.66666 1.73026,0.80899 2.67798,3.51435 2.09523,5.33333 -0.46208,1.4423 -1.60425,0.74903 -3.80952,2.47619 -2.20527,1.72716 -5.90363,7.71283 -9.7605,7.57283 -4.92901,-0.17893 -3.95888,-6.68173 -2.33474,-10.52521 1.05861,-2.50518 2.89653,-6.55818 6,-6.7619 1.25757,-0.0826 3.09523,3.04761 3.09523,3.04761"
         style="fill:none;stroke:#000000;stroke-width:0.37795275;stroke-linecap:butt;stroke-linejoin:miter;stroke-miterlimit:4;stroke-dasharray:none;stroke-opacity:1" />
      <path
         sodipodi:nodetypes="cccsccccccccc"
         inkscape:connector-curvature="0"
         id="path6245"
         d="m 165.89322,578.58701 c 3.11465,2.94792 7.78599,3.74877 11.62242,1.55987 -0.17664,-1.81059 4.35762,-0.86928 5.53198,-4.19865 0.32257,-0.37662 0.86964,-0.20381 1.04761,-0.66666 0.32225,-0.83809 0.26895,-1.26089 -0.47618,-1.76191 -1.78673,0.39833 -1.74299,1.46277 -0.56465,2.51016 -1.17262,-1.08299 -1.17444,-2.07973 -1.80954,-3.35715 -0.14458,-0.75075 -0.12762,-2.54685 -0.28092,-3.29587 -0.23044,-2.92252 -3.52266,-6.1042 -3.70951,-8.5503 0.82841,-1.49221 1.88706,-2.81013 0.8408,-3.73542 -0.45695,-0.38298 -1.91617,-0.91184 -2.71428,-0.38095 -0.98064,1.20418 -1.00653,1.29898 -0.94998,3.15244 1.0424,-0.10945 1.9049,0.11057 3.11256,2.05199"
         style="fill:none;stroke:#000000;stroke-width:0.37795275;stroke-linecap:butt;stroke-linejoin:miter;stroke-miterlimit:4;stroke-dasharray:none;stroke-opacity:1" />
      <path
         sodipodi:nodetypes="ccssc"
         inkscape:connector-curvature="0"
         id="path6249"
         d="m 163.42858,573.18633 c 0,0 0.30041,-1.59442 -0.19049,-2.09524 -1.24988,-0.64094 -1.4211,0.19526 -2.2619,0.78571 -1.42042,0.99749 -1.48855,-1.17225 -2.21429,-1.90476 -2.15089,-2.17095 -4.17287,-2.08157 -3.85714,1.40476"
         style="fill:none;stroke:#000000;stroke-width:0.37795275;stroke-linecap:butt;stroke-linejoin:miter;stroke-miterlimit:4;stroke-dasharray:none;stroke-opacity:1" />
      <path
         sodipodi:nodetypes="ssssss"
         inkscape:connector-curvature="0"
         id="path6251"
         d="m 159.42858,556.6149 c 0.5456,-0.436 1.60137,-0.49385 2.09523,0 0.71832,0.71833 -0.46492,2.14436 0,3.04762 1.10206,2.14111 4.58681,1.71541 5.52381,3.23809 1.60093,2.60162 -0.51948,5.05721 -3.04762,3.71428 -2.99876,-1.59292 -8.01965,-7.24446 -4.57142,-9.99999 z"
         style="fill:none;stroke:#000000;stroke-width:0.37795275;stroke-linecap:butt;stroke-linejoin:miter;stroke-miterlimit:4;stroke-dasharray:none;stroke-opacity:1" />
      <path
         sodipodi:nodetypes="ccsccc"
         inkscape:connector-curvature="0"
         id="path6253"
         d="m 161.52381,556.99585 c 2.73255,-3.06522 5.53521,-2.50403 6.66666,1.71428 0,0 1.74477,-0.5782 2.4762,-0.19047 0.90454,0.4795 0.70775,2.04847 1.5238,2.66667 2.83029,1.14921 2.53849,-1.48726 1.52381,-3.2381 -2.25012,-2.668 -4.2501,-2.87773 -7.42856,-2.28571"
         style="fill:none;stroke:#000000;stroke-width:0.37795275;stroke-linecap:butt;stroke-linejoin:miter;stroke-miterlimit:4;stroke-dasharray:none;stroke-opacity:1" />
      <path
         sodipodi:nodetypes="cccccccccc"
         inkscape:connector-curvature="0"
         id="path6255"
         d="m 159.42858,556.42443 c 0,0 -0.8049,-1.98724 -0.76191,-3.09525 0.37227,-1.81992 1.43863,-3.29719 2.28571,-4.33333 -0.0179,-1.21288 -2.10098,-1.51314 -2.47619,-2.66667 -0.32487,-2.34263 0.22401,-4.31333 1.33334,-6.28571 4.28695,4.1832 1.8044,5.05427 3.80952,7.04762 1.00234,0.67127 2.58337,-0.6186 3.61904,0 0.99686,1.28358 1.45,3.57193 2.21838,4.34827 0.57819,0.50987 1.99755,0.80791 3.13807,0.85137 -0.38602,1.31236 -1.1165,1.95305 -1.70273,3.12553"
         style="fill:none;stroke:#000000;stroke-width:0.37795275;stroke-linecap:butt;stroke-linejoin:miter;stroke-miterlimit:4;stroke-dasharray:none;stroke-opacity:1" />
      <path
         sodipodi:nodetypes="ccsc"
         inkscape:connector-curvature="0"
         id="path6257"
         d="m 164.57142,547.18633 c 0.80152,-2.81439 2.15836,-4.44446 4.76191,-5.04762 0,0 0.20501,2.8493 -0.19047,4.19047 -0.24948,0.84605 -1.09524,1.90477 -1.09524,1.90477"
         style="fill:none;stroke:#000000;stroke-width:0.37795275;stroke-linecap:butt;stroke-linejoin:miter;stroke-miterlimit:4;stroke-dasharray:none;stroke-opacity:1" />
      <path
         sodipodi:nodetypes="ccc"
         inkscape:connector-curvature="0"
         id="path6259"
         d="m 158.47619,553.75776 c -4.55262,2.80802 -7.981,5.76849 -7.95238,11.14286 0.1745,3.18197 1.19094,5.09819 3.22943,7.5512"
         style="fill:none;stroke:#000000;stroke-width:0.37795275;stroke-linecap:butt;stroke-linejoin:miter;stroke-miterlimit:4;stroke-dasharray:none;stroke-opacity:1" />
      <path
         sodipodi:nodetypes="sscs"
         inkscape:connector-curvature="0"
         id="path6261"
         d="m 187.42858,592.6149 c -2.73285,0.27893 -4.70116,2.12467 -4.90618,4.51564 -0.25804,3.00919 2.7475,4.11316 4.30965,1.80275 2.1444,-2.16222 3.76938,-6.64223 0.59653,-6.31839 z"
         style="fill:none;stroke:#000000;stroke-width:0.37795275;stroke-linecap:butt;stroke-linejoin:miter;stroke-miterlimit:4;stroke-dasharray:none;stroke-opacity:1" />
      <path
         sodipodi:nodetypes="cc"
         inkscape:connector-curvature="0"
         id="path6263"
         d="m 172.73302,604.79705 c 7.77583,2.24789 7.79013,1.02873 11.33432,-4.37122"
         style="fill:none;stroke:#000000;stroke-width:0.37795275;stroke-linecap:butt;stroke-linejoin:miter;stroke-miterlimit:4;stroke-dasharray:none;stroke-opacity:1" />
      <path
         sodipodi:nodetypes="csccccc"
         inkscape:connector-curvature="0"
         id="path6265"
         d="m 180.75233,583.9809 c 2.52773,0.68961 5.9703,2.0812 5.46405,3.96055 -0.32065,1.19037 -2.40685,-0.0884 -2.40685,-0.0884 0.4725,2.96278 -2.18411,2.63121 -3.04762,0.76191 -1.72004,2.91927 -3.69788,-0.66378 -2.28572,-1.90476 -2.29024,1.33332 -3.86448,0.16491 -4.53875,-2.15102 1.81022,-1.67838 4.78647,-1.12365 6.81489,-0.57825 z"
         style="fill:none;stroke:#000000;stroke-width:0.37795275;stroke-linecap:butt;stroke-linejoin:miter;stroke-miterlimit:4;stroke-dasharray:none;stroke-opacity:1" />
      <path
         sodipodi:nodetypes="cc"
         inkscape:connector-curvature="0"
         id="path6267"
         d="m 185.71907,588.23056 0.18569,4.76529"
         style="fill:none;stroke:#000000;stroke-width:0.37795275;stroke-linecap:butt;stroke-linejoin:miter;stroke-miterlimit:4;stroke-dasharray:none;stroke-opacity:1" />
      <ellipse
         id="path6277"
         style="opacity:0.98999999;fill:none;stroke:#000000;stroke-width:0.37795275;stroke-linecap:square;stroke-linejoin:miter;stroke-miterlimit:4;stroke-dasharray:none;stroke-dashoffset:17.01120567;stroke-opacity:1"
         cx="173"
         cy="572.35297"
         rx="0.38095239"
         ry="0.92857146" />
      <ellipse
         style="opacity:0.98999999;fill:none;stroke:#000000;stroke-width:0.37795275;stroke-linecap:square;stroke-linejoin:miter;stroke-miterlimit:4;stroke-dasharray:none;stroke-dashoffset:17.01120567;stroke-opacity:1"
         id="path6279"
         cx="179.2381"
         cy="571.21014"
         rx="0.38095239"
         ry="0.92857146" />
      <path
         sodipodi:nodetypes="cc"
         inkscape:connector-curvature="0"
         id="path6281"
         d="m 160.97619,564.21014 c -1.16965,1.98195 -1.90673,4.0266 -1.80952,6.2619"
         style="fill:none;stroke:#000000;stroke-width:0.37795275;stroke-linecap:butt;stroke-linejoin:miter;stroke-miterlimit:4;stroke-dasharray:none;stroke-opacity:1" />
      <ellipse
         style="opacity:0.98999999;fill:none;stroke:#000000;stroke-width:0.37795275;stroke-linecap:square;stroke-linejoin:miter;stroke-miterlimit:4;stroke-dasharray:none;stroke-dashoffset:17.01120567;stroke-opacity:1"
         id="path6283"
         cx="165.58022"
         cy="552.67188"
         rx="0.30731809"
         ry="0.74908781" />
      <path
         sodipodi:nodetypes="ccccccccccccc"
         inkscape:connector-curvature="0"
         id="path6285"
         d="m 136.61905,627.09109 c 0.10681,-2.16982 -2.23921,-4.46873 -4.47619,-6.76191 2.79048,1.13494 6.27,3.99248 9.80952,7 -2.77867,-4.25397 -5.90972,-8.50793 -9.95238,-12.76191 4.3392,4.0528 8.19628,8.20202 11.90476,12.38096 -1.93661,-3.67245 -4.62668,-7.86787 -8.57143,-12.42857 4.3283,3.87301 7.37676,7.74604 10.33334,11.61905 -2.09457,-4.68798 -5.0558,-9.18337 -8.28572,-13.61905 3.80716,3.7648 7.46387,7.71347 10.14286,12.85714 0.12409,-1.7757 0.59209,-3.16927 -1.47619,-7.38095 1.25169,2.00954 2.8871,3.48187 3.57143,6.28572 0.21068,-2.3368 0.45404,-4.69976 -0.57143,-6.04763 0.83362,1.69269 2.02292,2.17602 2.28571,5.80953"
         style="fill:none;stroke:#000000;stroke-width:0.37795275;stroke-linecap:butt;stroke-linejoin:miter;stroke-miterlimit:4;stroke-dasharray:none;stroke-opacity:1" />
      <path
         sodipodi:nodetypes="ccccccccccccccc"
         inkscape:connector-curvature="0"
         id="path6287"
         d="m 161.85714,624.32918 c -0.31207,-1.49206 -0.5007,-2.98412 -1.66667,-4.47619 2.87276,1.75066 3.26927,4.38569 4.52381,6.71428 0.0821,-2.69677 0.26923,-5.39272 -0.38095,-8.09523 1.11127,1.7131 2.15858,3.9377 3.14286,6.66667 0.34761,-1.21619 0.2786,-2.51571 1.19048,-3.61905 -0.49458,0.0824 0.13796,3.05259 1.5238,4.04761 0.48108,-1.90972 3.04762,-3.90475 3.04762,-3.90475 -0.0398,-0.6262 -1.66823,4.05515 -1.14285,4.38095 0.0136,-1.51709 8.26753,-7.16023 8.33334,-6.66667 -2.3098,2.3699 -5.82169,4.98021 -5.19049,6.76191 1.66667,-1.57564 3.33333,-1.73401 5,-1.95238 -0.83653,0.86678 -1.93554,1.673 -1.19047,2.90476 0.20744,-0.2344 1.58678,-0.76178 2.76191,-1.2381 -0.11895,0.66667 -1.08506,1.33334 -0.19048,2"
         style="fill:none;stroke:#000000;stroke-width:0.37795275;stroke-linecap:butt;stroke-linejoin:miter;stroke-miterlimit:4;stroke-dasharray:none;stroke-opacity:1" />
    </g>
    <rect
       style="color:#000000;display:inline;overflow:visible;visibility:visible;opacity:0.98999999;fill:none;stroke:#000000;stroke-width:0.84742433;stroke-linecap:butt;stroke-linejoin:miter;stroke-miterlimit:4;stroke-dasharray:none;stroke-dashoffset:0;stroke-opacity:1;marker:none;enable-background:accumulate"
       id="rect6553"
       width="301.51477"
       height="301.51477"
       x="104.33372"
       y="369.01959" />
    <path
       style="fill:none;stroke:#000000;stroke-width:0.60472435;stroke-linecap:butt;stroke-linejoin:miter;stroke-miterlimit:4;stroke-dasharray:none;stroke-opacity:1"
       d="m 163.92816,410.34924 c 2.01025,-1.42732 6.59631,-4.37143 7.15742,-3.15698 0.57297,1.24011 -15.94901,13.27396 -12.94946,17.05733 1.97003,2.48485 19.74215,-12.99167 22.64024,-16.75878 2.47709,-3.21987 -14.57176,13.15196 -12.44669,16.34869 2.01894,3.0371 10.20188,-6.77635 12.95452,-6.72908 1.92998,0.0331 -3.40604,6.37769 -4.62518,6.90752 -0.80087,0.34807 6.86611,-8.61005 8.96617,-6.29397 0.72017,0.79424 -7.731,6.86933 -2.73241,6.84818"
       id="path3880"
       inkscape:connector-curvature="0"
       sodipodi:nodetypes="csssssssc" />
    <path
       style="fill:none;stroke:#000000;stroke-width:0.60472435;stroke-linecap:butt;stroke-linejoin:miter;stroke-miterlimit:4;stroke-dasharray:none;stroke-opacity:1"
       d="m 189.57258,424.35668 c 0.73734,-0.40072 2.73856,-0.53565 4.06105,-2.21241 2.78013,-3.52489 9.97506,-4.48319 8.12026,-4.54252 -3.14212,-0.10048 -8.78297,4.90942 -6.8259,6.15291 1.97165,1.25276 5.4491,-2.29715 7.31005,-5.21405 1.24871,-1.95729 -5.16509,5.31911 -2.93916,5.75008 3.01599,0.58396 10.29482,-8.1372 9.89587,-6.42936 -0.30378,1.30043 -3.03735,5.85074 -3.87716,6.11521 -2.11349,0.6656 7.78618,-7.6487 7.77215,-5.73025 -0.012,1.55057 -4.31763,6.17433 -4.31763,6.17433 -0.91732,-0.80626 8.19808,-7.54676 8.44842,-6.37072 0.3485,1.63709 -4.94049,4.83745 -3.68233,5.9485 1.8147,1.60253 9.06436,-5.16083 10.91106,-6.09022 0.94489,-0.47553 -6.99781,6.48536 -2.65959,6.23297"
       id="path3890"
       inkscape:connector-curvature="0"
       sodipodi:nodetypes="cssssssssssssc" />
    <path
       style="fill:none;stroke:#000000;stroke-width:0.60472435;stroke-linecap:butt;stroke-linejoin:miter;stroke-miterlimit:4;stroke-dasharray:none;stroke-opacity:1"
       d="m 227.17774,412.54606 c -3.36331,2.45228 3.48092,2.27867 0.34175,-0.056"
       id="path3892"
       inkscape:connector-curvature="0"
       sodipodi:nodetypes="cc" />
    <path
       style="fill:none;stroke:#000000;stroke-width:0.60472435;stroke-linecap:butt;stroke-linejoin:miter;stroke-miterlimit:4;stroke-dasharray:none;stroke-opacity:1"
       d="m 228.47019,424.46445 c 4.83118,-0.74009 15.15239,-7.008 10.20767,-7.01966 -1.32571,-0.003 -6.39616,5.08376 -4.05834,6.51702 1.77702,1.08943 10.668,-3.96364 12.31254,-7.08997 0.64549,-1.22709 -2.65968,7.11261 -3.72539,7.47947 -2.23019,0.76776 -1.07353,-5.31045 -0.2068,-2.23383 2.12924,7.5582 15.40716,-9.27323 16.17244,-10.99589 0.46664,-1.05045 -12.18223,13.6947 -7.64368,13.45058"
       id="path3894"
       inkscape:connector-curvature="0"
       sodipodi:nodetypes="cssssssc" />
    <path
       style="fill:none;stroke:#000000;stroke-width:0.60472435;stroke-linecap:butt;stroke-linejoin:miter;stroke-miterlimit:4;stroke-dasharray:none;stroke-opacity:1"
       d="m 250.77434,415.9522 c 4.68061,-1.41796 5.47609,-0.42718 8.94322,-0.86178"
       id="path3896"
       inkscape:connector-curvature="0"
       sodipodi:nodetypes="cc" />
    <path
       style="fill:none;stroke:#000000;stroke-width:0.60472435;stroke-linecap:butt;stroke-linejoin:miter;stroke-miterlimit:4;stroke-dasharray:none;stroke-opacity:1"
       d="m 258.20907,423.92569 c 2.5848,0.37595 8.35813,-3.60542 9.59846,-5.449 2.5435,-3.78054 -6.44373,6.59081 -2.26335,5.24189 1.52391,-0.49174 6.28604,-4.28481 6.90287,-5.89998 0.7439,-1.94787 -6.53757,6.55037 -3.53269,6.41502 3.00657,-0.13534 11.38039,-9.4242 11.09222,-6.84799 -0.25083,2.24244 -5.80712,7.05516 -5.30011,6.18246 1.33134,-2.2916 10.09593,-8.19613 9.19316,-5.96683 -1.20158,2.96716 -6.37392,6.51595 -3.5258,6.30105 4.38115,-0.33053 12.83213,-4.27067 11.9773,-5.79706 -1.2773,-2.28074 -3.56292,0.55948 -4.65663,1.79942 -2.15267,2.44047 -1.80472,5.03716 1.54634,4.12867"
       id="path3898"
       inkscape:connector-curvature="0"
       sodipodi:nodetypes="cssssssssssc" />
    <path
       style="fill:none;stroke:#000000;stroke-width:0.60472435;stroke-linecap:butt;stroke-linejoin:miter;stroke-miterlimit:4;stroke-dasharray:none;stroke-opacity:1"
       d="m 295.70593,424.24893 c 2.51659,-0.37691 4.26234,-1.74621 5.11369,-2.70843 4.19606,-4.74248 8.11612,-2.56099 6.67507,-3.54436 -2.91487,-1.98908 -9.67773,7.45894 -5.31856,5.78818 4.47487,-1.71511 17.44028,-17.79908 14.30254,-14.96727 -3.13734,2.83144 -9.97296,12.04284 -11.3132,13.94731 -2.92976,4.16319 11.56312,-2.06691 12.35443,-4.13008 0.69777,-1.81927 -1.80808,-1.52074 -2.99957,-0.56251 -1.84306,1.48224 -5.19119,7.1158 -1.13636,6.47376 2.50246,-0.39626 6.70849,-4.46658 10.64375,-7.59328 2.17324,-1.72671 -1.9224,5.93337 -3.90031,7.46715 -1.56279,1.21187 -2.47827,-4.28931 -0.8386,-2.45171 1.28427,1.43931 1.9402,2.75429 3.03215,2.82012"
       id="path3900"
       inkscape:connector-curvature="0"
       sodipodi:nodetypes="csssssssssssc" />
    <path
       style="fill:none;stroke:#000000;stroke-width:0.60472435;stroke-linecap:butt;stroke-linejoin:miter;stroke-miterlimit:4;stroke-dasharray:none;stroke-opacity:1"
       d="m 328.78506,424.35667 c 4.17333,-1.91263 13.21692,-8.96366 11.58982,-8.18888 -2.14762,1.02263 -10.22669,12.77081 -11.7411,13.99636 -3.9588,3.20368 8.54192,-12.59321 12.52446,-12.6187 3.93606,-0.0251 -5.45615,7.68358 -5.61325,5.91173 -0.3464,-3.90695 1.78571,3.74041 6.30354,0.12852 1.91451,-1.53061 9.1179,-5.4486 15.31358,-11.99744 4.50265,-4.75933 -1.9726,-1.07052 -4.52138,1.53924 -6.78125,6.94349 -8.34572,11.65107 -4.95488,11.14149 1.91012,-0.28706 9.26274,-4.9693 10.14268,-6.868 0.81966,-1.76863 -7.191,6.28728 -3.41068,6.7531 1.24064,0.15292 6.85897,-5.37252 7.03676,-6.49722 0.19823,-1.25386 -7.09763,6.9817 -3.26739,6.75382 3.25984,-0.19395 8.49218,-6.77307 10.61271,-7.46106 1.93097,-0.62648 -3.45932,9.22584 -5.7277,6.63114 -2.20322,-2.52015 2.11717,0.49872 3.85611,1.4224"
       id="path3902"
       inkscape:connector-curvature="0"
       sodipodi:nodetypes="cssssssssssssssc" />
    <path
       style="fill:none;stroke:#000000;stroke-width:0.60472435;stroke-linecap:butt;stroke-linejoin:miter;stroke-miterlimit:4;stroke-dasharray:none;stroke-opacity:1"
       d="m 197.92316,448.81584 c 1.38189,-0.0344 9.99739,-4.96644 10.65869,-6.8928 1.21723,-3.54572 -7.52366,9.15076 -10.26701,12.43372 -3.0021,3.59256 -4.93209,2.68527 -1.47098,-1.92194 2.81697,-3.74981 8.32034,-2.7939 11.46568,-5.21689 2.08461,-1.60589 7.53255,-5.56384 6.43063,-5.09581 -7.75589,3.29426 -3.803,10.85055 0.27066,4.57259 3.96981,-6.11792 -2.9055,-5.08778 -0.24508,-2.6087 1.99508,1.85907 4.89125,1.13413 7.5714,-0.15924 3.64364,-1.75835 9.28742,-5.46375 10.87143,-9.32008 1.40977,-3.43211 -4.17263,0.68978 -7.80931,5.08681 -2.18711,2.64442 -6.58227,9.33943 -3.17153,8.9992 2.85808,-0.28509 11.95606,-7.02075 9.96929,-6.67392 -1.19144,0.20801 -7.45778,8.48879 -1.47959,6.23023 2.80627,-1.06022 11.5278,-4.2885 10.24601,-5.88676 -2.4962,-3.11251 -8.55401,6.13771 -4.87231,6.60878 4.4726,0.57228 7.61996,-5.39238 11.76664,-7.52128 2.91172,-1.49488 -5.72052,11.10898 -5.9008,6.16042 -0.12783,-3.5094 1.00105,1.81318 3.05061,1.42355"
       id="path3940"
       inkscape:connector-curvature="0"
       sodipodi:nodetypes="csssssssssssssssssc" />
    <path
       style="fill:none;stroke:#000000;stroke-width:0.60472435;stroke-linecap:butt;stroke-linejoin:miter;stroke-miterlimit:4;stroke-dasharray:none;stroke-opacity:1"
       d="m 211.14943,436.93646 c -3.84529,2.49927 2.2858,2.58568 0.64763,0.14063"
       id="path3942"
       inkscape:connector-curvature="0"
       sodipodi:nodetypes="cc" />
    <path
       style="fill:none;stroke:#000000;stroke-width:0.60472435;stroke-linecap:butt;stroke-linejoin:miter;stroke-miterlimit:4;stroke-dasharray:none;stroke-opacity:1"
       d="m 235.23143,436.85557 c -3.92928,3.12001 2.29979,1.60784 0.6121,0.21708"
       id="path3944"
       inkscape:connector-curvature="0"
       sodipodi:nodetypes="cc" />
    <path
       style="fill:none;stroke:#000000;stroke-width:0.60472435;stroke-linecap:butt;stroke-linejoin:miter;stroke-miterlimit:4;stroke-dasharray:none;stroke-opacity:1"
       d="m 251.95959,448.92358 c 5.88637,-2.59319 8.06889,-7.20301 11.60576,-7.71061 3.47835,-0.4992 -2.61457,6.33196 -0.67926,3.31344 0.79542,-1.24064 2.63545,-2.89282 0.36529,-2.77271 -5.04924,0.26713 -7.51334,8.78248 -2.39112,6.96229 9.49122,-3.37274 13.17531,-9.67567 16.36111,-13.66392 2.92126,-3.65706 0.86395,-2.9121 -1.32371,-0.32957 -3.01457,3.55867 -11.01715,12.7167 -10.68399,14.11823 0.22466,0.94508 6.6083,-7.6496 9.90575,-6.87502 2.41284,0.56678 -6.87652,5.75547 -4.63169,6.94476 2.47168,1.30949 13.15376,-8.08725 10.41019,-6.11886 -5.52047,3.96069 -4.82662,9.09181 0.089,4.01547 6.90358,-7.12941 -2.31023,-3.97266 0.65859,-2.07749 1.29287,0.82531 5.16205,0.31451 3.81631,1.3254 -9.068,6.8117 7.02974,-6.64654 6.64338,-4.03493 -0.35201,2.37955 -5.48901,9.35261 -6.30788,6.04714 -0.84723,-3.4199 0.82974,2.33171 5.14029,0.0599 2.35731,-1.24239 13.92237,-6.25164 8.93728,-6.27328 -4.12451,-0.0179 -9.27953,9.32933 -2.39996,6.90046 3.20708,-1.13227 6.8154,-5.64652 10.06342,-7.39133 2.63936,-1.41784 -3.27601,9.39597 -5.36806,7.46451 -2.07861,-1.91904 -0.96208,-2.52553 2.70037,0.0464"
       id="path3946"
       inkscape:connector-curvature="0"
       sodipodi:nodetypes="cssssssssssssssssssssc" />
    <path
       style="fill:none;stroke:#000000;stroke-width:0.60472435;stroke-linecap:butt;stroke-linejoin:miter;stroke-miterlimit:4;stroke-dasharray:none;stroke-opacity:1"
       d="m 311.86837,449.03133 c 4.19246,-0.78638 9.92686,-9.71329 12.44425,-6.70242 1.44188,1.72453 -2.67288,-2.4833 -6.52263,2.69704 -2.7314,3.67546 0.0137,5.11997 3.1157,2.7724 3.75936,-2.84425 6.36046,-6.08686 4.01644,-4.66572 -2.12105,1.28597 -6.10145,8.87297 -7.48922,10.68959 -4.37835,5.73133 -3.0647,1.09836 4.40254,-5.20402 1.593,-1.34451 8.63147,-2.08088 10.03065,-6.73429 0.35345,-1.17549 -5.90166,6.53836 -3.02771,6.62345 1.01803,0.0302 7.92061,-5.89834 6.96109,-6.34381 -0.71257,-0.33082 -6.40583,7.78658 -2.27504,6.35339 5.1315,-1.78037 8.67348,-3.08639 9.76663,-4.96359 1.21553,-2.08737 -0.20108,-1.89301 -2.45126,-0.46521 -3.38833,3.05358 -4.03808,6.6676 0.49686,5.67336"
       id="path3948"
       inkscape:connector-curvature="0"
       sodipodi:nodetypes="cssssssssssscc" />
    <path
       style="fill:none;stroke:#000000;stroke-width:0.60472435;stroke-linecap:butt;stroke-linejoin:miter;stroke-miterlimit:4;stroke-dasharray:none;stroke-opacity:1"
       d="m 347.59661,448.91818 c 4.53328,-1.49296 12.11361,-7.26051 14.35828,-11.14266 2.4639,-4.26126 0.7564,-2.25246 -1.70943,1.01021 -1.43409,1.89754 -10.6308,12.57441 -3.33297,9.47911 2.13996,-0.90765 7.64677,-4.24222 8.40373,-6.14307 0.72332,-1.81635 -6.26326,6.3793 -3.5719,6.4151 1.28964,0.0173 6.72048,-4.2763 7.45246,-6.2984 0.48223,-1.33221 -7.49719,7.56287 -2.75714,6.63007"
       id="path3950"
       inkscape:connector-curvature="0"
       sodipodi:nodetypes="cssssssc" />
    <path
       style="fill:none;stroke:#000000;stroke-width:0.60472435;stroke-linecap:butt;stroke-linejoin:miter;stroke-miterlimit:4;stroke-dasharray:none;stroke-opacity:1"
       d="m 353.92228,439.85301 c 5.07994,0.94117 4.23701,-0.55884 9.48307,-0.0338"
       id="path3952"
       inkscape:connector-curvature="0"
       sodipodi:nodetypes="cc" />
    <path
       style="fill:none;stroke:#000000;stroke-width:0.60472435;stroke-linecap:butt;stroke-linejoin:miter;stroke-miterlimit:4;stroke-dasharray:none;stroke-opacity:1"
       d="m 238.9219,473.16724 c 4.54925,-2.01023 10.86387,-6.59024 10.97118,-7.69633 0.13175,-1.35816 -6.49544,6.99135 -9.10498,10.83295 -5.75773,8.47614 -1.77395,0.52287 2.28511,-3.41131 1.50388,-1.45761 4.24105,-4.44215 5.79125,-5.36539 3.53119,-2.10302 4.71574,-0.58252 2.21972,2.49051 -2.04375,2.51623 -7.57248,3.34853 -5.55979,1.56997 1.59626,-1.41056 0.81845,3.25472 4.92546,1.70515 2.92116,-1.10214 9.01555,-4.48821 9.42754,-6.74031 0.18551,-1.01413 -7.04053,7.11651 -3.08123,6.32122 2.17293,-0.43646 4.87845,-2.33243 6.65313,-5.70372 1.14334,-2.17193 -4.86257,4.74548 -3.73106,6.00303 1.46513,1.62837 10.40223,-5.5399 11.05798,-6.48931 1.16299,-1.6838 -6.81594,5.74884 -3.81494,6.78741 1.83041,0.63349 7.25658,-4.42821 8.65382,-5.98636 4.2569,-4.74713 2.67143,0.43002 -0.72279,5.02582 -2.08311,2.82058 -3.16841,-1.82116 -2.42605,-0.95493 2.11199,2.46438 3.90027,2.79839 11.37924,-4.33096 1.18902,-1.13343 2.36317,-2.00929 2.51593,-0.90605 0.30033,2.16893 -3.54674,6.49725 -4.28557,7.25002 -1.48894,1.51706 -2.65351,-2.79672 -2.08514,-2.01987 1.88803,2.58064 2.26524,2.86765 9.20132,-0.49872 3.0317,-1.47143 8.5823,-4.2361 5.36098,-4.70108 -4.59289,-0.66295 -8.45124,9.1891 -2.77233,6.83349 2.9457,-1.22188 9.72267,-8.43063 10.22936,-7.05651 0.96201,2.6089 -6.56802,10.38614 -6.35757,5.59161 0.10304,-2.34796 1.44003,2.32485 3.54768,1.59269"
       id="path3954"
       inkscape:connector-curvature="0"
       sodipodi:nodetypes="csssssssssssssssssssssssssc" />
    <path
       style="fill:none;stroke:#000000;stroke-width:0.60472435;stroke-linecap:butt;stroke-linejoin:miter;stroke-miterlimit:4;stroke-dasharray:none;stroke-opacity:1"
       d="m 273.40176,461.96129 c -2.94995,1.42982 2.03505,1.72063 1.13026,-0.2678"
       id="path3956"
       inkscape:connector-curvature="0"
       sodipodi:nodetypes="cc" />
    <path
       style="fill:none;stroke:#000000;stroke-width:0.60472435;stroke-linecap:butt;stroke-linejoin:miter;stroke-miterlimit:4;stroke-dasharray:none;stroke-opacity:1"
       d="m 305.74832,473.4616 c 2.1741,-0.32426 4.27591,-1.82451 5.83031,-3.34128 4.55837,-4.44805 7.42144,-2.45796 6.17631,-3.47349 -1.71721,-1.40058 -9.29771,6.49694 -6.05007,6.63285 1.0324,0.0432 8.39829,-6.26983 7.6349,-6.26759 -1.70303,0.005 -7.01444,7.70498 -2.6375,6.27196 3.15426,-1.0327 7.12989,-5.98539 8.60752,-6.46166 3.32914,-1.07304 -5.71937,6.86817 -2.25381,6.26091 2.78706,-0.48839 4.51595,-3.11302 5.8895,-4.90307 1.38913,-1.81033 0.0355,-2.21806 -0.92015,-0.70504 -0.70761,1.12039 2.14416,3.137 6.02809,1.32804 1.91525,-0.89205 3.05715,-3.40935 0.53297,-1.11784 -7.27641,6.60569 -0.14046,8.16634 3.35271,1.40953 2.1851,-4.22655 -1.19601,-2.60144 -1.27255,-1.60449 -0.0563,0.73344 2.61735,2.03517 4.33533,2.20025 1.92399,0.1849 5.37751,-1.98034 5.32662,-3.20892 -0.056,-1.35361 -7.404,8.06319 -2.6859,6.76983 3.30883,-0.90705 10.83928,-9.14636 7.84689,-7.50688 -2.04695,1.12152 5.77901,-0.79281 -0.19131,4.54472 -1.53993,1.37671 -1.47837,3.18162 0.35089,3.11426"
       id="path3958"
       inkscape:connector-curvature="0"
       sodipodi:nodetypes="cssssssssssssssssssc" />
    <path
       style="fill:none;stroke:#000000;stroke-width:0.60472435;stroke-linecap:butt;stroke-linejoin:miter;stroke-miterlimit:4;stroke-dasharray:none;stroke-opacity:1"
       d="m 348.3416,461.96129 c -2.83807,2.21443 3.80892,0.0338 0.70022,-0.54061"
       id="path3960"
       inkscape:connector-curvature="0"
       sodipodi:nodetypes="cc" />
    <path
       style="fill:none;stroke:#000000;stroke-width:0.60472435;stroke-linecap:butt;stroke-linejoin:miter;stroke-miterlimit:4;stroke-dasharray:none;stroke-opacity:1"
       d="m 359.70919,468.31852 h 12.93466"
       id="path3964"
       inkscape:connector-curvature="0"
       sodipodi:nodetypes="cc" />
    <path
       sodipodi:nodetypes="cc"
       inkscape:connector-curvature="0"
       id="path4031"
       d="m 260.79317,570.65236 h 12.93465"
       style="fill:none;stroke:#000000;stroke-width:0.60472435;stroke-linecap:butt;stroke-linejoin:miter;stroke-miterlimit:4;stroke-dasharray:none;stroke-opacity:1" />
    <path
       style="fill:none;stroke:#000000;stroke-width:0.60472435;stroke-linecap:butt;stroke-linejoin:miter;stroke-miterlimit:4;stroke-dasharray:none;stroke-opacity:1"
       d="m 280.34171,575.89156 c 5.53051,-3.71197 6.03614,-1.38114 9.88564,-4.31684 2.88843,-2.20278 1.78331,-3.8117 -1.03076,-2.05451 -2.92449,1.82614 -5.09686,5.66257 -2.23104,6.11712 4.51745,0.71649 13.54798,-8.68323 15.40533,-11.28956 2.22259,-3.11885 0.94235,-1.66808 -2.00004,1.42409 -2.25386,2.36859 -8.98864,11.42235 -4.54835,9.91932"
       id="path4037"
       inkscape:connector-curvature="0"
       sodipodi:nodetypes="csssssc" />
    <path
       style="fill:none;stroke:#000000;stroke-width:0.60472435;stroke-linecap:butt;stroke-linejoin:miter;stroke-miterlimit:4;stroke-dasharray:none;stroke-opacity:1"
       d="m 294.36487,567.19619 c 2.6974,-0.50261 7.10373,0.20105 9.49957,-0.60314"
       id="path4039"
       inkscape:connector-curvature="0"
       sodipodi:nodetypes="cc" />
    <path
       style="fill:none;stroke:#000000;stroke-width:0.60472435;stroke-linecap:butt;stroke-linejoin:miter;stroke-miterlimit:4;stroke-dasharray:none;stroke-opacity:1"
       d="m 302.60788,575.64026 c 2.99822,0.76788 11.04066,-6.80537 10.02416,-6.61905 -2.46798,0.45235 -5.53767,6.707 -3.80603,6.75815 1.42125,0.042 7.29765,-4.6787 7.59331,-6.47345 0.24129,-1.46469 -6.57201,6.94275 -2.85829,6.50018 2.92274,-0.3483 10.36056,-9.25716 10.71023,-6.79751 0.22037,1.54996 -7.77549,8.99775 -5.2362,5.66601 2.04465,-2.68273 10.99327,-8.51443 8.13745,-4.27127 -1.43924,2.13843 -7.09129,7.27391 -0.22104,4.67834 2.65628,-1.00355 11.14745,-4.26064 9.54695,-5.83878 -2.25452,-2.22303 -10.72614,7.35922 -3.6332,6.599"
       id="path4041"
       inkscape:connector-curvature="0"
       sodipodi:nodetypes="csssssssssc" />
    <path
       style="fill:none;stroke:#000000;stroke-width:0.60472435;stroke-linecap:butt;stroke-linejoin:miter;stroke-miterlimit:4;stroke-dasharray:none;stroke-opacity:1"
       d="m 339.70138,575.8413 c 2.26187,-0.89593 12.07195,-6.21544 11.55667,-6.57017 -2.66036,-1.83151 -9.19231,6.90089 -5.49053,6.24237 3.45009,-0.61373 8.03866,-7.61129 11.10218,-10.72247 5.09047,-5.16972 5.48898,-7.09481 -0.21392,-0.32434 -3.93812,4.67533 -7.17484,6.5999 -7.29994,10.24191 -0.12578,3.6609 8.53573,-1.55317 10.47132,-3.17479 4.43317,-3.71407 -0.056,-3.13113 -2.89526,-0.58583 -2.52599,2.26443 -2.68199,6.10901 1.71455,4.72951 2.4285,-0.76199 9.12663,-7.94368 10.39691,-7.1205 1.66368,1.07807 -6.59442,9.8907 -6.72206,6.12771 -0.0978,-2.88204 0.92084,1.89311 3.71759,1.3073"
       id="path4043"
       inkscape:connector-curvature="0"
       sodipodi:nodetypes="cssssssssssc" />
    <path
       style="fill:none;stroke:#000000;stroke-width:0.60472435;stroke-linecap:butt;stroke-linejoin:miter;stroke-miterlimit:4;stroke-dasharray:none;stroke-opacity:1"
       d="m 277.62755,600.26874 c 3.77241,-0.30225 10.23467,-9.31732 10.37656,-6.62587 0.14882,2.82479 -9.48233,10.4921 -3.68604,4.29679 1.702,-1.81918 5.11083,-4.57962 6.57884,-4.57296 2.2991,0.0107 -1.90437,5.6526 -3.30684,6.4903 -4.00601,2.39278 5.29541,-6.50862 7.62103,-6.47383 2.35715,0.0353 -4.40255,5.45408 -3.66168,6.90601 0.70409,1.37993 9.56029,-3.46876 11.40199,-4.44993 4.22428,-2.25046 -1.43006,-4.77387 -3.85687,0.72454 -4.4449,10.07071 12.70651,-2.55458 11.66998,-2.87129 -1.85129,-0.56568 -10.78869,12.53953 2.19424,3.44977 9.4272,-6.60028 15.6453,-12.35632 13.55066,-12.25545 -5.39863,0.25992 -10.83828,8.68009 -11.94141,14.46572 -0.85456,4.482 14.47819,-6.61338 16.78584,-9.44885 4.38553,-5.38863 3.13861,-6.71522 -2.65228,-0.60353 -2.90896,3.0701 -8.83083,11.07491 -5.8566,11.05015 2.89391,-0.0241 15.27973,-5.88443 11.7227,-6.72502 -5.32298,-1.2579 -9.95001,10.95753 -0.84793,5.49594 1.82141,-1.09294 9.55947,-6.39928 7.35272,-5.45632 -4.52384,1.93302 -5.31881,7.07393 -2.10864,5.99589 1.1238,-0.3774 7.21811,-5.81527 6.32145,-5.79517 -2.10858,0.0473 -8.0738,9.3638 -0.67422,5.5362 1.7814,-0.92146 8.2845,-7.49451 6.63731,-6.71785 -2.27654,1.0734 -0.5808,1.00945 0.41767,1.11408 3.26231,0.34192 -6.09087,6.14072 -2.25522,6.66462 1.15495,0.15769 6.44041,-2.09246 9.5941,-4.00906 4.64069,-2.82031 3.06324,-4.54885 -0.79399,-1.94884 -3.00436,2.02513 -3.82822,6.23542 -0.56363,5.7804 2.1839,-0.30439 8.01399,-4.75335 9.2527,-5.96304 5.67608,-5.54297 -2.19339,8.60734 -4.0303,5.39159 -2.10822,-3.6907 1.56253,1.16455 2.91715,0.90676"
       id="path4045"
       inkscape:connector-curvature="0"
       sodipodi:nodetypes="csssssssssssssssssssssssssssssc" />
    <path
       style="fill:none;stroke:#000000;stroke-width:0.60472435;stroke-linecap:butt;stroke-linejoin:miter;stroke-miterlimit:4;stroke-dasharray:none;stroke-opacity:1"
       d="m 141.01489,624.99774 c 4.02671,0.15326 6.13365,-4.84762 9.43859,-6.52686 4.63912,-2.35711 1.04619,2.86109 1.91642,2.26302 3.91912,-2.69346 0.28433,-3.98243 -2.08031,-1.60792 -1.44448,1.45051 -4.118,4.25251 -2.1315,5.41855 1.20133,0.70518 4.22137,-0.80835 6.23748,-2.23189 5.44267,-3.84295 6.23825,-4.54692 11.89287,-10.49151 2.89545,-3.04395 1.38303,-5.13473 -2.09851,0.61105 -1.71274,2.82664 -9.2069,13.00896 -9.53823,12.50674 -0.85069,-1.28942 3.19065,-3.73122 4.35593,-4.52352 3.92428,-2.66825 6.5296,-3.65474 4.96609,-0.71725 -1.13772,2.13751 -6.56316,5.59194 -2.84437,5.22251 2.70425,-0.26863 5.63517,-3.46496 7.21374,-4.37606 1.0572,-0.61019 3.96127,-2.7204 1.90945,-1.95778 -2.41003,0.89572 -6.67178,6.50877 -2.88822,6.37577 4.01175,-0.14097 8.04276,-8.92109 3.70759,-5.89753 -2.32518,1.62168 4.3333,2.91837 6.61192,0.90497 7.78863,-6.88201 1.01893,3.9636 -0.91961,4.80833 -1.65202,0.71987 -2.41479,-2.43439 -1.36777,-1.68747 2.99759,2.13842 6.87604,0.98538 10.07459,-0.82609 6.99462,-3.96137 5.03273,-5.90828 0.67289,-2.59314 -1.61139,1.22525 -3.26426,4.74852 -1.31799,5.28815 2.2476,0.62319 4.6922,-1.89583 6.79262,-3.46992 1.89867,-1.42288 6.57408,-6.51921 5.19934,-1.60793 -0.69943,2.49872 -3.7516,5.48118 -5.23961,5.10046 -1.60919,-0.41171 -1.39134,-1.99927 -0.14421,-1.45747 0.37885,0.16452 1.72498,1.23071 2.80834,1.52337"
       id="path4047"
       inkscape:connector-curvature="0"
       sodipodi:nodetypes="csssssssssssssssssssssssssc" />
    <path
       style="fill:none;stroke:#000000;stroke-width:0.60472435;stroke-linecap:butt;stroke-linejoin:miter;stroke-miterlimit:4;stroke-dasharray:none;stroke-opacity:1"
       d="m 200.92743,624.89722 c 3.39528,-0.65902 11.33478,-5.73948 12.57066,-7.03422 1.14758,-1.20223 -7.08229,1.98379 -7.5249,5.57215 -0.53995,4.3776 9.17813,-4.7214 7.7083,-4.82482 -1.4429,-0.10155 -6.66146,10.70536 -8.30394,12.75911 -1.54612,1.93324 -1.50762,0.93648 1.21923,-3.27774 1.02497,-1.58404 2.34349,-2.4756 3.56049,-2.89512 1.72177,-0.59353 4.32764,-2.03595 6.64971,-3.388 4.52312,-2.63364 5.67816,-4.76547 3.35627,-3.15444 -2.62463,1.8211 -4.44854,6.43806 -1.68352,6.03546 1.57316,-0.22908 4.68972,-2.80516 6.45496,-5.86393 1.34639,-2.33299 -6.52027,5.91277 -2.76296,6.2028 0.6058,0.0467 2.40346,-1.2597 4.63808,-2.19833 3.48506,-1.46381 7.97104,-3.09906 7.29051,-4.2502 -1.43884,-2.4339 -7.59159,2.89507 -6.41332,5.71068 0.47518,1.13552 1.69939,1.09777 2.59346,0.25478"
       id="path4049"
       inkscape:connector-curvature="0"
       sodipodi:nodetypes="cssssssssssssssc" />
    <path
       style="fill:none;stroke:#000000;stroke-width:0.60472435;stroke-linecap:butt;stroke-linejoin:miter;stroke-miterlimit:4;stroke-dasharray:none;stroke-opacity:1"
       d="m 237.16649,624.99774 c 2.17649,-0.46572 12.77701,-9.44529 13.86055,-10.99048 3.18159,-4.53705 -1.63522,0.6948 -2.68214,1.69994 -1.58923,1.52583 -7.17904,8.97948 -4.12009,9.38859 1.20717,0.16145 4.78017,-2.12793 6.91199,-4.22027 8.65323,-8.49295 -5.19467,1.25317 0.0137,3.93267 2.06937,1.06465 9.13785,-8.22565 6.36832,-6.11768 -1.54922,1.17915 -5.7866,7.55335 -1.8054,6.25705"
       id="path4051"
       inkscape:connector-curvature="0"
       sodipodi:nodetypes="cssssssc" />
    <path
       style="fill:none;stroke:#000000;stroke-width:0.60472435;stroke-linecap:butt;stroke-linejoin:miter;stroke-miterlimit:4;stroke-dasharray:none;stroke-opacity:1"
       d="m 242.74558,616.50343 c 3.50654,-0.9078 6.08005,-0.30168 9.60008,-0.60313"
       id="path4053"
       inkscape:connector-curvature="0"
       sodipodi:nodetypes="cc" />
    <path
       style="fill:none;stroke:#000000;stroke-width:0.60472435;stroke-linecap:butt;stroke-linejoin:miter;stroke-miterlimit:4;stroke-dasharray:none;stroke-opacity:1"
       d="m 313.96714,588.55764 c -1.96941,-1.04865 -2.28264,3.15933 0.60309,0.95586"
       id="path4055"
       inkscape:connector-curvature="0"
       sodipodi:nodetypes="cc" />
    <path
       style="fill:none;stroke:#000000;stroke-width:0.60472435;stroke-linecap:butt;stroke-linejoin:miter;stroke-miterlimit:4;stroke-dasharray:none;stroke-opacity:1"
       d="m 261.94575,625.04801 c 2.19762,-0.0154 7.41598,-3.18715 9.54407,-5.71492 1.49318,-1.77364 3.20072,-4.59997 0.45973,-1.58787 -4.1323,4.541 -5.51956,7.36056 -9.2173,12.41283 -1.77654,2.42728 -2.32282,0.38833 0.35379,-2.00076 2.83578,-2.5312 7.14395,-7.23567 10.24423,-9.38353 2.87064,-1.98876 3.3259,1.11545 2.11245,2.17807 -0.89805,0.78643 -7.66714,5.30913 -6.16633,2.66898 1.22556,-2.15591 0.51602,2.35261 3.70959,1.40744 1.40974,-0.41723 7.00902,-4.13826 9.10729,-5.89893 2.59724,-2.17934 0.89884,-1.80131 -0.57276,0.24988 -2.2757,3.17201 -3.78084,5.24442 -1.26066,5.01412 1.44672,-0.13226 8.24733,-5.99573 6.76533,-6.12181 -0.88464,-0.0753 -6.35969,7.64493 -2.62197,6.55196 3.68062,-1.07626 8.35442,-4.03181 9.51885,-5.93089 1.67666,-2.73451 -5.0254,3.98096 -3.76801,5.43601 1.10828,1.2825 5.71033,-1.84527 8.09494,-4.32933 4.48841,-4.67558 3.97347,-1.80169 2.84093,0.86835 -0.71562,1.68712 -4.69425,5.83402 -5.27546,2.74321 -0.389,-2.0687 1.78557,4.02858 6.82156,-0.77429 1.85249,-1.76674 3.12167,-2.64959 4.9301,-4.4217 3.9249,-3.84606 2.32515,0.83251 0.23467,3.88838 -0.8658,1.26565 -3.7078,3.34357 -4.28123,1.44139 -0.91187,-3.02485 1.74859,3.24246 7.09222,-0.46402 2.33625,-1.62051 4.68688,-0.92596 6.97546,-2.99128 2.76127,-2.49189 -0.39521,-2.99324 -2.20465,-1.37579 -1.60836,1.43774 -5.6246,5.8217 -1.84954,6.10184 2.86074,0.21228 7.53059,-3.97784 8.49992,-4.97339 3.3966,-3.48842 3.72378,-3.40454 3.0478,0.36834 -0.66435,3.70797 -5.68895,5.50241 -5.97719,4.00075 -0.5478,-2.85403 0.61717,1.52713 3.65896,0.58692"
       id="path4057"
       inkscape:connector-curvature="0"
       sodipodi:nodetypes="csssssssssssssssssssssssssssssc" />
    <path
       style="fill:none;stroke:#000000;stroke-width:0.60472435;stroke-linecap:butt;stroke-linejoin:miter;stroke-miterlimit:4;stroke-dasharray:none;stroke-opacity:1"
       d="m 295.72196,613.63846 c -0.70127,2.63208 4.12481,0.62043 1.46706,-0.6253"
       id="path4059"
       inkscape:connector-curvature="0"
       sodipodi:nodetypes="cc" />
    <path
       style="fill:none;stroke:#000000;stroke-width:0.60472435;stroke-linecap:butt;stroke-linejoin:miter;stroke-miterlimit:4;stroke-dasharray:none;stroke-opacity:1"
       d="m 329.29711,625.03581 c 1.41733,-0.34205 4.06661,-1.37624 6.50916,-2.28055 1.6714,-0.61883 4.55188,-2.04204 5.41245,-3.62703 0.9631,-1.77385 -2.11866,-1.40247 -3.95175,0.21844 -1.08493,0.95931 -3.46957,3.93343 -2.14202,5.03557 1.50139,1.24649 5.45184,-0.77607 7.07061,-2.15518 1.35258,-1.15232 7.54677,-5.33874 9.56182,-8.33758 1.31759,-1.96088 0.70529,-2.5193 -0.71011,-0.64142 -1.07142,1.42153 -6.28153,7.20881 -7.36648,9.69841 -0.91814,2.10685 1.11484,2.42025 2.05012,1.87696 1.95113,-1.13338 8.50318,-5.3265 8.76735,-7.43048 0.19934,-1.58756 -2.13103,1.21907 -0.90465,0.98868 1.13573,-0.21334 3.15278,-0.79597 1.98056,1.11612 -1.5647,2.55224 -7.28133,6.49069 -3.01688,5.44962 3.09274,-0.75503 9.8743,-3.40461 11.30158,-5.05358 1.73346,-2.0027 0.6209,-2.6917 -1.3409,-2.01219 -1.94608,0.67407 -3.30458,2.70239 -4.19129,5.21194 -0.472,1.33579 0.26488,2.9634 2.84154,1.58901"
       id="path4061"
       inkscape:connector-curvature="0"
       sodipodi:nodetypes="cssssssssssssssssc" />
    <path
       style="fill:none;stroke:#000000;stroke-width:0.60472435;stroke-linecap:butt;stroke-linejoin:miter;stroke-miterlimit:4;stroke-dasharray:none;stroke-opacity:1"
       d="m 364.22933,623.48988 c -0.60532,3.58593 2.70215,0.0544 1.05606,-0.60203"
       id="path4063"
       inkscape:connector-curvature="0"
       sodipodi:nodetypes="cc" />
    <path
       style="fill:none;stroke:#000000;stroke-width:0.60472435;stroke-linecap:butt;stroke-linejoin:miter;stroke-miterlimit:4;stroke-dasharray:none;stroke-opacity:1"
       d="m 337.99246,615.95053 c 0.90399,0.002 2.31057,-0.45406 3.41561,-1.65726 0.12664,0.90559 0.67076,1.44273 1.3586,2.15877"
       id="path4065"
       inkscape:connector-curvature="0"
       sodipodi:nodetypes="ccc" />
    <path
       sodipodi:nodetypes="cc"
       inkscape:connector-curvature="0"
       id="path4251"
       d="m 345.6857,614.53647 c 2.6974,-0.50261 7.10373,0.20104 9.49956,-0.60316"
       style="fill:none;stroke:#000000;stroke-width:0.60472435;stroke-linecap:butt;stroke-linejoin:miter;stroke-miterlimit:4;stroke-dasharray:none;stroke-opacity:1" />
  </g>
</svg>
