<?xml version="1.0" encoding="UTF-8" standalone="no"?>
<!-- Created with Inkscape (http://www.inkscape.org/) -->

<svg
   xmlns:dc="http://purl.org/dc/elements/1.1/"
   xmlns:cc="http://creativecommons.org/ns#"
   xmlns:rdf="http://www.w3.org/1999/02/22-rdf-syntax-ns#"
   xmlns:svg="http://www.w3.org/2000/svg"
   xmlns="http://www.w3.org/2000/svg"
   xmlns:sodipodi="http://sodipodi.sourceforge.net/DTD/sodipodi-0.dtd"
   xmlns:inkscape="http://www.inkscape.org/namespaces/inkscape"
   width="150mm"
   height="150mm"
   id="svg5427"
   version="1.1"
   inkscape:version="0.92.1 r15371"
   sodipodi:docname="Winnie-font.svg">
  <defs
     id="defs5429">
    <clipPath
       clipPathUnits="userSpaceOnUse"
       id="clipPath6231">
      <rect
         style="opacity:0.98999999;fill:none;stroke:#ff0000;stroke-width:1.78100002;stroke-linecap:square;stroke-linejoin:miter;stroke-miterlimit:4;stroke-dasharray:none;stroke-dashoffset:17.01120567;stroke-opacity:0.43891404"
         id="rect6233"
         width="85"
         height="104.64286"
         x="111.07143"
         y="497.89789" />
    </clipPath>
  </defs>
  <sodipodi:namedview
     id="base"
     pagecolor="#ffffff"
     bordercolor="#666666"
     borderopacity="1.0"
     inkscape:pageopacity="0.0"
     inkscape:pageshadow="2"
     inkscape:zoom="1.4"
     inkscape:cx="168.83652"
     inkscape:cy="321.98509"
     inkscape:document-units="px"
     inkscape:current-layer="layer1"
     showgrid="false"
     inkscape:window-width="1920"
     inkscape:window-height="1016"
     inkscape:window-x="0"
     inkscape:window-y="27"
     inkscape:window-maximized="1"
     fit-margin-top="5"
     fit-margin-left="5"
     fit-margin-right="5"
     fit-margin-bottom="5" />
  <metadata
     id="metadata5432">
    <rdf:RDF>
      <cc:Work
         rdf:about="">
        <dc:format>image/svg+xml</dc:format>
        <dc:type
           rdf:resource="http://purl.org/dc/dcmitype/StillImage" />
        <dc:title></dc:title>
      </cc:Work>
    </rdf:RDF>
  </metadata>
  <g
     inkscape:label="Calque 1"
     inkscape:groupmode="layer"
     id="layer1"
     transform="translate(-78.517993,-80.991702)">
    <rect
       style="color:#000000;display:inline;overflow:visible;visibility:visible;opacity:0.98999999;fill:none;stroke:#ff0000;stroke-width:0.00133333;stroke-linecap:butt;stroke-linejoin:miter;stroke-miterlimit:4;stroke-dasharray:none;stroke-dashoffset:0;stroke-opacity:1;marker:none;enable-background:accumulate"
       id="rect6553"
       width="527.65088"
       height="527.65088"
       x="98.157127"
       y="100.63084" />
    <g
       style="fill:none;stroke:#00e300;stroke-width:0.00078125;stroke-miterlimit:4;stroke-dasharray:none;stroke-opacity:1"
       id="g6559"
       transform="matrix(1.7066666,0,0,1.7066666,33.364362,-568.07712)">
      <g
         id="g12972"
         style="stroke-width:0.03984375;stroke-miterlimit:4;stroke-dasharray:none">
        <path
           style="fill:none;stroke:#00e300;stroke-width:0.00078125;stroke-linecap:butt;stroke-linejoin:miter;stroke-miterlimit:4;stroke-dasharray:none;stroke-opacity:1"
           d="m 142.5,565.04075 c -1.6279,3.84432 -0.39286,6.32579 0.89286,9.28572 0.76036,1.75047 1.55618,4.2295 0.35714,5.71428 -2.32304,2.87663 -1.48015,5.21079 1.78572,6.96428 4.12065,2.21243 5.81669,0.84185 5.66963,-1.60713 -0.10609,-1.76659 -2.99106,-3.75 -2.99106,-3.75 0,0 1.35704,-3.40367 1.78571,-5.17858 0.49406,-2.04567 0.44689,-4.06204 -0.17856,-6.07143 -0.62596,-2.011 -3.57144,-5.22321 -3.57144,-5.22321"
           id="path6235"
           inkscape:connector-curvature="0"
           sodipodi:nodetypes="csssscssc" />
        <path
           style="fill:none;stroke:#00e300;stroke-width:0.00078125;stroke-linecap:butt;stroke-linejoin:miter;stroke-miterlimit:4;stroke-dasharray:none;stroke-opacity:1"
           d="m 162.64475,545.03244 c 0,0 2.1056,11.93722 0.7481,17.50831 -1.16511,4.78153 -3.09206,8.63364 -7.14285,11.42857 -1.60339,1.10629 -4.16827,1.51876 -6.02476,1.34378"
           id="path6237"
           inkscape:connector-curvature="0"
           sodipodi:nodetypes="cssc" />
        <path
           style="fill:none;stroke:#00e300;stroke-width:0.00078125;stroke-linecap:butt;stroke-linejoin:miter;stroke-miterlimit:4;stroke-dasharray:none;stroke-opacity:1"
           d="m 142.81364,572.99914 c 0,0 -3.75936,-4.13129 -4.64399,-6.88696 -1.1861,-3.69476 -0.71163,-7.41277 -0.13394,-11.25 0.28162,-1.87061 1.56023,-5.67051 1.56023,-5.67051"
           id="path6239"
           inkscape:connector-curvature="0"
           sodipodi:nodetypes="cssc" />
        <path
           style="fill:none;stroke:#00e300;stroke-width:0.00078125;stroke-linecap:butt;stroke-linejoin:miter;stroke-miterlimit:4;stroke-dasharray:none;stroke-opacity:1"
           d="m 157.00893,573.38896 c 4.63168,3.75246 2.41677,3.67422 3.70536,6.38393 0.54228,1.14032 2.85526,1.11157 3.92857,0.44644 2.70383,-1.67558 4.87093,-2.17077 4.64285,-4.64286 -0.19995,-2.16719 -2.67071,-2.28546 -5.18083,-2.07772 0.15643,-2.6188 -0.36266,-4.10357 -1.60714,-6.33928"
           id="path6241"
           inkscape:connector-curvature="0"
           sodipodi:nodetypes="cssscc" />
        <path
           style="fill:none;stroke:#00e300;stroke-width:0.00078125;stroke-linecap:butt;stroke-linejoin:miter;stroke-miterlimit:4;stroke-dasharray:none;stroke-opacity:1"
           d="m 143.75,543.61218 c 2.30872,-2.16146 6.85821,-7.47345 9.82143,-6.25 1.62212,0.75843 2.51061,3.29471 1.96428,5 -0.4332,1.35216 -1.50398,0.70222 -3.57142,2.32143 -2.06744,1.61921 -5.53466,7.23078 -9.15047,7.09953 -4.62095,-0.16775 -3.71145,-6.26412 -2.18882,-9.86739 0.99245,-2.3486 2.7155,-6.14829 5.625,-6.33928 1.17897,-0.0774 2.97698,3.02063 2.97698,3.02063"
           id="path6243"
           inkscape:connector-curvature="0"
           sodipodi:nodetypes="ccszsssc" />
        <path
           style="fill:none;stroke:#00e300;stroke-width:0.00078125;stroke-linecap:butt;stroke-linejoin:miter;stroke-miterlimit:4;stroke-dasharray:none;stroke-opacity:1"
           d="m 155.52489,542.42532 c 2.91999,2.76368 7.29937,3.51447 10.89602,1.46238 -0.1656,-1.69743 4.08527,-0.81495 5.18623,-3.93623 0.39396,-0.0915 0.81529,-0.19108 0.98214,-0.625 0.30211,-0.78571 0.27857,-1.5353 -0.44642,-1.65179 -1.3352,-0.21455 -1.98125,1.07756 -0.52936,2.35328 -1.09933,-1.01531 -1.10104,-1.94975 -1.69644,-3.14733 -0.13555,-0.70383 -0.11965,-2.38767 -0.26337,-3.08988 -0.21603,-2.73986 -3.30249,-5.72269 -3.47766,-8.01591 0.77663,-1.39894 1.76912,-2.63449 0.78825,-3.50195 -0.42839,-0.35905 -1.79641,-0.85485 -2.54464,-0.35714 -0.91935,1.12892 -0.94362,1.21779 -0.89061,2.95541 0.97725,-0.10261 1.73353,0.0644 2.86571,1.8845"
           id="path6245"
           inkscape:connector-curvature="0"
           sodipodi:nodetypes="cccsscccccccc" />
        <path
           style="fill:none;stroke:#00e300;stroke-width:0.00078125;stroke-linecap:butt;stroke-linejoin:miter;stroke-miterlimit:4;stroke-dasharray:none;stroke-opacity:1"
           d="m 153.18813,537.24447 c 0,0 0.3078,-1.37705 -0.15242,-1.84657 -1.17176,-0.60088 -1.33228,0.18305 -2.12053,0.7366 -1.33165,0.93515 -1.39552,-1.09898 -2.0759,-1.78571 -2.01646,-2.03527 -3.8859,-1.83376 -3.58991,1.43467"
           id="path6249"
           inkscape:connector-curvature="0"
           sodipodi:nodetypes="ccssc" />
        <path
           style="fill:none;stroke:#00e300;stroke-width:0.00078125;stroke-linecap:butt;stroke-linejoin:miter;stroke-miterlimit:4;stroke-dasharray:none;stroke-opacity:1"
           d="m 149.46429,521.82647 c 0.5115,-0.40875 1.50129,-0.46299 1.96428,0 0.67343,0.67343 -0.43586,2.01034 0,2.85714 1.03318,2.00729 4.30014,1.6082 5.17857,3.03571 1.50088,2.43902 -0.48701,4.74114 -2.85714,3.48214 -2.81134,-1.49336 -7.51842,-6.79168 -4.28571,-9.37499 z"
           id="path6251"
           inkscape:connector-curvature="0"
           sodipodi:nodetypes="ssssss" />
        <path
           style="fill:none;stroke:#00e300;stroke-width:0.00078125;stroke-linecap:butt;stroke-linejoin:miter;stroke-miterlimit:4;stroke-dasharray:none;stroke-opacity:1"
           d="m 151.56917,522.02666 c 2.56177,-2.87364 5.04866,-2.19058 6.1094,1.76409 0,0 1.63572,-0.54207 2.32143,-0.17857 0.84801,0.44953 0.66352,1.92044 1.42857,2.5 2.65339,1.07739 2.37983,-1.3943 1.42857,-3.03571 -2.10949,-2.50125 -3.76213,-2.7502 -6.74194,-2.19518"
           id="path6253"
           inkscape:connector-curvature="0"
           sodipodi:nodetypes="ccsccc" />
        <path
           style="fill:none;stroke:#00e300;stroke-width:0.00078125;stroke-linecap:butt;stroke-linejoin:miter;stroke-miterlimit:4;stroke-dasharray:none;stroke-opacity:1"
           d="m 149.51334,521.77542 c 0,0 -0.80364,-1.99055 -0.76334,-3.02931 0.34901,-1.70618 1.34872,-3.09112 2.14286,-4.0625 -0.0168,-1.13708 -1.96967,-1.41857 -2.32143,-2.5 -0.30457,-2.19622 0.21001,-4.04375 1.25,-5.89286 4.01902,3.92175 1.69163,4.73838 3.57143,6.60715 0.93969,0.62931 2.42191,-0.57994 3.39285,0 0.93456,1.20335 1.35937,3.34868 2.07973,4.0765 0.54205,0.478 1.8727,0.75742 2.94194,0.79816 -0.36189,1.23034 -1.17751,2.01409 -1.7271,3.11329"
           id="path6255"
           inkscape:connector-curvature="0"
           sodipodi:nodetypes="cccccccccc" />
        <path
           style="fill:none;stroke:#00e300;stroke-width:0.00078125;stroke-linecap:butt;stroke-linejoin:miter;stroke-miterlimit:4;stroke-dasharray:none;stroke-opacity:1"
           d="m 154.25955,513.06565 c 0.75142,-2.63849 2.04962,-4.24515 4.49045,-4.81061 0,0 0.19219,2.67122 -0.17857,3.92857 -0.23389,0.79317 -1.09218,1.90343 -1.09218,1.90343"
           id="path6257"
           inkscape:connector-curvature="0"
           sodipodi:nodetypes="ccsc" />
        <path
           style="fill:none;stroke:#00e300;stroke-width:0.00078125;stroke-linecap:butt;stroke-linejoin:miter;stroke-miterlimit:4;stroke-dasharray:none;stroke-opacity:1"
           d="m 148.74146,519.13482 c -4.26808,2.63252 -7.65222,5.42104 -7.62539,10.45951 0.1636,2.9831 1.01188,4.6226 2.92296,6.9223"
           id="path6259"
           inkscape:connector-curvature="0"
           sodipodi:nodetypes="ccc" />
        <path
           style="fill:none;stroke:#00e300;stroke-width:0.00078125;stroke-linecap:butt;stroke-linejoin:miter;stroke-miterlimit:4;stroke-dasharray:none;stroke-opacity:1"
           d="m 175.71429,555.57647 c -2.56204,0.2615 -4.40733,1.99188 -4.59954,4.23341 -0.24191,2.82112 2.57578,3.85609 4.0403,1.69008 2.01037,-2.02708 3.53379,-6.22709 0.55924,-5.92349 z"
           id="path6261"
           inkscape:connector-curvature="0"
           sodipodi:nodetypes="sscs" />
        <path
           style="fill:none;stroke:#00e300;stroke-width:0.00078125;stroke-linecap:butt;stroke-linejoin:miter;stroke-miterlimit:4;stroke-dasharray:none;stroke-opacity:1"
           d="m 161.93721,566.99723 c 7.28984,2.1074 7.46019,0.6767 10.78287,-4.38575"
           id="path6263"
           inkscape:connector-curvature="0"
           sodipodi:nodetypes="cc" />
        <path
           style="fill:none;stroke:#00e300;stroke-width:0.00078125;stroke-linecap:butt;stroke-linejoin:miter;stroke-miterlimit:4;stroke-dasharray:none;stroke-opacity:1"
           d="m 169.45531,547.48209 c 2.36975,0.64651 5.59716,1.95113 5.12255,3.71302 -0.30061,1.11597 -2.25643,-0.0829 -2.25643,-0.0829 0.44297,2.7776 -2.0476,2.46676 -2.85714,0.71429 -1.61254,2.73681 -3.46676,-0.6223 -2.14286,-1.78572 -2.1471,1.24999 -3.58371,0.16769 -4.21584,-2.0035 1.69708,-1.57348 4.44808,-1.0665 6.34972,-0.55519 z"
           id="path6265"
           inkscape:connector-curvature="0"
           sodipodi:nodetypes="csccccc" />
        <path
           style="fill:none;stroke:#00e300;stroke-width:0.00078125;stroke-linecap:butt;stroke-linejoin:miter;stroke-miterlimit:4;stroke-dasharray:none;stroke-opacity:1"
           d="m 174.11163,551.63618 0.17408,4.29743"
           id="path6267"
           inkscape:connector-curvature="0"
           sodipodi:nodetypes="cc" />
        <ellipse
           style="opacity:0.98999999;fill:none;stroke:#00e300;stroke-width:0.00078125;stroke-linecap:square;stroke-linejoin:miter;stroke-miterlimit:4;stroke-dasharray:none;stroke-dashoffset:17.01120567;stroke-opacity:1"
           id="path6277"
           cx="162.1875"
           cy="536.58093"
           rx="0.35714287"
           ry="0.87053573" />
        <ellipse
           id="path6279"
           style="opacity:0.98999999;fill:none;stroke:#00e300;stroke-width:0.00078125;stroke-linecap:square;stroke-linejoin:miter;stroke-miterlimit:4;stroke-dasharray:none;stroke-dashoffset:17.01120567;stroke-opacity:1"
           transform="translate(5.8482143,-1.0714286)"
           cx="162.1875"
           cy="536.58093"
           rx="0.35714287"
           ry="0.87053573" />
        <path
           style="fill:none;stroke:#00e300;stroke-width:0.00078125;stroke-linecap:butt;stroke-linejoin:miter;stroke-miterlimit:4;stroke-dasharray:none;stroke-opacity:1"
           d="m 150.91518,528.94701 c -1.09655,1.85807 -1.81699,3.83706 -1.72586,5.93266"
           id="path6281"
           inkscape:connector-curvature="0"
           sodipodi:nodetypes="cc" />
        <ellipse
           id="path6283"
           style="opacity:0.98999999;fill:none;stroke:#00e300;stroke-width:0.00096844;stroke-linecap:square;stroke-linejoin:miter;stroke-miterlimit:4;stroke-dasharray:none;stroke-dashoffset:17.01120567;stroke-opacity:1"
           transform="matrix(0.80670995,0,0,0.80670995,24.39318,85.26469)"
           cx="162.1875"
           cy="536.58093"
           rx="0.35714287"
           ry="0.87053573" />
        <path
           style="fill:none;stroke:#00e300;stroke-width:0.00078125;stroke-linecap:butt;stroke-linejoin:miter;stroke-miterlimit:4;stroke-dasharray:none;stroke-opacity:1"
           d="m 128.08036,587.8979 c 0.10013,-2.03421 -2.09926,-4.18944 -4.19643,-6.33929 2.61608,1.064 5.87813,3.74295 9.19643,6.5625 -2.60501,-3.9881 -5.54037,-7.97619 -9.33036,-11.96429 4.068,3.7995 7.68401,7.68939 11.16071,11.60715 -1.81557,-3.44293 -4.33751,-7.37613 -8.03571,-11.65179 4.05778,3.63095 6.91571,7.26191 9.6875,10.89286 -1.96366,-4.39498 -4.73981,-8.60941 -7.76786,-12.76786 3.56921,3.5295 6.99738,7.23138 9.50893,12.05357 0.11634,-1.66472 0.55509,-2.97119 -1.38393,-6.91964 1.17346,1.88394 2.70666,3.26425 3.34822,5.89286 0.19751,-2.19075 0.30795,-4.33409 -0.53572,-5.66965 1.19351,1.41687 1.89649,2.04002 2.14286,5.44643"
           id="path6285"
           inkscape:connector-curvature="0"
           sodipodi:nodetypes="ccccccccccccc" />
        <path
           style="fill:none;stroke:#00e300;stroke-width:0.00078125;stroke-linecap:butt;stroke-linejoin:miter;stroke-miterlimit:4;stroke-dasharray:none;stroke-opacity:1"
           d="m 151.74107,585.30861 c -0.29257,-1.39881 -0.46941,-2.79762 -1.5625,-4.19643 2.69321,1.64124 3.06494,4.11158 4.24107,6.29464 0.077,-2.52823 0.2524,-5.05568 -0.35714,-7.58928 1.04181,1.60603 2.02367,3.69159 2.94643,6.25 0.32588,-1.14018 0.26119,-2.35848 1.11607,-3.39286 -0.18247,0.36504 0.12934,2.8618 1.42857,3.79464 0.45101,-1.79037 2.85714,-3.66071 2.85714,-3.66071 -0.19425,0.54427 -1.56397,3.80171 -1.07142,4.10714 0.0127,-1.42227 6.20095,-5.42443 7.8125,-6.25 -2.16543,2.22178 -5.45783,4.66895 -4.86608,6.33929 1.5625,-1.47716 3.125,-1.62563 4.6875,-1.83036 -0.78425,0.81261 -1.81457,1.56844 -1.11607,2.72322 0.30565,-0.48787 1.21295,-0.81226 2.58929,-1.16072 -0.31423,0.61192 -1.01724,1.25 -0.17857,1.875"
           id="path6287"
           inkscape:connector-curvature="0"
           sodipodi:nodetypes="ccccccccccccccc" />
      </g>
    </g>
    <text
       xml:space="preserve"
       style="font-style:normal;font-weight:normal;font-size:40px;line-height:0.5;font-family:sans-serif;letter-spacing:0px;word-spacing:0px;fill:#000000;fill-opacity:1;stroke:none"
       x="478.0246"
       y="283.92914"
       id="text12800"><tspan
         sodipodi:role="line"
         id="tspan12798"
         x="478.0246"
         y="283.92914"
         style="font-style:normal;font-variant:normal;font-weight:normal;font-stretch:normal;font-size:26.66666603px;line-height:0.5;font-family:'Alex Brush';-inkscape-font-specification:'Alex Brush, Normal';font-variant-ligatures:normal;font-variant-caps:normal;font-variant-numeric:normal;font-feature-settings:normal;text-align:end;writing-mode:lr-tb;text-anchor:end">Un ami est une des plus</tspan><tspan
         sodipodi:role="line"
         x="483.285"
         y="306.71976"
         id="tspan12804"
         style="font-style:normal;font-variant:normal;font-weight:normal;font-stretch:normal;font-size:26.66666603px;line-height:0.5;font-family:'Alex Brush';-inkscape-font-specification:'Alex Brush, Normal';font-variant-ligatures:normal;font-variant-caps:normal;font-variant-numeric:normal;font-feature-settings:normal;text-align:end;writing-mode:lr-tb;text-anchor:end">jolies choses que tu </tspan><tspan
         sodipodi:role="line"
         x="478.0246"
         y="329.51038"
         style="font-style:normal;font-variant:normal;font-weight:normal;font-stretch:normal;font-size:26.66666603px;line-height:0.5;font-family:'Alex Brush';-inkscape-font-specification:'Alex Brush, Normal';font-variant-ligatures:normal;font-variant-caps:normal;font-variant-numeric:normal;font-feature-settings:normal;text-align:end;writing-mode:lr-tb;text-anchor:end"
         id="tspan12808">puisses avoir...</tspan></text>
    <text
       xml:space="preserve"
       style="font-style:normal;font-variant:normal;font-weight:normal;font-stretch:normal;font-size:26.66666603px;line-height:1.25;font-family:'Alex Brush';-inkscape-font-specification:'Alex Brush, Normal';font-variant-ligatures:normal;font-variant-caps:normal;font-variant-numeric:normal;font-feature-settings:normal;text-align:end;letter-spacing:0px;word-spacing:0px;writing-mode:lr-tb;text-anchor:end;fill:#000000;fill-opacity:1;stroke:none"
       x="478.0246"
       y="389.49008"
       id="text12812"><tspan
         sodipodi:role="line"
         id="tspan12810"
         x="478.0246"
         y="389.49008">... et une des</tspan><tspan
         sodipodi:role="line"
         x="478.0246"
         y="422.82343"
         id="tspan12814">meilleures</tspan><tspan
         sodipodi:role="line"
         x="478.0246"
         y="456.15674"
         id="tspan12816">choses que tu puisses être.</tspan></text>
  </g>
</svg>
