<?xml version="1.0" encoding="UTF-8" standalone="no"?>
<!-- Created with Inkscape (http://www.inkscape.org/) -->

<svg
   xmlns:dc="http://purl.org/dc/elements/1.1/"
   xmlns:cc="http://creativecommons.org/ns#"
   xmlns:rdf="http://www.w3.org/1999/02/22-rdf-syntax-ns#"
   xmlns:svg="http://www.w3.org/2000/svg"
   xmlns="http://www.w3.org/2000/svg"
   xmlns:sodipodi="http://sodipodi.sourceforge.net/DTD/sodipodi-0.dtd"
   xmlns:inkscape="http://www.inkscape.org/namespaces/inkscape"
   width="210mm"
   height="297mm"
   id="svg5427"
   version="1.1"
   inkscape:version="0.48.4 r9939"
   sodipodi:docname="Winnie2.svg">
  <defs
     id="defs5429">
    <clipPath
       clipPathUnits="userSpaceOnUse"
       id="clipPath6231">
      <rect
         style="opacity:0.98999999;fill:none;stroke:#ff0000;stroke-width:1.78100002;stroke-linecap:square;stroke-linejoin:miter;stroke-miterlimit:4;stroke-opacity:0.43891404;stroke-dasharray:none;stroke-dashoffset:17.01120644"
         id="rect6233"
         width="85"
         height="104.64286"
         x="111.07143"
         y="497.89789" />
    </clipPath>
  </defs>
  <sodipodi:namedview
     id="base"
     pagecolor="#ffffff"
     bordercolor="#666666"
     borderopacity="1.0"
     inkscape:pageopacity="0.0"
     inkscape:pageshadow="2"
     inkscape:zoom="1"
     inkscape:cx="368.28557"
     inkscape:cy="441.42454"
     inkscape:document-units="px"
     inkscape:current-layer="layer1"
     showgrid="false"
     inkscape:window-width="1680"
     inkscape:window-height="997"
     inkscape:window-x="1912"
     inkscape:window-y="-8"
     inkscape:window-maximized="1" />
  <metadata
     id="metadata5432">
    <rdf:RDF>
      <cc:Work
         rdf:about="">
        <dc:format>image/svg+xml</dc:format>
        <dc:type
           rdf:resource="http://purl.org/dc/dcmitype/StillImage" />
        <dc:title></dc:title>
      </cc:Work>
    </rdf:RDF>
  </metadata>
  <g
     inkscape:label="Calque 1"
     inkscape:groupmode="layer"
     id="layer1">
    <text
       xml:space="preserve"
       style="font-size:24px;font-style:normal;font-variant:normal;font-weight:bold;font-stretch:normal;text-align:start;line-height:125%;letter-spacing:0px;word-spacing:0px;writing-mode:lr-tb;text-anchor:start;fill:#000000;fill-opacity:1;stroke:none;font-family:Verdana;-inkscape-font-specification:Verdana Bold"
       x="168.30971"
       y="511.55176"
       id="text6297"
       sodipodi:linespacing="125%"><tspan
         sodipodi:role="line"
         id="tspan6299"
         x="168.30971"
         y="511.55176"
         style="font-size:medium;font-style:normal;font-variant:normal;font-weight:normal;font-stretch:normal;text-indent:0;text-align:start;text-decoration:none;line-height:125%;letter-spacing:0;word-spacing:0;text-transform:none;direction:ltr;block-progression:tb;writing-mode:lr-tb;text-anchor:start;baseline-shift:baseline;color:#000000;fill:none;stroke:#000000;stroke-width:0.35433072;stroke-linecap:butt;stroke-linejoin:miter;stroke-miterlimit:4;stroke-opacity:1;stroke-dasharray:none;stroke-dashoffset:0;marker:none;visibility:visible;display:inline;overflow:visible;enable-background:accumulate;font-family:Vladimir Script;-inkscape-font-specification:Vladimir Script" /></text>
    <text
       xml:space="preserve"
       style="font-size:12px;font-style:normal;font-variant:normal;font-weight:normal;font-stretch:normal;text-align:start;line-height:125%;letter-spacing:0px;word-spacing:0px;writing-mode:lr-tb;text-anchor:start;fill:#000000;fill-opacity:1;stroke:none;font-family:Vladimir Script;-inkscape-font-specification:Vladimir Script"
       x="192.87807"
       y="521.52704"
       id="text6301"
       sodipodi:linespacing="125%"><tspan
         sodipodi:role="line"
         id="tspan6303"
         x="192.87807"
         y="521.52704"
         style="fill:none;stroke:#000000;stroke-width:0.35433072;stroke-miterlimit:4;stroke-opacity:1;stroke-dasharray:none" /></text>
    <g
       id="g6559"
       transform="matrix(1.5999999,0,0,1.5999999,-54.966341,-378.12816)"
       style="stroke-width:0.35433072;stroke-miterlimit:4;stroke-dasharray:none">
      <path
         sodipodi:nodetypes="csssscssc"
         inkscape:connector-curvature="0"
         id="path6235"
         d="m 142.5,565.04075 c -1.6279,3.84432 -0.39286,6.32579 0.89286,9.28572 0.76036,1.75047 1.55618,4.2295 0.35714,5.71428 -2.32304,2.87663 -1.48015,5.21079 1.78572,6.96428 4.12065,2.21243 5.81669,0.84185 5.66963,-1.60713 -0.10609,-1.76659 -2.99106,-3.75 -2.99106,-3.75 0,0 1.35704,-3.40367 1.78571,-5.17858 0.49406,-2.04567 0.44689,-4.06204 -0.17856,-6.07143 -0.62596,-2.011 -3.57144,-5.22321 -3.57144,-5.22321"
         style="fill:none;stroke:#000000;stroke-width:0.35433072;stroke-linecap:butt;stroke-linejoin:miter;stroke-miterlimit:4;stroke-opacity:1;stroke-dasharray:none" />
      <path
         sodipodi:nodetypes="cssc"
         inkscape:connector-curvature="0"
         id="path6237"
         d="m 162.64475,545.03244 c 0,0 2.1056,11.93722 0.7481,17.50831 -1.16511,4.78153 -3.09206,8.63364 -7.14285,11.42857 -1.60339,1.10629 -4.0571,1.51876 -5.91359,1.34378"
         style="fill:none;stroke:#000000;stroke-width:0.35433072;stroke-linecap:butt;stroke-linejoin:miter;stroke-miterlimit:4;stroke-opacity:1;stroke-dasharray:none" />
      <path
         sodipodi:nodetypes="cssc"
         inkscape:connector-curvature="0"
         id="path6239"
         d="m 142.76786,572.9926 c 0,0 -3.71358,-4.12475 -4.59821,-6.88042 -1.1861,-3.69476 -0.71163,-7.41277 -0.13394,-11.25 0.28162,-1.87061 1.65178,-5.89285 1.65178,-5.89285"
         style="fill:none;stroke:#000000;stroke-width:0.35433072;stroke-linecap:butt;stroke-linejoin:miter;stroke-miterlimit:4;stroke-opacity:1;stroke-dasharray:none" />
      <path
         sodipodi:nodetypes="cssscc"
         inkscape:connector-curvature="0"
         id="path6241"
         d="m 157.00893,573.38896 c 4.63168,3.75246 2.41677,3.67422 3.70536,6.38393 0.54228,1.14032 2.85526,1.11157 3.92857,0.44644 2.70383,-1.67558 4.87093,-2.17077 4.64285,-4.64286 -0.19995,-2.16719 -2.57916,-2.08274 -5.08928,-1.875 0.15643,-2.6188 -0.36266,-4.10357 -1.60714,-6.33928"
         style="fill:none;stroke:#000000;stroke-width:0.35433072;stroke-linecap:butt;stroke-linejoin:miter;stroke-miterlimit:4;stroke-opacity:1;stroke-dasharray:none" />
      <path
         sodipodi:nodetypes="ccszsssc"
         inkscape:connector-curvature="0"
         id="path6243"
         d="m 143.75,543.61218 c 2.30872,-2.16146 6.85821,-7.47345 9.82143,-6.25 1.62212,0.75843 2.51061,3.29471 1.96428,5 -0.4332,1.35216 -1.50398,0.70222 -3.57142,2.32143 -2.06744,1.61921 -5.53466,7.23078 -9.15047,7.09953 -4.62095,-0.16775 -3.71145,-6.26412 -2.18882,-9.86739 0.99245,-2.3486 2.7155,-6.14829 5.625,-6.33928 1.17897,-0.0774 2.90178,2.85714 2.90178,2.85714"
         style="fill:none;stroke:#000000;stroke-width:0.35433072;stroke-linecap:butt;stroke-linejoin:miter;stroke-miterlimit:4;stroke-opacity:1;stroke-dasharray:none" />
      <path
         sodipodi:nodetypes="cccsccccccccc"
         inkscape:connector-curvature="0"
         id="path6245"
         d="m 155.52489,542.42532 c 2.91999,2.76368 7.29937,3.51447 10.89602,1.46238 -0.1656,-1.69743 4.08527,-0.81495 5.18623,-3.93623 0.30241,-0.35309 0.81529,-0.19108 0.98214,-0.625 0.30211,-0.78571 0.25214,-1.18208 -0.44642,-1.65179 -1.67506,0.37344 -1.63405,1.37135 -0.52936,2.35328 -1.09933,-1.01531 -1.10104,-1.94975 -1.69644,-3.14733 -0.13555,-0.70383 -0.11965,-2.38767 -0.26337,-3.08988 -0.21603,-2.73986 -3.30249,-5.72269 -3.47766,-8.01591 0.77663,-1.39894 1.76912,-2.63449 0.78825,-3.50195 -0.42839,-0.35905 -1.79641,-0.85485 -2.54464,-0.35714 -0.91935,1.12892 -0.94362,1.21779 -0.89061,2.95541 0.97725,-0.10261 1.78585,0.10366 2.91803,1.92374"
         style="fill:none;stroke:#000000;stroke-width:0.35433072;stroke-linecap:butt;stroke-linejoin:miter;stroke-miterlimit:4;stroke-opacity:1;stroke-dasharray:none" />
      <path
         sodipodi:nodetypes="ccssc"
         inkscape:connector-curvature="0"
         id="path6249"
         d="m 153.21429,537.36218 c 0,0 0.28164,-1.49476 -0.17858,-1.96428 -1.17176,-0.60088 -1.33228,0.18305 -2.12053,0.7366 -1.33165,0.93515 -1.39552,-1.09898 -2.0759,-1.78571 -2.01646,-2.03527 -3.91206,-1.95147 -3.61607,1.31696"
         style="fill:none;stroke:#000000;stroke-width:0.35433072;stroke-linecap:butt;stroke-linejoin:miter;stroke-miterlimit:4;stroke-opacity:1;stroke-dasharray:none" />
      <path
         sodipodi:nodetypes="ssssss"
         inkscape:connector-curvature="0"
         id="path6251"
         d="m 149.46429,521.82647 c 0.5115,-0.40875 1.50129,-0.46299 1.96428,0 0.67343,0.67343 -0.43586,2.01034 0,2.85714 1.03318,2.00729 4.30014,1.6082 5.17857,3.03571 1.50088,2.43902 -0.48701,4.74114 -2.85714,3.48214 -2.81134,-1.49336 -7.51842,-6.79168 -4.28571,-9.37499 z"
         style="fill:none;stroke:#000000;stroke-width:0.35433072;stroke-linecap:butt;stroke-linejoin:miter;stroke-miterlimit:4;stroke-opacity:1;stroke-dasharray:none" />
      <path
         sodipodi:nodetypes="ccsccc"
         inkscape:connector-curvature="0"
         id="path6253"
         d="m 151.42857,522.18361 c 2.56177,-2.87364 5.18926,-2.34753 6.25,1.60714 0,0 1.63572,-0.54207 2.32143,-0.17857 0.84801,0.44953 0.66352,1.92044 1.42857,2.5 2.65339,1.07739 2.37983,-1.3943 1.42857,-3.03571 -2.10949,-2.50125 -3.98447,-2.69788 -6.96428,-2.14286"
         style="fill:none;stroke:#000000;stroke-width:0.35433072;stroke-linecap:butt;stroke-linejoin:miter;stroke-miterlimit:4;stroke-opacity:1;stroke-dasharray:none" />
      <path
         sodipodi:nodetypes="cccccccccc"
         inkscape:connector-curvature="0"
         id="path6255"
         d="m 149.46429,521.6479 c 0,0 -0.75459,-1.86303 -0.71429,-2.90179 0.34901,-1.70618 1.34872,-3.09112 2.14286,-4.0625 -0.0168,-1.13708 -1.96967,-1.41857 -2.32143,-2.5 -0.30457,-2.19622 0.21001,-4.04375 1.25,-5.89286 4.01902,3.92175 1.69163,4.73838 3.57143,6.60715 0.93969,0.62931 2.42191,-0.57994 3.39285,0 0.93456,1.20335 1.35937,3.34868 2.07973,4.0765 0.54205,0.478 1.8727,0.75742 2.94194,0.79816 -0.36189,1.23034 -1.04672,1.83098 -1.59631,2.93018"
         style="fill:none;stroke:#000000;stroke-width:0.35433072;stroke-linecap:butt;stroke-linejoin:miter;stroke-miterlimit:4;stroke-opacity:1;stroke-dasharray:none" />
      <path
         sodipodi:nodetypes="ccsc"
         inkscape:connector-curvature="0"
         id="path6257"
         d="m 154.28571,512.98718 c 0.75142,-2.63849 2.02346,-4.16668 4.46429,-4.73214 0,0 0.19219,2.67122 -0.17857,3.92857 -0.23389,0.79317 -1.02679,1.78572 -1.02679,1.78572"
         style="fill:none;stroke:#000000;stroke-width:0.35433072;stroke-linecap:butt;stroke-linejoin:miter;stroke-miterlimit:4;stroke-opacity:1;stroke-dasharray:none" />
      <path
         sodipodi:nodetypes="ccc"
         inkscape:connector-curvature="0"
         id="path6259"
         d="m 148.57143,519.1479 c -4.26808,2.63252 -7.48219,5.40796 -7.45536,10.44643 0.1636,2.9831 1.11651,4.77955 3.02759,7.07925"
         style="fill:none;stroke:#000000;stroke-width:0.35433072;stroke-linecap:butt;stroke-linejoin:miter;stroke-miterlimit:4;stroke-opacity:1;stroke-dasharray:none" />
      <path
         sodipodi:nodetypes="sscs"
         inkscape:connector-curvature="0"
         id="path6261"
         d="m 175.71429,555.57647 c -2.56204,0.2615 -4.40733,1.99188 -4.59954,4.23341 -0.24191,2.82112 2.57578,3.85609 4.0403,1.69008 2.01037,-2.02708 3.53379,-6.22709 0.55924,-5.92349 z"
         style="fill:none;stroke:#000000;stroke-width:0.35433072;stroke-linecap:butt;stroke-linejoin:miter;stroke-miterlimit:4;stroke-opacity:1;stroke-dasharray:none" />
      <path
         sodipodi:nodetypes="cc"
         inkscape:connector-curvature="0"
         id="path6263"
         d="m 161.93721,566.99723 c 7.28984,2.1074 7.30324,0.96444 10.62592,-4.09801"
         style="fill:none;stroke:#000000;stroke-width:0.35433072;stroke-linecap:butt;stroke-linejoin:miter;stroke-miterlimit:4;stroke-opacity:1;stroke-dasharray:none" />
      <path
         sodipodi:nodetypes="csccccc"
         inkscape:connector-curvature="0"
         id="path6265"
         d="m 169.45531,547.48209 c 2.36975,0.64651 5.59716,1.95113 5.12255,3.71302 -0.30061,1.11597 -2.25643,-0.0829 -2.25643,-0.0829 0.44297,2.7776 -2.0476,2.46676 -2.85714,0.71429 -1.61254,2.73681 -3.46676,-0.6223 -2.14286,-1.78572 -2.1471,1.24999 -3.62295,0.15461 -4.25508,-2.01658 1.69708,-1.57348 4.48732,-1.05342 6.38896,-0.54211 z"
         style="fill:none;stroke:#000000;stroke-width:0.35433072;stroke-linecap:butt;stroke-linejoin:miter;stroke-miterlimit:4;stroke-opacity:1;stroke-dasharray:none" />
      <path
         sodipodi:nodetypes="cc"
         inkscape:connector-curvature="0"
         id="path6267"
         d="m 174.11163,551.46615 0.17408,4.46746"
         style="fill:none;stroke:#000000;stroke-width:0.35433072;stroke-linecap:butt;stroke-linejoin:miter;stroke-miterlimit:4;stroke-opacity:1;stroke-dasharray:none" />
      <path
         d="m 162.54464,536.58093 c 0,0.48079 -0.1599,0.87054 -0.35714,0.87054 -0.19724,0 -0.35714,-0.38975 -0.35714,-0.87054 0,-0.48078 0.1599,-0.87053 0.35714,-0.87053 0.19724,0 0.35714,0.38975 0.35714,0.87053 z"
         sodipodi:ry="0.87053573"
         sodipodi:rx="0.35714287"
         sodipodi:cy="536.58093"
         sodipodi:cx="162.1875"
         id="path6277"
         style="opacity:0.98999999;fill:none;stroke:#000000;stroke-width:0.35433072;stroke-linecap:square;stroke-linejoin:miter;stroke-miterlimit:4;stroke-opacity:1;stroke-dasharray:none;stroke-dashoffset:17.01120644"
         sodipodi:type="arc" />
      <path
         transform="translate(5.8482143,-1.0714286)"
         sodipodi:type="arc"
         style="opacity:0.98999999;fill:none;stroke:#000000;stroke-width:0.35433072;stroke-linecap:square;stroke-linejoin:miter;stroke-miterlimit:4;stroke-opacity:1;stroke-dasharray:none;stroke-dashoffset:17.01120644"
         id="path6279"
         sodipodi:cx="162.1875"
         sodipodi:cy="536.58093"
         sodipodi:rx="0.35714287"
         sodipodi:ry="0.87053573"
         d="m 162.54464,536.58093 c 0,0.48079 -0.1599,0.87054 -0.35714,0.87054 -0.19724,0 -0.35714,-0.38975 -0.35714,-0.87054 0,-0.48078 0.1599,-0.87053 0.35714,-0.87053 0.19724,0 0.35714,0.38975 0.35714,0.87053 z" />
      <path
         sodipodi:nodetypes="cc"
         inkscape:connector-curvature="0"
         id="path6281"
         d="m 150.91518,528.94701 c -1.09655,1.85807 -1.78756,3.77493 -1.69643,5.87053"
         style="fill:none;stroke:#000000;stroke-width:0.35433072;stroke-linecap:butt;stroke-linejoin:miter;stroke-miterlimit:4;stroke-opacity:1;stroke-dasharray:none" />
      <path
         transform="matrix(0.80670995,0,0,0.80670995,24.39318,85.26469)"
         sodipodi:type="arc"
         style="opacity:0.98999999;fill:none;stroke:#000000;stroke-width:0.43922937;stroke-linecap:square;stroke-linejoin:miter;stroke-miterlimit:4;stroke-opacity:1;stroke-dasharray:none;stroke-dashoffset:17.01120644"
         id="path6283"
         sodipodi:cx="162.1875"
         sodipodi:cy="536.58093"
         sodipodi:rx="0.35714287"
         sodipodi:ry="0.87053573"
         d="m 162.54464,536.58093 c 0,0.48079 -0.1599,0.87054 -0.35714,0.87054 -0.19724,0 -0.35714,-0.38975 -0.35714,-0.87054 0,-0.48078 0.1599,-0.87053 0.35714,-0.87053 0.19724,0 0.35714,0.38975 0.35714,0.87053 z" />
      <path
         sodipodi:nodetypes="ccccccccccccc"
         inkscape:connector-curvature="0"
         id="path6285"
         d="m 128.08036,587.8979 c 0.10013,-2.03421 -2.09926,-4.18944 -4.19643,-6.33929 2.61608,1.064 5.87813,3.74295 9.19643,6.5625 -2.60501,-3.9881 -5.54037,-7.97619 -9.33036,-11.96429 4.068,3.7995 7.68401,7.68939 11.16071,11.60715 -1.81557,-3.44293 -4.33751,-7.37613 -8.03571,-11.65179 4.05778,3.63095 6.91571,7.26191 9.6875,10.89286 -1.96366,-4.39498 -4.73981,-8.60941 -7.76786,-12.76786 3.56921,3.5295 6.99738,7.23138 9.50893,12.05357 0.11634,-1.66472 0.55509,-2.97119 -1.38393,-6.91964 1.17346,1.88394 2.70666,3.26425 3.34822,5.89286 0.19751,-2.19075 0.42566,-4.40602 -0.53572,-5.66965 0.78152,1.5869 1.89649,2.04002 2.14286,5.44643"
         style="fill:none;stroke:#000000;stroke-width:0.35433072;stroke-linecap:butt;stroke-linejoin:miter;stroke-miterlimit:4;stroke-opacity:1;stroke-dasharray:none" />
      <path
         sodipodi:nodetypes="ccccccccccccccc"
         inkscape:connector-curvature="0"
         id="path6287"
         d="m 151.74107,585.30861 c -0.29257,-1.39881 -0.46941,-2.79762 -1.5625,-4.19643 2.69321,1.64124 3.06494,4.11158 4.24107,6.29464 0.077,-2.52823 0.2524,-5.05568 -0.35714,-7.58928 1.04181,1.60603 2.02367,3.69159 2.94643,6.25 0.32588,-1.14018 0.26119,-2.35848 1.11607,-3.39286 -0.46367,0.0773 0.12934,2.8618 1.42857,3.79464 0.45101,-1.79037 2.85714,-3.66071 2.85714,-3.66071 -0.0373,-0.58706 -1.56397,3.80171 -1.07142,4.10714 0.0127,-1.42227 7.75081,-6.71271 7.8125,-6.25 -2.16543,2.22178 -5.45783,4.66895 -4.86608,6.33929 1.5625,-1.47716 3.125,-1.62563 4.6875,-1.83036 -0.78425,0.81261 -1.81457,1.56844 -1.11607,2.72322 0.19448,-0.21975 1.48761,-0.71417 2.58929,-1.16072 -0.11151,0.625 -1.01724,1.25 -0.17857,1.875"
         style="fill:none;stroke:#000000;stroke-width:0.35433072;stroke-linecap:butt;stroke-linejoin:miter;stroke-miterlimit:4;stroke-opacity:1;stroke-dasharray:none" />
    </g>
    <flowRoot
       xml:space="preserve"
       id="flowRoot6543"
       style="fill:black;stroke:none;stroke-opacity:1;stroke-width:1px;stroke-linejoin:miter;stroke-linecap:butt;fill-opacity:1;font-family:Vladimir Script;font-style:normal;font-weight:normal;font-size:12px;line-height:125%;letter-spacing:0px;word-spacing:0px;-inkscape-font-specification:Vladimir Script;font-stretch:normal;font-variant:normal;text-anchor:start;text-align:start;writing-mode:lr"><flowRegion
         id="flowRegion6545"><rect
           id="rect6547"
           width="23.928572"
           height="68.75"
           x="232.67857"
           y="481.82648" /></flowRegion><flowPara
         id="flowPara6549" /></flowRoot>    <rect
       style="opacity:0.98999999;color:#000000;fill:none;stroke:#000000;stroke-width:0.7944603;stroke-linecap:butt;stroke-linejoin:miter;stroke-miterlimit:4;stroke-opacity:1;stroke-dasharray:none;stroke-dashoffset:0;marker:none;visibility:visible;display:inline;overflow:visible;enable-background:accumulate"
       id="rect6553"
       width="282.6701"
       height="282.6701"
       x="97.812859"
       y="345.95587" />
    <path
       style="fill:none;stroke:#000000;stroke-width:0.5669291;stroke-linecap:butt;stroke-linejoin:miter;stroke-miterlimit:4;stroke-opacity:1;stroke-dasharray:none"
       d="m 153.68265,384.70241 c 1.88461,-1.33811 6.18404,-4.09821 6.71008,-2.95967 0.53716,1.16261 -14.9522,12.44434 -12.14012,15.99125 1.84691,2.32955 18.50827,-12.17969 21.22523,-15.71136 2.32227,-3.01862 -13.66103,12.32997 -11.66877,15.3269 1.89275,2.84728 9.56426,-6.35283 12.14486,-6.30851 1.80935,0.031 -3.19316,5.97908 -4.33611,6.4758 -0.75081,0.32631 6.43698,-8.07192 8.40579,-5.9006 0.67516,0.7446 -7.24782,6.44 -2.56164,6.42017"
       id="path3880"
       inkscape:connector-curvature="0"
       sodipodi:nodetypes="csssssssc" />
    <path
       style="fill:none;stroke:#000000;stroke-width:0.5669291;stroke-linecap:butt;stroke-linejoin:miter;stroke-miterlimit:4;stroke-opacity:1;stroke-dasharray:none"
       d="m 177.72429,397.83439 c 0.69126,-0.37568 2.5674,-0.50217 3.80724,-2.07414 2.60637,-3.30458 9.35162,-4.20299 7.61274,-4.25861 -2.94574,-0.0942 -8.23403,4.60258 -6.39928,5.76835 1.84842,1.17447 5.10853,-2.15357 6.85317,-4.88817 1.17067,-1.83496 -4.84227,4.98667 -2.75546,5.3907 2.82749,0.54746 9.65139,-7.62862 9.27738,-6.02752 -0.2848,1.21915 -2.84752,5.48507 -3.63484,5.73301 -1.9814,0.624 7.29954,-7.17066 7.28639,-5.37211 -0.0112,1.45366 -4.04778,5.78843 -4.04778,5.78843 -0.85998,-0.75587 7.6857,-7.07509 7.9204,-5.97255 0.32672,1.53477 -4.63171,4.53511 -3.45219,5.57672 1.70128,1.50237 8.49784,-4.83828 10.22912,-5.70958 0.88584,-0.44581 -6.56045,6.08002 -2.49336,5.84341"
       id="path3890"
       inkscape:connector-curvature="0"
       sodipodi:nodetypes="cssssssssssssc" />
    <path
       style="fill:none;stroke:#000000;stroke-width:0.5669291;stroke-linecap:butt;stroke-linejoin:miter;stroke-miterlimit:4;stroke-opacity:1;stroke-dasharray:none"
       d="m 212.97913,386.76193 c -3.1531,2.29901 3.26336,2.13625 0.32039,-0.0525"
       id="path3892"
       inkscape:connector-curvature="0"
       sodipodi:nodetypes="cc" />
    <path
       style="fill:none;stroke:#000000;stroke-width:0.5669291;stroke-linecap:butt;stroke-linejoin:miter;stroke-miterlimit:4;stroke-opacity:1;stroke-dasharray:none"
       d="m 214.1908,397.93542 c 4.52923,-0.69383 14.20537,-6.57 9.56969,-6.58093 -1.24285,-0.003 -5.9964,4.76603 -3.80469,6.10971 1.66596,1.02134 10.00125,-3.71592 11.54301,-6.64685 0.60514,-1.1504 -2.49345,6.66807 -3.49256,7.012 -2.0908,0.71978 -1.00643,-4.97854 -0.19387,-2.09421 1.99616,7.08581 14.44421,-8.69366 15.16166,-10.30865 0.43748,-0.9848 -11.42084,12.83878 -7.16595,12.60992"
       id="path3894"
       inkscape:connector-curvature="0"
       sodipodi:nodetypes="cssssssc" />
    <path
       style="fill:none;stroke:#000000;stroke-width:0.5669291;stroke-linecap:butt;stroke-linejoin:miter;stroke-miterlimit:4;stroke-opacity:1;stroke-dasharray:none"
       d="m 235.10094,389.95519 c 4.38808,-1.32934 5.13384,-0.40048 8.38427,-0.80792"
       id="path3896"
       inkscape:connector-curvature="0"
       sodipodi:nodetypes="cc" />
    <path
       style="fill:none;stroke:#000000;stroke-width:0.5669291;stroke-linecap:butt;stroke-linejoin:miter;stroke-miterlimit:4;stroke-opacity:1;stroke-dasharray:none"
       d="m 242.071,397.43033 c 2.42325,0.35246 7.83575,-3.38008 8.99856,-5.10843 2.38453,-3.54426 -6.041,6.17888 -2.12189,4.91427 1.42866,-0.46101 5.89316,-4.01701 6.47144,-5.53123 0.69741,-1.82613 -6.12897,6.14097 -3.3119,6.01408 2.81866,-0.12688 10.66912,-8.83519 10.39896,-6.41999 -0.23515,2.10229 -5.44418,6.61421 -4.96885,5.79605 1.24813,-2.14837 9.46493,-7.68387 8.61858,-5.5939 -1.12648,2.78171 -5.97555,6.1087 -3.30543,5.90724 4.10732,-0.30988 12.03012,-4.00376 11.22871,-5.43475 -1.19746,-2.13819 -3.34023,0.52451 -4.36559,1.68696 -2.01812,2.28794 -1.69192,4.72234 1.4497,3.87063"
       id="path3898"
       inkscape:connector-curvature="0"
       sodipodi:nodetypes="cssssssssssc" />
    <path
       style="fill:none;stroke:#000000;stroke-width:0.5669291;stroke-linecap:butt;stroke-linejoin:miter;stroke-miterlimit:4;stroke-opacity:1;stroke-dasharray:none"
       d="m 277.22431,397.73337 c 2.3593,-0.35335 3.99594,-1.63707 4.79408,-2.53915 3.93381,-4.44608 7.60887,-2.40093 6.25788,-3.32284 -2.73269,-1.86476 -9.07287,6.99276 -4.98615,5.42642 4.19519,-1.60792 16.35026,-16.68664 13.40863,-14.03182 -2.94125,2.65448 -9.34965,11.29017 -10.60612,13.07561 -2.74665,3.90299 10.84042,-1.93773 11.58228,-3.87195 0.65416,-1.70557 -1.69508,-1.4257 -2.8121,-0.52736 -1.72787,1.3896 -4.86674,6.67107 -1.06534,6.06915 2.34606,-0.37149 6.28921,-4.18741 9.97852,-7.1187 2.03741,-1.61879 -1.80225,5.56254 -3.65654,7.00046 -1.46512,1.13613 -2.32338,-4.02123 -0.78619,-2.29848 1.204,1.34935 1.81894,2.58215 2.84264,2.64386"
       id="path3900"
       inkscape:connector-curvature="0"
       sodipodi:nodetypes="csssssssssssc" />
    <path
       style="fill:none;stroke:#000000;stroke-width:0.5669291;stroke-linecap:butt;stroke-linejoin:miter;stroke-miterlimit:4;stroke-opacity:1;stroke-dasharray:none"
       d="m 308.23599,397.83438 c 3.9125,-1.79309 12.39087,-8.40343 10.86546,-7.67708 -2.01339,0.95872 -9.58752,11.97264 -11.00728,13.12159 -3.71138,3.00345 8.00805,-11.80613 11.74168,-11.83003 3.69006,-0.0235 -5.11514,7.20336 -5.26242,5.54225 -0.32475,-3.66277 1.6741,3.50663 5.90957,0.12048 1.79485,-1.43494 8.54803,-5.10806 14.35648,-11.2476 4.22123,-4.46187 -1.84931,-1.00361 -4.2388,1.44304 -6.35742,6.50952 -7.82411,10.92288 -4.6452,10.44515 1.79074,-0.26912 8.68382,-4.65872 9.50877,-6.43875 0.76843,-1.65809 -6.74157,5.89432 -3.19752,6.33103 1.1631,0.14336 6.43029,-5.03674 6.59697,-6.09114 0.18584,-1.1755 -6.65403,6.54534 -3.06318,6.3317 3.0561,-0.18183 7.96142,-6.34975 9.94941,-6.99474 1.81029,-0.58733 -3.24311,8.64922 -5.36971,6.21669 -2.06552,-2.36264 1.98484,0.46755 3.6151,1.3335"
       id="path3902"
       inkscape:connector-curvature="0"
       sodipodi:nodetypes="cssssssssssssssc" />
    <path
       style="fill:none;stroke:#000000;stroke-width:0.5669291;stroke-linecap:butt;stroke-linejoin:miter;stroke-miterlimit:4;stroke-opacity:1;stroke-dasharray:none"
       d="m 185.55296,420.76485 c 1.29552,-0.0323 9.37256,-4.65604 9.99252,-6.462 1.14116,-3.32411 -7.05343,8.57884 -9.62532,11.65661 -2.81447,3.36803 -4.62383,2.51744 -1.37904,-1.80182 2.64091,-3.51544 7.80032,-2.61928 10.74907,-4.89083 1.95433,-1.50552 7.06177,-5.2161 6.02872,-4.77732 -7.27115,3.08837 -3.56531,10.17239 0.25374,4.2868 3.7217,-5.73555 -2.7239,-4.76979 -0.22976,-2.44566 1.87039,1.74288 4.58555,1.06325 7.09819,-0.14928 3.41591,-1.64846 8.70695,-5.12227 10.19196,-8.73758 1.32166,-3.2176 -3.91184,0.64667 -7.32122,4.76889 -2.05042,2.47914 -6.17088,8.75571 -2.97331,8.43675 2.67945,-0.26728 11.2088,-6.58196 9.34621,-6.2568 -1.11698,0.19501 -6.99167,7.95824 -1.38712,5.84084 2.63088,-0.99396 10.80731,-4.02047 9.60563,-5.51884 -2.34018,-2.91798 -8.01938,5.7541 -4.56779,6.19573 4.19307,0.53651 7.14372,-5.05536 11.03123,-7.0512 2.72974,-1.40145 -5.36299,10.41467 -5.532,5.77539 -0.11984,-3.29006 0.93848,1.69986 2.85995,1.33458"
       id="path3940"
       inkscape:connector-curvature="0"
       sodipodi:nodetypes="csssssssssssssssssc" />
    <path
       style="fill:none;stroke:#000000;stroke-width:0.5669291;stroke-linecap:butt;stroke-linejoin:miter;stroke-miterlimit:4;stroke-opacity:1;stroke-dasharray:none"
       d="m 197.95259,409.62793 c -3.60496,2.34307 2.14294,2.42408 0.60715,0.13184"
       id="path3942"
       inkscape:connector-curvature="0"
       sodipodi:nodetypes="cc" />
    <path
       style="fill:none;stroke:#000000;stroke-width:0.5669291;stroke-linecap:butt;stroke-linejoin:miter;stroke-miterlimit:4;stroke-opacity:1;stroke-dasharray:none"
       d="m 220.52947,409.5521 c -3.6837,2.92501 2.15605,1.50735 0.57384,0.20351"
       id="path3944"
       inkscape:connector-curvature="0"
       sodipodi:nodetypes="cc" />
    <path
       style="fill:none;stroke:#000000;stroke-width:0.5669291;stroke-linecap:butt;stroke-linejoin:miter;stroke-miterlimit:4;stroke-opacity:1;stroke-dasharray:none"
       d="m 236.21212,420.86586 c 5.51847,-2.43112 7.56458,-6.75283 10.8804,-7.2287 3.26095,-0.468 -2.45116,5.93621 -0.63681,3.10635 0.74571,-1.1631 2.47073,-2.71202 0.34246,-2.59942 -4.73366,0.25044 -7.04376,8.23358 -2.24168,6.52715 8.89802,-3.16194 12.35186,-9.07094 15.33854,-12.80992 2.73869,-3.4285 0.80996,-2.7301 -1.24097,-0.30898 -2.82616,3.33626 -10.32858,11.92191 -10.01624,13.23584 0.21061,0.88602 6.19528,-7.1715 9.28664,-6.44533 2.26203,0.53136 -6.44674,5.39576 -4.34221,6.51072 2.3172,1.22764 12.33165,-7.5818 9.75955,-5.73644 -5.17544,3.71315 -4.52496,8.52358 0.0834,3.76451 6.47211,-6.68382 -2.16584,-3.72437 0.61743,-1.94765 1.21206,0.77373 4.83942,0.29485 3.57779,1.24256 -8.50125,6.38597 6.59038,-6.23113 6.22817,-3.78274 -0.33001,2.23082 -5.14595,8.76807 -5.91364,5.66919 -0.79428,-3.20616 0.77788,2.18598 4.81902,0.0562 2.20998,-1.16474 13.05222,-5.86091 8.3787,-5.8812 -3.86673,-0.0168 -8.69956,8.74625 -2.24996,6.46918 3.00664,-1.0615 6.38944,-5.29361 9.43446,-6.92937 2.4744,-1.32922 -3.07126,8.80872 -5.03256,6.99798 -1.9487,-1.7991 -0.90195,-2.36768 2.5316,0.0435"
       id="path3946"
       inkscape:connector-curvature="0"
       sodipodi:nodetypes="cssssssssssssssssssssc" />
    <path
       style="fill:none;stroke:#000000;stroke-width:0.5669291;stroke-linecap:butt;stroke-linejoin:miter;stroke-miterlimit:4;stroke-opacity:1;stroke-dasharray:none"
       d="m 292.3766,420.96687 c 3.93043,-0.73723 9.30643,-9.10621 11.66648,-6.28352 1.35176,1.61675 -2.50582,-2.32809 -6.11496,2.52848 -2.56069,3.44574 0.0128,4.79997 2.92096,2.59912 3.5244,-2.66648 5.96294,-5.70643 3.76542,-4.37411 -1.98849,1.2056 -5.72011,8.31841 -7.02115,10.02149 -4.1047,5.37312 -2.87315,1.02971 4.12738,-4.87877 1.49344,-1.26048 8.09201,-1.95082 9.40374,-6.31339 0.33136,-1.10203 -5.53281,6.12971 -2.83848,6.20948 0.9544,0.0283 7.42557,-5.52969 6.52602,-5.94732 -0.66803,-0.31015 -6.00546,7.29992 -2.13285,5.9563 4.81078,-1.6691 8.13139,-2.89349 9.15622,-4.65336 1.13956,-1.95691 -0.18851,-1.7747 -2.29806,-0.43614 -3.17656,2.86273 -3.7857,6.25088 0.46581,5.31878"
       id="path3948"
       inkscape:connector-curvature="0"
       sodipodi:nodetypes="cssssssssssscc" />
    <path
       style="fill:none;stroke:#000000;stroke-width:0.5669291;stroke-linecap:butt;stroke-linejoin:miter;stroke-miterlimit:4;stroke-opacity:1;stroke-dasharray:none"
       d="m 325.87182,420.86079 c 4.24995,-1.39965 11.35651,-6.80672 13.46089,-10.44624 2.30991,-3.99493 0.70912,-2.11168 -1.60259,0.94707 -1.34446,1.77895 -9.96638,11.78851 -3.12466,8.88667 2.00621,-0.85092 7.16885,-3.97708 7.8785,-5.75913 0.67811,-1.70283 -5.87181,5.98059 -3.34866,6.01416 1.20904,0.0162 6.30045,-4.00904 6.98668,-5.90475 0.45209,-1.24895 -7.02861,7.09019 -2.58482,6.21569"
       id="path3950"
       inkscape:connector-curvature="0"
       sodipodi:nodetypes="cssssssc" />
    <path
       style="fill:none;stroke:#000000;stroke-width:0.5669291;stroke-linecap:butt;stroke-linejoin:miter;stroke-miterlimit:4;stroke-opacity:1;stroke-dasharray:none"
       d="m 331.80214,412.3622 c 4.76244,0.88234 3.97219,-0.52392 8.89038,-0.0317"
       id="path3952"
       inkscape:connector-curvature="0"
       sodipodi:nodetypes="cc" />
    <path
       style="fill:none;stroke:#000000;stroke-width:0.5669291;stroke-linecap:butt;stroke-linejoin:miter;stroke-miterlimit:4;stroke-opacity:1;stroke-dasharray:none"
       d="m 223.98928,443.59429 c 4.26492,-1.88459 10.18488,-6.17835 10.28548,-7.21531 0.12352,-1.27328 -6.08947,6.55439 -8.53592,10.15589 -5.39787,7.94638 -1.66307,0.49019 2.14229,-3.1981 1.40989,-1.36651 3.97599,-4.16452 5.4293,-5.03006 3.31049,-1.97158 4.42101,-0.54611 2.08099,2.33486 -1.91602,2.35896 -7.0992,3.13924 -5.2123,1.47184 1.49649,-1.3224 0.76729,3.0513 4.61761,1.59858 2.73859,-1.03326 8.45208,-4.2077 8.83832,-6.31904 0.17392,-0.95075 -6.60049,6.67173 -2.88865,5.92614 2.03712,-0.40918 4.57355,-2.18665 6.23731,-5.34723 1.07188,-2.03619 -4.55866,4.44888 -3.49787,5.62784 1.37356,1.52659 9.75209,-5.19366 10.36686,-6.08373 1.0903,-1.57856 -6.38995,5.38954 -3.57651,6.3632 1.71601,0.59389 6.80304,-4.15145 8.11296,-5.61222 3.99084,-4.45043 2.50446,0.40315 -0.67762,4.71171 -1.95291,2.64429 -2.97038,-1.70734 -2.27442,-0.89525 1.97999,2.31036 3.6565,2.62349 10.66804,-4.06027 1.1147,-1.06259 2.21547,-1.88371 2.35868,-0.84942 0.28156,2.03337 -3.32507,6.09117 -4.01772,6.79689 -1.39588,1.42224 -2.48767,-2.62193 -1.95482,-1.89363 1.77003,2.41935 2.12366,2.68842 8.62624,-0.46755 2.84222,-1.37946 8.0459,-3.97134 5.02592,-4.40726 -4.30584,-0.62152 -7.92304,8.61478 -2.59906,6.4064 2.76159,-1.14552 9.115,-7.90372 9.59002,-6.61548 0.90189,2.44584 -6.15752,9.737 -5.96022,5.24213 0.0966,-2.20121 1.35003,2.17955 3.32595,1.49315"
       id="path3954"
       inkscape:connector-curvature="0"
       sodipodi:nodetypes="csssssssssssssssssssssssssc" />
    <path
       style="fill:none;stroke:#000000;stroke-width:0.5669291;stroke-linecap:butt;stroke-linejoin:miter;stroke-miterlimit:4;stroke-opacity:1;stroke-dasharray:none"
       d="m 256.31415,433.08871 c -2.76558,1.34046 1.90786,1.61309 1.05962,-0.25106"
       id="path3956"
       inkscape:connector-curvature="0"
       sodipodi:nodetypes="cc" />
    <path
       style="fill:none;stroke:#000000;stroke-width:0.5669291;stroke-linecap:butt;stroke-linejoin:miter;stroke-miterlimit:4;stroke-opacity:1;stroke-dasharray:none"
       d="m 286.63905,443.87025 c 2.03822,-0.30399 4.00867,-1.71048 5.46592,-3.13245 4.27347,-4.17005 6.9576,-2.30434 5.79029,-3.2564 -1.60989,-1.31304 -8.71661,6.09088 -5.67194,6.2183 0.96787,0.0405 7.87339,-5.87797 7.15771,-5.87587 -1.59659,0.005 -6.57603,7.22342 -2.47265,5.87997 2.95712,-0.96816 6.68427,-5.61131 8.06955,-6.05781 3.12107,-1.00597 -5.36191,6.43891 -2.11295,5.8696 2.61287,-0.45786 4.2337,-2.91845 5.52141,-4.59662 1.30231,-1.69719 0.0333,-2.07944 -0.86264,-0.66098 -0.66339,1.05037 2.01015,2.94094 5.65133,1.24504 1.79555,-0.8363 2.86608,-3.19627 0.49966,-1.04798 -6.82163,6.19284 -0.13168,7.65595 3.14317,1.32144 2.04853,-3.96239 -1.12126,-2.43885 -1.19302,-1.50421 -0.0528,0.6876 2.45377,1.90797 4.06437,2.06273 1.80374,0.17335 5.04142,-1.85657 4.99371,-3.00836 -0.0525,-1.26901 -6.94125,7.55924 -2.51803,6.34672 3.10203,-0.85036 10.16182,-8.57472 7.35646,-7.0377 -1.91902,1.05142 5.41782,-0.74326 -0.17936,4.26067 -1.44368,1.29067 -1.38597,2.98277 0.32896,2.91962"
       id="path3958"
       inkscape:connector-curvature="0"
       sodipodi:nodetypes="cssssssssssssssssssc" />
    <path
       style="fill:none;stroke:#000000;stroke-width:0.5669291;stroke-linecap:butt;stroke-linejoin:miter;stroke-miterlimit:4;stroke-opacity:1;stroke-dasharray:none"
       d="m 326.57025,433.08871 c -2.66069,2.07603 3.57086,0.0317 0.65646,-0.50682"
       id="path3960"
       inkscape:connector-curvature="0"
       sodipodi:nodetypes="cc" />
    <path
       style="fill:none;stroke:#000000;stroke-width:0.5669291;stroke-linecap:butt;stroke-linejoin:miter;stroke-miterlimit:4;stroke-opacity:1;stroke-dasharray:none"
       d="m 337.22737,439.04861 12.12624,0"
       id="path3964"
       inkscape:connector-curvature="0"
       sodipodi:nodetypes="cc" />
    <path
       sodipodi:nodetypes="cc"
       inkscape:connector-curvature="0"
       id="path4031"
       d="m 244.4936,534.98659 12.12623,0"
       style="fill:none;stroke:#000000;stroke-width:0.5669291;stroke-linecap:butt;stroke-linejoin:miter;stroke-miterlimit:4;stroke-opacity:1;stroke-dasharray:none" />
    <path
       style="fill:none;stroke:#000000;stroke-width:0.5669291;stroke-linecap:butt;stroke-linejoin:miter;stroke-miterlimit:4;stroke-opacity:1;stroke-dasharray:none"
       d="m 262.82035,539.89834 c 5.18486,-3.47997 5.65888,-1.29482 9.26779,-4.04704 2.7079,-2.06511 1.67185,-3.57347 -0.96634,-1.9261 -2.74171,1.712 -4.7783,5.30866 -2.0916,5.7348 4.23511,0.67171 12.70123,-8.14053 14.4425,-10.58397 2.08368,-2.92392 0.88345,-1.56382 -1.87504,1.33509 -2.11299,2.22055 -8.42685,10.70845 -4.26408,9.29936"
       id="path4037"
       inkscape:connector-curvature="0"
       sodipodi:nodetypes="csssssc" />
    <path
       style="fill:none;stroke:#000000;stroke-width:0.5669291;stroke-linecap:butt;stroke-linejoin:miter;stroke-miterlimit:4;stroke-opacity:1;stroke-dasharray:none"
       d="m 275.96707,531.74643 c 2.52881,-0.4712 6.65974,0.18848 8.90584,-0.56545"
       id="path4039"
       inkscape:connector-curvature="0"
       sodipodi:nodetypes="cc" />
    <path
       style="fill:none;stroke:#000000;stroke-width:0.5669291;stroke-linecap:butt;stroke-linejoin:miter;stroke-miterlimit:4;stroke-opacity:1;stroke-dasharray:none"
       d="m 283.69489,539.66274 c 2.81083,0.71989 10.35062,-6.38003 9.39765,-6.20536 -2.31373,0.42408 -5.19157,6.28782 -3.56816,6.33577 1.33243,0.0394 6.84155,-4.38628 7.11873,-6.06886 0.22621,-1.37315 -6.16126,6.50883 -2.67964,6.09392 2.74006,-0.32653 9.71302,-8.67859 10.04084,-6.37267 0.20659,1.45309 -7.28953,8.43539 -4.90894,5.31189 1.91686,-2.51506 10.30619,-7.98228 7.62886,-4.00432 -1.34929,2.00478 -6.64809,6.81929 -0.20723,4.38595 2.49027,-0.94083 10.45074,-3.99435 8.95027,-5.47386 -2.11361,-2.08409 -10.05576,6.89927 -3.40613,6.18656"
       id="path4041"
       inkscape:connector-curvature="0"
       sodipodi:nodetypes="csssssssssc" />
    <path
       style="fill:none;stroke:#000000;stroke-width:0.5669291;stroke-linecap:butt;stroke-linejoin:miter;stroke-miterlimit:4;stroke-opacity:1;stroke-dasharray:none"
       d="m 318.47004,539.85122 c 2.12051,-0.83994 11.31746,-5.82698 10.83438,-6.15954 -2.49409,-1.71704 -8.61779,6.46959 -5.14737,5.85223 3.23446,-0.57538 7.53624,-7.13559 10.40829,-10.05232 4.77232,-4.84661 5.14592,-6.65138 -0.20055,-0.30407 -3.69198,4.38312 -6.72641,6.18741 -6.84369,9.60179 -0.11792,3.4321 8.00225,-1.45609 9.81686,-2.97636 4.1561,-3.48194 -0.0525,-2.93544 -2.7143,-0.54922 -2.36812,2.1229 -2.51437,5.7272 1.60739,4.43392 2.27672,-0.71437 8.55621,-7.4472 9.7471,-6.67547 1.5597,1.01069 -6.18227,9.27253 -6.30193,5.74473 -0.0917,-2.70192 0.86329,1.77479 3.48524,1.22559"
       id="path4043"
       inkscape:connector-curvature="0"
       sodipodi:nodetypes="cssssssssssc" />
    <path
       style="fill:none;stroke:#000000;stroke-width:0.5669291;stroke-linecap:butt;stroke-linejoin:miter;stroke-miterlimit:4;stroke-opacity:1;stroke-dasharray:none"
       d="m 260.27583,562.75194 c 3.53663,-0.28336 9.595,-8.73498 9.72802,-6.21175 0.13952,2.64824 -8.88968,9.83634 -3.45566,4.02824 1.59563,-1.70548 4.7914,-4.29339 6.16766,-4.28715 2.15541,0.01 -1.78534,5.29931 -3.10016,6.08466 -3.75563,2.24323 4.96445,-6.10183 7.14472,-6.06922 2.20982,0.0331 -4.12739,5.1132 -3.43283,6.47439 0.66009,1.29368 8.96277,-3.25197 10.68937,-4.17181 3.96026,-2.10981 -1.34068,-4.47551 -3.61582,0.67925 -4.16709,9.44129 11.91235,-2.39492 10.94061,-2.69183 -1.73559,-0.53033 -10.1144,11.75581 2.0571,3.23416 8.838,-6.18776 14.66747,-11.58405 12.70374,-11.48949 -5.06121,0.24368 -10.16089,8.13759 -11.19507,13.56162 -0.80115,4.20187 13.5733,-6.20005 15.73672,-8.8583 4.11144,-5.05184 2.94245,-6.29552 -2.48651,-0.56581 -2.72715,2.87822 -8.2789,10.38273 -5.49056,10.35952 2.71304,-0.0226 14.32475,-5.51666 10.99003,-6.30471 -4.99029,-1.17928 -9.32813,10.27268 -0.79493,5.15244 1.70757,-1.02463 8.962,-5.99932 6.89317,-5.1153 -4.2411,1.81221 -4.98638,6.63181 -1.97685,5.62115 1.05356,-0.35381 6.76698,-5.45182 5.92636,-5.43297 -1.97679,0.0443 -7.56919,8.77856 -0.63208,5.19019 1.67006,-0.86387 7.76672,-7.02611 6.22248,-6.29799 -2.13426,1.00631 -0.5445,0.94636 0.39156,1.04445 3.05842,0.32055 -5.71019,5.75693 -2.11427,6.24808 1.08277,0.14784 6.03789,-1.96168 8.99447,-3.75849 4.35065,-2.64404 2.87179,-4.26455 -0.74436,-1.82704 -2.81659,1.89856 -3.58896,5.84571 -0.52841,5.41913 2.04741,-0.28537 7.51312,-4.45627 8.67441,-5.59035 5.32133,-5.19654 -2.0563,8.06938 -3.77841,5.05461 -1.97645,-3.46003 1.46488,1.09177 2.73483,0.85009"
       id="path4045"
       inkscape:connector-curvature="0"
       sodipodi:nodetypes="csssssssssssssssssssssssssssssc" />
    <path
       style="fill:none;stroke:#000000;stroke-width:0.5669291;stroke-linecap:butt;stroke-linejoin:miter;stroke-miterlimit:4;stroke-opacity:1;stroke-dasharray:none"
       d="m 132.20146,585.93538 c 3.77504,0.14368 5.7503,-4.54464 8.84868,-6.11893 4.34917,-2.20979 0.9808,2.68227 1.79664,2.12158 3.67418,-2.52512 0.26656,-3.73353 -1.95029,-1.50742 -1.3542,1.35985 -3.86062,3.98672 -1.99828,5.07989 1.12625,0.6611 3.95753,-0.75783 5.84764,-2.0924 5.1025,-3.60277 5.84836,-4.26274 11.14956,-9.83579 2.71449,-2.8537 1.29659,-4.81381 -1.96735,0.57286 -1.60569,2.64997 -8.63147,12.1959 -8.94209,11.72507 -0.79752,-1.20883 2.99123,-3.49802 4.08368,-4.2408 3.67902,-2.50149 6.1215,-3.42632 4.65571,-0.67242 -1.06661,2.00391 -6.15296,5.24244 -2.66659,4.8961 2.53523,-0.25184 5.28297,-3.2484 6.76288,-4.10256 0.99112,-0.57205 3.71369,-2.55037 1.79011,-1.83542 -2.25941,0.83974 -6.2548,6.10198 -2.70771,5.97729 3.76102,-0.13216 7.54009,-8.36352 3.47587,-5.52894 -2.17986,1.52033 4.06246,2.73598 6.19867,0.84841 7.30184,-6.45188 0.95525,3.71588 -0.86213,4.50781 -1.54877,0.67488 -2.26387,-2.28224 -1.28229,-1.582 2.81024,2.00477 6.44629,0.92379 9.44493,-0.77446 6.55746,-3.71378 4.71818,-5.53901 0.63083,-2.43107 -1.51067,1.14867 -3.06024,4.45174 -1.23561,4.95764 2.10712,0.58424 4.39894,-1.77734 6.36808,-3.25305 1.78,-1.33395 6.1632,-6.11176 4.87438,-1.50743 -0.65571,2.34255 -3.51712,5.1386 -4.91213,4.78168 -1.50862,-0.38598 -1.30438,-1.87432 -0.1352,-1.36638 0.35517,0.15424 1.61717,1.15379 2.63282,1.42816"
       id="path4047"
       inkscape:connector-curvature="0"
       sodipodi:nodetypes="csssssssssssssssssssssssssc" />
    <path
       style="fill:none;stroke:#000000;stroke-width:0.5669291;stroke-linecap:butt;stroke-linejoin:miter;stroke-miterlimit:4;stroke-opacity:1;stroke-dasharray:none"
       d="m 188.36947,585.84114 c 3.18307,-0.61783 10.62635,-5.38076 11.78499,-6.59458 1.07586,-1.12709 -6.63965,1.85981 -7.05459,5.22389 -0.50621,4.104 8.60449,-4.42631 7.22653,-4.52327 -1.35272,-0.0952 -6.24512,10.03628 -7.78495,11.96167 -1.44948,1.81241 -1.41339,0.87795 1.14303,-3.07288 0.96091,-1.48504 2.19702,-2.32088 3.33796,-2.71418 1.61416,-0.55643 4.05716,-1.9087 6.2341,-3.17625 4.24043,-2.46903 5.32328,-4.46762 3.14651,-2.95728 -2.46059,1.70728 -4.17051,6.03568 -1.5783,5.65824 1.47483,-0.21476 4.39661,-2.62984 6.05152,-5.49743 1.26224,-2.18718 -6.11275,5.54322 -2.59027,5.81512 0.56793,0.0438 2.25324,-1.18097 4.3482,-2.06093 3.26724,-1.37233 7.47285,-2.90537 6.83485,-3.98457 -1.34891,-2.28178 -7.11712,2.71413 -6.01249,5.35377 0.44548,1.06455 1.59318,1.02916 2.43137,0.23885"
       id="path4049"
       inkscape:connector-curvature="0"
       sodipodi:nodetypes="cssssssssssssssc" />
    <path
       style="fill:none;stroke:#000000;stroke-width:0.5669291;stroke-linecap:butt;stroke-linejoin:miter;stroke-miterlimit:4;stroke-opacity:1;stroke-dasharray:none"
       d="m 222.34358,585.93538 c 2.04046,-0.43661 11.97845,-8.85496 12.99427,-10.30357 2.98274,-4.25349 -1.53302,0.65137 -2.51451,1.59369 -1.4899,1.43047 -6.73035,8.41826 -3.86258,8.8018 1.13172,0.15136 4.48141,-1.99493 6.47999,-3.9565 8.1124,-7.96214 -4.87,1.17485 0.0128,3.68688 1.94003,0.99811 8.56673,-7.71155 5.9703,-5.73533 -1.4524,1.10546 -5.42494,7.08127 -1.69257,5.86599"
       id="path4051"
       inkscape:connector-curvature="0"
       sodipodi:nodetypes="cssssssc" />
    <path
       style="fill:none;stroke:#000000;stroke-width:0.5669291;stroke-linecap:butt;stroke-linejoin:miter;stroke-miterlimit:4;stroke-opacity:1;stroke-dasharray:none"
       d="m 227.57398,577.97197 c 3.28738,-0.85107 5.70005,-0.28283 9.00008,-0.56544"
       id="path4053"
       inkscape:connector-curvature="0"
       sodipodi:nodetypes="cc" />
    <path
       style="fill:none;stroke:#000000;stroke-width:0.5669291;stroke-linecap:butt;stroke-linejoin:miter;stroke-miterlimit:4;stroke-opacity:1;stroke-dasharray:none"
       d="m 294.34419,551.77279 c -1.84632,-0.98311 -2.13997,2.96187 0.5654,0.89612"
       id="path4055"
       inkscape:connector-curvature="0"
       sodipodi:nodetypes="cc" />
    <path
       style="fill:none;stroke:#000000;stroke-width:0.5669291;stroke-linecap:butt;stroke-linejoin:miter;stroke-miterlimit:4;stroke-opacity:1;stroke-dasharray:none"
       d="m 245.57414,585.98251 c 2.06027,-0.0144 6.95248,-2.98795 8.94757,-5.35774 1.39985,-1.66279 3.00067,-4.31247 0.43099,-1.48863 -3.87403,4.25719 -5.17458,6.90053 -8.64122,11.63703 -1.6655,2.27558 -2.17764,0.36406 0.33168,-1.87571 2.65855,-2.373 6.69746,-6.78344 9.60397,-8.79706 2.69122,-1.86446 3.11803,1.04573 1.98042,2.04194 -0.84192,0.73728 -7.18794,4.97731 -5.78093,2.50217 1.14896,-2.02117 0.48376,2.20557 3.47774,1.31947 1.32163,-0.39115 6.57095,-3.87961 8.53808,-5.53024 2.43491,-2.04313 0.84266,-1.68873 -0.53696,0.23426 -2.13347,2.97376 -3.54454,4.91664 -1.18187,4.70074 1.3563,-0.124 7.73187,-5.621 6.3425,-5.7392 -0.82935,-0.0706 -5.96221,7.16712 -2.4581,6.14246 3.45058,-1.00899 7.83227,-3.77982 8.92392,-5.56021 1.57187,-2.5636 -4.71131,3.73215 -3.53251,5.09626 1.03901,1.20235 5.35344,-1.72994 7.58901,-4.05874 4.20788,-4.38336 3.72513,-1.68909 2.66337,0.81407 -0.67089,1.58168 -4.40086,5.4694 -4.94574,2.57176 -0.36469,-1.9394 1.67397,3.7768 6.39521,-0.72589 1.73671,-1.65632 2.92656,-2.48399 4.62197,-4.14535 3.67959,-3.60568 2.17983,0.78048 0.22,3.64536 -0.81169,1.18655 -3.47606,3.1346 -4.01365,1.3513 -0.85488,-2.83579 1.6393,3.03981 6.64895,-0.43502 2.19024,-1.51922 4.39395,-0.86808 6.5395,-2.80432 2.58869,-2.33615 -0.37051,-2.80616 -2.06686,-1.2898 -1.50784,1.34788 -5.27306,5.45784 -1.73395,5.72047 2.68195,0.19901 7.05993,-3.72922 7.96868,-4.66255 3.18431,-3.2704 3.49104,-3.19176 2.85731,0.34532 -0.62283,3.47622 -5.33339,5.15851 -5.60361,3.7507 -0.51357,-2.67565 0.57859,1.43168 3.43027,0.55024"
       id="path4057"
       inkscape:connector-curvature="0"
       sodipodi:nodetypes="csssssssssssssssssssssssssssssc" />
    <path
       style="fill:none;stroke:#000000;stroke-width:0.5669291;stroke-linecap:butt;stroke-linejoin:miter;stroke-miterlimit:4;stroke-opacity:1;stroke-dasharray:none"
       d="m 277.23934,575.28606 c -0.65744,2.46757 3.86701,0.58165 1.37537,-0.58622"
       id="path4059"
       inkscape:connector-curvature="0"
       sodipodi:nodetypes="cc" />
    <path
       style="fill:none;stroke:#000000;stroke-width:0.5669291;stroke-linecap:butt;stroke-linejoin:miter;stroke-miterlimit:4;stroke-opacity:1;stroke-dasharray:none"
       d="m 308.71604,585.97107 c 1.32875,-0.32067 3.81245,-1.29022 6.10234,-2.13801 1.56694,-0.58016 4.26739,-1.91442 5.07417,-3.40034 0.90291,-1.66299 -1.98624,-1.31482 -3.70477,0.20478 -1.01712,0.89936 -3.25272,3.68759 -2.00814,4.72085 1.40755,1.16858 5.1111,-0.72757 6.6287,-2.02048 1.26804,-1.0803 7.07509,-5.00507 8.9642,-7.81648 1.23524,-1.83833 0.66121,-2.36185 -0.66572,-0.60133 -1.00446,1.33268 -5.88894,6.75826 -6.90608,9.09226 -0.86076,1.97517 1.04516,2.26898 1.92199,1.75965 1.82918,-1.06255 7.97173,-4.9936 8.21939,-6.96608 0.18688,-1.48834 -1.99784,1.14288 -0.84811,0.92689 1.06475,-0.20001 2.95573,-0.74622 1.85677,1.04636 -1.4669,2.39273 -6.82624,6.08502 -2.82832,5.10902 2.89944,-0.70784 9.25716,-3.19182 10.59523,-4.73773 1.62512,-1.87753 0.58209,-2.52347 -1.25709,-1.88643 -1.82445,0.63194 -3.09805,2.53349 -3.92934,4.88619 -0.4425,1.25231 0.24833,2.77819 2.66395,1.4897"
       id="path4061"
       inkscape:connector-curvature="0"
       sodipodi:nodetypes="cssssssssssssssssc" />
    <path
       style="fill:none;stroke:#000000;stroke-width:0.5669291;stroke-linecap:butt;stroke-linejoin:miter;stroke-miterlimit:4;stroke-opacity:1;stroke-dasharray:none"
       d="m 341.465,584.52176 c -0.56749,3.36181 2.53326,0.051 0.99005,-0.5644"
       id="path4063"
       inkscape:connector-curvature="0"
       sodipodi:nodetypes="cc" />
    <path
       style="fill:none;stroke:#000000;stroke-width:0.5669291;stroke-linecap:butt;stroke-linejoin:miter;stroke-miterlimit:4;stroke-opacity:1;stroke-dasharray:none"
       d="m 316.86793,577.45362 c 0.84749,0.002 2.16616,-0.42568 3.20214,-1.55368 0.11872,0.84899 0.62883,1.35256 1.27368,2.02385"
       id="path4065"
       inkscape:connector-curvature="0"
       sodipodi:nodetypes="ccc" />
    <path
       sodipodi:nodetypes="cc"
       inkscape:connector-curvature="0"
       id="path4251"
       d="m 324.08034,576.12794 c 2.52882,-0.4712 6.65975,0.18848 8.90584,-0.56546"
       style="fill:none;stroke:#000000;stroke-width:0.5669291;stroke-linecap:butt;stroke-linejoin:miter;stroke-miterlimit:4;stroke-opacity:1;stroke-dasharray:none" />
  </g>
</svg>
