<?xml version="1.0" encoding="UTF-8" standalone="no"?>
<!-- Created with Inkscape (http://www.inkscape.org/) -->

<svg
   xmlns:dc="http://purl.org/dc/elements/1.1/"
   xmlns:cc="http://creativecommons.org/ns#"
   xmlns:rdf="http://www.w3.org/1999/02/22-rdf-syntax-ns#"
   xmlns:svg="http://www.w3.org/2000/svg"
   xmlns="http://www.w3.org/2000/svg"
   xmlns:sodipodi="http://sodipodi.sourceforge.net/DTD/sodipodi-0.dtd"
   xmlns:inkscape="http://www.inkscape.org/namespaces/inkscape"
   width="113.38583"
   height="103.25862"
   viewBox="0 0 30.000002 27.32051"
   version="1.1"
   id="svg8"
   inkscape:version="0.92.1 r15371"
   sodipodi:docname="sample-text-color.svg">
  <defs
     id="defs2" />
  <sodipodi:namedview
     id="base"
     pagecolor="#ffffff"
     bordercolor="#666666"
     borderopacity="1.0"
     inkscape:pageopacity="0.0"
     inkscape:pageshadow="2"
     inkscape:zoom="5.6568542"
     inkscape:cx="35.78361"
     inkscape:cy="35.963752"
     inkscape:document-units="mm"
     inkscape:current-layer="layer1"
     showgrid="false"
     inkscape:window-width="1920"
     inkscape:window-height="1027"
     inkscape:window-x="-8"
     inkscape:window-y="-8"
     inkscape:window-maximized="1"
     units="mm"
     fit-margin-top="5"
     fit-margin-left="5"
     fit-margin-right="5"
     fit-margin-bottom="5" />
  <metadata
     id="metadata5">
    <rdf:RDF>
      <cc:Work
         rdf:about="">
        <dc:format>image/svg+xml</dc:format>
        <dc:type
           rdf:resource="http://purl.org/dc/dcmitype/StillImage" />
        <dc:title></dc:title>
      </cc:Work>
    </rdf:RDF>
  </metadata>
  <g
     inkscape:label="Calque 1"
     inkscape:groupmode="layer"
     id="layer1"
     style="display:inline"
     transform="translate(-10.820777,-3.3161505)">
    <g
       aria-label="AaBb
45@}"
       style="font-style:normal;font-variant:normal;font-weight:normal;font-stretch:semi-expanded;font-size:8.46666622px;line-height:1.25;font-family:'BankGothic Md BT';-inkscape-font-specification:'BankGothic Md BT, Semi-Expanded';font-variant-ligatures:normal;font-variant-caps:normal;font-variant-numeric:normal;font-feature-settings:normal;text-align:start;letter-spacing:0px;word-spacing:0px;writing-mode:lr-tb;text-anchor:start;fill:#000000;fill-opacity:1;stroke:#00ff00;stroke-width:0.00035278;stroke-opacity:1;stroke-miterlimit:4;stroke-dasharray:none"
       id="text5057">
      <path
         d="m 22.089739,14.744773 h -1.331184 l -0.529167,-1.37666 h -2.422591 l -0.500228,1.37666 h -1.298112 l 2.360579,-6.0606117 h 1.293978 z m -2.253092,-2.397786 -0.835091,-2.248959 -0.818555,2.248959 z"
         style="font-style:normal;font-variant:normal;font-weight:bold;font-stretch:normal;font-size:8.46666622px;font-family:Arial;-inkscape-font-specification:'Arial, Bold';font-variant-ligatures:normal;font-variant-caps:normal;font-variant-numeric:normal;font-feature-settings:normal;text-align:start;writing-mode:lr-tb;text-anchor:start;fill:#000000;fill-opacity:1;stroke:#00ff00;stroke-opacity:1;stroke-width:0.00035278;stroke-miterlimit:4;stroke-dasharray:none"
         id="path6501" />
      <path
         d="m 23.619362,11.693797 -1.0542,-0.19017 q 0.177767,-0.636653 0.611849,-0.942578 0.434082,-0.305924 1.289844,-0.305924 0.777213,0 1.157552,0.186035 0.380339,0.181901 0.533301,0.467155 0.157096,0.28112 0.157096,1.037662 l -0.0124,1.35599 q 0,0.578776 0.05374,0.855762 0.05788,0.272851 0.21084,0.587044 h -1.149284 q -0.04547,-0.115755 -0.111621,-0.343132 -0.02894,-0.103352 -0.04134,-0.136425 -0.297656,0.289388 -0.636654,0.434082 -0.338997,0.144694 -0.72347,0.144694 -0.677994,0 -1.070735,-0.367937 -0.388607,-0.367936 -0.388607,-0.930175 0,-0.372071 0.177767,-0.661459 0.177767,-0.293522 0.496094,-0.446484 0.322461,-0.157096 0.926041,-0.272851 0.814421,-0.152963 1.128614,-0.285254 v -0.115756 q 0,-0.334863 -0.165365,-0.475423 -0.165365,-0.144694 -0.624251,-0.144694 -0.310059,0 -0.483692,0.124024 -0.173633,0.119889 -0.281119,0.425814 z m 1.554427,0.942578 q -0.223243,0.07441 -0.706934,0.177767 -0.483691,0.103352 -0.63252,0.202571 -0.227376,0.161231 -0.227376,0.409277 0,0.243913 0.181901,0.42168 0.181901,0.177767 0.463021,0.177767 0.314193,0 0.599447,-0.206706 0.210839,-0.157096 0.276985,-0.384472 0.04548,-0.148828 0.04548,-0.566374 z"
         style="font-style:normal;font-variant:normal;font-weight:bold;font-stretch:normal;font-size:8.46666622px;font-family:Arial;-inkscape-font-specification:'Arial, Bold';font-variant-ligatures:normal;font-variant-caps:normal;font-variant-numeric:normal;font-feature-settings:normal;text-align:start;writing-mode:lr-tb;text-anchor:start;fill:#000000;fill-opacity:1;stroke:#00ff00;stroke-opacity:1;stroke-width:0.00035278;stroke-miterlimit:4;stroke-dasharray:none"
         id="path6503" />
      <path
         d="m 31.106242,11.780613 q 1.058334,0.30179 1.058334,1.405599 0,0.682129 -0.363802,1.182357 -0.363802,0.496093 -0.855762,0.496093 -0.537435,0 -0.768945,-0.467155 0.07855,-0.07441 0.405143,-0.235644 0.03307,0.03307 0.04134,0.05788 0.09508,0.413412 0.467155,0.413412 0.297656,0 0.500228,-0.297656 0.202571,-0.301791 0.202571,-0.79375 0,-0.640788 -0.355533,-1.029395 -0.3514,-0.392741 -0.930176,-0.392741 l -0.01654,-0.07441 q 0.3514,-0.136426 0.56224,-0.467155 0.214974,-0.330729 0.214974,-0.694531 0,-0.533301 -0.413412,-0.9095051 -0.409277,-0.3762044 -1.000455,-0.3762044 -0.884701,0 -1.595768,0.6449215 -0.706934,0.644922 -0.706934,1.455209 0,0.388606 0.177767,0.628385 0.177767,0.235645 0.458887,0.235645 0.330729,0 0.615983,-0.467155 l 0.08682,0.04961 q -0.128157,0.367936 -0.376204,0.566374 -0.248047,0.198437 -0.549838,0.198437 -0.326595,0 -0.529166,-0.248047 -0.198438,-0.248047 -0.198438,-0.640787 0,-0.640788 0.409278,-1.289844 0.409277,-0.649056 1.087272,-1.041797 0.682129,-0.3968749 1.426269,-0.3968749 0.673861,0 1.07487,0.3596679 0.405143,0.355534 0.405143,0.942578 0,0.661458 -0.533301,1.186491 z m -0.65319,-1.641243 q -0.285254,0.44235 -0.285254,0.971516 0,0.28112 0.08682,0.86403 0.09095,0.58291 0.09095,0.880567 0,0.859895 -0.504362,1.442806 -0.504362,0.58291 -1.240234,0.58291 -0.479557,0 -0.797884,-0.28112 -0.318327,-0.28112 -0.380338,-0.79375 0.227376,-0.107487 0.541568,-0.186035 l 0.01654,0.05788 q -0.09095,0.161231 -0.09095,0.338998 0,0.272851 0.219108,0.479557 0.219109,0.206706 0.549838,0.206706 0.504362,0 0.847493,-0.434082 0.347266,-0.434082 0.347266,-1.157552 0,-0.227377 -0.04134,-0.673861 -0.04134,-0.446484 -0.04134,-0.665592 0,-1.070736 0.615984,-1.699121 z"
         style="font-style:normal;font-variant:normal;font-weight:normal;font-stretch:normal;font-size:8.46666622px;font-family:'French Script MT';-inkscape-font-specification:'French Script MT, Normal';font-variant-ligatures:normal;font-variant-caps:normal;font-variant-numeric:normal;font-feature-settings:normal;text-align:start;writing-mode:lr-tb;text-anchor:start;fill:#000000;fill-opacity:1;stroke:#00ff00;stroke-opacity:1;stroke-width:0.00035278;stroke-miterlimit:4;stroke-dasharray:none"
         id="path6505" />
      <path
         d="m 33.578444,13.248224 q 0.330729,-0.434082 0.810286,-0.434082 0.268717,0 0.438216,0.194303 0.173633,0.190169 0.173633,0.491959 0,0.487826 -0.363802,0.909506 -0.359668,0.417545 -0.806152,0.417545 -0.326595,0 -0.512631,-0.206706 -0.181901,-0.210839 -0.181901,-0.595312 V 13.40532 q -0.14056,0.359668 -0.413411,0.740006 l -0.119889,-0.111621 q 0.23151,-0.367936 0.380338,-0.706933 0.152962,-0.338998 0.152962,-0.359668 v -1.533757 q 0,-0.715201 0.310059,-1.157552 0.310059,-0.44235 0.715202,-0.44235 0.206705,0 0.334863,0.144694 0.132292,0.144694 0.132292,0.37207 0,0.322461 -0.239779,0.855762 -0.235645,0.533301 -0.810286,1.51722 z m 0,-0.86403 q 0.467155,-0.826823 0.611849,-1.211296 0.148828,-0.384473 0.148828,-0.686263 0,-0.202571 -0.08682,-0.326595 -0.08682,-0.124023 -0.227376,-0.124023 -0.202572,0 -0.326595,0.235644 -0.119889,0.235645 -0.119889,0.628386 z m 0,1.715657 q 0,0.549837 0.37207,0.549837 0.252181,0 0.463021,-0.264583 0.214974,-0.264583 0.214974,-0.624251 0,-0.297657 -0.136426,-0.467155 -0.136426,-0.173633 -0.355534,-0.173633 -0.256315,0 -0.409277,0.190169 -0.148828,0.186035 -0.148828,0.223242 z m 2.005045,-0.0083 q -0.454753,0.719336 -1.211295,0.806152 l -0.03307,-0.09508 q 0.665592,-0.148829 1.116211,-0.810287 z"
         style="font-style:normal;font-variant:normal;font-weight:normal;font-stretch:normal;font-size:8.46666622px;font-family:'French Script MT';-inkscape-font-specification:'French Script MT, Normal';font-variant-ligatures:normal;font-variant-caps:normal;font-variant-numeric:normal;font-feature-settings:normal;text-align:start;writing-mode:lr-tb;text-anchor:start;fill:#000000;fill-opacity:1;stroke:#00ff00;stroke-opacity:1;stroke-width:0.00035278;stroke-miterlimit:4;stroke-dasharray:none"
         id="path6507" />
      <path
         d="m 19.712624,18.05786 v 4.373893 h 0.475423 v 1.141016 h -0.475423 v 1.178223 h -1.670183 v -1.178223 h -1.984374 v -1.141016 l 1.442805,-4.373893 z m -1.670183,4.373893 v -2.848404 l -0.735872,2.848404 z"
         style="font-style:normal;font-variant:normal;font-weight:normal;font-stretch:condensed;font-size:8.46666622px;font-family:Impact;-inkscape-font-specification:'Impact, Condensed';font-variant-ligatures:normal;font-variant-caps:normal;font-variant-numeric:normal;font-feature-settings:normal;text-align:start;writing-mode:lr-tb;text-anchor:start;fill:#000000;fill-opacity:1;stroke:#00ff00;stroke-opacity:1;stroke-width:0.00035278;stroke-miterlimit:4;stroke-dasharray:none"
         id="path6509" />
      <path
         d="m 24.606685,18.05786 v 1.070736 h -2.071191 v 1.136882 q 0.388606,-0.458887 1.000455,-0.458887 0.690397,0 1.041797,0.388607 0.355534,0.384472 0.355534,1.484147 v 0.95498 q 0,0.711068 -0.07028,1.045931 -0.06615,0.330729 -0.289388,0.615983 -0.223242,0.28112 -0.624251,0.434082 -0.396875,0.148828 -0.971517,0.148828 -0.644922,0 -1.136882,-0.223242 -0.491959,-0.227376 -0.698665,-0.673861 -0.206706,-0.446484 -0.206706,-1.380794 V 22.23745 h 1.670183 v 0.417546 q 0,0.649056 0.04547,0.921907 0.04547,0.272852 0.314192,0.272852 0.124024,0 0.198438,-0.07855 0.07855,-0.07855 0.08268,-0.169499 0.0083,-0.09095 0.01654,-0.789616 v -1.327051 q 0,-0.376204 -0.07855,-0.51263 -0.07855,-0.136426 -0.26045,-0.136426 -0.115755,0 -0.194303,0.07028 -0.07855,0.07028 -0.103353,0.152962 -0.02067,0.07855 -0.02067,0.372071 h -1.653646 l 0.07028,-3.373438 z"
         style="font-style:normal;font-variant:normal;font-weight:normal;font-stretch:condensed;font-size:8.46666622px;font-family:Impact;-inkscape-font-specification:'Impact, Condensed';font-variant-ligatures:normal;font-variant-caps:normal;font-variant-numeric:normal;font-feature-settings:normal;text-align:start;writing-mode:lr-tb;text-anchor:start;fill:#000000;fill-opacity:1;stroke:#00ff00;stroke-opacity:1;stroke-width:0.00035278;stroke-miterlimit:4;stroke-dasharray:none"
         id="path6511" />
      <path
         d="m 31.218187,19.480889 -0.483691,1.649512 q -0.268718,0.926042 -0.326595,1.174089 -0.05788,0.248046 -0.05788,0.396875 0,0.132291 0.08682,0.223242 0.09095,0.09095 0.223242,0.09095 0.30179,0 0.72347,-0.30179 0.425814,-0.30179 0.727604,-0.979785 0.30179,-0.677995 0.30179,-1.413867 0,-0.706934 -0.343131,-1.30638 Q 31.730817,18.414288 31.106566,18.095961 30.486449,17.7735 29.73404,17.7735 q -0.95498,0 -1.773535,0.508496 -0.818555,0.504362 -1.298112,1.455209 -0.475423,0.950846 -0.475423,1.976106 0,0.950846 0.417546,1.72806 0.421679,0.777213 1.182356,1.174088 0.760677,0.40101 1.63711,0.40101 1.087272,0 1.963704,-0.582911 0.880566,-0.58291 1.360123,-1.703255 h 0.239779 q -0.37207,1.132748 -1.351855,1.835547 -0.979785,0.7028 -2.232422,0.7028 -0.983919,0 -1.827279,-0.467155 -0.843359,-0.463021 -1.310514,-1.318783 -0.467155,-0.851627 -0.467155,-1.876888 0,-1.091406 0.51263,-2.033984 0.512631,-0.946712 1.434538,-1.475879 0.926042,-0.533301 1.963704,-0.533301 0.855762,0 1.542025,0.355534 0.690397,0.3514 1.050065,1.033529 0.359668,0.677995 0.359668,1.442806 0,0.756543 -0.338997,1.500683 -0.334864,0.740007 -0.855762,1.079004 -0.520898,0.338997 -1.087272,0.338997 -0.314193,0 -0.475423,-0.148828 -0.157097,-0.148828 -0.157097,-0.417545 0,-0.231511 0.07441,-0.607715 -0.611848,0.740006 -0.979785,0.959115 -0.367936,0.219108 -0.649056,0.219108 -0.293522,0 -0.520898,-0.26045 -0.227376,-0.264583 -0.227376,-0.702799 0,-0.599447 0.388606,-1.343587 0.392741,-0.744141 1.037663,-1.211296 0.475423,-0.343131 0.851628,-0.343131 0.276985,0 0.458886,0.144694 0.186036,0.14056 0.252181,0.425814 l 0.136426,-0.454753 z m -1.451074,0.169499 q -0.310059,0 -0.628385,0.326595 -0.467155,0.479557 -0.797884,1.293978 -0.243913,0.595312 -0.243913,0.959114 0,0.26045 0.144694,0.425814 0.148828,0.161231 0.330729,0.161231 0.239779,0 0.504362,-0.181901 0.264583,-0.181901 0.553971,-0.558106 0.289388,-0.380338 0.42168,-0.760677 0.23151,-0.657324 0.23151,-1.070735 0,-0.272852 -0.152962,-0.434082 -0.148828,-0.161231 -0.363802,-0.161231 z"
         style="font-style:normal;font-variant:normal;font-weight:normal;font-stretch:normal;font-size:8.46666622px;font-family:'Times New Roman';-inkscape-font-specification:'Times New Roman, Normal';font-variant-ligatures:normal;font-variant-caps:normal;font-variant-numeric:normal;font-feature-settings:normal;text-align:start;writing-mode:lr-tb;text-anchor:start;fill:#000000;fill-opacity:1;stroke:#00ff00;stroke-opacity:1;stroke-width:0.00035278;stroke-miterlimit:4;stroke-dasharray:none"
         id="path6513" />
      <path
         d="M 33.139173,17.707354 V 17.56266 q 0.690397,0.09095 1.120345,0.558106 0.434082,0.463021 0.434082,1.033528 0,0.297657 -0.09509,0.690397 -0.09508,0.392741 -0.09508,0.611849 0,0.297657 0.248047,0.558106 0.252181,0.256315 0.694532,0.314193 v 0.169498 q -0.442351,0.05788 -0.694532,0.318327 -0.248047,0.256315 -0.248047,0.553971 0,0.219108 0.09508,0.615983 0.09509,0.392741 0.09509,0.690398 0,0.562239 -0.434082,1.029394 -0.429948,0.467155 -1.120345,0.56224 v -0.144694 q 0.483691,-0.11989 0.706933,-0.380339 0.227377,-0.260449 0.227377,-0.578776 0,-0.243913 -0.09509,-0.644922 -0.09508,-0.396875 -0.09508,-0.67386 0,-0.42168 0.305925,-0.814421 0.310058,-0.392741 0.917773,-0.607715 -0.595312,-0.219108 -0.909505,-0.620117 -0.314193,-0.401009 -0.314193,-0.818555 0,-0.281119 0.09508,-0.677994 0.09509,-0.401009 0.09509,-0.644922 0,-0.314193 -0.227377,-0.574642 -0.223242,-0.264583 -0.706933,-0.380339 z"
         style="font-style:normal;font-variant:normal;font-weight:normal;font-stretch:normal;font-size:8.46666622px;font-family:'Times New Roman';-inkscape-font-specification:'Times New Roman, Normal';font-variant-ligatures:normal;font-variant-caps:normal;font-variant-numeric:normal;font-feature-settings:normal;text-align:start;writing-mode:lr-tb;text-anchor:start;fill:#000000;fill-opacity:1;stroke:#00ff00;stroke-opacity:1;stroke-width:0.00035278;stroke-miterlimit:4;stroke-dasharray:none"
         id="path6515" />
    </g>
  </g>
</svg>
