<?xml version="1.0" encoding="UTF-8" standalone="no"?>
<!-- Created with Inkscape (http://www.inkscape.org/) -->

<svg
   xmlns:dc="http://purl.org/dc/elements/1.1/"
   xmlns:cc="http://creativecommons.org/ns#"
   xmlns:rdf="http://www.w3.org/1999/02/22-rdf-syntax-ns#"
   xmlns:svg="http://www.w3.org/2000/svg"
   xmlns="http://www.w3.org/2000/svg"
   xmlns:sodipodi="http://sodipodi.sourceforge.net/DTD/sodipodi-0.dtd"
   xmlns:inkscape="http://www.inkscape.org/namespaces/inkscape"
   width="210mm"
   height="297mm"
   id="svg2"
   version="1.1"
   inkscape:version="0.92.1 r15371"
   sodipodi:docname="sample-TIE.svg">
  <defs
     id="defs4">
    <clipPath
       clipPathUnits="userSpaceOnUse"
       id="clipPath3029">
      <rect
         style="opacity:0.98999999;color:#000000;fill:none;stroke:#000000;stroke-width:1.0629921;stroke-linecap:butt;stroke-linejoin:miter;stroke-miterlimit:4;stroke-opacity:1;stroke-dasharray:none;stroke-dashoffset:0;marker:none;visibility:visible;display:inline;overflow:visible;enable-background:accumulate"
         id="rect3031"
         width="47.477169"
         height="60.104076"
         x="401.03055"
         y="594.76306" />
    </clipPath>
  </defs>
  <sodipodi:namedview
     id="base"
     pagecolor="#ffffff"
     bordercolor="#666666"
     borderopacity="1.0"
     inkscape:pageopacity="0.0"
     inkscape:pageshadow="2"
     inkscape:zoom="2.8284271"
     inkscape:cx="123.64959"
     inkscape:cy="416.05717"
     inkscape:document-units="px"
     inkscape:current-layer="layer1"
     showgrid="false"
     inkscape:window-width="1920"
     inkscape:window-height="1016"
     inkscape:window-x="0"
     inkscape:window-y="27"
     inkscape:window-maximized="1" />
  <metadata
     id="metadata7">
    <rdf:RDF>
      <cc:Work
         rdf:about="">
        <dc:format>image/svg+xml</dc:format>
        <dc:type
           rdf:resource="http://purl.org/dc/dcmitype/StillImage" />
        <dc:title />
      </cc:Work>
    </rdf:RDF>
  </metadata>
  <g
     inkscape:label="Calque 1"
     inkscape:groupmode="layer"
     id="layer1">
    <path
       style="color:#000000;display:inline;overflow:visible;visibility:visible;opacity:0.98999999;fill:#000000;fill-opacity:1;stroke:none;stroke-width:1.13386667;stroke-linecap:butt;stroke-linejoin:miter;stroke-miterlimit:4;stroke-dasharray:none;stroke-dashoffset:0;stroke-opacity:1;marker:none;enable-background:accumulate"
       d="m 258.96667,597.26667 v 46.66666 H 262.1 v -21.9 l 8.5,1.46667 c 1.11487,2.56114 3.66178,4.36667 6.63333,4.36667 2.99812,0 5.56786,-1.83548 6.66667,-4.43334 v -0.0333 l 7.9,-1.33333 v 21.86667 h 3.16667 V 597.26672 H 291.8 v 21.86667 l -7.9,-1.33334 c -1.09881,-2.59785 -3.66855,-4.43333 -6.66667,-4.43333 -2.96081,0 -5.51215,1.78701 -6.63333,4.33333 l -8.5,1.46667 v -21.90005 z m 18.26666,19.46666 c 2.14393,0 3.9,1.72274 3.9,3.86667 0,2.14393 -1.75607,3.9 -3.9,3.9 -2.14392,0 -3.86666,-1.75607 -3.86666,-3.9 0,-2.14393 1.72274,-3.86667 3.86666,-3.86667 z M 276.96667,617.6 c -0.61306,0.0536 -1.19525,0.30443 -1.66667,0.7 l 0.96667,1.13333 c 0.23538,-0.1975 0.52723,-0.30656 0.83333,-0.33333 z m 0.53333,0 -0.13333,1.5 c 0.3061,0.0268 0.59795,0.13583 0.83333,0.33333 L 279.16667,618.3 c -0.47143,-0.39557 -1.05361,-0.64635 -1.66667,-0.7 z m -2.56667,1.06667 c -0.39557,0.47142 -0.61301,1.05361 -0.66666,1.66666 l 1.46666,0.13334 c 0.0268,-0.3061 0.16917,-0.59796 0.36667,-0.83334 z m 4.6,0 -1.13333,0.96666 c 0.1975,0.23538 0.30656,0.52724 0.33333,0.83334 l 1.5,-0.13334 c -0.0537,-0.61305 -0.30442,-1.19524 -0.7,-1.66666 z m -3.8,2.06666 -1.46666,0.13334 c 0.0537,0.61305 0.27109,1.19524 0.66666,1.66666 L 276.1,621.56667 c -0.1975,-0.23538 -0.33988,-0.52724 -0.36667,-0.83334 z m 3,0 c -0.0268,0.3061 -0.13583,0.59796 -0.33333,0.83334 l 1.13333,0.96666 c 0.39558,-0.47142 0.64637,-1.05361 0.7,-1.66666 z m -2.46666,1.03334 L 275.3,622.9 c 0.47142,0.39557 1.05361,0.64637 1.66667,0.7 L 277.1,622.1 c -0.3061,-0.0268 -0.59795,-0.13583 -0.83333,-0.33333 z m 1.93333,0 c -0.23538,0.1975 -0.52723,0.30655 -0.83333,0.33333 l 0.13333,1.5 c 0.61306,-0.0537 1.19524,-0.30443 1.66667,-0.7 z"
       id="rect3803"
       inkscape:connector-curvature="0" />
  </g>
</svg>
