<?xml version="1.0" encoding="UTF-8" standalone="no"?>
<!-- Created with Inkscape (http://www.inkscape.org/) -->

<svg
   xmlns:dc="http://purl.org/dc/elements/1.1/"
   xmlns:cc="http://creativecommons.org/ns#"
   xmlns:rdf="http://www.w3.org/1999/02/22-rdf-syntax-ns#"
   xmlns:svg="http://www.w3.org/2000/svg"
   xmlns="http://www.w3.org/2000/svg"
   xmlns:sodipodi="http://sodipodi.sourceforge.net/DTD/sodipodi-0.dtd"
   xmlns:inkscape="http://www.inkscape.org/namespaces/inkscape"
   width="210mm"
   height="297mm"
   id="svg3890"
   version="1.1"
   inkscape:version="0.48.4 r9939"
   sodipodi:docname="cards.svg">
  <defs
     id="defs3892" />
  <sodipodi:namedview
     id="base"
     pagecolor="#ffffff"
     bordercolor="#666666"
     borderopacity="1.0"
     inkscape:pageopacity="0.0"
     inkscape:pageshadow="2"
     inkscape:zoom="1.4142136"
     inkscape:cx="466.887"
     inkscape:cy="761.82437"
     inkscape:document-units="px"
     inkscape:current-layer="layer1"
     showgrid="false"
     inkscape:window-width="1920"
     inkscape:window-height="1027"
     inkscape:window-x="-8"
     inkscape:window-y="-8"
     inkscape:window-maximized="1"
     inkscape:snap-global="false" />
  <metadata
     id="metadata3895">
    <rdf:RDF>
      <cc:Work
         rdf:about="">
        <dc:format>image/svg+xml</dc:format>
        <dc:type
           rdf:resource="http://purl.org/dc/dcmitype/StillImage" />
        <dc:title />
      </cc:Work>
    </rdf:RDF>
  </metadata>
  <g
     inkscape:label="Calque 1"
     inkscape:groupmode="layer"
     id="layer1">
    <g
       id="g3919"
       transform="matrix(0.21518368,0,0,0.21518368,69.416005,44.686332)"
       style="stroke-width:0.97439235;stroke-miterlimit:4;stroke-dasharray:none">
      <path
         id="path3774"
         d="m 375.01337,410.58926 c -67.26038,0 -121.81249,54.52086 -121.81249,121.78125 0,12.30266 1.82458,24.18046 5.21875,35.375 l 17.03125,0 0,34.8125 c 2.49068,3.52435 5.18933,6.89059 8.03125,10.125 l 0,-56.0625 c 3.88202,-20.58015 8.66817,-41.41266 45.5,-71.21875 l 0,-29.8125 -18.1875,0 22.96875,-22.96875 12.37499,0 0,22.46875 -9.59375,0 0,27.28125 c 44.56588,-24.21558 122.36105,-11.93397 132.34375,70.21875 l 0,57.375 c 2.93625,-3.54866 5.6628,-7.28585 8.1875,-11.15625 l 0,-32.9375 15,0.15625 c 3.06679,-10.68866 4.71875,-21.98144 4.71875,-33.65625 0,-67.26039 -54.52086,-121.78125 -121.78125,-121.78125 z"
         style="fill:#000000;fill-opacity:1;stroke:#000000;stroke-width:0.92943853;stroke-linecap:butt;stroke-linejoin:miter;stroke-miterlimit:4;stroke-opacity:1;stroke-dasharray:none"
         inkscape:connector-curvature="0" />
      <path
         sodipodi:nodetypes="ccccccc"
         inkscape:connector-curvature="0"
         id="path3776"
         d="m 299.28547,627.65663 23.06444,0.17857 -0.0962,-25.75889 42.4264,0 0,25.75889 86.09756,-0.17857 c -30.25686,27.25223 -96.32588,47.62199 -151.49222,0 z"
         style="fill:#000000;fill-opacity:1;stroke:#000000;stroke-width:0.92943853;stroke-linecap:butt;stroke-linejoin:miter;stroke-miterlimit:4;stroke-opacity:1;stroke-dasharray:none" />
      <path
         sodipodi:nodetypes="cccccc"
         inkscape:connector-curvature="0"
         id="path3782"
         d="m 348.677,484.89862 c 11.68825,-5.07145 37.85321,-8.79623 52.4973,-2.93855 l 7.9893,0.1173 0.20921,5.46392 -8.58104,-0.0613 c -20.64161,0.90661 -41.79387,3.07973 -52.11477,-2.58139 z"
         style="fill:#000000;fill-opacity:1;stroke:#000000;stroke-width:0.92943853;stroke-linecap:butt;stroke-linejoin:miter;stroke-miterlimit:4;stroke-opacity:1;stroke-dasharray:none" />
      <path
         id="rect3784"
         d="m 352.20087,503.08926 0,55.03125 70.71875,0 0,-55.03125 -70.71875,0 z m 29.0625,16.15625 c 6.83418,0 12.375,5.54082 12.375,12.375 0,6.83418 -5.54082,12.375 -12.375,12.375 -6.83418,0 -12.375,-5.54082 -12.375,-12.375 0,-6.83418 5.54082,-12.375 12.375,-12.375 z"
         style="fill:#000000;fill-opacity:1;stroke:#000000;stroke-width:0.92943853;stroke-linecap:butt;stroke-miterlimit:4;stroke-opacity:1;stroke-dasharray:none;stroke-dashoffset:17.01120644"
         inkscape:connector-curvature="0" />
      <rect
         y="568.74127"
         x="289.078"
         height="18.687822"
         width="173.24117"
         id="rect3786"
         style="fill:#000000;fill-opacity:1;stroke:#000000;stroke-width:0.92943853;stroke-linecap:butt;stroke-miterlimit:4;stroke-opacity:1;stroke-dasharray:none;stroke-dashoffset:17.01120644" />
      <g
         transform="translate(18.357124,-252.78574)"
         id="g3809"
         style="stroke-width:0.97439235;stroke-miterlimit:4;stroke-dasharray:none">
        <path
           sodipodi:type="arc"
           style="fill:none;stroke:#000000;stroke-width:0.75263005;stroke-linecap:butt;stroke-miterlimit:4;stroke-opacity:1;stroke-dasharray:none;stroke-dashoffset:17.01120644"
           id="path5567"
           sodipodi:cx="354.64285"
           sodipodi:cy="489.14789"
           sodipodi:rx="112.5"
           sodipodi:ry="112.5"
           d="m 467.14285,489.14789 c 0,62.13203 -50.36796,112.5 -112.5,112.5 -62.13203,0 -112.5,-50.36797 -112.5,-112.5 0,-62.13204 50.36797,-112.5 112.5,-112.5 62.13204,0 112.5,50.36796 112.5,112.5 z"
           transform="matrix(1.2349207,0,0,1.2349207,-81.312924,181.08907)" />
        <path
           transform="matrix(1.0825397,0,0,1.0825397,-27.272108,255.62589)"
           d="m 467.14285,489.14789 c 0,62.13203 -50.36796,112.5 -112.5,112.5 -62.13203,0 -112.5,-50.36797 -112.5,-112.5 0,-62.13204 50.36797,-112.5 112.5,-112.5 62.13204,0 112.5,50.36796 112.5,112.5 z"
           sodipodi:ry="112.5"
           sodipodi:rx="112.5"
           sodipodi:cy="489.14789"
           sodipodi:cx="354.64285"
           id="path3767"
           style="fill:none;stroke:#000000;stroke-width:0.85857224;stroke-linecap:butt;stroke-miterlimit:4;stroke-opacity:1;stroke-dasharray:none;stroke-dashoffset:17.01120644"
           sodipodi:type="arc" />
      </g>
    </g>
    <g
       id="g4631"
       style="stroke-width:0.24708563;stroke-miterlimit:4;stroke-dasharray:none"
       transform="matrix(0.74722089,0,0,0.74722089,48.631518,40.395661)">
      <path
         transform="matrix(0.3557798,0,0,0.3557798,95.32588,-15.3627)"
         d="m 467.14285,489.14789 c 0,62.13203 -50.36796,112.5 -112.5,112.5 -62.13203,0 -112.5,-50.36797 -112.5,-112.5 0,-62.13204 50.36797,-112.5 112.5,-112.5 62.13204,0 112.5,50.36796 112.5,112.5 z"
         sodipodi:ry="112.5"
         sodipodi:rx="112.5"
         sodipodi:cy="489.14789"
         sodipodi:cx="354.64285"
         id="path5567-1"
         style="fill:none;stroke:#000000;stroke-width:0.75231493;stroke-linecap:butt;stroke-miterlimit:4;stroke-opacity:1;stroke-dasharray:none;stroke-dashoffset:17.01120644"
         sodipodi:type="arc" />
      <path
         sodipodi:nodetypes="ssssscccsccccccccccccccccccccccssccccccccccccccccsccsccsccscccsccsccccccccccc"
         inkscape:connector-curvature="0"
         id="path3767-7"
         d="m 221.50053,123.57623 c -19.37767,0 -35.08509,15.71643 -35.08509,35.0941 0,19.37767 15.70742,35.0851 35.08509,35.0851 19.37767,0 35.0851,-15.70743 35.0851,-35.0851 0,-19.37767 -15.70743,-35.0941 -35.0851,-35.0941 z m 22.55406,25.62027 0.33955,3.47391 -2.03727,0.25723 0.30096,4.94142 c 0.0861,1.41425 -2.14021,1.72725 -2.98903,1.31445 -0.38059,3.30325 -3.40088,10.37137 -11.71304,11.92911 -0.0881,3.79463 -0.89726,4.70617 -1.7466,5.45588 l -1.52153,-0.21607 -2.3318,1.4495 c 0.46737,0.3265 -0.76938,1.16036 -3.06106,1.78261 0.007,-0.1165 0.0234,-0.23255 0.027,-0.35112 l -2.82698,0.37813 c -0.14285,1.0709 -0.51513,2.0161 -1.08037,2.79997 l -4.18644,0.27009 -2.69193,0.21607 -3.34916,0.51318 c -0.12301,-0.022 -0.24093,-0.0479 -0.36012,-0.072 0.3839,-5.39817 -2.92805,-7.99041 -6.46423,-7.86872 -0.50517,0.0174 -1.01007,0.0939 -1.50352,0.22508 -0.002,0.009 0.002,0.0181 0,0.027 -0.0107,-0.0333 -0.0254,-0.0657 -0.036,-0.099 l -0.29709,-4.65459 0.8643,-0.50417 0.009,-0.009 c 0.63237,-0.0796 1.34579,-0.0173 2.11573,0.18006 l 0.16206,-1.55753 c -0.45198,-0.0895 -0.89961,-0.14413 -1.32346,-0.14405 -0.0971,1e-5 -0.19279,0.004 -0.2881,0.009 -0.22395,0.0115 -0.43594,0.042 -0.64822,0.081 l 0.054,-3.29513 c 0.004,-0.002 0.005,-0.007 0.009,-0.009 0.96662,-0.60849 1.94144,-1.15125 2.90801,-1.37748 l 0.50417,-4.43853 c 0.43803,-1.45363 1.72404,-2.05626 2.908,-2.76395 l 0.2971,-2.46685 c 1.64913,-1.74607 3.04036,-1.17874 4.51056,-1.31445 2.17454,-7.60211 6.97661,-9.60895 12.21721,-10.69569 -0.44042,-0.97008 -0.30578,-2.52313 0.5852,-3.49321 l 3.34916,-0.8733 0.80127,-1.81863 3.19611,-0.36012 c 16.56853,-6.79997 19.5618,-0.49673 15.29758,13.07893 z m -41.30752,12.12075 c -0.3784,0 -0.74635,0.0284 -1.09838,0.072 l -0.26109,2.77296 c 0.17847,-0.0112 0.36359,-0.018 0.54919,-0.018 3.0888,0 6.46321,1.56944 9.20117,4.00638 l 2.06171,-1.93567 c -3.10694,-2.97977 -6.94339,-4.89768 -10.4526,-4.89768 z m 11.74905,6.25715 -2.0257,1.88165 c 1.36513,1.48285 2.48957,3.18908 3.22311,5.00573 0.67921,1.68208 0.94396,3.2694 0.84629,4.67261 l 2.79096,-0.36913 c -0.0181,-1.4977 -0.34199,-3.1441 -0.99034,-4.87068 -0.86578,-2.30561 -2.21091,-4.46231 -3.84432,-6.32018 z m -13.60369,1.83664 -0.17106,1.62956 c 0.34458,0.14484 0.69506,0.31528 1.05336,0.51317 2.01108,1.1107 3.81395,2.84611 5.09576,4.74464 l 1.38648,-0.90931 c -0.0954,-0.13748 -0.18774,-0.27787 -0.2881,-0.41415 -2.01341,-2.73381 -4.63363,-4.70683 -7.07644,-5.56391 z m -2.0347,7.37354 c 1.15856,-0.0495 2.35174,0.55696 3.05205,1.24243 1.00154,0.99593 1.56595,2.36348 1.4585,3.60124 -2.10405,-1.04295 -3.7852,-2.39977 -4.51055,-4.84367 z m 10.31755,0.063 -1.42249,0.93632 c 0.69048,1.35948 1.08641,2.74319 1.08038,3.98838 l 1.94467,-0.14405 c -0.14931,-1.49592 -0.69644,-3.14755 -1.60256,-4.78065 z"
         style="fill:#000000;fill-opacity:1;stroke:#000000;stroke-width:0.26765847;stroke-linecap:butt;stroke-miterlimit:4;stroke-opacity:1;stroke-dasharray:none;stroke-dashoffset:17.01120644" />
      <path
         sodipodi:nodetypes="cccc"
         inkscape:connector-curvature="0"
         id="path3950"
         d="m 213.48048,154.15928 c -2.06563,-0.19616 -1.94016,-0.58205 -2.91024,-0.87307 -0.34544,-3.87756 1.68897,-4.24795 3.05575,-5.60222 -0.41214,2.13704 -1.28589,3.71041 -0.14551,6.47529 z"
         style="fill:#000000;fill-opacity:1;stroke:#000000;stroke-width:0.26765847;stroke-linecap:butt;stroke-linejoin:miter;stroke-miterlimit:4;stroke-opacity:1;stroke-dasharray:none" />
      <path
         sodipodi:nodetypes="cccc"
         inkscape:connector-curvature="0"
         id="path3952"
         d="m 227.08586,166.12765 -0.0728,2.61922 c 4.83691,-0.5627 5.03731,-1.33885 5.49308,-3.12851 -1.49143,1.54572 -3.5946,1.56553 -5.42033,0.50929 z"
         style="fill:#000000;fill-opacity:1;stroke:#000000;stroke-width:0.26765847;stroke-linecap:butt;stroke-linejoin:miter;stroke-miterlimit:4;stroke-opacity:1;stroke-dasharray:none" />
      <path
         sodipodi:nodetypes="ccccc"
         inkscape:connector-curvature="0"
         id="path3954"
         d="m 242.10197,152.03794 1.42677,-0.14165 c -2.50728,-12.04235 -9.77064,-15.27451 -17.37087,-14.9085 l -0.49182,1.29824 c 8.36962,-0.39935 14.14625,3.87096 16.43592,13.75191 z"
         style="fill:#000000;fill-opacity:1;stroke:#000000;stroke-width:0.26765847;stroke-linecap:butt;stroke-linejoin:miter;stroke-miterlimit:4;stroke-opacity:1;stroke-dasharray:none" />
      <path
         sodipodi:nodetypes="ccc"
         inkscape:connector-curvature="0"
         id="path3956"
         d="m 243.69921,142.63003 c -1.67165,-3.32473 -3.92903,-6.11755 -7.46115,-6.96221 6.24962,-2.21896 8.70155,2.62808 7.46115,6.96221 z"
         style="fill:#000000;fill-opacity:1;stroke:#000000;stroke-width:0.26765847;stroke-linecap:butt;stroke-linejoin:miter;stroke-miterlimit:4;stroke-opacity:1;stroke-dasharray:none" />
      <path
         sodipodi:nodetypes="ccccc"
         inkscape:connector-curvature="0"
         id="path3958"
         d="m 204.8152,156.84347 0.17405,-1.38886 c 10.86257,-3.99005 23.41175,15.15267 19.73755,19.69331 l -2.08863,1.28203 c 5.22749,-7.01602 -10.29091,-22.84298 -17.82297,-19.58648 z"
         style="fill:#000000;fill-opacity:1;stroke:#000000;stroke-width:0.26765847;stroke-linecap:butt;stroke-linejoin:miter;stroke-miterlimit:4;stroke-opacity:1;stroke-dasharray:none" />
      <path
         id="path3978"
         d="m 231.35893,152.98037 c 0.18001,0.72685 0.0877,1.38634 -0.22508,1.89966 l 5.48289,3.55622 c 0.81912,-1.3624 1.01479,-3.07444 0.5672,-4.89769 l -5.82501,-0.55819 z"
         style="fill:#000000;fill-opacity:1;stroke:#000000;stroke-width:0.26765847;stroke-linecap:butt;stroke-miterlimit:4;stroke-opacity:1;stroke-dasharray:none;stroke-dashoffset:17.01120644"
         inkscape:connector-curvature="0" />
      <path
         id="path3982"
         d="m 230.78273,155.31218 c -0.44849,0.42108 -1.10079,0.67523 -1.90866,0.67523 l 1.89966,5.32083 c 2.00697,0 3.73631,-0.61212 4.9337,-1.7466 l -4.9247,-4.24946 z"
         style="fill:#000000;fill-opacity:1;stroke:#000000;stroke-width:0.26765847;stroke-linecap:butt;stroke-miterlimit:4;stroke-opacity:1;stroke-dasharray:none;stroke-dashoffset:17.01120644"
         inkscape:connector-curvature="0" />
      <path
         id="path3984"
         d="m 226.66831,155.41121 -1.59355,4.42052 c 1.37223,0.70887 2.80958,1.17917 4.21346,1.37748 l -0.99935,-5.26682 c -0.55194,-0.0778 -1.10271,-0.26557 -1.62056,-0.53118 z"
         style="fill:#000000;fill-opacity:1;stroke:#000000;stroke-width:0.26765847;stroke-linecap:butt;stroke-miterlimit:4;stroke-opacity:1;stroke-dasharray:none;stroke-dashoffset:17.01120644"
         inkscape:connector-curvature="0" />
      <path
         id="path3986"
         d="m 224.63361,153.67361 -4.79865,1.63857 c 0.95064,1.35166 2.20498,2.57796 3.64626,3.56522 l 2.56588,-3.82631 c -0.55195,-0.37557 -1.04002,-0.85105 -1.41349,-1.37748 z"
         style="fill:#000000;fill-opacity:1;stroke:#000000;stroke-width:0.26765847;stroke-linecap:butt;stroke-miterlimit:4;stroke-opacity:1;stroke-dasharray:none;stroke-dashoffset:17.01120644"
         inkscape:connector-curvature="0" />
      <path
         id="path3988"
         d="m 217.9263,149.52318 c -0.0681,1.32682 0.25678,2.75781 0.94533,4.16844 l 5.38385,-0.64823 c -0.0667,-0.13583 -0.12965,-0.27378 -0.18006,-0.41414 -0.15287,-0.42561 -0.20024,-0.83181 -0.18006,-1.20642 l -5.96906,-1.89965 z"
         style="fill:#000000;fill-opacity:1;stroke:#000000;stroke-width:0.26765847;stroke-linecap:butt;stroke-miterlimit:4;stroke-opacity:1;stroke-dasharray:none;stroke-dashoffset:17.01120644"
         inkscape:connector-curvature="0" />
      <path
         id="path3990"
         d="m 221.59056,144.47244 c -1.56458,0.60932 -2.71076,1.71873 -3.27713,3.17809 l 5.73498,3.05206 c 0.21995,-0.55538 0.65852,-0.98874 1.26944,-1.22443 l -3.72729,-5.00572 z"
         style="fill:#000000;fill-opacity:1;stroke:#000000;stroke-width:0.26765847;stroke-linecap:butt;stroke-miterlimit:4;stroke-opacity:1;stroke-dasharray:none;stroke-dashoffset:17.01120644"
         inkscape:connector-curvature="0" />
      <path
         id="path3992"
         d="m 224.46255,143.95026 c -0.39196,0.004 -0.77777,0.0291 -1.15239,0.081 l 2.67392,5.28483 c 0.15392,-0.0207 0.30968,-0.036 0.47716,-0.036 0.6749,0 1.36871,0.17433 2.0167,0.47716 l 1.28744,-4.56458 c -1.7722,-0.8323 -3.60434,-1.26065 -5.30283,-1.24242 z"
         style="fill:#000000;fill-opacity:1;stroke:#000000;stroke-width:0.26765847;stroke-linecap:butt;stroke-miterlimit:4;stroke-opacity:1;stroke-dasharray:none;stroke-dashoffset:17.01120644"
         inkscape:connector-curvature="0" />
      <path
         id="path3994"
         d="m 231.548,146.18303 -2.38583,3.96136 c 0.83681,0.53988 1.54504,1.28592 1.94467,2.13374 l 5.42888,-0.55819 c -1.00125,-2.13354 -2.77737,-4.10144 -4.98772,-5.53691 z"
         style="fill:#000000;fill-opacity:1;stroke:#000000;stroke-width:0.26765847;stroke-linecap:butt;stroke-miterlimit:4;stroke-opacity:1;stroke-dasharray:none;stroke-dashoffset:17.01120644"
         inkscape:connector-curvature="0" />
    </g>
    <path
       inkscape:connector-curvature="0"
       style="fill:#000000;fill-opacity:1;stroke:#000000;stroke-width:0.34642845;stroke-linecap:butt;stroke-miterlimit:4;stroke-opacity:1;stroke-dasharray:none;stroke-dashoffset:17.01120644"
       d="m 277.97866,135.3807 c -13.09221,0 -23.93846,9.62413 -25.84894,22.18329 l 4.90586,3.2441 5.9078,-2.3338 0.0244,0.0611 0.0733,-0.0305 1.87559,4.72258 -6.4271,2.54151 0.64149,1.63122 6.43932,-2.54763 1.44794,3.64733 8.57761,-2.1383 1.08137,-0.43377 1.47237,3.66565 -17.16746,6.90364 -1.38073,-3.44572 -4.20938,1.66177 c 0.17836,0.30467 0.36629,0.60189 0.55595,0.89808 l 4.03833,0 0,4.88754 c 4.68835,4.44548 11.02156,7.17245 17.99223,7.17245 14.43973,0 26.14219,-11.70246 26.14219,-26.14219 0,-14.43974 -11.70246,-26.1483 -26.14219,-26.1483 z m 9.80561,9.37183 1.05082,2.51097 c -11.0461,7.60506 -2.22115,17.92711 4.25827,16.12886 l 0.9775,2.44378 c -5.16821,0.88085 -11.83896,0.60898 -13.96613,-5.23577 1.80453,-1.35057 0.26557,-3.94382 -1.11801,-3.629 -0.39736,-8.88992 7.10361,-11.17693 8.79755,-12.21884 z m 10.83199,8.11331 -11.9439,7.11136 c -1.727,-1.05587 -2.21179,-3.07956 -2.27271,-5.43126 l 14.21661,-1.6801 z m -22.22605,1.72897 1.43572,3.6351 -0.1222,0.0489 -0.0366,-0.0978 -11.43682,4.52708 -1.39906,-3.54957 11.55902,-4.56374 z m 1.97945,5.00972 1.45404,3.62899 -11.53458,4.63094 -1.41127,-3.52513 11.43683,-4.52708 -0.0611,-0.15885 0.11608,-0.0489 z m -21.609,2.98751 -4.78368,1.73507 c 0.0694,0.65269 0.15837,1.29926 0.27492,1.93669 l 5.16246,-2.04055 -0.6537,-1.63121 z m -1.53347,6.01166 -2.17495,0.86143 c 0.3287,1.03301 0.71762,2.03912 1.1669,3.01194 l -0.0916,-0.23827 2.19938,-0.86753 -1.09969,-2.76757 z"
       id="path4687" />
    <path
       sodipodi:type="arc"
       style="fill:none;stroke:#000000;stroke-width:1.30665123;stroke-linecap:butt;stroke-miterlimit:4;stroke-opacity:1;stroke-dasharray:none;stroke-dashoffset:17.01120644"
       id="path5567-4"
       sodipodi:cx="354.64285"
       sodipodi:cy="489.14789"
       sodipodi:rx="112.5"
       sodipodi:ry="112.5"
       d="m 467.14285,489.14789 a 112.5,112.5 0 1 1 -225,0 112.5,112.5 0 1 1 225,0 z"
       transform="matrix(0.26512698,0,0,0.26512698,183.95154,31.841805)" />
    <path
       transform="matrix(0.23240403,0,0,0.23240403,195.5565,47.848172)"
       d="m 467.14285,489.14789 a 112.5,112.5 0 1 1 -225,0 112.5,112.5 0 1 1 225,0 z"
       sodipodi:ry="112.5"
       sodipodi:rx="112.5"
       sodipodi:cy="489.14789"
       sodipodi:cx="354.64285"
       id="path4648"
       style="fill:none;stroke:#000000;stroke-width:1.49063027;stroke-linecap:butt;stroke-miterlimit:4;stroke-opacity:1;stroke-dasharray:none;stroke-dashoffset:17.01120644"
       sodipodi:type="arc" />
    <g
       id="g4852"
       transform="matrix(1.8812355,0,0,1.8812355,-36.706203,-894.88563)">
      <path
         transform="matrix(0.1409296,0,0,0.1409296,153.19913,489.57227)"
         d="m 467.14285,489.14789 c 0,62.13203 -50.36796,112.5 -112.5,112.5 -62.13203,0 -112.5,-50.36797 -112.5,-112.5 0,-62.13204 50.36797,-112.5 112.5,-112.5 62.13204,0 112.5,50.36796 112.5,112.5 z"
         sodipodi:ry="112.5"
         sodipodi:rx="112.5"
         sodipodi:cy="489.14789"
         sodipodi:cx="354.64285"
         id="path5567-0"
         style="fill:none;stroke:#000000;stroke-width:1.30665123;stroke-linecap:butt;stroke-miterlimit:4;stroke-opacity:1;stroke-dasharray:none;stroke-dashoffset:17.01120644"
         sodipodi:type="arc" />
      <path
         sodipodi:type="arc"
         style="fill:none;stroke:#000000;stroke-width:1.49063027;stroke-linecap:butt;stroke-miterlimit:4;stroke-opacity:1;stroke-dasharray:none;stroke-dashoffset:17.01120644"
         id="path4648-9"
         sodipodi:cx="354.64285"
         sodipodi:cy="489.14789"
         sodipodi:rx="112.5"
         sodipodi:ry="112.5"
         d="m 467.14285,489.14789 c 0,62.13203 -50.36796,112.5 -112.5,112.5 -62.13203,0 -112.5,-50.36797 -112.5,-112.5 0,-62.13204 50.36797,-112.5 112.5,-112.5 62.13204,0 112.5,50.36796 112.5,112.5 z"
         transform="matrix(0.12353546,0,0,0.12353546,159.36776,498.08064)" />
      <path
         id="path4774"
         d="m 203.17981,544.61078 c -7.67563,0 -13.89739,6.22201 -13.89739,13.89742 0,7.67543 6.22176,13.89741 13.89739,13.89741 7.67545,0 13.8972,-6.22198 13.8972,-13.89741 0,-7.67541 -6.22175,-13.89742 -13.8972,-13.89742 z m 0.71618,3.79349 3.408,2.00221 -3.30559,1.56241 c -0.20142,-0.0255 -0.41028,-0.037 -0.62758,-0.037 -0.29,0 -0.56612,0.0257 -0.82552,0.0695 l -2.78712,-1.63743 4.13781,-1.95804 z m -5.21907,2.46951 2.65058,1.55892 c -0.30301,0.20038 -0.48438,0.44634 -0.48438,0.71295 0,0.0989 0.0259,0.19477 0.0718,0.2867 l -3.1315,1.48055 -3.4078,-2.0025 4.30157,-2.03662 z m 9.72888,0.18081 3.96045,2.32654 -4.13781,1.95796 -2.68127,-1.57601 c 0.22237,-0.18055 0.35131,-0.39192 0.35131,-0.61743 0,-0.25686 -0.16721,-0.49622 -0.45023,-0.6924 l 2.95755,-1.39866 z m -5.03498,1.41921 c 0.76966,0 1.39517,0.30181 1.39517,0.67185 0,0.37028 -0.62551,0.66864 -1.39517,0.66864 -0.76971,0 -1.39176,-0.29836 -1.39176,-0.66864 0,-0.37004 0.62205,-0.67185 1.39176,-0.67185 z m -9.60946,1.41892 3.69773,2.13209 0.005,2.98134 c -0.16454,-0.016 -0.32413,0.002 -0.46731,0.058 -0.10758,0.0428 -0.19788,0.0986 -0.27631,0.17389 l -2.95073,-1.6987 -0.007,-3.64655 z m 8.14253,0.23896 c 0.41412,0.14236 0.91875,0.22858 1.46693,0.22858 0.37439,0 0.72751,-0.038 1.04712,-0.10888 l 2.72556,1.59983 -4.29811,2.03653 -3.96044,-2.32645 3.01894,-1.42933 z m 10.54081,0.25577 -0.007,3.64308 -3.11788,1.51812 c -0.0822,-0.0807 -0.18001,-0.14598 -0.29338,-0.19443 -0.15112,-0.064 -0.31747,-0.0899 -0.49119,-0.0841 l 0.007,-2.97797 3.90254,-1.90351 z m -14.02014,2.19694 3.84098,2.21719 0.007,3.64309 -2.79723,-1.60993 c -0.0545,-0.14637 -0.12054,-0.29586 -0.20468,-0.44354 -0.22523,-0.39851 -0.52395,-0.73105 -0.84259,-0.97218 l -0.005,-2.83463 z m 9.09766,0.20109 -0.007,2.83811 c -0.33643,0.22134 -0.6491,0.53658 -0.88688,0.92124 -0.0888,0.14246 -0.16047,0.28327 -0.21833,0.4262 l -2.95415,1.43973 0.007,-3.64333 4.0594,-1.98195 z m -13.74726,1.93422 2.64023,1.52133 c 0.0263,0.34738 0.14465,0.73855 0.36166,1.12234 0.19043,0.33668 0.4335,0.6254 0.69586,0.85296 l 0.005,2.86877 -3.69776,-2.13211 -0.005,-4.23329 z m 18.65611,0.49129 -0.007,4.23328 -3.90246,1.90355 0.005,-2.86903 c 0.27714,-0.21104 0.53247,-0.487 0.73342,-0.81189 0.22915,-0.37033 0.35473,-0.75264 0.38206,-1.09834 l 2.79037,-1.35757 z m -14.82183,0.63104 c 0.36626,-0.0279 0.83175,0.2837 1.10524,0.76761 0.3125,0.5528 0.25703,1.12121 -0.12336,1.26875 -0.37994,0.14745 -0.94287,-0.18039 -1.2554,-0.73319 -0.31249,-0.55307 -0.25714,-1.12147 0.12337,-1.26903 0.0467,-0.0183 0.0982,-0.029 0.15015,-0.0347 z m 10.68728,0.24888 c 0.0871,8.6e-4 0.16706,0.0164 0.24217,0.0468 0.40126,0.17116 0.45969,0.74235 0.12921,1.2758 -0.33005,0.53346 -0.92239,0.82611 -1.32362,0.65495 -0.40114,-0.1711 -0.45956,-0.74233 -0.12906,-1.27577 0.26815,-0.43345 0.71004,-0.70657 1.08129,-0.70272 z m -8.71571,1.97872 2.69836,1.55548 0.007,4.23677 -3.84108,-2.22068 -0.005,-2.91332 c 0.21703,0.044 0.42579,0.0348 0.61059,-0.037 0.27064,-0.10598 0.44455,-0.32876 0.52877,-0.62087 z m 6.71688,0.12903 c 0.0893,0.29753 0.27368,0.53647 0.55934,0.65853 0.1952,0.0825 0.41563,0.10594 0.64467,0.074 l -0.005,2.90982 -4.05594,1.98194 0.007,-4.23332 2.84843,-1.39181 z"
         style="fill:#000000;fill-opacity:1;stroke:#000000;stroke-width:0.18414591;stroke-linecap:butt;stroke-miterlimit:4;stroke-opacity:1;stroke-dasharray:none;stroke-dashoffset:17.01120644"
         inkscape:connector-curvature="0" />
    </g>
    <g
       id="g4073">
      <path
         transform="matrix(0.26512698,0,0,0.26512698,-10.487692,29.023997)"
         d="m 467.14285,489.14789 a 112.5,112.5 0 1 1 -225,0 112.5,112.5 0 1 1 225,0 z"
         sodipodi:ry="112.5"
         sodipodi:rx="112.5"
         sodipodi:cy="489.14789"
         sodipodi:cx="354.64285"
         id="path5567-48"
         style="fill:none;stroke:#000000;stroke-width:1.30665123;stroke-linecap:butt;stroke-miterlimit:4;stroke-opacity:1;stroke-dasharray:none;stroke-dashoffset:17.01120644"
         sodipodi:type="arc" />
      <path
         sodipodi:type="arc"
         style="fill:none;stroke:#000000;stroke-width:1.49063027;stroke-linecap:butt;stroke-miterlimit:4;stroke-opacity:1;stroke-dasharray:none;stroke-dashoffset:17.01120644"
         id="path4648-8"
         sodipodi:cx="354.64285"
         sodipodi:cy="489.14789"
         sodipodi:rx="112.5"
         sodipodi:ry="112.5"
         d="m 467.14285,489.14789 a 112.5,112.5 0 1 1 -225,0 112.5,112.5 0 1 1 225,0 z"
         transform="matrix(0.23240401,0,0,0.23240401,1.1172695,45.030364)" />
      <path
         inkscape:connector-curvature="0"
         id="path4868"
         d="m 83.539654,132.56414 c -14.439734,0 -26.149272,11.70375 -26.149272,26.14348 0,8.81421 4.366899,16.60963 11.04956,21.34587 l -0.463537,-6.40839 c 9.628276,-6.15827 21.179343,-3.0841 27.939683,-0.50989 l 2.045357,7.38182 c 7.063805,-4.68089 11.721685,-12.70075 11.721685,-21.80941 0,-14.43973 -11.703741,-26.14348 -26.143476,-26.14348 z m -0.347652,2.61899 c 5.039597,-0.11865 10.483544,3.22702 10.01819,9.67633 5.140768,13.84529 -11.814416,10.94624 -6.524281,3.13467 l -1.095106,-0.0869 c -1.52578,5.94607 -9.135444,1.39294 -9.485123,1.35585 -0.733272,-0.0778 -3.901065,4.47957 -3.470732,-2.54366 4.028688,-3.61323 8.780028,-0.74001 12.955855,0.42877 l 1.182019,-0.34186 c -4.844014,-0.73723 -7.435298,-4.64161 -14.90271,-1.69191 0.755432,-1.23922 0.333951,-2.39974 3.186816,-3.78362 2.545288,0.1647 4.715941,-1.24042 12.48073,4.62958 1.178075,-1.45182 2.469915,-1.56226 3.806796,-1.18781 l -0.168032,-1.26894 c -1.00024,-0.0586 -1.327838,-0.84688 -3.911092,1.2052 -3.082882,-1.93216 -4.909992,-4.777 -11.831778,-4.29931 1.051494,-3.44121 4.310303,-5.14519 7.758448,-5.22637 z m 2.224977,18.22858 1.778822,0.93287 c -2.44577,1.38782 -4.383975,3.53391 -7.399207,4.06754 -5.412684,0.14416 -4.518551,-1.01589 -4.392011,-2.41039 4.137965,0.91659 6.850996,1.06376 10.012396,-2.59002 z m 4.554249,1.85415 c 0.199892,-0.003 0.405213,-0.002 0.614187,0.006 l 0.08112,2.45674 c 1.498277,-0.24974 3.005456,-0.60732 5.39441,0.17962 -6.138867,2.80533 -8.410563,7.31126 -9.033175,11.42039 -4.757251,-0.0853 -6.693133,-2.25972 -17.017596,1.77882 -0.25319,-3.24857 0.23957,-5.64454 1.1009,-7.61938 1.426931,-0.70904 3.19937,-2.112 3.893709,-1.35585 l 2.79281,-3.04775 c 0.242665,3.42269 1.090151,5.49604 2.369832,6.6054 1.704386,-5.28437 3.607147,-10.34475 9.803804,-10.42379 z m 7.468738,3.65035 c 4.274624,1.08855 9.280264,0.56834 9.230174,11.17124 -3.58203,-0.41543 -7.827701,-0.47117 -9.398206,0.67792 -2.621372,-0.72654 -5.204848,-1.0445 -8.042365,-4.14865 1.04884,-3.0838 3.702395,-6.51293 8.210397,-7.70051 z m -28.020803,6.43158 c -0.171282,1.76818 -0.466411,2.93507 -0.341858,6.18242 -0.885621,-0.21635 -1.677108,-0.75987 -2.114887,-2.54366 0.644153,-2.25913 1.607692,-2.60903 2.456745,-3.63876 z m 32.679347,5.87533 c 1.0799,-0.02 2.03906,0.11625 2.96084,0.30709 -2.00477,2.59218 -3.95722,5.37588 -6.176626,7.1095 -1.114526,-1.84156 -1.475764,-4.06261 -1.697704,-6.35046 1.93869,-0.75934 3.52504,-1.04044 4.91349,-1.06613 z"
         style="fill:#000000;fill-opacity:1;stroke:#000000;stroke-width:0.34642845;stroke-linecap:butt;stroke-miterlimit:4;stroke-opacity:1;stroke-dasharray:none;stroke-dashoffset:17.01120644" />
      <path
         transform="matrix(0.18680787,-0.00801631,-0.02084089,0.18629055,21.346046,84.479603)"
         d="m 423.96784,367.8873 a 10.497531,18.246647 0 1 1 -20.99506,0 10.497531,18.246647 0 1 1 20.99506,0 z"
         sodipodi:ry="18.246647"
         sodipodi:rx="10.497531"
         sodipodi:cy="367.8873"
         sodipodi:cx="413.47031"
         id="path4884"
         style="fill:#000000;fill-opacity:1;stroke:#000000;stroke-width:1.00029922;stroke-linecap:butt;stroke-miterlimit:4;stroke-opacity:1;stroke-dasharray:none;stroke-dashoffset:17.01120644"
         sodipodi:type="arc" />
    </g>
    <g
       transform="matrix(0.18037545,0,0,0.18037545,283.33201,148.55322)"
       id="g4027">
      <path
         transform="matrix(1.4698618,0,0,1.4698618,-150.59904,-306.52784)"
         d="m 467.14285,489.14789 c 0,62.13203 -50.36796,112.5 -112.5,112.5 -62.13203,0 -112.5,-50.36797 -112.5,-112.5 0,-62.13204 50.36797,-112.5 112.5,-112.5 62.13204,0 112.5,50.36796 112.5,112.5 z"
         sodipodi:ry="112.5"
         sodipodi:rx="112.5"
         sodipodi:cy="489.14789"
         sodipodi:cx="354.64285"
         id="path5567-09"
         style="fill:none;stroke:#000000;stroke-width:1.30665123;stroke-linecap:butt;stroke-miterlimit:4;stroke-opacity:1;stroke-dasharray:none;stroke-dashoffset:17.01120644"
         sodipodi:type="arc" />
      <path
         inkscape:connector-curvature="0"
         id="path4648-4"
         d="m 370.6875,267.5 c -80.05376,0 -144.96875,64.88374 -144.96875,144.9375 0,80.05376 64.91499,144.96875 144.96875,144.96875 80.05376,0 144.9375,-64.91499 144.9375,-144.96875 C 515.625,332.38374 450.74126,267.5 370.6875,267.5 z m -60.96875,25.5 121.9375,0 0,17.34375 -4.46875,0 0,52.5 0.1875,0 L 370.6875,403.3125 314,362.84375 l 0.1875,0 0,-52.5 -4.46875,0 0,-17.34375 z m 45.46875,15.71875 0,65.34375 15.4375,12.53125 15.5625,-12.40625 0,-65.46875 -31,0 z M 342.25,403.5 l 56.84375,0 0,0.5625 -10.96875,19 c 0.36478,0.13111 0.73284,0.26728 1.09375,0.40625 l 6.34375,-11.03125 0,-0.5 5.625,0 0,0.5 -8.9375,12.3125 c 4.12009,1.89944 7.95433,4.31903 11.40625,7.1875 l 13.0625,-6.34375 -6.34375,13.0625 c 2.89512,3.47199 5.3364,7.31927 7.25,11.46875 l 12.3125,-8.96875 0.46875,0 0,5.625 -0.46875,0 -11.03125,6.375 c 0.1344,0.34856 0.24797,0.71034 0.375,1.0625 L 438.3125,443.25 l 0.5625,0 0,56.84375 -0.625,0 -18.9375,-10.9375 c -0.13143,0.36565 -0.26686,0.73191 -0.40625,1.09375 l 10.96875,6.34375 0.53125,0 0,5.59375 -0.53125,0 -12.25,-8.90625 c -1.89914,4.12386 -4.32005,7.95295 -7.1875,11.40625 l 6.28125,12.9375 -12.96875,-6.25 c -3.47445,2.9025 -7.34393,5.36215 -11.5,7.28125 l 8.9375,12.28125 0,0.5 -5.625,0 0,-0.5 -6.34375,-11 c -0.35761,0.13788 -0.73229,0.24488 -1.09375,0.375 l 10.96875,19 0,0.5625 -56.84375,0 0,-0.625 10.9375,-18.9375 c -0.36608,-0.13248 -0.73149,-0.26579 -1.09375,-0.40625 l -6.3125,10.96875 0,0.5625 -5.625,0 0,-0.53125 8.9375,-12.28125 c -4.15764,-1.92384 -8.02516,-4.37342 -11.5,-7.28125 l -12.96875,6.28125 6.28125,-12.9375 c -2.86486,-3.45295 -5.29365,-7.28067 -7.1875,-11.40625 l -12.25,8.90625 -0.53125,0 0,-5.59375 0.5625,0 10.96875,-6.34375 c -0.13894,-0.36192 -0.27516,-0.72801 -0.40625,-1.09375 l -18.9375,10.9375 -0.625,0 0,-56.84375 0.5625,0 19,10.96875 c 0.12647,-0.35225 0.24105,-0.71387 0.375,-1.0625 l -11,-6.375 -0.5,0 0,-5.625 0.46875,0 12.3125,8.96875 c 1.90812,-4.15046 4.35753,-7.99725 7.25,-11.46875 l -6.34375,-13.0625 13.0625,6.34375 c 3.45019,-2.8648 7.28117,-5.2881 11.40625,-7.1875 l -8.9375,-12.28125 0,-0.53125 5.625,0 0,0.5625 6.34375,10.96875 c 0.34957,-0.13467 0.70937,-0.24777 1.0625,-0.375 L 342.25,404.125 l 0,-0.625 z m 18.46875,32.625 c -4.61948,1.28841 -9.03962,3.47846 -12.96875,6.59375 l 14.6875,14.71875 c 5.08943,-2.94249 11.38796,-2.97208 16.46875,-0.0312 l 14.6875,-14.6875 c -3.94033,-3.12788 -8.37203,-5.30769 -13,-6.59375 l -0.8125,1.40625 -18.25,0 -0.8125,-1.40625 z m -19.03125,12.65625 c -3.11529,3.92913 -5.30469,8.35301 -6.59375,12.96875 l 1.4375,0.8125 0,18.25 -1.4375,0.84375 c 1.28853,4.61494 3.47629,9.04155 6.59375,12.96875 l 14.6875,-14.6875 c -2.94088,-5.08079 -2.91129,-11.37932 0.0312,-16.46875 l -14.71875,-14.6875 z m 57.96875,0 -14.71875,14.6875 c 2.94249,5.08943 2.97208,11.38796 0.0312,16.46875 l 14.6875,14.6875 c 3.12402,-3.93547 5.30636,-8.37449 6.59375,-13 l -1.40625,-0.8125 0,-18.25 1.40625,-0.8125 c -1.28906,-4.61574 -3.47846,-9.03962 -6.59375,-12.96875 z M 362.4375,485.96875 347.75,500.6875 c 3.92913,3.11529 8.35301,5.30469 12.96875,6.59375 l 0.8125,-1.4375 18.25,0 0.84375,1.4375 c 4.61494,-1.28853 9.04155,-3.47629 12.96875,-6.59375 L 378.90625,486 c -5.08079,2.94088 -11.37932,2.91129 -16.46875,-0.0312 z"
         style="fill:#000000;fill-opacity:1;stroke:#000000;stroke-width:1.92059648;stroke-linecap:butt;stroke-miterlimit:4;stroke-opacity:1;stroke-dasharray:none;stroke-dashoffset:17.01120644" />
    </g>
    <g
       transform="matrix(0.1667772,0,0,0.1667772,90.035471,211.54541)"
       id="g4108">
      <path
         sodipodi:type="arc"
         style="fill:none;stroke:#000000;stroke-width:1.30665123;stroke-linecap:butt;stroke-miterlimit:4;stroke-opacity:1;stroke-dasharray:none;stroke-dashoffset:17.01120644"
         id="path4020"
         sodipodi:cx="354.64285"
         sodipodi:cy="489.14789"
         sodipodi:rx="112.5"
         sodipodi:ry="112.5"
         d="m 467.14285,489.14789 c 0,62.13203 -50.36796,112.5 -112.5,112.5 -62.13203,0 -112.5,-50.36797 -112.5,-112.5 0,-62.13204 50.36797,-112.5 112.5,-112.5 62.13204,0 112.5,50.36796 112.5,112.5 z"
         transform="matrix(1.5897076,0,0,1.5897076,-206.04407,-319.15016)" />
      <path
         inkscape:connector-curvature="0"
         id="path4022"
         d="m 357.71875,301.6875 c -86.58098,0 -156.75,70.16902 -156.75,156.75 0,86.58098 70.16902,156.78125 156.75,156.78125 86.58098,0 156.78125,-70.20027 156.78125,-156.78125 0,-86.58098 -70.20027,-156.75 -156.78125,-156.75 z m -15.4375,21.5625 13.21875,0 2.375,0 13.21875,0 52,15.5625 0,73.8125 -41.40625,11.09375 0,-31.125 3.90625,-3.90625 0,-30.46875 -28.90625,-7.75 -28.90625,7.75 0,30.46875 3.90625,3.90625 0,31.125 -41.40625,-11.09375 0,-73.8125 52,-15.5625 z m -95.75,70.1875 0,31.75 45.03125,15.71875 19.15625,0 0,35.0625 -19.15625,0 -45.03125,15.71875 0,31.78125 L 216.75,503.75 l 0,-90.625 29.78125,-19.6875 z m 222.40625,0 29.78125,19.6875 0,90.625 -29.78125,19.71875 0,-31.78125 -45.03125,-15.71875 -19.15625,0 0,-35.0625 19.15625,0 45.03125,-15.71875 0,-31.75 z m -136.71875,97.8125 0,31.125 -3.90625,3.90625 0,30.46875 28.90625,7.75 28.90625,-7.75 0,-30.46875 -3.90625,-3.90625 0,-31.125 41.40625,11.09375 0,73.8125 -52,15.5625 -13.21875,0 -2.375,0 -13.21875,0 -52,-15.5625 0,-73.8125 41.40625,-11.09375 z"
         style="fill:#000000;fill-opacity:1;stroke:#000000;stroke-width:2.07719302;stroke-linecap:butt;stroke-miterlimit:4;stroke-opacity:1;stroke-dasharray:none;stroke-dashoffset:17.01120644" />
    </g>
    <g
       transform="matrix(0.17234558,0,0,0.17234558,24.84634,206.7176)"
       id="g4191">
      <path
         sodipodi:type="arc"
         style="fill:none;stroke:#000000;stroke-width:1.30665123;stroke-linecap:butt;stroke-miterlimit:4;stroke-opacity:1;stroke-dasharray:none;stroke-dashoffset:17.01120644"
         id="path4020-1"
         sodipodi:cx="354.64285"
         sodipodi:cy="489.14789"
         sodipodi:rx="112.5"
         sodipodi:ry="112.5"
         d="m 467.14285,489.14789 c 0,62.13203 -50.36796,112.5 -112.5,112.5 -62.13203,0 -112.5,-50.36797 -112.5,-112.5 0,-62.13204 50.36797,-112.5 112.5,-112.5 62.13204,0 112.5,50.36796 112.5,112.5 z"
         transform="matrix(1.5383451,0,0,1.5383451,-185.82873,-296.02631)" />
      <path
         id="path4022-2"
         d="m 359.75,304.75 c -83.78361,0 -151.71875,67.90389 -151.71875,151.6875 0,83.78361 67.93514,151.71875 151.71875,151.71875 83.78361,0 151.6875,-67.93514 151.6875,-151.71875 0,-83.78361 -67.90389,-151.6875 -151.6875,-151.6875 z m -50.625,26.59375 10.5,0 0,45.96875 21.5,0 0,-45.96875 10.5,0 0,45.96875 82.53125,0 -68.40625,201.625 -40.78125,0 57,-146.1875 -30.34375,0 0,53.40625 -10.5,0 0,-53.40625 -21.5,0 0,53.40625 -10.5,0 0,-53.40625 -12.40625,0 0.0937,-55.4375 12.3125,0 0,-45.96875 z"
         style="fill:#000000;fill-opacity:1;stroke:#000000;stroke-width:2.01008034;stroke-linecap:butt;stroke-miterlimit:4;stroke-opacity:1;stroke-dasharray:none;stroke-dashoffset:17.01120644"
         inkscape:connector-curvature="0" />
    </g>
    <g
       transform="matrix(0.23959667,0,0,0.23959667,129.52019,115.93611)"
       id="g4262">
      <path
         sodipodi:type="arc"
         style="fill:none;stroke:#000000;stroke-width:1.30665123;stroke-linecap:butt;stroke-miterlimit:4;stroke-opacity:1;stroke-dasharray:none;stroke-dashoffset:17.01120644"
         id="path4020-6"
         sodipodi:cx="354.64285"
         sodipodi:cy="489.14789"
         sodipodi:rx="112.5"
         sodipodi:ry="112.5"
         d="m 467.14285,489.14789 c 0,62.13203 -50.36796,112.5 -112.5,112.5 -62.13203,0 -112.5,-50.36797 -112.5,-112.5 0,-62.13204 50.36797,-112.5 112.5,-112.5 62.13204,0 112.5,50.36796 112.5,112.5 z"
         transform="matrix(1.1065554,0,0,1.1065554,-28.697582,-88.817267)" />
      <path
         inkscape:connector-curvature="0"
         id="path4022-0"
         d="m 363.75,343.34375 c -60.26684,0 -109.125,48.82691 -109.125,109.09375 0,60.26684 48.85816,109.125 109.125,109.125 60.26684,0 109.09375,-48.85816 109.09375,-109.125 0,-60.26684 -48.82691,-109.09375 -109.09375,-109.09375 z m 43.46875,23.21875 c 7.57185,25.27562 -0.64795,34.17269 -29.375,100.21875 l -26.53125,56.84375 -3.6875,-1.71875 -5.25,11.21875 -24.84375,-11.59375 5.25,-11.25 -3.71875,-1.71875 26.5,-56.84375 c 31.02121,-62.54032 33.74358,-75.91593 61.65625,-85.15625 z m -34.375,42.71875 -19.25,41.25 6,2.8125 19.25,-41.28125 -6,-2.78125 z m 13.875,6.4375 L 367.5,457 l 6,2.78125 19.21875,-41.25 -6,-2.8125 z m -61.90625,50.625 -16.25,28.125 -19.25,0 12.40625,-21.5 23.09375,-6.625 z m 59.5,26.0625 7.625,22.78125 -10.71875,22.4375 -10.90625,-15.90625 14,-29.3125 z"
         style="fill:#000000;fill-opacity:1;stroke:#000000;stroke-width:1.44588184;stroke-linecap:butt;stroke-miterlimit:4;stroke-opacity:1;stroke-dasharray:none;stroke-dashoffset:17.01120644" />
    </g>
    <g
       transform="matrix(0.24593868,0,0,0.24593868,197.68755,41.29791)"
       id="g4714">
      <path
         transform="matrix(1.0780207,0,0,1.0780207,-27.790302,206.59338)"
         d="m 467.14285,489.14789 c 0,62.13203 -50.36796,112.5 -112.5,112.5 -62.13203,0 -112.5,-50.36797 -112.5,-112.5 0,-62.13204 50.36797,-112.5 112.5,-112.5 62.13204,0 112.5,50.36796 112.5,112.5 z"
         sodipodi:ry="112.5"
         sodipodi:rx="112.5"
         sodipodi:cy="489.14789"
         sodipodi:cx="354.64285"
         id="path4252"
         style="fill:none;stroke:#000000;stroke-width:1.30665123;stroke-linecap:butt;stroke-miterlimit:4;stroke-opacity:1;stroke-dasharray:none;stroke-dashoffset:17.01120644"
         sodipodi:type="arc" />
      <path
         inkscape:connector-curvature="0"
         id="path4254"
         d="m 279.35696,658.73196 c -41.51618,41.51618 -41.51618,108.8324 0,150.34858 41.51618,41.51618 108.8324,41.51618 150.34858,0 41.51618,-41.51618 41.51618,-108.8324 0,-150.34858 -41.51618,-41.51618 -108.8324,-41.51618 -150.34858,0 z m 4.90555,15.9099 15.75523,15.75523 -8.57367,8.57367 c -4.75324,-6.34422 -9.94289,-14.35373 -7.18156,-24.3289 z m 11.22532,-11.22532 c 9.97517,-2.76133 17.98468,2.42832 24.3289,7.18156 l -8.57367,8.57367 -15.75523,-15.75523 z m 0.59663,35.24486 10.00998,-10.00998 1.01646,1.23743 3.46924,12.97099 -10.31934,-0.0221 -4.17634,-4.17635 z m 13.41293,-13.41294 10.00998,-10.00998 4.17635,4.17635 0,10.34144 -12.9489,-3.49134 -1.23743,-1.01647 z m 0,3.18199 18.78252,5.87782 9.92159,9.92159 -10.05417,10.05418 8.3306,8.3306 -3.31456,3.31456 -18.2522,-18.25219 -5.41378,-19.24656 z M 321.96014,702.44 c -1.40794,1.40794 -1.38584,3.69648 0.0221,5.10443 1.40794,1.40794 3.67439,1.40794 5.08233,0 1.40794,-1.40795 1.43004,-3.69649 0.0221,-5.10443 -1.40794,-1.40794 -3.71858,-1.40794 -5.12653,0 z m 9.23659,11.79984 7.29203,-7.29204 8.33061,8.33061 -7.29204,7.29203 -8.3306,-8.3306 z m 59.70633,-45.07805 c 6.34421,-4.75324 14.35373,-9.94289 24.32889,-7.18156 l -15.75523,15.75523 -8.57366,-8.57367 z M 339.19587,725.2 l 6.60703,-6.60703 21.10272,21.10272 -6.60703,6.60703 L 339.19587,725.2 z m 47.84019,-47.22148 4.17635,-4.17635 10.00998,10.00998 -1.25953,1.03857 -12.94889,3.44714 0.0221,-10.31934 z m -14.65036,24.68245 9.92159,-9.92159 18.80462,-5.85573 -5.43588,19.22446 -18.2522,18.2522 -3.31456,-3.31456 8.3306,-8.33061 -10.05417,-10.05417 z m -8.61787,11.04854 8.3306,-8.3306 7.31414,7.31414 -8.3306,8.3306 -7.31414,-7.31414 z m -76.25704,77.62707 30.49398,-30.49398 9.59013,9.59013 -30.49398,30.49398 -9.59013,-9.59013 z m 56.17079,-53.20979 3.09359,-3.09359 6.60703,6.60703 -3.09359,3.09359 -6.60703,-6.60703 z m 11.95452,-11.95452 9.1482,-9.14819 6.60703,6.60702 -9.1482,9.1482 -6.60703,-6.60703 z m -34.0958,35.24485 2.62955,-2.62955 5.48008,5.48008 -2.62955,2.62955 -5.48008,-5.48008 z m 4.59619,-4.59619 2.62956,-2.62955 5.48007,5.48007 -2.62955,2.62956 -5.48008,-5.48008 z m 4.5962,-4.59619 2.62955,-2.62956 5.48008,5.48008 -2.62956,2.62955 -5.48007,-5.48007 z m 4.59619,-4.5962 2.62955,-2.62955 5.48008,5.48008 -2.62955,2.62955 -5.48008,-5.48008 z m 4.70668,-4.70668 2.62955,-2.62955 5.48008,5.48008 -2.62955,2.62955 -5.48008,-5.48008 z m -54.22625,54.44722 2.74004,-2.74004 5.25911,5.25911 -2.74004,2.74004 -5.25911,-5.25911 z m 97.18299,-97.00621 c -1.40794,1.40794 -1.40794,3.67439 0,5.08233 1.40794,1.40794 3.67439,1.40794 5.08233,0 1.40794,-1.40794 1.43004,-3.69648 0.0221,-5.10443 -1.40795,-1.40794 -3.69649,-1.38584 -5.10443,0.0221 z m 21.63305,-13.14776 10.00998,10.00998 -4.17635,4.17635 -10.31934,0.0221 3.44714,-12.94889 1.03857,-1.25953 z m 6.07669,1.74567 15.75523,-15.75523 c 2.76133,9.97516 -2.42832,17.98468 -7.18156,24.32889 l -8.57367,-8.57366 z m -48.23794,58.3584 5.48008,-5.48008 2.62956,2.62956 -5.48008,5.48008 -2.62956,-2.62956 z m 4.70668,4.70668 5.48008,-5.48008 2.62955,2.62956 -5.48007,5.48007 -2.62956,-2.62955 z m 4.5962,4.5962 5.48008,-5.48008 2.62955,2.62955 -5.48008,5.48008 -2.62955,-2.62955 z m 4.59619,4.59619 5.48008,-5.48008 2.62955,2.62956 -5.48007,5.48007 -2.62956,-2.62955 z m 4.5962,4.59619 5.48007,-5.48007 2.62956,2.62955 -5.48008,5.48008 -2.62955,-2.62956 z m 2.05503,6.16509 9.59013,-9.59013 30.49398,30.49397 -9.59014,9.59014 -30.49397,-30.49398 z m 33.78644,29.45542 5.25911,-5.25911 2.74004,2.74004 -5.25911,5.25911 -2.74004,-2.74004 z"
         style="fill:#000000;fill-opacity:1;stroke:#000000;stroke-width:1.05590546;stroke-linecap:butt;stroke-miterlimit:4;stroke-opacity:1;stroke-dasharray:none;stroke-dashoffset:17.01120644" />
      <rect
         y="775.00842"
         x="350.64749"
         height="3.7131176"
         width="7.749115"
         id="rect4319"
         style="fill:none;stroke:#000000;stroke-width:1.00300002;stroke-linecap:butt;stroke-miterlimit:4;stroke-opacity:1;stroke-dasharray:none;stroke-dashoffset:17.01120644" />
      <rect
         transform="matrix(0,1,-1,0,0,0)"
         style="fill:none;stroke:#000000;stroke-width:1.00300002;stroke-linecap:butt;stroke-miterlimit:4;stroke-opacity:1;stroke-dasharray:none;stroke-dashoffset:17.01120644"
         id="rect4375"
         width="7.749115"
         height="3.7131176"
         x="730.03033"
         y="-315.61578" />
    </g>
    <g
       transform="matrix(0.22346193,0,0,0.22346193,116.23952,188.69072)"
       id="g4816">
      <path
         sodipodi:type="arc"
         style="fill:none;stroke:#000000;stroke-width:1.30665123;stroke-linecap:butt;stroke-miterlimit:4;stroke-opacity:1;stroke-dasharray:none;stroke-dashoffset:17.01120644"
         id="path4413"
         sodipodi:cx="354.64285"
         sodipodi:cy="489.14789"
         sodipodi:rx="112.5"
         sodipodi:ry="112.5"
         d="m 467.14285,489.14789 c 0,62.13203 -50.36796,112.5 -112.5,112.5 -62.13203,0 -112.5,-50.36797 -112.5,-112.5 0,-62.13204 50.36797,-112.5 112.5,-112.5 62.13204,0 112.5,50.36796 112.5,112.5 z"
         transform="matrix(1.1864526,0,0,1.1864526,-270.81111,-428.5463)" />
      <path
         inkscape:connector-curvature="0"
         id="path4415"
         d="m 149.96875,34.8125 c -64.618316,0 -117,52.381684 -117,117 0,22.68475 6.450395,43.8492 17.625,61.78125 l 6.375,-4.46875 7.65625,0.0625 0,-16.15625 C 61.338241,192.11842 59.25,191.5 59.25,191.5 L 84.46875,99.4375 c 2.524889,-0.635364 5.127493,-1.247107 7.78125,-1.84375 l 0,-37.46875 6.15625,0 0,36.125 c 13.8201,-2.779433 29.57419,-4.797923 48.5,-5.0625 1.45504,-0.02034 2.94421,-9.93e-4 4.4375,0 0.25784,1.71e-4 0.49101,-8.24e-4 0.75,0 27.75771,-0.01802 48.8411,3.71194 66.875,8.25 L 244.1875,191.5 c 0,0 -3.60639,1.0535 -8.8125,2.46875 l 0,15.0625 7.125,-0.0312 6.75,4.75 c 11.23111,-17.96332 17.71875,-39.19063 17.71875,-61.9375 0,-64.618316 -52.38168,-117 -117,-117 z m 0.5,60.9375 c -11.39384,-0.09159 -58.244323,3.987057 -58.625,10.5625 20.68634,2.68747 26.99473,2.97159 60,2.28125 0.14192,0.003 0.26528,-0.003 0.40625,0 33.00527,0.69034 39.95941,0.7291 60,-2.28125 -0.40301,-6.961041 -52.82237,-11.09032 -60.1875,-10.46875 -0.41019,-0.03556 -0.9139,-0.08828 -1.59375,-0.09375 z M 109.25,120.84375 c -7.12422,0 -12.90625,5.78203 -12.90625,12.90625 0,7.12422 5.78203,12.90625 12.90625,12.90625 7.12422,0 12.90625,-5.78203 12.90625,-12.90625 0,-7.12422 -5.78203,-12.90625 -12.90625,-12.90625 z m 42,0 c -7.12422,0 -12.90625,5.78203 -12.90625,12.90625 0,7.12422 5.78203,12.90625 12.90625,12.90625 7.12422,0 12.90625,-5.78203 12.90625,-12.90625 0,-7.12422 -5.78203,-12.90625 -12.90625,-12.90625 z m 42,0 c -7.12422,0 -12.90625,5.78203 -12.90625,12.90625 0,7.12422 5.78203,12.90625 12.90625,12.90625 7.12422,0 12.90625,-5.78203 12.90625,-12.90625 0,-7.12422 -5.78203,-12.90625 -12.90625,-12.90625 z M 109.0625,152.375 c -2.64792,0.26891 -4.71875,2.53113 -4.71875,5.25 0,2.90013 2.34987,5.25 5.25,5.25 2.90013,0 5.25,-2.34987 5.25,-5.25 0,-2.90013 -2.34987,-5.25 -5.25,-5.25 -0.18126,0 -0.35472,-0.0179 -0.53125,0 z m 42,0 c -2.64792,0.26891 -4.71875,2.53113 -4.71875,5.25 0,2.90013 2.34987,5.25 5.25,5.25 2.90013,0 5.25,-2.34987 5.25,-5.25 0,-2.90013 -2.34987,-5.25 -5.25,-5.25 -0.18126,0 -0.35472,-0.0179 -0.53125,0 z m 20,12 c -2.64792,0.26891 -4.71875,2.53113 -4.71875,5.25 0,2.90013 2.34987,5.25 5.25,5.25 2.90013,0 5.25,-2.34987 5.25,-5.25 0,-2.90013 -2.34987,-5.25 -5.25,-5.25 -0.18126,0 -0.35472,-0.0179 -0.53125,0 z m 0,14 c -2.64792,0.26891 -4.71875,2.53113 -4.71875,5.25 0,2.90013 2.34987,5.25 5.25,5.25 2.90013,0 5.25,-2.34987 5.25,-5.25 0,-2.90013 -2.34987,-5.25 -5.25,-5.25 -0.18126,0 -0.35472,-0.0179 -0.53125,0 z m -93.6875,18.03125 0,12.84375 3.65625,0.0312 5.09375,4.90625 c 11.026046,4.30671 42.45853,2.74837 63.71875,2.75 21.33626,0.002 59.87054,-1.02703 63.9375,-2.75 l 7.0625,-5.09375 1.78125,0 0,-11.84375 c -8.52975,2.11133 -17.90174,4.21979 -24.9375,5.125 -14.12473,1.81732 -43.39693,1.8145 -45.59375,1.8125 0,0 -0.6655,-7e-5 -0.75,0 -2.19681,0.002 -31.46902,0.005 -45.59375,-1.8125 -7.988684,-1.02782 -19.036396,-3.59054 -28.375,-5.96875 z m 14.875,30.375 C 92.839696,234.02618 95.020303,243 101.8125,243 l 20.9375,0 3.96875,-2.28125 13.46875,0 2.84375,3.9375 14.90625,-0.125 0,-4.5 2.09375,4.5 5.9375,-0.0312 0,-3.78125 3.21875,0 0,3.8125 8.21875,0 0.84375,-4.5 2.75,0 0.96875,4.5 6,0 11.34375,-6.5625 6.625,0 0,-9.59375 -63.65625,0 -4.375,2.53125 -14.375,0 0,-4.125 -31.28125,0 z"
         style="fill:#000000;fill-opacity:1;stroke:#000000;stroke-width:1.5502795;stroke-linecap:butt;stroke-miterlimit:4;stroke-opacity:1;stroke-dasharray:none;stroke-dashoffset:17.01120644" />
    </g>
    <g
       transform="matrix(0.23594607,0,0,0.23594607,48.801421,123.0918)"
       id="g4911">
      <path
         transform="matrix(1.1236762,0,0,1.1236762,-248.54792,-117.83937)"
         d="m 467.14285,489.14789 c 0,62.13203 -50.36796,112.5 -112.5,112.5 -62.13203,0 -112.5,-50.36797 -112.5,-112.5 0,-62.13204 50.36797,-112.5 112.5,-112.5 62.13204,0 112.5,50.36796 112.5,112.5 z"
         sodipodi:ry="112.5"
         sodipodi:rx="112.5"
         sodipodi:cy="489.14789"
         sodipodi:cx="354.64285"
         id="path4796"
         style="fill:none;stroke:#000000;stroke-width:1.30665123;stroke-linecap:butt;stroke-miterlimit:4;stroke-opacity:1;stroke-dasharray:none;stroke-dashoffset:17.01120644"
         sodipodi:type="arc" />
      <path
         inkscape:connector-curvature="0"
         id="path4798"
         d="m 149.96875,321 c -61.199297,0 -110.8125,49.6132 -110.8125,110.8125 0,61.1993 49.613203,110.8125 110.8125,110.8125 61.1993,0 110.8125,-49.6132 110.8125,-110.8125 C 260.78125,370.6132 211.16805,321 149.96875,321 z m -10.5,19.5625 0,11.1875 c -5.37051,0 -10.68748,0.70376 -15.875,2.09375 -32.783445,8.7843 -52.253046,42.46655 -43.46875,75.25 L 69.34375,432 c -10.380321,-38.73989 12.603859,-78.55718 51.34375,-88.9375 6.13004,-1.64254 12.43496,-2.5 18.78125,-2.5 z m 0,29.03125 0,7.65625 c -3.14018,0 -6.24807,0.43726 -9.28125,1.25 -19.16871,5.13624 -30.542491,24.83129 -25.40625,44 l -7.40625,1.96875 c -6.230657,-23.25313 7.55937,-47.14434 30.8125,-53.375 3.67948,-0.98591 7.47197,-1.5 11.28125,-1.5 z m 61.46875,19.4375 c 0.56145,0.0255 0.99351,0.21572 1.3125,0.59375 3.40253,4.03227 -8.90031,27.21561 -27.5,51.75 -18.59968,24.53438 -36.44122,41.12602 -39.84375,37.09375 -1.70127,-2.01614 0.52043,-8.79595 5.5,-18.15625 -3.14762,6.51812 -4.3929,11.2104 -3.09375,12.75 3.06054,3.62699 19.08226,-11.36904 35.8125,-33.4375 16.73024,-22.06845 27.8418,-42.87301 24.78125,-46.5 -1.33899,-1.58681 -5.15815,0.3724 -10.4375,4.9375 6.13007,-5.79159 10.95707,-9.14528 13.46875,-9.03125 z m 7.875,5.875 c 6.75881,7.78698 12.2745,30.00845 -0.21875,54.3125 -6.66104,-1.8024 -14.19042,-1.35361 -18.84375,4.25 -5.69461,6.85755 -3.65191,17.27283 -0.53125,21.59375 -15.61266,8.28067 -31.23109,14.76393 -46.84375,8 8.13661,-5.06694 22.30331,-19.80012 36.90625,-39.0625 15.04444,-19.84475 26.27711,-38.85725 29.53125,-49.09375 z M 135.125,400.875 c 3.42806,0 6.21875,2.79069 6.21875,6.21875 0,0.9693 -0.22879,1.87014 -0.625,2.6875 L 175,428.25 165.78125,440.03125 139,411.90625 c -1.0648,0.85866 -2.40061,1.375 -3.875,1.375 -3.42806,0 -6.21875,-2.75944 -6.21875,-6.1875 0,-3.42806 2.79069,-6.21875 6.21875,-6.21875 z m 67.8125,52.875 c 6.15209,0 11.125,4.97291 11.125,11.125 0,6.15209 -4.97291,11.15625 -11.125,11.15625 -6.15209,0 -11.15625,-5.00416 -11.15625,-11.15625 0,-6.15209 5.00416,-11.125 11.15625,-11.125 z m 14.09375,5.28125 16.84375,30.28125 c -3.35393,4.63425 -6.18756,9.51688 -14.53125,11.65625 l -8.9375,-22.4375 c 4.45377,-2.37415 9.16034,-8.39023 6.625,-19.5 z M 194.6875,477 l -4.84375,37.4375 c -7.74911,3.60325 -15.50089,3.38226 -23.25,0.96875 l 11.3125,-30.34375 c 4.24029,-0.65623 9.7135,-3.16508 16.78125,-8.0625 z"
         style="fill:#000000;fill-opacity:1;stroke:#000000;stroke-width:1.46825266;stroke-linecap:butt;stroke-miterlimit:4;stroke-opacity:1;stroke-dasharray:none;stroke-dashoffset:17.01120644" />
    </g>
    <g
       transform="matrix(0.18791376,0,0,0.18791376,177.71742,217.01191)"
       id="g4986">
      <path
         sodipodi:type="arc"
         style="fill:none;stroke:#000000;stroke-width:1.30665123;stroke-linecap:butt;stroke-miterlimit:4;stroke-opacity:1;stroke-dasharray:none;stroke-dashoffset:17.01120644"
         id="path4893"
         sodipodi:cx="354.64285"
         sodipodi:cy="489.14789"
         sodipodi:rx="112.5"
         sodipodi:ry="112.5"
         d="m 467.14285,489.14789 c 0,62.13203 -50.36796,112.5 -112.5,112.5 -62.13203,0 -112.5,-50.36797 -112.5,-112.5 0,-62.13204 50.36797,-112.5 112.5,-112.5 62.13204,0 112.5,50.36796 112.5,112.5 z"
         transform="matrix(1.4108971,0,0,1.4108971,-305.40876,-304.33287)" />
      <path
         sodipodi:nodetypes="ssccssscccccccccsssscccccsscccccccccccs"
         inkscape:connector-curvature="0"
         id="path4895"
         d="m 194.96875,246.65625 c -76.84234,0 -139.15625,62.31391 -139.15625,139.15625 0,72.61875 55.65198,132.22842 126.625,138.5625 4.35744,0.36254 8.47958,0.56022 12.53125,0.5625 76.84234,0 139.125,-62.28266 139.125,-139.125 0,-76.84234 -62.28266,-139.15625 -139.125,-139.15625 z M 256.9375,293.875 c 15.22518,-0.19546 29.2061,7.71793 33.5625,28 14.92079,8.03492 15.94125,10.58685 16.03125,22.78125 l -27.21875,-2.875 c -49.38111,4.21642 -44.24664,21.59971 -9.71875,28.25 9.14348,-8.26432 18.74234,-9.82672 24.40625,-2.65625 -4.38372,25.67291 1.85181,30.71662 -14,37 l 1.71875,7.78125 c 35.29905,-0.16345 36.11508,8.29366 39.15625,19.09375 -32.54859,63.44311 -85.25575,84.29471 -130.65625,83.40625 l 0,-47.96875 c 0,-1.86075 -1.51425,-3.34375 -3.375,-3.34375 l -1.40625,0 c -1.86075,0 -3.34375,1.483 -3.34375,3.34375 l 0,47.59375 c -19.53085,-1.51124 -37.3308,-6.9873 -51.0625,-14.65625 4.31595,-51.15014 1.07207,-93.26824 88.09375,-97.25 l 0.34375,-22.5 c -16.86599,-1.15758 -26.95239,-33.00904 -10.40625,-37.375 -6.33997,-25.48998 22.49971,-48.29924 47.875,-48.625 z M 132.59375,294 c 14.71367,-0.25902 29.21323,8.0414 34.15625,25.25 13.70113,8.27983 13.20888,11.48094 14,16.5 -3.79516,5.04341 -18.6505,5.29522 -29.75,-0.375 -33.50867,4.96497 -49.44627,20.83128 0,29.5 5.49382,-8.11372 11.08066,-11.617 18,-2.5 0.1338,10.71159 -5.4644,11.79298 -4.5,27 -47.20569,4.36972 -51.17336,62.53187 -56.5,93 -22.572234,-23.88055 -42.723376,-48.97165 -43,-84 l 35.125,-8.25 -0.0625,-22.625 C 85.893284,366.47602 83.493145,347.56172 95,342.375 91.870705,310.78256 112.43058,294.35496 132.59375,294 z"
         style="fill:#000000;fill-opacity:1;stroke:#000000;stroke-width:1.84355009;stroke-linecap:butt;stroke-miterlimit:4;stroke-opacity:1;stroke-dasharray:none;stroke-dashoffset:17.01120644" />
    </g>
    <g
       transform="matrix(0.19461854,0,0,0.19461854,239.79157,232.0161)"
       id="g5092">
      <path
         transform="matrix(1.3622905,0,0,1.3622905,-260.17077,-368.55705)"
         d="m 467.14285,489.14789 c 0,62.13203 -50.36796,112.5 -112.5,112.5 -62.13203,0 -112.5,-50.36797 -112.5,-112.5 0,-62.13204 50.36797,-112.5 112.5,-112.5 62.13204,0 112.5,50.36796 112.5,112.5 z"
         sodipodi:ry="112.5"
         sodipodi:rx="112.5"
         sodipodi:cy="489.14789"
         sodipodi:cx="354.64285"
         id="path4979"
         style="fill:none;stroke:#000000;stroke-width:1.30665123;stroke-linecap:butt;stroke-miterlimit:4;stroke-opacity:1;stroke-dasharray:none;stroke-dashoffset:17.01120644"
         sodipodi:type="arc" />
      <path
         inkscape:connector-curvature="0"
         id="path4981"
         d="m 222.96875,163.46875 c -74.19506,0 -134.34375,60.14869 -134.34375,134.34375 0,74.19506 60.14869,134.34375 134.34375,134.34375 74.19506,0 134.34375,-60.14869 134.34375,-134.34375 0,-74.19506 -60.14869,-134.34375 -134.34375,-134.34375 z M 287.5,201 c 7.71285,0 13.96875,6.2559 13.96875,13.96875 0,5.58588 -3.29264,10.39142 -8.03125,12.625 l 0,62.8125 2.1875,0 27.96875,23.75 0,35.4375 -24.125,24.125 -151.5,0 c -15.50647,-6.82599 -26.40662,-20.0688 -37.3125,-42.59375 9.35577,-22.86749 26.01924,-33.43468 37.84375,-40.71875 l 8.3125,0 5.0625,-36.28125 c -3.35377,-1.31364 -5.71875,-4.58684 -5.71875,-8.40625 0,-4.97918 4.02082,-9 9,-9 4.97918,0 9.03125,4.02082 9.03125,9 0,3.649 -2.1632,6.80005 -5.28125,8.21875 l 3.4375,32.625 6.6875,0 c 2.8855,-3.4097 7.59628,-5.65625 12.9375,-5.65625 5.34348,0 10.08359,2.24411 12.96875,5.65625 l 10.5,0 c 1.68919,-1.09919 3.78061,-1.75 6.0625,-1.75 2.28189,0 4.37331,0.65081 6.0625,1.75 l 3.875,0 c 1.68919,-1.09919 3.78061,-1.75 6.0625,-1.75 2.28189,0 4.37331,0.65081 6.0625,1.75 l 23.75,0 0,-14.84375 -17.71875,0 -8.8125,0 0,-7.0625 0,-24.75 8.8125,0 0,24.75 17.71875,0 0,-1.09375 13.40625,-14.46875 0,-21.90625 c -4.28612,-2.38441 -7.1875,-6.96611 -7.1875,-12.21875 C 273.53125,207.2559 279.78715,201 287.5,201 z m -134.75,108.53125 0,17 33.21875,0 0,-17 -33.21875,0 z m 40,0 0,17 33.21875,0 0,-17 -33.21875,0 z m 51.1875,0 0,11.34375 54.09375,0 0,-11.34375 -54.09375,0 z m 0,18 0,11.34375 44.21875,0 0,-11.34375 -44.21875,0 z m -81.84375,6.40625 c -4.97918,0 -9,4.05207 -9,9.03125 0,4.97918 4.02082,9 9,9 4.97918,0 9.03125,-4.02082 9.03125,-9 0,-4.97918 -4.05207,-9.03125 -9.03125,-9.03125 z m 30.65625,1.59375 0,17 33.21875,0 0,-17 -33.21875,0 z m 51.1875,10 0,11.34375 33.59375,0 0,-11.34375 -33.59375,0 z"
         style="fill:#000000;fill-opacity:1;stroke:#000000;stroke-width:1.78003824;stroke-linecap:butt;stroke-miterlimit:4;stroke-opacity:1;stroke-dasharray:none;stroke-dashoffset:17.01120644" />
    </g>
    <g
       transform="matrix(0.17826388,0,0,0.17826389,313.23472,254.75887)"
       id="g3849">
      <path
         sodipodi:type="arc"
         style="fill:none;stroke:#000000;stroke-width:1.30665123;stroke-linecap:butt;stroke-miterlimit:4;stroke-opacity:1;stroke-dasharray:none;stroke-dashoffset:17.01120644"
         id="path5025"
         sodipodi:cx="354.64285"
         sodipodi:cy="489.14789"
         sodipodi:rx="112.5"
         sodipodi:ry="112.5"
         d="m 467.14285,489.14789 c 0,62.13203 -50.36796,112.5 -112.5,112.5 -62.13203,0 -112.5,-50.36797 -112.5,-112.5 0,-62.13204 50.36797,-112.5 112.5,-112.5 62.13204,0 112.5,50.36796 112.5,112.5 z"
         transform="matrix(1.4872726,0,0,1.4872726,-320.03091,-534.34356)" />
      <path
         sodipodi:nodetypes="sssssscccccccccccccccccccccccccccccccccccccccccccccccccccsccccscccsscccsscccsscccccssccsscccscsccccccccscsccsscscccsssssscsssccccccccccccccccccccc"
         inkscape:connector-curvature="0"
         id="path5027"
         d="M 207.40625,46.5 C 126.40424,46.5 60.75,112.15424 60.75,193.15625 c 0,81.00201 65.65424,146.65625 146.65625,146.65625 81.00201,0 146.6875,-65.65424 146.6875,-146.65625 C 354.09375,112.15424 288.40826,46.5 207.40625,46.5 z m 31.75,27.40625 c 1.31403,-0.07774 2.62995,0.111405 3.65625,0.65625 l 16.3125,7.84375 c 29.90676,14.975126 43.12533,12.005703 42.8125,18.90625 -3.36209,2.50616 -16.73554,-7.960204 -42.08334,-15.293655 L 254.52908,87.055772 222.6875,102.5 c 0.26392,3.18544 0.61409,0.90586 -0.15533,4.39829 l 20.87408,-1.74204 18.4375,12.1875 c 25.34713,15.23774 36.34341,17.44936 35.65625,21.96875 -4.46202,0.88832 -4.59253,-5.17954 -37.21875,-19.84375 l -7.55306,1.21185 -11.60503,-6.12698 -15.12224,3.67125 c 0.84036,1.99684 1.53932,0.12298 0.46783,3.08763 l 54.59375,36.15625 c 4.03125,-1.6875 27.90739,12.8121 29.71875,26.5625 -3.94778,7.13555 -30.33333,-6.29167 -47.375,-14.125 L 188.4375,134.1875 c -5.66793,5.16338 -9.26172,6.96495 -18.25,2.34375 -3.09183,-1.09347 -2.97016,-0.38768 -8.875,-0.59375 l -20.28125,10.65625 c 3.68571,3.73661 9.81303,4.42122 11,11.28125 -4.51399,0.17477 -8.35434,-7.06063 -12.53125,-10.59375 l -17.53125,8.125 6.375,9.09375 c 10.25,29.39583 25.24747,28.04167 22.625,37.1875 -5.33469,1.12599 -4.24999,-10.27081 -28.625,-32.09375 l -16,-20.34375 18.5,-12.78125 -12.28125,-10.03125 -2.25,-0.0312 -11.125,-8.3125 c 0.0536,-7.8328 -0.759654,-10.69917 5.96875,-10.5 l 7.4375,4.34375 32.9375,-3.125 c -0.12839,-3.53413 1.2168,-5.34039 3.40885,-5.89108 L 155.46875,101.4375 146.75,93.75 c -3.5629,-3.564295 3.91614,-9.384138 9.90625,-5 l 11.28125,9.03125 2.26967,-1.682138 L 181.95493,94.42563 185.15625,94.5 178.25,88.25 c -4.54317,-4.171715 3.48982,-9.567476 8.625,-3.78125 l 7.78656,6.539521 9.8495,-1.094467 3.45769,1.929946 26.8678,-12.949747 -1.3053,-1.769003 c -0.15682,-1.609684 2.73414,-3.047732 5.625,-3.21875 z m -90,49.84375 -33.375,2.125 10.46875,9.3125 z M 203.25,149.125 c 4.13233,-0.16576 10.03363,3.25674 9.9375,8.75 l 0.71875,67.53125 -14.5,-71.78125 c -0.46974,-3.024 1.36435,-4.40054 3.84375,-4.5 z m -30.15625,3.8125 c 2.10345,-0.0468 4.21136,1.02209 5.09375,3.53125 L 204,225.40625 168.28125,160.6875 c -2.19548,-4.54633 1.30676,-7.67209 4.8125,-7.75 z M 151.875,165.09375 c 2.0841,-0.0473 4.29511,1.01961 5.46875,3.75 L 185.625,225.40625 147.78125,172 c -2.52849,-3.68409 0.62024,-6.82735 4.09375,-6.90625 z m 87.5625,5 c 3.4303,0.14225 7.70662,3.81574 5.9375,7.9375 l -18.75,51.25 9.1875,-56.5625 c 0.40461,-1.6538 1.56648,-2.45159 2.9375,-2.59375 0.21898,-0.0227 0.45881,-0.0407 0.6875,-0.0312 z m 22.875,10.21875 c 2.53123,0.29425 5.63612,4.65676 2.84375,8.3125 l -25.09375,40.3125 20.15625,-47.375 c 0.47377,-0.98145 1.25001,-1.34808 2.09375,-1.25 z M 213.25,234.84375 c 56.61498,0 102.5,18.38179 102.5,41.03125 0,22.27672 -44.3922,40.37844 -99.71875,40.96875 l 0,-26.5 C 264.7227,289.90608 303.75,278.06559 303.75,263.5 c 0,-5.20631 -4.99473,-10.07073 -13.625,-14.1875 6.52748,3.6283 10.25,7.78645 10.25,12.1875 0,14.01061 -37.52228,25.37502 -84.34375,25.8125 l 0,-5.3125 c 11.92847,-0.25433 23.99349,-1.44134 36.8125,-3.5 l -11.4375,-14.90625 c -6.36085,0.61627 -43.75138,4.02259 -56.53125,0.25 l -13.15625,14.8125 c 14.05564,2.35481 27.28058,3.47356 40.59375,3.40625 l 0,5.28125 C 164.63206,287.19362 126.125,275.69485 126.125,261.5 c 0,-4.40105 3.72252,-8.5592 10.25,-12.1875 -8.63027,4.11677 -13.625,8.98119 -13.625,14.1875 0,14.74927 40.01475,26.72491 89.5625,26.875 l 0,26.5 c -56.18152,-0.20201 -101.5625,-18.47617 -101.5625,-41 0,-22.64946 45.88502,-41.03125 102.5,-41.03125 z m 58,7.5 -11,2.5625 c 2.86159,3.70686 4.13428,8.1719 0.5,11.3125 l 18.6875,9.21875 c 10.6873,-12.69087 5.675,-18.5654 -8.1875,-23.09375 z m -58,1.28125 c -23.33403,0 -42.25,4.47715 -42.25,10 0,5.52285 18.91597,10 42.25,10 23.33403,0 42.25,-4.47715 42.25,-10 0,-5.52285 -18.91597,-10 -42.25,-10 z m 0,0.5 c 18.29443,0 33.125,3.46979 33.125,7.75 0,4.28021 -14.83057,7.75 -33.125,7.75 -18.29443,0 -33.125,-3.46979 -33.125,-7.75 0,-4.28021 14.83057,-7.75 33.125,-7.75 z m 63.84375,1.59375 c 7.42388,5.04495 9.05039,8.0688 2.5625,16.71875 l -14.40625,-6.5 c 1.96489,-3.73479 1.83976,-5.70483 1.125,-8.9375 z M 149.46875,246.5 c -3.19861,3.83587 -14.94718,15.93403 3.28125,27.40625 l 13.96875,-12.09375 c -8.31045,-2.34709 -9.67394,-7.02493 -6.9375,-13.3125 z m 0.9375,1.21875 8.09375,1.9375 c -3.07109,7.267 1.00875,11.78166 3.1875,12.75 L 151.5,270.5625 c -9.13474,-7.31797 -10.7946,-11.22579 -1.09375,-22.84375 z m 88.15625,17.6875 10.15625,11.71875 c -23.00714,3.69481 -46.27756,4.15563 -68.84375,0.375 L 189,266.9375 c 20.2171,0.59246 28.14343,0.87686 49.5625,-1.53125 z"
         style="fill:#000000;fill-opacity:1;stroke:#000000;stroke-width:1.01338577;stroke-linecap:butt;stroke-miterlimit:4;stroke-opacity:1;stroke-dasharray:none;stroke-dashoffset:17.01120644" />
    </g>
    <g
       transform="matrix(0.19417476,0,0,0.19417476,38.575412,275.54496)"
       id="g4110">
      <path
         transform="matrix(1.3654159,0,0,1.3654159,-235.235,-288.02813)"
         d="m 467.14285,489.14789 c 0,62.13203 -50.36796,112.5 -112.5,112.5 -62.13203,0 -112.5,-50.36797 -112.5,-112.5 0,-62.13204 50.36797,-112.5 112.5,-112.5 62.13204,0 112.5,50.36796 112.5,112.5 z"
         sodipodi:ry="112.5"
         sodipodi:rx="112.5"
         sodipodi:cy="489.14789"
         sodipodi:cx="354.64285"
         id="path5567-48-4"
         style="fill:none;stroke:#000000;stroke-width:1.30467057;stroke-linecap:butt;stroke-miterlimit:4;stroke-opacity:1;stroke-dasharray:none;stroke-dashoffset:17.01120644"
         sodipodi:type="arc" />
      <path
         inkscape:connector-curvature="0"
         id="path4648-8-2"
         d="m 249,245.21875 c -74.36529,0 -134.65625,60.29096 -134.65625,134.65625 0,74.36529 60.29096,134.625 134.65625,134.625 74.36529,0 134.65625,-60.25971 134.65625,-134.625 0,-74.36529 -60.29096,-134.65625 -134.65625,-134.65625 z m 41.875,47.40625 c 4.34375,-0.0515 7.67483,3.24084 8.125,8.75 3.5,48.83333 12.72672,136.11643 10.375,146.625 -10.97113,49.02405 -76.99748,25.6919 -100.875,14.375 -21.4721,-10.17683 -77.81109,-50.71724 -46,-88 9.71616,-11.38739 81.33333,-53 122,-79.5 2.21906,-1.50678 4.40057,-2.2266 6.375,-2.25 z m -87,67.53125 c -1.67612,0.0997 -3.32488,0.7623 -4.65625,2 L 190.78125,370 c -3.04313,2.82902 -3.20402,7.55062 -0.375,10.59375 l 1.03125,1.09375 c 2.82902,3.04313 7.55062,3.20402 10.59375,0.375 l 8.4375,-7.8125 c 3.04313,-2.82902 3.20402,-7.58187 0.375,-10.625 l -1.03125,-1.09375 c -1.59133,-1.71176 -3.78249,-2.50314 -5.9375,-2.375 z m 34.40625,28.625 c -2.92311,-0.0272 -5.70032,1.67111 -6.9375,4.53125 l -4.5625,10.5625 c -1.64957,3.81352 0.0927,8.19418 3.90625,9.84375 l 1.375,0.59375 c 3.81352,1.64957 8.19418,-0.0927 9.84375,-3.90625 l 4.5625,-10.53125 c 1.64957,-3.81352 -0.0927,-8.22543 -3.90625,-9.875 l -1.375,-0.59375 c -0.95338,-0.41239 -1.93188,-0.61594 -2.90625,-0.625 z m 41.25,12.1875 c -3.80724,0.15452 -6.9225,3.14296 -7.15625,7.03125 l -0.71875,11.46875 c -0.24933,4.14751 2.91499,7.68817 7.0625,7.9375 l 1.5,0.0937 c 4.14751,0.24933 7.65692,-2.88374 7.90625,-7.03125 L 288.84375,409 c 0.24933,-4.14751 -2.91499,-7.68817 -7.0625,-7.9375 l -1.5,-0.0937 c -0.25922,-0.0156 -0.49618,-0.0103 -0.75,0 z"
         style="fill:#000000;fill-opacity:1;stroke:#000000;stroke-width:1.78100002;stroke-linecap:butt;stroke-miterlimit:4;stroke-opacity:1;stroke-dasharray:none;stroke-dashoffset:17.01120644" />
    </g>
    <path
       sodipodi:type="arc"
       style="fill:none;stroke:#000000;stroke-width:1.30467057;stroke-linecap:butt;stroke-miterlimit:4;stroke-opacity:1;stroke-dasharray:none;stroke-dashoffset:17.01120644"
       id="path4149"
       sodipodi:cx="354.64285"
       sodipodi:cy="489.14789"
       sodipodi:rx="112.5"
       sodipodi:ry="112.5"
       d="m 467.14285,489.14789 a 112.5,112.5 0 1 1 -225,0 112.5,112.5 0 1 1 225,0 z"
       transform="matrix(0.2651293,0,0,0.2651293,550.09885,-55.204732)" />
    <path
       transform="matrix(0.23240606,0,0,0.23240606,561.70391,-39.198222)"
       d="m 467.14285,489.14789 a 112.5,112.5 0 1 1 -225,0 112.5,112.5 0 1 1 225,0 z"
       sodipodi:ry="112.5"
       sodipodi:rx="112.5"
       sodipodi:cy="489.14789"
       sodipodi:cx="354.64285"
       id="path4151"
       style="fill:none;stroke:#000000;stroke-width:1.4883709;stroke-linecap:butt;stroke-miterlimit:4;stroke-opacity:1;stroke-dasharray:none;stroke-dashoffset:17.01120644"
       sodipodi:type="arc" />
    <g
       id="g4268"
       transform="matrix(0.17033517,-0.03994888,0.03994888,0.17033517,89.112866,302.60073)">
      <path
         sodipodi:type="arc"
         style="fill:none;stroke:#000000;stroke-width:1.30467057;stroke-linecap:butt;stroke-miterlimit:4;stroke-opacity:1;stroke-dasharray:none;stroke-dashoffset:17.01120644"
         id="path4102"
         sodipodi:cx="354.64285"
         sodipodi:cy="489.14789"
         sodipodi:rx="112.5"
         sodipodi:ry="112.5"
         d="m 467.14285,489.14789 c 0,62.13203 -50.36796,112.5 -112.5,112.5 -62.13203,0 -112.5,-50.36797 -112.5,-112.5 0,-62.13204 50.36797,-112.5 112.5,-112.5 62.13204,0 112.5,50.36796 112.5,112.5 z"
         transform="matrix(1.4734362,0.35413255,-0.35413255,1.4734362,-74.411161,-497.92864)" />
      <path
         sodipodi:nodetypes="ssssssscccccccccccccccccccccccccccccccccccccccccccccccccccccccccccccccccccccccccccccccccccccccccccccccccccccccccccccccccccccccc"
         inkscape:connector-curvature="0"
         id="path4104"
         d="M 272.9375,198.90625 C 206.17768,199.73792 145.90978,245.58279 129.59375,313.46875 110.30646,393.71719 159.75156,474.40021 240,493.6875 c 80.24844,19.28729 160.93146,-30.12656 180.21875,-110.375 19.28729,-80.24844 -30.12656,-160.93146 -110.375,-180.21875 -11.28494,-2.71227 -22.58834,-4.08727 -33.71875,-4.1875 -1.0628,-0.01 -2.12782,-0.0132 -3.1875,0 z m -35.625,92.4375 10.21875,10.6875 3.46875,-0.0625 0,0.0937 11,0 0,-4.1875 19,0 0,40.5 -16.5625,0 0,0.0312 -13.15625,0 0.125,15.25 -10.75,0.21875 -0.1875,-14.4375 -19.375,-4.96875 0.40625,6.90625 -33.3125,1.3125 0.25,0.0937 c -0.80445,16.41478 -2.05555,33.04617 10.4375,43.5 l -0.0625,0.125 7.53125,1.8125 3.5,-14.59375 105.5,25.375 -9.125,37.90625 59.0625,14.1875 C 335.85314,476.94386 295.78698,489.79643 254.875,483.6875 L 231.15625,478 C 192.00089,464.83064 162.20349,435.16929 147.75,398.8125 l 52.96875,12.71875 2.34375,-9.6875 -9.71875,-2.34375 1.125,-4.75 c -15.209,-9.57823 -16.55938,-34.30147 -15.03125,-55 l -5.5,-4.25 5.625,-6.125 -11.34375,-5.0625 -9.09375,-12.5 -0.3125,-10.875 26.15625,0.90625 7.875,-8.90625 11.5625,10.6875 9.21875,-0.1875 -5.5,-5.5625 5.96875,-6.15625 10.875,11.0625 11.375,-0.1875 -4.875,-5.03125 z m 47.6875,7.5 21,0 0,3.53125 -21,0 z m 0,6 21,0 0,3.53125 -21,0 z m 24.09375,0.0312 45.3125,0 0,9.5 -45.3125,0 z m 50.40625,0.5 40.5,0 0,8.5 -40.5,0 z m -108.4375,4.59375 0.15625,20.53125 10.78125,0 0,-20.53125 z m 33.9375,0.875 21,0 0,3.53125 -21,0 z m 0.5,6.03125 20,0 0,19.5 -20,0 z m 23.59375,2 45.3125,0 0,9.5 -45.3125,0 z m 50.40625,0.5 40.5,0 0,8.5 -40.5,0 z m -105,31.0625 24.3125,5.84375 -4.5625,18.9375 32.5625,7.84375 -2.21875,9.21875 -78.28125,-18.8125 2.25,-9.21875 21.375,5.125 z m 6.28125,45.53125 -13.00005,8.0625 -8.125,32.125 -31.28125,-7.53125 -1.0625,4.46875 35.75,8.59375 1.0625,-4.46875 7.25,-30.09375 7.90625,-4.84375 4.90625,8.0625 -8.28125,34.4375 4.46875,1.0625 31.28125,7.53125 1.09375,-4.46875 -31.3125,-7.53125 7.53125,-31.28125 -8.15625,-14.0625 z"
         style="fill:#000000;fill-opacity:1;stroke:#000000;stroke-width:1.97709227;stroke-linecap:butt;stroke-miterlimit:4;stroke-opacity:1;stroke-dasharray:none;stroke-dashoffset:17.01120644" />
    </g>
  </g>
</svg>
