<?xml version="1.0" encoding="UTF-8" standalone="no"?>
<!-- Created with Inkscape (http://www.inkscape.org/) -->

<svg
   xmlns:dc="http://purl.org/dc/elements/1.1/"
   xmlns:cc="http://creativecommons.org/ns#"
   xmlns:rdf="http://www.w3.org/1999/02/22-rdf-syntax-ns#"
   xmlns:svg="http://www.w3.org/2000/svg"
   xmlns="http://www.w3.org/2000/svg"
   xmlns:sodipodi="http://sodipodi.sourceforge.net/DTD/sodipodi-0.dtd"
   xmlns:inkscape="http://www.inkscape.org/namespaces/inkscape"
   width="210mm"
   height="297mm"
   id="svg3890"
   version="1.1"
   inkscape:version="0.48.4 r9939"
   sodipodi:docname="cards.svg">
  <defs
     id="defs3892" />
  <sodipodi:namedview
     id="base"
     pagecolor="#ffffff"
     bordercolor="#666666"
     borderopacity="1.0"
     inkscape:pageopacity="0.0"
     inkscape:pageshadow="2"
     inkscape:zoom="2.0000001"
     inkscape:cx="184.55151"
     inkscape:cy="800.72629"
     inkscape:document-units="px"
     inkscape:current-layer="layer1"
     showgrid="false"
     inkscape:window-width="1366"
     inkscape:window-height="706"
     inkscape:window-x="-8"
     inkscape:window-y="-8"
     inkscape:window-maximized="1"
     inkscape:snap-global="false" />
  <metadata
     id="metadata3895">
    <rdf:RDF>
      <cc:Work
         rdf:about="">
        <dc:format>image/svg+xml</dc:format>
        <dc:type
           rdf:resource="http://purl.org/dc/dcmitype/StillImage" />
        <dc:title></dc:title>
      </cc:Work>
    </rdf:RDF>
  </metadata>
  <g
     inkscape:label="Calque 1"
     inkscape:groupmode="layer"
     id="layer1">
    <path
       inkscape:connector-curvature="0"
       style="fill:#000000;fill-opacity:1;stroke:none;stroke-width:0.34642845000000000;stroke-linecap:butt;stroke-miterlimit:4;stroke-opacity:1;stroke-dasharray:none;stroke-dashoffset:17.01120643999999900"
       d="m 284.39059,133.09458 c -13.09221,0 -23.93846,9.62413 -25.84894,22.18329 l 4.90586,3.2441 5.9078,-2.3338 0.0244,0.0611 0.0733,-0.0305 1.87559,4.72258 -6.4271,2.54151 0.64149,1.63122 6.43932,-2.54763 1.44794,3.64733 8.57761,-2.1383 1.08137,-0.43377 1.47237,3.66565 -17.16746,6.90364 -1.38073,-3.44572 -4.20938,1.66177 c 0.17836,0.30467 0.36629,0.60189 0.55595,0.89808 l 4.03833,0 0,4.88754 c 4.68835,4.44548 11.02156,7.17245 17.99223,7.17245 14.43973,0 26.14219,-11.70246 26.14219,-26.14219 0,-14.43974 -11.70246,-26.1483 -26.14219,-26.1483 z m 9.80561,9.37183 1.05082,2.51097 c -11.0461,7.60506 -2.22115,17.92711 4.25827,16.12886 l 0.9775,2.44378 c -5.16821,0.88085 -11.83896,0.60898 -13.96613,-5.23577 1.80453,-1.35057 0.26557,-3.94382 -1.11801,-3.629 -0.39736,-8.88992 7.10361,-11.17693 8.79755,-12.21884 z m 10.83199,8.11331 -11.9439,7.11136 c -1.727,-1.05587 -2.21179,-3.07956 -2.27271,-5.43126 l 14.21661,-1.6801 z m -22.22605,1.72897 1.43572,3.6351 -0.1222,0.0489 -0.0366,-0.0978 -11.43682,4.52708 -1.39906,-3.54957 11.55902,-4.56374 z m 1.97945,5.00972 1.45404,3.62899 -11.53458,4.63094 -1.41127,-3.52513 11.43683,-4.52708 -0.0611,-0.15885 0.11608,-0.0489 z m -21.609,2.98751 -4.78368,1.73507 c 0.0694,0.65269 0.15837,1.29926 0.27492,1.93669 l 5.16246,-2.04055 -0.6537,-1.63121 z m -1.53347,6.01166 -2.17495,0.86143 c 0.3287,1.03301 0.71762,2.03912 1.1669,3.01194 l -0.0916,-0.23827 2.19938,-0.86753 -1.09969,-2.76757 z"
       id="path4687" />
    <path
       sodipodi:type="arc"
       style="fill:none;stroke:#000000;stroke-width:1.30665123;stroke-linecap:butt;stroke-miterlimit:4;stroke-opacity:1;stroke-dasharray:none;stroke-dashoffset:17.01120644"
       id="path5567-4"
       sodipodi:cx="354.64285"
       sodipodi:cy="489.14789"
       sodipodi:rx="112.5"
       sodipodi:ry="112.5"
       d="m 467.14285,489.14789 a 112.5,112.5 0 1 1 -225,0 112.5,112.5 0 1 1 225,0 z"
       transform="matrix(0.26512698,0,0,0.26512698,190.36347,29.555683)" />
    <path
       transform="matrix(0.23240403,0,0,0.23240403,201.96843,45.56205)"
       d="m 467.14285,489.14789 a 112.5,112.5 0 1 1 -225,0 112.5,112.5 0 1 1 225,0 z"
       sodipodi:ry="112.5"
       sodipodi:rx="112.5"
       sodipodi:cy="489.14789"
       sodipodi:cx="354.64285"
       id="path4648"
       style="fill:none;stroke:#000000;stroke-width:1.49063027;stroke-linecap:butt;stroke-miterlimit:4;stroke-opacity:1;stroke-dasharray:none;stroke-dashoffset:17.01120644"
       sodipodi:type="arc" />
    <path
       sodipodi:type="arc"
       style="fill:none;stroke:#000000;stroke-width:1.30665123;stroke-linecap:butt;stroke-miterlimit:4;stroke-opacity:1;stroke-dasharray:none;stroke-dashoffset:17.01120644"
       id="path5567-0"
       sodipodi:cx="354.64285"
       sodipodi:cy="489.14789"
       sodipodi:rx="112.5"
       sodipodi:ry="112.5"
       d="m 467.14285,489.14789 a 112.5,112.5 0 1 1 -225,0 112.5,112.5 0 1 1 225,0 z"
       transform="matrix(0.26512177,0,0,0.26512177,256.18662,29.558234)" />
    <path
       transform="matrix(0.23239929,0,0,0.23239929,267.79126,45.564482)"
       d="m 467.14285,489.14789 a 112.5,112.5 0 1 1 -225,0 112.5,112.5 0 1 1 225,0 z"
       sodipodi:ry="112.5"
       sodipodi:rx="112.5"
       sodipodi:cy="489.14789"
       sodipodi:cx="354.64285"
       id="path4648-9"
       style="fill:none;stroke:#000000;stroke-width:1.49063027;stroke-linecap:butt;stroke-miterlimit:4;stroke-opacity:1;stroke-dasharray:none;stroke-dashoffset:17.01120644"
       sodipodi:type="arc" />
    <path
       inkscape:connector-curvature="0"
       style="fill:#000000;fill-opacity:1;stroke:none;stroke-width:0.34642183999999998;stroke-linecap:butt;stroke-miterlimit:4;stroke-opacity:1;stroke-dasharray:none;stroke-dashoffset:17.01120643999999900"
       d="m 350.21205,133.09863 c -14.43967,0 -26.14426,11.70507 -26.14426,26.14432 0,14.43929 11.70459,26.1443 26.14426,26.1443 14.43933,0 26.1439,-11.70501 26.1439,-26.1443 0,-14.43925 -11.70457,-26.14432 -26.1439,-26.14432 z m 1.3473,7.13645 6.41125,3.76663 -6.21859,2.93926 c -0.37892,-0.048 -0.77183,-0.0696 -1.18063,-0.0696 -0.54556,0 -1.065,0.0483 -1.55299,0.13074 l -5.24323,-3.08039 7.78419,-3.68353 z m -9.8183,4.64573 4.98637,2.9327 c -0.57004,0.37696 -0.91124,0.83967 -0.91124,1.34122 0,0.18606 0.0487,0.36641 0.13508,0.53935 l -5.89109,2.78527 -6.41088,-3.76718 8.09227,-3.83136 z m 18.30232,0.34015 7.45054,4.37677 -7.7842,3.68338 -5.0441,-2.96485 c 0.41833,-0.33965 0.6609,-0.73729 0.6609,-1.16153 0,-0.48321 -0.31456,-0.9335 -0.84699,-1.30256 l 5.56385,-2.63121 z m -9.47199,2.66987 c 1.44791,0 2.62465,0.56777 2.62465,1.2639 0,0.69659 -1.17674,1.25787 -2.62465,1.25787 -1.448,0 -2.61823,-0.56128 -2.61823,-1.25787 0,-0.69613 1.17023,-1.2639 2.61823,-1.2639 z m -18.07765,2.66932 6.9563,4.01096 0.009,5.6086 c -0.30954,-0.0301 -0.60976,0.004 -0.87912,0.10912 -0.20238,0.0805 -0.37226,0.18549 -0.5198,0.32712 l -5.55102,-3.19565 -0.0132,-6.86002 z m 15.31801,0.44954 c 0.77906,0.26781 1.72839,0.43001 2.75964,0.43001 0.70432,0 1.36862,-0.0715 1.96988,-0.20483 l 5.12742,3.00966 -8.08575,3.83119 -7.45052,-4.3766 5.67933,-2.68891 z m 19.82975,0.48116 -0.0132,6.85349 -5.86547,2.85594 c -0.15463,-0.15181 -0.33864,-0.27462 -0.55191,-0.36576 -0.2843,-0.1204 -0.59724,-0.16913 -0.92405,-0.15822 l 0.0132,-5.60226 7.3416,-3.58095 z m -26.37519,4.13296 7.22579,4.17106 0.0132,6.85351 -5.26225,-3.02866 c -0.10253,-0.27535 -0.22676,-0.55658 -0.38505,-0.8344 -0.42371,-0.74969 -0.98567,-1.37528 -1.58511,-1.8289 l -0.009,-5.33261 z m 17.11484,0.3783 -0.0132,5.33915 c -0.63291,0.4164 -1.22111,1.00944 -1.66843,1.73307 -0.16706,0.268 -0.30189,0.5329 -0.41073,0.80179 l -5.55746,2.70847 0.0132,-6.85396 7.63669,-3.72852 z m -25.86183,3.63872 4.9669,2.86198 c 0.0495,0.65351 0.27212,1.38939 0.68036,2.11139 0.35825,0.63337 0.81552,1.17652 1.30908,1.60462 l 0.009,5.39683 -6.95636,-4.011 -0.009,-7.96382 z m 35.09654,0.92424 -0.0132,7.96379 -7.34145,3.58103 0.009,-5.39732 c 0.52136,-0.39702 1.0017,-0.91616 1.37973,-1.52736 0.43109,-0.69668 0.66733,-1.41589 0.71875,-2.06623 l 5.24934,-2.55391 z m -27.88336,1.18713 c 0.68903,-0.0525 1.56472,0.53371 2.07922,1.44406 0.58789,1.03994 0.48354,2.10926 -0.23207,2.38681 -0.71475,0.27739 -1.77376,-0.33935 -2.3617,-1.3793 -0.58787,-1.04045 -0.48374,-2.10975 0.23209,-2.38734 0.0878,-0.0344 0.18473,-0.0546 0.28246,-0.0653 z m 20.10529,0.4682 c 0.16386,0.002 0.31428,0.0309 0.45558,0.088 0.75487,0.322 0.86479,1.39654 0.24308,2.40009 -0.6209,1.00356 -1.73523,1.5541 -2.49004,1.23211 -0.75464,-0.32188 -0.86454,-1.3965 -0.24279,-2.40002 0.50445,-0.81542 1.33575,-1.32923 2.03416,-1.32199 z m -16.3963,3.72244 5.07625,2.92623 0.0132,7.97036 -7.22597,-4.17762 -0.009,-5.48065 c 0.40828,0.0828 0.80101,0.0655 1.14866,-0.0696 0.50914,-0.19937 0.83631,-0.61848 0.99474,-1.168 z m 12.63603,0.24274 c 0.168,0.55972 0.51486,1.00922 1.05226,1.23885 0.36721,0.1552 0.78189,0.1993 1.21277,0.13921 l -0.009,5.47406 -7.63018,3.72849 0.0132,-7.96387 5.35856,-2.61832 z"
       id="path4774" />
    <path
       sodipodi:type="arc"
       style="fill:none;stroke:#000000;stroke-width:1.30665123;stroke-linecap:butt;stroke-miterlimit:4;stroke-opacity:1;stroke-dasharray:none;stroke-dashoffset:17.01120644"
       id="path5567-48"
       sodipodi:cx="354.64285"
       sodipodi:cy="489.14789"
       sodipodi:rx="112.5"
       sodipodi:ry="112.5"
       d="m 467.14285,489.14789 a 112.5,112.5 0 1 1 -225,0 112.5,112.5 0 1 1 225,0 z"
       transform="matrix(0.26512698,0,0,0.26512698,-7.1004632,29.555683)" />
    <path
       inkscape:connector-curvature="0"
       style="fill:#000000;fill-opacity:1;stroke:#000000;stroke-width:0.34642845;stroke-linecap:butt;stroke-miterlimit:4;stroke-opacity:1;stroke-dasharray:none;stroke-dashoffset:17.01120644"
       d="m 86.918479,133.09419 c -14.439734,0 -26.125,11.71652 -26.125,26.15625 0,14.43973 11.685266,26.125 26.125,26.125 14.439731,0 26.156251,-11.68527 26.156251,-26.125 0,-14.43973 -11.71652,-26.15625 -26.156251,-26.15625 z m 0,1.25 c 13.756311,0 24.906251,11.14993 24.906251,24.90625 0,13.75632 -11.14994,24.90625 -24.906251,24.90625 -13.756316,0 -24.90625,-11.14993 -24.90625,-24.90625 0,-13.75632 11.149934,-24.90625 24.90625,-24.90625 z"
       id="path4648-8" />
    <path
       style="fill:#000000;fill-opacity:1;stroke:none;stroke-width:0.34642845000000000;stroke-linecap:butt;stroke-miterlimit:4;stroke-opacity:1;stroke-dasharray:none;stroke-dashoffset:17.01120643999999900"
       d="m 86.926883,133.09583 c -14.439734,0 -26.149272,11.70375 -26.149272,26.14348 0,8.81421 4.366899,16.60963 11.04956,21.34587 l -0.463537,-6.40839 c 9.628276,-6.15827 21.179343,-3.0841 27.939683,-0.50989 l 2.045353,7.38182 c 7.06381,-4.68089 11.72169,-12.70075 11.72169,-21.80941 0,-14.43973 -11.70374,-26.14348 -26.143477,-26.14348 z m -0.347652,2.61899 c 5.039597,-0.11865 10.483544,3.22702 10.01819,9.67633 5.140769,13.84529 -11.814416,10.94624 -6.524281,3.13467 l -1.095106,-0.0869 c -1.52578,5.94607 -9.135444,1.39294 -9.485123,1.35585 -0.733272,-0.0778 -3.901065,4.47957 -3.470732,-2.54366 4.028688,-3.61323 8.780028,-0.74001 12.955855,0.42877 l 1.182019,-0.34186 c -4.844014,-0.73723 -7.435298,-4.64161 -14.90271,-1.69191 0.755432,-1.23922 0.333951,-2.39974 3.186816,-3.78362 2.545288,0.1647 4.715941,-1.24042 12.48073,4.62958 1.178075,-1.45182 2.469915,-1.56226 3.806796,-1.18781 l -0.168032,-1.26894 c -1.00024,-0.0586 -1.327838,-0.84688 -3.911092,1.2052 -3.082882,-1.93216 -4.909992,-4.777 -11.831778,-4.29931 1.051494,-3.44121 4.310303,-5.14519 7.758448,-5.22637 z m 2.224977,18.22858 1.778822,0.93287 c -2.44577,1.38782 -4.383975,3.53391 -7.399207,4.06754 -5.412684,0.14416 -4.518551,-1.01589 -4.392011,-2.41039 4.137965,0.91659 6.850996,1.06376 10.012396,-2.59002 z m 4.554249,1.85415 c 0.199892,-0.003 0.405213,-0.002 0.614187,0.006 l 0.08112,2.45674 c 1.498277,-0.24974 3.005456,-0.60732 5.39441,0.17962 -6.138867,2.80533 -8.410563,7.31126 -9.033175,11.42039 -4.757251,-0.0853 -6.693133,-2.25972 -17.017596,1.77882 -0.25319,-3.24857 0.23957,-5.64454 1.1009,-7.61938 1.426931,-0.70904 3.19937,-2.112 3.893709,-1.35585 l 2.79281,-3.04775 c 0.242665,3.42269 1.090151,5.49604 2.369832,6.6054 1.704386,-5.28437 3.607147,-10.34475 9.803804,-10.42379 z m 7.468733,3.65035 c 4.27463,1.08855 9.28027,0.56834 9.23018,11.17124 -3.58203,-0.41543 -7.8277,-0.47117 -9.39821,0.67792 -2.621369,-0.72654 -5.204845,-1.0445 -8.042362,-4.14865 1.04884,-3.0838 3.702395,-6.51293 8.210392,-7.70051 z m -28.020798,6.43158 c -0.171282,1.76818 -0.466411,2.93507 -0.341858,6.18242 -0.885621,-0.21635 -1.677108,-0.75987 -2.114887,-2.54366 0.644153,-2.25913 1.607692,-2.60903 2.456745,-3.63876 z m 32.679348,5.87533 c 1.0799,-0.02 2.03906,0.11625 2.96084,0.30709 -2.00477,2.59218 -3.95722,5.37588 -6.17663,7.1095 -1.11452,-1.84156 -1.47576,-4.06261 -1.6977,-6.35046 1.93869,-0.75934 3.52504,-1.04044 4.91349,-1.06613 z"
       id="path4868"
       inkscape:connector-curvature="0" />
    <path
       sodipodi:type="arc"
       style="fill:#000000;fill-opacity:1;stroke:#000000;stroke-width:1.00029922;stroke-linecap:butt;stroke-miterlimit:4;stroke-opacity:1;stroke-dasharray:none;stroke-dashoffset:17.01120644"
       id="path4884"
       sodipodi:cx="413.47031"
       sodipodi:cy="367.8873"
       sodipodi:rx="10.497531"
       sodipodi:ry="18.246647"
       d="m 423.96784,367.8873 a 10.497531,18.246647 0 1 1 -20.99506,0 10.497531,18.246647 0 1 1 20.99506,0 z"
       transform="matrix(0.18680787,-0.00801631,-0.02084089,0.18629055,24.733275,85.011289)" />
    <path
       sodipodi:type="arc"
       style="fill:none;stroke:#000000;stroke-width:1.30665123;stroke-linecap:butt;stroke-miterlimit:4;stroke-opacity:1;stroke-dasharray:none;stroke-dashoffset:17.01120644"
       id="path5567-09"
       sodipodi:cx="354.64285"
       sodipodi:cy="489.14789"
       sodipodi:rx="112.5"
       sodipodi:ry="112.5"
       d="m 467.14285,489.14789 a 112.5,112.5 0 1 1 -225,0 112.5,112.5 0 1 1 225,0 z"
       transform="matrix(0.26512698,0,0,0.26512698,256.18477,93.462223)" />
    <path
       style="fill:#000000;fill-opacity:1;stroke:none;stroke-width:0.34642845000000000;stroke-linecap:butt;stroke-miterlimit:4;stroke-opacity:1;stroke-dasharray:none;stroke-dashoffset:17.01120643999999900"
       d="m 350.21206,197.00275 c -14.43973,0 -26.1488,11.70344 -26.1488,26.14317 0,14.43973 11.70907,26.1488 26.1488,26.1488 14.43974,0 26.14317,-11.70907 26.14317,-26.1488 0,-14.43973 -11.70343,-26.14317 -26.14317,-26.14317 z m -10.99726,4.59958 21.99453,0 0,3.12838 -0.80605,0 0,9.46971 0.0338,0 -10.22504,7.29957 -10.22503,-7.29957 0.0338,0 0,-9.46971 -0.80605,0 0,-3.12838 z m 8.20145,2.83527 0,11.78641 2.78454,2.26033 2.80709,-2.23778 0,-11.80896 -5.59163,0 z m -2.33361,17.09621 10.25321,0 0,0.10147 -1.97849,3.42713 c 0.0658,0.0237 0.13219,0.0482 0.19729,0.0733 l 1.14425,-1.98977 0,-0.0902 1.01462,0 0,0.0902 -1.61211,2.22087 c 0.74316,0.34261 1.43477,0.77905 2.05741,1.29645 l 2.35615,-1.14426 -1.14425,2.35616 c 0.5222,0.62626 0.96255,1.32022 1.30772,2.06868 l 2.22087,-1.61774 0.0845,0 0,1.01461 -0.0845,0 -1.98977,1.14989 c 0.0242,0.0629 0.0447,0.12813 0.0676,0.19165 l 3.43277,-1.97849 0.10147,0 0,10.25322 -0.11274,0 -3.41586,-1.97286 c -0.0237,0.0659 -0.0481,0.13202 -0.0733,0.19728 l 1.9785,1.14426 0.0958,0 0,1.00898 -0.0958,0 -2.2096,-1.60647 c -0.34256,0.74384 -0.77923,1.43451 -1.29645,2.0574 l 1.13298,2.33361 -2.33924,-1.12734 c -0.62671,0.52354 -1.32467,0.9672 -2.07432,1.31335 l 1.61211,2.21524 0,0.0902 -1.01462,0 0,-0.0902 -1.14425,-1.98413 c -0.0645,0.0249 -0.13209,0.0442 -0.19729,0.0676 l 1.97849,3.42713 0,0.10147 -10.25321,0 0,-0.11274 1.97285,-3.41586 c -0.066,-0.0239 -0.13194,-0.0479 -0.19728,-0.0733 l -1.13862,1.9785 0,0.10146 -1.01461,0 0,-0.0958 1.6121,-2.21523 c -0.74993,-0.34702 -1.44754,-0.78886 -2.07432,-1.31336 l -2.33924,1.13298 1.13298,-2.33361 c -0.51675,-0.62282 -0.95484,-1.31325 -1.29644,-2.0574 l -2.2096,1.60647 -0.0958,0 0,-1.00898 0.10146,0 1.9785,-1.14426 c -0.0251,-0.0653 -0.0496,-0.13131 -0.0733,-0.19728 l -3.41586,1.97286 -0.11274,0 0,-10.25322 0.10146,0 3.42714,1.97849 c 0.0228,-0.0635 0.0435,-0.12876 0.0676,-0.19165 l -1.98413,-1.14989 -0.0902,0 0,-1.01461 0.0845,0 2.22088,1.61774 c 0.34417,-0.74864 0.78599,-1.44251 1.30772,-2.06868 l -1.14426,-2.35616 2.35615,1.14426 c 0.62233,-0.51674 1.31335,-0.95384 2.05741,-1.29645 l -1.6121,-2.21523 0,-0.0958 1.01461,0 0,0.10146 1.14426,1.9785 c 0.063,-0.0243 0.12795,-0.0447 0.19164,-0.0676 l -1.97285,-3.4215 0,-0.11274 z m 3.33131,5.88475 c -0.83324,0.2324 -1.63053,0.62743 -2.33925,1.18935 l 2.64927,2.6549 c 0.91801,-0.53075 2.05411,-0.53609 2.97056,-0.006 l 2.64926,-2.64927 c -0.71074,-0.56419 -1.51011,-0.95737 -2.34488,-1.18935 l -0.14656,0.25366 -3.29185,0 -0.14655,-0.25366 z m -3.43277,2.28288 c -0.56193,0.70872 -0.95684,1.50668 -1.18935,2.33924 l 0.25929,0.14656 0,3.29185 -0.25929,0.15219 c 0.23242,0.83242 0.62703,1.63088 1.18935,2.33925 l 2.64926,-2.64927 c -0.53046,-0.91645 -0.52512,-2.05255 0.006,-2.97056 l -2.6549,-2.64926 z m 10.45614,0 -2.65491,2.64926 c 0.53076,0.91801 0.5361,2.05411 0.006,2.97056 l 2.64927,2.64927 c 0.56349,-0.70987 0.95713,-1.51056 1.18935,-2.34488 l -0.25366,-0.14656 0,-3.29185 0.25366,-0.14656 c -0.23252,-0.83256 -0.62743,-1.63052 -1.18935,-2.33924 z m -6.71335,6.70771 -2.64927,2.6549 c 0.70872,0.56192 1.50668,0.95684 2.33925,1.18935 l 0.14655,-0.25929 3.29185,0 0.1522,0.25929 c 0.83242,-0.23242 1.63087,-0.62703 2.33924,-1.18935 l -2.64926,-2.64926 c -0.91645,0.53046 -2.05255,0.52512 -2.97056,-0.006 z"
       id="path4648-4"
       inkscape:connector-curvature="0" />
    <path
       transform="matrix(0.26512698,0,0,0.26512698,58.720857,157.36866)"
       d="m 467.14285,489.14789 a 112.5,112.5 0 1 1 -225,0 112.5,112.5 0 1 1 225,0 z"
       sodipodi:ry="112.5"
       sodipodi:rx="112.5"
       sodipodi:cy="489.14789"
       sodipodi:cx="354.64285"
       id="path4020"
       style="fill:none;stroke:#000000;stroke-width:1.30665123;stroke-linecap:butt;stroke-miterlimit:4;stroke-opacity:1;stroke-dasharray:none;stroke-dashoffset:17.01120644"
       sodipodi:type="arc" />
    <path
       style="fill:#000000;fill-opacity:1;stroke:none;stroke-width:0.34642842000000001;stroke-linecap:butt;stroke-miterlimit:4;stroke-opacity:1;stroke-dasharray:none;stroke-dashoffset:17.01120643999999900"
       d="m 152.74364,260.91023 c -14.43973,0 -26.14232,11.70259 -26.14232,26.14232 0,14.43974 11.70259,26.14754 26.14232,26.14754 14.43973,0 26.14754,-11.7078 26.14754,-26.14754 0,-14.43973 -11.70781,-26.14232 -26.14754,-26.14232 z m -2.57462,3.59613 2.20458,0 0.3961,0 2.20459,0 8.67241,2.59547 0,12.31024 -6.90562,1.85019 0,-5.19094 0.65148,-0.65148 0,-5.08149 -4.82091,-1.29252 -4.8209,1.29252 0,5.08149 0.65147,0.65148 0,5.19094 -6.90562,-1.85019 0,-12.31024 8.67242,-2.59547 z m -15.96892,11.70567 0,5.29518 7.51019,2.62153 3.19482,0 0,5.84763 -3.19482,0 -7.51019,2.62152 0,5.30039 -4.96683,-3.28864 0,-15.11418 4.96683,-3.28343 z m 37.09229,0 4.96684,3.28343 0,15.11418 -4.96684,3.28864 0,-5.30039 -7.51018,-2.62152 -3.19483,0 0,-5.84763 3.19483,0 7.51018,-2.62153 0,-5.29518 z m -22.80157,16.3129 0,5.19094 -0.65147,0.65147 0,5.0815 4.8209,1.29252 4.82091,-1.29252 0,-5.0815 -0.65148,-0.65147 0,-5.19094 6.90562,1.85018 0,12.31025 -8.67241,2.59547 -2.20459,0 -0.3961,0 -2.20458,0 -8.67242,-2.59547 0,-12.31025 6.90562,-1.85018 z"
       id="path4022"
       inkscape:connector-curvature="0" />
    <path
       transform="matrix(0.26512698,0,0,0.26512698,-7.1004623,157.36866)"
       d="m 467.14285,489.14789 a 112.5,112.5 0 1 1 -225,0 112.5,112.5 0 1 1 225,0 z"
       sodipodi:ry="112.5"
       sodipodi:rx="112.5"
       sodipodi:cy="489.14789"
       sodipodi:cx="354.64285"
       id="path4020-1"
       style="fill:none;stroke:#000000;stroke-width:1.30665123;stroke-linecap:butt;stroke-miterlimit:4;stroke-opacity:1;stroke-dasharray:none;stroke-dashoffset:17.01120644"
       sodipodi:type="arc" />
    <path
       inkscape:connector-curvature="0"
       style="fill:#000000;fill-opacity:1;stroke:none;stroke-width:0.34642845000000000;stroke-linecap:butt;stroke-miterlimit:4;stroke-opacity:1;stroke-dasharray:none;stroke-dashoffset:17.01120643999999900"
       d="m 86.92762,260.90981 c -14.439734,0 -26.148056,11.70293 -26.148056,26.14267 0,14.43973 11.708322,26.14805 26.148056,26.14805 14.43974,0 26.14267,-11.70832 26.14267,-26.14805 0,-14.43974 -11.70293,-26.14267 -26.14267,-26.14267 z m -8.724995,4.58331 1.809629,0 0,7.92251 3.70543,0 0,-7.92251 1.809629,0 0,7.92251 14.223896,0 -11.789515,34.74918 -7.028468,0 9.823698,-25.19477 -5.229611,0 0,9.20433 -1.809629,0 0,-9.20433 -3.70543,0 0,9.20433 -1.809629,0 0,-9.20433 -2.138162,0 0.01615,-9.55441 2.122005,0 0,-7.92251 z"
       id="path4022-2" />
    <path
       transform="matrix(0.26512699,0,0,0.26512699,124.54215,93.462219)"
       d="m 467.14285,489.14789 a 112.5,112.5 0 1 1 -225,0 112.5,112.5 0 1 1 225,0 z"
       sodipodi:ry="112.5"
       sodipodi:rx="112.5"
       sodipodi:cy="489.14789"
       sodipodi:cx="354.64285"
       id="path4020-6"
       style="fill:none;stroke:#000000;stroke-width:1.30665123;stroke-linecap:butt;stroke-miterlimit:4;stroke-opacity:1;stroke-dasharray:none;stroke-dashoffset:17.01120644"
       sodipodi:type="arc" />
    <path
       style="fill:#000000;fill-opacity:1;stroke:none;stroke-width:0.34642847999999998;stroke-linecap:butt;stroke-miterlimit:4;stroke-opacity:1;stroke-dasharray:none;stroke-dashoffset:17.01120643999999900"
       d="m 218.57129,197.00656 c -14.43974,0 -26.14599,11.69876 -26.14599,26.1385 0,14.43973 11.70625,26.14598 26.14599,26.14598 14.43973,0 26.1385,-11.70625 26.1385,-26.14598 0,-14.43974 -11.69877,-26.1385 -26.1385,-26.1385 z m 10.41497,5.56313 c 1.81419,6.05596 -0.15525,8.18767 -7.03816,24.01208 l -6.35679,13.61958 -0.88352,-0.41181 -1.25788,2.68797 -5.95248,-2.77782 1.25788,-2.69546 -0.891,-0.41181 6.34931,-13.61957 c 7.43258,-14.98445 8.08485,-18.18921 14.77264,-20.40316 z m -8.23614,10.23527 -4.61223,9.88337 1.43758,0.67386 4.61223,-9.89085 -1.43758,-0.66638 z m 3.3244,1.54241 -4.60474,9.89085 1.43758,0.66638 4.60474,-9.88337 -1.43758,-0.67386 z m -14.83253,12.12958 -3.89344,6.73866 -4.61224,0 2.9725,-5.15133 5.53318,-1.58733 z m 14.25601,6.24449 1.82692,5.45831 -2.56818,5.37595 -2.6131,-3.81108 3.35436,-7.02318 z"
       id="path4022-0"
       inkscape:connector-curvature="0" />
    <path
       sodipodi:type="arc"
       style="fill:none;stroke:#000000;stroke-width:1.30665123;stroke-linecap:butt;stroke-miterlimit:4;stroke-opacity:1;stroke-dasharray:none;stroke-dashoffset:17.01120644"
       id="path4252"
       sodipodi:cx="354.64285"
       sodipodi:cy="489.14789"
       sodipodi:rx="112.5"
       sodipodi:ry="112.5"
       d="m 467.14285,489.14789 a 112.5,112.5 0 1 1 -225,0 112.5,112.5 0 1 1 225,0 z"
       transform="matrix(0.26512699,0,0,0.26512699,190.36348,93.462186)" />
    <path
       style="fill:#000000;fill-opacity:1;stroke:none;stroke-width:0.25968798999999998;stroke-linecap:butt;stroke-miterlimit:4;stroke-opacity:1;stroke-dasharray:none;stroke-dashoffset:17.01120643999999900"
       d="m 265.90287,204.66055 c -10.21043,10.21044 -10.21043,26.7661 0,36.97653 10.21044,10.21044 26.7661,10.21044 36.97653,0 10.21044,-10.21043 10.21044,-26.76609 0,-36.97653 -10.21043,-10.21043 -26.76609,-10.21043 -36.97653,0 z m 1.20647,3.91286 3.87482,3.87482 -2.1086,2.1086 c -1.16901,-1.56029 -2.44534,-3.53014 -1.76622,-5.98342 z m 2.76074,-2.76074 c 2.45328,-0.67912 4.42313,0.59722 5.98341,1.76622 l -2.10859,2.1086 -3.87482,-3.87482 z m 0.14673,8.66808 2.46184,-2.46185 0.24999,0.30434 0.85322,3.19006 -2.53793,-0.005 -1.02712,-1.02713 z m 3.29876,-3.29877 2.46184,-2.46184 1.02713,1.02713 0,2.54336 -3.18464,-0.85866 -0.30433,-0.24999 z m 0,0.78258 4.61935,1.44558 2.4401,2.44011 -2.47271,2.47271 2.04882,2.04881 -0.81518,0.81518 -4.48892,-4.48892 -1.33146,-4.73347 z m 3.06507,3.44549 c -0.34627,0.34627 -0.34083,0.90911 0.005,1.25538 0.34626,0.34626 0.90367,0.34626 1.24994,0 0.34627,-0.34627 0.3517,-0.90911 0.005,-1.25538 -0.34626,-0.34627 -0.91454,-0.34627 -1.26081,0 z m 2.27164,2.90204 1.79339,-1.7934 2.04882,2.04882 -1.7934,1.79339 -2.04881,-2.04881 z m 14.68409,-11.08644 c 1.56029,-1.16901 3.53014,-2.44534 5.98342,-1.76622 l -3.87482,3.87482 -2.1086,-2.1086 z m -12.7168,13.78196 1.62493,-1.62492 5.18997,5.18997 -1.62492,1.62493 -5.18998,-5.18998 z m 11.76576,-11.61358 1.02712,-1.02713 2.46184,2.46184 -0.30976,0.25543 -3.18464,0.84778 0.005,-2.53792 z m -3.60309,6.07036 2.4401,-2.4401 4.62478,-1.44015 -1.33689,4.72804 -4.48892,4.48892 -0.81518,-0.81518 2.04882,-2.04882 -2.47271,-2.47271 z m -2.11947,2.71727 2.04882,-2.04882 1.79883,1.79883 -2.04882,2.04882 -1.79883,-1.79883 z m -18.75456,19.0915 7.49965,-7.49965 2.35859,2.35858 -7.49965,7.49965 -2.35859,-2.35858 z m 13.81457,-13.08635 0.76084,-0.76083 1.62492,1.62492 -0.76083,0.76084 -1.62493,-1.62493 z m 2.94008,-2.94008 2.2499,-2.24989 1.62492,1.62492 -2.24989,2.2499 -1.62493,-1.62493 z m -8.38547,8.66807 0.64671,-0.6467 1.34776,1.34776 -0.64671,0.64671 -1.34776,-1.34777 z m 1.13038,-1.13038 0.64671,-0.6467 1.34776,1.34776 -0.64671,0.64671 -1.34776,-1.34777 z m 1.13038,-1.13038 0.64671,-0.64671 1.34776,1.34777 -0.64671,0.6467 -1.34776,-1.34776 z m 1.13038,-1.13038 0.64671,-0.64671 1.34776,1.34776 -0.6467,0.64671 -1.34777,-1.34776 z m 1.15756,-1.15756 0.6467,-0.6467 1.34777,1.34776 -0.64671,0.64671 -1.34776,-1.34777 z m -13.33634,13.39068 0.67389,-0.67388 1.29341,1.29342 -0.67388,0.67388 -1.29342,-1.29342 z m 23.90106,-23.85758 c -0.34627,0.34627 -0.34627,0.90368 0,1.24994 0.34627,0.34627 0.90368,0.34627 1.24994,0 0.34627,-0.34626 0.3517,-0.9091 0.005,-1.25537 -0.34627,-0.34627 -0.90911,-0.34083 -1.25538,0.005 z m 5.3204,-3.23354 2.46185,2.46184 -1.02713,1.02713 -2.53793,0.005 0.84779,-3.18463 0.25542,-0.30977 z m 1.4945,0.42933 3.87482,-3.87482 c 0.67912,2.45328 -0.59722,4.42313 -1.76623,5.98341 l -2.10859,-2.10859 z m -11.86358,14.35259 1.34777,-1.34777 0.64671,0.64671 -1.34777,1.34777 -0.64671,-0.64671 z m 1.15756,1.15755 1.34776,-1.34776 0.64671,0.64671 -1.34776,1.34776 -0.64671,-0.64671 z m 1.13038,1.13038 1.34776,-1.34776 0.64671,0.64671 -1.34776,1.34776 -0.64671,-0.64671 z m 1.13038,1.13038 1.34776,-1.34776 0.64671,0.64671 -1.34776,1.34776 -0.64671,-0.64671 z m 1.13038,1.13039 1.34777,-1.34777 0.64671,0.64671 -1.34777,1.34777 -0.64671,-0.64671 z m 0.50542,1.51623 2.35858,-2.35858 7.49965,7.49964 -2.35859,2.35859 -7.49964,-7.49965 z m 8.30939,7.24423 1.29342,-1.29342 0.67388,0.67388 -1.29342,1.29342 -0.67388,-0.67388 z"
       id="path4254"
       inkscape:connector-curvature="0" />
    <path
       sodipodi:type="arc"
       style="fill:none;stroke:#000000;stroke-width:1.30665123;stroke-linecap:butt;stroke-miterlimit:4;stroke-opacity:1;stroke-dasharray:none;stroke-dashoffset:17.01120644"
       id="path4796"
       sodipodi:cx="354.64285"
       sodipodi:cy="489.14789"
       sodipodi:rx="112.5"
       sodipodi:ry="112.5"
       d="m 467.14285,489.14789 a 112.5,112.5 0 1 1 -225,0 112.5,112.5 0 1 1 225,0 z"
       transform="matrix(0.26512698,0,0,0.26512698,-7.1004639,93.462224)" />
    <path
       style="fill:#000000;fill-opacity:1;stroke:none;stroke-width:0.34642845000000000;stroke-linecap:butt;stroke-miterlimit:4;stroke-opacity:1;stroke-dasharray:none;stroke-dashoffset:17.01120643999999900"
       d="m 86.927978,197.00465 c -14.439733,0 -26.145774,11.70604 -26.145774,26.14577 0,14.43974 11.706041,26.14578 26.145774,26.14578 14.439732,0 26.145772,-11.70604 26.145772,-26.14578 0,-14.43973 -11.70604,-26.14577 -26.145772,-26.14577 z m -2.477434,4.61569 0,2.63965 c -1.26715,0 -2.521668,0.16605 -3.745643,0.49401 -7.735125,2.07262 -12.328901,10.01982 -10.256281,17.75494 l -2.543794,0.68572 c -2.449196,-9.14052 2.973831,-18.53526 12.114356,-20.98445 1.446359,-0.38755 2.93398,-0.58987 4.431362,-0.58987 z m 0,6.84981 0,1.80646 c -0.740913,0 -1.474207,0.10317 -2.189874,0.29494 -4.522782,1.21187 -7.206381,5.85884 -5.994505,10.38162 l -1.747475,0.46452 c -1.470099,-5.48648 1.783603,-11.12352 7.270088,-12.59362 0.868159,-0.23262 1.762982,-0.35392 2.661766,-0.35392 z m 14.50331,4.5862 c 0.132472,0.006 0.234415,0.0509 0.30968,0.1401 0.802816,0.9514 -2.099994,6.42141 -6.488517,12.21021 -4.388522,5.78879 -8.598163,9.70352 -9.400976,8.75212 -0.401408,-0.4757 0.122793,-2.07537 1.297703,-4.28389 -0.742669,1.53792 -1.036488,2.64505 -0.729958,3.00831 0.722122,0.85577 4.502384,-2.68248 8.449818,-7.88945 3.947435,-5.20696 6.569164,-10.11572 5.847039,-10.97149 -0.31593,-0.3744 -1.217045,0.0879 -2.462687,1.16498 1.446366,-1.3665 2.585277,-2.15779 3.177898,-2.13089 z m 1.858076,1.38619 c 1.59471,1.83731 2.89612,7.08037 -0.0516,12.81482 -1.57165,-0.42527 -3.348177,-0.31938 -4.446112,1.00277 -1.343621,1.61801 -0.861654,4.07546 -0.125347,5.09496 -3.683745,1.95379 -7.368853,3.48349 -11.052598,1.88757 1.919801,-1.19553 5.262378,-4.67176 8.707884,-9.21664 3.549677,-4.6823 6.199983,-9.16822 6.967783,-11.58348 z m -17.386276,1.4083 c 0.808837,0 1.467289,0.65845 1.467289,1.46729 0,0.2287 -0.05398,0.44125 -0.147466,0.63411 l 8.088526,4.35762 -2.175128,2.77974 -6.31893,-6.63598 c -0.251236,0.2026 -0.566415,0.32443 -0.914291,0.32443 -0.808838,0 -1.46729,-0.65108 -1.46729,-1.45992 0,-0.80884 0.658452,-1.46729 1.46729,-1.46729 z m 16.000093,12.47565 c 1.451563,0 2.624903,1.17334 2.624903,2.6249 0,1.45156 -1.17334,2.63227 -2.624903,2.63227 -1.451562,0 -2.632274,-1.18071 -2.632274,-2.63227 0,-1.45156 1.180712,-2.6249 2.632274,-2.6249 z m 3.325363,1.24609 3.97422,7.14474 c -0.79135,1.09343 -1.45993,2.24547 -3.42859,2.75025 l -2.10877,-5.29404 c 1.05085,-0.56017 2.16135,-1.97964 1.56314,-4.60095 z m -5.271918,4.23966 -1.142864,8.83323 c -1.828372,0.85017 -3.657374,0.79803 -5.485746,0.22857 l 2.66914,-7.15949 c 1.000479,-0.15483 2.291862,-0.74679 3.95947,-1.90231 z"
       id="path4798"
       inkscape:connector-curvature="0" />
    <path
       transform="matrix(0.26512698,0,0,0.26512698,124.54215,157.36867)"
       d="m 467.14285,489.14789 a 112.5,112.5 0 1 1 -225,0 112.5,112.5 0 1 1 225,0 z"
       sodipodi:ry="112.5"
       sodipodi:rx="112.5"
       sodipodi:cy="489.14789"
       sodipodi:cx="354.64285"
       id="path4893"
       style="fill:none;stroke:#000000;stroke-width:1.30665123;stroke-linecap:butt;stroke-miterlimit:4;stroke-opacity:1;stroke-dasharray:none;stroke-dashoffset:17.01120644"
       sodipodi:type="arc" />
    <path
       style="fill:#000000;fill-opacity:1;stroke:none;stroke-width:0.34642842000000001;stroke-linecap:butt;stroke-miterlimit:4;stroke-opacity:1;stroke-dasharray:none;stroke-dashoffset:17.01120643999999900"
       d="m 218.56997,260.9071 c -14.43973,0 -26.14937,11.70964 -26.14937,26.14938 0,13.64606 10.45777,24.84754 23.79458,26.0378 0.81882,0.0681 1.59343,0.10527 2.35479,0.1057 14.43973,0 26.1435,-11.70377 26.1435,-26.1435 0,-14.43974 -11.70377,-26.14938 -26.1435,-26.14938 z m 11.64478,8.87306 c 2.86102,-0.0367 5.48823,1.4503 6.30686,5.26158 2.80382,1.50987 2.99558,1.98942 3.01249,4.28091 l -5.11478,-0.54025 c -9.27939,0.79232 -8.31455,4.05888 -1.82628,5.30856 1.71818,-1.55298 3.52194,-1.84657 4.58627,-0.49914 -0.82377,4.82429 0.34798,5.77207 -2.6308,6.95281 l 0.32298,1.4622 c 6.63318,-0.0307 6.78652,1.55849 7.358,3.58798 -6.11633,11.92183 -16.02073,15.84013 -24.55211,15.67318 l 0,-9.01399 c 0,-0.34966 -0.28455,-0.62833 -0.63421,-0.62833 l -0.26425,0 c -0.34966,0 -0.62834,0.27867 -0.62834,0.62833 l 0,8.94352 c -3.67011,-0.28398 -7.01497,-1.31301 -9.59535,-2.75411 0.81103,-9.61181 0.20146,-17.52638 16.55403,-18.27461 l 0.0646,-4.22806 c -3.16935,-0.21753 -5.06473,-6.20285 -1.95548,-7.02328 -1.19137,-4.78992 4.22801,-9.07609 8.99637,-9.1373 z m -23.3659,0.0235 c 2.7649,-0.0487 5.48957,1.51109 6.41843,4.74482 2.57463,1.55589 2.48213,2.15742 2.63079,3.10057 -0.71316,0.94773 -3.50468,0.99505 -5.59043,-0.0705 -6.29674,0.93298 -9.29164,3.91448 0,5.54345 1.03236,-1.52468 2.08221,-2.18299 3.38245,-0.46978 0.0251,2.01285 -1.02684,2.21606 -0.84562,5.07367 -8.8706,0.82113 -9.61617,11.7506 -10.61712,17.47598 -4.24164,-4.48748 -8.02831,-9.20245 -8.0803,-15.78476 l 6.60048,-1.55028 -0.0118,-4.25155 c -2.66259,-0.19242 -3.11361,-3.74668 -0.95131,-4.72134 -0.58804,-5.93665 3.27544,-9.02362 7.06438,-9.09032 z"
       id="path4895"
       inkscape:connector-curvature="0"
       sodipodi:nodetypes="ssccssscccccccccsssscccccsscccccccccccs" />
    <path
       sodipodi:type="arc"
       style="fill:none;stroke:#000000;stroke-width:1.30665123;stroke-linecap:butt;stroke-miterlimit:4;stroke-opacity:1;stroke-dasharray:none;stroke-dashoffset:17.01120644"
       id="path4979"
       sodipodi:cx="354.64285"
       sodipodi:cy="489.14789"
       sodipodi:rx="112.5"
       sodipodi:ry="112.5"
       d="m 467.14285,489.14789 a 112.5,112.5 0 1 1 -225,0 112.5,112.5 0 1 1 225,0 z"
       transform="matrix(0.26512699,0,0,0.26512699,190.36346,157.36866)" />
    <path
       style="fill:#000000;fill-opacity:1;stroke:none;stroke-width:0.34642845000000000;stroke-linecap:butt;stroke-miterlimit:4;stroke-opacity:1;stroke-dasharray:none;stroke-dashoffset:17.01120643999999900"
       d="m 284.39137,260.91074 c -14.43973,0 -26.14578,11.70605 -26.14578,26.14578 0,14.43974 11.70605,26.14579 26.14578,26.14579 14.43974,0 26.14579,-11.70605 26.14579,-26.14579 0,-14.43973 -11.70605,-26.14578 -26.14579,-26.14578 z m 12.55898,7.30428 c 1.50106,0 2.71858,1.21751 2.71858,2.71857 0,1.08712 -0.64081,2.02237 -1.56303,2.45706 l 0,12.22448 0.42573,0 5.44323,4.62219 0,6.8968 -4.69517,4.69517 -29.48471,0 c -3.01784,-1.32847 -5.13922,-3.90576 -7.2617,-8.28954 1.8208,-4.45043 5.06382,-6.507 7.36509,-7.92462 l 1.61777,0 0.98526,-7.061 c -0.65271,-0.25566 -1.11298,-0.89269 -1.11298,-1.63602 0,-0.96904 0.78253,-1.75156 1.75157,-1.75156 0.96904,0 1.75765,0.78252 1.75765,1.75156 0,0.71017 -0.421,1.32342 -1.02783,1.59953 l 0.669,6.34943 1.30151,0 c 0.56157,-0.6636 1.47838,-1.10082 2.51788,-1.10082 1.03994,0 1.96245,0.43675 2.52396,1.10082 l 2.04349,0 c 0.32875,-0.21393 0.73578,-0.34059 1.17988,-0.34059 0.44409,0 0.85112,0.12666 1.17987,0.34059 l 0.75415,0 c 0.32875,-0.21393 0.73578,-0.34059 1.17987,-0.34059 0.4441,0 0.85113,0.12666 1.17988,0.34059 l 4.62219,0 0,-2.88887 -3.4484,0 -1.71507,0 0,-1.3745 0,-4.81681 1.71507,0 0,4.81681 3.4484,0 0,-0.21286 2.6091,-2.81589 0,-4.26336 c -0.83416,-0.46405 -1.39882,-1.35573 -1.39882,-2.378 0,-1.50106 1.21752,-2.71857 2.71858,-2.71857 z m -26.22485,21.12219 0,3.30852 6.46499,0 0,-3.30852 -6.46499,0 z m 7.78474,0 0,3.30852 6.46499,0 0,-3.30852 -6.46499,0 z m 9.96204,0 0,2.2077 10.52765,0 0,-2.2077 -10.52765,0 z m 0,3.50313 0,2.20771 8.60579,0 0,-2.20771 -8.60579,0 z m -15.92831,1.24678 c -0.96904,0 -1.75157,0.78861 -1.75157,1.75765 0,0.96904 0.78253,1.75156 1.75157,1.75156 0.96904,0 1.75765,-0.78252 1.75765,-1.75156 0,-0.96904 -0.78861,-1.75765 -1.75765,-1.75765 z m 5.96627,0.31017 0,3.30852 6.46499,0 0,-3.30852 -6.46499,0 z m 9.96204,1.94619 0,2.2077 6.53797,0 0,-2.2077 -6.53797,0 z"
       id="path4981"
       inkscape:connector-curvature="0" />
    <path
       transform="matrix(0.26512698,0,0,0.265127,256.18477,157.36866)"
       d="m 467.14285,489.14789 a 112.5,112.5 0 1 1 -225,0 112.5,112.5 0 1 1 225,0 z"
       sodipodi:ry="112.5"
       sodipodi:rx="112.5"
       sodipodi:cy="489.14789"
       sodipodi:cx="354.64285"
       id="path5025"
       style="fill:none;stroke:#000000;stroke-width:1.30665123;stroke-linecap:butt;stroke-miterlimit:4;stroke-opacity:1;stroke-dasharray:none;stroke-dashoffset:17.01120644"
       sodipodi:type="arc" />
    <path
       style="fill:#000000;fill-opacity:1;stroke:none;stroke-width:0.18065009000000001;stroke-linecap:butt;stroke-miterlimit:4;stroke-opacity:1;stroke-dasharray:none;stroke-dashoffset:17.01120643999999900"
       d="m 350.20776,260.91209 c -14.43973,0 -26.14351,11.70378 -26.14351,26.14351 0,14.43974 11.70378,26.14352 26.14351,26.14352 14.43974,0 26.14909,-11.70378 26.14909,-26.14352 0,-14.43973 -11.70935,-26.14351 -26.14909,-26.14351 z m 5.65988,4.88555 c 0.23425,-0.0139 0.46883,0.0199 0.65178,0.11698 l 2.90793,1.39826 c 5.33129,2.66952 7.68769,2.14018 7.63192,3.3703 -0.59934,0.44676 -2.98334,-1.41902 -7.50194,-2.72631 l -0.94927,0.18485 -5.6762,2.75315 c 0.0471,0.56785 0.10947,0.16148 -0.0277,0.78406 l 3.72109,-0.31055 3.28674,2.17259 c 4.51848,2.71634 6.47872,3.11059 6.35622,3.91624 -0.79541,0.15835 -0.81868,-0.92333 -6.63475,-3.53743 l -1.34644,0.21603 -2.06876,-1.09222 -2.69575,0.65446 c 0.14981,0.35596 0.27441,0.0219 0.0834,0.55041 l 9.73209,6.44535 c 0.71863,-0.30082 4.97488,2.28394 5.29778,4.73514 -0.70375,1.27201 -5.40734,-1.12158 -8.44525,-2.51798 l -13.36422,-6.36736 c -1.01039,0.92044 -1.65103,1.24159 -3.25332,0.4178 -0.55116,-0.19492 -0.52947,-0.0691 -1.58209,-0.10584 l -3.61541,1.89962 c 0.65703,0.6661 1.74931,0.78815 1.9609,2.01104 -0.80468,0.0312 -1.48928,-1.25865 -2.23387,-1.88848 l -3.12519,1.44839 1.13643,1.62109 c 1.82721,5.24021 4.50072,4.99882 4.03323,6.62919 -0.95099,0.20072 -0.75762,-1.83092 -5.10281,-5.72116 l -2.85222,-3.62655 3.29788,-2.27844 -2.1893,-1.78821 -0.4011,-0.006 -1.98318,-1.48182 c 0.01,-1.39631 -0.13542,-1.90728 1.06401,-1.87177 l 1.32584,0.77433 5.87157,-0.55707 c -0.0229,-0.63001 0.21691,-0.952 0.60767,-1.05017 l 1.16382,-0.26454 -1.55424,-1.3704 c -0.63513,-0.63539 0.69811,-1.67285 1.76593,-0.89132 l 2.01104,1.60995 0.4046,-0.29987 2.0942,-0.29832 0.57068,0.0133 -1.23113,-1.11415 c -0.80989,-0.74367 0.62211,-1.70554 1.53752,-0.67406 l 1.38806,1.16576 1.75582,-0.19511 0.61638,0.34404 4.78955,-2.30847 -0.23268,-0.31535 c -0.028,-0.28695 0.4874,-0.5433 1.00273,-0.57378 z m -16.04375,8.88534 -5.94956,0.37881 1.8662,1.66008 z m 9.64296,4.52344 c 0.73665,-0.0295 1.78864,0.58056 1.7715,1.55981 l 0.12813,12.03838 -2.58483,-12.796 c -0.0837,-0.53907 0.24322,-0.78446 0.6852,-0.80219 z m -5.37577,0.67963 c 0.37497,-0.008 0.75074,0.18221 0.90804,0.6295 l 4.60143,12.28906 -6.36736,-11.53701 c -0.39138,-0.81045 0.23295,-1.36766 0.85789,-1.38155 z m -3.78253,2.16702 c 0.37152,-0.008 0.76566,0.18176 0.97488,0.66849 l 5.04152,10.08305 -6.74617,-9.5204 c -0.45074,-0.65674 0.11057,-1.21707 0.72977,-1.23114 z m 15.60923,0.89132 c 0.6115,0.0254 1.37381,0.68021 1.05844,1.41497 l -3.34245,9.13603 1.6378,-10.08305 c 0.0721,-0.29482 0.27925,-0.43703 0.52365,-0.46238 0.039,-0.004 0.0818,-0.007 0.12256,-0.006 z m 4.07778,1.82164 c 0.45123,0.0525 1.00472,0.83013 0.50694,1.48182 l -4.47331,7.18626 3.59313,-8.44525 c 0.0845,-0.17496 0.22284,-0.24032 0.37324,-0.22283 z m -8.74607,9.72095 c 10.09241,0 18.27205,3.27681 18.27205,7.31439 0,3.97114 -7.91353,7.19802 -17.77625,7.30325 l 0,-4.72399 c 8.67993,-0.078 15.63708,-2.18876 15.63708,-4.78527 0,-0.9281 -0.89038,-1.79525 -2.42884,-2.52912 1.16361,0.64679 1.8272,1.38804 1.8272,2.17259 0,2.49758 -6.68886,4.52345 -15.03544,4.60143 l 0,-0.94702 c 2.12641,-0.0453 4.27717,-0.25694 6.56234,-0.62393 l -2.0389,-2.65724 c -1.13391,0.10986 -7.79929,0.71708 -10.07748,0.0446 l -2.34528,2.64054 c 2.50561,0.41977 4.86314,0.61921 7.2364,0.60721 l 0,0.94145 c -8.4997,-0.0268 -15.36412,-2.07657 -15.36412,-4.607 0,-0.78455 0.66359,-1.5258 1.82721,-2.17259 -1.53847,0.73387 -2.42885,1.60102 -2.42885,2.52912 0,2.62926 7.13319,4.76408 15.96576,4.79084 l 0,4.72399 c -10.01514,-0.036 -18.10493,-3.29363 -18.10493,-7.30882 0,-4.03758 8.17965,-7.31439 18.27205,-7.31439 z m 10.33931,1.33698 -1.96091,0.4568 c 0.51012,0.6608 0.737,1.45676 0.0891,2.01661 l 3.3313,1.64337 c 1.90516,-2.26232 1.01165,-3.30954 -1.45953,-4.11678 z m -10.33931,0.2284 c -4.15961,0 -7.53165,0.79811 -7.53165,1.78264 0,0.98452 3.37204,1.78264 7.53165,1.78264 4.15962,0 7.53165,-0.79812 7.53165,-1.78264 0,-0.98453 -3.37203,-1.78264 -7.53165,-1.78264 z m 0,0.0891 c 3.26124,0 5.90499,0.61854 5.90499,1.38155 0,0.763 -2.64375,1.38154 -5.90499,1.38154 -3.26123,0 -5.90499,-0.61854 -5.90499,-1.38154 0,-0.76301 2.64376,-1.38155 5.90499,-1.38155 z m 11.38104,0.28411 c 1.32341,0.89933 1.61335,1.43838 0.4568,2.98035 l -2.56812,-1.15872 c 0.35027,-0.66577 0.32797,-1.01696 0.20055,-1.59323 z m -22.75093,0.13927 c -0.5702,0.6838 -2.66454,2.84046 0.58493,4.88554 l 2.49012,-2.15588 c -1.48145,-0.4184 -1.72451,-1.25229 -1.2367,-2.37313 z m 0.16712,0.21726 1.44282,0.34538 c -0.54746,1.29545 0.17983,2.10025 0.56822,2.27287 l -1.81606,1.45396 c -1.6284,-1.30453 -1.92429,-2.00115 -0.19498,-4.07221 z m 15.71508,3.15304 1.81049,2.08903 c -4.10134,0.65865 -8.24962,0.7408 -12.27235,0.0668 l 1.62665,-1.88291 c 3.60398,0.10561 5.01696,0.15631 8.83521,-0.27297 z"
       id="path5027"
       inkscape:connector-curvature="0"
       sodipodi:nodetypes="sssssscccccccccccccccccccccccccccccccccccccccccccccccccccsccccscccsscccsscccsscccccssccsscccscsccccccccscsccsscscccsssssscsssccccccccccccccccccccc" />
    <path
       sodipodi:type="arc"
       style="fill:none;stroke:#000000;stroke-width:1.30467057;stroke-linecap:butt;stroke-miterlimit:4;stroke-opacity:1;stroke-dasharray:none;stroke-dashoffset:17.01120644"
       id="path5567-48-4"
       sodipodi:cx="354.64285"
       sodipodi:cy="489.14789"
       sodipodi:rx="112.5"
       sodipodi:ry="112.5"
       d="m 467.14285,489.14789 a 112.5,112.5 0 1 1 -225,0 112.5,112.5 0 1 1 225,0 z"
       transform="matrix(0.2651293,0,0,0.2651293,-7.1012877,221.27407)" />
    <path
       style="fill:#000000;fill-opacity:1;stroke:none;stroke-width:0.34582524999999997;stroke-linecap:butt;stroke-miterlimit:4;stroke-opacity:1;stroke-dasharray:none;stroke-dashoffset:17.01120643999999900"
       d="m 86.924927,324.81715 c -14.439862,0 -26.146845,11.70698 -26.146845,26.14685 0,14.43986 11.706983,26.14077 26.146845,26.14077 14.439863,0 26.146843,-11.70091 26.146843,-26.14077 0,-14.43987 -11.70698,-26.14685 -26.146843,-26.14685 z m 8.131068,9.2051 c 0.843447,-0.01 1.490259,0.62929 1.57767,1.69903 0.679612,9.4822 2.471208,26.43037 2.014563,28.47087 -2.130316,9.51924 -14.950967,4.98872 -19.587379,2.79126 -4.169339,-1.97608 -15.108949,-9.848 -8.932039,-17.08737 1.886634,-2.21115 15.79288,-10.29127 23.689321,-15.4369 0.430886,-0.29258 0.85448,-0.43235 1.237864,-0.43689 z m -16.893204,13.11286 c -0.32546,0.0194 -0.645608,0.14802 -0.904126,0.38835 l -1.63835,1.52306 c -0.590899,0.54933 -0.622139,1.46614 -0.07282,2.05704 l 0.200243,0.21238 c 0.549324,0.5909 1.466139,0.62214 2.057038,0.0728 l 1.63835,-1.51699 c 0.590899,-0.54932 0.62214,-1.4722 0.07282,-2.0631 l -0.200243,-0.21238 c -0.308996,-0.33238 -0.734464,-0.48605 -1.152913,-0.46117 z m 6.680826,5.55826 c -0.567595,-0.005 -1.106859,0.32448 -1.347088,0.87985 l -0.885922,2.05097 c -0.320305,0.74049 0.018,1.5911 0.758495,1.91141 l 0.26699,0.11529 c 0.74049,0.32031 1.591103,-0.018 1.911408,-0.75849 l 0.885922,-2.04491 c 0.320305,-0.74049 -0.018,-1.59717 -0.758495,-1.91747 l -0.26699,-0.11529 c -0.185122,-0.0801 -0.375122,-0.1196 -0.56432,-0.12136 z m 8.009708,2.3665 c -0.73927,0.03 -1.344174,0.61028 -1.389563,1.36529 l -0.139563,2.22694 c -0.04841,0.80535 0.566018,1.49285 1.371359,1.54127 l 0.291263,0.0182 c 0.805341,0.0484 1.48678,-0.55995 1.535194,-1.36529 l 0.139563,-2.22693 c 0.04841,-0.80534 -0.566018,-1.49285 -1.371359,-1.54127 l -0.291263,-0.0182 c -0.05033,-0.003 -0.09635,-0.002 -0.145631,0 z"
       id="path4648-8-2"
       inkscape:connector-curvature="0" />
    <path
       sodipodi:type="arc"
       style="fill:none;stroke:#000000;stroke-width:1.30467057;stroke-linecap:butt;stroke-miterlimit:4;stroke-opacity:1;stroke-dasharray:none;stroke-dashoffset:17.01120644"
       id="path4149"
       sodipodi:cx="354.64285"
       sodipodi:cy="489.14789"
       sodipodi:rx="112.5"
       sodipodi:ry="112.5"
       d="m 467.14285,489.14789 a 112.5,112.5 0 1 1 -225,0 112.5,112.5 0 1 1 225,0 z"
       transform="matrix(0.2651293,0,0,0.2651293,550.09885,-55.204732)" />
    <path
       transform="matrix(0.23240606,0,0,0.23240606,561.70391,-39.198222)"
       d="m 467.14285,489.14789 a 112.5,112.5 0 1 1 -225,0 112.5,112.5 0 1 1 225,0 z"
       sodipodi:ry="112.5"
       sodipodi:rx="112.5"
       sodipodi:cy="489.14789"
       sodipodi:cx="354.64285"
       id="path4151"
       style="fill:none;stroke:#000000;stroke-width:1.4883709;stroke-linecap:butt;stroke-miterlimit:4;stroke-opacity:1;stroke-dasharray:none;stroke-dashoffset:17.01120644"
       sodipodi:type="arc" />
    <path
       transform="matrix(0.2651252,0.0014591,-0.0014591,0.2651252,59.435204,220.75861)"
       d="m 467.14285,489.14789 a 112.5,112.5 0 1 1 -225,0 112.5,112.5 0 1 1 225,0 z"
       sodipodi:ry="112.5"
       sodipodi:rx="112.5"
       sodipodi:cy="489.14789"
       sodipodi:cx="354.64285"
       id="path4102"
       style="fill:none;stroke:#000000;stroke-width:1.30467057;stroke-linecap:butt;stroke-miterlimit:4;stroke-opacity:1;stroke-dasharray:none;stroke-dashoffset:17.01120644"
       sodipodi:type="arc" />
    <path
       style="fill:#000000;fill-opacity:1;stroke:none;stroke-width:0.34590631999999999;stroke-linecap:butt;stroke-miterlimit:4;stroke-opacity:1;stroke-dasharray:none;stroke-dashoffset:17.01120643999999900"
       d="m 146.43867,325.57791 c -11.33832,2.80865 -19.77261,13.02527 -19.83984,25.24045 -0.0795,14.43963 11.56597,26.20751 26.00561,26.28698 14.43963,0.0795 26.20876,-11.56064 26.28823,-26.00028 0.0795,-14.43964 -11.56064,-26.20876 -26.00028,-26.28823 -2.03058,-0.0112 -4.01087,0.20617 -5.91078,0.63375 -0.18143,0.0408 -0.36297,0.0827 -0.54294,0.12733 z m -2.37542,17.16854 2.16757,1.41223 0.58835,-0.14922 0.004,0.016 1.87368,-0.43944 -0.16728,-0.71328 3.23637,-0.75903 1.61793,6.89858 -2.82118,0.66165 0.001,0.005 -2.24098,0.52557 0.63052,2.59262 -1.82237,0.46671 -0.6087,-2.45172 -3.49874,-0.0723 0.3451,1.16014 -5.62186,1.55437 0.0463,0.006 c 0.51872,2.82815 0.97002,5.71104 3.51565,6.99261 l -0.006,0.0238 1.35525,0.008 0.0132,-2.62565 18.98406,0.10765 -0.04,6.8213 10.62719,0.0571 c -3.97995,5.57883 -10.29118,9.36867 -17.50398,9.96249 l -4.26734,-0.0212 c -7.19564,-0.67899 -13.45612,-4.54099 -17.37047,-10.15643 l 9.53054,0.0504 0.0122,-1.74376 -1.74908,-0.011 0.002,-0.85403 c -2.97327,-1.02393 -4.19095,-5.18122 -4.75754,-8.76795 l -1.10662,-0.50421 0.71344,-1.26801 -2.13448,-0.40916 -2.04834,-1.7659 -0.48768,-1.83991 4.49154,-0.89055 0.98559,-1.83164 2.39646,1.35855 1.56278,-0.40022 -1.15906,-0.72777 0.77076,-1.28707 2.29433,1.44989 1.93007,-0.48636 -1.03138,-0.66225 z m 8.42248,-0.62755 3.57704,-0.83893 0.14107,0.6015 -3.57704,0.83893 z m 0.23969,1.02201 3.57704,-0.83893 0.14107,0.6015 -3.57704,0.83893 z m 4.10526,-0.9572 7.71831,-1.81019 0.37952,1.61819 -7.71831,1.81018 z m 8.60593,-1.92851 6.89858,-1.61793 0.33956,1.44785 -6.89857,1.61793 z m -18.2872,5.11444 0.84681,3.49095 1.83643,-0.4307 -0.8202,-3.4972 z m 5.8157,-1.20673 3.57704,-0.83892 0.14107,0.60149 -3.57704,0.83893 z m 0.32611,1.00736 3.40671,-0.79897 0.779,3.32153 -3.4067,0.79898 z m 4.09875,-0.60187 7.71831,-1.81018 0.37951,1.61818 -7.71831,1.81018 z m 8.60593,-1.92851 6.89857,-1.61793 0.33957,1.44785 -6.89858,1.61793 z m -16.64428,9.48567 4.37472,0.0241 -0.0206,3.40799 5.85989,0.0352 -0.01,1.65892 -14.08559,-0.0772 0.015,-1.66016 3.84566,0.0191 z m 2.88884,7.50465 -1.89228,1.89266 -0.10062,5.7966 -5.62916,-0.0332 -0.002,0.80363 6.4328,0.0356 0.002,-0.80363 0.0327,-5.41565 1.15321,-1.14091 1.1578,1.17733 -0.0349,6.19675 0.80363,0.002 5.62916,0.0332 0.008,-0.80488 -5.63449,-0.0319 0.0332,-5.62916 -1.95108,-2.0695 z"
       id="path4104"
       inkscape:connector-curvature="0"
       sodipodi:nodetypes="ssssssscccccccccccccccccccccccccccccccccccccccccccccccccccccccccccccccccccccccccccccccccccccccccccccccccccccccccccccccccccccccc" />
    <path
       sodipodi:type="arc"
       style="fill:none;stroke:#000000;stroke-width:1.30150485;stroke-linecap:butt;stroke-miterlimit:4;stroke-opacity:1;stroke-dasharray:none;stroke-dashoffset:17.01120644"
       id="path5567-1"
       sodipodi:cx="354.64285"
       sodipodi:cy="489.14789"
       sodipodi:rx="112.5"
       sodipodi:ry="112.5"
       d="m 467.14285,489.14789 a 112.5,112.5 0 1 1 -225,0 112.5,112.5 0 1 1 225,0 z"
       transform="matrix(0.2658461,0,0,0.2658461,124.28712,29.203928)" />
    <path
       style="fill:#000000;fill-opacity:1;stroke:none;stroke-width:0.34599998999999998;stroke-linecap:butt;stroke-miterlimit:4;stroke-opacity:1;stroke-dasharray:none;stroke-dashoffset:17.01120643999999900"
       d="m 218.5625,133.03125 c -14.4794,0 -26.21875,11.73935 -26.21875,26.21875 0,14.4794 11.73935,26.21875 26.21875,26.21875 14.4794,0 26.21875,-11.73935 26.21875,-26.21875 0,-14.4794 -11.73935,-26.21875 -26.21875,-26.21875 z m 12.875,7.3125 c 5.70266,-0.34342 6.35849,4.20449 3.96875,11.8125 l 0.28125,2.59375 -1.53125,0.21875 0.21875,3.6875 c 0.0643,1.05675 -1.5845,1.2772 -2.21875,0.96875 -0.28439,2.46826 -2.53898,7.74228 -8.75,8.90625 -0.0658,2.83543 -0.67785,3.53355 -1.3125,4.09375 l -1.15625,-0.15625 -1.71875,1.0625 c 0.34923,0.24397 -0.6001,0.87879 -2.3125,1.34375 0.005,-0.0871 0.0285,-0.1614 0.0312,-0.25 l -2.125,0.28125 c -0.10674,0.8002 -0.3589,1.50802 -0.78125,2.09375 l -3.125,0.1875 -2.03125,0.15625 -2.5,0.375 c -0.0919,-0.0164 -0.19219,-0.0132 -0.28125,-0.0312 0.28686,-4.03362 -2.17019,-5.96593 -4.8125,-5.875 -0.37747,0.013 -0.75628,0.0583 -1.125,0.15625 -0.006,-0.0172 -0.0257,-0.0451 -0.0312,-0.0625 l -0.21875,-3.46875 0.65625,-0.375 c 0.47252,-0.0595 0.98718,-0.0224 1.5625,0.125 l 0.125,-1.15625 c -0.33773,-0.0669 -0.65204,-0.12506 -0.96875,-0.125 -0.0725,0 -0.14753,-0.004 -0.21875,0 -0.16734,0.009 -0.34138,0.0334 -0.5,0.0625 l 0.0625,-2.4375 c 0.003,-0.002 -0.003,-0.0292 0,-0.0312 0.72228,-0.45467 1.43401,-0.86221 2.15625,-1.03125 l 0.375,-3.3125 c 0.32731,-1.08618 1.30282,-1.5337 2.1875,-2.0625 L 205.5625,156.25 c 1.23227,-1.3047 2.27643,-0.86734 3.375,-0.96875 1.62486,-5.68046 5.20911,-7.18797 9.125,-8 -0.32909,-0.72487 -0.22825,-1.86889 0.4375,-2.59375 l 2.5,-0.65625 0.59375,-1.375 2.40625,-0.25 c 3.09509,-1.27027 5.53661,-1.94803 7.4375,-2.0625 z m 0.375,1.28125 c -0.19984,-0.003 -0.40835,0.008 -0.625,0.0312 -0.49521,0.0533 -1.01002,0.19899 -1.59375,0.40625 2.63928,0.63114 4.31341,2.70319 5.5625,5.1875 0.7603,-2.65663 -0.34618,-5.57795 -3.34375,-5.625 z M 223.125,143 c -0.35209,-0.005 -0.70756,0.0142 -1.0625,0.0312 L 221.6875,144 c 6.25395,-0.2984 10.57036,2.898 12.28125,10.28125 l 1.0625,-0.0937 C 233.27485,145.75159 228.4063,143.07473 223.125,143 z m -2.34375,5.25 c -0.29288,0.003 -0.59508,0.0237 -0.875,0.0625 l 2,3.9375 c 0.11501,-0.0155 0.24986,-0.0312 0.375,-0.0312 0.5043,0 1.01581,0.14872 1.5,0.375 l 0.96875,-3.4063 c -1.32422,-0.62191 -2.69961,-0.95112 -3.96875,-0.9375 z m -2.15625,0.375 c -1.16909,0.4553 -2.0143,1.28453 -2.4375,2.375 l 4.28125,2.28125 c 0.16435,-0.41499 0.481,-0.73014 0.9375,-0.90625 l -2.78125,-3.75 z m 7.4375,1.28125 -1.78125,2.96875 c 0.62528,0.40341 1.17014,0.96024 1.46875,1.59375 l 4.0625,-0.40625 c -0.74815,-1.59423 -2.09838,-3.08364 -3.75,-4.15625 z m -13.375,1.125 c -1.02128,1.01194 -2.53937,1.2901 -2.28125,4.1875 0.72487,0.21745 0.61276,0.50968 2.15625,0.65625 -0.85212,-2.06597 -0.18296,-3.24691 0.125,-4.84375 z m 3.21875,1.375 c -0.0509,0.99143 0.173,2.07094 0.6875,3.125 l 4.03125,-0.5 c -0.0498,-0.1015 -0.0874,-0.20762 -0.125,-0.3125 -0.11423,-0.31802 -0.17133,-0.59508 -0.15625,-0.875 l -4.4375,-1.4375 z M 225.9375,155 c 0.1345,0.54311 0.0774,1.02269 -0.15625,1.40625 l 4.09375,2.65625 c 0.61207,-1.01801 0.74069,-2.29388 0.40625,-3.65625 L 225.9375,155 z m -5.03125,0.5 -3.59375,1.25 c 0.71033,1.00999 1.67304,1.91855 2.75,2.65625 l 1.90625,-2.875 c -0.41243,-0.28063 -0.78344,-0.63789 -1.0625,-1.03125 z m -12.375,0.9375 c -0.77207,-0.001 -1.55156,0.12674 -2.3125,0.40625 l -0.125,1.03125 c 5.62811,-2.43333 17.21859,9.38249 13.3125,14.625 l 1.5625,-0.9375 c 2.48806,-3.07478 -4.97415,-15.11438 -12.4375,-15.125 z M 225.5,156.75 c -0.33512,0.31464 -0.83385,0.5 -1.4375,0.5 l 1.4375,3.96875 c 1.49965,0 2.79278,-0.46479 3.6875,-1.3125 L 225.5,156.75 z m -3.0625,0.0625 -1.1875,3.3125 c 1.02536,0.52968 2.07599,0.88307 3.125,1.03125 l -0.75,-3.9375 c -0.41242,-0.0581 -0.80055,-0.20778 -1.1875,-0.40625 z m -17.875,4.40625 c -0.28275,0 -0.5807,0.0299 -0.84375,0.0625 l -0.1875,2.0625 c 0.13336,-0.008 0.26756,0 0.40625,0 2.30801,0 4.82913,1.17907 6.875,3 l 1.5625,-1.46875 c -2.32157,-2.22655 -5.19035,-3.65625 -7.8125,-3.65625 z m 22.21875,3.21875 c -1.11443,1.15499 -2.66702,1.16424 -4.03125,0.375 l -0.0625,1.96875 c 3.61424,-0.42046 3.75318,-1.00648 4.09375,-2.34375 z m -13.4375,1.46875 -1.53125,1.40625 c 1.02005,1.10801 1.85814,2.36132 2.40625,3.71875 0.50752,1.25689 0.72923,2.45149 0.65625,3.5 l 2.0625,-0.28125 c -0.0135,-1.11911 -0.23429,-2.33486 -0.71875,-3.625 -0.64693,-1.7228 -1.65448,-3.33051 -2.875,-4.71875 z m -10.1875,1.375 -0.125,1.21875 c 0.25748,0.10822 0.51353,0.22713 0.78125,0.375 1.50273,0.82994 2.85471,2.11263 3.8125,3.53125 l 1.03125,-0.65625 c -0.0713,-0.10273 -0.11251,-0.21067 -0.1875,-0.3125 -1.50447,-2.04276 -3.48718,-3.51583 -5.3125,-4.15625 z m -1.5,5.5 c 0.8657,-0.037 1.75796,0.4253 2.28125,0.9375 0.74837,0.74418 1.17404,1.76262 1.09375,2.6875 -1.57219,-0.77931 -2.833,-1.79887 -3.375,-3.625 z m 7.6875,0.0312 -1.0625,0.71875 c 0.51594,1.01583 0.817,2.03832 0.8125,2.96875 l 1.46875,-0.0937 c -0.11157,-1.11779 -0.54168,-2.37346 -1.21875,-3.59375 z"
       id="path3767-7"
       inkscape:connector-curvature="0" />
    <path
       transform="matrix(0.26512699,0,0,0.26512699,124.54215,29.555678)"
       d="m 467.14285,489.14789 a 112.5,112.5 0 1 1 -225,0 112.5,112.5 0 1 1 225,0 z"
       sodipodi:ry="112.5"
       sodipodi:rx="112.5"
       sodipodi:cy="489.14789"
       sodipodi:cx="354.64285"
       id="path4603"
       style="fill:none;stroke:#000000;stroke-width:1.305035;stroke-linecap:butt;stroke-miterlimit:4;stroke-opacity:1;stroke-dasharray:none;stroke-dashoffset:17.01120644"
       sodipodi:type="arc" />
    <path
       style="fill:#000000;fill-opacity:1;stroke:none;stroke-width:0.20000000000000001;stroke-linecap:butt;stroke-linejoin:miter;stroke-miterlimit:4;stroke-opacity:1;stroke-dasharray:none"
       d="m 152.75,133.03125 c -14.47333,0 -26.21875,11.74541 -26.21875,26.21875 0,2.64733 0.39463,5.18487 1.125,7.59375 l 3.65625,0 0,7.5 c 0.53595,0.75838 1.13847,1.4915 1.75,2.1875 l 0,-12.0625 c 0.83535,-4.42851 1.85564,-8.92997 9.78125,-15.34375 l 0,-6.40625 -3.90625,0 4.9375,-4.9375 2.65625,0 0,4.84375 -2.0625,0 0,5.875 c 9.58985,-5.21079 26.32064,-2.58417 28.46875,15.09375 l 0,12.34375 c 0.63183,-0.76362 1.23797,-1.5734 1.78125,-2.40625 l 0,-7.09375 3.21875,0.0625 c 0.65992,-2.30002 1.03125,-4.73777 1.03125,-7.25 0,-14.47334 -11.74541,-26.21875 -26.21875,-26.21875 z m 1.34375,14.71875 c -2.63988,0.023 -5.42804,0.59919 -7,1.28125 2.22089,1.21818 6.74577,0.75759 11.1875,0.5625 l 1.875,0 -0.0625,-1.1875 -1.71875,0 c -1.18169,-0.47268 -2.69732,-0.67005 -4.28125,-0.65625 z m -6.25,5.1875 0,11.84375 15.21875,0 0,-11.84375 -15.21875,0 z m 6.25,3.46875 c 1.4706,0 2.65625,1.2169 2.65625,2.6875 0,1.4706 -1.18565,2.65625 -2.65625,2.65625 -1.4706,0 -2.65625,-1.18565 -2.65625,-2.65625 0,-1.4706 1.18565,-2.6875 2.65625,-2.6875 z M 134.25,167.0625 l 0,4.03125 37.28125,0 0,-4.03125 -37.28125,0 z m 7.125,7.1875 0.0312,5.1875 9.09375,0 0,-5.1875 -9.125,0 z"
       id="path3774"
       inkscape:connector-curvature="0" />
    <path
       sodipodi:type="arc"
       style="fill:none;stroke:#000000;stroke-width:1.30665123;stroke-linecap:butt;stroke-miterlimit:4;stroke-opacity:1;stroke-dasharray:none;stroke-dashoffset:17.01120644"
       id="path4601"
       sodipodi:cx="354.64285"
       sodipodi:cy="489.14789"
       sodipodi:rx="112.5"
       sodipodi:ry="112.5"
       d="m 467.14285,489.14789 a 112.5,112.5 0 1 1 -225,0 112.5,112.5 0 1 1 225,0 z"
       transform="matrix(0.26512699,0,0,0.26512699,58.720854,29.555678)" />
    <path
       transform="matrix(0.23370002,0,0,0.23370002,69.866203,44.928113)"
       d="m 467.14285,489.14789 a 112.5,112.5 0 1 1 -225,0 112.5,112.5 0 1 1 225,0 z"
       sodipodi:ry="112.5"
       sodipodi:rx="112.5"
       sodipodi:cy="489.14789"
       sodipodi:cx="354.64285"
       id="path4605"
       style="fill:none;stroke:#000000;stroke-width:1.48236406;stroke-linecap:butt;stroke-miterlimit:4;stroke-opacity:1;stroke-dasharray:none;stroke-dashoffset:17.01120644"
       sodipodi:type="arc" />
    <path
       transform="matrix(0.26512699,0,0,0.26512699,58.720854,93.462215)"
       d="m 467.14285,489.14789 a 112.5,112.5 0 1 1 -225,0 112.5,112.5 0 1 1 225,0 z"
       sodipodi:ry="112.5"
       sodipodi:rx="112.5"
       sodipodi:cy="489.14789"
       sodipodi:cx="354.64285"
       id="path4413"
       style="fill:none;stroke:#000000;stroke-width:1.30665123;stroke-linecap:butt;stroke-miterlimit:4;stroke-opacity:1;stroke-dasharray:none;stroke-dashoffset:17.01120644"
       sodipodi:type="arc" />
    <path
       style="fill:#000000;fill-opacity:1;stroke:none;stroke-width:0.34642845000000000;stroke-linecap:butt;stroke-miterlimit:4;stroke-opacity:1;stroke-dasharray:none;stroke-dashoffset:17.01120643999999900"
       d="m 152.74914,197.00527 c -14.43974,0 -26.14505,11.70531 -26.14505,26.14504 0,5.06918 1.44142,9.79863 3.93852,13.80576 l 1.42457,-0.99859 1.71088,0.014 0,-3.6103 c -0.73447,-0.20399 -1.20111,-0.34218 -1.20111,-0.34218 l 5.63543,-20.57246 c 0.56422,-0.14198 1.1458,-0.27869 1.73881,-0.41201 l 0,-8.37284 1.37569,0 0,8.07256 c 3.08827,-0.6211 6.60871,-1.07215 10.8379,-1.13128 0.32515,-0.005 0.65792,-2.2e-4 0.99162,0 0.0576,4e-5 0.10972,-1.8e-4 0.16759,0 6.20279,-0.004 10.91413,0.82948 14.94402,1.84357 l 5.63543,20.57246 c 0,0 -0.80589,0.23542 -1.96926,0.55167 l 0,3.3659 1.59217,-0.007 1.50837,1.06145 c 2.50972,-4.01412 3.95946,-8.75762 3.95946,-13.84067 0,-14.43974 -11.70531,-26.14505 -26.14504,-26.14505 z m 0.11173,13.61721 c -2.54609,-0.0205 -13.01539,0.89096 -13.10046,2.36032 4.62261,0.60054 6.0323,0.66403 13.40772,0.50977 0.0317,6.7e-4 0.0593,-6.7e-4 0.0908,0 7.37542,0.15426 8.92941,0.16293 13.40771,-0.50977 -0.09,-1.55553 -11.80378,-2.47827 -13.44961,-2.33937 -0.0917,-0.008 -0.20422,-0.0197 -0.35614,-0.0209 z m -9.21082,5.6075 c -1.592,0 -2.88406,1.29206 -2.88406,2.88405 0,1.592 1.29206,2.88406 2.88406,2.88406 1.59199,0 2.88405,-1.29206 2.88405,-2.88406 0,-1.59199 -1.29206,-2.88405 -2.88405,-2.88405 z m 9.3854,0 c -1.592,0 -2.88406,1.29206 -2.88406,2.88405 0,1.592 1.29206,2.88406 2.88406,2.88406 1.59199,0 2.88405,-1.29206 2.88405,-2.88406 0,-1.59199 -1.29206,-2.88405 -2.88405,-2.88405 z m 9.3854,0 c -1.59199,0 -2.88406,1.29206 -2.88406,2.88405 0,1.592 1.29207,2.88406 2.88406,2.88406 1.59199,0 2.88405,-1.29206 2.88405,-2.88406 0,-1.59199 -1.29206,-2.88405 -2.88405,-2.88405 z m -18.8127,7.04603 c -0.59171,0.0601 -1.05446,0.56561 -1.05446,1.17318 0,0.64807 0.5251,1.17317 1.17317,1.17317 0.64807,0 1.17318,-0.5251 1.17318,-1.17317 0,-0.64807 -0.52511,-1.17318 -1.17318,-1.17318 -0.0405,0 -0.0793,-0.004 -0.11871,0 z m 9.3854,0 c -0.59171,0.0601 -1.05446,0.56561 -1.05446,1.17318 0,0.64807 0.5251,1.17317 1.17317,1.17317 0.64807,0 1.17318,-0.5251 1.17318,-1.17317 0,-0.64807 -0.52511,-1.17318 -1.17318,-1.17318 -0.0405,0 -0.0793,-0.004 -0.11871,0 z m 4.46924,2.68154 c -0.59171,0.0601 -1.05446,0.56562 -1.05446,1.17318 0,0.64807 0.5251,1.17318 1.17317,1.17318 0.64807,0 1.17318,-0.52511 1.17318,-1.17318 0,-0.64807 -0.52511,-1.17318 -1.17318,-1.17318 -0.0405,0 -0.0793,-0.004 -0.11871,0 z m 0,3.12847 c -0.59171,0.0601 -1.05446,0.56561 -1.05446,1.17318 0,0.64807 0.5251,1.17317 1.17317,1.17317 0.64807,0 1.17318,-0.5251 1.17318,-1.17317 0,-0.64807 -0.52511,-1.17318 -1.17318,-1.17318 -0.0405,0 -0.0793,-0.004 -0.11871,0 z m -20.93559,4.0293 0,2.87009 0.81703,0.007 1.13826,1.09636 c 2.4639,0.96239 9.48786,0.61416 14.23871,0.61452 4.76785,4.5e-4 13.37879,-0.2295 14.2876,-0.61452 l 1.5782,-1.13826 0.39804,0 0,-2.64663 c -1.90607,0.47181 -4.00036,0.94297 -5.57258,1.14525 -3.15634,0.4061 -9.69756,0.40547 -10.18847,0.40502 0,0 -0.14871,-1e-5 -0.16759,0 -0.49091,4.5e-4 -7.03213,0.001 -10.18847,-0.40502 -1.78517,-0.22968 -4.25391,-0.80235 -6.34073,-1.33379 z m 3.32399,6.78766 c 0.13178,1.61896 0.61906,3.62427 2.13686,3.62427 l 4.67873,0 0.88687,-0.50977 3.00975,0 0.63547,0.87988 3.33098,-0.0279 0,-1.00558 0.46787,1.00558 1.32681,-0.007 0,-0.84496 0.71927,0 0,0.85195 1.83657,0 0.18855,-1.00558 0.61452,0 0.21648,1.00558 1.34077,0 2.5349,-1.46647 1.48043,0 0,-2.14384 -14.22475,0 -0.97764,0.56564 -3.21227,0 0,-0.92178 -6.99017,0 z"
       id="path4415"
       inkscape:connector-curvature="0" />
    <path
       sodipodi:type="arc"
       style="fill:none;stroke:#000000;stroke-width:1.48236406;stroke-linecap:butt;stroke-miterlimit:4;stroke-opacity:1;stroke-dasharray:none;stroke-dashoffset:17.01120644"
       id="path4608"
       sodipodi:cx="354.64285"
       sodipodi:cy="489.14789"
       sodipodi:rx="112.5"
       sodipodi:ry="112.5"
       d="m 467.14285,489.14789 a 112.5,112.5 0 1 1 -225,0 112.5,112.5 0 1 1 225,0 z"
       transform="matrix(0.23370002,0,0,0.23370002,69.866203,108.83465)" />
  </g>
</svg>
