<?xml version="1.0" encoding="UTF-8" standalone="no"?>
<!-- Created with Inkscape (http://www.inkscape.org/) -->

<svg
   xmlns:dc="http://purl.org/dc/elements/1.1/"
   xmlns:cc="http://creativecommons.org/ns#"
   xmlns:rdf="http://www.w3.org/1999/02/22-rdf-syntax-ns#"
   xmlns:svg="http://www.w3.org/2000/svg"
   xmlns="http://www.w3.org/2000/svg"
   xmlns:sodipodi="http://sodipodi.sourceforge.net/DTD/sodipodi-0.dtd"
   xmlns:inkscape="http://www.inkscape.org/namespaces/inkscape"
   width="69.394325mm"
   height="210.27393mm"
   viewBox="0 0 69.394325 210.27393"
   version="1.1"
   id="svg8"
   inkscape:version="0.92.1 r15371"
   sodipodi:docname="epic-maneuvers.svg">
  <defs
     id="defs2" />
  <sodipodi:namedview
     id="base"
     pagecolor="#ffffff"
     bordercolor="#666666"
     borderopacity="1.0"
     inkscape:pageopacity="0.0"
     inkscape:pageshadow="2"
     inkscape:zoom="1.4142136"
     inkscape:cx="324.87015"
     inkscape:cy="786.35856"
     inkscape:document-units="mm"
     inkscape:current-layer="layer1"
     showgrid="false"
     inkscape:window-width="1920"
     inkscape:window-height="1016"
     inkscape:window-x="0"
     inkscape:window-y="27"
     inkscape:window-maximized="1"
     fit-margin-top="5"
     fit-margin-left="5"
     fit-margin-right="5"
     fit-margin-bottom="5" />
  <metadata
     id="metadata5">
    <rdf:RDF>
      <cc:Work
         rdf:about="">
        <dc:format>image/svg+xml</dc:format>
        <dc:type
           rdf:resource="http://purl.org/dc/dcmitype/StillImage" />
        <dc:title />
      </cc:Work>
    </rdf:RDF>
  </metadata>
  <g
     inkscape:label="Layer 1"
     inkscape:groupmode="layer"
     id="layer1"
     transform="translate(5.0002134,-91.72573)">
    <path
       inkscape:connector-curvature="0"
       id="path840"
       d="M 39.622673,238.86771 H 59.394111"
       style="fill:none;stroke:#00ff00;stroke-width:0.22208145px;stroke-linecap:butt;stroke-linejoin:miter;stroke-opacity:1" />
    <path
       style="fill:none;fill-opacity:1;stroke:#ff0000;stroke-width:1.00157475;stroke-miterlimit:4;stroke-dasharray:none;stroke-opacity:1"
       d="M 38.296875 19.433594 C 27.827589 19.433594 19.398437 27.860768 19.398438 38.330078 L 19.394531 102.04492 L 94.984375 102.04492 L 94.984375 253.19336 L 168.71875 253.19336 L 168.71875 708.58203 L 185.98242 736.51562 L 168.71875 747.18555 L 168.71875 756.44531 L 223.49023 756.44531 C 233.95953 756.44531 242.38672 748.01816 242.38672 737.54883 L 242.38672 37.791016 C 242.38672 27.321717 233.96343 19.433594 223.49414 19.433594 L 38.296875 19.433594 z "
       transform="matrix(0.26458333,0,0,0.26458333,-5.0002134,91.72573)"
       id="rect10" />
    <path
       style="fill:none;stroke:#00ff00;stroke-width:0.24935594px;stroke-linecap:butt;stroke-linejoin:miter;stroke-opacity:1"
       d="M 20.127845,96.74666 V 118.869 h 39.120294"
       id="path834"
       inkscape:connector-curvature="0" />
    <path
       style="fill:none;stroke:#00ff00;stroke-width:0.25391531px;stroke-linecap:butt;stroke-linejoin:miter;stroke-opacity:1"
       d="m 59.246436,158.86116 h -19.606 V 96.72573"
       id="path836"
       inkscape:connector-curvature="0" />
    <path
       style="fill:none;stroke:#00ff00;stroke-width:0.22208145px;stroke-linecap:butt;stroke-linejoin:miter;stroke-opacity:1"
       d="M 39.622674,198.86771 H 59.394111"
       id="path838"
       inkscape:connector-curvature="0" />
    <path
       style="fill:none;stroke:#00ff00;stroke-width:0.22168307px;stroke-linecap:butt;stroke-linejoin:miter;stroke-opacity:1"
       d="M 39.658109,278.86771 H 59.358676"
       id="path842"
       inkscape:connector-curvature="0" />
    <g
       id="g4897"
       transform="translate(0.16449356,-2.4092521)">
      <g
         transform="matrix(0.2642552,0,0,0.26491187,-169.22839,202.19979)"
         id="text7398">
        <path
           d="m 820.6,192.2 h 5 V 178 l -5.1,1.1 v -3.9 l 5.1,-1.1 h 5.4 v 18.1 h 5 v 3.9 h -15.4 z"
           id="path4673"
           inkscape:connector-curvature="0" />
      </g>
      <ellipse
         style="fill:none;stroke:#00fa00;stroke-width:0.26458332;stroke-opacity:1"
         ry="4.4714584"
         rx="4.4449997"
         cy="251.28"
         cx="49.343899"
         class="st1"
         id="path7402" />
    </g>
    <g
       id="g4882"
       transform="translate(0.16449738,2.2418871)">
      <g
         id="g4799"
         transform="matrix(0.26458333,0,0,0.26458333,-178.75339,217.54562)">
        <path
           d="m 859.5,179.8 v 15.5 h 5.1 v -15.5 z"
           inkscape:connector-curvature="0"
           id="path7420" />
        <path
           d="m 862.1,173.9 5.1,8.8 H 857 Z"
           class="st2"
           inkscape:connector-curvature="0"
           id="path4805" />
      </g>
      <ellipse
         style="fill:none;stroke:#00ff00;stroke-width:0.26458332;stroke-opacity:1"
         ry="4.4714584"
         rx="4.4449997"
         cy="266.62582"
         cx="49.343895"
         class="st1"
         id="path7422" />
    </g>
    <g
       id="g4936"
       transform="translate(-0.44405746,-0.15355099)">
      <g
         transform="matrix(0.26392413,0,0,0.26524418,-245.16381,79.962291)"
         id="text1041">
        <path
           d="m 1119.3,178.5 -6.2,9.2 h 6.2 z m -0.9,-4.6 h 6.3 v 13.9 h 3.1 v 4.1 h -3.1 v 4 h -5.4 v -4 h -9.8 V 187 Z"
           id="path4663"
           inkscape:connector-curvature="0" />
      </g>
      <ellipse
         style="fill:none;stroke:#00ff00;stroke-width:0.26458332;stroke-opacity:1"
         ry="4.4979167"
         rx="4.4714584"
         cy="129.04251"
         cx="49.95245"
         class="st1"
         id="path7333" />
    </g>
    <g
       id="g4931"
       transform="translate(-0.54990005,4.4975715)">
      <g
         id="g4924">
        <g
           transform="matrix(0.26458333,0,0,0.26458333,-273.73881,95.308124)"
           id="g4758">
          <path
             id="path7478"
             inkscape:connector-curvature="0"
             d="m 1221.3,179.7 v 15.6 h 5.1 v -15.6 z" />
          <path
             id="path4765"
             inkscape:connector-curvature="0"
             class="st2"
             d="m 1223.8,173.8 5.1,8.8 h -10.2 z" />
        </g>
      </g>
      <ellipse
         style="fill:none;stroke:#00ff00;stroke-width:0.26458332;stroke-opacity:1"
         ry="4.4979167"
         rx="4.4714584"
         cy="144.38835"
         cx="50.058292"
         class="st1"
         id="path7480" />
    </g>
    <g
       id="g4908"
       transform="translate(-1.0261307,-1.0223375)">
      <g
         inkscape:transform-center-x="2.3836497"
         inkscape:transform-center-y="-27.948126"
         transform="matrix(0.26392413,0,0,0.26524418,-182.98673,144.52062)"
         id="text7390">
        <path
           d="m 882.5,253.1 h 9.7 v 4.2 h -16 v -4.2 l 8.1,-7.1 c 0.7,-0.7 1.3,-1.3 1.6,-1.9 0.3,-0.6 0.5,-1.3 0.5,-1.9 0,-1 -0.3,-1.9 -1,-2.5 -0.7,-0.6 -1.6,-0.9 -2.8,-0.9 -0.9,0 -1.9,0.2 -2.9,0.6 -1.1,0.4 -2.2,0.9 -3.4,1.7 v -4.8 c 1.3,-0.4 2.5,-0.7 3.8,-1 1.3,-0.2 2.5,-0.3 3.7,-0.3 2.6,0 4.7,0.6 6.2,1.7 1.5,1.2 2.2,2.8 2.2,4.9 0,1.2 -0.3,2.3 -0.9,3.4 -0.6,1 -1.9,2.4 -3.9,4.2 z"
           id="path4670"
           inkscape:connector-curvature="0" />
      </g>
      <ellipse
         style="fill:none;fill-opacity:1;stroke:#00ff00;stroke-width:0.26458332;stroke-opacity:1"
         ry="4.4979167"
         rx="4.4714584"
         cy="209.89915"
         cx="50.534523"
         class="st1"
         id="path7394" />
    </g>
    <g
       id="g4903"
       transform="translate(1.0376205,1.2475438)">
      <g
         id="g4783"
         transform="matrix(0.26458333,0,0,0.26458333,-201.77215,162.2477)">
        <path
           d="m 943.3,241.2 v 15.6 h 5.1 v -15.6 z"
           inkscape:connector-curvature="0"
           id="path7454" />
        <path
           d="m 945.8,235.4 5.1,8.8 h -10.2 z"
           class="st2"
           inkscape:connector-curvature="0"
           id="path4789" />
      </g>
      <ellipse
         style="fill:none;stroke:#00ff00;stroke-width:0.26458332;stroke-opacity:1"
         ry="4.4979167"
         rx="4.4714584"
         cy="227.62624"
         cx="48.470772"
         class="st1"
         id="path7456" />
    </g>
    <g
       id="g4919"
       transform="translate(-2.084465,-5.5620999)">
      <g
         transform="matrix(0.26392413,0,0,0.26524418,-258.65756,109.06646)"
         id="text7406">
        <path
           d="m 1181.3,245.3 c 1.5,0.4 2.6,1.1 3.4,2 0.8,0.9 1.2,2.2 1.2,3.6 0,2.2 -0.8,3.9 -2.5,5 -1.7,1.1 -4.1,1.7 -7.3,1.7 -1.1,0 -2.3,-0.1 -3.4,-0.3 -1.1,-0.2 -2.3,-0.4 -3.4,-0.8 v -4.4 c 1.1,0.5 2.1,0.9 3.2,1.2 1.1,0.3 2.1,0.4 3.1,0.4 1.5,0 2.7,-0.3 3.5,-0.8 0.8,-0.5 1.2,-1.3 1.2,-2.2 0,-1 -0.4,-1.8 -1.2,-2.3 -0.8,-0.5 -2,-0.8 -3.6,-0.8 h -2.3 V 244 h 2.4 c 1.4,0 2.5,-0.2 3.2,-0.7 0.7,-0.5 1,-1.1 1,-2.1 0,-0.8 -0.3,-1.5 -1,-2 -0.7,-0.5 -1.6,-0.7 -2.9,-0.7 -0.9,0 -1.8,0.1 -2.8,0.3 -0.9,0.2 -1.9,0.5 -2.8,0.9 v -4.2 c 1.1,-0.3 2.2,-0.6 3.3,-0.7 1.1,-0.2 2.2,-0.2 3.3,-0.2 2.9,0 5,0.5 6.4,1.4 1.4,0.9 2.1,2.4 2.1,4.2 0,1.3 -0.3,2.4 -1,3.2 -0.8,1 -1.8,1.5 -3.1,1.9 z"
           id="path4669"
           inkscape:connector-curvature="0" />
      </g>
      <ellipse
         style="fill:none;stroke:#00ff00;stroke-width:0.26458332;stroke-opacity:1"
         ry="4.4979167"
         rx="4.4714584"
         cy="174.44499"
         cx="51.592857"
         class="st1"
         id="path7410" />
    </g>
    <g
       id="g4914"
       transform="translate(-2.5077896,2.2640232)">
      <g
         id="g4749"
         transform="matrix(0.26458333,0,0,0.26458333,-280.88256,121.23729)">
        <path
           d="m 1255.7,241.3 v 15.6 h 5.1 v -15.6 z"
           inkscape:connector-curvature="0"
           id="path7490" />
        <path
           d="m 1258.2,235.4 5.1,8.8 h -10.2 z"
           class="st2"
           inkscape:connector-curvature="0"
           id="path4756" />
      </g>
      <ellipse
         style="fill:none;stroke:#00ff00;stroke-width:0.26458332;stroke-opacity:1"
         ry="4.4979167"
         rx="4.4714584"
         cy="186.61583"
         cx="52.016182"
         class="st1"
         id="path7492" />
    </g>
    <g
       id="g4941"
       transform="translate(0.73061268,1.40342)">
      <g
         transform="matrix(0.26411745,-4.6669792e-4,-4.6671212e-4,0.26505086,357.92123,328.82946)"
         id="text3355">
        <path
           d="m -1251.7,-755 h 5 v -14.3 l -5.2,1.1 v -3.9 l 5.1,-1.1 h 5.4 v 18.1 h 5 v 3.9 h -15.4 v -3.8 z"
           id="path4682"
           inkscape:connector-curvature="0" />
      </g>
      <path
         style="fill:none;stroke:#00ff00;stroke-width:0.26458332;stroke-opacity:1"
         d="m 29.414687,122.99471 c 2.46671,-0.009 4.47159,1.99538 4.44624,4.47641 -0.0254,2.48103 -2.0055,4.49602 -4.47222,4.50525 -2.46672,0.009 -4.47158,-1.99537 -4.44623,-4.47642 9e-4,-2.49116 1.98105,-4.50613 4.47221,-4.50524 z"
         class="st1"
         id="path3359"
         inkscape:connector-curvature="0" />
    </g>
    <g
       id="g4947"
       transform="translate(-0.34083467,6.2792179)">
      <g
         id="g4851"
         transform="matrix(-0.20990806,-0.16106812,0.16106812,-0.20990806,311.49823,424.39454)">
        <path
           d="m 1488.4,187.1 -4.1,3.1 c 1.6,2 2.9,3.5 3.8,5.3 0.8,1.8 1.3,4.2 0.8,8.5 l 5.1,0.7 c 0.7,-5 0.1,-8.5 -1.2,-11.3 -1.3,-2.7 -3,-4.5 -4.4,-6.3 z"
           inkscape:connector-curvature="0"
           id="path3397" />
        <path
           d="m 1490.7,210.2 -3.9,-9.4 10.1,1.4 z"
           class="st2"
           inkscape:connector-curvature="0"
           id="path4857" />
      </g>
      <path
         style="fill:none;stroke:#00ff00;stroke-width:0.26458332;stroke-opacity:1"
         d="m 30.47746,138.12445 c 2.47138,-0.005 4.47094,1.99661 4.47551,4.46799 0.005,2.47143 -2.01273,4.49194 -4.48414,4.49652 -2.4714,0.005 -4.47094,-1.99663 -4.47551,-4.46803 0.0115,-2.4924 2.01272,-4.49193 4.48414,-4.49648 z"
         class="st1"
         id="path3399"
         inkscape:connector-curvature="0" />
    </g>
    <g
       id="g4958"
       transform="translate(1.0906006,0.52916667)">
      <g
         transform="matrix(-0.20990806,-0.16106812,0.16106812,-0.20990806,290.06698,394.49662)"
         id="g4866">
        <path
           id="path4862"
           inkscape:connector-curvature="0"
           d="m 1488.4,187.1 -4.1,3.1 c 1.6,2 2.9,3.5 3.8,5.3 0.8,1.8 1.3,4.2 0.8,8.5 l 5.1,0.7 c 0.7,-5 0.1,-8.5 -1.2,-11.3 -1.3,-2.7 -3,-4.5 -4.4,-6.3 z" />
        <path
           id="path4864"
           inkscape:connector-curvature="0"
           class="st2"
           d="m 1490.7,210.2 -3.9,-9.4 10.1,1.4 z" />
      </g>
      <path
         inkscape:connector-curvature="0"
         id="path4868"
         class="st1"
         d="m 9.0462101,108.22653 c 2.4713799,-0.005 4.4709399,1.99661 4.4755099,4.46799 0.005,2.47143 -2.01273,4.49194 -4.4841399,4.49652 -2.4714,0.005 -4.47094,-1.99663 -4.47551,-4.46803 0.0115,-2.4924 2.01272,-4.49193 4.48414,-4.49648 z"
         style="fill:none;stroke:#00ff00;stroke-width:0.26458332;stroke-opacity:1" />
    </g>
    <g
       id="g4952"
       transform="translate(-18.177023,-4.3740069)">
      <g
         id="g4872"
         transform="matrix(0.26392413,0,0,0.26524418,-205.21173,41.862287)"
         inkscape:transform-center-y="-27.948126"
         inkscape:transform-center-x="2.3836497">
        <path
           inkscape:connector-curvature="0"
           id="path4870"
           d="m 882.5,253.1 h 9.7 v 4.2 h -16 v -4.2 l 8.1,-7.1 c 0.7,-0.7 1.3,-1.3 1.6,-1.9 0.3,-0.6 0.5,-1.3 0.5,-1.9 0,-1 -0.3,-1.9 -1,-2.5 -0.7,-0.6 -1.6,-0.9 -2.8,-0.9 -0.9,0 -1.9,0.2 -2.9,0.6 -1.1,0.4 -2.2,0.9 -3.4,1.7 v -4.8 c 1.3,-0.4 2.5,-0.7 3.8,-1 1.3,-0.2 2.5,-0.3 3.7,-0.3 2.6,0 4.7,0.6 6.2,1.7 1.5,1.2 2.2,2.8 2.2,4.9 0,1.2 -0.3,2.3 -0.9,3.4 -0.6,1 -1.9,2.4 -3.9,4.2 z" />
      </g>
      <ellipse
         id="ellipse4874"
         class="st1"
         cx="28.309523"
         cy="107.24082"
         rx="4.4714584"
         ry="4.4979167"
         style="fill:none;fill-opacity:1;stroke:#00ff00;stroke-width:0.26458332;stroke-opacity:1" />
    </g>
  </g>
</svg>
