<?xml version="1.0" encoding="UTF-8" standalone="no"?>
<!-- Created with Inkscape (http://www.inkscape.org/) -->

<svg
   xmlns:dc="http://purl.org/dc/elements/1.1/"
   xmlns:cc="http://creativecommons.org/ns#"
   xmlns:rdf="http://www.w3.org/1999/02/22-rdf-syntax-ns#"
   xmlns:svg="http://www.w3.org/2000/svg"
   xmlns="http://www.w3.org/2000/svg"
   xmlns:sodipodi="http://sodipodi.sourceforge.net/DTD/sodipodi-0.dtd"
   xmlns:inkscape="http://www.inkscape.org/namespaces/inkscape"
   width="69.394325mm"
   height="210.27393mm"
   viewBox="0 0 69.394325 210.27393"
   version="1.1"
   id="svg8"
   inkscape:version="0.92.1 r15371"
   sodipodi:docname="epic-maneuvers.svg">
  <defs
     id="defs2" />
  <sodipodi:namedview
     id="base"
     pagecolor="#ffffff"
     bordercolor="#666666"
     borderopacity="1.0"
     inkscape:pageopacity="0.0"
     inkscape:pageshadow="2"
     inkscape:zoom="1.4142136"
     inkscape:cx="77.107473"
     inkscape:cy="602.14789"
     inkscape:document-units="mm"
     inkscape:current-layer="layer1"
     showgrid="false"
     inkscape:window-width="1680"
     inkscape:window-height="997"
     inkscape:window-x="1912"
     inkscape:window-y="-8"
     inkscape:window-maximized="1"
     fit-margin-top="5"
     fit-margin-left="5"
     fit-margin-right="5"
     fit-margin-bottom="5" />
  <metadata
     id="metadata5">
    <rdf:RDF>
      <cc:Work
         rdf:about="">
        <dc:format>image/svg+xml</dc:format>
        <dc:type
           rdf:resource="http://purl.org/dc/dcmitype/StillImage" />
        <dc:title />
      </cc:Work>
    </rdf:RDF>
  </metadata>
  <g
     inkscape:label="Layer 1"
     inkscape:groupmode="layer"
     id="layer1"
     transform="translate(5.0002134,-91.72573)">
    <path
       inkscape:connector-curvature="0"
       id="path840"
       d="M 39.622673,238.86771 H 59.394111"
       style="fill:none;stroke:#00ff00;stroke-width:0.00035278;stroke-linecap:butt;stroke-linejoin:miter;stroke-opacity:1;stroke-miterlimit:4;stroke-dasharray:none" />
    <path
       style="fill:none;fill-opacity:1;stroke:#ff0000;stroke-width:0.00133333;stroke-miterlimit:4;stroke-dasharray:none;stroke-opacity:1"
       d="m 38.296875,19.433594 c -10.469286,0 -18.898438,8.427174 -18.898437,18.896484 l -0.0039,63.714842 H 94.984375 V 253.19336 H 168.71875 V 707.2562 l 17.26367,27.93359 -17.26367,10.66993 v 10.58559 h 54.77148 c 10.4693,0 18.89649,-8.42715 18.89649,-18.89648 V 37.791016 c 0,-10.469299 -8.42329,-18.357422 -18.89258,-18.357422 z"
       transform="matrix(0.26458333,0,0,0.26458333,-5.0002134,91.72573)"
       id="rect10"
       inkscape:connector-curvature="0"
       sodipodi:nodetypes="scccccccccsssss" />
    <path
       style="fill:none;stroke:#00ff00;stroke-width:0.00035278;stroke-linecap:butt;stroke-linejoin:miter;stroke-opacity:1;stroke-miterlimit:4;stroke-dasharray:none"
       d="M 20.127845,96.74666 V 118.869 h 39.120294"
       id="path834"
       inkscape:connector-curvature="0" />
    <path
       style="fill:none;stroke:#00ff00;stroke-width:0.00035278;stroke-linecap:butt;stroke-linejoin:miter;stroke-opacity:1;stroke-miterlimit:4;stroke-dasharray:none"
       d="m 59.246436,158.86116 h -19.606 V 96.72573"
       id="path836"
       inkscape:connector-curvature="0" />
    <path
       style="fill:none;stroke:#00ff00;stroke-width:0.00035278;stroke-linecap:butt;stroke-linejoin:miter;stroke-opacity:1;stroke-miterlimit:4;stroke-dasharray:none"
       d="M 39.622674,198.86771 H 59.394111"
       id="path838"
       inkscape:connector-curvature="0" />
    <path
       style="fill:none;stroke:#00ff00;stroke-width:0.00035278;stroke-linecap:butt;stroke-linejoin:miter;stroke-opacity:1;stroke-miterlimit:4;stroke-dasharray:none"
       d="M 39.658109,278.86771 H 59.358676"
       id="path842"
       inkscape:connector-curvature="0" />
    <g
       id="text7398"
       transform="matrix(0.2642552,0,0,0.26491187,-169.0639,199.79054)">
      <path
         inkscape:connector-curvature="0"
         id="path4673"
         d="m 820.6,192.2 h 5 V 178 l -5.1,1.1 v -3.9 l 5.1,-1.1 h 5.4 v 18.1 h 5 v 3.9 h -15.4 z" />
    </g>
    <ellipse
       id="path7402"
       class="st1"
       cx="49.508392"
       cy="248.87074"
       rx="4.4449997"
       ry="4.4714584"
       style="fill:none;stroke:#00ff00;stroke-width:0.00035278;stroke-opacity:1;stroke-miterlimit:4;stroke-dasharray:none" />
    <path
       style="stroke-width:0.26458332"
       d="m 49.508604,265.79831 -1.349788,2.32854 h 0.661459 v 3.33365 h 1.349787 v -3.33365 h 0.687814 z"
       id="path7420"
       inkscape:connector-curvature="0" />
    <ellipse
       id="path7422"
       class="st1"
       cx="49.508392"
       cy="268.86771"
       rx="4.4449997"
       ry="4.4714584"
       style="fill:none;stroke:#00ff00;stroke-width:0.00035278;stroke-opacity:1;stroke-miterlimit:4;stroke-dasharray:none" />
    <g
       id="g4936"
       transform="translate(-0.44405746,-0.15355099)">
      <g
         transform="matrix(0.26392413,0,0,0.26524418,-245.16381,79.962291)"
         id="text1041">
        <path
           d="m 1119.3,178.5 -6.2,9.2 h 6.2 z m -0.9,-4.6 h 6.3 v 13.9 h 3.1 v 4.1 h -3.1 v 4 h -5.4 v -4 h -9.8 V 187 Z"
           id="path4663"
           inkscape:connector-curvature="0" />
      </g>
      <ellipse
         style="fill:none;stroke:#00ff00;stroke-width:0.00035278;stroke-opacity:1;stroke-miterlimit:4;stroke-dasharray:none"
         ry="4.4979167"
         rx="4.4714584"
         cy="129.04251"
         cx="49.95245"
         class="st1"
         id="path7333" />
    </g>
    <path
       style="stroke-width:0.26458332"
       d="m 49.508604,145.79013 -1.349788,2.32854 h 0.68833 v 3.36 h 1.349271 v -3.36 h 0.661459 z"
       id="path7478"
       inkscape:connector-curvature="0" />
    <ellipse
       id="path7480"
       class="st1"
       cx="49.508392"
       cy="148.88593"
       rx="4.4714584"
       ry="4.4979167"
       style="fill:none;stroke:#00ff00;stroke-width:0.00035278;stroke-opacity:1;stroke-miterlimit:4;stroke-dasharray:none" />
    <g
       id="g4908"
       transform="translate(-1.0261307,-1.0223375)">
      <g
         inkscape:transform-center-x="2.3836497"
         inkscape:transform-center-y="-27.948126"
         transform="matrix(0.26392413,0,0,0.26524418,-182.98673,144.52062)"
         id="text7390">
        <path
           d="m 882.5,253.1 h 9.7 v 4.2 h -16 v -4.2 l 8.1,-7.1 c 0.7,-0.7 1.3,-1.3 1.6,-1.9 0.3,-0.6 0.5,-1.3 0.5,-1.9 0,-1 -0.3,-1.9 -1,-2.5 -0.7,-0.6 -1.6,-0.9 -2.8,-0.9 -0.9,0 -1.9,0.2 -2.9,0.6 -1.1,0.4 -2.2,0.9 -3.4,1.7 v -4.8 c 1.3,-0.4 2.5,-0.7 3.8,-1 1.3,-0.2 2.5,-0.3 3.7,-0.3 2.6,0 4.7,0.6 6.2,1.7 1.5,1.2 2.2,2.8 2.2,4.9 0,1.2 -0.3,2.3 -0.9,3.4 -0.6,1 -1.9,2.4 -3.9,4.2 z"
           id="path4670"
           inkscape:connector-curvature="0" />
      </g>
      <ellipse
         style="fill:none;fill-opacity:1;stroke:#00ff00;stroke-width:0.00035278;stroke-opacity:1;stroke-miterlimit:4;stroke-dasharray:none"
         ry="4.4979167"
         rx="4.4714584"
         cy="209.89915"
         cx="50.534523"
         class="st1"
         id="path7394" />
    </g>
    <path
       style="stroke-width:0.26458332"
       d="m 49.508604,225.77802 -1.349788,2.32853 h 0.68833 v 3.33365 h 1.349271 v -3.33365 h 0.661459 z"
       id="path7454"
       inkscape:connector-curvature="0" />
    <ellipse
       id="path7456"
       class="st1"
       cx="49.508392"
       cy="228.87378"
       rx="4.4714584"
       ry="4.4979167"
       style="fill:none;stroke:#00ff00;stroke-width:0.00035278;stroke-opacity:1;stroke-miterlimit:4;stroke-dasharray:none" />
    <g
       id="g4919"
       transform="translate(-2.084465,-5.5620999)">
      <g
         transform="matrix(0.26392413,0,0,0.26524418,-258.65756,109.06646)"
         id="text7406">
        <path
           d="m 1181.3,245.3 c 1.5,0.4 2.6,1.1 3.4,2 0.8,0.9 1.2,2.2 1.2,3.6 0,2.2 -0.8,3.9 -2.5,5 -1.7,1.1 -4.1,1.7 -7.3,1.7 -1.1,0 -2.3,-0.1 -3.4,-0.3 -1.1,-0.2 -2.3,-0.4 -3.4,-0.8 v -4.4 c 1.1,0.5 2.1,0.9 3.2,1.2 1.1,0.3 2.1,0.4 3.1,0.4 1.5,0 2.7,-0.3 3.5,-0.8 0.8,-0.5 1.2,-1.3 1.2,-2.2 0,-1 -0.4,-1.8 -1.2,-2.3 -0.8,-0.5 -2,-0.8 -3.6,-0.8 h -2.3 V 244 h 2.4 c 1.4,0 2.5,-0.2 3.2,-0.7 0.7,-0.5 1,-1.1 1,-2.1 0,-0.8 -0.3,-1.5 -1,-2 -0.7,-0.5 -1.6,-0.7 -2.9,-0.7 -0.9,0 -1.8,0.1 -2.8,0.3 -0.9,0.2 -1.9,0.5 -2.8,0.9 v -4.2 c 1.1,-0.3 2.2,-0.6 3.3,-0.7 1.1,-0.2 2.2,-0.2 3.3,-0.2 2.9,0 5,0.5 6.4,1.4 1.4,0.9 2.1,2.4 2.1,4.2 0,1.3 -0.3,2.4 -1,3.2 -0.8,1 -1.8,1.5 -3.1,1.9 z"
           id="path4669"
           inkscape:connector-curvature="0" />
      </g>
      <ellipse
         style="fill:none;stroke:#00ff00;stroke-width:0.00035278;stroke-opacity:1;stroke-miterlimit:4;stroke-dasharray:none"
         ry="4.4979167"
         rx="4.4714584"
         cy="174.44499"
         cx="51.592857"
         class="st1"
         id="path7410" />
    </g>
    <path
       style="stroke-width:0.26458332"
       d="m 49.508604,185.78407 -1.349788,2.32854 h 0.68833 v 3.36 h 1.349271 v -3.36 h 0.661459 z"
       id="path7490"
       inkscape:connector-curvature="0" />
    <ellipse
       id="path7492"
       class="st1"
       cx="49.508392"
       cy="188.87985"
       rx="4.4714584"
       ry="4.4979167"
       style="fill:none;stroke:#00ff00;stroke-width:0.00035278;stroke-opacity:1;stroke-miterlimit:4;stroke-dasharray:none" />
    <g
       id="g4941"
       transform="translate(0.73061268,1.40342)">
      <g
         transform="matrix(0.26411745,-4.6669792e-4,-4.6671212e-4,0.26505086,357.92123,328.82946)"
         id="text3355">
        <path
           d="m -1251.7,-755 h 5 v -14.3 l -5.2,1.1 v -3.9 l 5.1,-1.1 h 5.4 v 18.1 h 5 v 3.9 h -15.4 v -3.8 z"
           id="path4682"
           inkscape:connector-curvature="0" />
      </g>
      <path
         style="fill:none;stroke:#00ff00;stroke-width:0.00035278;stroke-opacity:1;stroke-miterlimit:4;stroke-dasharray:none"
         d="m 29.414687,122.99471 c 2.46671,-0.009 4.47159,1.99538 4.44624,4.47641 -0.0254,2.48103 -2.0055,4.49602 -4.47222,4.50525 -2.46672,0.009 -4.47158,-1.99537 -4.44623,-4.47642 9e-4,-2.49116 1.98105,-4.50613 4.47221,-4.50524 z"
         class="st1"
         id="path3359"
         inkscape:connector-curvature="0" />
    </g>
    <path
       style="stroke-width:0.26458332"
       d="m 32.103982,146.44694 -2.590022,0.68058 0.495575,0.5023 c -0.599266,0.71372 -0.910368,1.37109 -1.052132,2.00556 -0.162001,0.77614 -0.09542,1.42755 -0.09147,2.03088 l 1.360122,0.01 c -0.01372,-0.67753 -0.0452,-1.20164 0.05581,-1.72444 0.09159,-0.3804 0.273786,-0.80431 0.696082,-1.33997 l 0.430464,0.43666 z"
       id="path3397"
       inkscape:connector-curvature="0" />
    <path
       inkscape:connector-curvature="0"
       id="path3399"
       class="st1"
       d="m 30.136625,144.40367 c 2.47138,-0.005 4.47094,1.99661 4.47551,4.46799 0.005,2.47143 -2.01273,4.49194 -4.48414,4.49652 -2.4714,0.005 -4.47094,-1.99663 -4.47551,-4.46803 0.0115,-2.4924 2.01272,-4.49193 4.48414,-4.49648 z"
       style="fill:none;stroke:#00ff00;stroke-width:0.00035278;stroke-opacity:1;stroke-miterlimit:4;stroke-dasharray:none" />
    <path
       style="stroke-width:0.26458332"
       d="m 12.104169,110.79899 -2.590023,0.68058 0.495577,0.50229 c -0.5992667,0.71372 -0.9103683,1.3711 -1.0521323,2.00556 -0.1620033,0.77614 -0.095415,1.42756 -0.091467,2.03089 l 1.3601233,0.01 c -0.01372,-0.67753 -0.0452,-1.20165 0.05581,-1.72445 0.09159,-0.38039 0.273786,-0.8043 0.696081,-1.33997 l 0.430465,0.43667 z"
       id="path4862"
       inkscape:connector-curvature="0" />
    <path
       style="fill:none;stroke:#00ff00;stroke-width:0.00035278;stroke-opacity:1;stroke-miterlimit:4;stroke-dasharray:none"
       d="m 10.136811,108.7557 c 2.47138,-0.005 4.47094,1.99661 4.47551,4.46799 0.005,2.47143 -2.01273,4.49194 -4.48414,4.49652 -2.4714003,0.005 -4.4709403,-1.99663 -4.4755103,-4.46803 0.0115,-2.4924 2.01272,-4.49193 4.4841403,-4.49648 z"
       class="st1"
       id="path4868"
       inkscape:connector-curvature="0" />
    <g
       id="g4952"
       transform="translate(-18.177023,-4.3740069)">
      <g
         id="g4872"
         transform="matrix(0.26392413,0,0,0.26524418,-205.21173,41.862287)"
         inkscape:transform-center-y="-27.948126"
         inkscape:transform-center-x="2.3836497">
        <path
           inkscape:connector-curvature="0"
           id="path4870"
           d="m 882.5,253.1 h 9.7 v 4.2 h -16 v -4.2 l 8.1,-7.1 c 0.7,-0.7 1.3,-1.3 1.6,-1.9 0.3,-0.6 0.5,-1.3 0.5,-1.9 0,-1 -0.3,-1.9 -1,-2.5 -0.7,-0.6 -1.6,-0.9 -2.8,-0.9 -0.9,0 -1.9,0.2 -2.9,0.6 -1.1,0.4 -2.2,0.9 -3.4,1.7 v -4.8 c 1.3,-0.4 2.5,-0.7 3.8,-1 1.3,-0.2 2.5,-0.3 3.7,-0.3 2.6,0 4.7,0.6 6.2,1.7 1.5,1.2 2.2,2.8 2.2,4.9 0,1.2 -0.3,2.3 -0.9,3.4 -0.6,1 -1.9,2.4 -3.9,4.2 z" />
      </g>
      <ellipse
         id="ellipse4874"
         class="st1"
         cx="28.309523"
         cy="107.24082"
         rx="4.4714584"
         ry="4.4979167"
         style="fill:none;fill-opacity:1;stroke:#00ff00;stroke-width:0.00035278;stroke-opacity:1;stroke-miterlimit:4;stroke-dasharray:none" />
    </g>
  </g>
</svg>
