<?xml version="1.0" encoding="utf-8"?>
<!-- Generator: Adobe Illustrator 19.0.0, SVG Export Plug-In . SVG Version: 6.00 Build 0)  -->
<svg version="1.1"
	 id="svg3283" xmlns:inkscape="http://www.inkscape.org/namespaces/inkscape" xmlns:sodipodi="http://sodipodi.sourceforge.net/DTD/sodipodi-0.dtd" xmlns:svg="http://www.w3.org/2000/svg" xmlns:rdf="http://www.w3.org/1999/02/22-rdf-syntax-ns#" xmlns:cc="http://creativecommons.org/ns#" xmlns:dc="http://purl.org/dc/elements/1.1/" sodipodi:docname="maneuvers3.svg" inkscape:version="0.92.1 r15371"
	 xmlns="http://www.w3.org/2000/svg" xmlns:xlink="http://www.w3.org/1999/xlink" x="0px" y="0px"
	 viewBox="283 -141.5 2267.7 1133.9" style="enable-background:new 283 -141.5 2267.7 1133.9;" xml:space="preserve">
<style type="text/css">
	.st0{fill:none;stroke:#FF0000;}
	.st1{fill:none;stroke:#00FF00;stroke-linecap:square;}
	.st2{stroke:#000000;}
	.st3{fill:none;stroke:#00FF00;}
</style>
<sodipodi:namedview  id="base" pagecolor="#ffffff" bordercolor="#666666" borderopacity="1.0" inkscape:zoom="2.828427" inkscape:cx="1506.1513" inkscape:cy="961.47335" showgrid="false" units="mm" inkscape:window-maximized="1" inkscape:current-layer="layer1" inkscape:document-units="mm" inkscape:pageopacity="0.0" inkscape:window-x="0" inkscape:window-y="27" inkscape:window-height="1016" inkscape:window-width="1920" inkscape:pageshadow="2">
	</sodipodi:namedview>
<g id="layer1" transform="translate(0,2.999999)" inkscape:label="Calque 1" inkscape:groupmode="layer">
	<path id="path3836" inkscape:connector-curvature="0" class="st0" d="M1998.8,211.3l-49.4-28.7c-41.7,72.6-134,97.4-206.3,55.5
		l-28.5,49.6C1814.2,345.5,1941.4,311.3,1998.8,211.3z"/>
	
		<g id="text7498" transform="matrix(-0.96351926,0.25946549,-0.25817421,-0.9683384,0,0)" inkscape:transform-center-y="-27.948117" inkscape:transform-center-x="2.3836779">
		<path id="path4688" d="M-1735.7-743.3l9.7,0v4.2h-16v-4.2l8.1-7.1c0.7-0.7,1.3-1.3,1.6-1.9s0.5-1.3,0.5-1.9c0-1-0.3-1.9-1-2.5
			c-0.7-0.6-1.6-0.9-2.8-0.9c-0.9,0-1.9,0.2-2.9,0.6c-1.1,0.4-2.2,0.9-3.4,1.7v-4.8c1.3-0.4,2.5-0.7,3.8-1c1.3-0.2,2.5-0.3,3.7-0.3
			c2.6,0,4.7,0.6,6.2,1.7c1.5,1.2,2.2,2.8,2.2,4.9c0,1.2-0.3,2.3-0.9,3.4c-0.6,1-1.9,2.4-3.9,4.2L-1735.7-743.3z"/>
	</g>
	<path id="path7502" class="st1" d="M1868.4,293.3c-9,2.4-18.3-2.9-20.7-12s2.9-18.3,11.9-20.8c9-2.4,18.3,2.9,20.7,12
		S1877.4,290.9,1868.4,293.3z"/>
	<g id="g4877">
		<path id="path7522" inkscape:connector-curvature="0" d="M1937.8,226.7l-3.6,3.6c2.2,2.2,3.4,3.9,3.6,5c0.2,1.1-0.1,2.4-2.7,5.1
			l3.6,3.6c3.2-3.2,4.7-6.4,4.1-9.6C1942.2,231.2,1940.1,229,1937.8,226.7z"/>
		<path id="path4883" inkscape:connector-curvature="0" class="st2" d="M1932.7,246.3l2.6-9.8l7.2,7.2L1932.7,246.3z"/>
	</g>
	<path id="path7524" class="st1" d="M1950.3,249.8c-6.6,6.6-17.3,6.6-23.9,0c-6.6-6.6-6.6-17.4,0-24c6.6-6.6,17.3-6.6,23.9,0
		C1956.9,232.5,1956.9,243.2,1950.3,249.8z"/>
	<path id="path7530" inkscape:connector-curvature="0" d="M1785.8,271.6l-3.5,13l-12.9-3.5l-1.3,4.9l17.9,4.8l4.8-17.9L1785.8,271.6
		z"/>
	<g id="g4905">
		<path id="path7532" inkscape:connector-curvature="0" d="M1774.2,275.9l-1.4,5.3l4.9,1.3l1.4-5.3L1774.2,275.9z"/>
		<path id="path4911" inkscape:connector-curvature="0" class="st2" d="M1778.1,270.9l2.7,9.8l-9.9-2.6L1778.1,270.9z"/>
	</g>
	<path id="path7534" class="st1" d="M1775.2,296.3c-9-2.4-14.3-11.7-11.9-20.8s11.7-14.4,20.7-12c9,2.4,14.3,11.7,11.9,20.8
		S1784.2,298.7,1775.2,296.3z"/>
	<rect id="rect4732" x="768.8" y="157.1" class="st0" width="113.7" height="56.9"/>
	<g id="text7398" transform="scale(0.99875981,1.0012417)">
		<path id="path4673" d="M820.6,192.2h5V178l-5.1,1.1v-3.9l5.1-1.1h5.4v18.1h5v3.9h-15.4V192.2z"/>
	</g>
	<ellipse id="path7402" class="st1" cx="826.1" cy="185.5" rx="16.8" ry="16.9"/>
	<g id="g4807">
		<path id="path7414" inkscape:connector-curvature="0" d="M789.4,173.6c-1.9,0-3.8,1.1-4.8,2.6c-0.9,1.4-1.3,3-1.5,4.7
			c-0.4,3.3-0.1,7.1-0.1,10.2h5.1c0-3.3-0.2-7.1,0.1-9.6c0.2-1.3,0.5-2.2,0.7-2.5s0-0.2,0.4-0.2c1.6,0,2.4,0.2,2.4,0.2
			c0,0,0-0.3,0.2,0.8c0.4,2.2,0.1,7.9,0.1,18.5h5.1c0-10.5,0.4-15.7-0.2-19.3c-0.3-1.8-1.2-3.6-2.7-4.5
			C792.5,173.5,791,173.6,789.4,173.6L789.4,173.6z"/>
		<path id="path4813" inkscape:connector-curvature="0" class="st2" d="M785.6,196.9l-5.1-8.8h10.2L785.6,196.9z"/>
	</g>
	<path id="path7416" class="st1" d="M780.9,199.7c-7.8-5.1-9.9-15.6-4.8-23.4c5.1-7.8,15.5-10,23.3-4.9c7.8,5.1,9.9,15.6,4.8,23.4
		C799.1,202.6,788.6,204.8,780.9,199.7z"/>
	<g id="g4799">
		<path id="path7420" inkscape:connector-curvature="0" d="M859.5,179.8v15.5h5.1v-15.5H859.5z"/>
		<path id="path4805" inkscape:connector-curvature="0" class="st2" d="M862.1,173.9l5.1,8.8H857L862.1,173.9z"/>
	</g>
	<ellipse id="path7422" class="st1" cx="862.1" cy="185.5" rx="16.8" ry="16.9"/>
	<rect id="rect4726" x="887.3" y="157" class="st0" width="456.2" height="56.9"/>
	<g id="text1041" transform="scale(0.99750854,1.0024977)">
		<path id="path4663" d="M1119.3,178.5l-6.2,9.2h6.2V178.5z M1118.4,173.9h6.3v13.9h3.1v4.1h-3.1v4h-5.4v-4h-9.8V187L1118.4,173.9z"
			/>
	</g>
	<ellipse id="path7333" class="st1" cx="1115.4" cy="185.5" rx="16.9" ry="17"/>
	<g id="g4767">
		<path id="path7472" inkscape:connector-curvature="0" d="M1006.2,173.5c-2,0-3.8,1.1-4.8,2.6c-0.9,1.5-1.3,3-1.5,4.7
			c-0.4,3.3-0.1,7.1-0.1,10.3h5.1c0-3.4-0.2-7.1,0.1-9.7c0.2-1.3,0.5-2.2,0.7-2.6c0.2-0.3,0-0.2,0.4-0.2c1.6,0,2.4,0.2,2.4,0.2
			c0,0,0-0.3,0.2,0.8c0.4,2.2,0.1,8,0.1,18.6h5.1c0-10.5,0.4-15.8-0.2-19.4c-0.3-1.8-1.2-3.6-2.7-4.5
			C1009.3,173.5,1007.9,173.5,1006.2,173.5L1006.2,173.5z"/>
		<path id="path4773" inkscape:connector-curvature="0" class="st2" d="M1002.3,196.9l-5.1-8.8h10.2L1002.3,196.9z"/>
	</g>
	<path id="path7474" class="st1" d="M997.6,199.7c-7.8-5.1-10-15.6-4.9-23.5c5.1-7.8,15.6-10,23.4-4.9c7.8,5.1,10,15.6,4.9,23.5
		C1015.9,202.6,1005.4,204.8,997.6,199.7z"/>
	<g id="g4758">
		<path id="path7478" inkscape:connector-curvature="0" d="M1221.3,179.7v15.6h5.1v-15.6H1221.3z"/>
		<path id="path4765" inkscape:connector-curvature="0" class="st2" d="M1223.8,173.8l5.1,8.8h-10.2L1223.8,173.8z"/>
	</g>
	<ellipse id="path7480" class="st1" cx="1223.8" cy="185.5" rx="16.9" ry="17"/>
	
		<g id="text7390" transform="scale(0.99750854,1.0024977)" inkscape:transform-center-y="-27.948126" inkscape:transform-center-x="2.3836497">
		<path id="path4670" d="M882.5,253.1h9.7v4.2h-16v-4.2l8.1-7.1c0.7-0.7,1.3-1.3,1.6-1.9c0.3-0.6,0.5-1.3,0.5-1.9c0-1-0.3-1.9-1-2.5
			c-0.7-0.6-1.6-0.9-2.8-0.9c-0.9,0-1.9,0.2-2.9,0.6c-1.1,0.4-2.2,0.9-3.4,1.7v-4.8c1.3-0.4,2.5-0.7,3.8-1c1.3-0.2,2.5-0.3,3.7-0.3
			c2.6,0,4.7,0.6,6.2,1.7c1.5,1.2,2.2,2.8,2.2,4.9c0,1.2-0.3,2.3-0.9,3.4c-0.6,1-1.9,2.4-3.9,4.2L882.5,253.1z"/>
	</g>
	<ellipse id="path7394" class="st1" cx="882.6" cy="247.1" rx="16.9" ry="17"/>
	<g id="g4791">
		<path id="path7448" inkscape:connector-curvature="0" d="M818.7,235c-2,0-3.8,1.1-4.8,2.6c-0.9,1.5-1.3,3-1.5,4.7
			c-0.4,3.3-0.1,7.1-0.1,10.3h5.1c0-3.4-0.2-7.1,0.1-9.7c0.2-1.3,0.5-2.2,0.7-2.6c0.2-0.3,0-0.2,0.4-0.2c1.6,0,2.4,0.2,2.4,0.2
			c0,0,0-0.3,0.2,0.8c0.4,2.2,0.1,8,0.1,18.6h5.1c0-10.5,0.4-15.8-0.2-19.4c-0.3-1.8-1.2-3.6-2.7-4.5S820.4,235,818.7,235L818.7,235
			z"/>
		<path id="path4797" inkscape:connector-curvature="0" class="st2" d="M814.9,258.4l-5.1-8.8H820L814.9,258.4z"/>
	</g>
	<path id="path7450" class="st1" d="M810.2,261.2c-7.8-5.1-10-15.6-4.9-23.5c5.1-7.8,15.6-10,23.4-4.9c7.8,5.1,10,15.6,4.9,23.5
		C828.4,264.2,817.9,266.4,810.2,261.2z"/>
	<g id="g4783">
		<path id="path7454" inkscape:connector-curvature="0" d="M943.3,241.2v15.6h5.1v-15.6H943.3z"/>
		<path id="path4789" inkscape:connector-curvature="0" class="st2" d="M945.8,235.4l5.1,8.8h-10.2L945.8,235.4z"/>
	</g>
	<ellipse id="path7456" class="st1" cx="945.8" cy="247.1" rx="16.9" ry="17"/>
	<rect id="rect4730" x="768.8" y="218.5" class="st0" width="228" height="57.1"/>
	<rect id="rect4728" x="1001.5" y="218.6" class="st0" width="342.1" height="57"/>
	<g id="text7406" transform="scale(0.99750854,1.0024977)">
		<path id="path4669" d="M1181.3,245.3c1.5,0.4,2.6,1.1,3.4,2c0.8,0.9,1.2,2.2,1.2,3.6c0,2.2-0.8,3.9-2.5,5
			c-1.7,1.1-4.1,1.7-7.3,1.7c-1.1,0-2.3-0.1-3.4-0.3c-1.1-0.2-2.3-0.4-3.4-0.8v-4.4c1.1,0.5,2.1,0.9,3.2,1.2
			c1.1,0.3,2.1,0.4,3.1,0.4c1.5,0,2.7-0.3,3.5-0.8c0.8-0.5,1.2-1.3,1.2-2.2c0-1-0.4-1.8-1.2-2.3c-0.8-0.5-2-0.8-3.6-0.8h-2.3V244
			h2.4c1.4,0,2.5-0.2,3.2-0.7c0.7-0.5,1-1.1,1-2.1c0-0.8-0.3-1.5-1-2c-0.7-0.5-1.6-0.7-2.9-0.7c-0.9,0-1.8,0.1-2.8,0.3
			c-0.9,0.2-1.9,0.5-2.8,0.9v-4.2c1.1-0.3,2.2-0.6,3.3-0.7c1.1-0.2,2.2-0.2,3.3-0.2c2.9,0,5,0.5,6.4,1.4c1.4,0.9,2.1,2.4,2.1,4.2
			c0,1.3-0.3,2.4-1,3.2C1183.6,244.4,1182.6,244.9,1181.3,245.3L1181.3,245.3z"/>
	</g>
	<ellipse id="path7410" class="st1" cx="1172.6" cy="247.1" rx="16.9" ry="17"/>
	<g id="g4661">
		<path id="path7484" inkscape:connector-curvature="0" d="M1086.2,235.1c-2,0-3.8,1.1-4.8,2.6c-0.9,1.5-1.3,3-1.5,4.7
			c-0.4,3.3-0.1,7.1-0.1,10.3h5.1c0-3.4-0.2-7.1,0.1-9.7c0.2-1.3,0.5-2.2,0.7-2.6c0.2-0.3,0-0.2,0.4-0.2c1.6,0,2.4,0.2,2.4,0.2
			c0,0,0-0.3,0.2,0.8c0.4,2.2,0.1,8,0.1,18.6h5.1c0-10.5,0.4-15.8-0.2-19.4c-0.3-1.8-1.2-3.6-2.7-4.5
			C1089.3,235,1087.9,235.1,1086.2,235.1L1086.2,235.1z"/>
		<path id="path4667" inkscape:connector-curvature="0" class="st2" d="M1082.3,258.5l-5.1-8.8h10.2L1082.3,258.5z"/>
	</g>
	<path id="path7486" class="st1" d="M1077.6,261.3c-7.8-5.1-10-15.6-4.9-23.5s15.6-10,23.4-4.9c7.8,5.1,10,15.6,4.9,23.5
		C1095.9,264.2,1085.4,266.4,1077.6,261.3z"/>
	<g id="g4749">
		<path id="path7490" inkscape:connector-curvature="0" d="M1255.7,241.3v15.6h5.1v-15.6H1255.7z"/>
		<path id="path4756" inkscape:connector-curvature="0" class="st2" d="M1258.2,235.4l5.1,8.8h-10.2L1258.2,235.4z"/>
	</g>
	<ellipse id="path7492" class="st1" cx="1258.2" cy="247.1" rx="16.9" ry="17"/>
	<rect id="rect4724" x="773.3" y="280.1" class="st0" width="570.3" height="56.9"/>
	<g id="text1037" transform="scale(0.99750854,1.0024977)">
		<path id="path4666" d="M1055.7,296.2h14.1v4.2h-9.6v3.4c0.4-0.1,0.9-0.2,1.3-0.3c0.4-0.1,0.9-0.1,1.4-0.1c2.7,0,4.8,0.7,6.3,2
			c1.5,1.3,2.2,3.2,2.2,5.6c0,2.4-0.8,4.3-2.5,5.6c-1.6,1.4-3.9,2-6.8,2c-1.3,0-2.5-0.1-3.7-0.4c-1.2-0.2-2.4-0.6-3.7-1.1v-4.5
			c1.2,0.7,2.3,1.2,3.4,1.6c1.1,0.3,2.1,0.5,3.1,0.5c1.4,0,2.5-0.3,3.3-1c0.8-0.7,1.2-1.6,1.2-2.7c0-1.2-0.4-2.1-1.2-2.7
			c-0.8-0.7-1.9-1-3.3-1c-0.8,0-1.7,0.1-2.6,0.3c-0.9,0.2-1.9,0.5-3,1V296.2z"/>
	</g>
	<ellipse id="path7331" class="st1" cx="1058.5" cy="308.6" rx="16.9" ry="17"/>
	<g id="g4775">
		<path id="path7460" inkscape:connector-curvature="0" d="M926.5,296.5c-2,0-3.8,1.1-4.8,2.6c-0.9,1.5-1.3,3-1.5,4.7
			c-0.4,3.3-0.1,7.1-0.1,10.3h5.1c0-3.4-0.2-7.1,0.1-9.7c0.2-1.3,0.5-2.2,0.7-2.6c0.2-0.3,0-0.2,0.4-0.2c1.6,0,2.4,0.2,2.4,0.2
			c0,0,0-0.3,0.2,0.8c0.4,2.2,0.1,8,0.1,18.6h5.1c0-10.5,0.4-15.8-0.2-19.4c-0.3-1.8-1.2-3.6-2.7-4.5
			C929.6,296.5,928.1,296.6,926.5,296.5L926.5,296.5z"/>
		<path id="path4781" inkscape:connector-curvature="0" class="st2" d="M922.6,320l-5.1-8.8h10.2L922.6,320z"/>
	</g>
	<path id="path7462" class="st1" d="M917.9,322.8c-7.8-5.1-10-15.6-4.9-23.5c5.1-7.8,15.6-10,23.4-4.9c7.8,5.1,10,15.6,4.9,23.5
		C936.2,325.7,925.7,327.9,917.9,322.8z"/>
	<g id="g4739">
		<path id="path7466" inkscape:connector-curvature="0" d="M1187.2,302.8v15.6h5.1v-15.6H1187.2z"/>
		<path id="path4747" inkscape:connector-curvature="0" class="st2" d="M1189.7,296.9l5.1,8.8h-10.2L1189.7,296.9z"/>
	</g>
	<ellipse id="path7468" class="st1" cx="1189.7" cy="308.6" rx="16.9" ry="17"/>
	<g id="g4869">
		<path id="path7107" inkscape:connector-curvature="0" d="M1889.8,178.5l-3.6,3.6c2.2,2.2,3.4,3.9,3.6,5c0.2,1.1-0.1,2.4-2.7,5
			l3.6,3.6c3.2-3.2,4.7-6.4,4.1-9.6C1894.3,183.1,1892.1,180.9,1889.8,178.5z"/>
		<path id="path4875" inkscape:connector-curvature="0" class="st2" d="M1884.7,198.1l2.6-9.8l7.2,7.2L1884.7,198.1z"/>
	</g>
	<path id="path7321" class="st1" d="M1902.4,201.7c-6.6,6.6-17.3,6.6-23.9,0c-6.6-6.6-6.6-17.4,0-24c6.6-6.6,17.3-6.6,23.9,0
		C1909,184.3,1909,195,1902.4,201.7z"/>
	<path id="path3840" inkscape:connector-curvature="0" class="st0" d="M1935,183.2l-49.4-28.7c-20.5,35.6-65.7,47.8-101.2,27.2
		l-28.5,49.6C1818.6,267.8,1898.8,246.2,1935,183.2L1935,183.2z"/>
	<path id="path7111" inkscape:connector-curvature="0" d="M1803,207l-3.5,13l-12.9-3.5l-1.3,4.9l17.9,4.8l4.8-18L1803,207z"/>
	<g id="g4915">
		<path id="path7115" inkscape:connector-curvature="0" d="M1791.4,211.3l-1.4,5.3l4.9,1.3l1.4-5.3L1791.4,211.3z"/>
		<path id="path4921" inkscape:connector-curvature="0" class="st2" d="M1795.4,206.3l2.7,9.8l-9.9-2.6L1795.4,206.3z"/>
	</g>
	<path id="path7327" class="st1" d="M1792.4,231.7c-9-2.4-14.3-11.7-11.9-20.8c2.4-9,11.7-14.4,20.7-12c9,2.4,14.3,11.7,11.9,20.8
		C1810.7,228.7,1801.4,234.1,1792.4,231.7z"/>
	<g id="text7506" transform="matrix(-0.96351926,0.25946549,-0.25817421,-0.9683384,0,0)">
		<path id="path4685" d="M-1740.6-678.1h5v-14.3l-5.2,1.1v-3.9l5.1-1.1h5.4v18.1h5v3.9h-15.4V-678.1z"/>
	</g>
	<path id="path7510" class="st1" d="M1852,229.8c-9,2.4-18.3-2.9-20.7-12c-2.4-9,2.9-18.3,11.9-20.8c9-2.4,18.3,2.9,20.7,12
		C1866.3,218.1,1861,227.4,1852,229.8z"/>
	<path id="path3287" inkscape:connector-curvature="0" class="st0" d="M2062.8,239.5l-49.6-28.8c-63,109.5-202.3,147.1-311.4,83.8
		l-28.6,49.8C1809.7,423.5,1984.1,376.6,2062.8,239.5z"/>
	<g id="text7514" transform="matrix(-0.96351926,0.25946549,-0.25817421,-0.9683384,0,0)">
		<path id="path4691" d="M-1727.8-818.5c1.5,0.4,2.6,1.1,3.4,2c0.8,0.9,1.2,2.2,1.2,3.6c0,2.2-0.8,3.9-2.5,5
			c-1.7,1.1-4.1,1.7-7.3,1.7c-1.1,0-2.3-0.1-3.4-0.3c-1.1-0.2-2.3-0.4-3.4-0.8v-4.4c1.1,0.5,2.1,0.9,3.2,1.2
			c1.1,0.3,2.1,0.4,3.1,0.4c1.5,0,2.7-0.3,3.5-0.8c0.8-0.5,1.2-1.3,1.2-2.2c0-1-0.4-1.8-1.2-2.3c-0.8-0.5-2-0.8-3.6-0.8h-2.3v-3.7
			h2.4c1.4,0,2.5-0.2,3.2-0.7c0.7-0.5,1-1.1,1-2.1c0-0.8-0.3-1.5-1-2c-0.7-0.5-1.6-0.7-2.9-0.7c-0.9,0-1.8,0.1-2.8,0.3
			s-1.9,0.5-2.8,0.9v-4.2c1.1-0.3,2.2-0.6,3.3-0.7c1.1-0.2,2.2-0.2,3.3-0.2c2.9,0,5,0.5,6.4,1.4c1.4,0.9,2.1,2.4,2.1,4.2
			c0,1.3-0.3,2.4-1,3.2C-1725.4-819.4-1726.4-818.9-1727.8-818.5z"/>
	</g>
	<path id="path7518" class="st1" d="M1885.7,358c-9,2.4-18.3-2.9-20.7-12s2.9-18.3,11.9-20.8c9-2.4,18.3,2.9,20.7,12
		S1894.7,355.6,1885.7,358z"/>
	<g id="g4885">
		<path id="path7538" inkscape:connector-curvature="0" d="M1987.6,276.8l-3.6,3.6c2.2,2.2,3.4,3.9,3.6,5c0.2,1.1-0.1,2.4-2.7,5.1
			l3.6,3.6c3.2-3.2,4.7-6.4,4.1-9.6C1992.1,281.4,1989.9,279.1,1987.6,276.8L1987.6,276.8z"/>
		<path id="path4891" inkscape:connector-curvature="0" class="st2" d="M1982.5,296.4l2.6-9.8l7.2,7.2L1982.5,296.4z"/>
	</g>
	<path id="path7540" class="st1" d="M2000.2,300c-6.6,6.6-17.3,6.6-23.9,0c-6.6-6.6-6.6-17.4,0-24s17.3-6.6,23.9,0
		C2006.8,282.6,2006.8,293.3,2000.2,300z"/>
	<path id="path7546" inkscape:connector-curvature="0" d="M1768.3,337l-3.5,13l-12.9-3.5l-1.3,4.9l17.9,4.8l4.8-17.9L1768.3,337z"/>
	<g id="g4895">
		<path id="path7548" inkscape:connector-curvature="0" d="M1756.7,341.3l-1.4,5.3l4.9,1.3l1.4-5.3L1756.7,341.3z"/>
		<path id="path4901" inkscape:connector-curvature="0" class="st2" d="M1760.7,336.3l2.7,9.8l-9.9-2.6L1760.7,336.3z"/>
	</g>
	<path id="path7550" class="st1" d="M1757.8,361.6c-9-2.4-14.3-11.7-11.9-20.8s11.7-14.4,20.7-12c9,2.4,14.3,11.7,11.9,20.8
		S1766.8,364.1,1757.8,361.6z"/>
	<path id="path3847" inkscape:connector-curvature="0" sodipodi:nodetypes="ccccc" class="st0" d="M1695.3,195.5
		c-92,92.4-216.7,144.3-346.7,144.4v57.3c145.2,0,284.4-58,387.1-161.1C1722.2,222.6,1708.8,209.1,1695.3,195.5L1695.3,195.5z"/>
	<g id="g4835">
		<path id="path7708" inkscape:connector-curvature="0" d="M1629,272l-4.1,3.1c1.6,2,2.9,3.5,3.8,5.3c0.8,1.8,1.3,4.2,0.8,8.5
			l5.1,0.7c0.7-5,0.1-8.5-1.2-11.3C1632.1,275.5,1630.3,273.8,1629,272z"/>
		<path id="path4841" inkscape:connector-curvature="0" class="st2" d="M1631.2,295.1l-3.9-9.4l10.1,1.4L1631.2,295.1z"/>
	</g>
	<path id="path8094" class="st1" d="M1641.8,296.7c-7.4,5.7-18,4.3-23.7-3.1c-5.7-7.4-4.3-18.1,3.1-23.8c7.4-5.7,18-4.3,23.7,3.1
		C1650.6,280.4,1649.2,291,1641.8,296.7z"/>
	<g id="text3363" transform="matrix(-0.92157773,0.38363925,-0.38172999,-0.92618709,0,0)">
		<path id="path4676" d="M-1301.7-897.8c1.5,0.4,2.6,1.1,3.4,2c0.8,0.9,1.2,2.2,1.2,3.6c0,2.2-0.8,3.9-2.5,5
			c-1.7,1.1-4.1,1.7-7.3,1.7c-1.1,0-2.3-0.1-3.4-0.3c-1.1-0.2-2.3-0.4-3.4-0.8v-4.4c1.1,0.5,2.1,0.9,3.2,1.2
			c1.1,0.3,2.1,0.4,3.1,0.4c1.5,0,2.7-0.3,3.5-0.8c0.8-0.5,1.2-1.3,1.2-2.2c0-1-0.4-1.8-1.2-2.3c-0.8-0.5-2-0.8-3.6-0.8h-2.3v-3.7
			h2.4c1.4,0,2.5-0.2,3.2-0.7c0.7-0.5,1-1.1,1-2.1c0-0.8-0.3-1.5-1-2c-0.7-0.5-1.6-0.7-2.9-0.7c-0.9,0-1.8,0.1-2.8,0.3
			c-0.9,0.2-1.9,0.5-2.8,0.9v-4.2c1.1-0.3,2.2-0.6,3.3-0.7c1.1-0.2,2.2-0.2,3.3-0.2c2.9,0,5,0.5,6.4,1.4c1.4,0.9,2.1,2.4,2.1,4.2
			c0,1.3-0.3,2.4-1,3.2C-1299.3-898.7-1300.3-898.2-1301.7-897.8L-1301.7-897.8z"/>
	</g>
	<path id="path3367" class="st1" d="M1553.6,344.5c-8.6,3.6-18.5-0.5-22-9.2c-3.6-8.7,0.5-18.6,9.1-22.2c8.6-3.6,18.5,0.5,22,9.2
		C1566.3,331,1562.2,340.9,1553.6,344.5z"/>
	<g id="g4825">
		<path id="path3373" inkscape:connector-curvature="0" d="M1450.3,352.5c-2.7,4.5-1.9,7.9-1.6,10.2l4.3-0.6c-0.4-2.9-1.1-4,1-7.5
			L1450.3,352.5z"/>
		<path id="path4831" inkscape:connector-curvature="0" class="st2" d="M1454.7,349.3l-0.1,8.6l-7.4-4.4L1454.7,349.3z"/>
	</g>
	<path id="path3375" inkscape:connector-curvature="0" d="M1460.8,345.9l-5.1,0.7l0.3,2.5c0.3,2.6,0.8,4.5,0.6,6.5s-0.9,4.3-3.6,7.7
		l-1.5,2l4,3.1l1.6-2c3-4,4.3-7.3,4.6-10.4c0.3-3-0.4-5.4-0.7-7.6L1460.8,345.9z"/>
	<path id="path3377" class="st1" d="M1456.9,374c-9.2,1.2-17.7-5.3-18.9-14.6c-1.2-9.3,5.3-17.8,14.5-19s17.7,5.3,18.9,14.6
		C1472.7,364.2,1466.2,372.7,1456.9,374z"/>
	<path id="path3851" inkscape:connector-curvature="0" sodipodi:nodetypes="ccccc" class="st0" d="M1596,174.6
		c-69.2,66.3-159.4,102.6-247.9,103.2l0,57.3c111.2-2.7,215-47.4,288.3-120C1622.9,201.6,1609.4,188.1,1596,174.6L1596,174.6z"/>
	<g id="g4815">
		<path id="path7105" inkscape:connector-curvature="0" d="M1413.2,295.6c-2.7,4.5-1.9,7.9-1.6,10.2l4.3-0.6c-0.4-2.9-1.1-4,1-7.5
			L1413.2,295.6z"/>
		<path id="path4821" inkscape:connector-curvature="0" class="st2" d="M1417.6,292.4l-0.1,8.6l-7.4-4.4L1417.6,292.4z"/>
	</g>
	<path id="path7121" inkscape:connector-curvature="0" d="M1423.7,289.1l-5.1,0.7l0.3,2.5c0.3,2.6,0.8,4.5,0.6,6.5
		c-0.2,2-0.9,4.3-3.6,7.7l-1.6,2l4,3.1l1.5-2c3-4,4.3-7.4,4.6-10.4c0.3-3-0.4-5.4-0.7-7.6L1423.7,289.1z"/>
	<path id="path7325" class="st1" d="M1419.8,317.1c-9.2,1.2-17.7-5.3-18.9-14.6c-1.2-9.3,5.3-17.8,14.5-19s17.7,5.3,18.9,14.6
		C1435.5,307.3,1429,315.9,1419.8,317.1z"/>
	
		<g id="text3347" transform="matrix(-0.92157773,0.38363925,-0.38172999,-0.92618709,0,0)" inkscape:transform-center-y="-27.948119" inkscape:transform-center-x="2.3836467">
		<path id="path4679" d="M-1278.9-821.3h9.7v4.2l-16,0v-4.2l8.1-7.1c0.7-0.7,1.3-1.3,1.6-1.9c0.3-0.6,0.5-1.3,0.5-1.9
			c0-1-0.3-1.9-1-2.5c-0.7-0.6-1.6-0.9-2.8-0.9c-0.9,0-1.9,0.2-2.9,0.6c-1.1,0.4-2.2,0.9-3.4,1.7v-4.8c1.3-0.4,2.5-0.7,3.8-1
			c1.3-0.2,2.5-0.3,3.7-0.3c2.6,0,4.7,0.6,6.2,1.7c1.5,1.2,2.2,2.8,2.2,4.9c0,1.2-0.3,2.3-0.9,3.4c-0.6,1-1.9,2.4-3.9,4.2
			L-1278.9-821.3z"/>
	</g>
	<path id="path3351" class="st1" d="M1499.9,293.9c-8.6,3.6-18.5-0.5-22-9.2c-3.6-8.7,0.5-18.6,9.1-22.2c8.6-3.6,18.5,0.5,22,9.2
		C1512.6,280.4,1508.5,290.3,1499.9,293.9z"/>
	<g id="g4843">
		<path id="path3391" inkscape:connector-curvature="0" d="M1558.6,228.1l-4.1,3.1c1.6,2,2.9,3.5,3.8,5.3c0.8,1.8,1.3,4.2,0.8,8.5
			l5.1,0.7c0.7-5,0.1-8.5-1.2-11.3S1559.9,229.9,1558.6,228.1z"/>
		<path id="path4849" inkscape:connector-curvature="0" class="st2" d="M1560.9,251.2l-3.9-9.4l10.1,1.4L1560.9,251.2z"/>
	</g>
	<path id="path3393" class="st1" d="M1571.4,252.8c-7.4,5.7-18,4.3-23.7-3.1c-5.7-7.4-4.3-18.1,3.1-23.8c7.4-5.7,18-4.3,23.7,3.1
		C1580.2,236.5,1578.8,247.1,1571.4,252.8z"/>
	<path id="circle6136" inkscape:connector-curvature="0" sodipodi:nodetypes="ccccc" class="st0" d="M1494.7,155.8
		c-39,39.2-91.8,61.2-146.9,61.2l0,57.4c70.2,0,137.6-28.1,187.3-78.1C1521.6,182.8,1508.2,169.3,1494.7,155.8L1494.7,155.8z"/>
	<g id="text3355" transform="matrix(-0.92157773,0.38363925,-0.38172999,-0.92618709,0,0)">
		<path id="path4682" d="M-1251.7-755h5v-14.3l-5.2,1.1v-3.9l5.1-1.1h5.4v18.1h5v3.9h-15.4V-755z"/>
	</g>
	<path id="path3359" class="st1" d="M1444.8,243.6c-8.6,3.6-18.5-0.5-22-9.2s0.5-18.6,9.1-22.2s18.5,0.5,22,9.2
		C1457.5,230.1,1453.5,240,1444.8,243.6z"/>
	<g id="g4861">
		<path id="path3383" inkscape:connector-curvature="0" d="M1375.3,240.3c-2.7,4.5-1.9,7.9-1.6,10.2l4.3-0.6c-0.4-2.9-1.1-4,1-7.5
			L1375.3,240.3z"/>
		<path id="path4867" inkscape:connector-curvature="0" class="st2" d="M1379.6,237.2l-0.1,8.6l-7.4-4.4L1379.6,237.2z"/>
	</g>
	<path id="path3385" inkscape:connector-curvature="0" d="M1385.7,233.8l-5.1,0.7l0.3,2.5c0.3,2.6,0.8,4.5,0.6,6.5s-0.9,4.3-3.6,7.7
		l-1.5,2l4,3.1l1.6-2c3-4,4.3-7.3,4.6-10.4c0.3-3-0.4-5.4-0.7-7.6L1385.7,233.8z"/>
	<path id="path3387" class="st1" d="M1381.9,261.8c-9.2,1.2-17.7-5.3-18.9-14.6c-1.2-9.3,5.3-17.8,14.5-19s17.7,5.3,18.9,14.6
		C1397.6,252.1,1391.1,260.6,1381.9,261.8z"/>
	<g id="g4851">
		<path id="path3397" inkscape:connector-curvature="0" d="M1488.4,187.1l-4.1,3.1c1.6,2,2.9,3.5,3.8,5.3c0.8,1.8,1.3,4.2,0.8,8.5
			l5.1,0.7c0.7-5,0.1-8.5-1.2-11.3C1491.5,190.7,1489.8,188.9,1488.4,187.1z"/>
		<path id="path4857" inkscape:connector-curvature="0" class="st2" d="M1490.7,210.2l-3.9-9.4l10.1,1.4L1490.7,210.2z"/>
	</g>
	<path id="path3399" class="st1" d="M1501.3,211.8c-7.4,5.7-18,4.3-23.7-3.1c-5.7-7.4-4.3-18.1,3.1-23.8c7.4-5.7,18-4.3,23.7,3.1
		C1510.1,195.5,1508.7,206.1,1501.3,211.8z"/>
	<rect id="rect4736" x="1912.9" y="61.5" class="st0" width="284.9" height="42.5"/>
	<g id="text1017" transform="scale(0.99750854,1.0024977)">
		<path id="path4715" d="M2053.9,89.5h5V75.2l-5.2,1.1v-3.9l5.1-1.1h5.4v18.1h5v3.9h-15.4V89.5z"/>
	</g>
	<ellipse id="path7335" class="st1" cx="2055.3" cy="82.8" rx="16.9" ry="17"/>
	<path id="rect8087" inkscape:connector-curvature="0" d="M2034.2,74.9l-19.1,7.9l19.2,7.8c-0.9-2.5-1.4-5.1-1.4-7.8
		C2032.8,80,2033.3,77.3,2034.2,74.9z M2076.4,74.9c0.9,2.5,1.4,5.1,1.4,7.9c0,2.8-0.5,5.4-1.4,7.8l19.1-7.8L2076.4,74.9z"/>
	<rect id="rect4734" x="1627.6" y="109.4" class="st0" width="570.3" height="42.5"/>
	
		<g id="text1009" transform="scale(0.99750854,1.0024977)" inkscape:transform-center-y="-27.948123" inkscape:transform-center-x="2.383642">
		<path id="path4718" d="M2058.3,136.4h9.7v4.2h-16v-4.2l8.1-7.1c0.7-0.7,1.3-1.3,1.6-1.9c0.3-0.6,0.5-1.3,0.5-1.9
			c0-1-0.3-1.9-1-2.5c-0.7-0.6-1.6-0.9-2.8-0.9c-0.9,0-1.9,0.2-2.9,0.6c-1.1,0.4-2.2,0.9-3.4,1.7v-4.8c1.3-0.4,2.5-0.7,3.8-1
			c1.3-0.2,2.5-0.3,3.7-0.3c2.6,0,4.7,0.6,6.2,1.7c1.5,1.2,2.2,2.8,2.2,4.9c0,1.2-0.3,2.3-0.9,3.4c-0.6,1-1.9,2.4-3.9,4.2
			L2058.3,136.4z"/>
	</g>
	<ellipse id="path7329" class="st1" cx="2055.5" cy="130" rx="16.9" ry="17"/>
	<path id="path4735" inkscape:connector-curvature="0" class="st3" d="M1912.8,151.1V109"/>
	<g id="text4770" transform="scale(0.99750854,1.0024977)">
		<path id="path4703" d="M1768,136.7h5v-14.3l-5.2,1.1v-3.9l5.1-1.1h5.4v18.1h5v3.9H1768V136.7z"/>
	</g>
	<ellipse id="path4774" class="st1" cx="1770.1" cy="130" rx="16.9" ry="17"/>
	<path id="path8114" inkscape:connector-curvature="0" d="M2034.4,122.2l-19.1,7.9l19.2,7.8c-0.9-2.5-1.4-5.1-1.4-7.8
		C2033,127.3,2033.5,124.6,2034.4,122.2L2034.4,122.2z M2076.6,122.2c0.9,2.5,1.4,5.1,1.4,7.9c0,2.8-0.5,5.4-1.4,7.8l19.1-7.8
		L2076.6,122.2z"/>
	<path id="path8120" inkscape:connector-curvature="0" d="M1749,122.2l-19.1,7.9l19.2,7.8c-0.9-2.5-1.4-5.1-1.4-7.8
		C1747.6,127.3,1748.1,124.6,1749,122.2L1749,122.2z M1791.2,122.2c0.9,2.5,1.4,5.1,1.4,7.9c0,2.8-0.5,5.4-1.4,7.8l19.1-7.8
		L1791.2,122.2z"/>
	<g id="text4426" transform="scale(0.99750854,1.0024977)">
		<path id="path4706" d="M1773.3,76.1l-6.2,9.2h6.2V76.1z M1772.3,71.4h6.3v13.9h3.1v4.1h-3.1v4h-5.4v-4h-9.8v-4.9L1772.3,71.4z"/>
	</g>
	<ellipse id="path4430" class="st1" cx="1767.7" cy="82.8" rx="16.9" ry="17"/>
	<rect id="rect4731" x="769.1" y="61.5" class="st0" width="1141" height="42.5"/>
	<path id="path4739" inkscape:connector-curvature="0" class="st3" d="M1054.2,103.8V61.7"/>
	<path id="path4748" inkscape:connector-curvature="0" class="st3" d="M1339.6,103.8V61.7"/>
	<path id="path4762" inkscape:connector-curvature="0" class="st3" d="M1625,103.8V61.7"/>
	<g id="text4786" transform="scale(0.99750854,1.0024977)">
		<path id="path4733" d="M907.2,89.5h5V75.2l-5.2,1.1v-3.9l5.1-1.1h5.4v18.1h5v3.9h-15.4V89.5z"/>
	</g>
	<ellipse id="path4790" class="st1" cx="911.5" cy="82.8" rx="16.9" ry="17"/>
	
		<g id="text4810" transform="scale(0.99750854,1.0024977)" inkscape:transform-center-y="-27.948121" inkscape:transform-center-x="2.3836419">
		<path id="path4724" d="M1197.5,89.3h9.7v4.2h-16v-4.2l8.1-7.1c0.7-0.7,1.3-1.3,1.6-1.9c0.3-0.6,0.5-1.3,0.5-1.9c0-1-0.3-1.9-1-2.5
			c-0.7-0.6-1.6-0.9-2.8-0.9c-0.9,0-1.9,0.2-2.9,0.6c-1.1,0.4-2.2,0.9-3.4,1.7v-4.8c1.3-0.4,2.5-0.7,3.8-1c1.3-0.2,2.5-0.3,3.7-0.3
			c2.6,0,4.7,0.6,6.2,1.7c1.5,1.2,2.2,2.8,2.2,4.9c0,1.2-0.3,2.3-0.9,3.4c-0.6,1-1.9,2.4-3.9,4.2L1197.5,89.3z"/>
	</g>
	<ellipse id="path4814" class="st1" cx="1196.9" cy="82.8" rx="16.9" ry="17"/>
	<g id="text4826" transform="scale(0.99750854,1.0024977)">
		<path id="path4694" d="M1491.7,81.4c1.5,0.4,2.6,1.1,3.4,2c0.8,0.9,1.2,2.2,1.2,3.6c0,2.2-0.8,3.9-2.5,5c-1.7,1.1-4.1,1.7-7.3,1.7
			c-1.1,0-2.3-0.1-3.4-0.3c-1.1-0.2-2.3-0.4-3.4-0.8v-4.4c1.1,0.5,2.1,0.9,3.2,1.2c1.1,0.3,2.1,0.4,3.1,0.4c1.5,0,2.7-0.3,3.5-0.8
			c0.8-0.5,1.2-1.3,1.2-2.2c0-1-0.4-1.8-1.2-2.3c-0.8-0.5-2-0.8-3.6-0.8h-2.3V80h2.4c1.4,0,2.5-0.2,3.2-0.7c0.7-0.5,1-1.1,1-2.1
			c0-0.8-0.3-1.5-1-2c-0.7-0.5-1.6-0.7-2.9-0.7c-0.9,0-1.8,0.1-2.8,0.3c-0.9,0.2-1.9,0.5-2.8,0.9v-4.2c1.1-0.3,2.2-0.6,3.3-0.7
			s2.2-0.2,3.3-0.2c2.9,0,5,0.5,6.4,1.4c1.4,0.9,2.1,2.4,2.1,4.2c0,1.3-0.3,2.4-1,3.2C1494.1,80.4,1493.1,81,1491.7,81.4
			L1491.7,81.4z"/>
	</g>
	<ellipse id="path4830" class="st1" cx="1482.3" cy="82.8" rx="16.9" ry="17"/>
	<path id="path8118" inkscape:connector-curvature="0" d="M1746.6,74.9l-19.1,7.9l19.2,7.8c-0.9-2.5-1.4-5.1-1.4-7.8
		C1745.2,80,1745.7,77.3,1746.6,74.9z M1788.8,74.9c0.9,2.5,1.4,5.1,1.4,7.9c0,2.8-0.5,5.4-1.4,7.8l19.1-7.8L1788.8,74.9z"/>
	<path id="path8124" inkscape:connector-curvature="0" d="M1461.2,74.9l-19.1,7.9l19.2,7.8c-0.9-2.5-1.4-5.1-1.4-7.8
		C1459.8,80,1460.3,77.3,1461.2,74.9z M1503.4,74.9c0.9,2.5,1.4,5.1,1.4,7.9c0,2.8-0.5,5.4-1.4,7.8l19.1-7.8L1503.4,74.9z"/>
	<path id="path8130" inkscape:connector-curvature="0" d="M1175.8,74.9l-19.1,7.9l19.2,7.8c-0.9-2.5-1.4-5.1-1.4-7.8
		C1174.4,80,1174.9,77.3,1175.8,74.9z M1218,74.9c0.9,2.5,1.4,5.1,1.4,7.9c0,2.8-0.5,5.4-1.4,7.8l19.1-7.8L1218,74.9z"/>
	<path id="path8136" inkscape:connector-curvature="0" d="M890.4,74.9l-19.1,7.9l19.2,7.8c-0.9-2.5-1.4-5.1-1.4-7.8
		C889,80,889.5,77.3,890.4,74.9z M932.6,74.9c0.9,2.5,1.4,5.1,1.4,7.9c0,2.8-0.5,5.4-1.4,7.8l19.1-7.8L932.6,74.9z"/>
	<g id="text1013" transform="scale(0.99750854,1.0024977)">
		<path id="path4700" d="M1491.7,129.1c1.5,0.4,2.6,1.1,3.4,2c0.8,0.9,1.2,2.2,1.2,3.6c0,2.2-0.8,3.9-2.5,5
			c-1.7,1.1-4.1,1.7-7.3,1.7c-1.1,0-2.3-0.1-3.4-0.3c-1.1-0.2-2.3-0.4-3.4-0.8V136c1.1,0.5,2.1,0.9,3.2,1.2c1.1,0.3,2.1,0.4,3.1,0.4
			c1.5,0,2.7-0.3,3.5-0.8c0.8-0.5,1.2-1.3,1.2-2.2c0-1-0.4-1.8-1.2-2.3c-0.8-0.5-2-0.8-3.6-0.8h-2.3v-3.7h2.4c1.4,0,2.5-0.2,3.2-0.7
			c0.7-0.5,1-1.1,1-2.1c0-0.8-0.3-1.5-1-2c-0.7-0.5-1.6-0.7-2.9-0.7c-0.9,0-1.8,0.1-2.8,0.3c-0.9,0.2-1.9,0.5-2.8,0.9v-4.2
			c1.1-0.3,2.2-0.6,3.3-0.7c1.1-0.2,2.2-0.2,3.3-0.2c2.9,0,5,0.5,6.4,1.4c1.4,0.9,2.1,2.4,2.1,4.2c0,1.3-0.3,2.4-1,3.2
			C1494.1,128.2,1493.1,128.8,1491.7,129.1L1491.7,129.1z"/>
	</g>
	<ellipse id="path7337" class="st1" cx="1482.3" cy="130.7" rx="16.9" ry="17"/>
	<rect id="rect4733" x="769.1" y="109.4" class="st0" width="855.7" height="42.5"/>
	<path id="path4737" inkscape:connector-curvature="0" class="st3" d="M1054.2,151.7v-42.1"/>
	<path id="path4746" inkscape:connector-curvature="0" class="st3" d="M1339.6,151.7v-42.1"/>
	<g id="text4778" transform="scale(0.99750854,1.0024977)">
		<path id="path4730" d="M907.2,137.3h5V123l-5.2,1.1v-3.9l5.1-1.1h5.4v18.1h5v3.9h-15.4V137.3z"/>
	</g>
	<ellipse id="path4782" class="st1" cx="911.5" cy="130.7" rx="16.9" ry="17"/>
	
		<g id="text4802" transform="scale(0.99750854,1.0024977)" inkscape:transform-center-y="-27.948124" inkscape:transform-center-x="2.3836419">
		<path id="path4727" d="M1197.5,137h9.7v4.2h-16V137l8.1-7.1c0.7-0.7,1.3-1.3,1.6-1.9s0.5-1.3,0.5-1.9c0-1-0.3-1.9-1-2.5
			c-0.7-0.6-1.6-0.9-2.8-0.9c-0.9,0-1.9,0.2-2.9,0.6c-1.1,0.4-2.2,0.9-3.4,1.7v-4.8c1.3-0.4,2.5-0.7,3.8-1c1.3-0.2,2.5-0.3,3.7-0.3
			c2.6,0,4.7,0.6,6.2,1.7c1.5,1.2,2.2,2.8,2.2,4.9c0,1.2-0.3,2.3-0.9,3.4c-0.6,1-1.9,2.4-3.9,4.2L1197.5,137z"/>
	</g>
	<ellipse id="path4806" class="st1" cx="1196.9" cy="130.7" rx="16.9" ry="17"/>
	<path id="path8126" inkscape:connector-curvature="0" d="M1461.2,122.8l-19.1,7.9l19.2,7.8c-0.9-2.5-1.4-5.1-1.4-7.8
		C1459.8,127.9,1460.3,125.3,1461.2,122.8z M1503.4,122.8c0.9,2.5,1.4,5.1,1.4,7.9c0,2.8-0.5,5.4-1.4,7.8l19.1-7.8L1503.4,122.8z"/>
	<path id="path8132" inkscape:connector-curvature="0" d="M1175.8,122.8l-19.1,7.9l19.2,7.8c-0.9-2.5-1.4-5.1-1.4-7.8
		C1174.4,127.9,1174.9,125.3,1175.8,122.8z M1218,122.8c0.9,2.5,1.4,5.1,1.4,7.9c0,2.8-0.5,5.4-1.4,7.8l19.1-7.8L1218,122.8z"/>
	<path id="path8138" inkscape:connector-curvature="0" d="M890.4,122.8l-19.1,7.9l19.2,7.8c-0.9-2.5-1.4-5.1-1.4-7.8
		C889,127.9,889.5,125.3,890.4,122.8z M932.6,122.8c0.9,2.5,1.4,5.1,1.4,7.9c0,2.8-0.5,5.4-1.4,7.8l19.1-7.8L932.6,122.8z"/>
	<g id="text4418" transform="scale(0.99750854,1.0024977)">
		<path id="path4712" d="M2052.8,23.2h14.1v4.2h-9.6v3.4c0.4-0.1,0.9-0.2,1.3-0.3c0.4-0.1,0.9-0.1,1.4-0.1c2.7,0,4.8,0.7,6.3,2
			c1.5,1.3,2.2,3.2,2.2,5.6c0,2.4-0.8,4.3-2.5,5.6c-1.6,1.4-3.9,2-6.8,2c-1.3,0-2.5-0.1-3.7-0.4c-1.2-0.2-2.4-0.6-3.7-1.1v-4.5
			c1.2,0.7,2.3,1.2,3.4,1.6c1.1,0.3,2.1,0.5,3.1,0.5c1.4,0,2.5-0.3,3.3-1c0.8-0.7,1.2-1.6,1.2-2.7c0-1.2-0.4-2.1-1.2-2.7
			c-0.8-0.7-1.9-1-3.3-1c-0.8,0-1.7,0.1-2.6,0.3c-0.9,0.2-1.9,0.5-3,1L2052.8,23.2z"/>
	</g>
	<ellipse id="path4422" class="st1" cx="2053.1" cy="34.8" rx="16.9" ry="17"/>
	<rect id="rect4727" x="769.1" y="13.6" class="st0" width="1426.4" height="42.5"/>
	<path id="path4741" inkscape:connector-curvature="0" class="st3" d="M1054.2,55.9V13.8"/>
	<path id="path4750" inkscape:connector-curvature="0" class="st3" d="M1339.6,55.9V13.8"/>
	<path id="path4764" inkscape:connector-curvature="0" class="st3" d="M1625,55.9V13.8"/>
	<path id="path4766" inkscape:connector-curvature="0" class="st3" d="M1910.4,55.9V13.8"/>
	<g id="text4794" transform="scale(0.99750854,1.0024977)">
		<path id="path4736" d="M907.2,41.7h5V27.4l-5.2,1.1v-3.9l5.1-1.1h5.4v18.1h5v3.9h-15.4V41.7z"/>
	</g>
	<ellipse id="path4798" class="st1" cx="911.5" cy="34.8" rx="16.9" ry="17"/>
	
		<g id="text4818" transform="scale(0.99750854,1.0024977)" inkscape:transform-center-y="-27.948125" inkscape:transform-center-x="2.3836419">
		<path id="path4721" d="M1197.5,41.5h9.7v4.2h-16v-4.2l8.1-7.1c0.7-0.7,1.3-1.3,1.6-1.9c0.3-0.6,0.5-1.3,0.5-1.9c0-1-0.3-1.9-1-2.5
			c-0.7-0.6-1.6-0.9-2.8-0.9c-0.9,0-1.9,0.2-2.9,0.6c-1.1,0.4-2.2,0.9-3.4,1.7v-4.8c1.3-0.4,2.5-0.7,3.8-1c1.3-0.2,2.5-0.3,3.7-0.3
			c2.6,0,4.7,0.6,6.2,1.7c1.5,1.2,2.2,2.8,2.2,4.9c0,1.2-0.3,2.3-0.9,3.4c-0.6,1-1.9,2.4-3.9,4.2L1197.5,41.5z"/>
	</g>
	<ellipse id="path4822" class="st1" cx="1196.9" cy="34.8" rx="16.9" ry="17"/>
	<g id="text4834" transform="scale(0.99750854,1.0024977)">
		<path id="path4697" d="M1491.7,33.6c1.5,0.4,2.6,1.1,3.4,2c0.8,0.9,1.2,2.2,1.2,3.6c0,2.2-0.8,3.9-2.5,5c-1.7,1.1-4.1,1.7-7.3,1.7
			c-1.1,0-2.3-0.1-3.4-0.3c-1.1-0.2-2.3-0.4-3.4-0.8v-4.4c1.1,0.5,2.1,0.9,3.2,1.2c1.1,0.3,2.1,0.4,3.1,0.4c1.5,0,2.7-0.3,3.5-0.8
			c0.8-0.5,1.2-1.3,1.2-2.2c0-1-0.4-1.8-1.2-2.3c-0.8-0.5-2-0.8-3.6-0.8h-2.3v-3.7h2.4c1.4,0,2.5-0.2,3.2-0.7c0.7-0.5,1-1.1,1-2.1
			c0-0.8-0.3-1.5-1-2c-0.7-0.5-1.6-0.7-2.9-0.7c-0.9,0-1.8,0.1-2.8,0.3c-0.9,0.2-1.9,0.5-2.8,0.9v-4.2c1.1-0.3,2.2-0.6,3.3-0.7
			c1.1-0.2,2.2-0.2,3.3-0.2c2.9,0,5,0.5,6.4,1.4c1.4,0.9,2.1,2.4,2.1,4.2c0,1.3-0.3,2.4-1,3.2C1494.1,32.6,1493.1,33.2,1491.7,33.6
			L1491.7,33.6z"/>
	</g>
	<ellipse id="path4838" class="st1" cx="1482.3" cy="34.8" rx="16.9" ry="17"/>
	<g id="text4842" transform="scale(0.99750854,1.0024977)">
		<path id="path4709" d="M1773.3,28.3l-6.2,9.2h6.2V28.3z M1772.3,23.6h6.3v13.9h3.1v4.1h-3.1v4h-5.4v-4h-9.8v-4.9L1772.3,23.6z"/>
	</g>
	<ellipse id="path4846" class="st1" cx="1767.7" cy="34.8" rx="16.9" ry="17"/>
	<path id="path8116" inkscape:connector-curvature="0" d="M2032,27l-19.1,7.9l19.2,7.8c-0.9-2.5-1.4-5.1-1.4-7.8
		C2030.6,32.1,2031.1,29.4,2032,27z M2074.1,27c0.9,2.5,1.4,5.1,1.4,7.9c0,2.8-0.5,5.4-1.4,7.8l19.1-7.8L2074.1,27z"/>
	<path id="path8122" inkscape:connector-curvature="0" d="M1746.6,27l-19.1,7.9l19.2,7.8c-0.9-2.5-1.4-5.1-1.4-7.8
		C1745.2,32.1,1745.7,29.4,1746.6,27z M1788.8,27c0.9,2.5,1.4,5.1,1.4,7.9c0,2.8-0.5,5.4-1.4,7.8l19.1-7.8L1788.8,27z"/>
	<path id="path8128" inkscape:connector-curvature="0" d="M1461.2,27l-19.1,7.9l19.2,7.8c-0.9-2.5-1.4-5.1-1.4-7.8
		C1459.8,32.1,1460.3,29.4,1461.2,27z M1503.4,27c0.9,2.5,1.4,5.1,1.4,7.9c0,2.8-0.5,5.4-1.4,7.8l19.1-7.8L1503.4,27z"/>
	<path id="path8134" inkscape:connector-curvature="0" d="M1175.8,27l-19.1,7.9l19.2,7.8c-0.9-2.5-1.4-5.1-1.4-7.8
		C1174.4,32.1,1174.9,29.4,1175.8,27z M1218,27c0.9,2.5,1.4,5.1,1.4,7.9c0,2.8-0.5,5.4-1.4,7.8l19.1-7.8L1218,27z"/>
	<path id="path8140" inkscape:connector-curvature="0" d="M890.4,27l-19.1,7.9l19.2,7.8c-0.9-2.5-1.4-5.1-1.4-7.8
		C889,32.1,889.5,29.4,890.4,27z M932.6,27c0.9,2.5,1.4,5.1,1.4,7.9c0,2.8-0.5,5.4-1.4,7.8l19.1-7.8L932.6,27z"/>
</g>
</svg>
