<?xml version="1.0" encoding="UTF-8" standalone="no"?>
<!-- Created with Inkscape (http://www.inkscape.org/) -->

<svg
   xmlns:dc="http://purl.org/dc/elements/1.1/"
   xmlns:cc="http://creativecommons.org/ns#"
   xmlns:rdf="http://www.w3.org/1999/02/22-rdf-syntax-ns#"
   xmlns:svg="http://www.w3.org/2000/svg"
   xmlns="http://www.w3.org/2000/svg"
   xmlns:sodipodi="http://sodipodi.sourceforge.net/DTD/sodipodi-0.dtd"
   xmlns:inkscape="http://www.inkscape.org/namespaces/inkscape"
   width="210mm"
   height="297mm"
   viewBox="0 0 210 297"
   version="1.1"
   id="svg8"
   inkscape:version="0.92.1 r15371"
   sodipodi:docname="ships-scums.svg">
  <defs
     id="defs2" />
  <sodipodi:namedview
     id="base"
     pagecolor="#ffffff"
     bordercolor="#666666"
     borderopacity="1.0"
     inkscape:pageopacity="0.0"
     inkscape:pageshadow="2"
     inkscape:zoom="3.959798"
     inkscape:cx="195.47859"
     inkscape:cy="884.23899"
     inkscape:document-units="mm"
     inkscape:current-layer="layer1"
     showgrid="false"
     inkscape:window-width="1920"
     inkscape:window-height="1016"
     inkscape:window-x="0"
     inkscape:window-y="27"
     inkscape:window-maximized="1" />
  <metadata
     id="metadata5">
    <rdf:RDF>
      <cc:Work
         rdf:about="">
        <dc:format>image/svg+xml</dc:format>
        <dc:type
           rdf:resource="http://purl.org/dc/dcmitype/StillImage" />
        <dc:title />
      </cc:Work>
    </rdf:RDF>
  </metadata>
  <g
     inkscape:label="Layer 1"
     inkscape:groupmode="layer"
     id="layer1">
    <path
       sodipodi:nodetypes="ccccccccccccccccccccccccccccccccccc"
       inkscape:connector-curvature="0"
       id="path3704"
       d="m 21.53302,24.246502 -5.909816,-4.44266 0.03688,0.70734 5.579411,4.44238 -0.389549,0.71103 0.29583,0.43687 -0.149391,0.30707 2.957171,3.2146 -1.536598,0.53201 -9.067313,-7.17819 c -0.753326,0.35252 -1.905253,0.51493 -3.278825,0.84494 l -1.8366299,-1.70748 c 0.260561,-0.707 0.624993,-1.16508 1.9210309,-2.59957 -0.4466269,-0.50828 -0.5471179,-0.98012 -0.7263899,-1.57582 0.177963,-0.71081 0.7944649,-1.42746 1.3424809,-1.85682 0.567416,-0.0171 0.9739,0.17219 1.438091,0.33706 l -0.812099,-1.06005 c 0.483259,-1.52172 1.636916,-2.44608 3.048738,-2.89466 l 1.13879,1.06115 c -0.147932,-0.46987 -0.253775,-0.88295 -0.216069,-1.44937 0.485554,-0.50921 1.173994,-0.95469 1.872492,-1.13879 0.588806,0.20076 1.112907,0.5705 1.604658,1.03526 1.418527,-1.30035 2.084214,-1.64158 2.813512,-1.73851 l 1.563347,1.71577 c -0.379596,1.3607 -0.658537,2.41436 -1.038133,3.15441 l 6.493857,9.01739 -0.587382,1.51629 -3.105253,-3.07179 -0.312283,0.13815 -0.425857,-0.31147 -0.724687,0.36351 -4.200532,-5.46232 -0.682343,-0.0371 4.165639,5.76715 c -0.310024,0.6631 -0.524304,0.86265 -1.272773,1.22226 z"
       style="fill:#000000;fill-opacity:1;stroke:none;stroke-width:0.07246847px;stroke-linecap:butt;stroke-linejoin:miter;stroke-opacity:1" />
    <path
       style="fill:#000000;fill-opacity:1;stroke:none;stroke-width:0.07659361px;stroke-linecap:butt;stroke-linejoin:miter;stroke-opacity:1"
       d="m 13.342393,116.00347 1.258323,0.38297 c 0.06151,0.23856 0.564198,-0.53947 1.094195,-0.38297 -0.400059,0.64256 0.03724,1.07575 0.164129,1.58657 -0.388367,-0.0935 -0.796655,-0.13394 -1.080518,-0.50606 -0.751907,-0.0416 -1.285514,0.0189 -1.490839,0.23253 l -0.806967,-0.76594 -5.5120057,0.32825 -0.019887,1.48837 c 0.4955141,1.33704 2.8930514,1.34902 4.3359077,1.49109 1.060928,0.10455 1.210761,-0.4843 1.756765,0.16635 0.29695,3.59699 2.133692,8.5604 3.515099,9.90246 1.38141,1.34207 2.557683,1.0942 2.557683,1.0942 0.353276,1.47279 0.658893,3.04876 0.506062,4.43149 0.826499,0.97188 2.066004,2.43674 2.749163,2.70813 0.683158,0.27138 1.340389,-0.71124 1.340389,-0.71124 l 0.167358,-1.8669 0.500878,-0.19126 0.03341,-0.9808 1.20653,0.75552 0.150452,-0.30099 -1.801666,-1.33517 0.613427,-9.4633 0.364313,-0.92137 0.06466,-1.42491 c 0,0 0.860604,-0.33759 1.340388,-1.13522 0.479784,-0.79763 0.287224,-1.76439 0.287224,-1.76439 l 0.506066,-0.25986 0.902712,0.67019 c 0.417652,0.0348 0.794,0.0219 1.627612,0.10935 l 2.051616,-0.36928 c 0.03245,-0.80566 -0.270969,-1.81598 -1.148904,-2.69446 l -4.15794,0.16413 c -0.167977,-0.40744 -0.402016,-0.76533 -0.820646,-0.98478 -0.142994,-1.75806 -1.096161,-3.84588 -2.133676,-5.03329 -1.037516,-1.18741 -2.209409,-2.21454 -3.884393,-2.13367 -1.674983,0.0808 -4.148256,2.25682 -4.814455,3.21419 -0.6662,0.95737 -1.31162,2.46586 -1.422453,4.49988 z"
       id="path4530"
       inkscape:connector-curvature="0"
       sodipodi:nodetypes="cccccccccsczcczcccccccccczcccccccczzzcc" />
    <path
       style="fill:#000000;fill-opacity:1;stroke:none;stroke-width:0.10256403px;stroke-linecap:butt;stroke-linejoin:miter;stroke-opacity:1"
       d="m 169.82532,48.015212 -0.0392,-0.91315 0.5807,-0.28584 6.73292,0.10453 3.60806,2.68315 0.21063,-2.27106 c 0,0 3.92898,1.49675 5.11903,2.66484 1.19006,1.16808 2.95573,3.18817 3.09026,4.98168 0.13453,1.79352 0.004,3.27045 -0.97384,4.79593 -0.9781,1.52547 -3.06182,2.74986 -4.84849,3.65487 -1.78667,0.90502 -6.05913,1.87886 -6.05913,1.87886 -0.61376,0.55188 -0.94355,0.418879 -1.69023,0.571999 l -0.83908,-0.222719 c 0,0 -4.35615,0.0273 -6.54604,-0.4092 -2.1899,-0.4365 -4.39574,-1.12532 -6.70145,-2.20226 -2.30572,-1.07693 -4.68577,-2.93859 -5.68798,-4.66547 0.36717,-0.0768 0.54308,-0.0274 0.92908,0.0961 -0.52975,-0.39069 -0.65837,-0.59799 -0.81501,-1.0348 l 0.86749,0.1048 -0.26231,-0.82693 c -0.12326,-0.11967 -1.67201,-1.59471 -1.67201,-1.59471 0.19202,-0.94943 1.43041,-2.84013 1.43041,-2.84013 l 1.35347,-0.16353 1.35791,1.28833 0.25381,-0.2627 -1.75824,-1.68497 -0.0855,-0.758679 0.61471,-0.05372 1.30231,-1.055742 -0.14652,-2.74724 1.90477,-0.46531 1.31868,0.75837 0.0366,1.13554 c 0,0 1.40503,-0.64375 2.1978,-0.36626 0.79278,0.27748 1.90477,2.38095 1.90477,2.38095 l 4.0293,3.663 -0.0733,0.54945 2.53189,2.201347 4.74984,-1.707895 z"
       id="path4558"
       inkscape:connector-curvature="0"
       sodipodi:nodetypes="cccccczzzzccczzcccccccccccccccccczcccccc" />
    <path
       style="fill:#000000;fill-opacity:1;stroke:none;stroke-width:0.08258181px;stroke-linecap:butt;stroke-linejoin:miter;stroke-opacity:1"
       d="m 44.183911,17.365251 0.834204,-0.166841 -0.250261,0.583939 0.04171,0.750784 0.834203,0.959336 0.392299,0.800691 0.316772,0.11693 c 0,0 1.87749,2.847959 2.13835,3.140294 0.0647,0.07245 0.17083,0.258177 0.38511,0.332071 0.0781,0.02694 0.88404,0.11046 1.31387,-0.01042 0.42983,-0.120885 0.80374,-0.322592 1.18874,-0.844629 0.0305,-0.636738 -1.39725,-4.410846 -1.39725,-4.410846 l -1.71011,-2.711157 -0.4497,-1.48334 0.494531,-0.241214 1.012305,1.747526 0.650759,-0.274711 0.330727,0.492773 0.70907,-0.417102 -0.31301,-0.486128 0.474588,-0.245001 -0.35835,-0.620162 0.34252,-0.152089 0.993827,1.296308 0.437862,-0.247957 -0.850315,-1.201618 0.370453,-0.149417 0.387181,-0.255514 0.022,-0.337955 -7.579026,-5.0022668 -0.541076,0.382766 -0.305344,-0.479561 -1.209594,-0.406674 -0.385818,0.291973 -0.980186,-0.302397 -1.459855,1.345147 -0.656935,-0.239833 -2.627737,2.6277368 -0.583942,-0.271114 -0.355789,0.252434 -0.04046,1.582812 -2.844489,2.913633 c 0.08881,0.374688 0.115419,0.380125 0.258463,0.53788 l 1.293015,-0.656935 0.383791,0.73843 0.475619,-0.05426 c 0,0 0.32797,1.119803 0.475616,1.325812 l 0.591838,-0.133229 c -0.07686,-0.40589 -0.351659,-0.985545 -0.39402,-1.303237 l 0.784395,-0.203995 0.435019,1.298074 0.64853,-0.157831 0.260689,0.621605 0.627776,-0.195794 -0.166941,-0.613403 0.613705,-0.210272 -0.62332,-2.016665 2.490059,-0.400901 0.621702,1.047005 0.627475,0.0084 0.573512,1.167882 z"
       id="path5138"
       inkscape:connector-curvature="0"
       sodipodi:nodetypes="cccccccsszcccccccccccccccccccccccccccccccccccccccccccccccccccc" />
    <path
       style="fill:#000000;fill-opacity:1;stroke:none;stroke-width:0.0791963px;stroke-linecap:butt;stroke-linejoin:miter;stroke-opacity:1"
       d="m 65.701191,14.115978 -1.040004,0.04 -3.600015,-8.1600396 -0.488183,0.19425 -0.15182,1.64576 1.103436,3.6400196 -0.748287,2.55515 0.833141,2.0877 4.115164,-0.12484 -0.863435,0.80201 0.320001,2.64001 0.880004,0.56 0.08,2.16001 1.060004,0.19001 0.140001,0.52999 0.920005,0.2 v 0.32001 l -0.460002,0.44 -0.06,0.76 -2.720011,0.88001 -0.03,1.78 -0.260001,0.20001 -2.990014,-0.82001 -0.680002,1.24 0.490001,0.77001 0.110001,0.75 -0.550002,0.51 0.11,0.89001 1.470006,-0.17 1.770008,-1.84001 1.160005,0.1 -0.09,1.10001 c 0.803047,0.25779 4.251955,-0.73232 4.250019,-4.87003 l 0.960002,0.16 c 0.02761,2.925563 0.104703,3.871793 2.110008,3.90002 l 0.610006,-1.58 0.33,0.04 0.110001,1.52 h 0.520002 l 0.43,-0.44 0.370005,-1.16 1.080005,-1.14001 0.186182,-0.6648 -0.386185,-0.63521 -1.200007,0.65001 -0.329997,-0.05 0.4,-0.79 -0.430001,-0.63001 -1.450009,-0.1 -0.590002,-0.98 -0.09,-1.65001 0.520002,-0.05 0.23312,0.16712 0.376882,0.42289 0.800005,0.17 0.2,-0.24001 -0.119999,-0.48 -0.400002,-0.32 0.08,-0.2 -0.730002,-0.88 0.179999,-0.45001 1.300005,-0.52993 0.370002,-0.42 0.08,-1.20001 -0.230004,-1.44001 -0.810002,-0.68 0.370001,-0.32 2.350009,-0.2 0.188284,-1.64001 -0.762012,-2.42344 -0.21657,-3.3482896 -0.534706,-1.6733002 -0.581424,-0.035 -0.538436,7.8868898 -0.550297,0.11315 -0.39515,-3.04286 c -2.102792,1.06538 -2.807626,4.86149 -3.009718,8.88288 l -0.520002,0.04 c -0.355559,-4.39942 -2.127213,-6.90214 -4.360019,-8.44004 z"
       id="path5175"
       inkscape:connector-curvature="0"
       sodipodi:nodetypes="cccccccccccccccccccccccccccccccccccccccccccccccccccccccccccccccccccccccccccccccc" />
    <path
       style="fill:#000000;fill-opacity:1;stroke:none;stroke-width:0.07411765px;stroke-linecap:butt;stroke-linejoin:miter;stroke-opacity:1"
       d="m 86.934526,18.77396 0.952941,-2.75295 2.187675,2.87238 0.520977,0.45114 1.4737,2.20884 0.29118,-0.18529 -0.29118,-0.39706 0.0529,-0.29118 -0.87353,-1.24412 c -0.42896,-1.05839 1.27961,-1.75188 1.77353,-1.08529 l 0.91324,1.21765 0.77426,0.21176 0.90662,1.03235 0.37059,-0.34412 -1.40294,-1.77353 -0.0529,-0.68823 -1.85294,-2.72647 3.81176,1.37647 2.72647,3.52059 c 0,0 3.541931,0.52717 4.447061,0.9265 l 1.27059,2.01177 -1.48235,0.31764 -0.1853,0.84706 -3.25588,0.95294 c 0,0 -0.0911,0.34328 -0.239561,0.42486 -0.1485,0.0816 -0.52809,-0.0278 -0.52809,-0.0278 0,0 -0.0868,0.53205 -0.43449,0.85215 -0.499,0.45935 -1.31247,0.57507 -1.85515,0.61524 -0.27141,0.0201 -1.051799,-0.214465 -1.051799,-0.214465 L 95.313409,26.43683 c 0,0 -0.10197,0.26235 -0.27888,0.3048 -0.17692,0.0425 -0.6353,-0.23823 -0.6353,-0.23823 l -3.8647,0.37058 -0.423532,-0.52941 -1.429412,0.15883 -1.508824,-2.03824 c 0.949912,-1.241946 1.397098,-1.576566 2.170589,-1.98529 z"
       id="path5203"
       inkscape:connector-curvature="0"
       sodipodi:nodetypes="cccccccccccccccccccccccczcsscczccccccc" />
    <path
       style="fill:#000000;fill-opacity:1;stroke:none;stroke-width:0.09961755px;stroke-linecap:butt;stroke-linejoin:miter;stroke-opacity:1"
       d="m 129.0766,26.038741 c 0,0 0.73893,1.74512 2.2805,1.64906 1.54157,-0.0961 1.89595,-1.04681 2.0717,-1.2717 l 1.0566,0.45283 -0.15094,-0.60377 -0.69183,-0.36479 c 0.18775,-0.79643 -0.10737,-1.49926 -0.64151,-2.25157 l 0.20126,-0.30188 c 0.83113,0.26837 2.30626,-0.57516 2.30956,-2.17428 0.003,-1.59914 -1.22779,-2.12761 -1.22779,-2.12761 l -1.15724,-1.48428 -1.15723,-1.66038 -2.86792,-2.01257 3.19496,-2.26415 -1.20754,-1.03145 -0.22642,0.42767 -3.37107,1.81132 -1.03145,-0.5283 c -0.46438,-0.22492 -0.70708,0.12832 -0.47798,0.37736 l 0.72956,0.65409 -0.3522,0.27673 c -0.42446,-0.4676 -0.8856,-0.41072 -1.3801,-0.13762 -0.4945,0.27309 -1.1557,1.01305 -0.94066,1.34829 v 0 c 0,0 -0.40162,-0.43119 -1.52559,-0.12016 -1.12397,0.31102 -1.26057,0.92204 -1.26057,0.92204 l -0.93082,-0.67924 -1.30818,-0.04083 -0.96149,-0.733337 c -0.72085,0.19212 -1.37903,0.424817 -1.78064,0.799357 l -0.27673,0.65408 -5.03145,-0.65408 0.85535,1.20754 4.02515,0.80503 1.15724,2.03774 0.90566,1.43396 -2.08805,1.86164 -0.75472,1.25786 0.75472,0.90566 3.01886,-2.54088 0.57862,1.20754 2.06289,1.45913 1.63522,1.63522 0.93082,1.08176 -1.83648,2.4654 0.60378,0.80504 2.2893,-2.11321 c -0.0232,0.0148 1.59538,1.30282 3.02581,0.3405 1.43043,-0.96233 0.64715,-2.70528 0.64715,-2.70528 z"
       id="path5231"
       inkscape:connector-curvature="0"
       sodipodi:nodetypes="czcccccczcccccccccccczcczcccccccccccccccccccccczcc" />
    <path
       style="opacity:0.97000002;fill:#000000;fill-opacity:1;stroke:none;stroke-width:0.10153326px;stroke-linecap:butt;stroke-linejoin:miter;stroke-opacity:1"
       d="m 154.06025,22.28567 1.33333,0.92307 0.61539,-1.1282 5.33333,-2.07692 1.4359,0.25641 0.35897,-1.71795 5.85191,-4.603722 1.15385,1.655299 0.26316,-0.177528 -1.07124,-1.679518 0.16098,-0.118864 1.44703,2.131072 0.23218,-0.185132 -1.33707,-2.186818 0.58124,-0.424529 -3.48718,-5.6666705 -0.89789,-0.29266 -0.82006,0.7542 -7.46154,0.53846 -1.78846,-1.97436 -0.58334,0.30769 0.73077,1.51923 -0.70341,-0.107813 -0.83788,0.2689737 -0.33459,0.4406241 -0.72379,-0.06563 -0.8235,0.4132147 -0.26913,0.6339809 -0.56411,-1.79487 -0.71794,0.25641 V 11.08055 l -5.20513,4.12821 -1.76923,0.30769 -0.46154,1 1.28997,6.08947 0.38491,-0.02663 0.83794,3.321772 0.47192,-0.109457 -0.83599,-3.239544 0.29476,-0.01136 0.55447,2.090269 0.4892,-0.140155 -0.51282,-2 z"
       id="path5259"
       inkscape:connector-curvature="0"
       sodipodi:nodetypes="cccccccccccccccccccccccccccccccccccccccccccc" />
    <g
       transform="matrix(0.45360834,0,0,0.45360834,3.6936792,66.988373)"
       id="g879">
      <g
         id="g180">
        <circle
           style="fill:#000000;fill-opacity:1;stroke:none;stroke-width:0.26458332;stroke-opacity:1"
           id="path42"
           cx="84.427177"
           cy="140.82549"
           r="1.2514023" />
        <circle
           style="fill:#000000;fill-opacity:1;stroke:none;stroke-width:0.26458332;stroke-opacity:1"
           id="path48"
           cx="121.59852"
           cy="104.88294"
           r="1.503391" />
        <circle
           style="fill:#000000;fill-opacity:1;stroke:none;stroke-width:0.26458332;stroke-opacity:1"
           id="path50"
           cx="101.96738"
           cy="113.38178"
           r="2.271791" />
        <circle
           style="fill:#000000;fill-opacity:1;stroke:none;stroke-width:0.26458332;stroke-opacity:1"
           id="path52"
           cx="92.675705"
           cy="122.67345"
           r="2.4054255" />
        <circle
           style="fill:#000000;fill-opacity:1;stroke:none;stroke-width:0.26458332;stroke-opacity:1"
           id="path54"
           cx="99.248184"
           cy="128.99277"
           r="2.5724692" />
        <circle
           style="fill:#000000;fill-opacity:1;stroke:none;stroke-width:0.26458332;stroke-opacity:1"
           id="path58"
           cx="111.10706"
           cy="119.36598"
           r="2.1715648" />
        <circle
           style="fill:#000000;fill-opacity:1;stroke:none;stroke-width:0.26458332;stroke-opacity:1"
           id="path60"
           cx="98.58905"
           cy="118.29691"
           r="3.4410951" />
        <path
           style="fill:#000000;fill-opacity:1;stroke:none;stroke-width:0.26458332px;stroke-linecap:butt;stroke-linejoin:miter;stroke-opacity:1"
           d="m 90.525274,123.83425 1.700554,3.63221 -9.562952,9.18796 -0.712686,-0.82297 -0.868627,0.53454 0.569276,1.3782 0.347467,1.24666 1.377635,1.0517 2.642444,4.47544 -0.24954,0.36793 0.233297,0.35761 0.208892,-0.33089 1.140629,1.98025 0.40041,-0.2155 -0.842192,-2.12945 0.34518,-0.069 -0.187848,-0.41612 -0.359089,0.009 -1.913833,-4.44327 1.350016,-1.23308 2.589172,0.16705 5.061417,-4.74404 0.250566,-2.23838 1.503392,-1.45328 2.214821,0.9973 4.068295,-2.0355 0.8191,-1.6939 11.8071,5.93933 1.80407,2.20498 7.69775,1.84927 2.92622,-2.85153 -5.38273,-5.53012 -1.18222,-0.7608 -1.08958,0.0258 -8.26897,-6.3958 1.72481,-1.00325 0.0757,-2.78766 -1.7289,-1.38368 1.08528,-2.67744 2.7159,0.33409 4.87361,-4.97622 -0.29495,-2.35413 1.52534,-1.48955 6.97329,0.71784 0.64054,1.01908 0.69429,0.0536 -0.3574,-0.97204 1.13644,0.11699 0.0438,-0.54067 -1.08704,-0.23384 0.38447,-0.9828 -0.64883,-0.0154 -0.73847,0.84371 -6.79173,-1.05294 -0.73012,-0.95355 -1.98858,-0.62553 -1.62963,0.31241 0.084,1.53402 -9.54889,7.92881 -2.13815,-0.66817 -2.33861,-0.53454 -3.875413,5.81311 -2.931283,2.93116 -1.841346,0.98039 z"
           id="path62"
           inkscape:connector-curvature="0"
           sodipodi:nodetypes="ccccccccccccccccccccccccccccccccccccccccccccccccccccccccccccccccc" />
      </g>
    </g>
    <path
       style="fill:#000000;fill-opacity:1;stroke:none;stroke-width:0.06803776px;stroke-linecap:butt;stroke-linejoin:miter;stroke-opacity:1"
       d="m 8.1713625,48.149429 -0.6185564,0.54983 -1.2027491,4.70791 9.621992,5.80755 c 0.128866,1.17698 1.214291,1.30071 1.924398,1.16839 0.710107,-0.13232 1.563574,-0.79038 1.271478,-1.64949 l 0.23332,-0.18504 c 0.721649,0.0344 0.754596,-0.43155 0.763243,-0.60533 0.0063,-0.12711 -0.064,-0.55675 -0.633527,-0.60831 -0.05887,-0.005 -0.01939,-0.14771 -0.01939,-0.14771 l 0.859107,-0.10309 5.532646,4.50172 1.477662,0.13746 c 1.468819,1.07617 2.968109,1.8781 4.501719,2.37113 l 0.309277,-0.68729 c -0.792146,-1.62516 -2.146239,-2.80076 -3.23024,-4.19244 l -0.412369,-0.34364 -0.618557,0.27492 0.06873,-1.03093 -1.065293,-0.72165 2.474229,-1.03093 4.364261,2.50859 0.652918,-0.34364 -0.06873,0.65292 c 1.615119,0.78685 3.230243,1.35437 4.845363,1.75258 l 0.34364,-0.13746 0.103092,-0.82474 c -0.801829,-1.00133 -1.603666,-1.79631 -2.405495,-2.47423 l -0.721652,-0.34364 -0.618555,-0.75601 -0.412369,-0.24055 0.03436,-0.51547 -2.92096,-2.19931 0.79038,-0.30928 c 0.94767,0.77758 2.344625,0.62588 2.749138,-0.17182 0.404513,-0.7977 0.146216,-2.05352 -1.40893,-2.19931 l -6.632304,-5.49829 -0.206186,0.0687 -0.446734,-0.378 0.06873,-0.34365 -7.182129,-0.51546 -0.06873,1.27148 7.491409,2.13058 0.996564,3.50516 -0.996564,-0.20619 -4.329898,-2.50859 0.06873,-0.13746 -5.498281,-2.71477 -0.756013,0.0344 -0.24055,0.0687 -0.412371,0.41237 0.137457,0.10309 -0.652921,0.20619 -0.515464,-0.0687 -1.134021,0.34364 -0.309278,0.30928 0.137458,3.53952 2.302405,3.09278 0.584193,0.0687 0.962198,1.06529 -0.206186,1.03093 c -0.242166,-0.21024 -0.707822,0.19721 -0.515464,0.51547 l 0.790378,1.16838 -1.340206,0.0344 0.06873,-2.06185 -4.398625,-3.3677 -4.0206188,-0.20618 z"
       id="path937"
       inkscape:connector-curvature="0"
       sodipodi:nodetypes="cccczccssccccccccccccccccccccccccczccccccccccccccccccccccccccccccccc" />
    <path
       style="fill:#000000;fill-opacity:1;stroke:none;stroke-width:0.07902144px;stroke-linecap:butt;stroke-linejoin:miter;stroke-opacity:1"
       d="m 56.309419,49.178481 -5.627572,2.474536 c -0.413255,-0.235185 -0.780289,-0.339405 -0.878061,0.319291 l -3.552155,1.476736 1.676298,1.636396 9.858229,-1.436836 c 0.93756,0.516705 1.569917,0.168675 2.195151,-0.19956 l 1.396915,-0.1197 1.157444,0.91797 -0.558767,0.478951 13.051179,10.137593 -0.279386,0.91797 8.630644,5.25468 1.86617,-1.82226 -0.27938,-0.15964 2.63419,-2.59428 0.27938,0.59868 3.07321,-2.55435 0.19956,-2.03552 -6.98457,-4.78941 -0.511523,0.153925 -4.941736,-3.39983 -0.413788,-0.984749 -6.681566,-4.43754 -0.263096,-0.591349 -3.214092,2.098188 -0.856907,2.25222 -1.596475,-1.357006 0.558767,-0.478935 0.758324,0.51885 c 0.582854,-1.593076 0.200919,-4.980333 0.11973,-7.7429 l -0.6785,-1.396921 -1.696255,-1.277176 -0.159647,0.818191 -0.393832,0.60316 c -0.495096,-0.27503 -0.768323,0.120929 -0.424361,0.534335 l -2.474535,4.230648 0.43903,0.279391 -0.718413,1.077615 -0.399119,-0.0798 -0.09978,-1.676296 -3.572112,-2.713997 c -0.796961,-0.613965 -2.113271,-0.878235 -2.953476,-0.19956 -0.840205,0.678675 -0.931511,1.725811 -0.239472,2.514437 z"
       id="path965"
       inkscape:connector-curvature="0"
       sodipodi:nodetypes="cccccccccccccccccccccccccccccccccccccccccczcc" />
    <path
       inkscape:connector-curvature="0"
       style="fill:#000000;fill-opacity:1;stroke:#000000;stroke-width:0.08014449px;stroke-linecap:butt;stroke-linejoin:miter;stroke-opacity:1"
       d="m 194.20315,18.782815 -0.45801,0.0286 -0.0209,0.65838 -12.287,1.11623 -0.88722,-0.57244 -0.37208,-0.0287 -1.17352,3.03407 4.59391,4.20758 h 0.58683 l 0.31479,-1.17352 0.40072,-0.11446 3.29172,2.80505 0.80144,3.06256 -0.57243,0.42936 0.17171,1.48847 -1.55123,0.0858 c -0.003,0.2652 -0.0425,0.52228 0.63521,0.94467 l 2.03225,-0.0286 1.25946,0.4865 c 0.3679,0.80719 1.03373,0.86958 1.8319,0.60108 l 2.97677,1.48847 c -0.2241,0.58342 0.31037,0.826179 1.32637,1.140019 l 1.18182,0.0216 c 1.88394,-0.01032 1.43282,-2.260859 1.52272,-2.983649 0.0899,-0.72279 -0.68086,-2.82915 -1.62653,-4.21745 -0.3999,-0.845955 -0.62775,-1.080178 -1.31675,-1.51695 -0.33338,-0.739981 -0.73961,-1.27491 -1.60289,-1.71747 l 0.42937,-3.11985 1.23081,-0.14322 c 0.61266,0.570697 1.52423,0.315141 1.00181,-0.14307 l 0.5153,-0.17172 1.37389,1.03045 0.51514,-0.14307 -0.80144,-3.00542 z m -0.19638,1.88918 0.31081,1.00181 1.74595,1.14488 -0.14307,0.34343 c -0.32656,-0.193196 -0.40861,-0.199899 -0.80912,-0.05212 l -2.99774,0.309754 c -1.12837,-0.341499 -2.57501,-0.435561 -3.26688,-0.356787 0,0 -0.41965,0.411189 -0.41361,0.843447 -0.56763,-0.306164 -2.23891,-0.566495 -3.05337,-0.598448 -0.32056,0.401544 -0.34509,0.361624 -0.28715,0.568587 l -2.39597,-2.088329 z"
       id="path1001"
       inkscape:transform-center-x="9.0722419"
       inkscape:transform-center-y="-5.2912549"
       sodipodi:nodetypes="cccccccccccccccccccccccsccccccccccccccccccccccc" />
    <path
       style="fill:#000000;fill-opacity:1;stroke:none;stroke-width:0.09195556px;stroke-linecap:butt;stroke-linejoin:miter;stroke-opacity:1"
       d="m 71.065362,118.88694 0.544356,1.46192 0.235524,-0.0617 1.340858,3.34582 -0.157861,0.45691 c 0,0 1.081871,2.56462 1.653305,2.98744 0.571436,0.42282 1.193263,0.54894 1.876279,0.52347 0.68302,-0.0255 1.245322,-0.49123 1.492085,-0.9524 0.246763,-0.46117 0.05194,-1.41452 -0.101825,-1.89882 -0.153766,-0.4843 -0.511413,-1.06568 -0.511413,-1.06568 l -0.243935,0.0476 -0.197046,-0.49262 2.922873,-1.18229 1.28081,1.11661 1.018078,-0.0657 1.116606,1.05091 -0.853873,1.74059 c 3.108333,3.1621 5.473551,4.46643 8.210314,6.69962 l 1.00735,0.22756 0.39356,-0.16188 0.923611,0.65005 0.32278,-0.18345 -0.553081,-0.83548 1.74821,-1.00647 0.980021,0.67492 0.34003,-0.22789 -0.564701,-0.87795 0.75899,-0.4674 -0.0309,-0.60111 c -1.480681,-2.58504 -3.067603,-5.07912 -4.93182,-7.40453 0,0 -1.876243,-0.55807 -2.430263,-0.59115 -0.47274,0.12948 -1.01808,0.3941 -1.01808,0.3941 l -0.75535,-0.59114 v -0.7882 l -1.018078,-0.91955 1.609218,-0.68967 c 0,0 1.09463,0.79918 1.69614,1.07415 0.601513,0.27496 1.380903,0.51544 1.871953,0.59114 0.49106,0.0757 0.96366,0.0454 1.37803,-0.11611 0.41437,-0.16148 0.68876,-0.39997 0.85518,-1.0005 0.16642,-0.60053 -0.39988,-1.41794 -0.81175,-2.03815 -0.41188,-0.62022 -1.465149,-1.13552 -1.465149,-1.13552 l -0.495371,-0.0876 -4.900981,-2.5092 -0.51584,-0.42096 -0.75102,-0.19506 -1.59596,0.88671 -0.144971,1.05656 0.633601,1.14546 1.48748,1.0413 -1.34649,0.62399 -0.919561,-0.59115 -0.70523,0.20224 -1.232405,-0.16937 -0.394096,0.72251 -1.445016,0.75535 0.09852,0.98524 -3.027742,1.14022 -1.208781,-1.76422 0.09653,-0.29159 -0.807429,-1.36374 -1.062532,0.0133 -1.313651,0.49262 z"
       id="path902"
       inkscape:connector-curvature="0"
       sodipodi:nodetypes="ccccczzzzccccccccccccccccccccccccccczzzzzccccccccccccccccccccccc" />
    <path
       style="fill:#000000;fill-opacity:1;stroke:none;stroke-width:0.10646388px;stroke-linecap:butt;stroke-linejoin:miter;stroke-opacity:1"
       d="m 123.83943,163.45962 1.10266,1.1597 -4.63878,1.673 -2.09126,-2.1673 0.20913,-0.3327 3.63118,-1.49239 1.03612,0.49429 0.86502,-0.5133 0.15209,-0.58936 -1.55894,-2.01521 -0.57034,-3.72623 2.92776,0.11407 1.06464,3.15589 1.15969,-0.36122 v -2.98479 l 3.25095,0.51331 0.13308,3.06084 2.8327,1.1787 1.55894,0.038 c 3.74022,1.47263 7.55124,2.73287 11.10266,4.77187 1.26567,1.69442 2.03631,3.47135 2.69962,5.26616 l -0.77947,0.1711 c -4.8258,-0.94712 -9.67064,-2.48792 -14.20152,-4.54372 l -0.46761,0.41403 1.79821,1.03083 -0.0864,0.12629 -1.91302,-0.96971 -0.46682,0.39407 -2.6666,-1.45179 1.12294,-1.17516 -3.90812,-1.9237 -1.13117,0.96959 -1.55894,-0.72244 z"
       id="path1062"
       inkscape:connector-curvature="0"
       sodipodi:nodetypes="cccccccccccccccccccccccccccccccccc" />
    <path
       inkscape:connector-curvature="0"
       style="fill:#000000;fill-opacity:1;stroke:none;stroke-width:0.09271447px;stroke-linecap:butt;stroke-linejoin:miter;stroke-opacity:1"
       d="m 127.77149,42.954947 c -0.7733,0.0734 -1.32833,0.4262 -1.60077,1.01932 l 0.75457,1.11547 c 0,0 -0.0887,0.64577 0.0116,1.08287 0.10033,0.4371 0.33944,0.86702 0.68558,1.45428 0.34614,0.58726 1.45156,2.01364 1.45156,2.01364 l -2.71588,0.98328 -4.77643,-3.09054 -1.68588,-0.14052 -3.88676,-2.66916 -1.63898,0.70242 0.0936,0.74932 -5.10419,2.01346 c 0,0 -0.65559,-0.46821 -0.70242,-0.65552 -0.0468,-0.18731 -1.59208,0.74932 -1.59208,0.74932 l 0.79604,3.93348 -1.26432,1.17071 0.53854,4.51892 -2.48555,0.89401 -2.70972,-3.38426 c -0.45183,-0.47473 -0.98755,-0.79691 -1.59371,-0.69844 l -0.812339,-0.99396 c -0.81054,-0.0673 -1.19485,0.39824 -1.51222,0.94742 l 0.57023,1.06604 c 0,0 0.0164,0.77545 0.13762,1.20909 0.12118,0.43364 0.17224,0.67238 0.5619,1.35812 0.38966,0.68574 3.701089,5.196589 3.701089,5.196589 l 1.90868,1.345002 0.85254,2.168299 2.85658,4.16763 0.43315,0.0587 c 0,0 0.98827,1.3797 1.67411,1.58031 0.68585,0.20061 1.07493,0.0991 1.40484,-0.43315 0.32992,-0.53228 0.0889,-1.21492 -0.11716,-1.76774 -0.20608,-0.55281 -0.67906,-1.1238 -0.67906,-1.1238 l -0.28086,-0.98346 -0.70242,-0.88966 1.96348,-0.51283 c 3.38926,1.93453 7.14176,2.64457 10.65655,2.42108 0.49106,0.407173 0.86672,0.671457 1.45754,0.39805 l 1.09465,1.45754 0.21657,-0.14631 -1.00682,-1.46333 0.88387,-0.42157 0.80201,0.71999 -0.19321,1.05951 0.46828,0.74914 0.47987,0.0176 0.43297,0.42591 0.18054,-0.0172 0.46955,0.64502 0.18144,-0.11716 -0.39802,-0.55592 c 0.72526,-0.12516 1.41448,-0.37062 1.90825,-1.26741 l 0.71691,0.77848 0.19322,-0.16968 -0.77848,-0.85453 0.079,-0.23413 -0.32776,-0.33664 0.0936,-1.26432 -0.42138,-0.93656 0.17565,-0.85471 -0.33953,-0.71401 0.38625,-0.28104 2.06054,2.61067 0.32777,-0.24591 -1.39326,-1.82622 c 2.16435,-1.81388 3.68824,-4.45756 3.09073,-8.28853 l 1.6857,-1.1707 1.54536,2.3414 0.70242,0.23414 c 0,0 1.36461,1.4462 1.94338,1.54536 0.57877,0.0992 0.77876,-0.10359 0.98346,-0.33953 0.20471,-0.23593 0.18828,-0.52772 0.17728,-0.89744 -0.011,-0.36973 -0.85634,-1.94737 -0.85634,-1.94737 l -0.26927,-0.85471 -2.55218,-3.1608 -1.27678,-1.138549 -0.53942,-1.690764 -1.30947,-1.958887 c 0,0 -2.94408,-4.13131 -4.01914,-4.86153 -1.07506,-0.73022 -1.41734,-0.45923 -1.41734,-0.45923 z m 2.99874,3.17692 1.13484,1.52399 -0.2383,0.18398 -1.15839,-1.52616 z m -2.06761,1.4789 1.08469,1.56003 -0.2441,0.1762 -1.10805,-1.56293 z m -26.16413,9.48983 1.12507,1.63374 -0.22346,0.14903 -1.14245,-1.62251 z m -2.14837,1.31865 1.12507,1.63391 -0.22346,0.14904 -1.14245,-1.62251 z"
       id="path1090"
       sodipodi:nodetypes="ccccsccccccccccccccccccccscccccccccccccccccccccccccccccccccccccccccccccccsccccccscccccccccccccccccccccc" />
    <path
       style="fill:#000000;fill-opacity:1;stroke:none;stroke-width:0.06318383px;stroke-linecap:butt;stroke-linejoin:miter;stroke-opacity:1"
       d="m 12.19647,83.83633 0.0319,-0.66602 c 0,0 -1.21593,-1.16668 -1.3512,-1.90145 -0.13527,-0.73478 0.1391,-1.61922 0.67424,-1.99353 0.53513,-0.3743 1.776999,-0.129647 2.1476,0.0187 0.186929,0.07482 0.602429,0.347886 0.935255,0.69952 0.32704,0.345524 0.573104,0.770367 0.573104,0.770367 0,0 0.446046,0.06137 0.895675,0.282193 0.545559,0.267934 1.127944,0.723281 1.329116,0.98271 0.366974,0.473245 0.49872,1.45421 0.49872,1.45421 l 1.53172,0.0374 -1.08315,-1.66986 0.0342,-1.14745 -0.70567,-1.09637 0.11396,-0.57575 1.2532,-0.65828 0.99562,-0.18874 0.002,-0.98741 -1.09637,-1.09637 c -0.43958,-0.43959 -0.63933,-1.53579 -0.37153,-2.14761 0.26781,-0.61182 0.67108,-0.96707 1.31108,-1.10458 0.63999,-0.13751 1.83169,-0.0506 2.29943,0.42761 0.46773,0.47822 1.23253,1.18983 1.33024,1.85586 0.0977,0.66603 -0.35645,1.36241 -0.69841,1.70951 -0.34195,0.34711 -0.80462,0.49371 -0.80462,0.49371 l 0.006,0.90537 0.727536,0.460416 0.568054,0.216804 0.90263,1.17341 1.39907,0.45132 c 0,0 -0.23507,-0.24407 -0.45131,-0.90263 -0.21624,-0.65856 -0.23708,-1.37582 0.31592,-1.89551 0.55299,-0.5197 1.934443,-0.4935 2.617613,-0.27079 0.68318,0.2227 1.103375,0.633595 1.103375,0.633595 l 0.500778,0.558772 0.697337,0.07131 c 0,0 1.38679,0.83002 1.76285,1.41502 0.37607,0.58501 0.68112,1.18642 0.6241,1.68808 -0.057,0.50167 -0.32995,0.97722 -0.6241,1.1552 -0.29414,0.17797 -1.04075,-0.016 -1.04075,-0.016 l -0.0451,0.7221 2.92305,2.21644 1.78155,0.16229 -0.005,0.6478 0.39961,0.17361 1.19868,0.0174 0.0369,0.73258 0.49419,0.29603 1.18341,0.0199 0.0187,0.5092 0.59304,0.3986 0.94143,-0.0138 0.59992,1.84264 -0.14587,0.85022 -0.49871,0.093 c 0,0 4.89533,6.024658 5.74075,7.136618 0.84541,1.11196 1.23822,2.448015 1.13148,2.874335 -0.10673,0.42632 -0.52659,0.77961 -1.05123,0.95597 -0.52464,0.17636 -1.71172,0.21763 -2.87472,0.13266 -1.163,-0.085 -3.22432,-0.69379 -5.55115,-1.85039 -2.32683,-1.156605 -7.95359,-5.50603 -7.95359,-5.50603 l -6.092733,0.45131 -0.706805,-0.611107 0.100314,-0.0098 -1.820341,-1.590029 -0.106764,-7.91e-4 -0.509386,-0.456864 0.08861,-0.0059 -1.537047,-1.326401 -0.109353,-0.01138 -0.496793,-0.395168 0.0825,-2.90389 2.40064,-0.57122 0.20375,-1.08495 -0.92906,-1.14197 -3.41582,0.11991 0.016,0.74901 c 0,0 0.78082,1.08388 0.80094,1.64796 0.0201,0.56407 -0.30796,1.33555 -0.74079,1.68034 -0.43284,0.34477 -1.51568,0.36653 -2.07604,0.18052 -0.20824,-0.06912 -2.018142,-1.392021 -2.140985,-1.680722 l -0.215953,-0.50752 -0.498753,-0.214007 c -0.334436,-0.143441 -0.941651,-0.95648 -1.070744,-1.163061 -0.385837,-0.617436 -0.55529,-1.07327 -0.49644,-1.53447 0.0588,-0.4612 0.36483,-0.80323 0.63184,-0.99289 0.26701,-0.18965 0.76722,-0.18053 0.76722,-0.18053 z"
       id="path1147"
       inkscape:connector-curvature="0"
       sodipodi:nodetypes="cczzsscsscccccccccszzzzzcccccczzzccczzzcccccccccccccccczzzzzccccccccccccccccczzsscsszzcc" />
  </g>
</svg>
