<?xml version="1.0" encoding="UTF-8" standalone="no"?>
<!-- Created with Inkscape (http://www.inkscape.org/) -->

<svg
   xmlns:dc="http://purl.org/dc/elements/1.1/"
   xmlns:cc="http://creativecommons.org/ns#"
   xmlns:rdf="http://www.w3.org/1999/02/22-rdf-syntax-ns#"
   xmlns:svg="http://www.w3.org/2000/svg"
   xmlns="http://www.w3.org/2000/svg"
   xmlns:sodipodi="http://sodipodi.sourceforge.net/DTD/sodipodi-0.dtd"
   xmlns:inkscape="http://www.inkscape.org/namespaces/inkscape"
   width="210mm"
   height="297mm"
   viewBox="0 0 210 297"
   version="1.1"
   id="svg84"
   inkscape:version="0.92.1 r15371"
   sodipodi:docname="ships-imperials.svg">
  <defs
     id="defs78" />
  <sodipodi:namedview
     id="base"
     pagecolor="#ffffff"
     bordercolor="#666666"
     borderopacity="1.0"
     inkscape:pageopacity="0.0"
     inkscape:pageshadow="2"
     inkscape:zoom="5.6"
     inkscape:cx="514.21943"
     inkscape:cy="845.74236"
     inkscape:document-units="mm"
     inkscape:current-layer="layer1"
     showgrid="false"
     inkscape:window-width="1920"
     inkscape:window-height="1016"
     inkscape:window-x="0"
     inkscape:window-y="27"
     inkscape:window-maximized="1" />
  <metadata
     id="metadata81">
    <rdf:RDF>
      <cc:Work
         rdf:about="">
        <dc:format>image/svg+xml</dc:format>
        <dc:type
           rdf:resource="http://purl.org/dc/dcmitype/StillImage" />
        <dc:title />
      </cc:Work>
    </rdf:RDF>
  </metadata>
  <g
     inkscape:label="Calque 1"
     inkscape:groupmode="layer"
     id="layer1">
    <path
       style="fill:#000000;fill-opacity:1;stroke:none;stroke-width:0.1012736px;stroke-linecap:butt;stroke-linejoin:miter;stroke-opacity:1"
       d="m 10.354028,4.318254 2.097187,2.91561 -3.3759597,4.91048 -0.05115,1.17647 3.2225057,-0.28133 -0.03836,-0.78005 c -0.802542,-0.70454 -0.660535,-2.33821 0.08951,-3.09463 0.750049,-0.75642 1.891543,-1.13764 3.017904,-0.70332 1.126361,0.43431 2.325032,1.92857 2.378516,2.78772 0.05348,0.85915 -0.498721,1.73913 -0.498721,1.73913 l 1.68798,0.2046 c 0.387211,-0.98618 0.798651,-1.34858 1.4578,-1.68798 0.659148,-0.33939 1.78531,-0.39324 2.391304,-0.0511 0.605994,0.3421 1.378395,0.98781 1.52174,1.76471 l 1.956522,0.15345 0.166239,-0.97186 c -0.617287,-0.57546 -0.822293,-1.68338 -0.524298,-2.54476 0.297995,-0.86138 1.178572,-1.57877 2.314577,-1.61125 1.136009,-0.0325 2.516739,1.28822 2.96675,1.77749 0.450014,0.48927 0.878215,1.54595 0.895149,2.13555 0.01692,0.5896 -0.242968,1.06138 -0.242968,1.06138 l 2.557545,0.25575 0.102298,-3.17135 -1.414479,-2.2047777 -0.52925,-1.3757823 -1.329926,-1.68798 0.511509,-0.71612 5.473146,7.10998 0.153452,7.51918 -4.245522,5.37084 -1.943735,-2.76214 3.785166,-5.5243 -3.235294,0.61381 c 0,0 0.117164,1.32753 -0.127876,2.14834 -0.245039,0.82081 -0.666078,1.35611 -1.304352,1.77749 -0.638271,0.42138 -1.46886,0.64769 -2.327362,0.26855 l -0.984655,1.17647 -1.02302,0.0511 -0.716114,-1.17648 1.329926,-1.31713 c -0.600182,-0.63995 -0.902579,-1.5594 -0.895141,-2.1867 l -2.164811,-0.23018 c -0.672101,0.377964 -0.96328,0.57277 -1.881868,0.56393 -0.918588,-0.009 -1.478148,-0.319203 -2.126914,-0.891459 l -1.2305,0.05901 -0.690538,1.01023 c 0,0 0.292353,0.38245 0.217393,0.97187 -0.07496,0.58942 -0.690538,1.15089 -0.690538,1.15089 l 0.920716,0.66496 -1.17647,1.89259 -1.329923,-1.02302 0.306904,-0.51151 -0.511509,-0.46036 c 0,0 -0.470106,0.16623 -1.074169,0.0512 -0.604062,-0.11507 -1.065292,-0.43877 -1.4578,-0.95907 -0.392508,-0.52031 -0.780724,-1.31468 -0.946291,-1.84144 -0.165567,-0.52676 0.07672,-1.53453 0.07672,-1.53453 l -2.7877227,-0.31969 -0.306906,1.43223 0.204604,1.48337 2.0637777,2.807078 0.289164,0.773492 1.12532,1.32992 -0.818415,0.40921 -5.0639392,-5.7289 0.051151,-1.68798 -1.0741688,-0.56266 0.5115087,-6.95653 z"
       id="path1745"
       inkscape:connector-curvature="0"
       sodipodi:nodetypes="cccccczzzcczzccczzzzccccccccccccczzccccccczccczcccccczzzccccccccccccc" />
    <path
       style="fill:#000000;fill-opacity:1;stroke:none;stroke-width:0.10035841px;stroke-linecap:butt;stroke-linejoin:miter;stroke-opacity:1"
       d="m 62.783979,4.2892256 c -0.103229,1.99618 -0.17546,4.55129 -0.860217,5.19714 l 0.03584,1.6129004 -1.720433,0.0717 c 0,0 -0.931898,-1.1738404 -2.616485,-1.07527 -1.684588,0.0986 -2.508964,1.25448 -2.508964,1.25448 h -0.743727 l -0.815412,0.85125 -0.0179,0.68997 c -0.310843,0.21442 -0.694823,0.20944 -1.075272,0.21505 -0.655079,-0.16828 -1.12319,-0.43004 -1.541217,-0.71685 0.290432,-1.33073 0.479429,-2.8232504 0.896056,-3.9426504 l -2.867381,-1.6129 c -1.474864,1.38273 -2.795897,2.90007 -3.512546,4.9462404 l -0.01792,4.13978 c 0.142804,1.44962 2.262027,5.99889 5.716849,8.36917 l 0.394264,-0.16129 0.07168,-0.5914 c -0.555363,-1.58546 -0.818022,-3.22946 -0.896057,-4.91039 l 0.107527,-1.57706 0.64516,-0.14337 3.584231,-0.0717 c 0,0 1.010721,1.26844 2.428314,1.37993 1.417594,0.1115 2.410397,-0.81541 2.410397,-0.81541 l 0.394264,0.2957 0.143366,-0.0358 0.05376,-0.86022 c 0.420228,-0.38286 0.699762,-0.90163 0.761653,-1.40681 l 1.155913,-0.17025 c 0.220162,1.26757 0.08468,2.59441 0.03584,3.90681 l 2.903227,1.89964 c 0.981267,-1.39851 2.023297,-2.63906 2.544799,-5.23297 0.08214,-1.87544 0.06595,-3.75088 0.05377,-5.62724 C 67.539767,8.3832256 66.658563,7.1561756 65.866425,5.7946456 Z"
       id="path1773"
       inkscape:connector-curvature="0"
       sodipodi:nodetypes="cccczccccccccccccccccczcccccccccccc" />
    <path
       inkscape:connector-curvature="0"
       style="fill:#000000;fill-opacity:1;stroke:none;stroke-width:0.07843135px;stroke-linecap:butt;stroke-linejoin:miter;stroke-opacity:1"
       d="m 90.932621,3.9089629 -1.848651,1.680607 -0.112133,6.0225171 -0.721814,0.126991 -0.02283,0.876378 -0.454198,0.01195 c -0.258864,-0.219809 -0.956641,-0.630725 -1.35845,-0.720589 l -0.523897,-0.154718 c 0,0 -0.548517,-0.650652 -1.862132,-0.644148 -1.313615,0.0065 -1.891391,0.812193 -1.891391,0.812193 l -0.280178,-0.05607 -0.0314,-2.3049941 -0.291513,0.0066 0.01486,2.2984071 c -0.129948,0.04715 -0.216146,0.123414 -0.308058,0.195924 l -0.02803,-1.98851 -0.280177,0.01624 0.06265,2.185202 c -0.183845,0.145684 -0.243898,0.23835 -0.342678,0.347579 l -0.672335,0.111979 -0.133425,-0.758118 -0.749999,-0.0064 -0.293047,-5.9581801 -2.133884,-1.696997 -0.499234,0.184436 -0.75628,9.3556971 1.008425,9.888019 0.42019,0.168045 1.988817,-2.745097 0.08394,-3.249233 0.280178,-0.700368 -0.252144,-1.316483 0.78416,-0.195925 0.168198,-0.784467 0.571845,-0.0034 0.52068,0.53554 0.815563,0.02298 c 0,0 0.64933,0.755766 0.949142,0.901347 0.299814,0.145582 0.815717,0.22932 0.815717,0.22932 l 0.113817,0.484222 0.944087,-0.01 0.135264,-0.481311 c 0.447013,-0.08287 1.134354,-0.642012 1.339614,-1.090379 l 0.348958,-0.08425 0.02803,0.168045 1.733991,-0.921645 0.139783,0.866804 0.563112,0.195006 0.700368,5.35003 2.113051,2.442401 0.414675,-0.249233 0.357383,-8.775732 -0.896293,-10.2241091 z m -5.038449,8.3507951 0.504136,0.637255 0.007,1.68076 -0.574295,0.696691 -0.322151,-0.287072 0.0071,-0.199601 0.33609,-0.402574 0.0071,-1.281556 -0.332568,-0.427236 0.06648,-0.315104 z"
       id="path1801"
       sodipodi:nodetypes="cccccccccccccccccccccccccccccccccccccsccccccccccccccccccccccccccc" />
    <path
       style="fill:#000000;fill-opacity:1;stroke:none;stroke-width:0.09548456px;stroke-linecap:butt;stroke-linejoin:miter;stroke-opacity:1"
       d="m 98.517959,12.77879 1.705081,3.887585 14.64781,8.166754 0.24607,-0.03777 -6.43668,-9.936365 -0.0362,-1.105377 0.47949,-0.01996 0.35101,0.457091 0.28262,-0.08611 -0.10815,-0.475175 c 0.48297,-0.312297 1.13656,-0.918482 1.38421,-2.07831 h 0.27282 l 9.35237,11.679808 0.11936,-0.149195 -4.39059,-10.030141 -3.00094,-3.5465715 -6.61572,-4.671922 0.54563,1.26176 c 0,0 -0.77528,-0.42839 -1.57695,-0.126418 -0.80168,0.301975 -1.3899,1.524587 -1.3899,1.524587 h -0.40922 l -1.19355,-2.046101 z"
       id="path930"
       inkscape:connector-curvature="0"
       sodipodi:nodetypes="cccccccccccccccccczcccc" />
    <path
       style="fill:#000000;fill-opacity:1;stroke:none;stroke-width:0.06268656px;stroke-linecap:butt;stroke-linejoin:miter;stroke-opacity:1"
       d="m 16.541579,46.224206 -0.951493,-0.27985 1.208955,-13.20896 3.626865,-0.76119 0.716418,0.44776 4.164179,12.26369 -1.55948,2.09858 -3.097236,-0.25779 1.61194,0.9403 c 0,0 1.624566,0.0222 2.059703,0.1791 0.435138,0.15694 0.582088,0.40299 0.582088,0.40299 0,0 0.690947,0.22869 0.921752,0.45319 0.230807,0.2245 0.421532,0.80054 0.421532,0.80054 l 2.897333,3.32383 -2.249204,0.62686 -1.095423,-0.25507 2.909982,4.81184 -2.328359,-0.40299 -5.597014,-5.50746 -1.119406,-0.0896 -0.31343,0.27985 -0.582091,0.0336 -0.134327,1.61194 -8.865673,8.23881 -3.089552,-1.38806 6.817164,-8.11567 -0.01119,-1.5112 c 0,0 -0.656544,-0.1937 -0.626866,-0.89552 0.02968,-0.70181 0.537314,-0.80597 0.537314,-0.80597 l 1.208955,-0.0896 c 0,0 -0.334781,-0.67393 -0.01119,-1.35448 0.323586,-0.68054 0.906716,-0.61567 0.906716,-0.61567 l 0.156717,-0.72761 z"
       id="path952"
       inkscape:connector-curvature="0"
       sodipodi:nodetypes="ccccccccczczccccccccccccccczcczccc" />
    <path
       style="fill:#000000;fill-opacity:1;stroke:none;stroke-width:0.0710369px;stroke-linecap:butt;stroke-linejoin:miter;stroke-opacity:1"
       d="m 34.315705,45.987481 0.0586,1.841692 0.701606,1.169335 0.350809,-0.175403 0.730824,0.02913 0.116931,0.175406 0.701598,-0.204636 -0.292333,0.935462 4.034193,5.788197 10.231653,4.472693 0.324955,-0.009 -0.0102,-0.90107 0.213196,-0.09627 -0.0102,-0.615525 -3.265722,-4.899235 2.017101,1.783238 1.841698,0.730828 3.127969,-0.263105 0.993932,-1.023166 0.02906,-1.637056 1.926813,-0.922027 0.02565,-1.485441 8.932182,7.20904 0.186362,-0.009 -0.011,-0.763726 0.13885,-0.164434 0.005,-0.573705 -2.313091,-4.11093 -5.718533,-4.648514 -0.574483,-0.003 -0.0102,-0.406687 -0.653473,-0.704178 -8e-4,-0.69902 -0.964695,-0.818527 -4.209594,-1.578601 -0.637157,-0.55381 -0.007,-0.293953 -1.690051,-1.112699 -0.560917,0.002 -1.549367,-1.023164 h -1.841882 l -0.009,-0.239366 -0.610245,-0.1699 -0.610243,0.1699 v 0.239469 h -2.835701 l -0.877003,0.672572 v 0.409263 h -1.724747 l -0.386822,0.612129 0.0085,0.615676 z"
       id="path974"
       inkscape:connector-curvature="0"
       sodipodi:nodetypes="cccccccccccccccccccccccccccccccccccccccccccccccccccc" />
    <path
       style="fill:#000000;fill-opacity:1;stroke:none;stroke-width:0.10705727px;stroke-linecap:butt;stroke-linejoin:miter;stroke-opacity:1"
       d="m 130.16485,17.822538 -0.0623,1.19938 3.43458,6.23832 -0.48287,0.31931 -3.45016,-1.49533 -3.95638,-5.79439 -0.12461,-4.82866 4.04984,-6.1059199 3.98754,-1.7757 -3.73832,6.7289699 1.27726,1.21496 3.08411,-0.90343 c 0,0 0.56242,-1.65853 3.89408,-1.72897 3.33166,-0.0704 3.52025,1.80685 3.52025,1.80685 l 1.33956,-0.0467 c 0,0 1.65075,-1.12355 3.52025,-1.40187 1.86951,-0.27831 4.14331,0.31153 4.14331,0.31153 l -1.61994,-4.2990699 6.5109,-1.54205 5.14019,6.0903399 v 3.36449 c 0,0 0.64626,0.23656 0.6542,0.77881 0.008,0.54225 -0.6542,0.88785 -0.6542,0.88785 v 1.4486 l -4.39253,6.23053 -1.27725,0.56075 c 0,0 -6.01246,-1.24611 -5.88785,-1.43303 0.12461,-0.18691 1.68224,-4.33021 1.68224,-4.33021 0,0 -0.24835,0.47292 -1.71339,0.5296 -1.46504,0.0567 -1.83801,-0.59191 -1.83801,-0.59191 l -1.32399,0.48287 0.0156,0.63863 0.56075,0.34268 c 0,0 0.0739,0.62183 -0.0935,1.01246 -0.16741,0.39062 -0.73852,0.78871 -1.24611,1.01246 -0.50759,0.22375 -1.00285,0.21199 -1.43302,0.0312 -0.43018,-0.18084 -0.75386,-0.66535 -0.93458,-0.99689 -0.18072,-0.33154 -0.21807,-0.87227 -0.21807,-0.87227 l 0.45171,-0.42056 -0.0156,-0.60748 -0.77881,-0.0935 -0.40499,-0.21807 h -1.02803 c -1.00052,0.50788 -1.9766,0.67899 -3.08411,0.62306 -1.10752,-0.0559 -2.33645,-0.21348 -3.17757,-0.95016 l -0.57633,-0.73209 -3.09968,-0.93458 z"
       id="path996"
       inkscape:connector-curvature="0"
       sodipodi:nodetypes="cccccccccccczcczccccczcccccczcccczzzzcccccczcccc" />
    <path
       style="fill:#000000;fill-opacity:1;stroke:none;stroke-width:0.10167752px;stroke-linecap:butt;stroke-linejoin:miter;stroke-opacity:1"
       d="m 167.31388,10.47376 0.0516,1.78064 5.67743,7.40646 0.43869,1.26452 0.98065,0.61936 2.73549,3.2 3.5871,1.16129 -0.0258,-0.54193 -2.42581,-2.81291 0.0516,-1.90968 0.20645,-0.98065 -0.24436,-0.385593 0.24436,-0.853117 1.96129,-0.23226 c 0,0 0.41743,0.35892 0.83226,0.55484 0.41484,0.19593 1.15055,0.46255 1.67742,0.47742 0.52688,0.0149 1.10323,-0.15484 1.10323,-0.15484 l 0.51613,0.0774 0.45806,-0.43871 c 0.23998,-0.0648 0.46559,-0.18064 0.69678,-0.30322 0.28457,0.147615 0.35159,0.159145 0.6,-0.0065 l 0.0129,-0.54839 c 0.67456,-0.6882 1.09586,-1.67181 1.39355,-2.47096 l 2.23226,-1.05807 -2.50323,4.69678 2.89032,2.60645 h 0.72259 l 5.16129,-3.30322 0.56775,-5.70324 -5.47098,-4.9806396 -2.91613,-1.70323 -0.67097,-0.0258 0.0774,0.98065 0.85162,1.36774 -4.98065,-2.24517 -0.54194,0.25807 -0.28387,1.26452 0.95484,0.92903 1.08387,0.92903 -0.59355,0.0258 -0.95484,-0.77419 -3.09678,0.0258 -0.68608,-0.70876 -0.25494,-0.0441 -0.90322,-0.72571 c -0.1561,-0.18051 -0.5286,-0.11796 -0.63917,0.0208 -0.11057,0.1388 -0.12045,0.40786 0.0834,0.58026 l 0.56018,0.37927 -1.31926,0.44211 -1.02756,-0.78018 c -0.20111,-0.19204 -0.45992,-0.17048 -0.60111,0.003 -0.14119,0.1736 -0.11488,0.44104 0.16866,0.65402 l 0.83337,0.6402 -0.65299,0.67436 -0.0774,0.8516196 -0.67097,-0.0258 -0.24138,-0.40977 -0.73927,0.0743 -2.19355,1.80645 0.18065,0.8 1.03226,0.98065 0.0258,0.43871 h -0.43871 l -4.98065,-4.20637 z"
       id="path1018"
       inkscape:connector-curvature="0"
       sodipodi:nodetypes="cccccccccccccczzccccccccccccccccccccccccccccczcccczcccccccccccccc" />
    <path
       style="fill:#000000;fill-opacity:1;stroke:none;stroke-width:0.0898792px;stroke-linecap:butt;stroke-linejoin:miter;stroke-opacity:1"
       d="m 76.686588,39.976197 0.62895,-1.808238 0.70757,-0.445508 0.91722,-0.891015 0.94343,-4.612313 2.75166,0.62895 0.94343,0.524128 11.34021,8.162887 1.07504,0.537618 c 0.0937,0.223724 0.0618,0.30731 -0.15068,0.347232 l -1.04826,-0.504473 -0.64244,-0.02171 -9.8925,-4.145095 -0.15724,0.314474 0.57654,0.681366 -0.0262,0.681365 1.10066,0.471712 c 0.45495,0.217524 0.85372,0.36383 1.33653,1.179286 l 9.46048,5.142993 0.98929,0.530677 c 0.0777,0.221217 0.01,0.29 -0.15724,0.281722 l -1.02204,-0.550336 -9.06084,-4.225771 c 0,0 -0.18021,1.029963 -0.78619,1.533071 -0.60598,0.50311 -1.80824,0.09172 -1.80824,0.09172 l -2.09651,-0.681367 -0.62895,0.183445 -0.24989,0.243533 -0.77215,-0.0863 -1.07447,0.602745 7.46881,5.215062 0.52413,0.05241 2.5027,1.801685 1.06791,0.763257 c 0.0567,0.167782 -0.002,0.266632 -0.19,0.239137 l -1.09413,-0.753434 -13.0311,-3.649234 -2.17512,-1.886855 1.83444,-3.721298 -0.0262,-0.602744 0.52412,-0.497921 z"
       id="path1040"
       inkscape:connector-curvature="0"
       sodipodi:nodetypes="ccccccccccccccccccccccczcccccccccccccccccc" />
    <path
       style="fill:#020000;fill-opacity:1;stroke:none;stroke-width:0.08426707px;stroke-linecap:butt;stroke-linejoin:miter;stroke-opacity:1"
       d="m 103.63126,33.973519 3.31694,-1.13022 0.25742,0.18639 1.09393,8.04455 0.57107,0.0102 c 0.47112,-0.93983 1.07926,-1.47851 2.01474,-1.58986 0.93549,-0.11135 1.50414,0.20652 1.86136,0.54774 l 0.25799,-0.0123 -0.0614,-0.62655 0.68797,-5.47911 5.03684,-0.9828 0.28964,0.18531 1.49169,8.78274 -1.43735,8.05895 -0.36855,0.0491 -4.20147,-1.76904 -0.46683,-0.4914 -0.61424,-4.17689 h -0.29485 c 0,0 -0.71051,0.82849 -1.79238,0.91417 -1.08186,0.0857 -2.17356,-1.01754 -2.17356,-1.01754 l -0.40752,0.0297 -0.56511,9.31202 -0.27027,0.0246 -3.36609,-3.07125 -1.08108,-7.54298 z"
       id="path1062"
       inkscape:connector-curvature="0"
       sodipodi:nodetypes="ccccczccccccccccccczccccccc" />
    <path
       style="fill:#000000;fill-opacity:1;stroke:none;stroke-width:0.12183265px;stroke-linecap:butt;stroke-linejoin:miter;stroke-opacity:1"
       d="m 123.69051,38.340134 4.55525,-4.420474 3.12667,0.9973 2.69542,4.016167 c 0,0 1.1404,-0.248004 2.39892,0.16174 1.25851,0.40975 1.88679,1.563342 1.88679,1.563342 l 0.61994,-1.536386 -0.45822,-1.698111 2.31806,-2.830182 3.45013,1.132075 10.1617,7.223704 -0.0269,0.862534 -8.97573,-2.884094 -0.074,0.595264 0.31661,0.563767 c -0.58695,0.876463 -0.95206,1.838799 -0.75472,3.018859 l -0.35268,0.279792 -0.0247,1.121823 8.19406,3.396219 -0.18868,0.566037 -11.50942,-0.296492 -3.74027,-1.94434 0.31714,-1.532741 -0.21918,-0.200126 c 0,0 -1.47416,0.709842 -3.15008,0.254032 -1.67593,-0.455809 -2.48114,-2.297362 -2.48114,-2.297362 L 130.6587,44.27674 c -0.24334,0.280697 -1.0921,2.93134 -1.0921,2.93134 l 8.1671,5.148238 0.45822,1.563342 -10.16171,-2.425871 -4.36657,-6.549853 z"
       id="path1084"
       inkscape:connector-curvature="0"
       sodipodi:nodetypes="cccczccccccccccccccccccczcccccccc" />
    <path
       style="fill:#000000;fill-opacity:1;stroke:none;stroke-width:0.13239834px;stroke-linecap:butt;stroke-linejoin:miter;stroke-opacity:1"
       d="m 176.60067,30.274396 -2.65102,4.142647 1.61539,0.911268 0.86992,1.822794 -0.0715,0.269203 -0.51392,-0.20881 c -0.0751,0.02261 -0.12254,0.103096 -0.0903,0.193226 l 0.53061,0.258161 -0.14772,0.647992 -1.78142,0.787165 -3.72819,-5.385163 -3.81139,-2.154305 -1.03532,4.266746 1.53264,0.994274 -1.98836,3.893835 -1.53262,-1.242522 -3.18978,4.017984 3.60418,3.603981 2.81647,0.124372 -1.28383,2.941207 3.52098,3.438221 9.01647,0.959972 0.84274,0.696819 c 0.11637,0.0572 0.24356,-0.0051 0.16531,-0.15341 l -6.58645,-5.935886 2.60976,-0.74577 7.04226,5.758035 c 0.13996,0.07076 0.26423,-0.01723 0.19495,-0.187467 l -0.93038,-0.818414 -2.82694,-3.509371 -5.01252,-3.686728 c 1.62239,-0.123489 2.61513,-0.341887 3.35538,-1.781151 l 0.64424,0.436851 c 0.1759,0.05787 0.23314,-0.05048 0.21447,-0.265715 l -0.68538,-0.524271 c 0.28675,-1.190488 0.0532,-2.357621 -1.2916,-3.333845 l 0.29012,-0.952668 1.32542,-0.74577 9.274,5.114694 1.03993,0.699431 c 0.13572,0.009 0.1698,-0.04191 0.10536,-0.14862 l -1.01657,-0.694354 -2.36114,-2.444193 -5.05398,-2.734094 v -0.86989 l 7.69815,4.13242 c 0.16295,0.05534 0.30371,-0.128429 0.0807,-0.255438 l -0.97712,-0.527629 -5.47708,-9.107381 z m -7.49781,11.308951 2.02993,1.657039 0.24845,2.029949 -2.94114,-2.444207 z"
       id="path1106"
       inkscape:connector-curvature="0"
       sodipodi:nodetypes="ccccccccccccccccccccccccccccccccccccccccccccccccccccccc" />
    <path
       style="fill:#000000;fill-opacity:1;stroke:none;stroke-width:0.12253825px;stroke-linecap:butt;stroke-linejoin:miter;stroke-opacity:1"
       d="m 11.832086,72.671033 0.17506,0.743979 c 2.25843,-0.683335 4.50405,-1.397414 7.04595,-1.400433 0,0 0.23399,-1.064562 2.8884,-1.225386 2.65442,-0.160829 3.19475,0.831511 3.19475,0.831511 1.31291,-0.162552 2.62582,0.02172 3.93873,0.26258 l 0.39387,-3.457329 -1.09409,-2.625819 6.12692,2.844637 4.50765,6.214443 -0.91904,6.039386 -5.03281,3.150983 -0.91904,-0.70022 -3.63239,-5.207876 -1.53173,0.481402 c -0.30532,0.93499 -1.00106,1.469761 -1.7396,1.82713 0,0 0.0889,0.320394 -0.17661,0.437962 -0.26553,0.117562 -0.50173,-0.164438 -0.50173,-0.164438 -0.38992,0.08287 -0.87106,0.159635 -1.34573,0.186001 0,0 -0.12267,0.370639 -0.42304,0.34036 -0.30036,-0.03029 -0.44482,-0.383348 -0.44482,-0.383348 -0.8977,-0.139896 -2.20935,-0.818563 -2.76452,-1.499679 l -5.25165,-0.481403 -0.52516,6.91466 -4.3325999,-1.925603 -0.83151,-6.477022 0.21882,-2.713347 2.1444199,-5.032819 2.58205,-2.93217 -0.17505,3.457335 z"
       id="path1616"
       inkscape:connector-curvature="0"
       sodipodi:nodetypes="ccczcccccccccccczcczccccccccccc" />
    <path
       style="fill:#000000;fill-opacity:1;stroke:none;stroke-width:0.09935677px;stroke-linecap:butt;stroke-linejoin:miter;stroke-opacity:1"
       d="m 49.563197,67.399817 -1.982215,-1.65602 -0.32619,0.37637 -0.903288,9.5849 0.627284,9.81073 c 0,0 0.363824,0.20073 0.489282,0.17564 0.125458,-0.0251 1.894397,-2.68478 1.894397,-2.68478 l 0.52692,-6.62412 1.98222,0.42655 0.28031,0.36141 0.50792,0.0297 c 0,0 0.65398,1.21426 2.32641,1.24569 1.67242,0.0314 2.20473,-1.38585 2.20473,-1.38585 l 0.53731,-0.0783 0.24053,-0.32314 2.00731,-0.35128 0.55201,6.57394 1.88185,2.55932 0.33873,-0.10037 0.7402,-9.50963 -1.05384,-9.78564 -0.37637,-0.35128 -1.95713,1.70621 -0.10037,7.30159 -0.69768,-0.0304 -0.13128,-0.24634 -2.05654,-0.55127 c 0,0 -0.52571,-1.02734 -2.07041,-1.07741 -1.5447,-0.0501 -2.14495,0.92685 -2.14495,0.92685 l -0.43872,-0.007 -0.006,-1.21173 c -0.0358,-0.11048 -0.14979,-0.10717 -0.18272,-0.0104 l -0.0116,1.21325 -0.30567,0.0119 -0.0339,0.53123 -1.2604,0.28792 -0.11963,0.239 h -0.62728 z"
       id="path1644"
       inkscape:connector-curvature="0"
       sodipodi:nodetypes="ccccccccccczccccccccccccccczccccccccccc" />
    <path
       inkscape:connector-curvature="0"
       style="fill:#000000;fill-opacity:1;stroke:none;stroke-width:0.09711683px;stroke-linecap:butt;stroke-linejoin:miter;stroke-opacity:1"
       d="m 106.13898,59.377046 -0.89643,0.112101 -14.791726,18.676212 -0.298751,0.933801 -0.859064,-0.112102 c -0.299096,-0.06094 -0.531963,-0.0083 -0.485586,0.522952 l 0.560318,1.045906 -1.120635,-0.07474 -1.08327,-0.709597 c -0.941034,-0.189353 -1.399362,-0.0096 -1.494121,0.448216 l -0.522952,-0.03737 c -0.662196,-0.102003 -1.018707,0.114521 -1.083269,0.635061 l 0.485584,0.89643 -0.03718,0.29875 -1.307473,-0.67223 -7.246395,-12.102243 -0.112102,-0.635053 -2.054248,-1.942337 -1.008536,0.07474 7.657246,16.472493 5.304057,5.04249 c 0,0 0.705393,0.381118 0.988776,0.418579 0.283383,0.03746 0.434506,-0.04072 0.434506,-0.04072 l 0.747534,0.58327 0.103378,-0.13259 -0.595221,-0.46434 0.02709,-0.130108 0.641882,0.50076 0.103377,-0.13259 -0.777883,-0.60698 c 0,0 0.178418,0.0068 0.133166,-0.286075 -0.04525,-0.292892 -0.87281,-1.128582 -0.87281,-1.128582 l 1.606221,-0.67223 c 0.99608,0.597623 2.393315,1.809458 2.988241,1.79287 0.430421,0.0093 1.568789,-0.49798 2.353183,-0.74697 0.355953,-0.159 0.490178,-0.43906 0.298751,-0.89662 l -0.298751,-0.48559 2.838773,0.26157 h 0.849011 l 0.569806,0.44462 0.103374,-0.13259 -0.518778,-0.40459 0.01802,-0.38866 0.696132,0.54306 0.103378,-0.13259 -0.789834,-0.61627 0.01479,-0.32151 -0.373483,-0.59769 10.346545,-22.598249 0.52295,-0.560319 0.74716,0.07473 z"
       id="path1672"
       sodipodi:nodetypes="ccccccccccccccccccccczcccccccczccccccccccccccccccccc" />
    <path
       style="fill:#000000;fill-opacity:1;stroke:none;stroke-width:0.06851459px;stroke-linecap:butt;stroke-linejoin:miter;stroke-opacity:1"
       d="m 112.25898,63.583332 0.26348,2.26627 8.47866,5.691932 0.1252,-0.19137 -5.28352,-4.605002 v -0.57993 l 4.6379,2.213532 4.32169,2.95145 -1.26488,-0.0583 0.7378,1.26488 10.11907,6.53521 1.00139,0.10502 14.9151,11.70008 c 0.86756,0.76196 3.56619,0.35822 3.1622,-1.05367 l -15.23131,-21.34497 -0.88273,-0.10502 0.14493,-0.632442 -1.31759,-3.4784 1.1595,0.47375 -1.4757,-3.42578 -4.90142,-3.79462 2.52976,3.42578 -0.7378,0.0583 -0.47433,-0.84364 -5.86326,-2.38494 -1.56793,-1.51516 -3.32033,0.10502 -0.68517,0.73745 0.21085,0.73745 -4.74332,3.05682 -1.0014,-0.78996 -1.10676,0.36873 z"
       id="path1713"
       inkscape:connector-curvature="0"
       sodipodi:nodetypes="ccccccccccccccccccccccccccccccccc" />
    <path
       style="fill:#000000;fill-opacity:1;stroke:none;stroke-width:0.07343886px;stroke-linecap:butt;stroke-linejoin:miter;stroke-opacity:1"
       d="m 160.49814,75.687375 c 0.0952,-0.54052 0.3973,-0.69322 0.73439,-0.78028 l 2.01957,-0.3213 c 0.0569,-3.08197 3.61599,-3.57336 5.50791,-1.23928 l 4.08504,-0.91799 -2.61626,-4.31453 c 0,0 -0.0899,-0.37038 -0.0344,-0.55079 0.0555,-0.18042 0.35572,-0.45899 0.35572,-0.45899 l -0.68849,-0.78029 c -0.12385,-0.74721 -0.1481,-1.45458 0.1836,-2.01957 l 0.87208,-0.2295 2.98346,1.33108 0.0631,-1.42288 -0.6512,-0.69422 0.21884,-0.0749 0.71181,0.68149 0.26308,-0.0926 -0.70351,-0.6445 0.18966,-0.0473 0.71139,0.58138 c 0.3444,0.0201 0.67585,0.1445 0.78321,0.39398 l 0.0172,0.88356 1.24215,0.84913 -0.0918,1.10159 0.44752,0.0115 0.10327,-0.28687 0.67702,0.1377 0.22949,0.97536 2.90313,2.05399 c 0.52976,-1.5228 3.3958,-1.7365 4.68173,0.2754 0,0 1.80497,-0.822451 2.66216,-0.3213 0.85719,0.501151 0.91798,2.61626 0.91798,2.61626 l 0.5049,0.2754 1.05568,2.29496 -0.1836,0.59669 0.58522,0.7344 0.28223,-0.0305 3.27496,3.09424 0.53932,-0.0344 1.90482,1.57204 0.0918,0.47047 1.12454,0.44465 0.78602,0.61964 v 0.19508 l -1.01552,0.46186 0.91799,1.10158 -0.459,0.45899 c 1.91285,1.59122 2.92222,4.63014 2.97789,5.17167 0.0557,0.54152 0.0515,0.97884 0.0515,0.97884 0.67867,0.69306 0.69377,2.61717 0.82619,4.88827 l -0.78029,0.023 c 0.12133,1.48679 -0.0882,1.78037 -1.5032,2.28349 -1.415,0.50312 -3.83381,-0.54502 -6.15051,-1.95072 -2.3167,-1.40571 -8.73233,-7.53896 -8.73233,-7.53896 l -2.11137,0.3213 c -0.43044,0.38922 -0.9804,0.2764 -1.51468,0.22949 l -3.80964,1.00978 -0.68849,-0.91798 0.0459,-0.55079 -2.43266,-2.66216 -0.5049,0.0688 -0.87208,-1.07863 0.2295,-0.4131 -1.05569,-0.96388 h -0.55079 l -0.64259,-0.68849 -10.87813,-6.05871 -0.0459,-0.1836 0.45899,-0.45899 z"
       id="path1741"
       inkscape:connector-curvature="0"
       sodipodi:nodetypes="cccccczccccccccccccccccccccccczcccccccccccccccczccczzccccccccccccccccc" />
  </g>
</svg>
