<?xml version="1.0" encoding="UTF-8" standalone="no"?>
<!-- Created with Inkscape (http://www.inkscape.org/) -->

<svg
   xmlns:dc="http://purl.org/dc/elements/1.1/"
   xmlns:cc="http://creativecommons.org/ns#"
   xmlns:rdf="http://www.w3.org/1999/02/22-rdf-syntax-ns#"
   xmlns:svg="http://www.w3.org/2000/svg"
   xmlns="http://www.w3.org/2000/svg"
   xmlns:sodipodi="http://sodipodi.sourceforge.net/DTD/sodipodi-0.dtd"
   xmlns:inkscape="http://www.inkscape.org/namespaces/inkscape"
   width="210mm"
   height="297mm"
   viewBox="0 0 210 297"
   version="1.1"
   id="svg1764"
   inkscape:version="0.92.1 r15371"
   sodipodi:docname="ships-rebels.svg">
  <defs
     id="defs1758" />
  <sodipodi:namedview
     id="base"
     pagecolor="#ffffff"
     bordercolor="#666666"
     borderopacity="1.0"
     inkscape:pageopacity="0.0"
     inkscape:pageshadow="2"
     inkscape:zoom="7.9195959"
     inkscape:cx="267.82527"
     inkscape:cy="1059.21"
     inkscape:document-units="mm"
     inkscape:current-layer="layer1"
     showgrid="false"
     inkscape:window-width="1920"
     inkscape:window-height="1016"
     inkscape:window-x="0"
     inkscape:window-y="27"
     inkscape:window-maximized="1" />
  <metadata
     id="metadata1761">
    <rdf:RDF>
      <cc:Work
         rdf:about="">
        <dc:format>image/svg+xml</dc:format>
        <dc:type
           rdf:resource="http://purl.org/dc/dcmitype/StillImage" />
        <dc:title />
      </cc:Work>
    </rdf:RDF>
  </metadata>
  <g
     inkscape:label="Calque 1"
     inkscape:groupmode="layer"
     id="layer1">
    <path
       style="fill:#000000;fill-opacity:1;stroke:none;stroke-width:0.06382586px;stroke-linecap:butt;stroke-linejoin:miter;stroke-opacity:1"
       d="m 6.0088444,18.42024 c -1.295444,-1.657488 1.2815,-4.058365 3.485874,-2.307549 l 0.8469196,0.846918 0.405049,0.01228 v -0.503241 l -0.503242,-0.466419 0.23321,-0.675081 -1.1292266,-0.785549 -1.423808,-1.71839 -0.319129,-0.748727 -1.48518,-1.497453 c -1.125971,-1.4180003 1.382815,-3.7287843 3.32631,-2.2216303 l 1.1783236,0.945112 0.61371,-0.270032 -0.319129,-0.3805 c -0.525941,-0.637924 1.966482,-2.808508 3.584068,-0.981936 l 1.350164,1.178323 0.576886,-0.196387 c -1.039217,-1.779763 1.76863,-3.54575 3.424504,-1.841135 l 0.932838,0.908291 h 0.392776 c -1.125922,-1.596667 1.794778,-3.373552 3.682261,-1.178323 l 0.981935,0.981936 0.932841,-0.0491 2.45484,2.062066 c 0,0 2.790319,4.2509043 3.068548,4.8483113 0.27823,0.597406 0.26346,1.152495 0.0368,1.546548 -0.226635,0.394057 -0.729772,1.276275 -1.472901,1.448358 l 0.159566,1.153777 1.497455,0.135014 c 2.00459,0.821597 2.19526,2.027316 1.42381,3.436779 l 1.03103,1.914776 2.30755,1.767485 1.03103,0.147291 1.03104,-0.34368 0.78555,0.0982 0.54006,1.374712 1.54348,0.251619 0.0153,0.641329 1.11082,0.266964 -0.0153,0.190249 -1.08934,-0.230139 0.006,0.696558 1.12923,0.490969 c 1.17546,0.612773 0.96407,1.470275 0.58916,2.356645 l 2.14069,2.55006 4.22752,0.16762 c 0.84181,0.38518 1.15753,1.43576 1.1813,2.02463 0.0238,0.58887 -0.0431,1.35468 -0.52866,1.88576 l -2.89672,1.37471 -0.25688,0.34342 -1.85428,0.44213 -1.08013,-0.14729 -3.73136,0.0491 c -0.66021,-0.48957 -0.86504,-1.09299 -0.78555,-1.76749 l -1.17832,-0.78555 0.54007,-0.49097 v -0.73645 l -0.78555,-0.14729 -0.63826,-0.98194 -0.49097,-0.0982 -2.94581,-1.91478 -1.44738,0.0402 -0.3201,-0.23655 -0.0117,-0.58644 -0.72479,-0.0518 -0.392773,-0.29458 -0.01737,-0.48527 -0.522708,-0.006 -0.441871,-0.39278 -0.0057,-0.53138 -0.632558,-0.009 -0.540064,-0.39277 -2.41e-4,-0.540064 -0.785296,-0.834645 -0.01165,-0.678676 -6.81281,-3.445458 -2.012969,0.343677 -1.669292,-1.374709 -3.534972,0.147289 -3.38768,-0.490969 -3.8786486,-3.044 0.122742,-0.380502 z"
       id="path1796"
       inkscape:connector-curvature="0"
       sodipodi:nodetypes="ccccccccccccccccccccccccczzcccccccccccccccccccczcccccccccccccccccccccccccccccccccccc" />
    <path
       style="fill:#000000;fill-opacity:1;stroke:none;stroke-width:0.07023842px;stroke-linecap:butt;stroke-linejoin:miter;stroke-opacity:1"
       d="m 46.627749,13.628867 c -0.461934,0.342192 -0.555065,0.684386 0,1.02658 l 1.985978,0.467422 -0.203011,2.017926 c -0.184546,1.157074 0.767377,1.158574 1.897584,1.00088 l 3.28057,0.178496 c 0.195217,0.613542 1.022579,0.904674 1.953761,0.441496 l 1.804788,0.279996 c 0.467905,0.905407 1.304899,1.466069 2.4095,1.773137 0.389046,0.614696 1.286966,0.805715 2.162242,0.888072 l 1.646602,1.061404 c 0.200232,1.203872 1.549583,1.806815 2.296507,0.914079 l 10.265597,3.324736 2.593413,1.321801 1.68587,-0.542998 c 4.037534,1.263515 9.967348,1.75426 12.685976,-0.05119 l -1.33723,-0.405215 0.202608,-0.62135 1.080589,0.324178 0.49977,-0.378205 0.742912,0.216118 4.243204,-1.95433 1.213702,-0.0988 C 98.431298,18.616312 83.609873,13.967055 70.241925,13.396368 l -9.895109,-1.705804 -0.01578,-0.736138 -0.357933,-0.02711 0.0084,0.682103 -2.111586,-0.400781 0.08324,-0.655235 c 1.018831,0.0493 1.461832,-0.9232616 0.291962,-1.2426946 l -0.702126,-0.120603 c -1.589114,-0.157832 -1.630288,0.9498836 -0.378207,1.2683686 l -0.101269,0.603942 -8.035332,-1.1998357 -1.318523,3.2799637 z"
       id="path1824"
       inkscape:connector-curvature="0"
       sodipodi:nodetypes="ccccccccccccccccccccccccccccccccccccc" />
    <path
       style="fill:#000000;fill-opacity:1;stroke:none;stroke-width:0.12791915px;stroke-linecap:butt;stroke-linejoin:miter;stroke-opacity:1"
       d="m 145.74167,14.429074 0.50087,1.49761 2.422,3.800034 c 0.46959,0.410351 0.44392,0.22148 0.21893,-0.35892 l -2.29832,-3.636601 0.037,-2.312393 -10.5238,-1.66992 5.74027,-1.948205 c 0.21592,-0.308238 -0.004,-0.32655 -0.19136,-0.365259 l -10.21067,2.243895 -2.01779,-1.669876 c -0.49445,-0.307413 -0.96592,-0.20126 -1.41397,0.32629 l -0.39509,0.09115 c -0.35797,-0.8236095 -1.13754,-1.4875778 -2.23334,-1.631861 0,0 0.0224,-0.1418476 -0.20468,-0.4223658 l -1.55834,0.1420195 0.0138,0.4317955 c -1.27933,0.540601 -1.48482,1.1106078 -1.02699,2.4545278 l -0.23362,0.04176 c -0.62604,-1.5396261 -2.90511,-0.913856 -2.68872,0.793157 l -8.21037,-1.061044 c -0.34099,-0.0093 -0.4856,0.375491 -0.26092,0.469658 l 5.40978,1.495944 -10.14114,2.887531 0.60329,2.461473 2.10301,3.331377 c 0.3967,0.257233 0.35756,0.183571 0.13966,-0.322765 l -1.70513,-3.003052 -0.19687,-1.513081 7.14071,-1.052805 -3.37346,1.60999 c -0.24597,0.204348 -0.0895,0.565399 0.27831,0.452265 l 9.11761,-2.276523 c 0.96037,1.251447 2.05652,1.824001 3.47893,0.765386 l 2.78388,1.063715 c 0,0 0.59826,1.827373 1.17366,2.70619 0.5754,0.878823 1.61844,0.516092 1.81749,-0.01264 0.19906,-0.528749 -0.0565,-3.053552 -0.48705,-5.009703 1.63756,1.461006 2.97591,0.661641 3.52615,-0.876889 l 8.5351,1.924422 c 0.27685,0.01192 0.37117,-0.08566 0.18462,-0.351719 l -3.82682,-1.878639 z"
       id="path1852"
       inkscape:connector-curvature="0"
       sodipodi:nodetypes="cccccccccccccsccccccccccccccccccccczzcccccc" />
    <path
       style="fill:#000000;fill-opacity:1;stroke:none;stroke-width:0.11134872px;stroke-linecap:butt;stroke-linejoin:miter;stroke-opacity:1"
       d="m 157.6729,14.226325 0.45308,0.04273 0.47379,0.672207 -0.0347,0.202734 0.19254,-0.01941 0.29386,0.341339 0.29827,-0.09507 -0.30104,-0.385932 0.008,-0.18155 -0.18915,-0.03755 -0.29136,-0.514623 6.59342,-0.05483 -7.53746,4.796561 1.77129,2.759451 0.50336,0.11958 2.03246,2.985149 -0.0381,0.159452 0.24636,0.256957 0.0498,-0.126508 0.50516,0.744195 0.34315,-0.178959 -0.46133,-0.841856 0.15581,0.01332 -0.19009,-0.317762 -0.17675,-0.04006 -1.87437,-2.840732 0.26041,-0.448143 -0.34349,-0.659507 5.56744,-3.468942 c 0.77653,0.308347 2.10194,0.474774 2.10194,0.474774 1.48181,0.189283 2.02959,-0.203962 1.58113,-1.374129 l 10.27834,3.254811 2.48393,0.47109 c 2.37549,0.461054 2.95936,-0.691723 2.95503,-1.19914 -0.004,-0.507417 -2.05567,-1.841536 -2.05567,-1.841536 l -2.48393,-0.813701 -3.89721,-2.269801 0.25406,-0.01479 1.90337,1.076879 2.11277,-0.550136 4.64156,1.189287 0.0153,0.197592 0.19736,0.04508 0.026,-0.177399 0.41299,0.104958 0.16257,-0.289343 -0.40535,-0.169236 0.0974,-0.137023 -0.19453,-0.105052 -0.16263,0.126016 -4.94951,-1.339669 -0.0445,-0.523762 -2.92138,-1.155936 c 0,0 -1.92357,-0.07351 -2.68725,0.30925 l -1.02783,-0.513916 5.83909,-4.2908818 4.47417,0.1915417 0.0822,0.3286251 0.18956,0.031823 0.0968,-0.3636161 0.89538,0.058381 0.0822,-0.3414913 -0.9437,-0.061183 -0.0512,-0.3282916 -0.25894,0.00745 -0.0912,0.28281 -4.48609,-0.2646547 -1.03182,-0.775126 -2.95503,-0.128476 c -0.96379,0.111537 -0.59179,0.55308 -0.3212,1.113486 l -3.21198,1.777298 -2.24839,-0.192717 c -2.31882,-0.953767 -2.34923,0.82529 -1.19914,1.4132697 l -2.22697,0.385436 c -1.9228,-0.9185747 -4.01941,-0.8876217 -3.27622,0.663812 l -1.17773,0.985006 -4.50871,0.330619 -0.28163,-0.280059 c -1.21945,-0.365458 -1.55421,-0.309256 -1.28905,0.353096 z"
       id="path1880"
       inkscape:connector-curvature="0"
       sodipodi:nodetypes="cccccccccccccccccccccccccccccsccczcccccccccccccccccccccccccccccccccccccccccccccc"
       inkscape:transform-center-x="21.916101"
       inkscape:transform-center-y="13.096207" />
    <path
       style="fill:#000000;fill-opacity:1;stroke:none;stroke-width:0.1354091px;stroke-linecap:butt;stroke-linejoin:miter;stroke-opacity:1"
       d="m 179.96786,35.326166 -2.25693,-0.820704 -0.0684,-1.299447 -5.81331,-2.051756 -1.7098,0.136784 -2.57128,1.790635 -0.63212,1.399607 -1.01236,0.156815 0.62797,-1.111228 -0.83694,0.628689 -0.0325,-0.293246 0.88874,-0.640772 -0.71984,-0.775776 1.01759,-0.209329 0.39826,0.422441 2.5305,-1.778188 0.13678,-0.820705 2.49944,-1.541953 c 0.49804,-0.312832 1.17964,0.206757 0.81929,0.777197 l 5.09348,1.585461 2.94085,0.06839 1.36784,-1.573014 c 0.69878,-0.571185 2.15594,0.213827 1.91497,0.752315 l -1.29944,1.367836 c -0.12802,0.755861 0.46771,0.957469 1.07445,0.589426 0.19595,-0.90304 4.08398,-0.466262 4.06486,0.141741 0.34227,0.4094 1.0046,0.380107 1.18694,-0.149834 l 0.41035,-1.333643 c 0.25337,-1.709942 2.45859,-1.018842 2.42792,-0.205174 l -0.34196,1.43623 1.6414,-0.205178 0.54714,0.205178 5.33457,-0.136784 0.10259,-0.437776 c 0.14701,-0.943722 2.32992,-1.04547 2.39372,0.273573 l -0.17099,1.121687 -1.21395,0.701014 -0.23937,1.675606 0.44455,0.05129 -0.29746,1.275639 0.007,1.237766 -1.43623,-0.170976 0.23693,-1.289728 0.0196,-1.172386 0.42745,0.0513 0.20518,-1.607212 -7.18115,1.094273 -0.68392,0.889094 0.41035,1.094273 1.77819,0.547136 0.20518,0.410352 5.061,2.051757 c 0.16885,-0.767213 1.63037,-0.692775 1.57302,0.341957 l -0.23938,1.675602 -0.8549,1.402038 -0.71811,3.265714 0.51294,0.08549 -0.44455,0.718117 -0.13678,1.077169 -1.24816,-0.205179 0.44455,-1.042976 -0.0684,-0.820696 0.44454,0.102582 0.61554,-3.231517 -0.66683,-0.427451 0.30777,-1.367836 -5.53975,-1.641404 -1.7098,0.273563 c -2.5644,1.555798 -4.27472,0.928947 -5.19778,-1.709798 l -4.71905,5.19779 -0.69383,1.094268 c -0.55913,0.734203 -1.0172,1.564752 -1.83667,2.051761 -2.06575,0.113105 -1.93447,-0.23151 -2.59889,-0.410352 0.15395,-1.248145 0.74767,-2.251226 1.34669,-3.435788 l 0.49989,-0.325767 1.57301,-2.598898 c -1.35683,0.05423 -2.29588,-0.601749 -3.00925,-1.641404 l -3.67384,0.229355 -1.98336,2.09597 -0.70324,0.06839 -2.82482,3.114262 -0.27321,1.423785 -1.27905,-0.09258 0.1126,-0.45041 -0.23659,0.197231 -0.0725,-0.289095 0.39376,-0.406908 0.072,-0.456102 -0.61116,-1.193604 1.30324,0.02416 0.39068,0.700508 2.61477,-2.981624 1.20364,-2.393719 z"
       id="path4984"
       inkscape:connector-curvature="0"
       sodipodi:nodetypes="cccccccccccccccccccccccccccccccccccccccccccccccccccccccccccccccccccccccccccccccccccccccccccccc" />
    <path
       style="fill:#000000;fill-opacity:1;stroke:none;stroke-width:0.11041108px;stroke-linecap:butt;stroke-linejoin:miter;stroke-opacity:1"
       d="m 148.11334,38.177576 0.26176,0.563695 c 1.80343,1.830751 3.97651,3.636103 4.76749,6.190023 l 0.39087,0.47402 0.0279,1.054534 -0.33409,0.367496 -0.2793,1.08747 c -1.22456,0.74929 -2.65127,1.12799 -4.32187,1.05955 l -2.39794,-1.17107 -4.40551,-4.60069 c -0.41086,0.1458 -0.46642,0.51771 -0.47401,0.92014 0,0 0.68299,0.71552 0.78072,1.00378 0.0977,0.28826 0.0888,0.83271 -0.39036,0.75284 -0.65271,-0.1088 -1.70881,-0.82645 -2.53735,-1.92392 v -0.58555 l -0.64131,-1.3105 c -0.11296,-0.68264 0.14584,-0.68374 0.47401,-0.55765 l 0.94802,1.17108 c 0.46262,-0.20954 0.52258,-0.59804 0.66919,-0.94803 l -1.61721,-2.370047 -0.0558,-1.477801 -1.00379,0.92014 -1.17108,-0.02788 c -1.97768,-1.575902 -2.91312,-3.231977 -3.95939,-4.879526 -0.003,-0.685252 0.16894,-0.75637 0.30671,-0.948022 l -0.13941,-0.724958 0.44612,-0.27883 0.27883,0.139415 c 0.6977,-0.447985 1.09693,-5.85e-4 1.58934,0.167298 l 0.54107,-0.02261 1.90183,1.43334 c 0.32662,0.148147 0.63637,-0.100245 0.55452,-0.434823 l -0.0418,-0.474011 -1.61721,-1.282618 c -0.3156,-0.373134 0.93857,-1.513465 1.3105,-1.226852 l 0.50189,0.334596 0.86438,-0.139415 0.61343,-1.366268 0.66919,-0.08365 c 0.41756,0.844233 0.8294,1.596851 1.28261,3.011365 l 3.31808,0.780724 0.89226,-0.167298 v -0.223116 l -0.52978,-0.55766 -0.0279,-0.724959 -0.30697,-0.284609 c -0.2617,-0.30609 0.14776,-0.865653 0.52977,-0.64131 l 0.22332,0.08943 1.33839,-0.501895 0.73575,0.24015 c 1.96922,0.354033 2.99396,0.853803 4.42261,1.89503 l 0.11153,0.513709 0.72496,0.529777 c 0.94277,0.93677 -0.86985,3.399905 -1.75663,2.844063 l -2.48159,-1.143203 c -0.73689,0.704891 -1.45181,1.267041 -2.25852,2.425821 z"
       id="path5564"
       inkscape:connector-curvature="0"
       sodipodi:nodetypes="ccccccccccczscccccccccccccccccccccccccccccccccccccccccccc" />
    <path
       style="fill:#000000;fill-opacity:1;stroke:none;stroke-width:0.06533099px;stroke-linecap:butt;stroke-linejoin:miter;stroke-opacity:1"
       d="m 91.838013,49.586156 -1.603595,0.13199 -0.378495,0.9003 -0.419985,0.37332 -0.55998,0.32666 c -0.429871,1.12103 -0.05668,2.42253 0.18666,3.03322 l 1.353285,0.51332 0.513315,0.7933 2.7999,-0.37332 10.172972,4.85316 h 0.37332 l 1.01579,1.08697 c 0.23129,0.44211 0.84517,0.29423 0.79331,-0.14 0.26443,0.31566 0.79284,0.0531 0.71081,-0.29366 l 0.83997,-0.0933 0.23332,0.55998 -0.0933,0.83997 c 0,0 1.10999,2.12048 1.21329,2.28659 0.24358,0.39165 1.07858,0.47793 1.53995,0.41998 0.46137,-0.058 2.39266,-0.4461 2.84656,-0.51331 0.45391,-0.0672 0.77362,-0.27123 0.88664,-0.88664 0.0328,-0.17844 0.41998,-4.01319 0.41998,-4.01319 l 0.28517,0.33466 c 0.18071,0.4591 0.91796,0.22843 0.8428,-0.12349 0.14657,0.3729 0.69383,0.38367 0.70847,-0.22767 l 0.76596,-0.0302 c 0.28078,0.41665 0.63453,0.50927 0.87014,-0.13717 0.44948,0.51998 1.0201,0.45291 1.10063,-0.14282 l 0.0933,-0.88664 3.40655,-6.76642 0.7933,-0.0933 0.55998,-1.02663 0.69998,-0.55998 c 0.3037,-0.618 0.304,-2.40283 -0.37332,-2.89323 l -1.21329,-0.51332 -0.51332,-0.69997 -2.70657,0.37332 -9.193,-3.12656 -1.8666,-1.39995 -0.32666,-0.97996 -1.81993,-2.6599 -0.23332,-1.11997 -0.88664,-1.39995 c -0.45951,-0.75094 -2.59992,-0.68757 -2.75324,0.51332 -0.41876,-0.0664 -0.85421,-0.15499 -1.01705,0.11986 -0.64162,-0.584968 -0.49035,-0.01923 -0.67644,0.0495 -0.28461,0.01278 -0.76567,-0.519184 -0.41247,0.39597 l -0.77543,0.37947 c -1.270102,-2.3729 -4.003862,-1.03227 -3.431702,1.1219 l 0.92392,1.76535 0.42896,0.14848 0.41247,0.64345 -0.033,0.21448 0.32997,0.49496 -1.73235,2.17781 v 0.44546 z"
       id="path5592"
       inkscape:connector-curvature="0"
       sodipodi:nodetypes="cccccccccccccccccszzscccccccccccccccccccccccccccccccccccc" />
    <path
       style="fill:#000000;fill-opacity:1;stroke:none;stroke-width:0.07831957px;stroke-linecap:butt;stroke-linejoin:miter;stroke-opacity:1"
       d="m 9.3960221,47.179812 -0.118648,-1.74042 c 1.0697419,-0.81601 2.1019359,-1.64359 3.8370429,-2.254837 l 0.395581,-0.59335 c 0,0 2.877118,-0.767649 4.272194,-0.988938 1.395066,-0.221299 2.5285,-0.324004 4.0744,-0.355999 1.545895,-0.032 4.689012,0.164093 5.182009,0.237331 0.492998,0.07306 1.958457,0.238805 3.045913,0.791132 l 3.560162,-0.158238 1.107606,0.988956 c 0.572256,0.105504 1.159186,0.137641 1.424061,1.780123 1.078456,-0.008 1.597195,1.34423 1.305394,2.69002 0.491412,0.46389 0.981804,0.92811 0.237343,1.7007 l 0.59336,8.74223 -0.237345,0.35602 v 0.83087 l -2.927241,0.31636 -1.147163,-1.89872 -0.553804,-0.0789 -1.740521,-2.61048 v -0.79145 l -0.75159,-1.14695 -0.5538,0.0789 0.672474,1.34519 c -0.541181,1.21242 -2.196822,0.93851 -3.639274,0.94922 l 1.186719,1.93838 0.197788,0.71205 0.474686,1.18689 -0.07906,1.70072 -3.144809,0.33629 -8.287257,-5.99304 -1.186722,-0.94936 c -1.091767,-0.30257 -1.009579,-0.69503 -1.18672,-1.06806 -0.842582,-0.25986 -1.950171,-0.3496 -2.511884,-1.2066 0,0 -0.72433,0.85513 -1.246071,1.52317 -0.763047,0.64943 -2.5179279,0.46655 -3.2621689,-0.69717 -0.104465,-0.16353 -0.130287,0.0486 -0.242466,-0.134 -0.858283,-1.38371 -0.601604,-2.00772 -0.427919,-2.76847 0.173718,-0.76125 0.317254,-1.22821 0.47471,-1.62181 0.157411,-0.39373 0.784828,-0.9799 1.203083,-1.14746 z"
       id="path5620"
       inkscape:connector-curvature="0"
       sodipodi:nodetypes="cccczzzccccccccccccccccccccccccccccsszzc" />
    <path
       style="fill:#000000;fill-opacity:1;stroke:none;stroke-width:0.06614434px;stroke-linecap:butt;stroke-linejoin:miter;stroke-opacity:1"
       d="m 53.75742,45.86763 c 0.08464,-0.494 0.424459,-0.58165 0.961072,-0.61518 3.564824,1.74769 7.153694,3.24353 10.69054,5.24302 -0.0282,-0.54368 -0.02516,-1.09779 0.133632,-1.7038 0.196783,-0.1923 0.399863,-0.37773 0.935422,-0.20045 0.618308,0.90202 1.025322,1.80403 1.202685,2.70604 0.383176,0.21362 0.774587,0.41076 1.035647,0.86861 l 1.436542,-0.33408 0.133632,-0.13363 c 0.443935,-0.0867 0.664455,-0.22921 1.570172,-0.20045 l 0.267264,0.16704 1.269502,-0.16704 c 0.122792,-0.35536 0.291448,-0.71148 0.701566,-0.8686 -0.106632,-0.92587 -0.298896,-1.83857 -0.133632,-2.80627 0.237507,-0.18712 0.375237,-0.43411 1.035647,-0.36749 0.335467,0.47885 0.653412,0.9577 0.835198,1.43654 0.211013,-0.67055 4.528274,-4.99165 6.948852,-7.11589 0.573235,-0.26603 0.945321,0.0702 0.902015,0.33408 l -6.982261,8.61925 c 0.500826,0.46465 0.582007,1.6122 -0.06682,2.13811 1.116138,1.03954 0.473042,2.87497 -1.30291,2.539 l 0.826846,4.56854 -0.459357,0.10857 v 0.36749 l -1.035647,0.23385 0.108575,0.55123 -0.275614,0.0668 -0.158689,-0.55123 -2.213275,0.33408 0.09187,0.53453 -0.275616,0.0585 -0.141985,-0.55958 -1.043998,0.0752 -0.133632,-0.50948 -0.785086,0.10023 -1.553469,-5.01119 c -0.12287,0.94122 -2.209156,1.61147 -2.60582,-0.30067 -0.10399,-0.88495 -0.263846,-1.78108 -0.06682,-2.60582 z"
       id="path5648"
       inkscape:connector-curvature="0"
       sodipodi:nodetypes="ccccccccccccccccccccccccccccccccccccccc" />
    <path
       style="fill:#000000;fill-opacity:1;stroke:none;stroke-width:0.07326327px;stroke-linecap:butt;stroke-linejoin:miter;stroke-opacity:1"
       d="m 190.27469,50.907579 -8.0921,3.049034 -0.0154,0.38701 -0.28476,0.125659 0.22783,1.148191 -0.31384,0.156978 0.52322,2.51183 -1.52193,0.771237 c -0.76415,1.054399 -1.10323,0.577728 -1.64583,0.834081 -0.25426,0.762048 -0.81554,0.778023 -1.40978,0.714419 l -3.16747,1.605149 -0.36621,-0.57566 -1.41306,0.57566 -0.68038,-0.889603 c -0.26138,-0.547917 -1.18276,-0.547012 -1.8911,-0.363557 l -0.80613,-0.341035 -0.0386,0.716989 c -0.6304,0.05389 -1.44589,1.155615 -1.66007,2.028376 l 1.6224,2.72135 0.26164,-0.05238 0.68023,1.098953 h 0.31398 c 0.34586,0.669615 0.46723,1.087831 1.09903,1.255931 -0.0968,0.908773 0.12545,1.208854 0.78487,2.197888 l -0.41866,0.209361 0.88963,2.407228 1.83166,2.459467 0.68024,-0.104654 c 0.47975,0.719669 2.89448,0.534715 3.87251,-2.459623 l -0.83726,-1.308296 17.4262,-3.610783 c 6.60904,-2.173215 8.89325,-9.175259 5.18073,-12.768712 l 0.26179,-2.145535 c -1.18294,-1.140726 -2.60608,-1.800544 -4.08192,-2.35501 l -1.04664,1.256057 c -1.40294,-0.609922 -2.94381,-1.047376 -5.12836,-0.680388 z m -6.43678,9.576608 h 0.36639 l 1.15125,1.360661 c -2.42668,0.762159 -3.96686,2.069931 -5.80863,3.192112 l -0.25272,-0.313943 -0.8774,-0.05238 -0.48905,0.363193 0.20631,0.474192 c -0.72374,-0.334466 -0.33509,0.162761 -3.61103,1.465261 l -0.20925,-0.261715 0.31398,-0.156978 -0.52322,-1.203545 0.0521,-0.20933 c 3.36479,-1.3976 6.70391,-2.82392 9.68111,-4.657523 z"
       id="path5676"
       inkscape:connector-curvature="0"
       sodipodi:nodetypes="ccccccccccccccccccccccccccccccccccccccccccccccccccc" />
    <path
       style="fill:#000000;fill-opacity:1;stroke:none;stroke-width:0.12141336px;stroke-linecap:butt;stroke-linejoin:miter;stroke-opacity:1"
       d="m 6.0394289,78.429797 v 1.17077 l -0.433619,0.21681 -0.04336,0.82388 1.474304,3.33887 c 0.985389,0.82322 1.662296,0.81016 1.734477,-0.78051 l -0.520343,-1.17078 3.5556771,-1.25749 c 0.919837,1.02978 1.946199,0.949372 1.711021,-0.536708 l 2.495084,-0.764152 -1.076948,1.457922 0.339797,0.753508 -0.04337,0.43362 h -0.650428 c 0.528154,1.85267 1.474305,2.86189 1.474305,2.86189 0.668725,0.72879 2.605675,0.42698 2.081371,-0.73716 l -0.997323,-1.60439 c 0.01471,-0.3012 -0.006,-0.64031 0.563705,-0.3469 0.76439,0.73305 1.49649,0.23235 1.127409,-0.52034 0.283435,0.47037 1.407694,0.21703 0.823877,-0.69379 0.02928,-0.16902 -0.07721,-0.4985 0.373968,-0.16893 0.428884,0.44814 1.302237,0.0994 0.970251,-0.69831 l 0.252387,-0.2644 c 0.614162,0.44906 1.163183,-0.0757 0.658214,-0.68956 -0.04429,-0.46399 0.250038,-0.39586 0.476981,-0.43362 1.161907,0.2958 2.107018,-0.93592 1.994648,-2.03801 0,0 0.71653,0.67394 1.084047,0.86724 0.367519,0.1933 0.855567,0.82045 0.855567,0.82045 l 0.125401,0.666663 -1.521902,0.306087 c 0.0027,0.62352 0.505061,0.89013 0.88783,1.24217 1.423286,3.52993 3.510186,5.114218 5.750778,4.680228 l -0.243812,0.870092 1.734477,1.60439 0.563705,-0.0759 0.36424,0.34039 0.11274,-0.1019 -0.27101,-0.36858 c 0.494197,-1.01507 1.450069,-1.63048 2.434843,-1.64095 l 0.406524,0.31438 0.108403,-0.11925 c -0.133808,-0.141 -0.1402,-0.17537 -0.352322,-0.36858 l 0.161071,-0.46319 -0.839757,-1.15884 c 4.676817,-1.98241 0.619695,-6.760699 -2.618765,-7.61248 -0.750263,-0.1947 -1.209074,-0.33461 -2.064321,0.28432 l -1.56103,-1.8212 1.084048,-0.30354 0.997325,0.99732 5.578717,1.458675 1.662725,1.143075 c 0.89361,0.17963 0.985355,-0.18593 0.520344,-0.9106 l -1.734476,-2.51499 -1.821204,-0.69379 -0.9106,-0.47698 1.214133,-0.30353 c 1.213146,0.89959 2.322524,0.52226 1.842883,-0.45531 l 1.495989,-0.36857 c 0.33683,0.53034 2.540497,0.99766 1.875399,-0.39026 l 1.420103,-0.30353 1.474305,0.86724 c 1.697526,1.10988 2.056411,-0.24147 1.257497,-0.86724 l -0.563704,-1.04069 -1.604391,-0.95396 -0.737152,0.13008 -1.430947,-1.08404 -11.274097,1.21413 c -0.269211,-0.94573 -2.771855,-1.37646 -2.948611,0.26017 l -1.474305,-1.60439 c -0.456925,-0.68812 -3.838672,-1.44477 -3.208782,0.47698 l 1.040686,1.73448 -3.295506,1.4743 c -0.805862,-0.89932 -2.585689,-0.20861 -2.384904,0.99733 z"
       id="path5707"
       inkscape:connector-curvature="0"
       sodipodi:nodetypes="cccccccccccccccccccccccccczccccccccccccccccccccccccccccccccccccccccccccccc" />
    <path
       style="fill:#000000;fill-opacity:1;stroke:none;stroke-width:0.09741199px;stroke-linecap:butt;stroke-linejoin:miter;stroke-opacity:1"
       d="m 80.234694,69.028777 c 0.152192,-0.670223 0.27701,-1.348645 1.451414,-1.303813 l 0.639607,-0.393604 0.0492,-2.410824 2.04182,1.180812 1.107012,2.853628 1.05781,0.713407 c 1.082113,-0.06739 2.151737,-0.209703 3.296432,0.0984 l 1.671275,1.225399 0.880045,0.944404 0.440921,0.278621 0.05699,0.328026 0.215756,0.170463 0.289234,0.11248 0.347993,0.23704 -0.190652,0.282899 -0.379648,-0.248011 -0.174278,-0.270264 -0.253848,-0.182348 -0.495969,-0.167926 -0.907203,-0.05396 4.08364,7.13407 1.549815,1.57441 -2.567043,1.842943 -0.509812,-0.302845 0.198983,0.543963 -2.60798,1.704379 -1.648217,-1.13161 -12.619924,-6.96187 -0.172202,0.246 0.467404,0.78721 -0.246258,0.24898 0.35442,0.5818 0.146064,-0.0707 0.405904,0.75338 -0.378229,0.17528 -0.429321,-0.74692 0.126913,-0.062 -0.375335,-0.55487 -0.900637,-0.35534 -1.065144,-1.66698 0.209103,-1.46372 -0.504305,-0.7257 0.239852,-0.14145 0.467404,0.76875 0.522755,0.50431 0.418204,0.78721 0.442805,-0.1476 -0.762609,-1.64822 1.082411,-1.008603 -1.771217,-2.238625 c -0.460609,-1.561739 0.348101,-1.981091 1.254612,-2.312421 0,0 -0.147601,-2.902829 -0.0492,-2.730628 0.0984,0.172203 1.894218,1.771219 1.894218,1.771219 l 0.295204,1.894217 0.639606,0.02459 c 0.139948,-0.644525 0.664207,-0.467397 0.664207,-0.467397 z"
       id="path5735"
       inkscape:connector-curvature="0"
       sodipodi:nodetypes="cccccccccccccccccccccccccccccccccccccccccccccccccccccccccc" />
    <path
       style="fill:#000000;fill-opacity:1;stroke:none;stroke-width:0.11869411px;stroke-linecap:butt;stroke-linejoin:miter;stroke-opacity:1"
       d="m 140.59896,71.472845 1.04912,0.56952 c 0.5481,0.97634 1.06191,2.18423 1.91838,1.07909 l 2.00831,1.64862 0.38967,-0.1199 1.52872,1.49874 0.56952,-0.41965 1.56107,1.0155 0.83349,0.971388 2.14806,1.032462 -1.45703,-1.973237 -0.84342,-0.583863 -1.33616,-1.52475 c 0.47734,0.5943 0.95468,0.94249 1.43203,0.5829 l 1.06082,0.48955 1.30588,1.243878 2.24021,1.109842 -1.64243,-1.941139 -1.27607,-0.842481 -0.7779,-0.79827 c 0,0 -0.34664,-0.73127 -0.88054,-1.26969 l 0.14987,-0.23979 0.5995,0.26977 0.26977,-0.32972 0.56952,-0.3597 1.64862,1.04912 c 1.05183,0.36754 0.95409,-0.34801 0.98917,-0.77935 l -4.10655,-3.41712 c 2.21683,-1.02446 2.53965,-4.29334 -3.38715,-4.67607 l -2.00831,-1.70856 c 0.14403,-1.11139 -0.43548,-0.65512 -0.7194,-0.8393 0.16145,-0.84577 -0.0854,-1.30877 -1.19899,-0.95919 l -2.15818,-1.79849 -0.62948,-0.06 c -0.45201,-0.48677 -1.41678,-1.2229 -1.25894,0.1199 l -0.95919,0.1199 -0.0899,0.62947 c -1.7813,-0.15198 -2.40257,0.79124 -2.20614,1.65461 l -0.43164,0.32373 -0.92922,0.17985 -0.62947,-0.3597 -1.22897,1.40881 v 1.13905 c 0.81753,0.46139 1.74773,0.81011 2.63779,1.19899 l -5.24559,4.91586 -0.8393,3.41713 4.1665,4.13652 z"
       id="path874"
       inkscape:connector-curvature="0"
       sodipodi:nodetypes="cccccccccccccccccccccccccccccccccccccccccccccccc" />
    <path
       style="fill:#000000;fill-opacity:1;stroke:none;stroke-width:0.09542418px;stroke-linecap:butt;stroke-linejoin:miter;stroke-opacity:1"
       d="m 59.715586,105.83318 -0.886082,-11.31458 -4.225928,1.15872 -0.187442,0.40896 2.590086,1.5336 -0.15336,0.17041 -2.607126,-1.55065 c 0,0 -0.69498,0.11591 -1.124641,-0.017 -0.429662,-0.13294 -1.08916,-0.51957 -1.312083,-0.86904 -0.222923,-0.34948 -0.354148,-0.64995 -0.136321,-0.90312 0.217828,-0.25318 1.090562,0 1.090562,0 l 5.137822,-2.38768 -0.06816,-0.71568 -0.571092,-0.64545 0.03408,-2.181126 1.363203,-0.783842 0.03408,-0.30672 -0.208614,-0.374881 0.244762,-2.736742 c -1.344918,-0.592789 -2.658109,-2.970716 -0.0668,-3.608373 1.888229,-0.464647 3.430262,0.08332 4.515816,0.695719 1.085554,0.612396 2.418717,1.849488 2.339475,2.620385 -0.106207,1.033219 -3.041749,0.984187 -3.041749,0.984187 l 0.16284,1.515706 c 1.026252,0.708493 1.875887,1.264397 1.813803,2.812467 l -0.37488,0.98835 2.385606,-0.40896 c 0,0 -0.124645,-0.2104 -0.06816,-0.30672 0.05648,-0.0963 0.08214,-0.14731 0.3408,-0.10225 0.258664,0.0451 1.778772,0.58266 1.976644,0.81793 0.197873,0.23526 0.142694,0.295449 0.142694,0.295449 l 2.184904,0.77179 -0.09397,0.18416 -2.196598,-0.78141 c -0.202573,0.200376 -0.476701,0.203541 -0.770602,0.165841 l -3.560512,1.51122 -0.613441,1.0224 c 1.434815,1.42236 0.441394,1.86262 -0.749761,2.01073 l -1.601764,10.80338 c 0,0 0.95781,0.93111 1.346163,1.29504 0.388354,0.36393 0.977205,1.23244 0.852002,1.29504 l 2.261481,1.80799 -0.11928,0.13632 -2.125161,-1.70574 c -0.01847,0.40514 -0.153691,0.49895 -0.306721,0.54528 l 0.920162,0.71568 -0.10224,0.13632 -0.937202,-0.73272 c -0.753168,0.41842 -3.040061,-1.43898 -3.765847,-2.53897 -0.725785,-1.09999 -0.159665,-1.29066 0.238564,-1.43136 z"
       id="path902"
       inkscape:connector-curvature="0"
       sodipodi:nodetypes="ccccccczzzcccccccccszsccccczzzccccccccczcccccccczcc" />
    <path
       style="fill:#000000;fill-opacity:1;stroke:none;stroke-width:0.12355064px;stroke-linecap:butt;stroke-linejoin:miter;stroke-opacity:1"
       d="m 106.6966,86.488646 2.24649,-2.5273 3.46333,0.93604 3.77535,-1.93448 0.37442,-0.62402 3.52574,-0.21841 4.74259,1.96568 -0.156,0.31201 4.58658,1.71607 -0.15601,0.28081 -4.61778,-1.71607 -0.15601,0.40562 2.90172,0.99844 c 0.97584,0.63556 0.53728,2.07158 -0.71763,1.93447 l -3.05772,-0.99843 -0.90484,1.74727 1.77847,0.46801 0.74883,0.84244 c 0,0 4.79903,2.25059 6.33385,3.05772 1.53482,0.80713 2.70445,2.10636 2.58971,3.02652 -0.11474,0.92017 -2.36711,0.22527 -3.27613,-0.0624 -0.90903,-0.28768 -1.80968,-0.65523 -1.80968,-0.65523 l -7.95631,-2.15288 -1.56007,-0.0624 -5.80343,4.80498 2.3713,0.81124 c 0.76401,1.160354 -0.10359,1.994404 -0.84244,1.653674 l -2.99532,-0.873644 -0.53042,0.686434 4.58658,1.49766 -0.156,0.31201 -4.67768,-1.49515 -0.31201,0.65272 -4.15228,-1.21685 -0.49922,-0.967244 0.18721,-1.09204 c -1.81608,-0.34243 -1.41571,-2.52894 0.0936,-2.09049 l 1.56007,-6.24025 -0.49922,-1.99688 z"
       id="path938"
       inkscape:connector-curvature="0"
       sodipodi:nodetypes="cccccccccccccccccczzzccccccccccccccccccc" />
  </g>
</svg>
