<?xml version="1.0" encoding="UTF-8" standalone="no"?>
<!-- Created with Inkscape (http://www.inkscape.org/) -->

<svg
   xmlns:dc="http://purl.org/dc/elements/1.1/"
   xmlns:cc="http://creativecommons.org/ns#"
   xmlns:rdf="http://www.w3.org/1999/02/22-rdf-syntax-ns#"
   xmlns:svg="http://www.w3.org/2000/svg"
   xmlns="http://www.w3.org/2000/svg"
   xmlns:sodipodi="http://sodipodi.sourceforge.net/DTD/sodipodi-0.dtd"
   xmlns:inkscape="http://www.inkscape.org/namespaces/inkscape"
   width="210mm"
   height="297mm"
   viewBox="0 0 210 297"
   version="1.1"
   id="svg1764"
   inkscape:version="0.92.1 r15371"
   sodipodi:docname="ships-rebels.svg">
  <defs
     id="defs1758" />
  <sodipodi:namedview
     id="base"
     pagecolor="#ffffff"
     bordercolor="#666666"
     borderopacity="1.0"
     inkscape:pageopacity="0.0"
     inkscape:pageshadow="2"
     inkscape:zoom="0.98994949"
     inkscape:cx="167.28443"
     inkscape:cy="804.71692"
     inkscape:document-units="mm"
     inkscape:current-layer="layer1"
     showgrid="false"
     inkscape:window-width="1920"
     inkscape:window-height="1016"
     inkscape:window-x="0"
     inkscape:window-y="27"
     inkscape:window-maximized="1" />
  <metadata
     id="metadata1761">
    <rdf:RDF>
      <cc:Work
         rdf:about="">
        <dc:format>image/svg+xml</dc:format>
        <dc:type
           rdf:resource="http://purl.org/dc/dcmitype/StillImage" />
        <dc:title></dc:title>
      </cc:Work>
    </rdf:RDF>
  </metadata>
  <g
     inkscape:label="Calque 1"
     inkscape:groupmode="layer"
     id="layer1">
    <path
       style="fill:#000000;fill-opacity:1;stroke:none;stroke-width:0.06382586px;stroke-linecap:butt;stroke-linejoin:miter;stroke-opacity:1"
       d="m 6.0088444,18.42024 c -1.295444,-1.657488 1.2815,-4.058365 3.485874,-2.307549 l 0.8469196,0.846918 0.405049,0.01228 v -0.503241 l -0.503242,-0.466419 0.23321,-0.675081 -1.1292266,-0.785549 -1.423808,-1.71839 -0.319129,-0.748727 -1.48518,-1.497453 c -1.125971,-1.4180003 1.382815,-3.7287843 3.32631,-2.2216303 l 1.1783236,0.945112 0.61371,-0.270032 -0.319129,-0.3805 c -0.525941,-0.637924 1.966482,-2.808508 3.584068,-0.981936 l 1.350164,1.178323 0.576886,-0.196387 c -1.039217,-1.779763 1.76863,-3.54575 3.424504,-1.841135 l 0.932838,0.908291 h 0.392776 c -1.125922,-1.596667 1.794778,-3.373552 3.682261,-1.178323 l 0.981935,0.981936 0.932841,-0.0491 2.45484,2.062066 c 0,0 2.790319,4.2509043 3.068548,4.8483113 0.27823,0.597406 0.26346,1.152495 0.0368,1.546548 -0.226635,0.394057 -0.729772,1.276275 -1.472901,1.448358 l 0.159566,1.153777 1.497455,0.135014 c 2.00459,0.821597 2.19526,2.027316 1.42381,3.436779 l 1.03103,1.914776 2.30755,1.767485 1.03103,0.147291 1.03104,-0.34368 0.78555,0.0982 0.54006,1.374712 1.54348,0.251619 0.0153,0.641329 1.11082,0.266964 -0.0153,0.190249 -1.08934,-0.230139 0.006,0.696558 1.12923,0.490969 c 1.17546,0.612773 0.96407,1.470275 0.58916,2.356645 l 2.14069,2.55006 4.22752,0.16762 c 0.84181,0.38518 1.15753,1.43576 1.1813,2.02463 0.0238,0.58887 -0.0431,1.35468 -0.52866,1.88576 l -2.89672,1.37471 -0.25688,0.34342 -1.85428,0.44213 -1.08013,-0.14729 -3.73136,0.0491 c -0.66021,-0.48957 -0.86504,-1.09299 -0.78555,-1.76749 l -1.17832,-0.78555 0.54007,-0.49097 v -0.73645 l -0.78555,-0.14729 -0.63826,-0.98194 -0.49097,-0.0982 -2.94581,-1.91478 -1.44738,0.0402 -0.3201,-0.23655 -0.0117,-0.58644 -0.72479,-0.0518 -0.392773,-0.29458 -0.01737,-0.48527 -0.522708,-0.006 -0.441871,-0.39278 -0.0057,-0.53138 -0.632558,-0.009 -0.540064,-0.39277 -2.41e-4,-0.540064 -0.785296,-0.834645 -0.01165,-0.678676 -6.81281,-3.445458 -2.012969,0.343677 -1.669292,-1.374709 -3.534972,0.147289 -3.38768,-0.490969 -3.8786486,-3.044 0.122742,-0.380502 z"
       id="path1796"
       inkscape:connector-curvature="0"
       sodipodi:nodetypes="ccccccccccccccccccccccccczzcccccccccccccccccccczcccccccccccccccccccccccccccccccccccc" />
    <path
       style="fill:#000000;fill-opacity:1;stroke:none;stroke-width:0.07023842px;stroke-linecap:butt;stroke-linejoin:miter;stroke-opacity:1"
       d="m 46.627749,13.628867 c -0.461934,0.342192 -0.555065,0.684386 0,1.02658 l 1.985978,0.467422 -0.203011,2.017926 c -0.184546,1.157074 0.767377,1.158574 1.897584,1.00088 l 3.28057,0.178496 c 0.132313,0.718381 0.83237,1.221689 1.953761,0.441496 l 1.804788,0.279996 c 0.189477,1.044621 1.048984,1.594026 2.4095,1.773137 0.359617,0.791272 1.229322,1.151577 2.162242,0.888072 l 1.646602,1.061404 c -0.08096,1.428826 1.393127,1.931979 2.296507,0.914079 l 10.265597,3.324736 2.593413,1.321801 1.68587,-0.542998 c 4.037534,1.263515 9.967348,1.75426 12.685976,-0.05119 l -1.33723,-0.405215 0.202608,-0.62135 1.080589,0.324178 0.49977,-0.378205 0.742912,0.216118 4.243204,-1.95433 1.213702,-0.0988 C 98.431298,18.616312 83.609873,13.967055 70.241925,13.396368 l -9.895109,-1.705804 -0.01578,-0.736138 -0.357933,-0.02711 0.0084,0.682103 -2.111586,-0.400781 0.08324,-0.917132 c 1.018831,0.0493 1.461832,-0.9232617 0.291962,-1.2426947 l -0.702126,-0.120603 c -1.589114,-0.157832 -1.630288,0.949884 -0.378207,1.2683687 l -0.101269,0.865839 -8.035332,-1.1998357 -1.318523,3.2799637 z"
       id="path1824"
       inkscape:connector-curvature="0"
       sodipodi:nodetypes="ccccccccccccccccccccccccccccccccccccc" />
    <path
       style="fill:#000000;fill-opacity:1;stroke:none;stroke-width:0.12791915px;stroke-linecap:butt;stroke-linejoin:miter;stroke-opacity:1"
       d="m 144.44782,14.462483 0.83496,2.800549 2.52223,2.730956 c 0.46959,0.410351 1.30345,-0.04579 1.07846,-0.62619 l -1.93082,-2.400479 -0.33049,-3.548515 -10.5238,-1.66992 5.74027,-1.948205 c 0.21592,-0.308238 -0.004,-0.32655 -0.19136,-0.365259 l -10.21067,2.243895 -2.01779,-1.669876 c -0.49445,-0.307413 -0.96592,-0.20126 -1.41397,0.32629 l -0.39509,0.09115 c -0.43539,-1.001733 -0.61722,-1.598737 -2.50484,-2.80055 l -1.49152,0.359176 0.0305,0.841052 c -1.27933,0.540601 -1.8022,1.339096 -1.04369,2.574438 h -0.83498 c -0.62604,-1.539626 -2.30375,-0.872095 -2.08736,0.834918 l -8.21037,-1.061044 c -0.34099,-0.0093 -0.4856,0.375491 -0.26092,0.469658 l 5.40978,1.495944 -10.14114,2.887531 0.46966,3.096238 2.99189,3.409371 c 0.3967,0.257233 1.33116,-0.05029 1.11326,-0.556626 l -2.22652,-2.71355 -0.3305,-2.348298 5.13144,-0.852353 -2.50484,1.843851 c -0.24597,0.204348 -0.0895,0.565399 0.27831,0.452265 l 9.18443,-2.644019 c 0.96037,1.251447 2.05652,1.824001 3.47893,0.765386 l 2.78388,1.063715 c 0,0 0.59826,1.827373 1.17366,2.70619 0.5754,0.878823 1.61844,0.516092 1.81749,-0.01264 0.19906,-0.528749 -0.0565,-3.053552 -0.48705,-5.009703 1.63756,1.461006 3.27659,1.329815 3.82683,-0.208715 l 0.90453,-0.139144 7.32989,1.395392 c 0.27685,0.01192 0.37117,-0.08566 0.18462,-0.351719 l -3.82682,-1.878639 z"
       id="path1852"
       inkscape:connector-curvature="0"
       sodipodi:nodetypes="cccccccccccccccccccccccccccccccccczzccccccc" />
    <path
       style="fill:#000000;fill-opacity:1;stroke:none;stroke-width:0.11134872px;stroke-linecap:butt;stroke-linejoin:miter;stroke-opacity:1"
       d="m 157.93182,14.560412 1.64881,1.434688 0.40685,-0.12848 -0.83511,-1.648818 6.01712,-0.02142 -7.53746,4.796561 2.05567,2.612412 1.54175,3.254808 c 0.51388,0.45697 0.91149,1.378997 1.54175,1.370445 0.33453,-0.468818 -0.0876,-1.021708 -0.21413,-1.541751 l -2.14132,-4.111337 5.56744,-3.468942 c 2.60621,1.574481 4.28869,0.680878 3.68307,-0.899355 l 10.27834,3.254811 2.48393,0.47109 c 2.37549,0.461054 2.95936,-0.691723 2.95503,-1.19914 -0.004,-0.507417 -2.05567,-1.841536 -2.05567,-1.841536 l -2.48393,-0.813701 -3.89721,-2.269801 0.51392,-0.08566 2.31263,0.985006 1.6274,-0.128475 5.27478,1.378016 0.91427,-0.347808 -1.31656,-0.352113 -5.2151,-1.4918 -2.13062,-1.295498 c -1.95867,-0.527711 -2.75879,-0.457711 -3.52247,-0.07495 l -1.02783,-0.513916 5.83909,-4.2908818 4.33218,0.158133 1.4561,0.289074 0.0321,-0.717339 -1.48701,0.04277 -4.3441,-0.231246 -1.03182,-0.775126 -2.95503,-0.128476 c -0.96379,0.111537 -0.59179,0.55308 -0.3212,1.113486 l -3.21198,1.777298 -2.24839,-0.192717 c -2.31882,-0.953767 -2.34923,0.82529 -1.19914,1.4132698 l -2.22697,0.385436 c -1.9228,-0.9185748 -4.01941,-0.8876218 -3.27622,0.663812 l -1.17773,0.985006 -3.29764,0.364028 -1.58457,-0.51392 c -1.21945,-0.365458 -1.72126,-0.234087 -1.4561,0.428265 z"
       id="path1880"
       inkscape:connector-curvature="0"
       sodipodi:nodetypes="ccccccccccccccczcccccccccccccccccccccccccccccccc"
       inkscape:transform-center-x="21.916101"
       inkscape:transform-center-y="13.096207" />
  </g>
</svg>
