<?xml version="1.0" encoding="UTF-8" standalone="no"?>
<!-- Created with Inkscape (http://www.inkscape.org/) -->

<svg
   xmlns:dc="http://purl.org/dc/elements/1.1/"
   xmlns:cc="http://creativecommons.org/ns#"
   xmlns:rdf="http://www.w3.org/1999/02/22-rdf-syntax-ns#"
   xmlns:svg="http://www.w3.org/2000/svg"
   xmlns="http://www.w3.org/2000/svg"
   xmlns:sodipodi="http://sodipodi.sourceforge.net/DTD/sodipodi-0.dtd"
   xmlns:inkscape="http://www.inkscape.org/namespaces/inkscape"
   width="210mm"
   height="297mm"
   viewBox="0 0 210 297"
   version="1.1"
   id="svg8"
   inkscape:version="0.92.1 r15371"
   sodipodi:docname="ships-scums.svg">
  <defs
     id="defs2" />
  <sodipodi:namedview
     id="base"
     pagecolor="#ffffff"
     bordercolor="#666666"
     borderopacity="1.0"
     inkscape:pageopacity="0.0"
     inkscape:pageshadow="2"
     inkscape:zoom="0.7"
     inkscape:cx="-55.968221"
     inkscape:cy="682.99383"
     inkscape:document-units="mm"
     inkscape:current-layer="layer1"
     showgrid="false"
     inkscape:window-width="1920"
     inkscape:window-height="1016"
     inkscape:window-x="0"
     inkscape:window-y="27"
     inkscape:window-maximized="1" />
  <metadata
     id="metadata5">
    <rdf:RDF>
      <cc:Work
         rdf:about="">
        <dc:format>image/svg+xml</dc:format>
        <dc:type
           rdf:resource="http://purl.org/dc/dcmitype/StillImage" />
        <dc:title />
      </cc:Work>
    </rdf:RDF>
  </metadata>
  <g
     inkscape:label="Layer 1"
     inkscape:groupmode="layer"
     id="layer1">
    <path
       sodipodi:nodetypes="ccccccccccccccccccccccccccccccccccc"
       inkscape:connector-curvature="0"
       id="path3704"
       d="m 21.53302,24.246502 -5.909816,-4.44266 0.03688,0.70734 5.579411,4.44238 -0.389549,0.71103 0.29583,0.43687 -0.149391,0.30707 2.957171,3.2146 -1.536598,0.53201 -9.067313,-7.17819 c -0.753326,0.35252 -1.905253,0.51493 -3.278825,0.84494 l -1.8366299,-1.70748 c 0.260561,-0.707 0.624993,-1.16508 1.9210309,-2.59957 -0.4466269,-0.50828 -0.5471179,-0.98012 -0.7263899,-1.57582 0.177963,-0.71081 0.7944649,-1.42746 1.3424809,-1.85682 0.567416,-0.0171 0.9739,0.17219 1.438091,0.33706 l -0.812099,-1.06005 c 0.483259,-1.52172 1.636916,-2.44608 3.048738,-2.89466 l 1.13879,1.06115 c -0.147932,-0.46987 -0.253775,-0.88295 -0.216069,-1.44937 0.485554,-0.50921 1.173994,-0.95469 1.872492,-1.13879 0.588806,0.20076 1.112907,0.5705 1.604658,1.03526 1.418527,-1.30035 2.084214,-1.64158 2.813512,-1.73851 l 1.563347,1.71577 c -0.379596,1.3607 -0.658537,2.41436 -1.038133,3.15441 l 6.493857,9.01739 -0.587382,1.51629 -3.105253,-3.07179 -0.312283,0.13815 -0.425857,-0.31147 -0.724687,0.36351 -4.200532,-5.46232 -0.682343,-0.0371 4.165639,5.76715 c -0.310024,0.6631 -0.524304,0.86265 -1.272773,1.22226 z"
       style="fill:#000000;fill-opacity:1;stroke:none;stroke-width:0.07246847px;stroke-linecap:butt;stroke-linejoin:miter;stroke-opacity:1" />
    <path
       style="fill:#000000;fill-opacity:1;stroke:none;stroke-width:0.07659361px;stroke-linecap:butt;stroke-linejoin:miter;stroke-opacity:1"
       d="m 13.342393,116.00347 1.258323,0.38297 c 0.06151,0.23856 0.564198,-0.53947 1.094195,-0.38297 -0.400059,0.64256 0.03724,1.07575 0.164129,1.58657 -0.388367,-0.0935 -0.796655,-0.13394 -1.080518,-0.50606 -0.751907,-0.0416 -1.285514,0.0189 -1.490839,0.23253 l -0.806967,-0.76594 -5.5120057,0.32825 0.02736,1.8191 c 1.0152314,0.43935 2.8458044,1.01829 4.2886607,1.16036 1.060928,0.10455 1.210761,-0.4843 1.756765,0.16635 0.29695,3.59699 2.133692,8.5604 3.515099,9.90246 1.38141,1.34207 2.557683,1.0942 2.557683,1.0942 0.353276,1.47279 0.942375,3.09601 0.506062,4.43149 0.826499,0.97188 2.066004,2.43674 2.749163,2.70813 0.683158,0.27138 1.340389,-0.71124 1.340389,-0.71124 0.09524,-0.43768 -0.338363,-0.848 -0.246191,-1.31303 l 0.779612,-0.36928 -3e-6,-0.73859 1.039487,0.0957 0.533418,0.38296 -0.164128,-0.7933 -0.218838,0.10935 -1.860132,-1.47716 c 0.718061,-0.36591 0.633721,-5.07889 0.998452,-7.74142 0,0 0.274628,-0.29589 0.341937,-0.68388 0.0673,-0.38799 -0.191485,-1.58658 -0.191485,-1.58658 l 0.246195,-0.77962 0.04104,-0.83433 1.340388,-1.13522 0.287224,-1.76439 0.506066,-0.25986 0.902712,0.67019 c 0.417652,0.0348 0.794,0.0219 1.627612,0.10935 l 2.051616,-0.36928 c 0.03245,-0.80566 -0.270969,-1.81598 -1.148904,-2.69446 l -4.15794,0.16413 -0.437676,-0.65652 -0.38297,-0.32826 c -0.142994,-1.75806 -1.096161,-3.84588 -2.133676,-5.03329 -1.037516,-1.18741 -2.209409,-2.21454 -3.884393,-2.13367 -1.674983,0.0808 -4.148256,2.25682 -4.814455,3.21419 -0.6662,0.95737 -1.31162,2.46586 -1.422453,4.49988 z"
       id="path4530"
       inkscape:connector-curvature="0"
       sodipodi:nodetypes="cccccccccsczcczcccccccccczccccccccccccczzzcc" />
    <path
       style="fill:#000000;fill-opacity:1;stroke:none;stroke-width:0.10256403px;stroke-linecap:butt;stroke-linejoin:miter;stroke-opacity:1"
       d="m 169.42442,48.015212 -0.0392,-0.91315 0.5807,-0.28584 7.13382,0.10453 3.60806,2.68315 0.21063,-2.27106 1.163,0.90659 0.21977,-0.29303 c 0,0 2.54621,0.88319 3.73626,2.05128 1.19006,1.16808 2.95573,3.18817 3.09026,4.98168 0.13453,1.79352 0.004,3.27045 -0.97384,4.79593 -0.9781,1.52547 -3.06182,2.74986 -4.84849,3.65487 -1.78667,0.90502 -6.05913,1.87886 -6.05913,1.87886 -0.61376,0.55188 -1.37786,0.65274 -2.12454,0.80586 l -0.40477,-0.45658 c 0,0 -4.35615,0.0273 -6.54604,-0.4092 -2.1899,-0.4365 -4.39574,-1.12532 -6.70145,-2.20226 -2.30572,-1.07693 -4.68577,-2.93859 -5.68798,-4.66547 0.36717,-0.0768 0.54308,-0.0274 0.92908,0.0961 -0.52975,-0.39069 -0.65837,-0.59799 -0.81501,-1.0348 l 0.86749,0.1048 -0.26231,-0.82693 c -0.12326,-0.11967 -0.74603,-0.45835 -0.74603,-0.45835 l 0.0124,-0.28352 -0.93838,-0.85284 c 0.19202,-0.94943 0.82119,-2.45294 1.43041,-2.84013 0.60922,-0.38719 1.35347,-0.16353 1.35347,-0.16353 l 1.35791,1.28833 0.25381,-0.2627 -1.75824,-1.68497 -0.0777,-0.83253 0.77367,-0.11986 c 0.37602,-0.31073 0.43604,-1.31666 1.13553,-0.91575 l -0.14652,-2.74724 0.40293,-0.14652 0.3663,0.10988 0.0733,-0.3663 0.21978,-0.0366 0.32967,0.25642 0.0366,-0.43956 0.47619,-0.1099 1.31868,1.02564 0.0366,1.13554 0.25641,0.0733 c 0,0 1.14862,-0.71705 1.94139,-0.43956 0.79278,0.27748 1.90477,2.38095 1.90477,2.38095 l -0.21979,0.10989 4.24909,3.55311 -0.0733,0.54945 1.39193,1.17216 0.80587,-0.0733 1.13552,0.8425 4.24909,-1.64836 -1.35532,-0.95238 -0.14651,-0.40293 z"
       id="path4558"
       inkscape:connector-curvature="0"
       sodipodi:nodetypes="cccccccczzzzccczzcccccccczcccccccccccccccccczccccccccccc" />
    <path
       style="fill:#000000;fill-opacity:1;stroke:none;stroke-width:0.08258181px;stroke-linecap:butt;stroke-linejoin:miter;stroke-opacity:1"
       d="m 44.183911,17.365251 0.834204,-0.166841 -0.250261,0.583939 0.04171,0.750784 0.834203,0.959336 0.208551,0.917621 h 0.50052 l 1.5537,2.533885 c 0.13643,0.493297 0.32379,0.314074 0.58465,0.606409 0.0647,0.07245 0.17083,0.258177 0.38511,0.332071 0.0781,0.02694 0.88404,0.11046 1.31387,-0.01042 0.42983,-0.120885 0.80374,-0.322592 1.18874,-0.844629 0.0305,-0.636738 -1.34515,-3.91032 -1.34515,-3.91032 l -0.0521,-0.500526 -1.71011,-2.711157 0.25026,-0.198125 -0.65694,-0.990617 0.32326,-0.229402 1.18873,1.668405 c 0.2698,0.09941 0.58805,-0.077 0.68822,-0.333682 l 0.33368,0.291973 0.70907,-0.417102 -0.33368,-0.542234 0.40667,-0.156413 -0.0834,-0.281541 0.46925,0.354534 0.3441,0.583946 0.92805,-0.490098 -0.40667,-0.406674 -0.96976,-1.053181 1.06361,-0.37539 -7.579026,-5.0022668 -0.541076,0.382766 -0.305344,-0.479561 -1.209594,-0.406674 -0.385818,0.291973 -0.980186,-0.302397 -1.459855,1.345147 -0.656935,-0.239833 -2.627737,2.6277368 -0.583942,-0.271114 -0.355789,0.252434 -0.04046,1.582812 -0.80292,0.583939 c -0.426497,-0.02313 -0.747553,0.38437 -0.750781,0.907196 l -1.407718,1.272159 c 0.08881,0.374688 0.232349,0.530464 0.375393,0.688219 l 1.293015,-0.656935 0.333678,0.604795 0.375393,-0.02085 0.271114,1.063606 c -0.01782,0.343894 -0.04337,0.523919 0.104276,0.729928 L 36.551019,17.9492 c -0.07686,-0.40589 -0.18921,-0.421303 -0.29197,-0.542231 -0.106227,-0.304361 -0.176619,-0.610357 -0.21898,-0.928049 l 0.583943,-0.521378 0.552658,1.616268 0.583943,0.667363 0.698643,-0.709075 0.260689,0.521379 0.594368,-0.396246 -0.08342,-0.396246 0.145984,-0.510951 -0.823772,-2.033369 2.544317,-0.563084 -0.02085,0.563087 0.437955,0.980188 0.844631,-0.04171 0.573512,1.167882 z"
       id="path5138"
       inkscape:connector-curvature="0"
       sodipodi:nodetypes="ccccccccsszccccccccccccccccccccccccccccccccccccccccccccccccccccccccccc" />
    <path
       style="fill:#000000;fill-opacity:1;stroke:none;stroke-width:0.0791963px;stroke-linecap:butt;stroke-linejoin:miter;stroke-opacity:1"
       d="m 65.701191,14.115978 -1.040004,0.04 -3.600015,-8.1600396 -0.488183,0.19425 0.168181,0.96576 -0.320001,0.68 1.103436,3.6400196 -0.748287,2.55515 0.833141,2.0877 4.115164,-0.12484 -0.863435,0.80201 0.320001,2.64001 0.880004,0.56 -0.360002,1.28001 0.440002,0.88 1.060004,0.19001 0.140001,0.52999 0.920005,0.2 v 0.32001 l -0.460002,0.44 -0.06,0.76 -2.720011,0.88001 -0.03,1.78 -0.260001,0.20001 -2.990014,-0.82001 -0.680002,1.24 0.490001,0.77001 0.110001,0.75 -0.550002,0.51 0.11,0.89001 1.470006,-0.17 1.770008,-1.84001 1.160005,0.1 -0.09,1.10001 c 0.803047,0.25779 4.251955,-0.73232 4.250019,-4.87003 l 0.960002,0.16 c -0.306477,2.99238 -0.06234,3.93861 2.110008,3.90002 l 0.610006,-1.58 0.33,0.04 0.110001,1.52 h 0.520002 l 0.43,-0.44 0.370005,-1.16 1.080005,-1.14001 0.186182,-0.6648 -0.386185,-0.63521 -1.200007,0.65001 -0.329997,-0.05 0.4,-0.79 -0.430001,-0.63001 -1.450009,-0.1 -0.590002,-0.98 -0.09,-1.65001 0.520002,-0.05 0.23312,0.16712 0.376882,0.42289 0.800005,0.17 0.2,-0.24001 -0.119999,-0.48 -0.400002,-0.32 0.08,-0.2 -0.730002,-0.88 0.179999,-0.45001 0.523738,-0.0253 0.18852,-0.33656 0.587747,-0.16807 0.05,-0.34 0.320002,-0.08 0.08,-1.20001 -0.230004,-1.44001 -0.810002,-0.68 0.370001,-0.32 2.350009,-0.2 0.188284,-1.64001 -0.762012,-2.42344 -0.21657,-3.3482896 -0.435146,-0.81658 -0.09956,-0.8567202 -0.581424,-0.035 -0.538436,7.8868898 -0.550297,0.11315 -0.39515,-3.04286 c -2.102792,1.06538 -2.807626,4.86149 -3.009718,8.88288 l -0.520002,0.04 c -0.355559,-4.39942 -2.127213,-6.90214 -4.360019,-8.44004 z"
       id="path5175"
       inkscape:connector-curvature="0"
       sodipodi:nodetypes="cccccccccccccccccccccccccccccccccccccccccccccccccccccccccccccccccccccccccccccccccccccc" />
    <path
       style="fill:#000000;fill-opacity:1;stroke:none;stroke-width:0.07411765px;stroke-linecap:butt;stroke-linejoin:miter;stroke-opacity:1"
       d="m 86.934526,18.77396 0.952941,-2.75295 2.187675,2.87238 0.520977,0.45114 1.4737,2.20884 0.29118,-0.18529 -0.29118,-0.39706 0.0529,-0.29118 -0.87353,-1.24412 c -0.42896,-1.05839 1.27961,-1.75188 1.77353,-1.08529 l 0.91324,1.21765 0.77426,0.21176 0.90662,1.03235 0.37059,-0.34412 -1.40294,-1.77353 -0.0529,-0.68823 -1.85294,-2.72647 3.81176,1.37647 2.72647,3.52059 1.111771,0.0265 0.39705,0.37059 c 1.05487,-0.0499 2.03311,0.13008 2.93824,0.52941 l 1.27059,2.01177 -1.48235,0.31764 -0.1853,0.84706 -3.25588,0.95294 c 0,0 -0.0911,0.34328 -0.239561,0.42486 -0.1485,0.0816 -0.52809,-0.0278 -0.52809,-0.0278 0,0 -0.0868,0.53205 -0.43449,0.85215 -0.499,0.45935 -1.31247,0.57507 -1.85515,0.61524 -0.27141,0.0201 -0.72107,-0.0491 -0.72107,-0.0491 l -0.57566,0.10792 -0.34357,-0.71925 c 0,0 -0.10197,0.26235 -0.27888,0.3048 -0.17692,0.0425 -0.6353,-0.23823 -0.6353,-0.23823 l -3.8647,0.37058 -0.423532,-0.52941 -1.429412,0.15883 -1.508824,-2.03824 c 0.760924,-1.33644 1.326227,-1.67106 2.170589,-1.98529 z"
       id="path5203"
       inkscape:connector-curvature="0"
       sodipodi:nodetypes="cccccccccccccccccccccccccczcssccczccccccc" />
    <path
       style="fill:#000000;fill-opacity:1;stroke:none;stroke-width:0.09961755px;stroke-linecap:butt;stroke-linejoin:miter;stroke-opacity:1"
       d="m 129.0766,26.038741 c 0,0 0.73893,1.74512 2.2805,1.64906 1.54157,-0.0961 1.89595,-1.04681 2.0717,-1.2717 l 1.0566,0.45283 -0.15094,-0.60377 -0.69183,-0.36479 c 0.18775,-0.79643 -0.10737,-1.49926 -0.64151,-2.25157 l 0.20126,-0.30188 c 0.83113,0.26837 2.30626,-0.57516 2.30956,-2.17428 0.003,-1.59914 -1.22779,-2.12761 -1.22779,-2.12761 l -0.60378,-1.28302 -0.55346,-0.20126 -1.15723,-1.66038 -2.86792,-2.01257 3.19496,-2.26415 -1.20754,-1.03145 -0.22642,0.42767 -3.37107,1.81132 -1.03145,-0.5283 c -0.46438,-0.22492 -0.70708,0.12832 -0.47798,0.37736 l 0.72956,0.65409 -0.3522,0.27673 c -0.42446,-0.4676 -0.8856,-0.41072 -1.3801,-0.13762 -0.4945,0.27309 -0.99846,0.93445 -0.78342,1.26969 l -0.15724,0.0786 c 0,0 -0.40162,-0.43119 -1.52559,-0.12016 -1.12397,0.31102 -1.26057,0.92204 -1.26057,0.92204 l -0.93082,-0.67924 -0.65409,0.0755 -0.65409,0.15094 -1.26217,-1.16765 c -0.72085,0.19212 -1.07835,0.59186 -1.47996,0.9664 l -0.27673,0.65408 -5.03145,-0.65408 0.1761,0.5283 0.67925,0.67924 4.02515,0.80503 0.88051,0.93082 0.27673,1.10692 1.00629,0.8805 -0.10063,0.55346 -2.08805,1.86164 -0.75472,1.25786 0.75472,0.90566 3.01886,-2.54088 0.57862,1.20754 2.06289,1.45913 1.63522,1.63522 0.93082,1.08176 -1.83648,2.4654 0.60378,0.80504 2.2893,-2.11321 c -0.0232,0.0148 1.59538,1.30282 3.02581,0.3405 1.43043,-0.96233 0.64715,-2.70528 0.64715,-2.70528 z"
       id="path5231"
       inkscape:connector-curvature="0"
       sodipodi:nodetypes="czcccccczccccccccccccczcczcccccccccccccccccccccccccczcc" />
    <path
       style="fill:#000000;fill-opacity:1;stroke:none;stroke-width:0.10153326px;stroke-linecap:butt;stroke-linejoin:miter;stroke-opacity:1"
       d="m 154.06025,22.28567 1.33333,0.92307 0.61539,-1.1282 5.33333,-2.07692 1.4359,0.25641 0.35897,-1.71795 5.76923,-4.69231 1.15385,1.89744 0.53846,-0.33333 0.84615,1.17948 -0.0513,-1.07692 -1.23077,-1.89743 0.25642,-0.66667 -3.48718,-5.6666705 -0.89789,-0.29266 -0.82006,0.7542 -7.46154,0.53846 -1.78846,-1.97436 -0.58334,0.30769 0.73077,1.51923 -1.17948,-0.0577 -0.8718,0.71795 -0.97435,0.0513 -0.66667,0.8718 -0.56411,-1.79487 -0.71794,0.25641 V 11.08055 l -5.20513,4.12821 -1.76923,0.30769 -0.46154,1 1.30769,6.46154 0.53846,0.48718 0.66667,2.43589 0.74359,0.41026 -0.28205,-1.61539 0.51282,-0.20512 -0.51282,-2 z"
       id="path5259"
       inkscape:connector-curvature="0"
       sodipodi:nodetypes="cccccccccccccccccccccccccccccccccccccc" />
    <g
       transform="matrix(0.45360834,0,0,0.45360834,3.6936792,66.988373)"
       id="g879">
      <circle
         r="1.5367998"
         cy="141.51596"
         cx="84.39035"
         id="path42"
         style="fill:#000000;fill-opacity:1;stroke:none;stroke-width:0.26458332;stroke-opacity:1" />
      <circle
         r="1.2361215"
         cy="145.52597"
         cx="86.08609"
         id="path44"
         style="fill:#000000;fill-opacity:1;stroke:none;stroke-width:0.26458332;stroke-opacity:1" />
      <circle
         r="1.1693041"
         cy="105.93569"
         cx="128.92413"
         id="path46"
         style="fill:#000000;fill-opacity:1;stroke:none;stroke-width:0.26458332;stroke-opacity:1" />
      <circle
         r="1.503391"
         cy="105.06707"
         cx="122.77694"
         id="path48"
         style="fill:#000000;fill-opacity:1;stroke:none;stroke-width:0.26458332;stroke-opacity:1" />
      <circle
         r="2.271791"
         cy="113.38178"
         cx="101.96738"
         id="path50"
         style="fill:#000000;fill-opacity:1;stroke:none;stroke-width:0.26458332;stroke-opacity:1" />
      <circle
         r="2.4054255"
         cy="122.67345"
         cx="92.675705"
         id="path52"
         style="fill:#000000;fill-opacity:1;stroke:none;stroke-width:0.26458332;stroke-opacity:1" />
      <circle
         r="2.5724692"
         cy="129.54515"
         cx="99.469139"
         id="path54"
         style="fill:#000000;fill-opacity:1;stroke:none;stroke-width:0.26458332;stroke-opacity:1" />
      <circle
         r="2.1715648"
         cy="119.36598"
         cx="111.21753"
         id="path58"
         style="fill:#000000;fill-opacity:1;stroke:none;stroke-width:0.26458332;stroke-opacity:1" />
      <circle
         r="3.4410951"
         cy="118.29691"
         cx="98.58905"
         id="path60"
         style="fill:#000000;fill-opacity:1;stroke:none;stroke-width:0.26458332;stroke-opacity:1" />
      <path
         sodipodi:nodetypes="cccccccccccccccccccccccccccccccccccccccccccccccccccc"
         inkscape:connector-curvature="0"
         id="path62"
         d="m 90.598925,123.57647 1.074521,4.44237 -8.485807,8.10161 -1.403164,-0.68488 -0.868627,0.53454 0.734991,1.73725 -0.06682,1.40317 1.202714,0.96884 3.96417,7.2917 0.529299,-0.32598 -2.338609,-7.60048 1.202714,-1.08578 2.589172,0.16705 5.061417,-4.74404 0.250566,-2.23838 1.503392,-1.45328 1.846566,0.62904 4.62068,-1.33581 0.63497,-2.02533 6.06081,3.60073 5.74629,2.3386 1.80407,2.20498 8.21854,1.5368 2.40543,-2.53906 -5.27857,-5.94675 -1.40317,-1.20271 -0.86863,0.46772 -8.37313,-5.97917 1.72481,-1.00325 0.0757,-2.78766 -1.7289,-1.38368 1.08528,-2.67744 2.7159,0.33409 4.87361,-4.97622 -0.29495,-2.35413 1.52534,-1.48955 9.08716,0.93545 0.11743,-0.92734 -0.71878,-0.14174 -0.57299,-1.75613 -0.75931,-0.0709 -0.2045,1.35927 -8.97646,-1.61982 -3.36044,0.53386 0.12078,1.9391 -8.29682,6.8977 -2.13815,-0.66817 -2.33861,-0.53454 -3.875413,5.81311 -2.931283,2.93116 -2.13595,0.61214 z"
         style="fill:#000000;fill-opacity:1;stroke:none;stroke-width:0.26458332px;stroke-linecap:butt;stroke-linejoin:miter;stroke-opacity:1" />
    </g>
    <path
       style="fill:#000000;fill-opacity:1;stroke:none;stroke-width:0.06803776px;stroke-linecap:butt;stroke-linejoin:miter;stroke-opacity:1"
       d="m 8.1713625,48.149429 -0.6185564,0.54983 -1.2027491,4.70791 9.621992,5.80755 c 0.128866,1.17698 1.214291,1.30071 1.924398,1.16839 0.710107,-0.13232 1.563574,-0.79038 1.271478,-1.64949 l 0.23332,-0.18504 c 0.721649,0.0344 0.754596,-0.43155 0.763243,-0.60533 0.0063,-0.12711 -0.064,-0.55675 -0.633527,-0.60831 -0.05887,-0.005 -0.01939,-0.14771 -0.01939,-0.14771 l 0.859107,-0.10309 5.532646,4.50172 1.477662,0.13746 c 1.468819,1.07617 2.968109,1.8781 4.501719,2.37113 l 0.309277,-0.68729 c -0.792146,-1.62516 -2.146239,-2.80076 -3.23024,-4.19244 l -0.412369,-0.34364 -0.618557,0.27492 0.06873,-1.03093 -1.065293,-0.72165 2.474229,-1.03093 4.364261,2.50859 0.652918,-0.34364 -0.06873,0.65292 c 1.615119,0.78685 3.230243,1.35437 4.845363,1.75258 l 0.34364,-0.13746 0.103092,-0.82474 c -0.801829,-1.00133 -1.603666,-1.79631 -2.405495,-2.47423 l -0.721652,-0.34364 -0.618555,-0.75601 -0.412369,-0.24055 0.03436,-0.51547 -2.92096,-2.19931 0.79038,-0.30928 c 0.94767,0.77758 2.344625,0.62588 2.749138,-0.17182 0.404513,-0.7977 0.146216,-2.05352 -1.40893,-2.19931 l -6.632304,-5.49829 -0.206186,0.0687 -0.446734,-0.378 0.06873,-0.34365 -7.182129,-0.51546 -0.06873,1.27148 7.491409,2.13058 0.996564,3.50516 -0.996564,-0.20619 -4.329898,-2.50859 0.06873,-0.13746 -5.498281,-2.71477 -0.756013,0.0344 -0.24055,0.0687 -0.412371,0.41237 0.137457,0.10309 -0.652921,0.20619 -0.515464,-0.0687 -1.134021,0.34364 -0.309278,0.30928 0.137458,3.53952 2.302405,3.09278 0.584193,0.0687 0.962198,1.06529 -0.206186,1.03093 c -0.242166,-0.21024 -0.707822,0.19721 -0.515464,0.51547 l 0.790378,1.16838 -1.340206,0.0344 0.06873,-2.06185 -4.398625,-3.3677 -4.0206188,-0.20618 z"
       id="path937"
       inkscape:connector-curvature="0"
       sodipodi:nodetypes="cccczccssccccccccccccccccccccccccczccccccccccccccccccccccccccccccccc" />
    <path
       style="fill:#000000;fill-opacity:1;stroke:none;stroke-width:0.07902144px;stroke-linecap:butt;stroke-linejoin:miter;stroke-opacity:1"
       d="m 56.309419,49.178481 -5.627572,2.474536 c -0.413255,-0.235185 -0.780289,-0.339405 -0.878061,0.319291 l -3.552155,1.476736 1.676298,1.636396 9.858229,-1.436836 c 0.93756,0.516705 1.569917,0.168675 2.195151,-0.19956 l 1.396915,-0.1197 1.157444,0.91797 -0.558767,0.478951 13.051179,10.137593 -0.279386,0.91797 8.630644,5.25468 1.86617,-1.82226 -0.27938,-0.15964 2.63419,-2.59428 0.27938,0.59868 3.07321,-2.55435 -0.23448,-0.30932 0.43404,-1.7262 -6.98457,-4.78941 -0.55877,0.31929 -4.988983,-3.352583 -0.319294,-1.197361 -6.70519,-4.390293 -0.239472,-0.638596 -0.997798,0.997801 -0.399119,-0.0399 -2.195151,1.636381 0.07983,0.359205 -0.239472,0.359205 -0.11973,0.399121 0.19956,0.359205 -0.399119,0.27939 -1.596475,-1.357006 0.558767,-0.478935 0.758324,0.51885 c 0.582854,-1.593076 0.200919,-4.980333 0.11973,-7.7429 l -0.6785,-1.396921 -1.696255,-1.277176 -0.159647,0.818191 -0.299338,0.638595 c -0.719519,-0.47583 -1.181734,-0.009 -0.518855,0.4989 l -2.474535,4.230648 0.43903,0.279391 -0.718413,1.077615 -0.399119,-0.0798 -0.09978,-1.676296 -3.572112,-2.713997 c -0.796961,-0.613965 -2.113271,-0.878235 -2.953476,-0.19956 -0.840205,0.678675 -0.931511,1.725811 -0.239472,2.514437 z"
       id="path965"
       inkscape:connector-curvature="0"
       sodipodi:nodetypes="ccccccccccccccccccccccccccccccccccccccccccccccccczcc" />
    <path
       inkscape:connector-curvature="0"
       style="fill:#000000;fill-opacity:1;stroke:#000000;stroke-width:0.08014449px;stroke-linecap:butt;stroke-linejoin:miter;stroke-opacity:1"
       d="m 194.20315,18.782815 -0.45801,0.0286 -0.0859,0.65838 -12.22204,1.11623 -0.88722,-0.57244 -0.37208,-0.0287 -1.17352,3.03407 2.78471,2.51892 c -0.006,0.47989 0.11271,0.8137 0.7897,0.68686 l 1.0195,1.0018 h 0.58683 l 0.31479,-1.17352 0.20741,0.0859 0.19331,-0.20036 c 0,0 0.41167,0.62367 0.94452,1.11623 0.53285,0.49255 2.3472,1.68882 2.3472,1.68882 l 0.80144,3.06256 -0.57243,0.42936 0.17171,1.48847 -1.55123,0.0858 c -0.003,0.2652 -0.0425,0.52228 0.63521,0.94467 l 2.03225,-0.0286 1.25946,0.4865 c 0.3679,0.80719 1.03373,0.86958 1.8319,0.60108 l 2.97677,1.48847 c -0.2241,0.58342 0.0431,1.06004 1.0591,1.37388 l 1.18182,0.0216 c 0.84827,0.0565 1.18711,-0.42177 1.36558,-1.19511 l -0.0286,-0.48666 c 0.26761,-0.25832 0.36311,-0.81295 0.45301,-1.53574 0.0899,-0.72279 -0.68086,-2.82915 -1.62653,-4.21745 10e-4,-0.97959 -0.62775,-1.28063 -1.31675,-1.51695 -0.0327,-0.77339 -0.73961,-1.27491 -1.60289,-1.71747 l 0.42937,-3.11985 1.23081,-0.14322 0.31839,0.55365 c 0.21098,0.49668 1.11401,0.15713 0.81913,-0.36409 l -0.13571,-0.33263 0.5153,-0.17172 1.37389,1.03045 0.51514,-0.14307 -0.80144,-3.00542 -1.37388,-1.03045 c -0.20559,-0.34257 -0.45488,-0.59792 -0.88739,-0.48666 z m -0.14323,1.88918 0.25766,1.00181 1.74595,1.14488 -0.14307,0.34343 c -1.07776,-0.82663 -1.02282,-0.34164 -1.11623,-0.0285 l -2.69063,0.28613 c -0.48768,-0.60343 -0.9945,-1.06596 -1.64186,-0.49839 -1.37303,-0.96997 -1.76701,-0.12147 -2.02193,0.98505 -0.75773,-0.4087 -1.59751,-0.98173 -1.91768,-0.5153 -1.40563,-0.49287 -1.13205,-0.42403 -2.00361,0 l -1.8319,-1.60289 z"
       id="path1001"
       inkscape:transform-center-x="9.0722419"
       inkscape:transform-center-y="-5.2912549" />
    <path
       style="fill:#000000;fill-opacity:1;stroke:none;stroke-width:0.09195556px;stroke-linecap:butt;stroke-linejoin:miter;stroke-opacity:1"
       d="m 71.065362,118.88694 0.544356,1.46192 0.235524,-0.0617 1.340858,3.34582 -0.394096,0.19705 c 0,0 1.318106,2.82448 1.88954,3.2473 0.571436,0.42282 1.193263,0.54894 1.876279,0.52347 0.68302,-0.0255 1.245322,-0.49123 1.492085,-0.9524 0.246763,-0.46117 0.05194,-1.41452 -0.101825,-1.89882 -0.153766,-0.4843 -0.394095,-0.91955 -0.394095,-0.91955 l -0.197047,-0.13137 -0.164206,0.0328 -0.197046,-0.49262 2.922873,-1.18229 1.28081,1.11661 1.018078,-0.0657 1.116606,1.05091 -0.853873,1.74059 c 3.108333,3.1621 5.473551,4.46643 8.210314,6.69962 l 1.00735,0.22756 0.39356,-0.16188 0.78187,0.6973 0.32278,-0.18345 -0.41134,-0.88273 1.74821,-1.00647 0.83828,0.72217 0.34003,-0.22789 -0.42296,-0.9252 0.75899,-0.4674 -0.0309,-0.60111 c 0,0 -1.9786,-3.36718 -2.82998,-4.61303 -0.85139,-1.24584 -2.10184,-2.7915 -2.10184,-2.7915 0,0 0.0338,-0.0556 -0.36126,-0.19705 -0.39506,-0.14144 -1.514983,-0.36102 -2.069003,-0.3941 -0.47274,0.12948 -1.01808,0.3941 -1.01808,0.3941 l -0.75535,-0.59114 v -0.7882 l -1.018078,-0.91955 1.609218,-0.68967 c 0,0 1.09463,0.79918 1.69614,1.07415 0.601513,0.27496 1.380903,0.51544 1.871953,0.59114 0.49106,0.0757 0.96366,0.0454 1.37803,-0.11611 0.41437,-0.16148 0.68876,-0.39997 0.85518,-1.0005 0.16642,-0.60053 -0.39988,-1.41794 -0.81175,-2.03815 -0.41188,-0.62022 -1.60689,-1.46625 -1.60689,-1.46625 l -0.35363,0.24316 -4.900981,-2.5092 -0.51584,-0.42096 -0.75102,-0.19506 -1.59596,0.88671 -0.144971,1.05656 0.633601,1.14546 0.8635,0.64721 0.62398,0.39409 -1.34649,0.62399 -0.919561,-0.59115 -0.492618,0.13137 -1.445017,-0.0985 -0.394096,0.72251 -1.445016,0.75535 0.09852,0.98524 -2.791507,1.1166 -0.262729,-0.36125 -0.328413,-0.0657 -0.853874,-1.31365 0.09653,-0.29159 -0.807429,-1.36374 -1.062532,0.0133 -1.313651,0.49262 z"
       id="path902"
       inkscape:connector-curvature="0"
       sodipodi:nodetypes="ccccczzzzccccccccccccccccccccczczcccccczzzzzcccccccccccccccccccccccccc" />
    <path
       style="fill:#000000;fill-opacity:1;stroke:none;stroke-width:0.10646388px;stroke-linecap:butt;stroke-linejoin:miter;stroke-opacity:1"
       d="m 123.83943,163.45962 1.10266,1.1597 -4.63878,1.673 -2.09126,-2.1673 0.20913,-0.3327 3.63118,-1.49239 1.03612,0.49429 0.86502,-0.5133 0.15209,-0.58936 -1.55894,-2.01521 -0.57034,-3.72623 2.92776,0.11407 1.06464,3.15589 1.15969,-0.36122 v -2.98479 l 3.25095,0.51331 0.13308,3.06084 2.8327,1.1787 1.55894,0.038 c 3.74022,1.47263 7.55124,2.73287 11.10266,4.77187 1.26567,1.69442 2.03631,3.47135 2.69962,5.26616 l -0.77947,0.1711 c -4.8258,-0.94712 -9.67064,-2.48792 -14.20152,-4.54372 l -0.46761,0.41403 1.79821,1.03083 -0.0864,0.12629 -1.91302,-0.96971 -0.46682,0.39407 -2.6666,-1.45179 1.12294,-1.17516 -3.90812,-1.9237 -1.13117,0.96959 -1.55894,-0.72244 z"
       id="path1062"
       inkscape:connector-curvature="0"
       sodipodi:nodetypes="cccccccccccccccccccccccccccccccccc" />
    <path
       inkscape:connector-curvature="0"
       style="fill:#000000;fill-opacity:1;stroke:none;stroke-width:0.09271447px;stroke-linecap:butt;stroke-linejoin:miter;stroke-opacity:1"
       d="m 127.77149,42.954947 c -0.7733,0.0734 -1.32833,0.4262 -1.60077,1.01932 l 0.75457,1.11547 c 0,0 -0.0887,0.64577 0.0116,1.08287 0.10033,0.4371 0.33944,0.86702 0.68558,1.45428 0.34614,0.58726 1.45156,2.01364 1.45156,2.01364 l -2.71588,0.98328 -4.77643,-3.09054 -1.68588,-0.14052 -3.88676,-2.66916 -1.63898,0.70242 0.0936,0.74932 -5.10419,2.01346 c 0,0 -0.65559,-0.46821 -0.70242,-0.65552 -0.0468,-0.18731 -1.59208,0.74932 -1.59208,0.74932 l 0.79604,3.93348 -1.26432,1.17071 0.53854,4.51892 -2.48555,0.89401 -2.70972,-3.38426 c -0.45183,-0.47473 -0.98755,-0.79691 -1.59371,-0.69844 l -0.812339,-0.99396 c -0.81054,-0.0673 -1.19485,0.39824 -1.51222,0.94742 l 0.57023,1.06604 c 0,0 0.0164,0.77545 0.13762,1.20909 0.12118,0.43364 0.17224,0.67238 0.5619,1.35812 0.38966,0.68574 3.512099,5.33833 3.512099,5.33833 l 0.70242,0.0936 2.48193,2.71606 -0.23414,0.5619 2.85658,4.16763 0.43315,0.0587 c 0,0 0.98827,1.3797 1.67411,1.58031 0.68585,0.20061 1.07493,0.0991 1.40484,-0.43315 0.32992,-0.53228 0.0889,-1.21492 -0.11716,-1.76774 -0.20608,-0.55281 -0.67906,-1.1238 -0.67906,-1.1238 l -0.28086,-0.98346 -0.70242,-0.88966 1.96348,-0.51283 c 3.38926,1.93453 7.14176,2.64457 10.65655,2.42108 l 0.69084,0.49164 0.44582,0.0549 0.32088,-0.14849 1.09465,1.45754 0.21657,-0.14631 -1.00682,-1.46333 0.88387,-0.42157 0.80201,0.71999 -0.19321,1.05951 0.46828,0.74914 0.47987,0.0176 0.43297,0.42591 0.18054,-0.0172 0.46955,0.64502 0.18144,-0.11716 -0.39802,-0.55592 c 0.72526,-0.12516 1.41448,-0.37062 1.90825,-1.26741 l 0.71691,0.77848 0.19322,-0.16968 -0.77848,-0.85453 0.079,-0.23413 -0.32776,-0.33664 0.0936,-1.26432 -0.42138,-0.93656 0.17565,-0.85471 -0.33953,-0.71401 0.38625,-0.28104 2.06054,2.61067 0.32777,-0.24591 -1.39326,-1.82622 c 2.16435,-1.81388 3.68824,-4.45756 3.09073,-8.28853 l 1.6857,-1.1707 1.54536,2.3414 0.70242,0.23414 c 0,0 1.36461,1.4462 1.94338,1.54536 0.57877,0.0992 0.77876,-0.10359 0.98346,-0.33953 0.20471,-0.23593 0.18828,-0.52772 0.17728,-0.89744 -0.011,-0.36973 -0.85634,-1.94737 -0.85634,-1.94737 l -0.26927,-0.85471 -2.55218,-3.1608 -1.18229,-0.80782 -0.44492,-1.1238 -1.26433,-1.96674 -0.23413,-0.88984 c 0,0 -2.94408,-4.13131 -4.01914,-4.86153 -1.07506,-0.73022 -1.41734,-0.45923 -1.41734,-0.45923 z m 2.99874,3.17692 1.13484,1.52399 -0.2383,0.18398 -1.15839,-1.52616 z m -2.06761,1.4789 1.08469,1.56003 -0.2441,0.1762 -1.10805,-1.56293 z m -26.16413,9.48983 1.12507,1.63374 -0.22346,0.14903 -1.14245,-1.62251 z m -2.14837,1.31865 1.12507,1.63391 -0.22346,0.14904 -1.14245,-1.62251 z"
       id="path1090" />
    <path
       style="fill:#000000;fill-opacity:1;stroke:none;stroke-width:0.06318383px;stroke-linecap:butt;stroke-linejoin:miter;stroke-opacity:1"
       d="m 12.19647,83.83633 0.0319,-0.66602 c 0,0 -1.21593,-1.16668 -1.3512,-1.90145 -0.13527,-0.73478 0.1391,-1.61922 0.67424,-1.99353 0.53513,-0.3743 1.777,-0.12965 2.1476,0.0187 0.37061,0.14835 1.05171,0.72484 1.05171,0.72484 l 1.19164,1.17936 c 0,0 1.12283,0.35735 1.4898,0.83059 0.36698,0.47324 0.49872,1.45421 0.49872,1.45421 l 1.53172,0.0374 -1.08315,-1.66986 0.0342,-1.14745 -0.70567,-1.09637 0.11396,-0.57575 1.2532,-0.65828 0.99562,-0.18874 0.002,-0.98741 -1.09637,-1.09637 c -0.43958,-0.43959 -0.63933,-1.53579 -0.37153,-2.14761 0.26781,-0.61182 0.67108,-0.96707 1.31108,-1.10458 0.63999,-0.13751 1.83169,-0.0506 2.29943,0.42761 0.46773,0.47822 1.23253,1.18983 1.33024,1.85586 0.0977,0.66603 -0.35645,1.36241 -0.69841,1.70951 -0.34195,0.34711 -0.80462,0.49371 -0.80462,0.49371 l 0.006,0.90537 0.62731,0.66922 0.66828,0.008 0.90263,1.17341 1.39907,0.45132 c 0,0 -0.23507,-0.24407 -0.45131,-0.90263 -0.21624,-0.65856 -0.23708,-1.37582 0.31592,-1.89551 0.55299,-0.5197 1.934443,-0.4935 2.617613,-0.27079 0.68318,0.2227 1.35394,0.76723 1.35394,0.76723 l 0.008,0.35832 0.58671,0.27078 0.35284,-0.13265 c 0,0 1.38679,0.83002 1.76285,1.41502 0.37607,0.58501 0.68112,1.18642 0.6241,1.68808 -0.057,0.50167 -0.32995,0.97722 -0.6241,1.1552 -0.29414,0.17797 -1.04075,-0.016 -1.04075,-0.016 l -0.0451,0.7221 2.92305,2.21644 1.78155,0.16229 -0.005,0.6478 0.39961,0.17361 1.19868,0.0174 0.0369,0.73258 0.49419,0.29603 1.18341,0.0199 0.0187,0.5092 0.59304,0.3986 0.94143,-0.0138 0.59992,1.84264 -0.14587,0.85022 -0.49871,0.093 c 0,0 4.89533,6.024658 5.74075,7.136618 0.84541,1.11196 1.23822,2.448012 1.13148,2.874332 -0.10673,0.42632 -0.52659,0.77961 -1.05123,0.95597 -0.52464,0.17636 -1.71172,0.21763 -2.87472,0.13266 -1.163,-0.085 -3.22432,-0.69379 -5.55115,-1.85039 -2.32683,-1.156602 -7.95359,-5.506027 -7.95359,-5.506027 l -6.092733,0.45131 -5.09757,-4.407383 0.0825,-2.90389 2.40064,-0.57122 0.20375,-1.08495 -0.92906,-1.14197 -3.41582,0.11991 0.016,0.74901 c 0,0 0.78082,1.08388 0.80094,1.64796 0.0201,0.56407 -0.30796,1.33555 -0.74079,1.68034 -0.43284,0.34477 -1.51568,0.36653 -2.07604,0.18052 -0.56036,-0.18601 -3.54059,-2.94793 -3.92643,-3.56537 -0.38583,-0.61744 -0.55529,-1.07327 -0.49644,-1.53447 0.0588,-0.4612 0.36483,-0.80323 0.63184,-0.99289 0.26701,-0.18965 0.76722,-0.18053 0.76722,-0.18053 z"
       id="path1147"
       inkscape:connector-curvature="0"
       sodipodi:nodetypes="cczzzcczcccccccccszzzzzcccccczzzcccczzzcccccccccccccccczzzzzccccccccczzzzzzcc" />
  </g>
</svg>
