<?xml version="1.0" encoding="UTF-8" standalone="no"?>
<!-- Created with Inkscape (http://www.inkscape.org/) -->

<svg
   xmlns:dc="http://purl.org/dc/elements/1.1/"
   xmlns:cc="http://creativecommons.org/ns#"
   xmlns:rdf="http://www.w3.org/1999/02/22-rdf-syntax-ns#"
   xmlns:svg="http://www.w3.org/2000/svg"
   xmlns="http://www.w3.org/2000/svg"
   xmlns:sodipodi="http://sodipodi.sourceforge.net/DTD/sodipodi-0.dtd"
   xmlns:inkscape="http://www.inkscape.org/namespaces/inkscape"
   width="210mm"
   height="297mm"
   id="svg5001"
   version="1.1"
   inkscape:version="0.92.1 r15371"
   sodipodi:docname="template.svg">
  <defs
     id="defs5003" />
  <sodipodi:namedview
     id="base"
     pagecolor="#ffffff"
     bordercolor="#666666"
     borderopacity="1.0"
     inkscape:pageopacity="0.0"
     inkscape:pageshadow="2"
     inkscape:zoom="2.02"
     inkscape:cx="413.88937"
     inkscape:cy="638.95143"
     inkscape:document-units="px"
     inkscape:current-layer="layer1"
     showgrid="false"
     inkscape:window-width="1920"
     inkscape:window-height="1016"
     inkscape:window-x="0"
     inkscape:window-y="27"
     inkscape:window-maximized="1" />
  <metadata
     id="metadata5006">
    <rdf:RDF>
      <cc:Work
         rdf:about="">
        <dc:format>image/svg+xml</dc:format>
        <dc:type
           rdf:resource="http://purl.org/dc/dcmitype/StillImage" />
        <dc:title />
      </cc:Work>
    </rdf:RDF>
  </metadata>
  <g
     inkscape:label="Calque 1"
     inkscape:groupmode="layer"
     id="layer1">
    <path
       inkscape:connector-curvature="0"
       id="path3900"
       d="m 346.27068,600.43936 h 112.21333 v -50.84397 h -0.10949 c -0.47022,-4.85431 -3.70198,-9.07772 -7.61419,-9.69752 -4.23576,-0.67112 -7.66897,3.11577 -7.66897,8.46485 0,0.41081 0.044,0.82911 0.0814,1.23267 h -81.5649 c 0.0411,-0.40356 0.0534,-0.82186 0.0534,-1.23267 0,-5.34908 -3.43329,-9.13597 -7.669,-8.46485 -3.91194,0.61975 -7.11635,4.84351 -7.58679,9.69752 h -0.13693 v 50.84397 z"
       style="fill:none;stroke:#000000;stroke-width:1.06666672;stroke-opacity:1" />
    <path
       style="fill:none;stroke:#000000;stroke-width:1.88976371;stroke-linecap:butt;stroke-linejoin:round;stroke-miterlimit:4;stroke-dasharray:none;stroke-opacity:1"
       d="m 296.38366,570.41561 6.42904,5.75793 0.68063,-7.21503 1.44792,7.19222 6.4045,-5.12054 -4.20994,6.75599 5.52978,0.66407 -5.50712,1.69992 5.2412,2.82691 -6.0538,-1.08142 1.55924,4.30868 -3.55583,-3.62379 -3.91038,5.38814 1.67053,-6.20583 -6.45171,2.91607 5.17713,-5.12449 -4.47969,-1.12698 4.47969,-1.50261 z"
       id="path5533"
       inkscape:connector-curvature="0"
       sodipodi:nodetypes="ccccccccccccccccccc" />
    <rect
       style="fill:none;stroke:#000000;stroke-width:1.06582677;stroke-linecap:butt;stroke-linejoin:round;stroke-miterlimit:4;stroke-dasharray:none;stroke-opacity:1"
       id="rect5551"
       width="34.032284"
       height="49.568752"
       x="287.02377"
       y="492.09274"
       ry="7.9207921" />
    <g
       id="g6233"
       transform="matrix(0.9020323,0,0,0.9020323,-180.62011,202.01536)">
      <path
         style="fill:#000000;fill-opacity:0.98809521;stroke:none;stroke-width:1.06666672"
         d="m 507.17933,407.59299 a 9.7624167,9.7624167 0 0 0 -5.64923,1.81615 h -2.16022 v 2.10977 a 9.7624167,9.7624167 0 0 0 -1.95238,5.83692 9.7624167,9.7624167 0 0 0 1.95238,5.84095 v 1.8323 h 1.79295 a 9.7624167,9.7624167 0 0 0 6.0165,2.08857 9.7624167,9.7624167 0 0 0 6.03267,-2.08857 h 1.7778 v -1.83634 a 9.7624167,9.7624167 0 0 0 1.95237,-5.83691 9.7624167,9.7624167 0 0 0 -1.95237,-5.84096 v -2.10573 h -2.15114 a 9.7624167,9.7624167 0 0 0 -5.65933,-1.81615 z m 0,1.95741 a 7.8055195,7.8055195 0 0 1 7.80542,7.80543 7.8055195,7.8055195 0 0 1 -7.80542,7.80542 7.8055195,7.8055195 0 0 1 -7.80542,-7.80542 7.8055195,7.8055195 0 0 1 7.80542,-7.80543 z"
         id="path4714-2"
         inkscape:connector-curvature="0" />
      <circle
         style="fill:#000000;fill-opacity:1;stroke:none;stroke-width:1.74700379"
         id="path4761-5"
         cx="507.17972"
         cy="417.36951"
         r="2.6205058" />
      <path
         inkscape:connector-curvature="0"
         id="path4767-0"
         d="m 505.33829,423.81873 1.99957,0.44361 -1.49168,4.60707 4.40232,-5.87188 -2.46135,-0.54597 0.38256,-1.18129 h -2.00608 z"
         style="fill:#000000;fill-opacity:1;stroke:none;stroke-width:1.06666672" />
      <path
         style="fill:#000000;fill-opacity:1;stroke:none;stroke-width:1.06666672"
         d="m 508.97188,410.7813 -1.99957,-0.4436 1.49168,-4.60708 -4.4023,5.87189 2.46133,0.54596 -0.38254,1.18129 h 2.00608 z"
         id="path4205"
         inkscape:connector-curvature="0" />
      <path
         inkscape:connector-curvature="0"
         id="path4207"
         d="m 513.71785,418.80867 0.44359,-1.99957 4.60708,1.49167 -5.87187,-4.40232 -0.54598,2.46135 -1.18128,-0.38255 v 2.00608 z"
         style="fill:#000000;fill-opacity:1;stroke:none;stroke-width:1.06666672" />
      <path
         style="fill:#000000;fill-opacity:1;stroke:none;stroke-width:1.06666672"
         d="m 500.67158,415.13107 -0.4436,1.99956 -4.60705,-1.49166 5.87187,4.40231 0.54595,-2.46135 1.18131,0.38256 v -2.0061 z"
         id="path4209"
         inkscape:connector-curvature="0" />
    </g>
    <g
       id="layer1-5"
       inkscape:label="Calque 1"
       transform="matrix(0.3248797,0,0,0.3248797,286.56645,202.57403)">
      <g
         transform="matrix(2.429154,0,0,2.429154,-364.44569,-614.75501)"
         id="g20872">
        <path
           style="fill:#000000;fill-opacity:1;stroke:#000000;stroke-width:0.41166595px;stroke-linecap:butt;stroke-linejoin:miter;stroke-opacity:1"
           d="m 254.19643,416.82647 c 4.07738,3.89702 8.33333,4.36286 12.5,8.48214 -26.0885,13.36516 -32.81012,41.84114 -4.19643,40.625 -32.86005,15.77678 -35.85119,-31.81679 -8.30357,-49.10714 z"
           id="path20354"
           inkscape:connector-curvature="0"
           sodipodi:nodetypes="cccc" />
        <path
           style="fill:#000000;fill-opacity:1;stroke:#000000;stroke-width:0.41166595px;stroke-linecap:butt;stroke-linejoin:miter;stroke-opacity:1"
           d="m 303.03571,422.31754 c 0.87289,-5.89275 0.33305,-8.30377 6.60715,-12.99107 28.29243,16.23789 33.27132,63.9419 -1.29464,52.45536 28.8449,-5.18355 8.51661,-25.28941 -5.31251,-39.46429 z"
           id="path20356"
           inkscape:connector-curvature="0"
           sodipodi:nodetypes="cccc" />
        <path
           style="fill:#000000;fill-opacity:1;stroke:#000000;stroke-width:0.41166595px;stroke-linecap:butt;stroke-linejoin:miter;stroke-opacity:1"
           d="m 272.76785,459.50504 c 1.51289,1.22845 2.71395,1.10564 4.55358,3.75 -0.69566,9.07077 -1.3425,6.84898 -1.51786,20.53571 -0.43519,-12.01293 -4.40814,-15.395 -3.03572,-24.28571 z"
           id="path20358"
           inkscape:connector-curvature="0"
           sodipodi:nodetypes="cccc" />
        <path
           style="fill:#000000;fill-opacity:1;stroke:#000000;stroke-width:0.41166595px;stroke-linecap:butt;stroke-linejoin:miter;stroke-opacity:1"
           d="m 291.07142,463.34433 c 2.28922,4.74273 2.07597,20.49718 3.16965,28.21428 -0.32612,-10.82916 3.03254,-22.43816 -0.0446,-30.22321 -1.49046,0.0565 -1.46989,0.0945 -3.12501,2.00893 z"
           id="path20360"
           inkscape:connector-curvature="0"
           sodipodi:nodetypes="ccccc" />
        <path
           style="fill:#000000;fill-opacity:1;stroke:#000000;stroke-width:0.41166595px;stroke-linecap:butt;stroke-linejoin:miter;stroke-opacity:1"
           d="m 270.51292,385.33899 3.22614,1.15581 c 0.30398,3.13979 -0.11591,4.18653 1.54071,7.04592 1.78561,-3.71557 3.1667,-4.71097 3.33066,-9.91145 -1.50346,-0.0487 -2.95773,-0.29009 -2.95773,-0.29009 -0.2164,-2.70517 0.98674,-3.63592 1.49016,-5.44131 3.81745,0.0292 5.49285,-1.5021 7.80685,-1.71302 1.43648,-0.0962 3.35719,2.17919 4.78243,2.38266 3.63702,-2.50737 7.35957,-1.83286 11.51786,-2.45536 2.90629,9.22433 -0.0299,8.4948 -1.82489,13.42109 -1.92831,3.75621 -4.80024,2.69231 -7.4273,3.71082 -12.93132,6.3639 -7.05335,14.14865 -8.48762,22.12611 3.42832,0.43792 1.88371,-1.84231 3.0523,-3.94552 4.03958,-4.01136 8.61509,-5.18163 12.54465,-8.70536 1.68946,-2.11993 1.95417,-5.06637 2.67857,-7.67857 1.36316,-4.17343 1.48477,-5.70453 3.57143,-6.78571 0.457,2.7821 -0.97338,6.4582 -0.53571,8.88393 2.43176,2.52584 3.19179,3.64524 1.25,8.12499 -8.73674,7.63858 -6.08596,13.2948 -13.54885,19.44736 -0.26961,2.48222 2.751,6.48399 1.68514,9.89906 -1.61239,5.16623 -3.73388,14.51936 -2.24344,23.77858 -1.55017,2.00422 -3.57425,2.30489 -3.92857,6.29465 3.62408,4.87752 1.416,19.89519 2.67858,35.53571 -0.49117,1.96691 -3.92858,4.64286 -3.92858,4.64286 0.51217,-11.62694 1.26681,-24.51986 1.47322,-33.88393 -2.42876,-11.86286 -5.03847,-12.85527 -3.30357,-20.13393 2.89241,-6.25662 4.99492,-12.89432 5.40178,-19.73214 -3.4954,0.1358 -3.93358,4.22508 -6.42857,5.17857 2.86859,5.4817 1.14571,5.81926 -0.20512,11.40203 -2.71825,-7.07422 -3.43352,-7.04124 -1.07143,-11.32602 -0.78854,-1.95842 -3.72397,-5.1143 -5.83158,-4.99102 -2.08432,9.9985 -2.45994,11.00885 3.71527,15.09358 0.32211,3.94397 -1.80479,10.03592 1.25001,13.57144 2.4402,1.95405 1.21251,12.94836 -1.16072,40.44642 -0.9473,-1.21804 -0.77834,-1.12147 -2.5,-3.52679 -0.20643,-5.94086 2.88959,-29.6252 2.54465,-34.15178 -0.13054,-1.71313 -5.79922,-6.56164 -6.91965,-8.61607 -1.69013,-3.09902 2.04942,-19.45048 -3.125,-24.10714 -0.92557,-2.95421 -0.34042,-9.48088 -0.34042,-9.48088 -4.96681,-0.7556 -9.14426,-3.95593 -11.36169,-7.53352 -0.92517,-1.52852 0.46831,-3.48297 -0.0949,-5.17857 -3.13827,-2.51208 -1.54581,-3.95488 -1.32804,-5.66418 1.2975,-4.07085 1.37962,-9.0419 4.66544,-8.62154 1.01712,3.65525 0.24669,7.59409 0.6917,11.25547 10.46083,5.83928 7.62847,7.4846 13.61607,8.34822 0.49449,2.83742 -0.0577,6.04482 3.03572,5.17857 0,0 -0.56631,-8.92683 -1.83036,-12.45536 -1.6557,-2.83237 -1.43519,-4.14188 -1.42857,-7.45535 -5.91808,-2.83132 -15.50525,-7.06121 -13.97322,-16.29465 2.60199,-4.38477 6.00382,-4.9069 10.75893,-4.28571 0.16444,4.4093 -3.03569,2.80284 -2.52271,7.44112 z"
           id="path20362"
           inkscape:connector-curvature="0"
           sodipodi:nodetypes="cccccccccccccccccccscccccccccccccccsscccccccccccccc" />
      </g>
    </g>
    <g
       id="g10099"
       transform="matrix(0.28752273,0,0,0.28752273,242.5232,301.91229)">
      <path
         id="path10097"
         d="M 7.42,145.986 C 9.185,99.193 32.899,56.035 76.25,27.516 c 0.128,0.048 1.251,-0.361 0.738,0.61 -3.434,3.184 -65.172,76.114 -8.344,133.68 0,0 29.858,28.704 53.011,1.468 0,0 22.847,-29.577 -0.289,-74.413 0,0 -5.856,-14.64 -26.955,-23.721 l 16.992,-18.748 c 0,0 14.359,6.161 25.478,22.871 0,0 0.593,-17.593 -12.884,-36.34 l 26.345,-29.89 26.08,29.609 c 0,0 -11.993,16.991 -12.876,36.902 0,0 8.191,-13.477 25.776,-23.151 l 16.686,18.748 c 0,0 -16.045,5.287 -26.794,23.529 -9.242,16.902 -16.357,53.05 0.416,75.223 0,0 18.772,26.618 51.792,-1.571 0,0 60.712,-54.399 -6.226,-133.048 0,0 -3.658,-3.233 0.449,-1.476 29.586,21.54 65.012,49.946 68.67,120.837 -1.444,85.966 -59.012,147.334 -143.074,147.334 C 68.934,295.968 4.95,227.283 7.42,145.986"
         inkscape:connector-curvature="0" />
    </g>
    <g
       id="layer1-2"
       inkscape:label="Calque 1"
       transform="matrix(0.19514845,0,0,0.19514845,82.167279,266.20542)">
      <path
         inkscape:connector-curvature="0"
         id="path20898"
         d="m 494.729,205.60451 c -120.07061,0 -217.4165,97.34589 -217.4165,217.4165 0,120.07061 97.34589,217.4165 217.4165,217.4165 120.07061,0 217.4165,-97.34589 217.4165,-217.4165 0,-120.07061 -97.34589,-217.4165 -217.4165,-217.4165 z m 0,21.85355 c 108.02201,0 195.62877,87.54095 195.62877,195.56295 0,108.02201 -87.60676,195.56295 -195.62877,195.56295 -108.022,0 -195.56295,-87.54094 -195.56295,-195.56295 0,-108.022 87.54095,-195.56295 195.56295,-195.56295 z"
         style="fill:#000000;fill-opacity:1;stroke:#000000;stroke-width:0.6448819;stroke-linecap:butt;stroke-linejoin:miter;stroke-miterlimit:4;stroke-dasharray:none;stroke-dashoffset:0;stroke-opacity:1" />
      <path
         inkscape:connector-curvature="0"
         id="rect3775"
         d="m 485.31618,221.00732 v 17.96994 c 3.11986,-0.15714 6.25395,-0.2633 9.41282,-0.2633 3.15888,0 6.29296,0.10616 9.41283,0.2633 v -17.96994 z m 0,386.05745 v 17.96993 h 18.82565 v -17.96993 c -3.11987,0.15713 -6.25395,0.26329 -9.41283,0.26329 -3.15887,0 -6.29296,-0.10616 -9.41282,-0.26329 z"
         style="fill:#000000;fill-opacity:1;stroke:#000000;stroke-width:0.6448819;stroke-linecap:butt;stroke-miterlimit:4;stroke-dasharray:none;stroke-dashoffset:17.01120567;stroke-opacity:1" />
      <path
         inkscape:connector-curvature="0"
         id="rect3009"
         d="m 324.50827,313.88491 -9.41282,16.25851 15.46863,8.95206 c 2.87357,-5.61024 6.06507,-10.99989 9.47865,-16.25852 z m 334.38565,193.06163 c -2.86613,5.59573 -6.00942,11.01255 -9.41282,16.25852 l 15.46863,8.95205 9.41282,-16.25851 z"
         style="fill:#000000;fill-opacity:1;stroke:#000000;stroke-width:0.6448819;stroke-linecap:butt;stroke-miterlimit:4;stroke-dasharray:none;stroke-dashoffset:17.01120567;stroke-opacity:1" />
      <path
         inkscape:connector-curvature="0"
         id="rect3011"
         d="m 664.94973,313.88491 -15.53445,8.95205 c 3.41357,5.25863 6.60508,10.64828 9.47864,16.25852 l 15.46863,-8.95206 z m -334.38565,193.06163 -15.46863,8.95206 9.41282,16.25851 15.46863,-8.95205 c -3.4034,-5.24597 -6.54669,-10.66279 -9.41282,-16.25852 z"
         style="fill:#000000;fill-opacity:1;stroke:#000000;stroke-width:0.6448819;stroke-linecap:butt;stroke-miterlimit:4;stroke-dasharray:none;stroke-dashoffset:17.01120567;stroke-opacity:1" />
      <path
         inkscape:connector-curvature="0"
         id="path3031"
         d="m 494.729,259.77762 c -90.15684,0 -163.24339,73.08655 -163.24339,163.24339 0,90.15684 73.08655,163.24339 163.24339,163.24339 90.15684,0 163.24339,-73.08655 163.24339,-163.24339 0,-90.15684 -73.08655,-163.24339 -163.24339,-163.24339 z m 0,33.10945 c 71.87619,0 130.13394,58.25775 130.13394,130.13394 0,71.87619 -58.25775,130.13394 -130.13394,130.13394 -71.87619,0 -130.13394,-58.25775 -130.13394,-130.13394 0,-71.87619 58.25775,-130.13394 130.13394,-130.13394 z"
         style="fill:#000000;fill-opacity:1;stroke:#000000;stroke-width:0.6448819;stroke-linecap:butt;stroke-linejoin:miter;stroke-miterlimit:4;stroke-dasharray:none;stroke-dashoffset:0;stroke-opacity:1" />
      <path
         inkscape:connector-curvature="0"
         id="path3830"
         d="m 494.729,238.71396 c -16.03852,0 -32.09723,2.06653 -47.72236,6.25327 l 5.46339,20.40543 c 27.67879,-7.41652 56.83915,-7.41652 84.51794,0 l 5.46339,-20.40543 c -15.62513,-4.18674 -31.68383,-6.25327 -47.72236,-6.25327 z"
         style="fill:#000000;fill-opacity:1;stroke:#000000;stroke-width:0.6448819;stroke-linecap:butt;stroke-linejoin:miter;stroke-miterlimit:4;stroke-dasharray:none;stroke-dashoffset:0;stroke-opacity:1" />
      <path
         style="fill:#000000;fill-opacity:1;stroke:#000000;stroke-width:0.6448819;stroke-linecap:butt;stroke-linejoin:miter;stroke-miterlimit:4;stroke-dasharray:none;stroke-dashoffset:0;stroke-opacity:1"
         d="m 494.729,606.604 c 16.03853,0 32.09723,-2.06654 47.72236,-6.25328 l -5.46339,-20.40542 c -27.67879,7.41652 -56.83915,7.41652 -84.51794,0 l -5.46339,20.40542 c 15.62513,4.18674 31.68384,6.25328 47.72236,6.25328 z"
         id="path3835"
         inkscape:connector-curvature="0" />
      <path
         style="fill:#000000;fill-opacity:1;stroke:#000000;stroke-width:0.6448819;stroke-linecap:butt;stroke-linejoin:miter;stroke-miterlimit:4;stroke-dasharray:none;stroke-dashoffset:0;stroke-opacity:1"
         d="m 335.42795,330.68646 c -8.01927,13.88978 -14.25896,28.8303 -18.4457,44.45543 l 20.40332,5.47127 c 7.41649,-27.67879 21.99667,-52.93242 42.25897,-73.19469 l -14.93993,-14.93414 c -11.43839,11.43839 -21.25741,24.31238 -29.27666,38.20213 z"
         id="path3837"
         inkscape:connector-curvature="0" />
      <path
         inkscape:connector-curvature="0"
         id="path3839"
         d="m 654.03005,514.63149 c 8.01927,-13.88978 14.25896,-28.83029 18.4457,-44.45543 l -20.40331,-5.47126 c -7.4165,27.67879 -21.99668,52.93242 -42.25898,73.19469 l 14.93993,14.93414 c 11.43839,-11.43839 21.25741,-24.31238 29.27666,-38.20214 z"
         style="fill:#000000;fill-opacity:1;stroke:#000000;stroke-width:0.6448819;stroke-linecap:butt;stroke-linejoin:miter;stroke-miterlimit:4;stroke-dasharray:none;stroke-dashoffset:0;stroke-opacity:1" />
      <path
         inkscape:connector-curvature="0"
         id="path3841"
         d="m 335.42795,514.63147 c 8.01925,13.88978 17.83829,26.76379 29.27668,38.20218 l 14.93991,-14.93416 c -20.2623,-20.26227 -34.84248,-45.5159 -42.25897,-73.19469 l -20.40332,5.47129 c 4.18674,15.62513 10.42643,30.56562 18.4457,44.45538 z"
         style="fill:#000000;fill-opacity:1;stroke:#000000;stroke-width:0.6448819;stroke-linecap:butt;stroke-linejoin:miter;stroke-miterlimit:4;stroke-dasharray:none;stroke-dashoffset:0;stroke-opacity:1" />
      <path
         style="fill:#000000;fill-opacity:1;stroke:#000000;stroke-width:0.6448819;stroke-linecap:butt;stroke-linejoin:miter;stroke-miterlimit:4;stroke-dasharray:none;stroke-dashoffset:0;stroke-opacity:1"
         d="M 654.03005,330.68649 C 646.0108,316.79671 636.19176,303.9227 624.75337,292.48431 l -14.93991,14.93416 c 20.2623,20.26227 34.84248,45.5159 42.25898,73.19469 l 20.40331,-5.47129 c -4.18674,-15.62513 -10.42643,-30.56563 -18.4457,-44.45538 z"
         id="path3843"
         inkscape:connector-curvature="0" />
      <path
         inkscape:connector-curvature="0"
         id="path3876"
         d="m 617.02989,378.52402 -60.82132,22.11685 c 5.26265,14.459 5.26265,30.30128 0,44.76028 l 60.82132,22.11685 c 10.46481,-28.75182 10.46481,-60.24216 0,-88.99398 z"
         style="fill:#000000;fill-opacity:1;stroke:#000000;stroke-width:0.6448819;stroke-linecap:butt;stroke-linejoin:miter;stroke-miterlimit:4;stroke-dasharray:none;stroke-dashoffset:0;stroke-opacity:1" />
      <path
         inkscape:connector-curvature="0"
         id="path3878"
         d="m 371.96734,378.52402 c -10.46481,28.75182 -10.46481,60.24216 0,88.99398 l 60.82133,-22.11685 c -5.26265,-14.459 -5.26265,-30.30128 0,-44.76028 z"
         style="fill:#000000;fill-opacity:1;stroke:#000000;stroke-width:0.6448819;stroke-linecap:butt;stroke-linejoin:miter;stroke-miterlimit:4;stroke-dasharray:none;stroke-dashoffset:0;stroke-opacity:1" />
      <path
         inkscape:connector-curvature="0"
         style="fill:#000000;fill-opacity:1;stroke:#000000;stroke-width:0.6448819;stroke-linecap:butt;stroke-linejoin:miter;stroke-miterlimit:4;stroke-dasharray:none;stroke-dashoffset:0;stroke-opacity:1"
         d="m 517.22874,294.65732 -11.25692,63.73123 c 15.15319,2.67193 28.87301,10.59306 38.76354,22.38014 l 49.56442,-41.61438 c -19.6674,-23.4387 -46.93884,-39.18387 -77.07104,-44.49699 z"
         id="path3884" />
      <path
         inkscape:connector-curvature="0"
         style="fill:#000000;fill-opacity:1;stroke:#000000;stroke-width:0.6448819;stroke-linecap:butt;stroke-linejoin:miter;stroke-miterlimit:4;stroke-dasharray:none;stroke-dashoffset:0;stroke-opacity:1"
         d="m 394.69745,506.88771 c 19.6674,23.4387 46.93884,39.18387 77.07104,44.49699 l 11.25693,-63.73123 c -15.1532,-2.67193 -28.87302,-10.59306 -38.76354,-22.38014 z"
         id="path3886" />
      <path
         id="path3888"
         d="m 394.69745,339.15431 49.5644,41.61438 c 9.89057,-11.78708 23.61039,-19.70821 38.76355,-22.38014 l -11.25689,-63.73123 c -30.13222,5.31312 -57.40364,21.05829 -77.07106,44.49699 z"
         style="fill:#000000;fill-opacity:1;stroke:#000000;stroke-width:0.6448819;stroke-linecap:butt;stroke-linejoin:miter;stroke-miterlimit:4;stroke-dasharray:none;stroke-dashoffset:0;stroke-opacity:1"
         inkscape:connector-curvature="0" />
      <path
         id="path3890"
         d="m 517.22872,551.3847 c 30.13222,-5.31312 57.40364,-21.05829 77.07106,-44.49699 l -49.5644,-41.61438 c -9.89057,11.78708 -23.61039,19.70821 -38.76354,22.38014 z"
         style="fill:#000000;fill-opacity:1;stroke:#000000;stroke-width:0.6448819;stroke-linecap:butt;stroke-linejoin:miter;stroke-miterlimit:4;stroke-dasharray:none;stroke-dashoffset:0;stroke-opacity:1"
         inkscape:connector-curvature="0" />
    </g>
  </g>
</svg>
