<?xml version="1.0" encoding="UTF-8" standalone="no"?>
<!-- Created with Inkscape (http://www.inkscape.org/) -->

<svg
   xmlns:dc="http://purl.org/dc/elements/1.1/"
   xmlns:cc="http://creativecommons.org/ns#"
   xmlns:rdf="http://www.w3.org/1999/02/22-rdf-syntax-ns#"
   xmlns:svg="http://www.w3.org/2000/svg"
   xmlns="http://www.w3.org/2000/svg"
   xmlns:sodipodi="http://sodipodi.sourceforge.net/DTD/sodipodi-0.dtd"
   xmlns:inkscape="http://www.inkscape.org/namespaces/inkscape"
   width="210mm"
   height="297mm"
   id="svg5001"
   version="1.1"
   inkscape:version="0.48.4 r9939"
   sodipodi:docname="template.svg">
  <defs
     id="defs5003" />
  <sodipodi:namedview
     id="base"
     pagecolor="#ffffff"
     bordercolor="#666666"
     borderopacity="1.0"
     inkscape:pageopacity="0.0"
     inkscape:pageshadow="2"
     inkscape:zoom="0.5"
     inkscape:cx="-770.14198"
     inkscape:cy="684.77133"
     inkscape:document-units="px"
     inkscape:current-layer="layer1"
     showgrid="false"
     inkscape:window-width="1920"
     inkscape:window-height="1027"
     inkscape:window-x="-8"
     inkscape:window-y="-8"
     inkscape:window-maximized="1" />
  <metadata
     id="metadata5006">
    <rdf:RDF>
      <cc:Work
         rdf:about="">
        <dc:format>image/svg+xml</dc:format>
        <dc:type
           rdf:resource="http://purl.org/dc/dcmitype/StillImage" />
        <dc:title />
      </cc:Work>
    </rdf:RDF>
  </metadata>
  <g
     inkscape:label="Calque 1"
     inkscape:groupmode="layer"
     id="layer1">
    <path
       inkscape:connector-curvature="0"
       id="path3900"
       d="m 346.27068,600.43936 h 112.21333 v -50.84397 h -0.10949 c -0.47022,-4.85431 -3.70198,-9.07772 -7.61419,-9.69752 -4.23576,-0.67112 -7.66897,3.11577 -7.66897,8.46485 0,0.41081 0.044,0.82911 0.0814,1.23267 h -81.5649 c 0.0411,-0.40356 0.0534,-0.82186 0.0534,-1.23267 0,-5.34908 -3.43329,-9.13597 -7.669,-8.46485 -3.91194,0.61975 -7.11635,4.84351 -7.58679,9.69752 h -0.13693 v 50.84397 z"
       style="fill:none;stroke:#000000;stroke-width:1.06666672;stroke-opacity:1" />
    <path
       style="fill:none;stroke:#000000;stroke-width:1.88976371;stroke-linecap:butt;stroke-linejoin:round;stroke-miterlimit:4;stroke-dasharray:none;stroke-opacity:1"
       d="m 296.38366,570.41561 6.42904,5.75793 0.68063,-7.21503 1.44792,7.19222 6.4045,-5.12054 -4.20994,6.75599 5.52978,0.66407 -5.50712,1.69992 5.2412,2.82691 -6.0538,-1.08142 1.55924,4.30868 -3.55583,-3.62379 -3.91038,5.38814 1.67053,-6.20583 -6.45171,2.91607 5.17713,-5.12449 -4.47969,-1.12698 4.47969,-1.50261 z"
       id="path5533"
       inkscape:connector-curvature="0"
       sodipodi:nodetypes="ccccccccccccccccccc" />
    <rect
       style="fill:none;stroke:#000000;stroke-width:1.06582677;stroke-linecap:butt;stroke-linejoin:round;stroke-miterlimit:4;stroke-dasharray:none;stroke-opacity:1"
       id="rect5551"
       width="34.032284"
       height="49.568752"
       x="287.02377"
       y="492.09274"
       ry="7.9207921" />
    <g
       id="g6233"
       transform="matrix(0.9020323,0,0,0.9020323,-180.62011,202.01536)">
      <path
         style="fill:#000000;fill-opacity:0.98809521;stroke:none;stroke-width:1.06666672"
         d="m 507.17933,407.59299 a 9.7624167,9.7624167 0 0 0 -5.64923,1.81615 h -2.16022 v 2.10977 a 9.7624167,9.7624167 0 0 0 -1.95238,5.83692 9.7624167,9.7624167 0 0 0 1.95238,5.84095 v 1.8323 h 1.79295 a 9.7624167,9.7624167 0 0 0 6.0165,2.08857 9.7624167,9.7624167 0 0 0 6.03267,-2.08857 h 1.7778 v -1.83634 a 9.7624167,9.7624167 0 0 0 1.95237,-5.83691 9.7624167,9.7624167 0 0 0 -1.95237,-5.84096 v -2.10573 h -2.15114 a 9.7624167,9.7624167 0 0 0 -5.65933,-1.81615 z m 0,1.95741 a 7.8055195,7.8055195 0 0 1 7.80542,7.80543 7.8055195,7.8055195 0 0 1 -7.80542,7.80542 7.8055195,7.8055195 0 0 1 -7.80542,-7.80542 7.8055195,7.8055195 0 0 1 7.80542,-7.80543 z"
         id="path4714-2"
         inkscape:connector-curvature="0" />
      <circle
         style="fill:#000000;fill-opacity:1;stroke:none;stroke-width:1.74700379"
         id="path4761-5"
         cx="507.17972"
         cy="417.36951"
         r="2.6205058"
         d="m 509.80022,417.36951 c 0,1.44726 -1.17324,2.6205 -2.6205,2.6205 -1.44727,0 -2.62051,-1.17324 -2.62051,-2.6205 0,-1.44727 1.17324,-2.62051 2.62051,-2.62051 1.44726,0 2.6205,1.17324 2.6205,2.62051 z" />
      <path
         inkscape:connector-curvature="0"
         id="path4767-0"
         d="m 505.33829,423.81873 1.99957,0.44361 -1.49168,4.60707 4.40232,-5.87188 -2.46135,-0.54597 0.38256,-1.18129 h -2.00608 z"
         style="fill:#000000;fill-opacity:1;stroke:none;stroke-width:1.06666672" />
      <path
         style="fill:#000000;fill-opacity:1;stroke:none;stroke-width:1.06666672"
         d="m 508.97188,410.7813 -1.99957,-0.4436 1.49168,-4.60708 -4.4023,5.87189 2.46133,0.54596 -0.38254,1.18129 h 2.00608 z"
         id="path4205"
         inkscape:connector-curvature="0" />
      <path
         inkscape:connector-curvature="0"
         id="path4207"
         d="m 513.71785,418.80867 0.44359,-1.99957 4.60708,1.49167 -5.87187,-4.40232 -0.54598,2.46135 -1.18128,-0.38255 v 2.00608 z"
         style="fill:#000000;fill-opacity:1;stroke:none;stroke-width:1.06666672" />
      <path
         style="fill:#000000;fill-opacity:1;stroke:none;stroke-width:1.06666672"
         d="m 500.67158,415.13107 -0.4436,1.99956 -4.60705,-1.49166 5.87187,4.40231 0.54595,-2.46135 1.18131,0.38256 v -2.0061 z"
         id="path4209"
         inkscape:connector-curvature="0" />
    </g>
    <g
       id="layer1-5"
       inkscape:label="Calque 1"
       transform="matrix(0.3248797,0,0,0.3248797,286.56645,202.57403)">
      <g
         transform="matrix(2.429154,0,0,2.429154,-364.44569,-614.75501)"
         id="g20872">
        <path
           style="fill:#000000;fill-opacity:1;stroke:#000000;stroke-width:0.41166595px;stroke-linecap:butt;stroke-linejoin:miter;stroke-opacity:1"
           d="m 254.19643,416.82647 c 4.07738,3.89702 8.33333,4.36286 12.5,8.48214 -26.0885,13.36516 -32.81012,41.84114 -4.19643,40.625 -32.86005,15.77678 -35.85119,-31.81679 -8.30357,-49.10714 z"
           id="path20354"
           inkscape:connector-curvature="0"
           sodipodi:nodetypes="cccc" />
        <path
           style="fill:#000000;fill-opacity:1;stroke:#000000;stroke-width:0.41166595px;stroke-linecap:butt;stroke-linejoin:miter;stroke-opacity:1"
           d="m 303.03571,422.31754 c 0.87289,-5.89275 0.33305,-8.30377 6.60715,-12.99107 28.29243,16.23789 33.27132,63.9419 -1.29464,52.45536 28.8449,-5.18355 8.51661,-25.28941 -5.31251,-39.46429 z"
           id="path20356"
           inkscape:connector-curvature="0"
           sodipodi:nodetypes="cccc" />
        <path
           style="fill:#000000;fill-opacity:1;stroke:#000000;stroke-width:0.41166595px;stroke-linecap:butt;stroke-linejoin:miter;stroke-opacity:1"
           d="m 272.76785,459.50504 c 1.51289,1.22845 2.71395,1.10564 4.55358,3.75 -0.69566,9.07077 -1.3425,6.84898 -1.51786,20.53571 -0.43519,-12.01293 -4.40814,-15.395 -3.03572,-24.28571 z"
           id="path20358"
           inkscape:connector-curvature="0"
           sodipodi:nodetypes="cccc" />
        <path
           style="fill:#000000;fill-opacity:1;stroke:#000000;stroke-width:0.41166595px;stroke-linecap:butt;stroke-linejoin:miter;stroke-opacity:1"
           d="m 291.07142,463.34433 c 2.28922,4.74273 2.07597,20.49718 3.16965,28.21428 -0.32612,-10.82916 3.03254,-22.43816 -0.0446,-30.22321 -1.49046,0.0565 -1.46989,0.0945 -3.12501,2.00893 z"
           id="path20360"
           inkscape:connector-curvature="0"
           sodipodi:nodetypes="ccccc" />
        <path
           style="fill:#000000;fill-opacity:1;stroke:#000000;stroke-width:0.41166595px;stroke-linecap:butt;stroke-linejoin:miter;stroke-opacity:1"
           d="m 270.51292,385.33899 3.22614,1.15581 c 0.30398,3.13979 -0.11591,4.18653 1.54071,7.04592 1.78561,-3.71557 3.1667,-4.71097 3.33066,-9.91145 -1.50346,-0.0487 -2.95773,-0.29009 -2.95773,-0.29009 -0.2164,-2.70517 0.98674,-3.63592 1.49016,-5.44131 3.81745,0.0292 5.49285,-1.5021 7.80685,-1.71302 1.43648,-0.0962 3.35719,2.17919 4.78243,2.38266 3.63702,-2.50737 7.35957,-1.83286 11.51786,-2.45536 2.90629,9.22433 -0.0299,8.4948 -1.82489,13.42109 -1.92831,3.75621 -4.80024,2.69231 -7.4273,3.71082 -12.93132,6.3639 -7.05335,14.14865 -8.48762,22.12611 3.42832,0.43792 1.88371,-1.84231 3.0523,-3.94552 4.03958,-4.01136 8.61509,-5.18163 12.54465,-8.70536 1.68946,-2.11993 1.95417,-5.06637 2.67857,-7.67857 1.36316,-4.17343 1.48477,-5.70453 3.57143,-6.78571 0.457,2.7821 -0.97338,6.4582 -0.53571,8.88393 2.43176,2.52584 3.19179,3.64524 1.25,8.12499 -8.73674,7.63858 -6.08596,13.2948 -13.54885,19.44736 -0.26961,2.48222 2.751,6.48399 1.68514,9.89906 -1.61239,5.16623 -3.73388,14.51936 -2.24344,23.77858 -1.55017,2.00422 -3.57425,2.30489 -3.92857,6.29465 3.62408,4.87752 1.416,19.89519 2.67858,35.53571 -0.49117,1.96691 -3.92858,4.64286 -3.92858,4.64286 0.51217,-11.62694 1.26681,-24.51986 1.47322,-33.88393 -2.42876,-11.86286 -5.03847,-12.85527 -3.30357,-20.13393 2.89241,-6.25662 4.99492,-12.89432 5.40178,-19.73214 -3.4954,0.1358 -3.93358,4.22508 -6.42857,5.17857 2.86859,5.4817 1.14571,5.81926 -0.20512,11.40203 -2.71825,-7.07422 -3.43352,-7.04124 -1.07143,-11.32602 -0.78854,-1.95842 -3.72397,-5.1143 -5.83158,-4.99102 -2.08432,9.9985 -2.45994,11.00885 3.71527,15.09358 0.32211,3.94397 -1.80479,10.03592 1.25001,13.57144 2.4402,1.95405 1.21251,12.94836 -1.16072,40.44642 -0.9473,-1.21804 -0.77834,-1.12147 -2.5,-3.52679 -0.20643,-5.94086 2.88959,-29.6252 2.54465,-34.15178 -0.13054,-1.71313 -5.79922,-6.56164 -6.91965,-8.61607 -1.69013,-3.09902 2.04942,-19.45048 -3.125,-24.10714 -0.92557,-2.95421 -0.34042,-9.48088 -0.34042,-9.48088 -4.96681,-0.7556 -9.14426,-3.95593 -11.36169,-7.53352 -0.92517,-1.52852 0.46831,-3.48297 -0.0949,-5.17857 -3.13827,-2.51208 -1.54581,-3.95488 -1.32804,-5.66418 1.2975,-4.07085 1.37962,-9.0419 4.66544,-8.62154 1.01712,3.65525 0.24669,7.59409 0.6917,11.25547 10.46083,5.83928 7.62847,7.4846 13.61607,8.34822 0.49449,2.83742 -0.0577,6.04482 3.03572,5.17857 0,0 -0.56631,-8.92683 -1.83036,-12.45536 -1.6557,-2.83237 -1.43519,-4.14188 -1.42857,-7.45535 -5.91808,-2.83132 -15.50525,-7.06121 -13.97322,-16.29465 2.60199,-4.38477 6.00382,-4.9069 10.75893,-4.28571 0.16444,4.4093 -3.03569,2.80284 -2.52271,7.44112 z"
           id="path20362"
           inkscape:connector-curvature="0"
           sodipodi:nodetypes="cccccccccccccccccccscccccccccccccccsscccccccccccccc" />
      </g>
    </g>
    <g
       id="g10099"
       transform="matrix(0.28752273,0,0,0.28752273,242.5232,301.91229)">
      <path
         id="path10097"
         d="M 7.42,145.986 C 9.185,99.193 32.899,56.035 76.25,27.516 c 0.128,0.048 1.251,-0.361 0.738,0.61 -3.434,3.184 -65.172,76.114 -8.344,133.68 0,0 29.858,28.704 53.011,1.468 0,0 22.847,-29.577 -0.289,-74.413 0,0 -5.856,-14.64 -26.955,-23.721 l 16.992,-18.748 c 0,0 14.359,6.161 25.478,22.871 0,0 0.593,-17.593 -12.884,-36.34 l 26.345,-29.89 26.08,29.609 c 0,0 -11.993,16.991 -12.876,36.902 0,0 8.191,-13.477 25.776,-23.151 l 16.686,18.748 c 0,0 -16.045,5.287 -26.794,23.529 -9.242,16.902 -16.357,53.05 0.416,75.223 0,0 18.772,26.618 51.792,-1.571 0,0 60.712,-54.399 -6.226,-133.048 0,0 -3.658,-3.233 0.449,-1.476 29.586,21.54 65.012,49.946 68.67,120.837 -1.444,85.966 -59.012,147.334 -143.074,147.334 C 68.934,295.968 4.95,227.283 7.42,145.986"
         inkscape:connector-curvature="0" />
    </g>
    <path
       style="fill:#000000;fill-opacity:1;stroke:none"
       d="M 178.71875 306.34375 C 155.28715 306.34375 136.28125 325.31841 136.28125 348.75 C 136.28125 372.1816 155.28715 391.1875 178.71875 391.1875 C 202.15034 391.1875 221.15625 372.1816 221.15625 348.75 C 221.15625 325.31841 202.15034 306.34375 178.71875 306.34375 z M 176.75 310.65625 C 176.79126 310.65416 176.8337 310.65821 176.875 310.65625 L 176.875 312.84375 C 174.36201 312.97148 171.85594 313.34361 169.40625 314 L 170.5 317.96875 C 165.02579 319.42524 160.14622 322.30779 156.25 326.1875 L 153.34375 323.28125 C 151.54028 325.08472 149.96608 327.09275 148.59375 329.21875 L 146.625 328.09375 C 153.08585 318.07986 164.10369 311.2971 176.75 310.65625 z M 180.5625 310.65625 C 193.27036 311.25931 204.32892 318.06641 210.8125 328.125 L 208.875 329.25 C 207.49747 327.1104 205.9074 325.0949 204.09375 323.28125 L 201.1875 326.15625 C 197.29364 322.28382 192.40494 319.42344 186.9375 317.96875 L 188.03125 314 C 185.58156 313.34361 183.07549 312.97148 180.5625 312.84375 L 180.5625 310.65625 z M 178.71875 323.375 C 180.24134 323.375 181.73869 323.49322 183.1875 323.75 L 180.90625 336.15625 C 183.86337 336.67767 186.53863 338.19977 188.46875 340.5 L 198.125 332.40625 C 200.02188 334.65673 201.53447 337.24443 202.5625 340.0625 L 190.71875 344.375 C 191.74575 347.19666 191.74575 350.30335 190.71875 353.125 L 202.5625 357.46875 C 201.53238 360.29254 200.0273 362.87131 198.125 365.125 L 188.46875 357 C 186.53862 359.30023 183.86336 360.85358 180.90625 361.375 L 183.21875 373.75 C 181.75958 374.01061 180.2529 374.15625 178.71875 374.15625 C 177.1846 374.15625 175.67792 374.01061 174.21875 373.75 L 176.4375 361.375 C 173.48038 360.85358 170.80512 359.30023 168.875 357 L 159.25 365.0625 C 157.35823 362.8064 155.83336 360.22876 154.8125 357.40625 L 166.625 353.125 C 165.598 350.30335 165.598 347.19666 166.625 344.375 L 154.8125 340.09375 C 155.83085 337.28856 157.37057 334.71375 159.25 332.46875 L 168.875 340.5 C 170.80513 338.19977 173.48038 336.67767 176.4375 336.15625 L 174.21875 323.75 C 175.67709 323.4897 177.18553 323.375 178.71875 323.375 z M 144.78125 331.28125 L 146.75 332.40625 C 145.61206 334.63657 144.6844 336.96868 144.03125 339.40625 L 147.9375 340.4375 C 147.22378 343.08641 146.84375 345.87559 146.84375 348.75 C 146.84375 351.57911 147.21413 354.32611 147.90625 356.9375 L 144.03125 357.96875 C 144.69421 360.44293 145.65051 362.80242 146.8125 365.0625 L 144.78125 366.21875 C 142.0822 360.9845 140.5625 355.04593 140.5625 348.75 C 140.5625 342.4497 142.07869 336.51816 144.78125 331.28125 z M 212.65625 331.28125 C 215.36042 336.51816 216.875 342.4497 216.875 348.75 C 216.875 355.04593 215.35691 360.9845 212.65625 366.21875 L 210.625 365.0625 C 211.787 362.80241 212.74329 360.44293 213.40625 357.96875 L 209.5 356.9375 C 210.19212 354.32611 210.5625 351.57911 210.5625 348.75 C 210.5625 345.87559 210.18247 343.08641 209.46875 340.4375 L 213.40625 339.40625 C 212.75552 336.97769 211.81955 334.66046 210.6875 332.4375 L 212.65625 331.28125 z M 148.625 368.21875 C 149.98887 370.32282 151.55675 372.30675 153.34375 374.09375 L 156.1875 371.28125 C 160.07566 375.16941 164.96776 378.06311 170.4375 379.53125 L 169.40625 383.375 C 171.85594 384.03139 174.36201 384.40352 176.875 384.53125 L 176.875 386.875 C 164.17269 386.27221 153.10608 379.45816 146.625 369.40625 L 148.625 368.21875 z M 208.8125 368.25 L 210.8125 369.40625 C 204.3278 379.45816 193.26525 386.27221 180.5625 386.875 L 180.5625 384.53125 C 183.07549 384.40352 185.58156 384.03139 188.03125 383.375 L 187 379.53125 C 192.46974 378.06311 197.36184 375.16941 201.25 371.28125 L 204.09375 374.09375 C 205.87449 372.31301 207.45188 370.34572 208.8125 368.25 z "
       id="path20898" />
    <path
       style="fill:none;stroke:#000000;stroke-width:1px;stroke-linecap:butt;stroke-linejoin:miter;stroke-opacity:1"
       d="m 258.58172,602.30413 21.1191,17.94973 6.11477,-27.20746 4.77877,27.7732 22.35233,-17.22967 -14.43909,24.37871 22.40371,2.88018 -20.81078,7.86908 20.81078,18.05258 -26.36033,-9.10344 1.33601,20.41845 -11.61294,-16.97251 -17.77909,23.76152 7.75908,-27.72178 -25.74371,8.02337 20.86217,-17.58969 -17.00832,-8.3834 19.11509,-1.90298 z"
       id="path4027"
       inkscape:connector-curvature="0" />
    <path
       sodipodi:nodetypes="czc"
       inkscape:connector-curvature="0"
       id="path6991"
       d="m 314.58607,424.94824 c 10.63206,0 11.41393,8.02121 11.41393,11.41394 0,3.39273 -0.0581,11.41394 11.41394,11.41394"
       style="fill:none;stroke:#000000;stroke-width:1.00000012px;stroke-linecap:square;stroke-linejoin:miter;stroke-opacity:1" />
  </g>
</svg>
