<?xml version="1.0" encoding="UTF-8" standalone="no"?>
<!-- Created with Inkscape (http://www.inkscape.org/) -->

<svg
   xmlns:dc="http://purl.org/dc/elements/1.1/"
   xmlns:cc="http://creativecommons.org/ns#"
   xmlns:rdf="http://www.w3.org/1999/02/22-rdf-syntax-ns#"
   xmlns:svg="http://www.w3.org/2000/svg"
   xmlns="http://www.w3.org/2000/svg"
   xmlns:sodipodi="http://sodipodi.sourceforge.net/DTD/sodipodi-0.dtd"
   xmlns:inkscape="http://www.inkscape.org/namespaces/inkscape"
   width="475.69415"
   height="558.22382"
   id="svg10143"
   version="1.1"
   inkscape:version="0.48.4 r9939"
   sodipodi:docname="mercs.svg">
  <defs
     id="defs10145" />
  <sodipodi:namedview
     id="base"
     pagecolor="#ffffff"
     bordercolor="#666666"
     borderopacity="1.0"
     inkscape:pageopacity="0.0"
     inkscape:pageshadow="2"
     inkscape:zoom="0.35"
     inkscape:cx="237.84708"
     inkscape:cy="279.11185"
     inkscape:document-units="px"
     inkscape:current-layer="layer1"
     showgrid="false"
     inkscape:window-width="511"
     inkscape:window-height="423"
     inkscape:window-x="2364"
     inkscape:window-y="172"
     inkscape:window-maximized="0"
     fit-margin-top="5"
     fit-margin-left="5"
     fit-margin-right="5"
     fit-margin-bottom="5"
     units="mm" />
  <metadata
     id="metadata10148">
    <rdf:RDF>
      <cc:Work
         rdf:about="">
        <dc:format>image/svg+xml</dc:format>
        <dc:type
           rdf:resource="http://purl.org/dc/dcmitype/StillImage" />
        <dc:title />
      </cc:Work>
    </rdf:RDF>
  </metadata>
  <g
     inkscape:label="Calque 1"
     inkscape:groupmode="layer"
     id="layer1"
     transform="translate(-137.15292,-253.25027)">
    <path
       inkscape:connector-curvature="0"
       style="opacity:0.98999999;color:#000000;fill:#000000;fill-opacity:1;stroke:none;stroke-width:1.051;marker:none;visibility:visible;display:inline;overflow:visible;enable-background:accumulate"
       d="m 501.05222,382.7168 c 0.19324,3.74136 0.25427,7.5093 0.25427,11.31482 0,17.73241 -2.02896,34.83928 -5.97525,50.85314 43.78631,34.73774 71.83007,88.0785 71.83007,147.85551 0,67.13498 -35.39672,126.1136 -88.73874,159.806 69.43578,-36.53786 116.70796,-108.64228 116.70796,-191.71634 0,-73.71615 -37.19577,-138.82823 -94.07831,-178.11313 z m -252.10445,0.12693 c -56.83754,39.29544 -94.07831,104.33262 -94.07831,177.98599 0,83.17373 47.38988,155.34744 116.96222,191.84348 -53.45112,-33.67165 -88.993,-92.71614 -88.993,-159.93313 0,-59.77701 28.00825,-113.11777 71.83007,-147.85551 -3.94625,-16.01386 -5.97525,-33.12073 -5.97525,-50.85314 0,-3.7624 0.0655,-7.4879 0.25427,-11.18769 z"
       id="path8410" />
    <path
       style="fill:#000000;fill-opacity:1;stroke:none"
       d="m 329.9314,270.96702 c -84.42297,77.25202 -49.93254,181.81288 -33.30881,209.89634 3.98233,6.72746 2.22033,15.86313 0.63566,24.79091 0.42628,9.01349 2.24804,5.06204 3.17833,20.34125 0.9304,15.2806 -24.78733,34.61785 -9.6621,52.25161 20.38898,23.77038 56.12295,25.80394 66.10908,66.87188 6.0774,24.99338 2.93211,39.4004 1.77986,59.37104 0,0 -25.70886,18.10006 -25.04517,30.51189 12.38323,0.72581 18.81566,0.12693 18.81566,0.12693 0,0 3.22735,33.32475 15.25595,49.83608 2.32118,3.18617 8.8246,10.59088 15.63734,8.39077 5.6023,-1.80916 13.0601,-7.7438 18.05286,-16.78154 3.11632,-5.44043 10.98448,-18.62157 0.63567,-20.84979 -3.8827,-0.83598 -2.89574,9.41495 -6.86518,9.2807 -2.61775,-0.0887 -4.27195,-7.39515 -2.28839,-11.82336 3.49862,-7.81035 9.78923,-17.29007 9.78923,-17.29007 l 12.07762,0 c 0,0 5.34316,3.55208 8.13651,1.65273 4.43406,-3.0149 6.97253,-12.31663 5.84811,-14.74741 -2.80462,-6.06296 -11.95403,-7.55149 -14.49315,-13.73035 -5.89359,-14.34197 -3.5229,-42.64333 8.5179,-55.04852 13.7297,-14.14515 38.87886,-19.28946 43.47944,-63.0579 4.156,-39.53893 -15.36302,-43.63606 -16.90867,-66.49048 -0.6329,-9.35898 4.0868,-11.30014 5.72098,-20.08699 0.9097,-4.89118 -6.88743,-11.27171 -0.88993,-23.51958 43.75917,-89.36374 21.94378,-158.06231 -32.67315,-205.57383 34.79319,48.13998 41.00419,121.28535 9.53497,164.89131 -18.7629,-0.61739 -21.89301,-13.56229 -36.36,-16.6544 0.0887,-22.52066 -11.22614,-44.98689 -18.94279,-67.50755 -8.58955,23.00499 -18.17231,46.41472 -17.41721,68.90601 -19.9959,-1.59634 -16.86554,16.33525 -36.99566,16.52727 -21.73642,-38.2473 -35.5557,-98.37215 8.64504,-170.48516 z m 68.14321,181.29145 c 18.98559,17.44909 16.1523,66.7679 -4.75839,86.63195 -0.54417,20.29626 -2.56385,36.49795 -17.10846,58.6809 -21.19014,-18.35497 -20.22869,-51.12226 -20.66814,-58.31765 -23.02863,-19.03942 -26.22977,-68.746 1.34394,-86.74094 -15.37546,26.37891 -7.31797,69.53846 17.29007,69.54168 22.52034,-0.90405 29.54287,-22.00929 23.90098,-69.79594 z m 50.34461,131.32824 c 3.47734,-0.286 5.58754,1.19692 5.33958,5.21244 -1.13809,18.43179 -5.2701,26.10073 -11.31483,32.67315 -12.03592,13.08663 -38.30331,18.39305 -37.75845,10.29776 1.50692,-22.38917 31.31463,-47.16214 43.7337,-48.18335 z m -148.23691,16.52727 c -4.83866,4.24062 -8.16266,11.3684 -1.52559,26.95216 22.92679,11.21345 31.63175,33.22041 43.60656,47.54769 -4.01056,-33.77881 -35.33996,-67.35771 -42.08097,-74.49985 z"
       id="path8415"
       inkscape:connector-curvature="0"
       sodipodi:nodetypes="cscssscccsscscsccssssssssccccccccccccccccsssccccc" />
  </g>
</svg>
