<?xml version="1.0" encoding="UTF-8" standalone="no"?>
<!-- Created with Inkscape (http://www.inkscape.org/) -->

<svg
   xmlns:dc="http://purl.org/dc/elements/1.1/"
   xmlns:cc="http://creativecommons.org/ns#"
   xmlns:rdf="http://www.w3.org/1999/02/22-rdf-syntax-ns#"
   xmlns:svg="http://www.w3.org/2000/svg"
   xmlns="http://www.w3.org/2000/svg"
   xmlns:sodipodi="http://sodipodi.sourceforge.net/DTD/sodipodi-0.dtd"
   xmlns:inkscape="http://www.inkscape.org/namespaces/inkscape"
   width="106.07448mm"
   height="112.00997mm"
   id="svg2"
   version="1.1"
   inkscape:version="0.92.1 r15371"
   sodipodi:docname="millenium.svg">
  <defs
     id="defs4" />
  <sodipodi:namedview
     id="base"
     pagecolor="#ffffff"
     bordercolor="#666666"
     borderopacity="1.0"
     inkscape:pageopacity="0.0"
     inkscape:pageshadow="2"
     inkscape:zoom="0.51182115"
     inkscape:cx="-423.80802"
     inkscape:cy="299.88429"
     inkscape:document-units="px"
     inkscape:current-layer="layer1"
     showgrid="false"
     inkscape:window-width="1680"
     inkscape:window-height="997"
     inkscape:window-x="1912"
     inkscape:window-y="-8"
     inkscape:window-maximized="1"
     inkscape:object-paths="true"
     inkscape:snap-intersection-paths="true"
     fit-margin-top="5"
     fit-margin-left="5"
     fit-margin-right="5"
     fit-margin-bottom="5" />
  <metadata
     id="metadata7">
    <rdf:RDF>
      <cc:Work
         rdf:about="">
        <dc:format>image/svg+xml</dc:format>
        <dc:type
           rdf:resource="http://purl.org/dc/dcmitype/StillImage" />
        <dc:title></dc:title>
      </cc:Work>
    </rdf:RDF>
  </metadata>
  <g
     inkscape:label="Calque 1"
     inkscape:groupmode="layer"
     id="layer1"
     transform="translate(-171.81916,-304.85275)">
    <circle
       style="color:#000000;display:inline;overflow:visible;visibility:visible;opacity:0.98999999;fill:#000000;fill-opacity:1;stroke:none;stroke-width:0.30000001;stroke-miterlimit:4;stroke-dasharray:none;stroke-opacity:1;marker:none;enable-background:accumulate"
       id="path2997"
       cx="372.27487"
       cy="527.74182"
       r="181.55807" />
    <path
       style="color:#000000;display:inline;overflow:visible;visibility:visible;fill:#ffffff;fill-opacity:1;stroke:none;stroke-width:0.30000001;stroke-miterlimit:4;stroke-dasharray:none;stroke-opacity:1;marker:none;enable-background:accumulate"
       d="m 340.44336,323.90039 -60.32422,125.41016 c -15.34099,16.78667 -25.6787,37.39248 -30.03711,59.48633 4.35052,1.97588 8.67259,4.07604 13.07031,5.85351 3.74768,-22.42605 14.35076,-43.1361 30.34766,-59.27539 l 1.64062,1.64062 c -15.58785,15.73244 -25.93431,35.90689 -29.62109,57.75782 l 70.84766,3.70117 0.043,3.29492 0.0449,24.75 -70.75781,5.34766 c 0.74866,4.06321 1.73093,8.06366 2.93164,11.98633 l 1.63281,-0.5 c 0.71822,2.35145 1.51818,4.67708 2.39844,6.97265 v 0.002 l -1.58789,0.60938 c 5.33259,13.88166 13.50919,26.57527 24.08984,37.21875 l -1.73633,1.7363 c -10.80965,-10.89891 -19.15848,-23.88917 -24.59766,-38.09177 l -2.22851,0.85547 c -0.93473,-2.43702 -1.7842,-4.90597 -2.54688,-7.40234 l 2.28907,-0.70118 c -1.24827,-4.0923 -2.26785,-8.26514 -3.03516,-12.50585 l -0.0215,0.002 c -0.20556,-1.1065 -0.38717,-2.21646 -0.5586,-3.32813 l -15.35351,7.85352 c 4.96061,25.68125 17.69631,48.58478 35.65234,66.16598 l -2.90039,3.9043 4.82812,15.4082 c 11.97251,9.4915 25.33211,16.8765 39.50782,21.9707 l 1.06445,-2.9765 0.25195,0.055 c 5.13035,1.8261 10.36936,3.3491 15.69336,4.5508 0.0727,0.016 0.14602,0.031 0.21875,0.047 l -0.72461,3.1308 c 5.55865,1.2529 11.20403,2.1654 16.9043,2.7305 l 0.37305,-3.1992 c 9.07491,0.9586 18.13489,0.6927 27.10937,-0.1289 l 0.33985,3.2285 c 5.11313,-0.6066 9.638,-1.3071 14.09961,-2.2324 0.75506,-0.1676 1.46558,-0.3384 2.1914,-0.5079 l -0.70703,-3.1406 c 0.35216,-0.08 0.7029,-0.1744 1.05469,-0.2578 0.74064,-0.1754 1.47956,-0.3553 2.2168,-0.543 0.45877,-0.1171 0.91707,-0.2352 1.375,-0.3574 1.14204,-0.3034 2.28094,-0.6183 3.41406,-0.9512 1.33736,-0.3928 2.66616,-0.8107 3.99023,-1.2441 1.53784,-0.5033 3.06934,-1.0264 4.58789,-1.584 l -0.01,-0.021 c 5.02521,-1.8495 9.94483,-3.9796 14.68554,-6.375 l 1.56836,2.836 c 0.71791,-0.3624 1.43402,-0.727 2.14258,-1.0996 1.25885,-0.6677 2.50688,-1.3578 3.7461,-2.0645 2.67288,-1.5235 5.29475,-3.1351 7.86132,-4.832 1.44443,-0.9556 2.8721,-1.9402 4.28321,-2.9512 2.06244,-1.4849 4.08403,-3.0258 6.0625,-4.6211 l 5.44531,-15.9414 -3.50195,-3.502 c 17.50499,-17.4037 29.92046,-39.92558 34.8125,-65.1855 l -2.625,-1.18555 c -4.47435,23.37398 -15.67618,45.43555 -32.98047,63.15425 l -9.66797,-9.6679 c 7.73894,-8.0406 24.76616,-28.53906 29.37109,-57.13674 L 407.75,546.51953 v -24.75 h 72.58008 c 0,0 -2.6191,-20.46075 -6.76953,-28.75976 l 12.77539,-5.01563 c 2.72724,7.08734 4.76684,14.3234 6.13672,21.61914 l 2.57812,-1.04101 c -3.17525,-16.79161 -9.6722,-32.3822 -18.77148,-46.08204 l 2.51953,-1.60156 -6.18555,-3.63086 c -4.40443,-5.95303 -9.32565,-11.49715 -14.68945,-16.57812 l -56.17188,-116.7793 h -9.70507 v 13.375 l -4.45118,4.45313 v 29.90429 l 0.23438,0.13672 5.49609,5.49414 v 28.69727 l 0.12695,2.17578 c -7.22419,-1.28193 -14.66001,-1.95702 -22.25585,-1.95703 -4.63176,1e-5 -9.0647,0.22523 -13.30079,0.64258 l -1.25,0.28515 -0.0527,2.76172 c -1.58574,0.18983 -3.16415,0.41313 -4.73633,0.66406 l 1.74414,-4.57226 v -25.40039 l 4.38672,-5.63086 v -33.20117 l -4.45312,-4.45313 v -13.375 z m -4.0332,197.86914 -71.06055,-5.87695 c -0.35097,1.95038 -0.64796,3.91012 -0.89063,5.87695 z m 19.91211,-98.06641 -0.0488,2.4961 c -18.46284,2.68015 -35.90853,10.13437 -50.61524,21.62695 -5.31518,1.15834 -9.27167,3.83302 -10.19922,7.08203 l -0.75,-0.75 c 16.75295,-16.49243 38.34936,-27.16739 61.61329,-30.45508 z m 52.47461,100.07422 v 18.03125 h 33.49804 v -18.03125 z m 50.75,0 v 18.03125 h 18.49804 v -18.03125 z m -8.73438,4.74219 c -2.31269,0 -4.1875,1.87481 -4.1875,4.1875 0,2.31269 1.87481,4.1875 4.1875,4.1875 2.31269,0 4.1875,-1.87481 4.1875,-4.1875 0,-2.31269 -1.87481,-4.1875 -4.1875,-4.1875 z m -0.18164,102.14067 1.13672,1.4062 c -3.37424,2.7049 -6.39983,4.9473 -9.67774,7.123 l -0.9082,-1.5703 c 3.26121,-2.1735 6.41218,-4.4989 9.44922,-6.9589 z m -157.08594,1.2968 c 2.75351,2.1572 5.59706,4.2028 8.52735,6.1289 l -0.95704,1.6543 c -1.04431,-0.6856 -2.08727,-1.3896 -3.11523,-2.1074 -0.0788,-0.055 -0.15372,-0.1109 -0.23242,-0.166 -1.82366,-1.2795 -3.62904,-2.6144 -5.40039,-4 z m 134.91016,13.0996 0.90625,1.5684 c -0.12813,0.066 -0.25698,0.1308 -0.38477,0.1973 l 4.03516,6.9433 c -4.92053,2.5329 -9.99044,4.7636 -15.18164,6.6797 l -3.17578,-7.4121 c -5.28835,1.7256 -10.59497,3.4006 -15.55274,4.5137 l -0.29101,-1.8379 c 10.4286,-2.3204 20.36707,-5.9312 29.64453,-10.6524 z m -113.61328,0.3965 c 9.34337,4.6804 19.34964,8.2293 29.83789,10.4766 l -0.29297,1.8496 c -2.05933,-0.4352 -4.1135,-0.9022 -6.1543,-1.4453 -0.15648,-0.042 -0.30848,-0.093 -0.46484,-0.1348 -3.14231,-0.8491 -6.2513,-1.8362 -9.33203,-2.9336 l -2.86328,7.6211 c -5.08246,-1.8159 -10.05279,-3.9322 -14.88477,-6.3379 l 3.58398,-7.291 c -0.1213,-0.064 -0.24307,-0.1262 -0.36523,-0.1875 z m 69.41797,12.6075 0.29492,1.8632 c -8.60636,0.9186 -17.26054,0.8827 -25.60157,0.1153 L 359.25,658.168 c 3.93304,0.37 7.91757,0.5644 11.94727,0.5644 4.41147,0 8.76781,-0.2317 13.0625,-0.6718 z"
       id="path3767"
       inkscape:connector-curvature="0"
       sodipodi:nodetypes="cccccccccccccccccccccccccccccccccccccccccccccccccccccccccccccccccccccccccccccccccccccccccccccccccccccccccccccccscccscsssccccccccccccccccccccccccccccccccccccscc" />
    <path
       style="color:#000000;display:inline;overflow:visible;visibility:visible;fill:#7f7f7f;fill-opacity:1;stroke:none;stroke-width:0.30000001;stroke-linecap:butt;stroke-linejoin:miter;stroke-miterlimit:4;stroke-dasharray:none;stroke-dashoffset:0;stroke-opacity:1;marker:none;enable-background:accumulate"
       d="m 295.26667,456.63333 c 0.25465,4.93308 7.42704,8.86667 16.26666,8.86667 8.83963,0 16.01201,-3.93359 16.26667,-8.86667 h -11.63333 c -0.25816,1.28513 -2.20508,2.3 -4.63334,2.3 -2.43012,0 -4.41098,-1.01345 -4.66666,-2.3 z"
       id="path3807"
       inkscape:connector-curvature="0" />
    <ellipse
       id="path3809"
       style="color:#000000;display:inline;overflow:visible;visibility:visible;fill:#ffffff;fill-opacity:1;stroke:none;stroke-width:0.30000001;stroke-linecap:butt;stroke-linejoin:miter;stroke-miterlimit:4;stroke-dasharray:none;stroke-dashoffset:0;stroke-opacity:1;marker:none;enable-background:accumulate"
       cx="311.53107"
       cy="456.35779"
       rx="4.7140446"
       ry="2.567534" />
    <path
       style="color:#000000;display:inline;overflow:visible;visibility:visible;fill:#bfbfbf;fill-opacity:0.99965222;stroke:none;stroke-width:0.30000001;stroke-linecap:butt;stroke-linejoin:miter;stroke-miterlimit:4;stroke-dasharray:none;stroke-dashoffset:0;stroke-opacity:1;marker:none;enable-background:accumulate"
       d="m 311.53333,447.2 c -9.00065,0 -16.3,4.10845 -16.3,9.16667 0,0.0904 0.0287,0.1768 0.0333,0.26666 h 11.6 c -0.0182,-0.0918 -0.0333,-0.17223 -0.0333,-0.26666 0,-1.41801 2.0965,-2.56667 4.7,-2.56667 2.6035,0 4.7,1.14866 4.7,2.56667 0,0.0955 -0.048,0.17392 -0.0667,0.26666 H 327.8 c 0.004,-0.0898 0.0333,-0.17617 0.0333,-0.26666 0,-5.05822 -7.29935,-9.16667 -16.3,-9.16667 z"
       id="path3823"
       inkscape:connector-curvature="0" />
    <path
       style="color:#000000;display:inline;overflow:visible;visibility:visible;fill:#000000;fill-opacity:1;stroke:none;stroke-width:0.30000001;stroke-linecap:butt;stroke-linejoin:miter;stroke-miterlimit:4;stroke-dasharray:none;stroke-dashoffset:0;stroke-opacity:1;marker:none;enable-background:accumulate"
       d="m 282.89062,442.33984 a 126.12125,126.27652 0 0 0 -1.16796,1.25782 l 13.62695,13.62695 c -0.0327,-0.19655 -0.0717,-0.39177 -0.082,-0.5918 -0.005,-0.0899 -0.0352,-0.17522 -0.0352,-0.26562 0,-0.49761 0.0906,-0.98277 0.22656,-1.45899 z M 296,459.13281 c -0.24302,2.44404 -0.17424,5.08301 0.26758,7.83399 2.03388,12.66415 11.03823,22.93359 20.09961,22.93359 3.20481,0 5.98246,-1.28901 8.14843,-3.50977 l 70.58008,70.58008 c -5.97186,5.59189 -13.99359,9.02148 -22.82031,9.02149 -3.53442,-0.014 -7.04423,-0.58884 -10.39844,-1.70313 4.51102,2.42203 9.5498,3.69398 14.66993,3.70313 7.87164,-0.009 15.44776,-2.99898 21.20312,-8.36914 l 62.33008,62.33005 a 126.12125,126.27652 0 0 0 1.16797,-1.2558 l -62.28321,-62.28324 c 5.57807,-5.78906 8.70028,-13.51163 8.71289,-21.55078 -0.005,-5.10622 -1.266,-10.13281 -3.67187,-14.63672 1.10001,3.34472 1.66426,6.84233 1.67187,10.36328 0,9.00364 -3.56922,17.16877 -9.36132,23.17578 L 325.625,485.07422 c 3.18611,-4.19574 4.62518,-10.73656 3.44141,-18.10742 -0.42786,-2.66414 -1.15305,-5.22096 -2.13282,-7.59961 -1.6835,2.74857 -5.64073,4.8815 -10.60937,5.73047 -0.0329,0.006 -0.0666,0.0101 -0.0996,0.0156 -0.409,0.0683 -0.82421,0.12724 -1.24609,0.17774 -0.15423,0.0186 -0.30902,0.0366 -0.46485,0.0527 -0.32864,0.0338 -0.66083,0.0594 -0.99609,0.082 -0.16096,0.011 -0.32004,0.0249 -0.48242,0.0332 -0.49501,0.0251 -0.99509,0.041 -1.50196,0.041 -0.54537,0 -1.08412,-0.0154 -1.61523,-0.0449 -0.94821,-0.0522 -1.86681,-0.15766 -2.75977,-0.29688 -0.11419,-0.0178 -0.23253,-0.0297 -0.3457,-0.0488 -0.42256,-0.0715 -0.83304,-0.15628 -1.24023,-0.2461 -0.0647,-0.0142 -0.13295,-0.0244 -0.19727,-0.0391 -1.28177,-0.29353 -2.47321,-0.68263 -3.56641,-1.14063 l 0.0371,0.0371 c -2.72929,-1.12911 -4.80387,-2.72657 -5.8457,-4.58789 z"
       id="path3836"
       inkscape:connector-curvature="0" />
    <path
       style="color:#000000;display:inline;overflow:visible;visibility:visible;fill:#3f3f3f;fill-opacity:1;stroke:none;stroke-width:0.30000001;stroke-miterlimit:4;stroke-dasharray:none;stroke-opacity:1;marker:none;enable-background:accumulate"
       d="m 294.98437,456.84896 c -7.37171,7.44613 -13.60097,15.92594 -18.5177,25.18437 l 4.86666,2.6 c 3.98208,-7.49843 8.89912,-14.45656 14.6,-20.73333 -0.10389,-1.64763 -0.0843,-3.24928 0.0667,-4.76667 -0.34729,-0.62046 -0.56401,-1.29159 -0.66667,-1.96666 z"
       id="path3843"
       inkscape:connector-curvature="0"
       sodipodi:nodetypes="ccccccc" />
    <circle
       style="color:#000000;display:inline;overflow:visible;visibility:visible;fill:#000000;fill-opacity:1;stroke:none;stroke-width:0.30000001;stroke-linecap:butt;stroke-linejoin:miter;stroke-miterlimit:4;stroke-dasharray:none;stroke-dashoffset:0;stroke-opacity:1;marker:none;enable-background:accumulate"
       id="path3857"
       cx="351.2381"
       cy="582.51965"
       r="7.6190472" />
    <circle
       id="path3859"
       style="color:#000000;display:inline;overflow:visible;visibility:visible;fill:#000000;fill-opacity:1;stroke:none;stroke-width:0.30000001;stroke-linecap:butt;stroke-linejoin:miter;stroke-miterlimit:4;stroke-dasharray:none;stroke-dashoffset:0;stroke-opacity:1;marker:none;enable-background:accumulate"
       cx="393.14285"
       cy="582.51965"
       r="7.6190472" />
    <circle
       style="color:#000000;display:inline;overflow:visible;visibility:visible;fill:#000000;fill-opacity:1;stroke:none;stroke-width:0.30000001;stroke-linecap:butt;stroke-linejoin:miter;stroke-miterlimit:4;stroke-dasharray:none;stroke-dashoffset:0;stroke-opacity:1;marker:none;enable-background:accumulate"
       id="path3861"
       cx="371.88571"
       cy="586.78632"
       r="7.6190472" />
    <circle
       id="path3863"
       style="color:#000000;display:inline;overflow:visible;visibility:visible;fill:#000000;fill-opacity:1;stroke:none;stroke-width:0.30000001;stroke-linecap:butt;stroke-linejoin:miter;stroke-miterlimit:4;stroke-dasharray:none;stroke-dashoffset:0;stroke-opacity:1;marker:none;enable-background:accumulate"
       cx="371.88571"
       cy="614.51971"
       r="7.6190472" />
    <circle
       style="color:#000000;display:inline;overflow:visible;visibility:visible;fill:#000000;fill-opacity:1;stroke:none;stroke-width:0.30000001;stroke-linecap:butt;stroke-linejoin:miter;stroke-miterlimit:4;stroke-dasharray:none;stroke-dashoffset:0;stroke-opacity:1;marker:none;enable-background:accumulate"
       id="path3865"
       cx="338.81906"
       cy="608.11963"
       r="7.6190472" />
    <circle
       id="path3867"
       style="color:#000000;display:inline;overflow:visible;visibility:visible;fill:#000000;fill-opacity:1;stroke:none;stroke-width:0.30000001;stroke-linecap:butt;stroke-linejoin:miter;stroke-miterlimit:4;stroke-dasharray:none;stroke-dashoffset:0;stroke-opacity:1;marker:none;enable-background:accumulate"
       cx="404.95239"
       cy="608.11963"
       r="7.6190472" />
    <path
       style="color:#000000;display:inline;overflow:visible;visibility:visible;fill:#000000;fill-opacity:1;stroke:none;stroke-width:0.30000001;stroke-linecap:butt;stroke-linejoin:miter;stroke-miterlimit:4;stroke-dasharray:none;stroke-dashoffset:0;stroke-opacity:1;marker:none;enable-background:accumulate"
       d="m 460.20703,443.11133 -46.13281,46.13281 9.13867,-6.71289 38.24805,-38.24805 c -0.41531,-0.39346 -0.83329,-0.7841 -1.25391,-1.17187 z M 404.4231,501.32056 403.42984,499.76432 281.8418,621.4766 c 0.41532,0.3928 0.83329,0.7827 1.2539,1.1699 z"
       id="rect11136"
       inkscape:connector-curvature="0"
       sodipodi:nodetypes="cccccccccc" />
    <path
       style="color:#000000;display:inline;overflow:visible;visibility:visible;fill:#bfbfbf;fill-opacity:0.99965222;stroke:none;stroke-width:0.30000001;stroke-miterlimit:4;stroke-dasharray:none;stroke-opacity:1;marker:none;enable-background:accumulate"
       d="m 440.24609,617.8184 c -19.53037,15.8547 -43.90541,24.5153 -69.04882,24.5332 -24.47746,-0.046 -48.23701,-8.2838 -67.50196,-23.4024 l -18.45689,23.6661 c 0.64021,0.5004 1.28475,0.9953 1.9336,1.4844 l 6.98046,-9.2754 c 1.19544,0.9013 5.91858,4.2304 6.96289,4.916 l 2.34571,-4.0547 7.07031,2.7286 5.73437,4.5781 -2.35937,4.0781 c 9.91438,4.9101 20.84442,8.8741 30.48047,10.709 l 0.72656,-4.5762 7.70117,-0.1445 6.86133,2.4297 -0.72266,4.5508 c 8.69564,0.7824 17.10878,0.8042 25.60157,-0.1152 l -0.73633,-4.6407 7.14258,-2.4472 7.40039,0.043 0.74023,4.668 c 0.26668,-0.059 0.53344,-0.1187 0.79883,-0.1797 9.55434,-2.1774 18.89592,-5.5295 27.56641,-9.7676 0.63787,-0.3127 1.26319,-0.6516 1.89453,-0.9746 l -2.28711,-3.9531 5.4707,-4.8243 c 0,0 7.00232,-2.5762 7.20703,-2.7011 l 2.33789,4.0429 c 2.74655,-1.794 5.55902,-3.8944 7.91407,-5.7402 l 7.05078,9.0371 c 0.43288,-0.3327 0.7677,-0.5978 1.18554,-0.9316 l 0.35547,-1.0391 z"
       id="path5697"
       inkscape:connector-curvature="0"
       sodipodi:nodetypes="ccccccccccccccccccccccccccccccccc" />
    <path
       style="color:#000000;display:inline;overflow:visible;visibility:visible;fill:#bfbfbf;fill-opacity:0.99965222;stroke:none;stroke-width:0.30000001;stroke-miterlimit:4;stroke-dasharray:none;stroke-opacity:1;marker:none;enable-background:accumulate"
       d="m 397.92578,473.92578 0.10938,29.21875 c 0,0 -10.06544,-0.0176 -10.0918,-0.0254 -4.82233,-2.57269 -10.2023,-3.92272 -15.66797,-3.93164 -18.4476,2e-5 -33.40232,14.95474 -33.40234,33.40234 0,10.98496 5.30495,20.72855 13.49023,26.81641 l -31.23047,44.62696 h -5.79883 L 305.2168,616.998 a 107.2842,107.41634 0 0 0 65.98047,22.875 107.2842,107.41634 0 0 0 67.49218,-23.9804 l -9.58984,-11.8594 h -7.83203 l -28.44531,-40.66212 c -4.86217,2.99131 -10.48726,4.61448 -16.27539,4.6211 -5.01595,-0.009 -9.95054,-1.23761 -14.39063,-3.56446 3.19222,1.01368 6.59128,1.56445 10.11914,1.56446 0.1985,0 0.39412,-0.0122 0.5918,-0.0156 0.50262,-0.009 1.00302,-0.0259 1.5,-0.0566 0.30178,-0.0187 0.60278,-0.0417 0.90234,-0.0684 0.47549,-0.0423 0.94647,-0.0962 1.41602,-0.1582 0.39419,-0.052 0.78605,-0.11012 1.17578,-0.17578 0.48285,-0.0813 0.96387,-0.16966 1.43945,-0.27149 0.31777,-0.068 0.63292,-0.14174 0.94727,-0.21875 0.35873,-0.0879 0.71428,-0.18383 1.06836,-0.2832 0.64081,-0.17983 1.27383,-0.37727 1.89843,-0.59375 0.0314,-0.0108 0.0624,-0.0224 0.0937,-0.0332 0.17966,-0.0629 0.36082,-0.12166 0.53907,-0.1875 0.42081,-0.15545 0.83735,-0.32047 1.25,-0.49219 0.16319,-0.0679 0.32446,-0.13857 0.48632,-0.20898 1.3678,-0.59499 2.68976,-1.27554 3.95508,-2.04102 0.0382,-0.0231 0.0771,-0.0451 0.11524,-0.0684 9.60864,-5.86574 16.02343,-16.44789 16.02343,-28.5293 -0.012,-9.91454 -2.959,-18.0282 -10.58398,-24.36523 l 8.39453,-8.39453 -1.4043,-1.82422 12.51954,-9.29102 1.91015,-1.91015 c -5.38761,-5.36099 -11.68221,-9.7174 -18.58789,-12.87891 z m -25.65039,28.49414 c 12.80202,0.0152 24.20055,8.1082 28.43555,20.18946 H 386.25 v -0.0195 c -0.008,-6.52464 -4.53033,-12.17524 -10.89453,-13.61328 v 1.7461 c 3.02231,0.78124 5.63358,2.68434 7.30273,5.32226 l -7.30273,4.2168 v 1.85547 l 8.05859,-4.6543 c 0.74489,1.60685 1.13334,3.35584 1.13867,5.12695 -0.002,1.99259 -0.48974,3.95465 -1.41992,5.7168 l -7.77734,-4.49023 v 1.85742 l 6.93555,4.0039 c -1.76208,2.4837 -4.38429,4.22395 -7.35743,4.88282 -0.11423,0.0257 -0.22883,0.0498 -0.34375,0.0723 -0.28477,0.0551 -0.57141,0.10001 -0.85937,0.13477 -0.15269,0.0185 -0.30571,0.0341 -0.45899,0.0469 -0.33115,0.0317 -0.66346,0.05 -0.99609,0.0547 -0.30386,-0.004 -0.60746,-0.02 -0.91016,-0.0469 -0.23569,-0.018 -0.47081,-0.0427 -0.70507,-0.0742 -0.16063,-0.0216 -0.32082,-0.0463 -0.48047,-0.0742 -0.25488,-0.0454 -0.50827,-0.0988 -0.75977,-0.16016 -0.0757,-0.0149 -0.15119,-0.0305 -0.22656,-0.0469 v -0.01 c -2.80149,-0.72775 -5.2558,-2.42183 -6.92969,-4.7832 l 6.92969,-4 v -1.85547 l -7.77734,4.49023 c -0.93049,-1.76273 -1.41783,-3.7255 -1.41993,-5.71875 0.004,-1.77162 0.39222,-3.5213 1.13672,-5.1289 l 8.06055,4.65429 v -1.85546 l -7.29297,-4.21094 c 1.66682,-2.63594 4.27426,-4.5388 7.29297,-5.32227 v -1.7539 c -6.36485,1.43914 -10.88638,7.09166 -10.89258,13.61718 l 0.002,0.0195 H 343.8418 c 4.23476,-12.08058 15.63229,-20.17347 28.43359,-20.18946 z m 0,6.19531 c -0.373,0.004 -0.7457,0.0229 -1.11719,0.0566 v 1.70117 c 0.37128,-0.0371 0.74407,-0.0573 1.11719,-0.0605 0.40244,4.2e-4 0.80462,0.0206 1.20508,0.0605 v -1.69727 c -0.40063,-0.0375 -0.8027,-0.0577 -1.20508,-0.0605 z m -29.07422,16.04688 h 15.27344 c 1.02469,6.83395 6.89044,11.89281 13.80078,11.90234 6.9133,-0.006 12.78346,-5.06546 13.80859,-11.90234 h 15.29297 c 0.70643,2.58344 1.0657,5.24945 1.06836,7.92773 2e-5,16.6624 -13.50752,30.16995 -30.16992,30.16993 -16.6624,2e-5 -30.16994,-13.50753 -30.16992,-30.16993 0.0116,-2.67951 0.38004,-5.34554 1.0957,-7.92773 z m 8.03711,50.23828 a 7.6190472,7.6190472 0 0 1 7.61914,7.61914 7.6190472,7.6190472 0 0 1 -7.61914,7.61914 7.6190472,7.6190472 0 0 1 -7.61914,-7.61914 7.6190472,7.6190472 0 0 1 7.61914,-7.61914 z m 41.9043,0 a 7.6190472,7.6190472 0 0 1 7.61914,7.61914 7.6190472,7.6190472 0 0 1 -7.61914,7.61914 7.6190472,7.6190472 0 0 1 -7.61914,-7.61914 7.6190472,7.6190472 0 0 1 7.61914,-7.61914 z m -21.25781,4.26758 a 7.6190472,7.6190472 0 0 1 7.61914,7.61914 7.6190472,7.6190472 0 0 1 -7.61914,7.61914 7.6190472,7.6190472 0 0 1 -7.61719,-7.61914 7.6190472,7.6190472 0 0 1 7.61719,-7.61914 z M 338.81836,600.5 a 7.6190472,7.6190472 0 0 1 7.61914,7.6191 7.6190472,7.6190472 0 0 1 -7.61914,7.6192 7.6190472,7.6190472 0 0 1 -7.61914,-7.6192 7.6190472,7.6190472 0 0 1 7.61914,-7.6191 z m 66.13476,0 a 7.6190472,7.6190472 0 0 1 7.61915,7.6191 7.6190472,7.6190472 0 0 1 -7.61915,7.6192 7.6190472,7.6190472 0 0 1 -7.61914,-7.6192 7.6190472,7.6190472 0 0 1 7.61914,-7.6191 z m -33.06835,6.4004 a 7.6190472,7.6190472 0 0 1 7.61914,7.6191 7.6190472,7.6190472 0 0 1 -7.61914,7.6192 7.6190472,7.6190472 0 0 1 -7.61719,-7.6192 7.6190472,7.6190472 0 0 1 7.61719,-7.6191 z"
       id="path6266"
       inkscape:connector-curvature="0" />
    <path
       style="fill:#bfbfbf;fill-opacity:0.99965222;stroke:none;stroke-width:0.30000001;stroke-miterlimit:4;stroke-dasharray:none;stroke-opacity:1"
       d="m 384.40234,380.92969 1.18164,74.16211 h 4.07422 l 0.59766,39.30078 H 380.1543 l -1.04688,-81.1582 h -14.77734 l -1.08985,81.1582 h -10.10351 l 0.70508,-39.30078 -0.81055,41.30078 h 40.02734 l -0.68945,-43.30078 h -4.68945 l -1.35938,-72.16211 z"
       id="rect6289"
       inkscape:connector-curvature="0" />
    <path
       style="fill:#fffff9;fill-opacity:1;stroke:none;stroke-width:0.30000001;stroke-miterlimit:4;stroke-dasharray:none;stroke-opacity:1"
       d="m 359.06641,380.92969 -1.22852,74.16211 h -3.99609 l -0.70508,39.30078 h 10.10351 l 1.08985,-81.1582 h 14.77734 l 1.04688,81.1582 h 10.10156 L 389.6582,455.0918 h -4.07422 l -1.18164,-74.16211 z M 365,390.91211 h 14.28516 v 5.71484 H 365 Z"
       id="path6292"
       inkscape:connector-curvature="0" />
    <rect
       style="fill:#bfbfbf;fill-opacity:0.99965222;stroke:none;stroke-width:0.30000001;stroke-miterlimit:4;stroke-dasharray:none;stroke-opacity:1"
       id="rect6297"
       width="14.285714"
       height="5.7142859"
       x="365"
       y="390.91254" />
    <path
       inkscape:connector-curvature="0"
       id="path6308"
       d="m 353.03069,496.39258 0.81111,-41.30078 h 3.99609 l 1.22852,-74.16211 h -1.90625 l -1.41407,72.16211 h -4.59961 l -0.81054,43.30078 z"
       style="fill:#7f7f7f;fill-opacity:1;stroke:none;stroke-width:0.30000001;stroke-miterlimit:4;stroke-dasharray:none;stroke-opacity:1"
       sodipodi:nodetypes="ccccccccc" />
    <path
       style="color:#000000;display:inline;overflow:visible;visibility:visible;opacity:0.98999999;fill:#00000b;fill-opacity:1;stroke:none;stroke-width:0.30000001;stroke-miterlimit:4;stroke-dasharray:none;stroke-opacity:1;marker:none;enable-background:accumulate"
       d="m 372.27539,510.3125 a 12.27811,12.27811 0 0 0 -1.10937,0.0606 12.27811,12.27811 0 0 0 -0.008,0 v 8.1289 h 2.32227 v -8.1289 a 12.27811,12.27811 0 0 0 -1.20508,-0.0606 z m 3.08008,0.41016 v 9.53906 l 7.30273,-4.2168 a 12.27811,12.27811 0 0 0 -0.004,-0.004 12.27811,12.27811 0 0 0 -0.17774,-0.26758 12.27811,12.27811 0 0 0 -0.32226,-0.44922 12.27811,12.27811 0 0 0 -0.51172,-0.64844 12.27811,12.27811 0 0 0 -0.25586,-0.29101 12.27811,12.27811 0 0 0 -0.6211,-0.64258 12.27811,12.27811 0 0 0 -0.18945,-0.17774 12.27811,12.27811 0 0 0 -0.77148,-0.65429 12.27811,12.27811 0 0 0 -0.14063,-0.10547 12.27811,12.27811 0 0 0 -0.89648,-0.61719 12.27811,12.27811 0 0 0 -0.082,-0.0488 12.27811,12.27811 0 0 0 -1.01172,-0.55859 12.27811,12.27811 0 0 0 -0.0176,-0.01 12.27811,12.27811 0 0 0 -0.0215,-0.01 12.27811,12.27811 0 0 0 -1.09961,-0.46875 12.27811,12.27811 0 0 0 -0.008,-0.004 12.27811,12.27811 0 0 0 -0.01,-0.002 12.27811,12.27811 0 0 0 -1.16211,-0.36328 z m -6.16211,0.004 a 12.27811,12.27811 0 0 0 -5.7832,3.39063 12.27811,12.27811 0 0 0 -0.79883,0.92187 12.27811,12.27811 0 0 0 -0.01,0.0156 12.27811,12.27811 0 0 0 -0.6914,0.98047 12.27811,12.27811 0 0 0 -0.01,0.0137 l 7.29297,4.21094 z m -8.05859,6.73438 a 12.27811,12.27811 0 0 0 -0.0254,0.0547 12.27811,12.27811 0 0 0 -1.11329,5.07422 12.27811,12.27811 0 0 0 0.041,0.95118 12.27811,12.27811 0 0 0 0.0664,0.54882 12.27811,12.27811 0 0 0 0.0937,0.6875 12.27811,12.27811 0 0 0 0.0918,0.40821 12.27811,12.27811 0 0 0 0.19727,0.8164 12.27811,12.27811 0 0 0 0.084,0.25586 12.27811,12.27811 0 0 0 0.31641,0.9043 12.27811,12.27811 0 0 0 0.0918,0.20703 12.27811,12.27811 0 0 0 0.43164,0.92774 12.27811,12.27811 0 0 0 0.006,0.0117 l 7.77734,-4.49023 v -1.70313 z m 22.27929,0.002 -8.05859,4.6543 v 1.69922 l 7.77734,4.49023 a 12.27811,12.27811 0 0 0 0.004,-0.01 12.27811,12.27811 0 0 0 1.41601,-5.70704 12.27811,12.27811 0 0 0 -0.0176,-0.50586 12.27811,12.27811 0 0 0 -0.0684,-0.81836 12.27811,12.27811 0 0 0 -0.0527,-0.4375 12.27811,12.27811 0 0 0 -0.16211,-0.87304 12.27811,12.27811 0 0 0 -0.0625,-0.27539 12.27811,12.27811 0 0 0 -0.30468,-1.04102 12.27811,12.27811 0 0 0 -0.0195,-0.0566 12.27811,12.27811 0 0 0 -0.45117,-1.11914 z m -14.2207,8.21094 -6.92969,4 a 12.27811,12.27811 0 0 0 0.006,0.008 12.27811,12.27811 0 0 0 0.75391,0.95703 12.27811,12.27811 0 0 0 0.84961,0.88281 12.27811,12.27811 0 0 0 5.32031,2.93555 z m 6.16211,0 v 8.77148 a 12.27811,12.27811 0 0 0 6.93359,-4.76562 12.27811,12.27811 0 0 0 0.002,-0.002 z"
       id="circle5113"
       inkscape:connector-curvature="0" />
    <path
       style="opacity:1;fill:#fffffe;fill-opacity:1;stroke:none;stroke-width:0.30000001;stroke-linecap:round;stroke-linejoin:round;stroke-miterlimit:4;stroke-dasharray:none;stroke-dashoffset:0;stroke-opacity:1;paint-order:normal"
       d="m 369.19336,504.48438 v 29.98242 a 12.27811,12.27811 0 0 0 3.08203,0.40234 12.27811,12.27811 0 0 0 3.08008,-0.4082 v -29.97656 h -1.875 v 14.01757 h -2.32227 v -14.01757 z"
       id="path5126"
       inkscape:connector-curvature="0" />
    <path
       style="color:#000000;display:inline;overflow:visible;visibility:visible;opacity:0.98999999;fill:#3f3f3f;fill-opacity:1;stroke:none;stroke-width:0.30000001;stroke-miterlimit:4;stroke-dasharray:none;stroke-opacity:1;marker:none;enable-background:accumulate"
       d="m 372.60352,502.42188 c -6.30316,-0.0683 -12.46941,1.83931 -17.63282,5.45507 l 5.30469,7.57617 c 1.95904,-3.29093 5.18288,-5.63361 8.91797,-6.48046 v -4.48828 h 1.96484 v 4.1875 c 0.37149,-0.0338 0.74419,-0.0527 1.11719,-0.0566 0.40238,0.003 0.80445,0.023 1.20508,0.0605 v -4.1914 h 1.875 v 4.49218 c 3.73428,0.85017 6.956,3.19567 8.91211,6.48828 l 5.3125,-7.58789 c -4.97997,-3.48731 -10.89733,-5.38874 -16.97656,-5.45507 z"
       id="circle5146"
       inkscape:connector-curvature="0"
       sodipodi:nodetypes="ccccccccccccccc" />
    <path
       style="color:#000000;display:inline;overflow:visible;visibility:visible;opacity:0.98999999;fill:#bfbfbf;fill-opacity:0.99965222;stroke:none;stroke-width:0.30000001;stroke-miterlimit:4;stroke-dasharray:none;stroke-opacity:1;marker:none;enable-background:accumulate"
       d="m 368.76953,536.0957 -7.49805,7.49805 5.05664,8.75781 h 11.89258 l 5.05664,-8.75976 -7.49609,-7.4961 c -1.14405,0.30411 -2.3221,0.46162 -3.50586,0.46875 -1.18376,-0.007 -2.36181,-0.16464 -3.50586,-0.46875 z"
       id="circle5154"
       inkscape:connector-curvature="0"
       sodipodi:nodetypes="cccccccc" />
    <rect
       style="opacity:1;fill:#bfbfbf;fill-opacity:0.99965222;stroke:none;stroke-width:0.30000001;stroke-linecap:round;stroke-linejoin:round;stroke-miterlimit:4;stroke-dasharray:none;stroke-dashoffset:0;stroke-opacity:1;paint-order:normal"
       id="rect5162"
       width="6.5659914"
       height="4.2931485"
       x="368.99139"
       y="555.44531" />
    <circle
       style="opacity:1;fill:#bfbfbf;fill-opacity:0.99965222;stroke:none;stroke-width:0.30000001;stroke-linecap:round;stroke-linejoin:round;stroke-miterlimit:4;stroke-dasharray:none;stroke-dashoffset:0;stroke-opacity:1;paint-order:normal"
       id="path5164"
       cx="392.57053"
       cy="542.1239"
       r="2.0834396" />
    <path
       style="fill:#000000;fill-opacity:1;stroke:none;stroke-width:0.30000001;stroke-linecap:butt;stroke-linejoin:miter;stroke-miterlimit:4;stroke-dasharray:none;stroke-opacity:1"
       d="m 386.81055,406.96484 0.86914,46.12696 h 4.68945 l 0.68945,43.30078 h -40.02734 l 5.62891,5.72461 h 0.002 c 4.28155,-1.92209 8.92009,-2.92034 13.61328,-2.92969 5.4807,0.009 10.87496,1.36675 15.70703,3.95312 l 0.0977,0.004 h 9.95508 l -0.17774,-47.23242 -3.97265,-3.97266 z"
       id="path4529"
       inkscape:connector-curvature="0"
       sodipodi:nodetypes="cccccccccccccc" />
    <path
       style="color:#000000;display:inline;overflow:visible;visibility:visible;fill:#000000;fill-opacity:1;stroke:none;stroke-width:0.30000001;stroke-miterlimit:4;stroke-dasharray:none;stroke-opacity:1;marker:none;enable-background:accumulate"
       d="m 431.15039,555.49805 a 64.289406,64.368713 0 0 1 -7.29101,13.8789 l 25.19726,17.66407 a 95.048279,95.165413 0 0 0 10.875,-20.48047 z m 2.76953,4.91797 20.5332,9.15234 a 91.133942,91.246254 0 0 1 -5.9707,11.24023 l -19.06054,-11.92382 a 68.658051,68.742706 0 0 1 0,-0.002 68.658051,68.742706 0 0 0 4.49804,-8.46679 z"
       id="ellipse4535"
       inkscape:connector-curvature="0" />
    <path
       style="color:#000000;display:inline;overflow:visible;visibility:visible;fill:#ffffff;fill-opacity:1;stroke:none;stroke-width:0.30000001;stroke-miterlimit:4;stroke-dasharray:none;stroke-opacity:1;marker:none;enable-background:accumulate"
       d="m 441.70898,563.88867 a 77.244347,77.339569 0 0 1 -5.08398,9.50195 l 11.85742,7.41797 a 91.133942,91.246254 0 0 0 5.9707,-11.24023 z"
       id="path4550"
       inkscape:connector-curvature="0" />
    <path
       style="color:#000000;display:inline;overflow:visible;visibility:visible;fill:#bfbfbf;fill-opacity:0.99965222;stroke:none;stroke-width:0.30000001;stroke-miterlimit:4;stroke-dasharray:none;stroke-opacity:1;marker:none;enable-background:accumulate"
       d="m 433.91992,560.41602 a 68.658051,68.742706 0 0 1 -4.49804,8.46679 68.658051,68.742706 0 0 1 0,0.002 l 7.20312,4.50585 a 77.244347,77.339569 0 0 0 5.08398,-9.50195 z"
       id="ellipse4555"
       inkscape:connector-curvature="0" />
    <path
       inkscape:connector-curvature="0"
       id="path4560"
       d="m 311.21318,555.49805 a 64.289406,64.368713 0 0 0 7.29101,13.8789 l -25.19726,17.66407 a 95.048279,95.165413 0 0 1 -10.875,-20.48047 z m -2.76953,4.91797 -20.5332,9.15234 a 91.133942,91.246254 0 0 0 5.9707,11.24023 l 19.06054,-11.92382 a 68.658051,68.742706 0 0 0 0,-0.002 68.658051,68.742706 0 0 1 -4.49804,-8.46679 z"
       style="color:#000000;display:inline;overflow:visible;visibility:visible;fill:#000000;fill-opacity:1;stroke:none;stroke-width:0.30000001;stroke-miterlimit:4;stroke-dasharray:none;stroke-opacity:1;marker:none;enable-background:accumulate" />
    <path
       inkscape:connector-curvature="0"
       id="path4562"
       d="m 300.65459,563.88867 a 77.244347,77.339569 0 0 0 5.08398,9.50195 l -11.85742,7.41797 a 91.133942,91.246254 0 0 1 -5.9707,-11.24023 z"
       style="color:#000000;display:inline;overflow:visible;visibility:visible;fill:#ffffff;fill-opacity:1;stroke:none;stroke-width:0.30000001;stroke-miterlimit:4;stroke-dasharray:none;stroke-opacity:1;marker:none;enable-background:accumulate" />
    <path
       inkscape:connector-curvature="0"
       id="path4564"
       d="m 308.44365,560.41602 a 68.658051,68.742706 0 0 0 4.49804,8.46679 68.658051,68.742706 0 0 0 0,0.002 l -7.20312,4.50585 a 77.244347,77.339569 0 0 1 -5.08398,-9.50195 z"
       style="color:#000000;display:inline;overflow:visible;visibility:visible;fill:#bfbfbf;fill-opacity:0.99965222;stroke:none;stroke-width:0.30000001;stroke-miterlimit:4;stroke-dasharray:none;stroke-opacity:1;marker:none;enable-background:accumulate" />
    <path
       style="color:#000000;display:inline;overflow:visible;visibility:visible;opacity:0.98999999;fill:#fffff9;fill-opacity:1;stroke:none;stroke-width:0.29858267;stroke-miterlimit:4;stroke-dasharray:none;stroke-opacity:1;marker:none;enable-background:accumulate"
       d="m 354.99805,507.91425 c -0.0731,0.0479 -0.14604,0.096 -0.21875,0.14453 -0.17249,0.11995 -0.34373,0.24171 -0.51368,0.36524 -0.66462,0.49796 -1.30839,1.02315 -1.92968,1.57422 -0.11535,0.10004 -0.22993,0.20095 -0.34375,0.30273 -0.65704,0.6001 -1.28722,1.22897 -1.88867,1.88477 -0.0648,0.0681 -0.12923,0.13641 -0.19336,0.20507 -0.61622,0.68384 -1.20082,1.39552 -1.75196,2.13282 -0.0491,0.0643 -0.0979,0.12871 -0.14648,0.19336 -0.5617,0.76452 -1.08702,1.55512 -1.57422,2.36914 -0.0222,0.0358 -0.0443,0.0716 -0.0664,0.10742 -0.49937,0.84052 -0.95759,1.70482 -1.37304,2.58984 l -0.0254,0.0547 c -0.42258,0.90455 -0.8,1.82952 -1.13086,2.77149 h 14.46093 l -0.002,-0.0195 c 0.008,-2.60924 1.30145,-6.07455 1.99419,-7.17993 z m 34.55664,0 -5.28125,7.54297 c 1.28797,2.15674 1.97077,4.62077 1.97656,7.13281 v 0.0195 h 14.46094 l -0.002,-0.006 c -2.09349,-5.94083 -5.99392,-11.07743 -11.15429,-14.68946 z m -46.35352,16.74805 c -0.71566,2.58219 -1.08414,5.24822 -1.0957,7.92773 10e-5,1.71903 0.14712,3.43492 0.43945,5.12891 0.34223,1.98314 0.88203,3.92707 1.61133,5.80273 v 0.002 c 0.72951,1.87572 1.64488,3.67374 2.73242,5.36718 2.73076,4.25326 6.48634,7.7523 10.92188,10.17579 0.8825,0.48248 1.78858,0.92053 2.71484,1.3125 3.71796,1.57166 7.7135,2.38126 11.75,2.38086 2.72744,-6e-5 5.44228,-0.36997 8.07031,-1.09961 1.93917,-0.53818 3.81963,-1.26903 5.61328,-2.18164 l 0.002,-0.002 c 1.79376,-0.91286 3.49167,-2.00292 5.06836,-3.2539 1.57642,-1.25085 3.02373,-2.65629 4.32031,-4.19532 l 0.002,-0.002 c 1.94634,-2.31147 3.53438,-4.90224 4.71094,-7.68555 l 0.002,-0.002 c 1.5714,-3.71735 2.381,-7.71221 2.38086,-11.74805 -0.002,-0.67445 -0.0256,-1.34865 -0.0723,-2.02148 -0.0622,-0.82063 -0.15801,-1.63837 -0.28711,-2.45117 -0.0199,-0.17662 -0.0414,-0.35306 -0.0645,-0.5293 -0.16626,-0.98533 -0.38137,-1.9618 -0.64453,-2.92578 h -15.29297 c -0.8361,5.52958 -4.88832,10.02821 -10.30078,11.43555 l 7.49414,7.49414 -5.05664,8.75976 h -11.89258 l -5.05664,-8.75781 7.49799,-7.49814 c -2.72485,-0.69079 -9.45286,-5.87484 -10.29485,-11.43353 z m 49.36914,15.37896 c 1.15032,-3e-4 2.08321,0.93171 2.08399,2.08203 3e-4,1.15108 -0.93291,2.08428 -2.08399,2.08398 -1.15107,3e-4 -2.08428,-0.93291 -2.08398,-2.08398 7.8e-4,-1.15031 0.93367,-2.08233 2.08398,-2.08203 z m -23.57812,15.40429 h 6.56445 v 4.29297 h -6.56445 z"
       id="circle4566"
       inkscape:connector-curvature="0"
       sodipodi:nodetypes="ccccccccccccccccccccccccccccscccccccccccccccccccccccccccccccccccccc" />
    <path
       style="color:#000000;display:inline;overflow:visible;visibility:visible;fill:#3f3f3f;fill-opacity:1;stroke:none;stroke-width:0.30000001;stroke-miterlimit:4;stroke-dasharray:none;stroke-opacity:1;marker:none;enable-background:accumulate"
       d="m 389.91406,426.69922 3.97071,25.24023 3.39062,3.39063 c 4.18015,1.3871 8.241,3.11151 12.14258,5.15625 l 12.14648,-22.87305 c -9.91478,-5.27372 -20.59489,-8.95656 -31.65039,-10.91406 z"
       id="ellipse4603"
       inkscape:connector-curvature="0"
       sodipodi:nodetypes="cccccc" />
    <path
       style="color:#000000;display:inline;overflow:visible;visibility:visible;fill:#160000;fill-opacity:1;stroke:none;stroke-width:0.30000001;stroke-miterlimit:4;stroke-dasharray:none;stroke-opacity:1;marker:none;enable-background:accumulate"
       d="m 415.82031,448.42969 -6.41992,12.08984 a 81.37188,81.472176 0 0 1 11.89453,7.73633 l 8.41992,-10.79102 a 95.048279,95.165413 0 0 0 -13.89453,-9.03515 z"
       id="ellipse4612"
       inkscape:connector-curvature="0" />
    <path
       style="opacity:1;fill:#ffffff;fill-opacity:1;stroke:none;stroke-width:0.29858267;stroke-linecap:round;stroke-linejoin:round;stroke-miterlimit:4;stroke-dasharray:none;stroke-dashoffset:0;stroke-opacity:1;paint-order:normal"
       d="m 408.79688,523.77734 v 18.03125 h 33.49804 v -18.03125 z m 11.40429,4.25 h 8.8086 c 2.6038,0 4.69921,2.09542 4.69921,4.69922 v 0.13086 c 0,2.6038 -2.09541,4.70117 -4.69921,4.70117 h -8.8086 c -2.6038,0 -4.70117,-2.09737 -4.70117,-4.70117 v -0.13086 c 0,-2.6038 2.09737,-4.69922 4.70117,-4.69922 z"
       id="rect4615"
       inkscape:connector-curvature="0" />
    <path
       style="opacity:1;fill:#bfbfbf;fill-opacity:0.99965222;stroke:none;stroke-width:0.29858267;stroke-linecap:round;stroke-linejoin:round;stroke-miterlimit:4;stroke-dasharray:none;stroke-dashoffset:0;stroke-opacity:1;paint-order:normal"
       d="m 486.33594,487.99414 -12.77539,5.01563 c 4.15043,8.29901 6.76953,28.75976 6.76953,28.75976 H 407.75 v 24.75 l 71.35742,5.5293 c -4.60493,28.59768 -21.63215,49.09617 -29.37109,57.13677 l 9.66797,9.6679 c 17.30429,-17.7187 28.50612,-39.7803 32.98047,-63.15428 l -11.50391,-5.74024 0.3125,-1.76562 12.75586,-3.16797 c 0.82594,-8.06471 0.86209,-16.23004 0.084,-24.37305 l -12.83398,-3.77148 -0.29492,-2.46094 11.56836,-4.80664 c -1.36988,-7.29574 -3.40948,-14.5318 -6.13672,-21.61914 z m -77.53906,35.7832 h 33.49804 v 18.03125 h -33.49804 z m 50.75,0 h 18.49804 v 18.03125 h -18.49804 z m -8.73438,4.74219 c 2.31269,0 4.1875,1.87481 4.1875,4.1875 0,2.31269 -1.87481,4.1875 -4.1875,4.1875 -2.31269,0 -4.1875,-1.87481 -4.1875,-4.1875 0,-2.31269 1.87481,-4.1875 4.1875,-4.1875 z"
       id="rect4617"
       inkscape:connector-curvature="0"
       sodipodi:nodetypes="cccccccccccccccccccccccccccsssss" />
    <path
       style="opacity:1;fill:#ffffff;fill-opacity:1;stroke:none;stroke-width:0.29858267;stroke-linecap:round;stroke-linejoin:round;stroke-miterlimit:4;stroke-dasharray:none;stroke-dashoffset:0;stroke-opacity:1;paint-order:normal"
       d="m 459.54688,523.77734 v 18.03125 h 18.49804 v -18.03125 z m 5.25,5.11914 h 7.99804 v 7.79297 h -7.99804 z"
       id="rect4619"
       inkscape:connector-curvature="0" />
    <rect
       style="opacity:1;fill:#bfbfbf;fill-opacity:0.99965222;stroke:none;stroke-width:0.29858267;stroke-linecap:round;stroke-linejoin:round;stroke-miterlimit:4;stroke-dasharray:none;stroke-dashoffset:0;stroke-opacity:1;paint-order:normal"
       id="rect4621"
       width="7.9991837"
       height="7.7926154"
       x="464.79611"
       y="528.89636" />
    <rect
       y="528.02704"
       x="415.50082"
       height="9.5312233"
       width="18.208036"
       id="rect4623"
       style="opacity:1;fill:#bfbfbf;fill-opacity:0.99965222;stroke:none;stroke-width:0.29858264;stroke-linecap:round;stroke-linejoin:round;stroke-miterlimit:4;stroke-dasharray:none;stroke-dashoffset:0;stroke-opacity:1;paint-order:normal"
       ry="4.6999998" />
    <circle
       style="opacity:1;fill:#000000;fill-opacity:1;stroke:none;stroke-width:0.29858267;stroke-linecap:round;stroke-linejoin:round;stroke-miterlimit:4;stroke-dasharray:none;stroke-dashoffset:0;stroke-opacity:1;paint-order:normal"
       id="path4627"
       cx="450.8125"
       cy="532.70721"
       r="4.1875" />
    <path
       style="fill:#ffffff;fill-opacity:1;stroke:none;stroke-width:0.30000001;stroke-linecap:butt;stroke-linejoin:miter;stroke-miterlimit:4;stroke-dasharray:none;stroke-opacity:1"
       d="m 407.75,521.76953 h 72.58008 l -0.67383,-6.09359 z"
       id="path4656"
       inkscape:connector-curvature="0" />
    <path
       style="opacity:1;fill:#7f7f7f;fill-opacity:1;stroke:none;stroke-width:0.30000001;stroke-linecap:round;stroke-linejoin:round;stroke-miterlimit:4;stroke-dasharray:none;stroke-dashoffset:0;stroke-opacity:1;paint-order:normal"
       d="m 479.4668,514.63867 -71.7168,3.83594 v 3.29492 l 71.8418,-6.08789 a 109.76039,109.89556 0 0 0 -0.125,-1.04297 z"
       id="rect4658"
       inkscape:connector-curvature="0" />
    <path
       style="fill:#00000b;fill-opacity:1;stroke:none;stroke-width:0.30000001;stroke-linecap:butt;stroke-linejoin:miter;stroke-miterlimit:4;stroke-dasharray:none;stroke-opacity:1"
       d="m 407.75,546.51953 70.63672,9.27344 a 109.76039,109.89556 0 0 0 0.7207,-3.74219 v -0.002 z"
       id="path4666"
       inkscape:connector-curvature="0" />
    <path
       style="opacity:1;fill:#bfbfbf;fill-opacity:0.99965222;stroke:none;stroke-width:0.29858267;stroke-linecap:round;stroke-linejoin:round;stroke-miterlimit:4;stroke-dasharray:none;stroke-dashoffset:0;stroke-opacity:1;paint-order:normal"
       d="m 348.41406,327.25391 -4.39258,0.0215 -27.23046,58.80859 -1.22852,-0.56836 -4.48828,9.71876 4.38867,2.02734 4.49023,-9.71875 -1.35742,-0.62695 26.83985,-57.66211 0.8789,-0.004 -1.79101,96.80273 c -18.72368,4.78471 -35.93415,14.44101 -49.81446,28.10547 l 0.75,0.75 c 0.92755,-3.24901 4.88404,-5.92369 10.19922,-7.08203 11.53101,-9.01092 24.74967,-15.52571 38.81836,-19.21679 l -0.0859,4.62304 5.66016,5.53711 v 9.20899 h 5.79492 l 0.0391,-1.98633 h -3.85547 l 0.008,-8.24414 -5.64453,-5.44532 0.0801,-4.20507 c 3.22811,-0.78089 6.4977,-1.41895 9.80078,-1.89844 l 0.0488,-2.4961 c -3.30561,0.46716 -6.57162,1.10039 -9.80079,1.86133 z M 293.5,455.375 c -15.9969,16.13929 -26.59998,36.84932 -30.34766,59.27539 l 2.36719,0.12305 c 3.68678,-21.85093 14.03324,-42.02539 29.62109,-57.75782 z m -30.54102,60.32031 c -0.1039,0.60992 -0.19155,1.22245 -0.28515,1.83399 l -13.41797,3.5957 0.006,23.92383 13.46484,3.67187 c 0.17143,1.11167 0.35304,2.22163 0.5586,3.32813 l 0.0215,-0.002 c 0.76731,4.24071 1.78689,8.41355 3.03516,12.50585 l -2.28907,0.70118 a 112.04029,112.17834 0 0 0 2.54688,7.40234 l 2.22851,-0.85547 c 5.43917,14.2026 13.78801,27.19286 24.59766,38.09177 l 1.73633,-1.7363 c -10.58097,-10.64338 -18.75741,-23.33704 -24.09,-37.2187 l 1.58789,-0.60938 a 105.54828,105.67834 0 0 1 0,-0.002 105.54828,105.67834 0 0 1 -2.39844,-6.97265 l -1.63281,0.5 c -1.20071,-3.92267 -2.18298,-7.92312 -2.93164,-11.98633 l 70.75781,-5.34766 -0.0449,-24.75 H 264.459 c 0.24267,-1.96683 0.53966,-3.92657 0.89063,-5.87695 z"
       id="path4671"
       inkscape:connector-curvature="0" />
    <path
       style="fill:#ffffff;fill-opacity:1;stroke:none;stroke-width:0.30000001;stroke-linecap:butt;stroke-linejoin:miter;stroke-miterlimit:4;stroke-dasharray:none;stroke-opacity:1"
       d="m 265.33008,515.89648 a 107.2842,107.41634 0 0 0 -0.88281,5.87305 h 70.19531 z"
       id="path4673"
       inkscape:connector-curvature="0" />
    <path
       id="path4675"
       d="m 262.92649,514.63867 73.44037,3.83594 0.0442,3.29492 -73.60957,-6.08789 c 0.04,-0.34785 0.0817,-0.69551 0.125,-1.04297 z"
       style="opacity:1;fill:#7f7f7f;fill-opacity:1;stroke:none;stroke-width:0.30000001;stroke-linecap:round;stroke-linejoin:round;stroke-miterlimit:4;stroke-dasharray:none;stroke-dashoffset:0;stroke-opacity:1;paint-order:normal"
       inkscape:connector-curvature="0"
       sodipodi:nodetypes="ccccc" />
    <path
       style="fill:#000007;fill-opacity:1;stroke:none;stroke-width:0.30000001;stroke-linecap:butt;stroke-linejoin:miter;stroke-miterlimit:4;stroke-dasharray:none;stroke-opacity:1"
       d="m 334.64258,546.51953 -68.91016,5.33985 a 107.2842,107.41634 0 0 0 0.80664,3.60156 z"
       id="path4677"
       inkscape:connector-curvature="0" />
    <path
       style="opacity:1;fill:#ffffff;fill-opacity:1;stroke:none;stroke-width:0.30000001;stroke-linecap:round;stroke-linejoin:round;stroke-miterlimit:4;stroke-dasharray:none;stroke-dashoffset:0;stroke-opacity:1;paint-order:normal"
       d="m 265.94727,524.14453 v 17.625 H 310 v -3.625 h 12 v 3.625 h 12.625 v -17.625 z m 13.80273,4.875 a 3.625,3.625 0 0 1 3.625,3.625 3.625,3.625 0 0 1 -3.625,3.625 3.625,3.625 0 0 1 -3.625,-3.625 3.625,3.625 0 0 1 3.625,-3.625 z m 22,0 a 3.625,3.625 0 0 1 3.625,3.625 3.625,3.625 0 0 1 -3.625,3.625 3.625,3.625 0 0 1 -3.625,-3.625 3.625,3.625 0 0 1 3.625,-3.625 z m 20,1.25 a 2.375,2.375 0 0 1 2.375,2.375 2.375,2.375 0 0 1 -2.375,2.375 2.375,2.375 0 0 1 -2.375,-2.375 2.375,2.375 0 0 1 2.375,-2.375 z"
       id="rect4695"
       inkscape:connector-curvature="0" />
    <rect
       style="opacity:1;fill:#3f3f3f;fill-opacity:1;stroke:none;stroke-width:0.30000001;stroke-linecap:round;stroke-linejoin:round;stroke-miterlimit:4;stroke-dasharray:none;stroke-dashoffset:0;stroke-opacity:1;paint-order:normal"
       id="rect4697"
       width="12"
       height="3.75"
       x="310"
       y="538.14471" />
    <circle
       style="opacity:1;fill:#000000;fill-opacity:1;stroke:none;stroke-width:0.30000001;stroke-linecap:round;stroke-linejoin:round;stroke-miterlimit:4;stroke-dasharray:none;stroke-dashoffset:0;stroke-opacity:1;paint-order:normal"
       id="path4699"
       cx="279.75"
       cy="532.64471"
       r="3.625" />
    <circle
       r="3.625"
       cy="532.64471"
       cx="301.75"
       id="circle4701"
       style="opacity:1;fill:#000011;fill-opacity:1;stroke:none;stroke-width:0.30000001;stroke-linecap:round;stroke-linejoin:round;stroke-miterlimit:4;stroke-dasharray:none;stroke-dashoffset:0;stroke-opacity:1;paint-order:normal" />
    <circle
       style="opacity:1;fill:#bfbfbf;fill-opacity:0.99965222;stroke:none;stroke-width:0.30000001;stroke-linecap:round;stroke-linejoin:round;stroke-miterlimit:4;stroke-dasharray:none;stroke-dashoffset:0;stroke-opacity:1;paint-order:normal"
       id="circle4703"
       cx="321.75"
       cy="532.64471"
       r="2.375" />
    <path
       style="color:#000000;display:inline;overflow:visible;visibility:visible;fill:#7f7f7f;fill-opacity:1;stroke:none;stroke-width:0.30000001;stroke-linecap:butt;stroke-linejoin:miter;stroke-miterlimit:4;stroke-dasharray:none;stroke-dashoffset:0;stroke-opacity:1;marker:none;enable-background:accumulate"
       d="m 464.39844,438.2168 v 9.23242 l 0.34375,0.5293 c 0.72998,0.81029 1.14008,1.32066 1.84884,2.14962 l -64.50705,47.87771 1.34586,1.75847 64.61899,-48.01823 0.0137,-13.52929 z"
       id="path4717"
       inkscape:connector-curvature="0"
       sodipodi:nodetypes="ccccccccc" />
    <path
       style="fill:#bfbfbf;fill-opacity:0.99965222;stroke:none;stroke-width:0.30000001;stroke-linecap:butt;stroke-linejoin:miter;stroke-miterlimit:4;stroke-dasharray:none;stroke-opacity:1"
       d="m 414.54135,517.23628 -11.05312,-17.40622 6.56763,-4.98491 c 3.53331,-1.20877 9.60833,-1.41725 12.08689,1.53148 l 2.47487,4.41942 60.98796,-37.29988 v -14.14214 h -2.65165 v -17.50089 h 4.41942 l 5.03813,5.03813 -5.04099,-18.81325 h -4.06301 v -3.90255 h 11.84404 v 3.92615 h -4.59619 l 5.49044,20.10001 h 4.0555 v 34.84048 l -67.5287,36.06244 z"
       id="path4725"
       inkscape:connector-curvature="0"
       sodipodi:nodetypes="cccccccccccccccccccccc" />
    <path
       style="fill:#bfbfbf;fill-opacity:0.99965222;stroke:none;stroke-width:0.30000001;stroke-linecap:butt;stroke-linejoin:miter;stroke-miterlimit:4;stroke-dasharray:none;stroke-opacity:1"
       d="m 464.39754,438.2171 6.71235,-20.18255 h 4.85989 l -5.567,20.18255 z"
       id="path4729"
       inkscape:connector-curvature="0" />
    <path
       style="fill:#fffdff;fill-opacity:1;stroke:none;stroke-width:0.30000001;stroke-linecap:butt;stroke-linejoin:miter;stroke-miterlimit:4;stroke-dasharray:none;stroke-opacity:1"
       d="m 471.10938,414.16992 v 3.86524 h 4.86132 l -5.56836,20.18164 h -2.33984 l -0.0137,13.52929 12.51953,8.03711 v -10.42968 h 2.38476 l 0.17774,-17.59766 h -4.51758 l -5.11914,5.11719 5.04102,-18.8086 4.77148,0.0137 v -3.90234 z"
       id="path4736"
       inkscape:connector-curvature="0"
       sodipodi:nodetypes="cccccccccccccccc" />
    <path
       style="opacity:1;fill:#000004;fill-opacity:1;stroke:none;stroke-width:0.30000001;stroke-linecap:round;stroke-linejoin:round;stroke-miterlimit:4;stroke-dasharray:none;stroke-dashoffset:0;stroke-opacity:1;paint-order:normal"
       d="M 478.53516,418.06445 473.5,436.85156 v 0.0156 l 5.11328,-5.11133 8.75977,0.0977 5.03906,5.0371 -5.04102,-18.8125 z"
       id="rect4743"
       inkscape:connector-curvature="0"
       sodipodi:nodetypes="cccccccc" />
    <path
       style="color:#000000;display:inline;overflow:visible;visibility:visible;fill:#bfbfbf;fill-opacity:0.99965222;stroke:none;stroke-width:0.30000001;stroke-miterlimit:4;stroke-dasharray:none;stroke-opacity:1;marker:none;enable-background:accumulate"
       d="m 387.27539,409.92188 2.66016,16.90429 c 21.54514,3.84107 41.40181,14.18718 56.90625,29.65039 l 11.52734,-11.52734 c -12.54749,-12.57418 -27.63315,-22.14367 -44.09375,-28.27149 v 4.21485 h -1.85547 v 1.32617 h -6.6289 v -8.36719 c -6.03872,-1.76655 -12.22659,-3.08742 -18.51563,-3.92968 z m 72.29492,36.25195 -11.54687,11.54687 c 1.17712,1.18329 2.32652,2.39391 3.44726,3.63086 l 13.10352,-9.73828 c -1.64562,-1.83237 -3.25186,-3.70881 -5.00391,-5.43945 z"
       id="ellipse4568"
       inkscape:connector-curvature="0"
       sodipodi:nodetypes="cccccccccccccccc" />
    <path
       style="fill:#000004;fill-opacity:1;stroke:none;stroke-width:0.30000001;stroke-linecap:butt;stroke-linejoin:miter;stroke-miterlimit:4;stroke-dasharray:none;stroke-opacity:1"
       d="m 422.14275,496.37663 58.42561,-36.59343 v -10.42968 l 5.03722,5.1e-4 v 14.14214 l -60.98796,37.29988 z"
       id="path4751"
       inkscape:connector-curvature="0" />
    <path
       style="fill:#bfbfbf;fill-opacity:0.99965222;stroke:none;stroke-width:0.30000001;stroke-linecap:butt;stroke-linejoin:miter;stroke-miterlimit:4;stroke-dasharray:none;stroke-opacity:1"
       d="m 468.04883,451.74609 -2.07194,1.53474 12.82279,7.60788 1.76865,-1.10551 z"
       id="path4753"
       inkscape:connector-curvature="0"
       sodipodi:nodetypes="ccccc" />
    <path
       style="fill:#000000;fill-opacity:1;stroke:none;stroke-width:0.30000001;stroke-linecap:butt;stroke-linejoin:miter;stroke-miterlimit:4;stroke-dasharray:none;stroke-opacity:1"
       d="m 432.57257,509.10455 67.5287,-36.06244 -9.89949,13.43503 z"
       id="path4588"
       inkscape:connector-curvature="0" />
    <path
       style="color:#000000;display:inline;overflow:visible;visibility:visible;fill:#bfbfbf;fill-opacity:0.99965222;stroke:none;stroke-width:0.30000001;stroke-miterlimit:4;stroke-dasharray:none;stroke-opacity:1;marker:none;enable-background:accumulate"
       d="m 351.14453,453.24805 c -8.21631,2.08299 -15.93661,5.41407 -22.94922,9.77734 0.19576,0.69278 0.36965,1.39671 0.52344,2.10938 6.82982,-4.32935 14.36104,-7.64676 22.38477,-9.74415 z m 45.85742,1.80859 0.85547,0.85547 0.006,1.61523 c 11.02407,3.963 21.03793,10.31479 29.32617,18.60157 l 1.48828,-1.48829 c -8.91037,-8.88454 -19.75107,-15.58695 -31.67578,-19.58398 z m -91.94531,29.57422 c -6.67244,9.23435 -11.47062,19.91455 -13.82226,31.48633 l 2.08593,0.10937 c 2.29965,-11.08982 6.89871,-21.33651 13.2793,-30.21679 -0.52606,-0.42929 -1.04136,-0.8893 -1.54297,-1.37891 z M 447.25,503.3418 l -1.83008,0.71875 c 1.52914,3.97283 2.71391,8.05806 3.58789,12.20703 l 2.02735,-0.10742 c -0.91473,-4.35921 -2.16603,-8.64975 -3.78516,-12.81836 z m -153.15039,48.49995 -2.04883,0.26953 c 0.81477,3.25899 1.81141,6.46588 3.01367,9.59375 l 1.91016,-0.73438 c -1.14347,-2.9776 -2.09153,-6.02915 -2.875,-9.1289 z m 154.25391,0.008 c -0.78175,3.1275 -1.75388,6.17977 -2.89258,9.14844 l 1.92773,0.74218 c 1.19664,-3.1193 2.21138,-6.32919 3.02344,-9.61914 z m -142.27735,26.24023 -1.67187,1.16993 c 2.65658,3.79366 5.62703,7.39165 8.93359,10.7207 l 1.44141,-1.44141 c -3.22145,-3.24528 -6.1151,-6.75142 -8.70313,-10.44922 z m 130.26953,0.0391 c -2.40699,3.4365 -5.08277,6.66878 -7.98828,9.67773 l 1.46094,1.46094 c 2.98981,-3.09298 5.74301,-6.41718 8.21875,-9.95117 z"
       id="ellipse4602"
       inkscape:connector-curvature="0"
       sodipodi:nodetypes="cccccccccccccccccccccccccccccccccccccccccc" />
    <path
       style="color:#000000;display:inline;overflow:visible;visibility:visible;fill:#7f7f7f;fill-opacity:1;stroke:none;stroke-width:0.30000001;stroke-miterlimit:4;stroke-dasharray:none;stroke-opacity:1;marker:none;enable-background:accumulate"
       d="m 356.64648,407.10742 c -3.29616,0.38988 -6.56261,0.91776 -9.79882,1.5625 l -0.0547,2.78906 c 3.23571,-0.65639 6.50303,-1.19506 9.80078,-1.58984 z m -11.80859,1.99219 c -2.11727,0.45783 -4.22502,0.94913 -6.31055,1.51367 v 2.8086 c 2.06769,-0.56912 4.15807,-1.06491 6.25782,-1.52735 z m -13.38086,3.65234 c -18.08712,6.05405 -34.67883,16.17232 -48.4375,29.7168 l 1.83594,1.83594 c 13.27045,-13.01613 29.22101,-22.78313 46.60156,-28.70899 z M 281.7832,443.6582 c -15.55472,15.65548 -26.59643,34.97043 -32.28711,55.91797 -0.76218,2.80561 -1.4279,5.64069 -1.99609,8.5 l 2.55273,0.85352 c 4.67126,-23.8177 16.28571,-45.91823 33.63086,-63.3711 z"
       id="ellipse4631"
       inkscape:connector-curvature="0"
       sodipodi:nodetypes="ccccccccccccccccscccc" />
    <path
       style="color:#000000;display:inline;overflow:visible;visibility:visible;fill:#3f3f3f;fill-opacity:1;stroke:none;stroke-width:0.30000001;stroke-miterlimit:4;stroke-dasharray:none;stroke-opacity:1;marker:none;enable-background:accumulate"
       d="m 422.38281,548.44141 c -0.32107,1.10295 -0.67737,2.19531 -1.06836,3.27539 v 0.002 l 9.90235,3.80469 c 0.70663,-1.86342 1.32644,-3.75869 1.85742,-5.67969 z"
       id="ellipse4658"
       inkscape:connector-curvature="0"
       sodipodi:nodetypes="cccccc" />
    <path
       style="color:#000000;display:inline;overflow:visible;visibility:visible;fill:#bfbfbf;fill-opacity:0.99965222;stroke:none;stroke-width:0.30000001;stroke-miterlimit:4;stroke-dasharray:none;stroke-opacity:1;marker:none;enable-background:accumulate"
       d="m 350.80078,471.50781 c -9.02349,3.02399 -17.26401,8.0158 -24.12695,14.61524 l 1.57617,1.57617 c 6.42797,-6.15622 14.10361,-10.85566 22.50586,-13.7793 z m -25.38281,15.78516 c -8.08485,8.24711 -13.80317,18.52133 -16.55469,29.74414 l 2.33984,0.12305 c 2.69709,-10.64811 8.16773,-20.38905 15.85352,-28.22852 z m 105.8125,22.41797 -2.06641,0.93164 c 0.8053,2.15232 1.4906,4.34776 2.05274,6.57617 l 2.26172,-0.12109 c -0.60103,-2.50507 -1.35173,-4.97174 -2.24805,-7.38672 z m -119.62695,39.83398 -2.22266,0.29102 c 2.94468,10.52771 8.51899,20.13101 16.19726,27.90429 l 1.59961,-1.59961 c -7.34229,-7.41309 -12.69885,-16.56036 -15.57421,-26.5957 z m 117.41601,5.13477 c -2.9508,7.69913 -7.40401,14.7325 -13.09961,20.68945 l 1.63867,1.63867 c 5.93213,-6.18218 10.57107,-13.48855 13.64453,-21.49023 z"
       id="ellipse4666"
       inkscape:connector-curvature="0"
       sodipodi:nodetypes="ccccccccccccccccccccccccc" />
    <path
       style="color:#000000;display:inline;overflow:visible;visibility:visible;fill:#3f3f3f;fill-opacity:1;stroke:none;stroke-width:0.30000001;stroke-miterlimit:4;stroke-dasharray:none;stroke-opacity:1;marker:none;enable-background:accumulate"
       d="m 463.69922,625.5723 -5.45861,15.9827 c 0,0 -0.26197,0.2098 -0.39322,0.3143 -24.59533,19.5839 -55.12146,30.3216 -86.65012,30.3787 -31.0132,-0.012 -61.09084,-10.361 -85.52234,-29.3371 -0.20052,-0.1558 -0.60041,-0.469 -0.60041,-0.469 l -4.94952,-15.7974 2.49609,18.9532 c 25.27113,19.8477 56.45772,30.6414 88.57618,30.6562 32.73762,-0.045 64.47744,-11.2869 89.96093,-31.8633 z"
       id="ellipse4704"
       inkscape:connector-curvature="0"
       sodipodi:nodetypes="ccscscccccc" />
    <path
       style="color:#000000;display:inline;overflow:visible;visibility:visible;fill:#3f3f3f;fill-opacity:1;stroke:none;stroke-width:0.30000001;stroke-miterlimit:4;stroke-dasharray:none;stroke-opacity:1;marker:none;enable-background:accumulate"
       d="m 428.97656,646.8223 c -0.50187,0.2612 -1.00135,0.5281 -1.50976,0.7773 -1.47024,0.7206 -2.97589,1.4055 -4.4668,2.0664 -1.50526,0.6673 -3.0087,1.294 -4.5332,1.9004 -1.2693,0.5049 -2.53501,0.9988 -3.8125,1.4668 l 3.26172,7.6133 c 5.20096,-1.9096 10.28403,-4.1344 15.2207,-6.666 z m -114.70508,0.4355 -3.63867,7.4043 c 4.83643,2.413 9.80856,4.5333 14.89063,6.3535 l 2.91211,-7.75 c -1.51836,-0.5408 -3.03161,-1.1009 -4.53516,-1.6992 -1.51436,-0.6026 -3.00435,-1.2375 -4.5,-1.9004 -1.49274,-0.6615 -2.99448,-1.3448 -4.4668,-2.0664 -0.22258,-0.1091 -0.44194,-0.2264 -0.66211,-0.3418 z"
       id="path4734"
       inkscape:connector-curvature="0" />
    <path
       style="fill:#bfbfbf;fill-opacity:0.99965222;stroke:none;stroke-width:0.30000001;stroke-linecap:butt;stroke-linejoin:miter;stroke-miterlimit:4;stroke-dasharray:none;stroke-opacity:1"
       d="m 432.58984,654.2461 c -4.74071,2.3953 -9.66033,4.5254 -14.68554,6.375 l 0.01,0.022 c -1.51855,0.5575 -3.05005,1.0806 -4.58789,1.584 -1.32407,0.4334 -2.65287,0.8513 -3.99023,1.2441 -1.13312,0.3328 -2.27202,0.6477 -3.41406,0.9512 -0.45793,0.1221 -0.91623,0.2402 -1.375,0.3574 -0.73724,0.1877 -1.47616,0.3676 -2.2168,0.543 -0.35179,0.083 -0.70253,0.1774 -1.05469,0.2578 l 0.71094,3.1621 c 11.16497,-2.5495 21.97064,-6.4635 32.17578,-11.6524 z m -107.06445,6.8008 -1.0918,3.0547 1.22266,0.4785 c 5.00562,1.7317 10.11114,3.1747 15.29102,4.3281 l 0.74218,-3.209 c -0.0727,-0.016 -0.14605,-0.031 -0.21875,-0.047 -5.324,-1.2016 -10.56301,-2.7246 -15.69336,-4.5508 z m 59.82617,7.1855 c -0.31568,0.034 -0.63316,0.057 -0.94922,0.088 -0.62979,0.062 -1.2594,0.124 -1.89062,0.1778 -0.48461,0.041 -0.96968,0.079 -1.45508,0.1152 -0.64832,0.048 -1.29761,0.09 -1.94726,0.1289 -0.42508,0.025 -0.84978,0.053 -1.2754,0.074 -0.75449,0.038 -1.50954,0.066 -2.26562,0.092 -0.35818,0.012 -0.71571,0.028 -1.07422,0.037 -1.09741,0.029 -2.19664,0.047 -3.29687,0.049 -1.20528,-10e-4 -2.40939,-0.023 -3.61133,-0.057 -0.21701,-0.01 -0.43351,-0.016 -0.65039,-0.023 -1.04388,-0.034 -2.08607,-0.079 -3.12696,-0.1367 -0.13028,-0.01 -0.26039,-0.016 -0.39062,-0.023 -1.11603,-0.065 -2.22973,-0.1438 -3.3418,-0.2364 -0.10357,-0.01 -0.207,-0.018 -0.31055,-0.027 -0.50785,-0.043 -1.01648,-0.08 -1.52343,-0.129 l -0.37696,3.2286 c 2.20735,0.2152 4.42383,0.3783 6.64649,0.4882 1.08988,0.054 2.18058,0.095 3.27344,0.1231 0.0215,6e-4 0.0429,0 0.0644,0 0.007,2e-4 0.013,-2e-4 0.0195,0 1.10794,0.028 2.21762,0.043 3.32813,0.045 1.02822,-6e-4 2.05409,-0.018 3.08007,-0.041 0.74317,-0.018 1.48476,-0.045 2.22657,-0.074 0.28259,-0.011 0.56526,-0.021 0.84765,-0.033 0.89519,-0.041 1.79068,-0.09 2.6836,-0.1485 1.89129,-0.1234 3.77673,-0.2864 5.65625,-0.4863 z"
       id="path4749"
       inkscape:connector-curvature="0" />
    <path
       style="opacity:1;fill:#bfbfbf;fill-opacity:0.99965222;stroke:none;stroke-width:0.30000001;stroke-linecap:round;stroke-linejoin:round;stroke-miterlimit:4;stroke-dasharray:none;stroke-dashoffset:0;stroke-opacity:1;paint-order:normal"
       d="m 397.0293,327.55078 -1.98633,0.0254 v 1.98633 h 0.0254 l 1.00391,79.07422 c 0.66497,0.1326 1.33104,0.26131 1.99218,0.4043 l -1.00976,-79.48243 0.88086,-0.002 27.02539,57.76953 -1.14453,0.55078 4.06836,8.47657 4.1289,-1.98243 -4.07031,-8.47656 -1.19141,0.57227 -27.52539,-58.82813 -0.0605,0.0293 v -0.0977 l -2.13672,0.004 z m 36.66992,329.76562 c -0.26268,0.1314 -0.52907,0.2587 -0.79297,0.3887 0.2637,-0.1308 0.53006,-0.2562 0.79297,-0.3887 z m -16.5918,7.0469 c -0.5683,0.2011 -1.14054,0.3952 -1.71289,0.5898 0.57254,-0.1925 1.14294,-0.3899 1.71289,-0.5898 z"
       id="rect4637"
       inkscape:connector-curvature="0" />
    <path
       style="color:#000000;display:inline;overflow:visible;visibility:visible;opacity:0.98999999;fill:#000000;fill-opacity:1;stroke:none;stroke-width:0.30000001;stroke-miterlimit:4;stroke-dasharray:none;stroke-opacity:1;marker:none;enable-background:accumulate"
       d="m 358.48242,372.37305 -6.46094,6.46289 v 25.95898 c -1.71699,0.28331 -3.42381,0.60139 -5.11914,0.95899 l -0.0547,2.91601 c 3.23621,-0.64474 6.50266,-1.17262 9.79882,-1.5625 l 0.51368,-26.17773 h 1.90625 25.33593 1.91797 l 0.46875,24.91015 0.0254,1.30469 c 3.625,0.4462 5.73529,0.74621 9.25782,1.49219 l -0.0371,-2.86328 c -1.71032,-0.36113 -3.43184,-0.67837 -5.16016,-0.9668 V 378.6582 l -6.28516,-6.28515 z m 67.55274,26.99609 c -4.48237,7.6e-4 -8.11556,3.63482 -8.11524,8.11719 0.004,2.81249 1.46326,5.42259 3.85742,6.89844 -2.46462,-1.14609 -4.96414,-2.21872 -7.50195,-3.19532 v -5.5039 l -1.95703,-1.95703 0.0391,6.73632 0.0156,2.52344 0.0469,9.23047 1.85547,-1.32617 v -4.21485 -3.01367 c 17.91282,6.43683 33.75092,16.81535 46.91406,30.22071 -10.65764,-12.15297 -23.54441,-21.84435 -37.77343,-28.72461 0.84277,0.29062 1.72767,0.44041 2.61914,0.44336 4.48313,3.2e-4 8.1175,-3.63406 8.11718,-8.11719 3.2e-4,-4.48313 -3.63405,-8.11751 -8.11718,-8.11719 z m -108.53321,0.0469 c -4.48313,-3.2e-4 -8.1175,3.63405 -8.11718,8.11718 7.6e-4,4.48237 3.63481,8.11556 8.11718,8.11524 0.38446,-0.003 0.76824,-0.0327 1.14844,-0.0899 -13.4172,6.63887 -25.52293,15.75618 -35.63086,26.91016 13.75867,-13.54448 30.35038,-23.66275 48.4375,-29.7168 l -0.01,-2.63281 c -2.88555,1.03008 -5.71983,2.18141 -8.50782,3.42578 1.70139,-1.53592 2.67405,-3.71961 2.67774,-6.01172 3.2e-4,-4.48237 -3.63287,-8.11642 -8.11524,-8.11718 z m 20.31446,4.16406 v 16.4138 l 1.53515,-2.18724 0.0781,-4.61719 0.0469,-2.8164 c 0.88801,-0.23064 1.77753,-0.45462 2.67188,-0.66407 0.89363,-0.21211 1.79068,-0.41503 2.68945,-0.60937 l 0.0527,-2.9043 c -1.80374,0.41315 -3.59124,0.87805 -5.36718,1.37305 l 0.0371,-2.24414 z m 60.21289,2.6289 0.0352,2.83204 c 2.60802,0.5523 5.17773,1.18743 7.71094,1.89843 l 0.0254,-2.66406 c -2.56297,-0.77592 -5.1537,-1.46681 -7.77148,-2.06641 z"
       id="circle4689"
       inkscape:connector-curvature="0"
       sodipodi:nodetypes="cccccccccccccccccccccccccccccccccccccccccccccccccccccccccccccccc" />
    <circle
       r="8.1166096"
       cy="378.50916"
       cx="409.30295"
       id="circle4744"
       style="opacity:1;fill:#000000;fill-opacity:1;stroke:none;stroke-width:0.30000001;stroke-linecap:square;stroke-linejoin:miter;stroke-miterlimit:4;stroke-dasharray:none;stroke-dashoffset:0;stroke-opacity:1;paint-order:normal" />
    <circle
       style="opacity:1;fill:#000000;fill-opacity:1;stroke:none;stroke-width:0.30000001;stroke-linecap:square;stroke-linejoin:miter;stroke-miterlimit:4;stroke-dasharray:none;stroke-dashoffset:0;stroke-opacity:1;paint-order:normal"
       id="circle4747"
       cx="334.52411"
       cy="378.50916"
       r="8.1166096" />
    <path
       style="fill:#7f7f7f;fill-opacity:1;stroke:none;stroke-width:0.30000001;stroke-linecap:butt;stroke-linejoin:miter;stroke-miterlimit:4;stroke-dasharray:none;stroke-opacity:1"
       d="m 389.35742,323.90039 v 12.25391 l -4.45312,4.45312 v 32.08008 l 5.9707,5.9707 v 26.14844 c 0.81915,0.1367 1.63555,0.28234 2.45117,0.43359 v -27.97656 l -5.49609,-5.49414 -0.23438,-0.13672 v -29.90429 l 4.45118,-4.45313 v -13.375 z"
       id="path4759"
       inkscape:connector-curvature="0" />
    <path
       style="opacity:1;fill:#3f3f3f;fill-opacity:1;stroke:none;stroke-width:0.30000001;stroke-linecap:square;stroke-linejoin:miter;stroke-miterlimit:4;stroke-dasharray:none;stroke-dashoffset:0;stroke-opacity:1;paint-order:normal"
       d="m 337.81641,392.74414 v 10.83594 l 1.74414,1.74414 -0.0352,2.13281 h 0.41406 c 1.63949,-0.45206 3.28774,-0.8807 4.95117,-1.26172 l 0.25,-13.45117 z m 9.33593,0 -0.25,13.00977 c 1.69533,-0.3576 3.40215,-0.67568 5.11914,-0.95899 v -12.05078 z"
       id="rect4769"
       inkscape:connector-curvature="0"
       sodipodi:nodetypes="ccccccccccccc" />
    <path
       style="fill:#7f7f7f;fill-opacity:1;stroke:none;stroke-width:0.30000001;stroke-linecap:butt;stroke-linejoin:miter;stroke-miterlimit:4;stroke-dasharray:none;stroke-opacity:1"
       d="m 340.44336,323.90039 -56.37305,117.19531 -0.0351,0.24805 -0.17969,0.19922 -0.0254,0.0508 c 1.47998,-1.60069 3.00146,-3.15856 4.5625,-4.67187 L 342.5391,323.90041 Z m -52.57617,114.04883 c -1.39874,1.23926 -2.76836,2.51552 -4.11524,3.82031 1.34687,-1.3048 2.71659,-2.58095 4.11524,-3.82031 z"
       id="path4777"
       inkscape:connector-curvature="0" />
    <circle
       style="opacity:1;fill:#ffffff;fill-opacity:1;stroke:none;stroke-width:0.30000004;stroke-linecap:square;stroke-linejoin:miter;stroke-miterlimit:4;stroke-dasharray:none;stroke-dashoffset:0;stroke-opacity:1;paint-order:normal"
       id="path4790"
       cx="501.44958"
       cy="482.62738"
       r="2.4888098" />
    <circle
       r="2.4888098"
       cy="498.74634"
       cx="532.71051"
       id="circle4792"
       style="opacity:1;fill:#bfbfbf;fill-opacity:0.99965222;stroke:none;stroke-width:0.30000004;stroke-linecap:square;stroke-linejoin:miter;stroke-miterlimit:4;stroke-dasharray:none;stroke-dashoffset:0;stroke-opacity:1;paint-order:normal" />
    <circle
       style="opacity:1;fill:#7f7f7f;fill-opacity:1;stroke:none;stroke-width:0.30000004;stroke-linecap:square;stroke-linejoin:miter;stroke-miterlimit:4;stroke-dasharray:none;stroke-dashoffset:0;stroke-opacity:1;paint-order:normal"
       id="circle4794"
       cx="525.50586"
       cy="476.76599"
       r="1.878245" />
    <path
       style="opacity:1;fill:#bfbfbf;fill-opacity:0.99965222;stroke:none;stroke-width:0.30000001;stroke-linecap:square;stroke-linejoin:miter;stroke-miterlimit:4;stroke-dasharray:none;stroke-dashoffset:0;stroke-opacity:1;paint-order:normal"
       d="m 514.75977,514.08594 a 2.8551488,2.8551488 0 0 0 -2.85547,2.85547 2.8551488,2.8551488 0 0 0 1.05664,2.21484 l 2.09765,34.07813 1.16993,-33.84766 a 2.8551488,2.8551488 0 0 0 1.38671,-2.44531 2.8551488,2.8551488 0 0 0 -2.85546,-2.85547 z"
       id="circle4796"
       inkscape:connector-curvature="0" />
    <circle
       r="2.8551488"
       cy="549.66742"
       cx="535.64124"
       id="circle4798"
       style="opacity:1;fill:#3f3f3f;fill-opacity:1;stroke:none;stroke-width:0.30000001;stroke-linecap:square;stroke-linejoin:miter;stroke-miterlimit:4;stroke-dasharray:none;stroke-dashoffset:0;stroke-opacity:1;paint-order:normal" />
    <circle
       style="opacity:1;fill:#7f7f7f;fill-opacity:1;stroke:none;stroke-width:0.30000001;stroke-linecap:square;stroke-linejoin:miter;stroke-miterlimit:4;stroke-dasharray:none;stroke-dashoffset:0;stroke-opacity:1;paint-order:normal"
       id="circle4800"
       cx="499.25159"
       cy="571.64777"
       r="2.8551488" />
    <circle
       r="2.8551488"
       cy="603.03082"
       cx="516.95795"
       id="circle4802"
       style="opacity:1;fill:#ffffff;fill-opacity:1;stroke:none;stroke-width:0.30000001;stroke-linecap:square;stroke-linejoin:miter;stroke-miterlimit:4;stroke-dasharray:none;stroke-dashoffset:0;stroke-opacity:1;paint-order:normal" />
    <circle
       style="opacity:1;fill:#7f7f7f;fill-opacity:1;stroke:none;stroke-width:0.30000001;stroke-linecap:square;stroke-linejoin:miter;stroke-miterlimit:4;stroke-dasharray:none;stroke-dashoffset:0;stroke-opacity:1;paint-order:normal"
       id="circle4804"
       cx="486.79605"
       cy="602.90869"
       r="1.5119061" />
    <path
       style="opacity:1;fill:#000000;fill-opacity:1;stroke:none;stroke-width:0.30000001;stroke-linecap:square;stroke-linejoin:miter;stroke-miterlimit:4;stroke-dasharray:none;stroke-dashoffset:0;stroke-opacity:1;paint-order:normal"
       d="m 518.91211,614.2187 a 16.04335,16.04335 0 0 0 -1.35938,0.068 c 0.4491,-0.038 0.90053,-0.068 1.35938,-0.068 z m 1.3418,0.067 c 4.10732,0.3788 7.63267,2.46 10.48242,5.1581 a 16.04335,16.04335 0 0 0 -10.48242,-5.1581 z m -3.58399,0.1074 a 16.04335,16.04335 0 0 0 -0.70898,0.1093 c 0.23378,-0.043 0.47176,-0.076 0.70898,-0.1093 z m -1.61914,0.3125 a 16.04335,16.04335 0 0 0 -0.61523,0.1582 c 0.2027,-0.059 0.4093,-0.1073 0.61523,-0.1582 z m -1.58594,0.4824 a 16.04335,16.04335 0 0 0 -0.51367,0.1875 c 0.16871,-0.068 0.34219,-0.1255 0.51367,-0.1875 z m -1.51172,0.6348 a 16.04335,16.04335 0 0 0 -0.43554,0.2089 c 0.14257,-0.074 0.2905,-0.1389 0.43554,-0.2089 z m -1.34179,0.7285 a 16.04335,16.04335 0 0 0 -0.48828,0.2988 c 0.1593,-0.1046 0.32509,-0.1998 0.48828,-0.2988 z m -1.25977,0.8496 a 16.04335,16.04335 0 0 0 -0.51562,0.3867 c 0.167,-0.135 0.34319,-0.2583 0.51562,-0.3867 z m -1.21679,1.0019 a 16.04335,16.04335 0 0 0 -0.47071,0.4278 c 0.15107,-0.1487 0.31387,-0.2852 0.47071,-0.4278 z m -1.125,1.1289 a 16.04335,16.04335 0 0 0 -0.41797,0.459 c 0.13277,-0.159 0.27924,-0.3052 0.41797,-0.459 z m 23.85742,0.062 c 3.04898,10.6679 -10.21977,24.8779 -19.89258,24.5977 a 16.04335,16.04335 0 0 0 7.9375,2.1133 16.04335,16.04335 0 0 0 16.04297,-16.043 16.04335,16.04335 0 0 0 -4.08789,-10.668 z m -24.98047,1.3243 a 16.04335,16.04335 0 0 0 -0.23242,0.3086 c 0.0728,-0.1066 0.15718,-0.2039 0.23242,-0.3086 z m -3.01758,9.3437 a 16.04335,16.04335 0 0 0 0.11719,1.7774 c -0.0711,-0.5806 -0.11719,-1.1707 -0.11719,-1.7774 z m 0.17188,2.2285 a 16.04335,16.04335 0 0 0 7.79687,11.6172 c -3.88098,-2.8334 -7.04433,-6.7483 -7.79687,-11.6172 z"
       id="circle4845"
       inkscape:connector-curvature="0" />
    <path
       style="opacity:1;fill:#3f3f3f;fill-opacity:1;stroke:none;stroke-width:0.30000001;stroke-linecap:square;stroke-linejoin:miter;stroke-miterlimit:4;stroke-dasharray:none;stroke-dashoffset:0;stroke-opacity:1;paint-order:normal"
       d="m 510.94524,644.1908 c -4.50906,-3.257 -8.07691,-7.9678 -8.07691,-13.9288 0,-8.8605 7.18285,-16.0434 16.04335,-16.0434 4.74465,0 8.77096,2.2892 11.94549,5.3336 3.09746,10.683 -10.2244,24.9485 -19.91193,24.6386 z"
       id="circle4806"
       inkscape:connector-curvature="0"
       sodipodi:nodetypes="csscc" />
    <circle
       r="2.8280609"
       cy="390.48779"
       cx="455.35162"
       id="circle4808"
       style="opacity:1;fill:#ffffff;fill-opacity:1;stroke:none;stroke-width:0.30000004;stroke-linecap:square;stroke-linejoin:miter;stroke-miterlimit:4;stroke-dasharray:none;stroke-dashoffset:0;stroke-opacity:1;paint-order:normal" />
    <circle
       r="2.2026813"
       cy="685.28369"
       cx="425.48975"
       id="circle4810"
       style="opacity:1;fill:#3f3f3f;fill-opacity:1;stroke:none;stroke-width:0.30000001;stroke-linecap:square;stroke-linejoin:miter;stroke-miterlimit:4;stroke-dasharray:none;stroke-dashoffset:0;stroke-opacity:1;paint-order:normal" />
    <circle
       style="opacity:1;fill:#7f7f7f;fill-opacity:1;stroke:none;stroke-width:0.30000001;stroke-linecap:square;stroke-linejoin:miter;stroke-miterlimit:4;stroke-dasharray:none;stroke-dashoffset:0;stroke-opacity:1;paint-order:normal"
       id="circle4812"
       cx="341.56055"
       cy="684.24762"
       r="1.8572937" />
    <circle
       r="1.8572937"
       cy="667.66888"
       cx="293.20627"
       id="circle4814"
       style="opacity:1;fill:#bfbfbf;fill-opacity:0.99965222;stroke:none;stroke-width:0.30000001;stroke-linecap:square;stroke-linejoin:miter;stroke-miterlimit:4;stroke-dasharray:none;stroke-dashoffset:0;stroke-opacity:1;paint-order:normal" />
    <circle
       style="opacity:1;fill:#3f3f3f;fill-opacity:1;stroke:none;stroke-width:0.30000001;stroke-linecap:square;stroke-linejoin:miter;stroke-miterlimit:4;stroke-dasharray:none;stroke-dashoffset:0;stroke-opacity:1;paint-order:normal"
       id="circle4816"
       cx="241.9162"
       cy="604.46301"
       r="1.8572937" />
    <circle
       r="2.0299876"
       cy="596.17365"
       cx="226.89183"
       id="circle4818"
       style="opacity:1;fill:#bfbfbf;fill-opacity:0.99965222;stroke:none;stroke-width:0.30000001;stroke-linecap:square;stroke-linejoin:miter;stroke-miterlimit:4;stroke-dasharray:none;stroke-dashoffset:0;stroke-opacity:1;paint-order:normal" />
    <circle
       style="opacity:1;fill:#ffffff;fill-opacity:1;stroke:none;stroke-width:0.30000001;stroke-linecap:square;stroke-linejoin:miter;stroke-miterlimit:4;stroke-dasharray:none;stroke-dashoffset:0;stroke-opacity:1;paint-order:normal"
       id="circle4820"
       cx="230.5184"
       cy="566.29761"
       r="2.3753753" />
    <circle
       r="1.8572937"
       cy="538.83929"
       cx="211.1767"
       id="circle4822"
       style="opacity:1;fill:#7f7f7f;fill-opacity:1;stroke:none;stroke-width:0.30000001;stroke-linecap:square;stroke-linejoin:miter;stroke-miterlimit:4;stroke-dasharray:none;stroke-dashoffset:0;stroke-opacity:1;paint-order:normal" />
    <path
       style="opacity:1;fill:#7f7f7f;fill-opacity:1;stroke:none;stroke-width:0.30000004;stroke-linecap:square;stroke-linejoin:miter;stroke-miterlimit:4;stroke-dasharray:none;stroke-dashoffset:0;stroke-opacity:1;paint-order:normal"
       d="M 281.94531,370.51172 A 181.55807,181.55807 0 0 0 195.08984,488.7207 128.61456,128.61456 0 0 0 281.94531,370.51172 Z"
       id="circle4828"
       inkscape:connector-curvature="0" />
    <path
       style="opacity:1;fill:#000000;fill-opacity:1;stroke:none;stroke-width:0.30000001;stroke-linecap:square;stroke-linejoin:miter;stroke-miterlimit:4;stroke-dasharray:none;stroke-dashoffset:0;stroke-opacity:1;paint-order:normal"
       d="m 227.41016,471 a 8.0740004,8.0740004 0 0 0 -8.07422,8.07422 8.0740004,8.0740004 0 0 0 2.11718,5.43555 c 6.02402,1.30557 13.51009,-6.88526 11.44727,-11.32813 1.02398,0.94959 1.77285,2.13848 2.19336,3.44141 A 8.0740004,8.0740004 0 0 0 227.41016,471 Z m 7.68945,5.64648 c 0.0719,0.22523 0.13155,0.45417 0.18359,0.68555 a 8.0740004,8.0740004 0 0 0 -0.18359,-0.68555 z m 0.2207,0.84961 c 0.0406,0.20007 0.0703,0.40194 0.0957,0.60547 a 8.0740004,8.0740004 0 0 0 -0.0957,-0.60547 z m 0.12305,0.83399 c 0.0236,0.24619 0.0401,0.49468 0.041,0.74414 a 8.0740004,8.0740004 0 0 0 -0.041,-0.74414 z m -13.90039,6.28125 a 8.0740004,8.0740004 0 0 0 0.25976,0.25976 c -0.0878,-0.0853 -0.17553,-0.17012 -0.25976,-0.25976 z m 0.60547,0.58203 a 8.0740004,8.0740004 0 0 0 0.24414,0.19531 c -0.0815,-0.065 -0.16507,-0.12702 -0.24414,-0.19531 z m 0.66406,0.51562 a 8.0740004,8.0740004 0 0 0 0.16797,0.10938 c -0.0558,-0.0368 -0.11305,-0.0711 -0.16797,-0.10938 z"
       id="path4855"
       inkscape:connector-curvature="0" />
    <path
       style="opacity:1;fill:#ffffff;fill-opacity:1;stroke:none;stroke-width:0.30000001;stroke-linecap:square;stroke-linejoin:miter;stroke-miterlimit:4;stroke-dasharray:none;stroke-dashoffset:0;stroke-opacity:1;paint-order:normal"
       d="m 232.90039,473.18164 c 2.06458,4.44666 -5.43624,12.6491 -11.46289,11.32617 1.5278,1.68702 3.69665,2.65088 5.97266,2.6543 4.45926,-3e-5 8.07419,-3.61496 8.07422,-8.07422 -0.004,-2.24213 -0.93997,-4.38167 -2.58399,-5.90625 z"
       id="circle4833"
       inkscape:connector-curvature="0"
       sodipodi:nodetypes="ccccc" />
    <circle
       r="1.8572937"
       cy="458.53662"
       cx="233.62689"
       id="circle4826"
       style="opacity:1;fill:#ffffff;fill-opacity:1;stroke:none;stroke-width:0.30000001;stroke-linecap:square;stroke-linejoin:miter;stroke-miterlimit:4;stroke-dasharray:none;stroke-dashoffset:0;stroke-opacity:1;paint-order:normal" />
    <rect
       style="opacity:1;fill:#000000;fill-opacity:1;stroke:none;stroke-width:0.30000001;stroke-linecap:square;stroke-linejoin:miter;stroke-miterlimit:4;stroke-dasharray:none;stroke-dashoffset:0;stroke-opacity:1;paint-order:normal"
       id="rect4860"
       width="4.6627331"
       height="5.0081205"
       x="468.66718"
       y="590.45001" />
    <path
       sodipodi:nodetypes="cccccccc"
       inkscape:connector-curvature="0"
       id="path5470"
       d="m 357.98755,346.74677 7.6e-4,-5.01825 -2.35738,-4.45311 v -13.375 H 342.5391 m 72.38345,27.36334 -13.1706,-27.36336 h -9.70507"
       style="color:#000000;display:inline;overflow:visible;visibility:visible;fill:none;fill-opacity:1;stroke:#000000;stroke-width:0.30000001;stroke-miterlimit:4;stroke-dasharray:none;stroke-opacity:1;marker:none;enable-background:accumulate" />
  </g>
</svg>
