<?xml version="1.0" encoding="UTF-8" standalone="no"?>
<!-- Created with Inkscape (http://www.inkscape.org/) -->

<svg
   xmlns:dc="http://purl.org/dc/elements/1.1/"
   xmlns:cc="http://creativecommons.org/ns#"
   xmlns:rdf="http://www.w3.org/1999/02/22-rdf-syntax-ns#"
   xmlns:svg="http://www.w3.org/2000/svg"
   xmlns="http://www.w3.org/2000/svg"
   xmlns:sodipodi="http://sodipodi.sourceforge.net/DTD/sodipodi-0.dtd"
   xmlns:inkscape="http://www.inkscape.org/namespaces/inkscape"
   width="447.33853"
   height="506.76907"
   id="svg7804"
   version="1.1"
   inkscape:version="0.48.4 r9939"
   sodipodi:docname="crusaders.svg">
  <defs
     id="defs7806" />
  <sodipodi:namedview
     id="base"
     pagecolor="#ffffff"
     bordercolor="#666666"
     borderopacity="1.0"
     inkscape:pageopacity="0.0"
     inkscape:pageshadow="2"
     inkscape:zoom="0.98994949"
     inkscape:cx="139.19315"
     inkscape:cy="294.68323"
     inkscape:document-units="px"
     inkscape:current-layer="layer1"
     showgrid="false"
     inkscape:window-width="1920"
     inkscape:window-height="1027"
     inkscape:window-x="-8"
     inkscape:window-y="-8"
     inkscape:window-maximized="1"
     fit-margin-top="5"
     fit-margin-left="5"
     fit-margin-right="5"
     fit-margin-bottom="5"
     units="mm" />
  <metadata
     id="metadata7809">
    <rdf:RDF>
      <cc:Work
         rdf:about="">
        <dc:format>image/svg+xml</dc:format>
        <dc:type
           rdf:resource="http://purl.org/dc/dcmitype/StillImage" />
        <dc:title />
      </cc:Work>
    </rdf:RDF>
  </metadata>
  <g
     inkscape:label="Calque 1"
     inkscape:groupmode="layer"
     id="layer1"
     transform="translate(-147.24595,-274.87353)">
    <path
       style="fill:#000000;fill-opacity:1;stroke:none"
       d="m 164.96249,578.03501 c 2.31387,-77.58675 11.36535,-149.73902 62.9414,-220.11527 -2.74539,24.78062 4.8629,37.74555 20.81657,25.05778 14.15024,-11.2535 25.36273,-19.03502 49.50073,-28.82461 37.58061,-15.24144 -11.01503,-32.42767 -37.53534,-27.02307 100.67041,-54.36491 151.29952,-35.07757 217.6723,-6.55107 -63.48813,-11.40476 -120.73112,-3.48656 -119.99849,15.19408 0.36349,9.26311 5.6477,12.76547 23.9473,15.59586 22.83462,3.53182 35.57134,6.47755 47.86166,10.48167 8.91034,2.90292 29.40455,12.00883 47.5383,14.88687 34.75052,5.51539 63.92677,14.13841 83.42569,45.71035 0,0 -25.59895,-12.76805 -29.17595,0.98263 -3.57697,13.75067 42.53382,64.97916 44.91128,182.77428 0,0 -15.69141,-18.71188 -23.11131,-15.55873 -7.4199,3.15315 -1.61164,8.53122 -18.9346,34.33607 -8.52761,12.70307 -21.04627,32.58979 -46.66348,55.23231 -6.11634,5.40611 -14.94094,9.2447 -20.29066,17.21371 -5.45361,8.12383 -7.82718,17.02273 -11.44461,23.25485 -14.14909,24.37619 -34.74497,31.19705 -54.28325,43.23832 1.68026,0.4797 18.9321,-33.60178 11.47373,-37.01342 -15.33212,-7.01321 -148.51478,21.26005 -218.32794,-26.53174 0,0 58.88797,5.17234 43.76396,-11.62811 -57.7395,-64.13971 -65.17221,-126.97037 -41.30532,-197.18659 -5.75344,103.19008 11.98676,132.28759 42.61655,169.01709 23.40915,28.07093 18.8322,0.35181 18.68574,-10.80928 11.65326,19.39223 46.96465,51.72991 69.33387,56.50282 22.36921,4.77294 70.33482,9.94936 74.57898,-9.6628 4.24416,-19.61216 -28.52029,-18.50671 -28.52029,-18.50671 -1.33642,-7.34425 35.59396,-19.00504 66.38346,-8.8439 24.77991,8.17783 41.75898,-9.3739 59.24055,-30.76364 11.97464,-14.65171 22.48686,-29.46646 29.7625,-46.37502 7.27564,-16.90852 -31.14286,0.98271 -31.14286,0.98271 24.76198,-38.27453 36.01229,-77.85437 23.76695,-120.5393 -2.55263,-8.89802 -13.9577,-28.09438 -17.15223,-30.79204 -12.53482,-10.58523 -14.05882,5.99048 -15.62978,17.19856 -13.23553,-12.32403 -4.10391,-31.20944 -13.21203,-47.82679 -3.61779,-6.60049 -10.7172,-11.35839 -20.3895,-17.19236 -37.86916,-22.84118 -250.19703,-86.6666 -291.10388,184.08449 z"
       id="path7294"
       inkscape:connector-curvature="0"
       sodipodi:nodetypes="ccssccssssczczsssscscscsczzcsszcsscssc" />
  </g>
</svg>
