<?xml version="1.0" encoding="UTF-8" standalone="no"?>
<!-- Created with Inkscape (http://www.inkscape.org/) -->

<svg
   xmlns:dc="http://purl.org/dc/elements/1.1/"
   xmlns:cc="http://creativecommons.org/ns#"
   xmlns:rdf="http://www.w3.org/1999/02/22-rdf-syntax-ns#"
   xmlns:svg="http://www.w3.org/2000/svg"
   xmlns="http://www.w3.org/2000/svg"
   xmlns:sodipodi="http://sodipodi.sourceforge.net/DTD/sodipodi-0.dtd"
   xmlns:inkscape="http://www.inkscape.org/namespaces/inkscape"
   width="73.147224mm"
   height="73.147224mm"
   id="svg2"
   version="1.1"
   inkscape:version="0.92.1 r15371"
   sodipodi:docname="deathstar4.svg">
  <defs
     id="defs4" />
  <sodipodi:namedview
     id="base"
     pagecolor="#ffffff"
     bordercolor="#666666"
     borderopacity="1.0"
     inkscape:pageopacity="0.0"
     inkscape:pageshadow="2"
     inkscape:zoom="1.4"
     inkscape:cx="-63.190249"
     inkscape:cy="35.308553"
     inkscape:document-units="px"
     inkscape:current-layer="layer1"
     showgrid="false"
     inkscape:window-width="1920"
     inkscape:window-height="1016"
     inkscape:window-x="0"
     inkscape:window-y="27"
     inkscape:window-maximized="1"
     fit-margin-top="5"
     fit-margin-left="5"
     fit-margin-right="5"
     fit-margin-bottom="5" />
  <metadata
     id="metadata7">
    <rdf:RDF>
      <cc:Work
         rdf:about="">
        <dc:format>image/svg+xml</dc:format>
        <dc:type
           rdf:resource="http://purl.org/dc/dcmitype/StillImage" />
        <dc:title></dc:title>
      </cc:Work>
    </rdf:RDF>
  </metadata>
  <g
     inkscape:label="Calque 1"
     inkscape:groupmode="layer"
     id="layer1"
     transform="translate(-232.13569,-282.00236)">
    <path
       style="color:#000000;display:inline;overflow:visible;visibility:visible;opacity:0.98999999;fill:#000000;fill-opacity:1;stroke:none;stroke-width:1.12865853;stroke-miterlimit:4;stroke-dasharray:none;stroke-opacity:1;marker:none;enable-background:accumulate"
       d="m 370.36667,300.9 c -65.90562,0 -119.33334,53.42771 -119.33334,119.33333 0,3.83362 0.21319,7.62555 0.56667,11.36667 L 488.86667,406.03333 C 481.84578,346.82162 431.46714,300.9 370.36667,300.9 Z m 45.7,30.2 c 20.43962,0 39.96529,16.40046 43.6,36.63333 3.63471,20.23288 -9.99371,36.63334 -30.43334,36.63334 -20.43962,0 -39.96529,-16.40046 -43.6,-36.63334 C 381.99862,347.50046 395.62704,331.1 416.06667,331.1 Z m 0.83333,4.73333 c -17.80355,0 -29.66595,14.27754 -26.5,31.9 3.16595,17.62247 20.16311,31.9 37.96667,31.9 17.80355,0 29.69928,-14.27753 26.53333,-31.9 -3.16595,-17.62246 -20.19645,-31.9 -38,-31.9 z M 420.93333,361.7 c 0.20209,-0.0207 0.42202,0 0.63334,0 3.38114,0 6.59874,2.69291 7.2,6.03333 0.60126,3.34043 -1.6522,6.03334 -5.03334,6.03334 -3.38114,0 -6.59874,-2.69291 -7.2,-6.03334 -0.56368,-3.13166 1.36865,-5.72359 4.4,-6.03333 z M 489.1,408.1 252.96667,441.8 c 10.14601,55.61693 58.85381,97.76667 117.4,97.76667 65.90562,0 119.33333,-53.42772 119.33333,-119.33334 0,-4.09664 -0.19697,-8.14295 -0.6,-12.13333 z"
       id="path2998"
       inkscape:connector-curvature="0" />
    <path
       inkscape:connector-curvature="0"
       style="color:#000000;display:inline;overflow:visible;visibility:visible;opacity:0.98999999;fill:#ffffff;fill-opacity:1;stroke:none;stroke-width:1.13386667;marker:none;enable-background:accumulate"
       d="m 330.49561,473.12829 -9.82014,45.62174 3.06318,0.65935 4.60844,-21.40963 8.00104,3.22249 c 0.55096,2.7384 2.6609,5.03945 5.56592,5.66476 2.93098,0.63089 5.82944,-0.62273 7.4503,-2.93119 l 0.007,-0.0325 8.00368,0.35893 -4.60143,21.37704 3.09575,0.66637 9.82014,-45.62174 -3.09576,-0.66637 -4.60143,21.37705 -7.44254,-2.96589 c -0.52753,-2.77091 -2.65349,-5.10605 -5.58448,-5.73694 -2.89451,-0.62305 -5.76476,0.58706 -7.39667,2.84044 l -8.61831,-0.35484 4.60845,-21.40963 -3.06318,-0.65935 z m 13.76124,22.87466 c 2.09593,0.45115 3.45016,2.50485 2.99901,4.60077 -0.45115,2.09592 -2.53744,3.44314 -4.63335,2.99199 -2.09593,-0.45114 -3.41056,-2.53042 -2.95941,-4.62634 0.45115,-2.09592 2.49784,-3.41757 4.59375,-2.96642 z m -0.44307,0.79115 c -0.61061,-0.0766 -1.23253,0.0461 -1.77665,0.3336 l 0.70654,1.31138 c 0.27167,-0.14355 0.57994,-0.18875 0.88482,-0.15051 z m 0.5214,0.11223 -0.446,1.43835 c 0.29361,0.0906 0.55598,0.25862 0.74453,0.50123 l 1.18352,-0.90453 c -0.37764,-0.48592 -0.89402,-0.85359 -1.48205,-1.03505 z m -2.73365,0.50267 c -0.48592,0.37763 -0.82101,0.90103 -1.00247,1.48906 l 1.40577,0.43899 c 0.0906,-0.29362 0.2912,-0.54898 0.53382,-0.73752 z m 4.49699,0.96799 -1.31137,0.70653 c 0.14355,0.27167 0.18874,0.57994 0.1505,0.88482 l 1.49448,0.18529 c 0.0766,-0.61061 -0.0461,-1.23253 -0.33361,-1.77664 z m -4.14981,1.22075 -1.46187,-0.17828 c -0.0766,0.61061 0.0135,1.22552 0.30101,1.76963 l 1.34396,-0.69952 c -0.14354,-0.27167 -0.22132,-0.58695 -0.1831,-0.89183 z m 2.93284,0.63129 c -0.0906,0.29362 -0.25863,0.55598 -0.50124,0.74454 l 0.90454,1.18351 c 0.48592,-0.37763 0.85361,-0.89401 1.03504,-1.48205 z m -2.62889,0.49113 -1.18351,0.90454 c 0.37762,0.48592 0.89401,0.85361 1.48205,1.03504 l 0.44599,-1.43834 c -0.29362,-0.0906 -0.55597,-0.25863 -0.74453,-0.50124 z m 1.89005,0.40684 c -0.27168,0.14355 -0.57994,0.18873 -0.88482,0.1505 l -0.1853,1.49448 c 0.61062,0.0766 1.23254,-0.0461 1.77665,-0.33361 z"
       id="rect3803" />
    <path
       id="path3808"
       d="m 351.84772,438.62737 -10.55739,28.93263 1.94262,0.70886 4.95443,-13.57767 4.93807,2.83226 c 0.1118,1.84009 1.28238,3.53566 3.12469,4.20792 1.85879,0.67826 3.86725,0.12165 5.1362,-1.24039 l 0.007,-0.0206 5.19952,0.96056 -4.94688,13.55702 1.96328,0.71638 10.55739,-28.93263 -1.96328,-0.7164 -4.94689,13.55701 -4.59625,-2.61386 c -0.0935,-1.85923 -1.2715,-3.57854 -3.13029,-4.2568 -1.83565,-0.66983 -3.82171,-0.13909 -5.0929,1.18594 l -5.60167,-1.01364 4.95443,-13.57767 -1.94261,-0.70885 z m 6.92111,16.2015 c 1.32922,0.48503 2.02823,1.95036 1.5432,3.27958 -0.48502,1.32919 -1.97104,2.02066 -3.30024,1.53565 -1.3292,-0.48502 -2,-1.96351 -1.51498,-3.29271 0.48501,-1.3292 1.94283,-2.00754 3.27202,-1.52252 z m -0.3614,0.47701 c -0.3922,-0.1055 -0.80988,-0.0817 -1.19166,0.057 l 0.34293,0.92134 c 0.19061,-0.0693 0.39623,-0.0708 0.59206,-0.0181 l 0.25667,-0.96013 z m 0.33068,0.12064 -0.422,0.89982 c 0.18372,0.0858 0.33999,0.21948 0.44122,0.39519 l 0.85573,-0.48396 c -0.20279,-0.35191 -0.50701,-0.6391 -0.87495,-0.81105 z m -1.83262,0.0806 c -0.3519,0.20278 -0.61841,0.51455 -0.79036,0.88249 l 0.87914,0.41448 c 0.0859,-0.18374 0.24015,-0.33246 0.41585,-0.43371 z m 2.85193,1.04066 -0.92133,0.34292 c 0.0692,0.19061 0.0708,0.39624 0.0181,0.59208 l 0.96014,0.25666 c 0.10549,-0.39221 0.0817,-0.80989 -0.057,-1.19166 z m -2.82348,0.42163 -0.93947,-0.24913 c -0.10549,0.3922 -0.10261,0.80231 0.0363,1.18412 l 0.94201,-0.33538 c -0.0692,-0.19061 -0.0914,-0.40377 -0.0388,-0.59961 z m 1.85997,0.6787 c -0.0858,0.18372 -0.2195,0.33998 -0.3952,0.44124 l 0.48397,0.85571 c 0.35189,-0.20279 0.63909,-0.507 0.81103,-0.87496 z m -1.76308,0.0827 -0.85572,0.48395 c 0.20279,0.35191 0.507,0.6391 0.87496,0.81104 l 0.42202,-0.8998 c -0.18375,-0.0858 -0.34,-0.2195 -0.44126,-0.39519 z m 1.19864,0.43736 c -0.19062,0.0693 -0.39622,0.0708 -0.59207,0.0181 l -0.25667,0.96014 c 0.39222,0.1055 0.80989,0.0817 1.19166,-0.057 l -0.34292,-0.92134 z"
       style="color:#000000;display:inline;overflow:visible;visibility:visible;opacity:0.98999999;fill:#ffffff;fill-opacity:1;stroke:none;stroke-width:1.13386667;marker:none;enable-background:accumulate"
       inkscape:connector-curvature="0" />
    <path
       inkscape:connector-curvature="0"
       style="color:#000000;display:inline;overflow:visible;visibility:visible;opacity:0.98999999;fill:#ffffff;fill-opacity:1;stroke:none;stroke-width:1.13386667;marker:none;enable-background:accumulate"
       d="m 304.88562,452.34651 7.94095,37.3146 2.50542,-0.53317 -3.72658,-17.51121 7.04615,-0.27366 c 1.32728,1.85819 3.67101,2.86849 6.04706,2.36284 2.39729,-0.51018 4.13973,-2.41509 4.57626,-4.67931 l -0.005,-0.0268 6.08994,-2.41042 3.72092,17.48455 2.53205,-0.53885 -7.94095,-37.3146 -2.53208,0.53885 3.72091,17.48455 -6.54371,0.27816 c -1.32066,-1.89026 -3.68777,-2.92063 -6.08505,-2.41045 -2.36746,0.50381 -4.10342,2.36684 -4.56663,4.59366 l -6.54701,2.61914 -3.72658,-17.5112 -2.50541,0.53317 z m 17.91851,12.4572 c 1.71428,-0.36482 3.41159,0.71386 3.77641,2.42814 0.36481,1.71428 -0.74053,3.41726 -2.4548,3.78208 -1.71428,0.36482 -3.3906,-0.7462 -3.75541,-2.46048 -0.36483,-1.71427 0.71953,-3.38493 2.4338,-3.74974 z m -0.0657,0.73837 c -0.48108,0.1472 -0.9039,0.44679 -1.21355,0.84332 l 0.96581,0.74173 c 0.1546,-0.19798 0.36939,-0.33485 0.60961,-0.40835 z m 0.42645,-0.0908 0.14864,1.22209 c 0.24931,-0.0307 0.50124,0.007 0.72306,0.12472 l 0.58009,-1.0707 c -0.44427,-0.23607 -0.95246,-0.33753 -1.45179,-0.27611 z m -1.87078,1.28966 c -0.23607,0.44427 -0.31088,0.94677 -0.24946,1.4461 l 1.19542,-0.14295 c -0.0307,-0.24931 0.0335,-0.5069 0.15138,-0.72873 z m 3.67814,-0.78275 -0.74171,0.9658 c 0.19797,0.15459 0.33483,0.36941 0.40834,0.60961 l 1.1767,-0.36186 c -0.14719,-0.48108 -0.44679,-0.90392 -0.84333,-1.21355 z m -2.68679,2.29911 -1.15006,0.3562 c 0.1472,0.48107 0.42018,0.90956 0.81667,1.21922 l 0.76837,-0.97147 c -0.19798,-0.1546 -0.36149,-0.36374 -0.43498,-0.60395 z m 2.39879,-0.51048 c 0.0307,0.24931 -0.007,0.50124 -0.12473,0.72306 l 1.0707,0.58008 c 0.23608,-0.44426 0.33755,-0.95244 0.27611,-1.45176 z m -1.79651,1.24599 -0.58009,1.0707 c 0.44426,0.23609 0.95246,0.33755 1.45178,0.27611 l -0.14864,-1.22208 c -0.24931,0.0307 -0.50123,-0.007 -0.72305,-0.12473 z m 1.5459,-0.32898 c -0.15461,0.19797 -0.36942,0.33482 -0.60962,0.40833 l 0.36186,1.17672 c 0.48108,-0.1472 0.90392,-0.44681 1.21354,-0.84333 z"
       id="path3810" />
  </g>
</svg>
