<?xml version="1.0" encoding="UTF-8" standalone="no"?>
<!-- Created with Inkscape (http://www.inkscape.org/) -->

<svg
   xmlns:dc="http://purl.org/dc/elements/1.1/"
   xmlns:cc="http://creativecommons.org/ns#"
   xmlns:rdf="http://www.w3.org/1999/02/22-rdf-syntax-ns#"
   xmlns:svg="http://www.w3.org/2000/svg"
   xmlns="http://www.w3.org/2000/svg"
   xmlns:sodipodi="http://sodipodi.sourceforge.net/DTD/sodipodi-0.dtd"
   xmlns:inkscape="http://www.inkscape.org/namespaces/inkscape"
   width="170.03928mm"
   height="171.12761mm"
   id="svg5552"
   version="1.1"
   inkscape:version="0.92.1 r15371"
   sodipodi:docname="deathstar3.svg">
  <defs
     id="defs5554" />
  <sodipodi:namedview
     id="base"
     pagecolor="#ffffff"
     bordercolor="#666666"
     borderopacity="1.0"
     inkscape:pageopacity="0.0"
     inkscape:pageshadow="2"
     inkscape:zoom="0.7"
     inkscape:cx="388.60087"
     inkscape:cy="228.36038"
     inkscape:document-units="px"
     inkscape:current-layer="layer1"
     showgrid="false"
     inkscape:window-width="1920"
     inkscape:window-height="1016"
     inkscape:window-x="0"
     inkscape:window-y="27"
     inkscape:window-maximized="1"
     fit-margin-top="5"
     fit-margin-left="5"
     fit-margin-right="5"
     fit-margin-bottom="5" />
  <metadata
     id="metadata5557">
    <rdf:RDF>
      <cc:Work
         rdf:about="">
        <dc:format>image/svg+xml</dc:format>
        <dc:type
           rdf:resource="http://purl.org/dc/dcmitype/StillImage" />
        <dc:title></dc:title>
      </cc:Work>
    </rdf:RDF>
  </metadata>
  <g
     inkscape:label="Calque 1"
     inkscape:groupmode="layer"
     id="layer1"
     transform="translate(-71.375471,-135.29252)">
    <path
       style="opacity:0.98999999;fill:#000000;fill-opacity:1;stroke:#000000;stroke-width:2.30719638;stroke-linecap:butt;stroke-linejoin:round;stroke-miterlimit:4;stroke-dasharray:none;stroke-dashoffset:17.01120567;stroke-opacity:1"
       d="m 394.41695,155.34385 c -162.92573,0 -295.802594,128.41114 -302.990243,289.56367 H 693.75951 L 692.82819,418.132 c -0.43573,-17.28085 -4.00481,-20.43006 -16.14292,-21.10997 l -101.35893,-1.31937 c -5.82057,-1.73902 -7.10644,-1.25069 -6.67448,-25.0681 l 40.3573,-0.46566 c 0.32647,-14.06693 -1.36372,-15.48367 -7.99384,-16.6862 l -69.38352,-2.01787 c -6.93967,-0.16962 -5.54897,-10.86977 -5.51033,-23.51589 l 65.81345,-0.0777 -30.81125,-41.28863 -45.01392,-3.10441 28.63816,-33.76044 -43.46171,-17.69512 c 12.80802,-8.482 25.11496,-17.1945 24.60244,-30.88887 -0.0574,-13.85772 -20.75347,-25.34438 -45.63481,-33.44999 -27.2222,-8.01524 -56.01986,-12.34002 -85.83688,-12.34002 z m -108.49906,65.19257 c 48.25141,0 87.38909,39.06006 87.38909,87.31148 0,48.25142 -39.13768,87.38909 -87.38909,87.38909 -48.25143,0 -87.31149,-39.13767 -87.31149,-87.38909 0,-48.25142 39.06006,-87.31148 87.31149,-87.31148 z M 91.426707,472.38154 c 7.187649,161.15253 140.064513,289.64128 302.990243,289.64128 13.82867,0 27.4071,-1.00126 40.74535,-2.79397 l 20.41149,-11.33109 -14.59072,-16.22053 c -6.37949,-7.22855 -5.56099,-13.91321 2.17309,-14.04745 l 49.67053,-1.31937 39.27076,-42.608 46.79896,-0.23283 30.11275,-30.65603 c 3.93679,-3.26148 3.01099,-10.3203 -1.78503,-10.47738 l -38.57227,0.69849 v -10.24455 c -0.0385,-8.24913 -2.18911,-12.6178 -12.41763,-13.11613 l -40.35731,0.38806 -14.35789,-11.09826 11.71915,-11.71914 29.25905,0.62089 c -0.12617,-14.91388 1.98217,-24.0826 23.28306,-23.28308 l 58.98375,-0.54326 c 7.88873,-0.20043 8.65797,-18.91291 0.69849,-19.24733 l -35.46786,-0.0777 -7.60581,-8.84758 23.28307,-13.81461 h 69.46114 c 12.92856,-0.23742 18.78633,-9.3363 18.85927,-19.32494 l -0.15522,-30.34559 H 91.426707 Z"
       id="path5573"
       inkscape:connector-curvature="0" />
  </g>
</svg>
