<?xml version="1.0" encoding="UTF-8" standalone="no"?>
<!-- Created with Inkscape (http://www.inkscape.org/) -->

<svg
   xmlns:dc="http://purl.org/dc/elements/1.1/"
   xmlns:cc="http://creativecommons.org/ns#"
   xmlns:rdf="http://www.w3.org/1999/02/22-rdf-syntax-ns#"
   xmlns:svg="http://www.w3.org/2000/svg"
   xmlns="http://www.w3.org/2000/svg"
   xmlns:sodipodi="http://sodipodi.sourceforge.net/DTD/sodipodi-0.dtd"
   xmlns:inkscape="http://www.inkscape.org/namespaces/inkscape"
   width="210mm"
   height="297mm"
   id="svg20879"
   version="1.1"
   inkscape:version="0.48.4 r9939"
   sodipodi:docname="Empire.svg">
  <defs
     id="defs20881" />
  <sodipodi:namedview
     id="base"
     pagecolor="#ffffff"
     bordercolor="#666666"
     borderopacity="1.0"
     inkscape:pageopacity="0.0"
     inkscape:pageshadow="2"
     inkscape:zoom="1.4142136"
     inkscape:cx="371.20838"
     inkscape:cy="612.18843"
     inkscape:document-units="px"
     inkscape:current-layer="layer1"
     showgrid="false"
     inkscape:window-width="1680"
     inkscape:window-height="997"
     inkscape:window-x="1912"
     inkscape:window-y="-8"
     inkscape:window-maximized="1" />
  <metadata
     id="metadata20884">
    <rdf:RDF>
      <cc:Work
         rdf:about="">
        <dc:format>image/svg+xml</dc:format>
        <dc:type
           rdf:resource="http://purl.org/dc/dcmitype/StillImage" />
      </cc:Work>
    </rdf:RDF>
  </metadata>
  <g
     inkscape:label="Calque 1"
     inkscape:groupmode="layer"
     id="layer1">
    <path
       style="fill:#000000;fill-opacity:1;stroke:#000000;stroke-width:0.6448819;stroke-linecap:butt;stroke-linejoin:miter;stroke-miterlimit:4;stroke-opacity:1;stroke-dasharray:none;stroke-dashoffset:0"
       d="m 494.729,205.60451 c -120.07061,0 -217.4165,97.34589 -217.4165,217.4165 0,120.07061 97.34589,217.4165 217.4165,217.4165 120.07061,0 217.4165,-97.34589 217.4165,-217.4165 0,-120.07061 -97.34589,-217.4165 -217.4165,-217.4165 z m 0,21.85355 c 108.02201,0 195.62877,87.54095 195.62877,195.56295 0,108.02201 -87.60676,195.56295 -195.62877,195.56295 -108.022,0 -195.56295,-87.54094 -195.56295,-195.56295 0,-108.022 87.54095,-195.56295 195.56295,-195.56295 z"
       id="path20898"
       inkscape:connector-curvature="0" />
    <path
       style="fill:#000000;fill-opacity:1;stroke:#000000;stroke-width:0.6448819;stroke-linecap:butt;stroke-miterlimit:4;stroke-opacity:1;stroke-dasharray:none;stroke-dashoffset:17.01120644"
       d="m 485.31618,221.00732 0,17.96994 c 3.11986,-0.15714 6.25395,-0.2633 9.41282,-0.2633 3.15888,0 6.29296,0.10616 9.41283,0.2633 l 0,-17.96994 -18.82565,0 z m 0,386.05745 0,17.96993 18.82565,0 0,-17.96993 c -3.11987,0.15713 -6.25395,0.26329 -9.41283,0.26329 -3.15887,0 -6.29296,-0.10616 -9.41282,-0.26329 z"
       id="rect3775"
       inkscape:connector-curvature="0" />
    <path
       style="fill:#000000;fill-opacity:1;stroke:#000000;stroke-width:0.6448819;stroke-linecap:butt;stroke-miterlimit:4;stroke-opacity:1;stroke-dasharray:none;stroke-dashoffset:17.01120644"
       d="m 324.50827,313.88491 -9.41282,16.25851 15.46863,8.95206 c 2.87357,-5.61024 6.06507,-10.99989 9.47865,-16.25852 l -15.53446,-8.95205 z m 334.38565,193.06163 c -2.86613,5.59573 -6.00942,11.01255 -9.41282,16.25852 l 15.46863,8.95205 9.41282,-16.25851 -15.46863,-8.95206 z"
       id="rect3009"
       inkscape:connector-curvature="0" />
    <path
       style="fill:#000000;fill-opacity:1;stroke:#000000;stroke-width:0.6448819;stroke-linecap:butt;stroke-miterlimit:4;stroke-opacity:1;stroke-dasharray:none;stroke-dashoffset:17.01120644"
       d="m 664.94973,313.88491 -15.53445,8.95205 c 3.41357,5.25863 6.60508,10.64828 9.47864,16.25852 l 15.46863,-8.95206 -9.41282,-16.25851 z m -334.38565,193.06163 -15.46863,8.95206 9.41282,16.25851 15.46863,-8.95205 c -3.4034,-5.24597 -6.54669,-10.66279 -9.41282,-16.25852 z"
       id="rect3011"
       inkscape:connector-curvature="0" />
    <path
       style="fill:#000000;fill-opacity:1;stroke:#000000;stroke-width:0.6448819;stroke-linecap:butt;stroke-linejoin:miter;stroke-miterlimit:4;stroke-opacity:1;stroke-dasharray:none;stroke-dashoffset:0"
       d="m 494.729,259.77762 c -90.15684,0 -163.24339,73.08655 -163.24339,163.24339 0,90.15684 73.08655,163.24339 163.24339,163.24339 90.15684,0 163.24339,-73.08655 163.24339,-163.24339 0,-90.15684 -73.08655,-163.24339 -163.24339,-163.24339 z m 0,33.10945 c 71.87619,0 130.13394,58.25775 130.13394,130.13394 0,71.87619 -58.25775,130.13394 -130.13394,130.13394 -71.87619,0 -130.13394,-58.25775 -130.13394,-130.13394 0,-71.87619 58.25775,-130.13394 130.13394,-130.13394 z"
       id="path3031"
       inkscape:connector-curvature="0" />
    <path
       style="fill:#000000;fill-opacity:1;stroke:#000000;stroke-width:0.6448819;stroke-linecap:butt;stroke-linejoin:miter;stroke-miterlimit:4;stroke-opacity:1;stroke-dasharray:none;stroke-dashoffset:0"
       d="m 494.729,238.71396 c -16.03852,0 -32.09723,2.06653 -47.72236,6.25327 l 5.46339,20.40543 c 27.67879,-7.41652 56.83915,-7.41652 84.51794,0 l 5.46339,-20.40543 c -15.62513,-4.18674 -31.68383,-6.25327 -47.72236,-6.25327 z"
       id="path3830"
       inkscape:connector-curvature="0" />
    <path
       inkscape:connector-curvature="0"
       id="path3835"
       d="m 494.729,606.604 c 16.03853,0 32.09723,-2.06654 47.72236,-6.25328 l -5.46339,-20.40542 c -27.67879,7.41652 -56.83915,7.41652 -84.51794,0 l -5.46339,20.40542 c 15.62513,4.18674 31.68384,6.25328 47.72236,6.25328 z"
       style="fill:#000000;fill-opacity:1;stroke:#000000;stroke-width:0.6448819;stroke-linecap:butt;stroke-linejoin:miter;stroke-miterlimit:4;stroke-opacity:1;stroke-dasharray:none;stroke-dashoffset:0" />
    <path
       inkscape:connector-curvature="0"
       id="path3837"
       d="m 335.42795,330.68646 c -8.01927,13.88978 -14.25896,28.8303 -18.4457,44.45543 l 20.40332,5.47127 c 7.41649,-27.67879 21.99667,-52.93242 42.25897,-73.19469 l -14.93993,-14.93414 c -11.43839,11.43839 -21.25741,24.31238 -29.27666,38.20213 z"
       style="fill:#000000;fill-opacity:1;stroke:#000000;stroke-width:0.6448819;stroke-linecap:butt;stroke-linejoin:miter;stroke-miterlimit:4;stroke-opacity:1;stroke-dasharray:none;stroke-dashoffset:0" />
    <path
       style="fill:#000000;fill-opacity:1;stroke:#000000;stroke-width:0.6448819;stroke-linecap:butt;stroke-linejoin:miter;stroke-miterlimit:4;stroke-opacity:1;stroke-dasharray:none;stroke-dashoffset:0"
       d="m 654.03005,514.63149 c 8.01927,-13.88978 14.25896,-28.83029 18.4457,-44.45543 l -20.40331,-5.47126 c -7.4165,27.67879 -21.99668,52.93242 -42.25898,73.19469 l 14.93993,14.93414 c 11.43839,-11.43839 21.25741,-24.31238 29.27666,-38.20214 z"
       id="path3839"
       inkscape:connector-curvature="0" />
    <path
       style="fill:#000000;fill-opacity:1;stroke:#000000;stroke-width:0.6448819;stroke-linecap:butt;stroke-linejoin:miter;stroke-miterlimit:4;stroke-opacity:1;stroke-dasharray:none;stroke-dashoffset:0"
       d="m 335.42795,514.63147 c 8.01925,13.88978 17.83829,26.76379 29.27668,38.20218 l 14.93991,-14.93416 c -20.2623,-20.26227 -34.84248,-45.5159 -42.25897,-73.19469 l -20.40332,5.47129 c 4.18674,15.62513 10.42643,30.56562 18.4457,44.45538 z"
       id="path3841"
       inkscape:connector-curvature="0" />
    <path
       inkscape:connector-curvature="0"
       id="path3843"
       d="M 654.03005,330.68649 C 646.0108,316.79671 636.19176,303.9227 624.75337,292.48431 l -14.93991,14.93416 c 20.2623,20.26227 34.84248,45.5159 42.25898,73.19469 l 20.40331,-5.47129 c -4.18674,-15.62513 -10.42643,-30.56563 -18.4457,-44.45538 z"
       style="fill:#000000;fill-opacity:1;stroke:#000000;stroke-width:0.6448819;stroke-linecap:butt;stroke-linejoin:miter;stroke-miterlimit:4;stroke-opacity:1;stroke-dasharray:none;stroke-dashoffset:0" />
    <path
       style="fill:#000000;fill-opacity:1;stroke:#000000;stroke-width:0.6448819;stroke-linecap:butt;stroke-linejoin:miter;stroke-miterlimit:4;stroke-opacity:1;stroke-dasharray:none;stroke-dashoffset:0"
       d="m 617.02989,378.52402 -60.82132,22.11685 c 5.26265,14.459 5.26265,30.30128 0,44.76028 l 60.82132,22.11685 c 10.46481,-28.75182 10.46481,-60.24216 0,-88.99398 z"
       id="path3876"
       inkscape:connector-curvature="0" />
    <path
       style="fill:#000000;fill-opacity:1;stroke:#000000;stroke-width:0.6448819;stroke-linecap:butt;stroke-linejoin:miter;stroke-miterlimit:4;stroke-opacity:1;stroke-dasharray:none;stroke-dashoffset:0"
       d="m 371.96734,378.52402 c -10.46481,28.75182 -10.46481,60.24216 0,88.99398 l 60.82133,-22.11685 c -5.26265,-14.459 -5.26265,-30.30128 0,-44.76028 l -60.82133,-22.11685 z"
       id="path3878"
       inkscape:connector-curvature="0" />
    <path
       id="path3884"
       d="m 517.22874,294.65732 -11.25692,63.73123 c 15.15319,2.67193 28.87301,10.59306 38.76354,22.38014 l 49.56442,-41.61438 c -19.6674,-23.4387 -46.93884,-39.18387 -77.07104,-44.49699 z"
       style="fill:#000000;fill-opacity:1;stroke:#000000;stroke-width:0.6448819;stroke-linecap:butt;stroke-linejoin:miter;stroke-miterlimit:4;stroke-opacity:1;stroke-dasharray:none;stroke-dashoffset:0"
       inkscape:connector-curvature="0" />
    <path
       id="path3886"
       d="m 394.69745,506.88771 c 19.6674,23.4387 46.93884,39.18387 77.07104,44.49699 l 11.25693,-63.73123 c -15.1532,-2.67193 -28.87302,-10.59306 -38.76354,-22.38014 l -49.56443,41.61438 z"
       style="fill:#000000;fill-opacity:1;stroke:#000000;stroke-width:0.6448819;stroke-linecap:butt;stroke-linejoin:miter;stroke-miterlimit:4;stroke-opacity:1;stroke-dasharray:none;stroke-dashoffset:0"
       inkscape:connector-curvature="0" />
    <path
       inkscape:connector-curvature="0"
       style="fill:#000000;fill-opacity:1;stroke:#000000;stroke-width:0.6448819;stroke-linecap:butt;stroke-linejoin:miter;stroke-miterlimit:4;stroke-opacity:1;stroke-dasharray:none;stroke-dashoffset:0"
       d="m 394.69745,339.15431 49.5644,41.61438 c 9.89057,-11.78708 23.61039,-19.70821 38.76355,-22.38014 l -11.25689,-63.73123 c -30.13222,5.31312 -57.40364,21.05829 -77.07106,44.49699 z"
       id="path3888" />
    <path
       inkscape:connector-curvature="0"
       style="fill:#000000;fill-opacity:1;stroke:#000000;stroke-width:0.6448819;stroke-linecap:butt;stroke-linejoin:miter;stroke-miterlimit:4;stroke-opacity:1;stroke-dasharray:none;stroke-dashoffset:0"
       d="m 517.22872,551.3847 c 30.13222,-5.31312 57.40364,-21.05829 77.07106,-44.49699 l -49.5644,-41.61438 c -9.89057,11.78708 -23.61039,19.70821 -38.76354,22.38014 l 11.25688,63.73123 z"
       id="path3890" />
  </g>
</svg>
