<?xml version="1.0" encoding="UTF-8" standalone="no"?>
<!-- Created with Inkscape (http://www.inkscape.org/) -->

<svg
   xmlns:dc="http://purl.org/dc/elements/1.1/"
   xmlns:cc="http://creativecommons.org/ns#"
   xmlns:rdf="http://www.w3.org/1999/02/22-rdf-syntax-ns#"
   xmlns:svg="http://www.w3.org/2000/svg"
   xmlns="http://www.w3.org/2000/svg"
   xmlns:sodipodi="http://sodipodi.sourceforge.net/DTD/sodipodi-0.dtd"
   xmlns:inkscape="http://www.inkscape.org/namespaces/inkscape"
   width="76.843811mm"
   height="98.722466mm"
   id="svg20324"
   version="1.1"
   inkscape:version="0.92.1 r15371"
   sodipodi:docname="mandalorian.svg">
  <defs
     id="defs20326" />
  <sodipodi:namedview
     id="base"
     pagecolor="#ffffff"
     bordercolor="#666666"
     borderopacity="1.0"
     inkscape:pageopacity="0.0"
     inkscape:pageshadow="2"
     inkscape:zoom="0.10772514"
     inkscape:cx="-3800.3591"
     inkscape:cy="-208.04321"
     inkscape:document-units="px"
     inkscape:current-layer="layer1"
     showgrid="false"
     inkscape:window-width="1920"
     inkscape:window-height="1016"
     inkscape:window-x="0"
     inkscape:window-y="27"
     inkscape:window-maximized="1"
     fit-margin-top="5"
     fit-margin-left="5"
     fit-margin-right="5"
     fit-margin-bottom="5" />
  <metadata
     id="metadata20329">
    <rdf:RDF>
      <cc:Work
         rdf:about="">
        <dc:format>image/svg+xml</dc:format>
        <dc:type
           rdf:resource="http://purl.org/dc/dcmitype/StillImage" />
        <dc:title></dc:title>
      </cc:Work>
    </rdf:RDF>
  </metadata>
  <g
     inkscape:label="Calque 1"
     inkscape:groupmode="layer"
     id="layer1"
     transform="translate(-251.63374,-374.69771)">
    <g
       id="g20872"
       transform="matrix(2.429154,0,0,2.429154,-339.13091,-580.35301)">
      <path
         sodipodi:nodetypes="cccc"
         inkscape:connector-curvature="0"
         id="path20354"
         d="m 271.14286,444.6149 c 4.3492,4.15682 8.88888,4.65372 13.33333,9.04762 -27.82773,14.25617 -34.99746,44.63055 -4.47619,43.33333 -35.05072,16.82857 -38.24127,-33.93791 -8.85714,-52.38095 z"
         style="fill:#000000;fill-opacity:1;stroke:#000000;stroke-width:0.43911034px;stroke-linecap:butt;stroke-linejoin:miter;stroke-opacity:1" />
      <path
         sodipodi:nodetypes="cccc"
         inkscape:connector-curvature="0"
         id="path20356"
         d="m 323.23809,450.47204 c 0.93108,-6.2856 0.35525,-8.85735 7.04763,-13.85714 30.17859,17.32042 35.48941,68.20469 -1.38095,55.95239 30.76789,-5.52912 9.08438,-26.97538 -5.66668,-42.09525 z"
         style="fill:#000000;fill-opacity:1;stroke:#000000;stroke-width:0.43911034px;stroke-linecap:butt;stroke-linejoin:miter;stroke-opacity:1" />
      <path
         sodipodi:nodetypes="cccc"
         inkscape:connector-curvature="0"
         id="path20358"
         d="m 290.95237,490.13871 c 1.61375,1.31035 2.89488,1.17935 4.85716,4 -0.74204,9.67549 -1.432,7.30558 -1.61906,21.90476 -0.4642,-12.8138 -4.70201,-16.42134 -3.2381,-25.90476 z"
         style="fill:#000000;fill-opacity:1;stroke:#000000;stroke-width:0.43911034px;stroke-linecap:butt;stroke-linejoin:miter;stroke-opacity:1" />
      <path
         sodipodi:nodetypes="ccccc"
         inkscape:connector-curvature="0"
         id="path20360"
         d="m 310.47618,494.23395 c 2.44184,5.05891 2.21437,21.86366 3.38096,30.09523 -0.34786,-11.5511 3.23471,-23.93403 -0.0476,-32.23809 -1.58983,0.0603 -1.56788,0.1008 -3.33335,2.14286 z"
         style="fill:#000000;fill-opacity:1;stroke:#000000;stroke-width:0.43911034px;stroke-linecap:butt;stroke-linejoin:miter;stroke-opacity:1" />
      <path
         sodipodi:nodetypes="cccccccccccccccccccscccccccccccccccsscccccccccccccc"
         inkscape:connector-curvature="0"
         id="path20362"
         d="m 288.54711,411.02826 3.44122,1.23286 c 0.32425,3.34911 -0.12364,4.46563 1.64342,7.51565 1.90466,-3.96328 3.37782,-5.02504 3.55271,-10.57222 -1.60369,-0.0519 -3.15491,-0.30942 -3.15491,-0.30942 -0.23083,-2.88552 1.05252,-3.87832 1.5895,-5.80407 4.07195,0.0311 5.85904,-1.60224 8.32731,-1.82722 1.53224,-0.10261 3.581,2.32447 5.10126,2.5415 3.87948,-2.67452 7.8502,-1.95505 12.28571,-2.61905 3.10005,9.83929 -0.0319,9.06112 -1.94655,14.31583 -2.05686,4.00663 -5.12025,2.8718 -7.92245,3.95821 -13.79341,6.78816 -7.52357,15.09189 -9.05346,23.60118 3.65687,0.46712 2.00929,-1.96513 3.25579,-4.20855 4.30888,-4.27878 9.18943,-5.52707 13.38096,-9.28572 1.80209,-2.26126 2.08444,-5.40413 2.85714,-8.19047 1.45403,-4.45166 1.58375,-6.08483 3.80952,-7.23809 0.48747,2.96757 -1.03827,6.88874 -0.57142,9.47619 2.59388,2.69423 3.40457,3.88826 1.33333,8.66666 -9.31919,8.14781 -6.49169,14.18112 -14.4521,20.74385 -0.28759,2.6477 2.9344,6.91625 1.79748,10.55899 -1.71988,5.51065 -3.98281,15.48732 -2.393,25.36382 -1.65352,2.13784 -3.81254,2.45855 -4.19048,6.7143 3.86569,5.20268 1.5104,21.22153 2.85715,37.90475 -0.52391,2.09804 -4.19048,4.95239 -4.19048,4.95239 0.54631,-12.40207 1.35126,-26.15452 1.57143,-36.14286 -2.59068,-12.65372 -5.37437,-13.71229 -3.52381,-21.47619 3.08524,-6.67373 5.32792,-13.75395 5.7619,-21.04762 -3.72842,0.14485 -4.19582,4.50675 -6.85714,5.52381 3.05983,5.84714 1.22209,6.20721 -0.21879,12.16216 -2.89947,-7.54583 -3.66242,-7.51065 -1.14286,-12.08108 -0.84111,-2.08899 -3.97224,-5.45526 -6.22035,-5.32376 -2.22328,10.66507 -2.62394,11.74277 3.96295,16.09982 0.34358,4.2069 -1.92511,10.70498 1.33334,14.4762 2.60288,2.08432 1.29335,13.81159 -1.2381,43.14285 -1.01045,-1.29924 -0.83023,-1.19623 -2.66666,-3.76191 -0.2202,-6.33692 3.08223,-31.60021 2.71429,-36.42856 -0.13924,-1.82734 -6.18583,-6.99909 -7.38096,-9.19048 -1.80281,-3.30562 2.18605,-20.74718 -3.33333,-25.71428 -0.98728,-3.15116 -0.36312,-10.11294 -0.36312,-10.11294 -5.29793,-0.80597 -9.75388,-4.21966 -12.11913,-8.03576 -0.98685,-1.63042 0.49953,-3.71516 -0.10123,-5.5238 -3.34749,-2.67956 -1.64886,-4.21854 -1.41658,-6.0418 1.384,-4.34224 1.4716,-9.64469 4.97647,-9.1963 1.08493,3.89893 0.26314,8.10036 0.73782,12.00583 11.15821,6.22857 8.13703,7.98357 14.5238,8.90477 0.52746,3.02658 -0.0615,6.44781 3.23811,5.52381 0,0 -0.60407,-9.52196 -1.95239,-13.28572 -1.76608,-3.0212 -1.53087,-4.41801 -1.52381,-7.95237 -6.31262,-3.02008 -16.53893,-7.53196 -14.90476,-17.38096 2.77545,-4.67709 6.40407,-5.23403 11.47619,-4.57143 0.1754,4.70325 -3.23807,2.9897 -2.69089,7.9372 z"
         style="fill:#000000;fill-opacity:1;stroke:#000000;stroke-width:0.43911034px;stroke-linecap:butt;stroke-linejoin:miter;stroke-opacity:1" />
    </g>
  </g>
</svg>
