<?xml version="1.0" encoding="UTF-8" standalone="no"?>
<!-- Created with Inkscape (http://www.inkscape.org/) -->

<svg
   xmlns:dc="http://purl.org/dc/elements/1.1/"
   xmlns:cc="http://creativecommons.org/ns#"
   xmlns:rdf="http://www.w3.org/1999/02/22-rdf-syntax-ns#"
   xmlns:svg="http://www.w3.org/2000/svg"
   xmlns="http://www.w3.org/2000/svg"
   xmlns:sodipodi="http://sodipodi.sourceforge.net/DTD/sodipodi-0.dtd"
   xmlns:inkscape="http://www.inkscape.org/namespaces/inkscape"
   width="577.03778"
   height="691.71564"
   id="svg8393"
   version="1.1"
   inkscape:version="0.48.4 r9939"
   sodipodi:docname="neocrusaders.svg">
  <defs
     id="defs8395" />
  <sodipodi:namedview
     id="base"
     pagecolor="#ffffff"
     bordercolor="#666666"
     borderopacity="1.0"
     inkscape:pageopacity="0.0"
     inkscape:pageshadow="2"
     inkscape:zoom="0.7"
     inkscape:cx="292.73579"
     inkscape:cy="318.98342"
     inkscape:document-units="px"
     inkscape:current-layer="layer1"
     showgrid="false"
     inkscape:window-width="1920"
     inkscape:window-height="1027"
     inkscape:window-x="-8"
     inkscape:window-y="-8"
     inkscape:window-maximized="1"
     fit-margin-top="5"
     fit-margin-left="5"
     fit-margin-right="5"
     fit-margin-bottom="5"
     units="mm" />
  <metadata
     id="metadata8398">
    <rdf:RDF>
      <cc:Work
         rdf:about="">
        <dc:format>image/svg+xml</dc:format>
        <dc:type
           rdf:resource="http://purl.org/dc/dcmitype/StillImage" />
        <dc:title />
      </cc:Work>
    </rdf:RDF>
  </metadata>
  <g
     inkscape:label="Calque 1"
     inkscape:groupmode="layer"
     id="layer1"
     transform="translate(-86.481115,-186.50436)">
    <path
       inkscape:connector-curvature="0"
       style="fill:#000000;fill-opacity:1;stroke:none"
       d="m 380.94425,204.22727 c -41.93681,-0.32649 -89.34708,11.84556 -151.23998,45.29676 34.78371,-7.0944 98.49976,15.50825 49.20943,35.51506 -31.65912,12.85038 -46.30086,23.15086 -64.86014,37.92286 -20.92465,16.65471 -30.98955,-0.42811 -27.38873,-32.95677 -10.61315,14.49356 -19.7915,29.01448 -27.8402,43.64138 6.97718,6.37451 14.00315,12.7404 21.21875,18.81095 8.52327,2.65012 17.19579,5.04588 25.88385,7.37389 103.08041,-89.37097 245.84874,-43.22325 280.05733,-22.57313 12.68608,7.65801 22.04178,13.90895 26.78679,22.57313 1.29607,2.36648 2.20886,4.80163 3.00975,7.2234 16.32012,-3.71413 32.74498,-7.2221 49.05894,-10.38364 8.3436,-5.42222 16.21894,-11.56939 23.92752,-18.05851 -21.21538,-13.52481 -46.53051,-19.48614 -74.49134,-23.92752 -23.78397,-3.77788 -50.61515,-15.75284 -62.30184,-19.56338 -16.11985,-5.25603 -32.80369,-9.05829 -62.75331,-13.69436 -24.00154,-3.71534 -30.97515,-8.30701 -31.4519,-20.46631 -0.9609,-24.52129 74.13975,-34.98539 157.40998,-20.01485 -46.24726,-19.89296 -86.7065,-36.34878 -134.2349,-36.71896 z m -273.58636,97.51593 71.03012,141.15732 120.99199,63.80672 13.39339,114.97249 63.80672,-46.35016 63.80672,46.35016 13.3934,-114.97249 L 574.77222,442.90052 645.80234,301.7432 567.39833,371.71991 376.58011,413.55545 185.7619,371.71991 107.35789,301.7432 z m 27.38873,85.17596 c -22.6926,61.8669 -28.56354,125.39349 -30.54897,192.02211 9.90603,-65.61874 27.43193,-116.22325 49.81138,-155.00218 -6.64736,-12.12298 -12.99947,-24.52735 -19.26241,-37.01993 z m 54.02503,1.2039 140.40489,58.99112 -23.62655,34.61213 -116.77834,-93.60325 z m 375.61692,0 -116.77833,93.60325 -23.62655,-34.61213 140.40488,-58.99112 z m 37.01994,31.30141 c -3.81477,7.63865 -7.52568,15.29878 -11.13608,23.02459 -4.75304,3.11844 -9.52699,6.22773 -14.4468,9.17974 11.24014,51.82623 -3.68321,100.11178 -34.01019,147.02634 0,0 50.47526,-23.39901 40.93262,-1.2039 -9.54265,22.19515 -23.42097,41.56427 -39.12677,60.79697 -22.92862,28.07741 -45.15055,51.21584 -77.65157,40.48115 -7.18406,-2.3728 -14.60529,-3.9122 -21.97118,-4.66512 -4.71804,40.18629 -9.43073,80.35356 -14.14583,120.54053 20.9234,-11.58437 41.53263,-22.50644 56.58331,-48.45699 4.74458,-8.18065 7.89586,-19.88516 15.04876,-30.54897 7.01667,-10.4606 18.61418,-15.47677 26.6363,-22.57314 33.59927,-29.72189 49.91327,-55.70972 61.09794,-72.38451 22.72059,-33.87294 15.09864,-41.00725 24.83045,-45.14626 9.73184,-4.13901 30.39848,20.4663 30.39848,20.4663 -1.94391,-96.39331 -26.1974,-158.8089 -43.03944,-196.53673 z m -240.62959,39.27725 4.96609,72.98646 -23.77703,20.61679 -12.18949,-51.16576 31.00043,-42.43749 z m 31.60239,0 31.00043,42.43749 -12.18949,51.16576 -23.77703,-20.61679 4.96609,-72.98646 z m -245.29471,6.77194 c -31.30353,92.16989 -21.55492,174.64506 54.17552,258.83858 19.83647,22.05324 -57.33575,15.19924 -57.33575,15.19924 47.12225,32.28461 116.11522,38.15228 174.86653,37.4714 -1.27407,-10.24095 -2.53797,-20.44329 -3.76219,-30.69946 -29.39872,-8.59749 -72.72946,-48.64836 -87.43327,-73.13695 0.19214,14.6507 6.1737,50.99337 -24.52947,14.14583 C 162.8943,639.07903 139.54046,600.92694 147.0866,465.47366 z m 222.87206,128.36587 -19.86435,14.29632 14.89826,241.23154 4.96609,-255.52786 z m 13.24291,0 4.96609,255.52786 14.89826,-241.23154 -19.86435,-14.29632 z m -41.23359,20.46631 -27.68971,20.16533 26.48581,226.0323 1.2039,-246.19763 z m 69.22427,0 1.2039,246.19763 26.48581,-226.0323 -27.68971,-20.16533 z"
       id="path7294" />
  </g>
</svg>
